<?xml version="1.0" encoding="UTF-8" standalone="no"?>
<svg xmlns:ffdec="https://www.free-decompiler.com/flash" xmlns:xlink="http://www.w3.org/1999/xlink" ffdec:objectType="text" height="8.9px" width="52.35px" xmlns="http://www.w3.org/2000/svg">
  <g transform="matrix(1.0, 0.0, 0.0, 1.0, -0.6, 0.3)">
    <g transform="matrix(1.0, 0.0, 0.0, 1.0, 0.0, 0.0)">
      <use fill="#402a00" height="8.9" transform="matrix(0.0078, 0.0, 0.0, 0.0078, 0.0, 8.0)" width="52.35" xlink:href="#font_Trebuchet_MS_P0"/>
      <use fill="#402a00" height="8.9" transform="matrix(0.0078, 0.0, 0.0, 0.0078, 5.7, 8.0)" width="52.35" xlink:href="#font_Trebuchet_MS_L0"/>
      <use fill="#402a00" height="8.9" transform="matrix(0.0078, 0.0, 0.0, 0.0078, 11.1, 8.0)" width="52.35" xlink:href="#font_Trebuchet_MS_A0"/>
      <use fill="#402a00" height="8.9" transform="matrix(0.0078, 0.0, 0.0, 0.0078, 16.45, 8.0)" width="52.35" xlink:href="#font_Trebuchet_MS_Y0"/>
      <use fill="#402a00" height="8.9" transform="matrix(0.0078, 0.0, 0.0, 0.0078, 25.6, 8.0)" width="52.35" xlink:href="#font_Trebuchet_MS_M0"/>
      <use fill="#402a00" height="8.9" transform="matrix(0.0078, 0.0, 0.0, 0.0078, 32.55, 8.0)" width="52.35" xlink:href="#font_Trebuchet_MS_U0"/>
      <use fill="#402a00" height="8.9" transform="matrix(0.0078, 0.0, 0.0, 0.0078, 39.0, 8.0)" width="52.35" xlink:href="#font_Trebuchet_MS_S0"/>
      <use fill="#402a00" height="8.9" transform="matrix(0.0078, 0.0, 0.0, 0.0078, 44.1, 8.0)" width="52.35" xlink:href="#font_Trebuchet_MS_I0"/>
      <use fill="#402a00" height="8.9" transform="matrix(0.0078, 0.0, 0.0, 0.0078, 47.3, 8.0)" width="52.35" xlink:href="#font_Trebuchet_MS_C0"/>
    </g>
  </g>
  <defs>
    <g id="font_Trebuchet_MS_P0">
      <path d="M208.0 -617.5 L208.0 -617.5 Q227.0 -620.0 247.0 -620.0 428.0 -620.0 428.0 -508.0 428.0 -442.5 387.5 -413.0 347.0 -384.0 259.5 -384.0 240.5 -384.0 208.0 -387.5 L208.0 -617.5 M208.0 -271.5 L208.0 -271.5 Q245.0 -268.0 267.0 -268.0 564.0 -268.0 564.0 -518.0 564.0 -630.5 483.5 -683.0 403.0 -736.0 228.5 -736.0 206.5 -736.0 76.0 -730.5 L76.0 0.0 208.0 0.0 208.0 -271.5" fill-rule="evenodd" stroke="none"/>
    </g>
    <g id="font_Trebuchet_MS_L0">
      <path d="M540.0 0.0 L540.0 0.0 540.0 -116.0 208.0 -116.0 208.0 -732.0 76.0 -732.0 76.0 0.0 540.0 0.0" fill-rule="evenodd" stroke="none"/>
    </g>
    <g id="font_Trebuchet_MS_A0">
      <path d="M410.5 -248.0 L410.5 -248.0 236.0 -248.0 324.0 -520.0 410.5 -248.0 M644.0 0.0 L644.0 0.0 352.0 -744.0 296.0 -744.0 4.0 0.0 148.0 0.0 199.0 -148.0 447.5 -148.0 500.0 0.0 644.0 0.0" fill-rule="evenodd" stroke="none"/>
    </g>
    <g id="font_Trebuchet_MS_Y0">
      <path d="M624.0 -732.0 L624.0 -732.0 488.0 -732.0 314.0 -419.5 140.0 -732.0 4.0 -732.0 248.0 -300.0 248.0 0.0 380.0 0.0 380.0 -300.0 624.0 -732.0" fill-rule="evenodd" stroke="none"/>
    </g>
    <g id="font_Trebuchet_MS_M0">
      <path d="M612.0 -732.0 L612.0 -732.0 544.0 -732.0 388.0 -236.0 232.0 -732.0 164.0 -732.0 16.0 0.0 140.0 0.0 220.0 -392.0 364.0 12.0 412.0 12.0 560.0 -392.0 632.0 0.0 760.0 0.0 612.0 -732.0" fill-rule="evenodd" stroke="none"/>
    </g>
    <g id="font_Trebuchet_MS_U0">
      <path d="M76.0 -229.0 L76.0 -229.0 Q76.0 -113.0 146.0 -50.5 215.5 12.0 344.0 12.0 471.5 12.0 547.5 -52.0 624.0 -116.0 624.0 -228.5 L624.0 -732.0 492.0 -732.0 492.0 -239.0 Q492.0 -176.5 453.0 -140.0 413.5 -104.0 343.0 -104.0 280.0 -104.0 244.0 -141.0 208.0 -178.0 208.0 -236.5 L208.0 -732.0 76.0 -732.0 76.0 -229.0" fill-rule="evenodd" stroke="none"/>
    </g>
    <g id="font_Trebuchet_MS_S0">
      <path d="M40.0 -40.5 L40.0 -40.5 Q122.5 12.0 225.0 12.0 343.5 12.0 413.5 -45.5 484.0 -102.5 484.0 -191.0 484.0 -240.5 467.0 -280.5 450.0 -321.0 417.5 -351.0 385.0 -381.0 311.5 -417.0 172.0 -484.5 172.0 -547.0 172.0 -585.0 197.0 -608.5 222.0 -632.0 267.0 -632.0 343.5 -632.0 412.5 -584.0 L452.0 -696.5 Q392.0 -744.0 264.0 -744.0 165.5 -744.0 103.0 -688.0 40.0 -632.0 40.0 -547.0 40.0 -501.5 56.0 -464.0 72.0 -426.5 101.5 -399.5 131.0 -372.0 216.0 -330.5 301.5 -288.5 328.5 -254.5 356.0 -220.5 356.0 -183.5 356.0 -104.0 241.0 -104.0 166.0 -104.0 88.5 -156.0 L40.0 -40.5" fill-rule="evenodd" stroke="none"/>
    </g>
    <g id="font_Trebuchet_MS_I0">
      <path d="M208.0 0.0 L208.0 0.0 208.0 -732.0 76.0 -732.0 76.0 0.0 208.0 0.0" fill-rule="evenodd" stroke="none"/>
    </g>
    <g id="font_Trebuchet_MS_C0">
      <path d="M576.0 -692.0 L576.0 -692.0 Q500.5 -744.0 375.0 -744.0 228.0 -744.0 134.0 -635.0 40.0 -526.0 40.0 -363.5 40.0 -189.5 125.0 -89.0 210.0 12.0 363.0 12.0 516.5 12.0 596.0 -72.0 L535.5 -177.0 Q477.5 -104.0 374.5 -104.0 284.0 -104.0 230.0 -172.5 176.0 -241.5 176.0 -358.5 176.0 -475.0 234.0 -551.5 292.5 -628.0 383.5 -628.0 479.5 -628.0 523.0 -584.5 L576.0 -692.0" fill-rule="evenodd" stroke="none"/>
    </g>
  </defs>
</svg>
