<?xml version="1.0" encoding="UTF-8" standalone="no"?>
<svg xmlns:ffdec="https://www.free-decompiler.com/flash" xmlns:xlink="http://www.w3.org/1999/xlink" ffdec:objectType="text" height="25.75px" width="136.15px" xmlns="http://www.w3.org/2000/svg">
  <g transform="matrix(1.0, 0.0, 0.0, 1.0, -3.3, -6.55)">
    <g transform="matrix(1.0, 0.0, 0.0, 1.0, 0.0, 0.0)">
      <use fill="#004080" height="25.75" transform="matrix(0.0254, 0.0, 0.0, 0.0254, 2.0, 31.0)" width="136.15" xlink:href="#font_Bebas_C0"/>
      <use fill="#004080" height="25.75" transform="matrix(0.0254, 0.0, 0.0, 0.0254, 15.45, 31.0)" width="136.15" xlink:href="#font_Bebas_H0"/>
      <use fill="#004080" height="25.75" transform="matrix(0.0254, 0.0, 0.0, 0.0254, 29.05, 31.0)" width="136.15" xlink:href="#font_Bebas_A0"/>
    </g>
    <g transform="matrix(1.0, 0.0, 0.0, 1.0, 0.0, 0.0)">
      <use fill="#004080" height="25.75" transform="matrix(0.0254, 0.0, 0.0, 0.0254, 44.05, 31.0)" width="136.15" xlink:href="#font_Bebas_R0"/>
    </g>
    <g transform="matrix(1.0, 0.0, 0.0, 1.0, 0.0, 0.0)">
      <use fill="#004080" height="25.75" transform="matrix(0.0254, 0.0, 0.0, 0.0254, 57.2, 31.0)" width="136.15" xlink:href="#font_Bebas_A0"/>
      <use fill="#004080" height="25.75" transform="matrix(0.0254, 0.0, 0.0, 0.0254, 72.2, 31.0)" width="136.15" xlink:href="#font_Bebas_C0"/>
      <use fill="#004080" height="25.75" transform="matrix(0.0254, 0.0, 0.0, 0.0254, 85.65, 31.0)" width="136.15" xlink:href="#font_Bebas_T0"/>
      <use fill="#004080" height="25.75" transform="matrix(0.0254, 0.0, 0.0, 0.0254, 98.95, 31.0)" width="136.15" xlink:href="#font_Bebas_E0"/>
      <use fill="#004080" height="25.75" transform="matrix(0.0254, 0.0, 0.0, 0.0254, 111.3, 31.0)" width="136.15" xlink:href="#font_Bebas_R0"/>
      <use fill="#004080" height="25.75" transform="matrix(0.0254, 0.0, 0.0, 0.0254, 125.4, 31.0)" width="136.15" xlink:href="#font_Bebas_S0"/>
    </g>
  </g>
  <defs>
    <g id="font_Bebas_C0">
      <path d="M293.0 12.0 L293.0 12.0 Q391.5 12.0 462.0 -51.5 532.5 -114.5 532.5 -205.5 L532.5 -333.0 374.0 -333.0 374.0 -207.0 Q374.0 -174.0 348.5 -151.0 323.5 -128.0 288.0 -128.0 252.0 -128.0 227.5 -150.5 202.5 -173.5 202.5 -206.0 L202.5 -701.5 Q202.5 -734.0 227.5 -757.0 252.0 -780.0 288.0 -780.0 323.5 -780.0 348.5 -757.5 374.0 -735.0 374.0 -703.0 L374.0 -599.0 532.5 -599.0 532.5 -703.0 Q532.5 -792.5 463.0 -856.5 393.0 -920.0 293.0 -920.0 193.5 -920.0 123.5 -856.5 53.0 -793.0 53.0 -702.0 L53.0 -205.0 Q53.0 -115.0 123.0 -51.5 193.0 12.0 293.0 12.0" fill-rule="evenodd" stroke="none"/>
    </g>
    <g id="font_Bebas_H0">
      <path d="M387.0 -388.0 L387.0 -388.0 387.0 4.0 537.0 4.0 537.0 -912.0 387.0 -912.0 387.0 -528.0 202.5 -528.0 202.5 -912.0 53.0 -912.0 53.0 4.0 202.5 4.0 202.5 -388.0 387.0 -388.0" fill-rule="evenodd" stroke="none"/>
    </g>
    <g id="font_Bebas_A0">
      <path d="M382.5 -340.0 L382.5 -340.0 270.5 -340.0 326.5 -702.5 382.5 -340.0 M404.0 -208.0 L404.0 -208.0 438.5 4.0 599.0 4.0 431.0 -912.0 223.0 -912.0 53.0 4.0 209.0 4.0 244.0 -208.0 404.0 -208.0" fill-rule="evenodd" stroke="none"/>
    </g>
    <g id="font_Bebas_R0">
      <path d="M378.5 -562.5 L378.5 -562.5 Q378.5 -530.0 353.5 -507.0 328.5 -484.0 293.0 -484.0 L202.5 -484.0 202.5 -772.0 293.0 -772.0 Q378.5 -772.0 378.5 -693.5 L378.5 -562.5 M53.0 -912.0 L53.0 -912.0 53.0 4.0 202.5 4.0 202.5 -344.0 290.5 -344.0 Q297.5 -344.0 304.0 -344.0 L396.5 4.0 560.0 4.0 448.0 -396.0 Q528.0 -463.0 528.0 -560.5 L528.0 -693.5 Q528.0 -793.0 476.0 -848.5 417.0 -912.0 291.0 -912.0 L53.0 -912.0" fill-rule="evenodd" stroke="none"/>
    </g>
    <g id="font_Bebas_T0">
      <path d="M215.5 4.0 L215.5 4.0 365.0 4.0 365.0 -772.0 523.5 -772.0 523.5 -912.0 53.0 -912.0 53.0 -772.0 215.5 -772.0 215.5 4.0" fill-rule="evenodd" stroke="none"/>
    </g>
    <g id="font_Bebas_E0">
      <path d="M483.0 4.0 L483.0 4.0 483.0 -136.0 202.5 -136.0 202.5 -388.0 409.0 -388.0 409.0 -528.0 202.5 -528.0 202.5 -776.0 483.0 -776.0 483.0 -916.0 53.0 -916.0 53.0 4.0 483.0 4.0" fill-rule="evenodd" stroke="none"/>
    </g>
    <g id="font_Bebas_S0">
      <path d="M554.5 -226.5 L554.5 -226.5 Q553.5 -265.0 532.0 -314.0 523.0 -333.5 508.5 -357.0 478.0 -406.5 421.5 -457.5 404.5 -473.5 351.5 -513.5 306.5 -547.0 284.0 -572.0 224.5 -636.5 224.5 -699.5 224.5 -739.5 242.0 -766.5 263.5 -800.0 305.5 -800.0 344.5 -800.0 365.5 -777.5 394.0 -746.0 400.5 -689.5 L545.5 -713.5 Q540.0 -773.5 512.5 -819.5 485.0 -865.5 440.5 -891.0 383.0 -924.0 302.5 -924.0 218.5 -924.0 162.0 -885.5 70.5 -821.0 70.5 -696.5 70.5 -627.5 104.5 -568.5 136.0 -516.0 211.5 -449.5 302.0 -372.5 347.5 -334.0 405.0 -277.5 405.0 -221.0 405.0 -181.5 389.5 -160.5 359.5 -117.5 309.0 -116.0 273.5 -114.5 246.0 -141.5 208.5 -177.0 199.0 -256.5 L53.0 -247.0 Q57.5 -174.0 86.0 -117.5 114.5 -61.0 163.5 -28.0 222.0 12.0 311.0 12.0 359.5 12.0 395.5 2.0 463.0 -17.0 500.0 -63.0 556.0 -131.0 554.5 -226.5" fill-rule="evenodd" stroke="none"/>
    </g>
  </defs>
</svg>
