<?xml version="1.0" encoding="UTF-8" standalone="no"?>
<svg xmlns:ffdec="https://www.free-decompiler.com/flash" xmlns:xlink="http://www.w3.org/1999/xlink" ffdec:objectType="text" height="51.5px" width="689.9px" xmlns="http://www.w3.org/2000/svg">
  <g transform="matrix(1.0, 0.0, 0.0, 1.0, -0.4, -1.05)">
    <g transform="matrix(1.0, 0.0, 0.0, 1.0, 0.0, 0.0)">
      <use fill="#422a00" height="51.5" transform="matrix(0.0137, 0.0, 0.0, 0.0137, 0.0, 13.0)" width="689.9" xlink:href="#font_AW_Conqueror_Sans_Light_A0"/>
      <use fill="#422a00" height="51.5" transform="matrix(0.0137, 0.0, 0.0, 0.0137, 12.95, 13.0)" width="689.9" xlink:href="#font_AW_Conqueror_Sans_Light_b0"/>
      <use fill="#422a00" height="51.5" transform="matrix(0.0137, 0.0, 0.0, 0.0137, 20.5, 13.0)" width="689.9" xlink:href="#font_AW_Conqueror_Sans_Light_e0"/>
      <use fill="#422a00" height="51.5" transform="matrix(0.0137, 0.0, 0.0, 0.0137, 27.6, 13.0)" width="689.9" xlink:href="#font_AW_Conqueror_Sans_Light_a0"/>
      <use fill="#422a00" height="51.5" transform="matrix(0.0137, 0.0, 0.0, 0.0137, 34.7, 13.0)" width="689.9" xlink:href="#font_AW_Conqueror_Sans_Light_u0"/>
      <use fill="#422a00" height="51.5" transform="matrix(0.0137, 0.0, 0.0, 0.0137, 42.35, 13.0)" width="689.9" xlink:href="#font_AW_Conqueror_Sans_Light_t0"/>
      <use fill="#422a00" height="51.5" transform="matrix(0.0137, 0.0, 0.0, 0.0137, 47.45, 13.0)" width="689.9" xlink:href="#font_AW_Conqueror_Sans_Light_i0"/>
      <use fill="#422a00" height="51.5" transform="matrix(0.0137, 0.0, 0.0, 0.0137, 50.85, 13.0)" width="689.9" xlink:href="#font_AW_Conqueror_Sans_Light_f0"/>
      <use fill="#422a00" height="51.5" transform="matrix(0.0137, 0.0, 0.0, 0.0137, 55.5, 13.0)" width="689.9" xlink:href="#font_AW_Conqueror_Sans_Light_u0"/>
      <use fill="#422a00" height="51.5" transform="matrix(0.0137, 0.0, 0.0, 0.0137, 63.15, 13.0)" width="689.9" xlink:href="#font_AW_Conqueror_Sans_Light_l0"/>
      <use fill="#422a00" height="51.5" transform="matrix(0.0137, 0.0, 0.0, 0.0137, 70.05, 13.0)" width="689.9" xlink:href="#font_AW_Conqueror_Sans_Light_m0"/>
      <use fill="#422a00" height="51.5" transform="matrix(0.0137, 0.0, 0.0, 0.0137, 82.2, 13.0)" width="689.9" xlink:href="#font_AW_Conqueror_Sans_Light_i0"/>
      <use fill="#422a00" height="51.5" transform="matrix(0.0137, 0.0, 0.0, 0.0137, 85.6, 13.0)" width="689.9" xlink:href="#font_AW_Conqueror_Sans_Light_x0"/>
      <use fill="#422a00" height="51.5" transform="matrix(0.0137, 0.0, 0.0, 0.0137, 96.0, 13.0)" width="689.9" xlink:href="#font_AW_Conqueror_Sans_Light_o0"/>
      <use fill="#422a00" height="51.5" transform="matrix(0.0137, 0.0, 0.0, 0.0137, 103.3, 13.0)" width="689.9" xlink:href="#font_AW_Conqueror_Sans_Light_f0"/>
      <use fill="#422a00" height="51.5" transform="matrix(0.0137, 0.0, 0.0, 0.0137, 111.45, 13.0)" width="689.9" xlink:href="#font_AW_Conqueror_Sans_Light_30"/>
      <use fill="#422a00" height="51.5" transform="matrix(0.0137, 0.0, 0.0, 0.0137, 119.2, 13.0)" width="689.9" xlink:href="#font_AW_Conqueror_Sans_Light_D0"/>
      <use fill="#422a00" height="51.5" transform="matrix(0.0137, 0.0, 0.0, 0.0137, 133.1, 13.0)" width="689.9" xlink:href="#font_AW_Conqueror_Sans_Light_p0"/>
      <use fill="#422a00" height="51.5" transform="matrix(0.0137, 0.0, 0.0, 0.0137, 140.65, 13.0)" width="689.9" xlink:href="#font_AW_Conqueror_Sans_Light_o0"/>
      <use fill="#422a00" height="51.5" transform="matrix(0.0137, 0.0, 0.0, 0.0137, 147.95, 13.0)" width="689.9" xlink:href="#font_AW_Conqueror_Sans_Light_l0"/>
      <use fill="#422a00" height="51.5" transform="matrix(0.0137, 0.0, 0.0, 0.0137, 151.35, 13.0)" width="689.9" xlink:href="#font_AW_Conqueror_Sans_Light_y0"/>
      <use fill="#422a00" height="51.5" transform="matrix(0.0137, 0.0, 0.0, 0.0137, 157.75, 13.0)" width="689.9" xlink:href="#font_AW_Conqueror_Sans_Light_g0"/>
      <use fill="#422a00" height="51.5" transform="matrix(0.0137, 0.0, 0.0, 0.0137, 165.3, 13.0)" width="689.9" xlink:href="#font_AW_Conqueror_Sans_Light_o0"/>
      <use fill="#422a00" height="51.5" transform="matrix(0.0137, 0.0, 0.0, 0.0137, 172.6, 13.0)" width="689.9" xlink:href="#font_AW_Conqueror_Sans_Light_n0"/>
      <use fill="#422a00" height="51.5" transform="matrix(0.0137, 0.0, 0.0, 0.0137, 180.55, 13.0)" width="689.9" xlink:href="#font_AW_Conqueror_Sans_Light_s0"/>
      <use fill="#422a00" height="51.5" transform="matrix(0.0137, 0.0, 0.0, 0.0137, 186.4, 13.0)" width="689.9" xlink:href="#font_AW_Conqueror_Sans_Light__1"/>
      <use fill="#422a00" height="51.5" transform="matrix(0.0137, 0.0, 0.0, 0.0137, 192.4, 13.0)" width="689.9" xlink:href="#font_AW_Conqueror_Sans_Light_h0"/>
      <use fill="#422a00" height="51.5" transform="matrix(0.0137, 0.0, 0.0, 0.0137, 200.15, 13.0)" width="689.9" xlink:href="#font_AW_Conqueror_Sans_Light_a0"/>
      <use fill="#422a00" height="51.5" transform="matrix(0.0137, 0.0, 0.0, 0.0137, 207.25, 13.0)" width="689.9" xlink:href="#font_AW_Conqueror_Sans_Light_n0"/>
      <use fill="#422a00" height="51.5" transform="matrix(0.0137, 0.0, 0.0, 0.0137, 215.15, 13.0)" width="689.9" xlink:href="#font_AW_Conqueror_Sans_Light_d0"/>
      <use fill="#422a00" height="51.5" transform="matrix(0.0137, 0.0, 0.0, 0.0137, 222.7, 13.0)" width="689.9" xlink:href="#font_AW_Conqueror_Sans_Light_-0"/>
      <use fill="#422a00" height="51.5" transform="matrix(0.0137, 0.0, 0.0, 0.0137, 226.2, 13.0)" width="689.9" xlink:href="#font_AW_Conqueror_Sans_Light_d0"/>
      <use fill="#422a00" height="51.5" transform="matrix(0.0137, 0.0, 0.0, 0.0137, 233.75, 13.0)" width="689.9" xlink:href="#font_AW_Conqueror_Sans_Light_r0"/>
      <use fill="#422a00" height="51.5" transform="matrix(0.0137, 0.0, 0.0, 0.0137, 238.6, 13.0)" width="689.9" xlink:href="#font_AW_Conqueror_Sans_Light_a0"/>
      <use fill="#422a00" height="51.5" transform="matrix(0.0137, 0.0, 0.0, 0.0137, 245.6, 13.0)" width="689.9" xlink:href="#font_AW_Conqueror_Sans_Light_w0"/>
      <use fill="#422a00" height="51.5" transform="matrix(0.0137, 0.0, 0.0, 0.0137, 256.3, 13.0)" width="689.9" xlink:href="#font_AW_Conqueror_Sans_Light_n0"/>
      <use fill="#422a00" height="51.5" transform="matrix(0.0137, 0.0, 0.0, 0.0137, 267.75, 13.0)" width="689.9" xlink:href="#font_AW_Conqueror_Sans_Light_20"/>
      <use fill="#422a00" height="51.5" transform="matrix(0.0137, 0.0, 0.0, 0.0137, 275.5, 13.0)" width="689.9" xlink:href="#font_AW_Conqueror_Sans_Light_D0"/>
      <use fill="#422a00" height="51.5" transform="matrix(0.0137, 0.0, 0.0, 0.0137, 289.4, 13.0)" width="689.9" xlink:href="#font_AW_Conqueror_Sans_Light_b0"/>
      <use fill="#422a00" height="51.5" transform="matrix(0.0137, 0.0, 0.0, 0.0137, 296.95, 13.0)" width="689.9" xlink:href="#font_AW_Conqueror_Sans_Light_a0"/>
      <use fill="#422a00" height="51.5" transform="matrix(0.0137, 0.0, 0.0, 0.0137, 304.0, 13.0)" width="689.9" xlink:href="#font_AW_Conqueror_Sans_Light_c0"/>
      <use fill="#422a00" height="51.5" transform="matrix(0.0137, 0.0, 0.0, 0.0137, 310.8, 13.0)" width="689.9" xlink:href="#font_AW_Conqueror_Sans_Light_k0"/>
      <use fill="#422a00" height="51.5" transform="matrix(0.0137, 0.0, 0.0, 0.0137, 317.6, 13.0)" width="689.9" xlink:href="#font_AW_Conqueror_Sans_Light_g0"/>
      <use fill="#422a00" height="51.5" transform="matrix(0.0137, 0.0, 0.0, 0.0137, 325.15, 13.0)" width="689.9" xlink:href="#font_AW_Conqueror_Sans_Light_r0"/>
      <use fill="#422a00" height="51.5" transform="matrix(0.0137, 0.0, 0.0, 0.0137, 329.85, 13.0)" width="689.9" xlink:href="#font_AW_Conqueror_Sans_Light_o0"/>
      <use fill="#422a00" height="51.5" transform="matrix(0.0137, 0.0, 0.0, 0.0137, 337.15, 13.0)" width="689.9" xlink:href="#font_AW_Conqueror_Sans_Light_u0"/>
      <use fill="#422a00" height="51.5" transform="matrix(0.0137, 0.0, 0.0, 0.0137, 344.8, 13.0)" width="689.9" xlink:href="#font_AW_Conqueror_Sans_Light_n0"/>
      <use fill="#422a00" height="51.5" transform="matrix(0.0137, 0.0, 0.0, 0.0137, 352.75, 13.0)" width="689.9" xlink:href="#font_AW_Conqueror_Sans_Light_d0"/>
      <use fill="#422a00" height="51.5" transform="matrix(0.0137, 0.0, 0.0, 0.0137, 360.3, 13.0)" width="689.9" xlink:href="#font_AW_Conqueror_Sans_Light_s0"/>
      <use fill="#422a00" height="51.5" transform="matrix(0.0137, 0.0, 0.0, 0.0137, 366.15, 13.0)" width="689.9" xlink:href="#font_AW_Conqueror_Sans_Light__1"/>
      <use fill="#422a00" height="51.5" transform="matrix(0.0137, 0.0, 0.0, 0.0137, 372.15, 13.0)" width="689.9" xlink:href="#font_AW_Conqueror_Sans_Light_a0"/>
      <use fill="#422a00" height="51.5" transform="matrix(0.0137, 0.0, 0.0, 0.0137, 379.25, 13.0)" width="689.9" xlink:href="#font_AW_Conqueror_Sans_Light_n0"/>
      <use fill="#422a00" height="51.5" transform="matrix(0.0137, 0.0, 0.0, 0.0137, 387.15, 13.0)" width="689.9" xlink:href="#font_AW_Conqueror_Sans_Light_d0"/>
      <use fill="#422a00" height="51.5" transform="matrix(0.0137, 0.0, 0.0, 0.0137, 398.2, 13.0)" width="689.9" xlink:href="#font_AW_Conqueror_Sans_Light_s0"/>
      <use fill="#422a00" height="51.5" transform="matrix(0.0137, 0.0, 0.0, 0.0137, 404.05, 13.0)" width="689.9" xlink:href="#font_AW_Conqueror_Sans_Light_p0"/>
      <use fill="#422a00" height="51.5" transform="matrix(0.0137, 0.0, 0.0, 0.0137, 411.6, 13.0)" width="689.9" xlink:href="#font_AW_Conqueror_Sans_Light_e0"/>
      <use fill="#422a00" height="51.5" transform="matrix(0.0137, 0.0, 0.0, 0.0137, 418.7, 13.0)" width="689.9" xlink:href="#font_AW_Conqueror_Sans_Light_c0"/>
      <use fill="#422a00" height="51.5" transform="matrix(0.0137, 0.0, 0.0, 0.0137, 425.5, 13.0)" width="689.9" xlink:href="#font_AW_Conqueror_Sans_Light_i0"/>
      <use fill="#422a00" height="51.5" transform="matrix(0.0137, 0.0, 0.0, 0.0137, 428.9, 13.0)" width="689.9" xlink:href="#font_AW_Conqueror_Sans_Light_a0"/>
      <use fill="#422a00" height="51.5" transform="matrix(0.0137, 0.0, 0.0, 0.0137, 436.0, 13.0)" width="689.9" xlink:href="#font_AW_Conqueror_Sans_Light_l0"/>
      <use fill="#422a00" height="51.5" transform="matrix(0.0137, 0.0, 0.0, 0.0137, 442.9, 13.0)" width="689.9" xlink:href="#font_AW_Conqueror_Sans_Light_a0"/>
      <use fill="#422a00" height="51.5" transform="matrix(0.0137, 0.0, 0.0, 0.0137, 450.0, 13.0)" width="689.9" xlink:href="#font_AW_Conqueror_Sans_Light_n0"/>
      <use fill="#422a00" height="51.5" transform="matrix(0.0137, 0.0, 0.0, 0.0137, 457.9, 13.0)" width="689.9" xlink:href="#font_AW_Conqueror_Sans_Light_i0"/>
      <use fill="#422a00" height="51.5" transform="matrix(0.0137, 0.0, 0.0, 0.0137, 461.3, 13.0)" width="689.9" xlink:href="#font_AW_Conqueror_Sans_Light_m0"/>
      <use fill="#422a00" height="51.5" transform="matrix(0.0137, 0.0, 0.0, 0.0137, 473.45, 13.0)" width="689.9" xlink:href="#font_AW_Conqueror_Sans_Light_a0"/>
      <use fill="#422a00" height="51.5" transform="matrix(0.0137, 0.0, 0.0, 0.0137, 480.4, 13.0)" width="689.9" xlink:href="#font_AW_Conqueror_Sans_Light_t0"/>
      <use fill="#422a00" height="51.5" transform="matrix(0.0137, 0.0, 0.0, 0.0137, 485.45, 13.0)" width="689.9" xlink:href="#font_AW_Conqueror_Sans_Light_e0"/>
      <use fill="#422a00" height="51.5" transform="matrix(0.0137, 0.0, 0.0, 0.0137, 492.55, 13.0)" width="689.9" xlink:href="#font_AW_Conqueror_Sans_Light_d0"/>
      <use fill="#422a00" height="51.5" transform="matrix(0.0137, 0.0, 0.0, 0.0137, 503.6, 13.0)" width="689.9" xlink:href="#font_AW_Conqueror_Sans_Light_c0"/>
      <use fill="#422a00" height="51.5" transform="matrix(0.0137, 0.0, 0.0, 0.0137, 510.4, 13.0)" width="689.9" xlink:href="#font_AW_Conqueror_Sans_Light_u0"/>
      <use fill="#422a00" height="51.5" transform="matrix(0.0137, 0.0, 0.0, 0.0137, 518.05, 13.0)" width="689.9" xlink:href="#font_AW_Conqueror_Sans_Light_t0"/>
      <use fill="#422a00" height="51.5" transform="matrix(0.0137, 0.0, 0.0, 0.0137, 522.7, 13.0)" width="689.9" xlink:href="#font_AW_Conqueror_Sans_Light_-0"/>
      <use fill="#422a00" height="51.5" transform="matrix(0.0137, 0.0, 0.0, 0.0137, 526.2, 13.0)" width="689.9" xlink:href="#font_AW_Conqueror_Sans_Light_s0"/>
      <use fill="#422a00" height="51.5" transform="matrix(0.0137, 0.0, 0.0, 0.0137, 532.05, 13.0)" width="689.9" xlink:href="#font_AW_Conqueror_Sans_Light_c0"/>
      <use fill="#422a00" height="51.5" transform="matrix(0.0137, 0.0, 0.0, 0.0137, 538.6, 13.0)" width="689.9" xlink:href="#font_AW_Conqueror_Sans_Light_e0"/>
      <use fill="#422a00" height="51.5" transform="matrix(0.0137, 0.0, 0.0, 0.0137, 545.7, 13.0)" width="689.9" xlink:href="#font_AW_Conqueror_Sans_Light_n0"/>
      <use fill="#422a00" height="51.5" transform="matrix(0.0137, 0.0, 0.0, 0.0137, 553.65, 13.0)" width="689.9" xlink:href="#font_AW_Conqueror_Sans_Light_e0"/>
      <use fill="#422a00" height="51.5" transform="matrix(0.0137, 0.0, 0.0, 0.0137, 560.75, 13.0)" width="689.9" xlink:href="#font_AW_Conqueror_Sans_Light_s0"/>
      <use fill="#422a00" height="51.5" transform="matrix(0.0137, 0.0, 0.0, 0.0137, 570.1, 13.0)" width="689.9" xlink:href="#font_AW_Conqueror_Sans_Light_b0"/>
      <use fill="#422a00" height="51.5" transform="matrix(0.0137, 0.0, 0.0, 0.0137, 577.6, 13.0)" width="689.9" xlink:href="#font_AW_Conqueror_Sans_Light_y0"/>
      <use fill="#422a00" height="51.5" transform="matrix(0.0137, 0.0, 0.0, 0.0137, 587.55, 13.0)" width="689.9" xlink:href="#font_AW_Conqueror_Sans_Light_f0"/>
      <use fill="#422a00" height="51.5" transform="matrix(0.0137, 0.0, 0.0, 0.0137, 591.95, 13.0)" width="689.9" xlink:href="#font_AW_Conqueror_Sans_Light_a0"/>
      <use fill="#422a00" height="51.5" transform="matrix(0.0137, 0.0, 0.0, 0.0137, 599.0, 13.0)" width="689.9" xlink:href="#font_AW_Conqueror_Sans_Light_m0"/>
      <use fill="#422a00" height="51.5" transform="matrix(0.0137, 0.0, 0.0, 0.0137, 611.15, 13.0)" width="689.9" xlink:href="#font_AW_Conqueror_Sans_Light_e0"/>
      <use fill="#422a00" height="51.5" transform="matrix(0.0137, 0.0, 0.0, 0.0137, 618.25, 13.0)" width="689.9" xlink:href="#font_AW_Conqueror_Sans_Light_d0"/>
      <use fill="#422a00" height="51.5" transform="matrix(0.0137, 0.0, 0.0, 0.0137, 629.3, 13.0)" width="689.9" xlink:href="#font_AW_Conqueror_Sans_Light_a0"/>
      <use fill="#422a00" height="51.5" transform="matrix(0.0137, 0.0, 0.0, 0.0137, 636.4, 13.0)" width="689.9" xlink:href="#font_AW_Conqueror_Sans_Light_n0"/>
      <use fill="#422a00" height="51.5" transform="matrix(0.0137, 0.0, 0.0, 0.0137, 644.3, 13.0)" width="689.9" xlink:href="#font_AW_Conqueror_Sans_Light_i0"/>
      <use fill="#422a00" height="51.5" transform="matrix(0.0137, 0.0, 0.0, 0.0137, 647.7, 13.0)" width="689.9" xlink:href="#font_AW_Conqueror_Sans_Light_m0"/>
      <use fill="#422a00" height="51.5" transform="matrix(0.0137, 0.0, 0.0, 0.0137, 659.85, 13.0)" width="689.9" xlink:href="#font_AW_Conqueror_Sans_Light_a0"/>
      <use fill="#422a00" height="51.5" transform="matrix(0.0137, 0.0, 0.0, 0.0137, 666.8, 13.0)" width="689.9" xlink:href="#font_AW_Conqueror_Sans_Light_t0"/>
      <use fill="#422a00" height="51.5" transform="matrix(0.0137, 0.0, 0.0, 0.0137, 671.85, 13.0)" width="689.9" xlink:href="#font_AW_Conqueror_Sans_Light_i0"/>
      <use fill="#422a00" height="51.5" transform="matrix(0.0137, 0.0, 0.0, 0.0137, 675.25, 13.0)" width="689.9" xlink:href="#font_AW_Conqueror_Sans_Light_o0"/>
      <use fill="#422a00" height="51.5" transform="matrix(0.0137, 0.0, 0.0, 0.0137, 682.55, 13.0)" width="689.9" xlink:href="#font_AW_Conqueror_Sans_Light_n0"/>
    </g>
    <g transform="matrix(1.0, 0.0, 0.0, 1.0, 0.0, 0.0)">
      <use fill="#422a00" height="51.5" transform="matrix(0.0137, 0.0, 0.0, 0.0137, 0.0, 31.0)" width="689.9" xlink:href="#font_AW_Conqueror_Sans_Light_s0"/>
      <use fill="#422a00" height="51.5" transform="matrix(0.0137, 0.0, 0.0, 0.0137, 5.85, 31.0)" width="689.9" xlink:href="#font_AW_Conqueror_Sans_Light_t0"/>
      <use fill="#422a00" height="51.5" transform="matrix(0.0137, 0.0, 0.0, 0.0137, 10.9, 31.0)" width="689.9" xlink:href="#font_AW_Conqueror_Sans_Light_u0"/>
      <use fill="#422a00" height="51.5" transform="matrix(0.0137, 0.0, 0.0, 0.0137, 18.6, 31.0)" width="689.9" xlink:href="#font_AW_Conqueror_Sans_Light_d0"/>
      <use fill="#422a00" height="51.5" transform="matrix(0.0137, 0.0, 0.0, 0.0137, 26.15, 31.0)" width="689.9" xlink:href="#font_AW_Conqueror_Sans_Light_i0"/>
      <use fill="#422a00" height="51.5" transform="matrix(0.0137, 0.0, 0.0, 0.0137, 29.55, 31.0)" width="689.9" xlink:href="#font_AW_Conqueror_Sans_Light_o0"/>
      <use fill="#422a00" height="51.5" transform="matrix(0.0137, 0.0, 0.0, 0.0137, 40.35, 31.0)" width="689.9" xlink:href="#font_AW_Conqueror_Sans_Light_M0"/>
      <use fill="#422a00" height="51.5" transform="matrix(0.0137, 0.0, 0.0, 0.0137, 52.2, 31.0)" width="689.9" xlink:href="#font_AW_Conqueror_Sans_Light_A0"/>
      <use fill="#422a00" height="51.5" transform="matrix(0.0137, 0.0, 0.0, 0.0137, 61.65, 31.0)" width="689.9" xlink:href="#font_AW_Conqueror_Sans_Light_D0"/>
      <use fill="#422a00" height="51.5" transform="matrix(0.0137, 0.0, 0.0, 0.0137, 72.05, 31.0)" width="689.9" xlink:href="#font_AW_Conqueror_Sans_Light_H0"/>
      <use fill="#422a00" height="51.5" transform="matrix(0.0137, 0.0, 0.0, 0.0137, 82.95, 31.0)" width="689.9" xlink:href="#font_AW_Conqueror_Sans_Light_O0"/>
      <use fill="#422a00" height="51.5" transform="matrix(0.0137, 0.0, 0.0, 0.0137, 93.45, 31.0)" width="689.9" xlink:href="#font_AW_Conqueror_Sans_Light_U0"/>
      <use fill="#422a00" height="51.5" transform="matrix(0.0137, 0.0, 0.0, 0.0137, 104.35, 31.0)" width="689.9" xlink:href="#font_AW_Conqueror_Sans_Light_S0"/>
      <use fill="#422a00" height="51.5" transform="matrix(0.0137, 0.0, 0.0, 0.0137, 113.55, 31.0)" width="689.9" xlink:href="#font_AW_Conqueror_Sans_Light_E0"/>
      <use fill="#422a00" height="51.5" transform="matrix(0.0137, 0.0, 0.0, 0.0137, 125.8, 31.0)" width="689.9" xlink:href="#font_AW_Conqueror_Sans_Light__2"/>
      <use fill="#422a00" height="51.5" transform="matrix(0.0137, 0.0, 0.0, 0.0137, 130.1, 31.0)" width="689.9" xlink:href="#font_AW_Conqueror_Sans_Light_N0"/>
      <use fill="#422a00" height="51.5" transform="matrix(0.0137, 0.0, 0.0, 0.0137, 141.0, 31.0)" width="689.9" xlink:href="#font_AW_Conqueror_Sans_Light_i0"/>
      <use fill="#422a00" height="51.5" transform="matrix(0.0137, 0.0, 0.0, 0.0137, 144.4, 31.0)" width="689.9" xlink:href="#font_AW_Conqueror_Sans_Light_n0"/>
      <use fill="#422a00" height="51.5" transform="matrix(0.0137, 0.0, 0.0, 0.0137, 152.35, 31.0)" width="689.9" xlink:href="#font_AW_Conqueror_Sans_Light_j0"/>
      <use fill="#422a00" height="51.5" transform="matrix(0.0137, 0.0, 0.0, 0.0137, 155.75, 31.0)" width="689.9" xlink:href="#font_AW_Conqueror_Sans_Light_a0"/>
      <use fill="#422a00" height="51.5" transform="matrix(0.0137, 0.0, 0.0, 0.0137, 166.35, 31.0)" width="689.9" xlink:href="#font_AW_Conqueror_Sans_Light_S0"/>
      <use fill="#422a00" height="51.5" transform="matrix(0.0137, 0.0, 0.0, 0.0137, 175.15, 31.0)" width="689.9" xlink:href="#font_AW_Conqueror_Sans_Light_c0"/>
      <use fill="#422a00" height="51.5" transform="matrix(0.0137, 0.0, 0.0, 0.0137, 181.95, 31.0)" width="689.9" xlink:href="#font_AW_Conqueror_Sans_Light_r0"/>
      <use fill="#422a00" height="51.5" transform="matrix(0.0137, 0.0, 0.0, 0.0137, 186.65, 31.0)" width="689.9" xlink:href="#font_AW_Conqueror_Sans_Light_o0"/>
      <use fill="#422a00" height="51.5" transform="matrix(0.0137, 0.0, 0.0, 0.0137, 193.95, 31.0)" width="689.9" xlink:href="#font_AW_Conqueror_Sans_Light_l0"/>
      <use fill="#422a00" height="51.5" transform="matrix(0.0137, 0.0, 0.0, 0.0137, 197.35, 31.0)" width="689.9" xlink:href="#font_AW_Conqueror_Sans_Light_l0"/>
      <use fill="#422a00" height="51.5" transform="matrix(0.0137, 0.0, 0.0, 0.0137, 200.75, 31.0)" width="689.9" xlink:href="#font_AW_Conqueror_Sans_Light__1"/>
      <use fill="#422a00" height="51.5" transform="matrix(0.0137, 0.0, 0.0, 0.0137, 206.75, 31.0)" width="689.9" xlink:href="#font_AW_Conqueror_Sans_Light_T0"/>
      <use fill="#422a00" height="51.5" transform="matrix(0.0137, 0.0, 0.0, 0.0137, 214.05, 31.0)" width="689.9" xlink:href="#font_AW_Conqueror_Sans_Light_r0"/>
      <use fill="#422a00" height="51.5" transform="matrix(0.0137, 0.0, 0.0, 0.0137, 219.15, 31.0)" width="689.9" xlink:href="#font_AW_Conqueror_Sans_Light_i0"/>
      <use fill="#422a00" height="51.5" transform="matrix(0.0137, 0.0, 0.0, 0.0137, 222.6, 31.0)" width="689.9" xlink:href="#font_AW_Conqueror_Sans_Light_g0"/>
      <use fill="#422a00" height="51.5" transform="matrix(0.0137, 0.0, 0.0, 0.0137, 230.15, 31.0)" width="689.9" xlink:href="#font_AW_Conqueror_Sans_Light_u0"/>
      <use fill="#422a00" height="51.5" transform="matrix(0.0137, 0.0, 0.0, 0.0137, 237.8, 31.0)" width="689.9" xlink:href="#font_AW_Conqueror_Sans_Light_n0"/>
      <use fill="#422a00" height="51.5" transform="matrix(0.0137, 0.0, 0.0, 0.0137, 245.75, 31.0)" width="689.9" xlink:href="#font_AW_Conqueror_Sans_Light__1"/>
      <use fill="#422a00" height="51.5" transform="matrix(0.0137, 0.0, 0.0, 0.0137, 251.75, 31.0)" width="689.9" xlink:href="#font_AW_Conqueror_Sans_Light_D0"/>
      <use fill="#422a00" height="51.5" transform="matrix(0.0137, 0.0, 0.0, 0.0137, 262.15, 31.0)" width="689.9" xlink:href="#font_AW_Conqueror_Sans_Light_e0"/>
      <use fill="#422a00" height="51.5" transform="matrix(0.0137, 0.0, 0.0, 0.0137, 269.25, 31.0)" width="689.9" xlink:href="#font_AW_Conqueror_Sans_Light_a0"/>
      <use fill="#422a00" height="51.5" transform="matrix(0.0137, 0.0, 0.0, 0.0137, 276.2, 31.0)" width="689.9" xlink:href="#font_AW_Conqueror_Sans_Light_t0"/>
      <use fill="#422a00" height="51.5" transform="matrix(0.0137, 0.0, 0.0, 0.0137, 281.25, 31.0)" width="689.9" xlink:href="#font_AW_Conqueror_Sans_Light_h0"/>
      <use fill="#422a00" height="51.5" transform="matrix(0.0137, 0.0, 0.0, 0.0137, 292.5, 31.0)" width="689.9" xlink:href="#font_AW_Conqueror_Sans_Light_N0"/>
      <use fill="#422a00" height="51.5" transform="matrix(0.0137, 0.0, 0.0, 0.0137, 303.4, 31.0)" width="689.9" xlink:href="#font_AW_Conqueror_Sans_Light_o0"/>
      <use fill="#422a00" height="51.5" transform="matrix(0.0137, 0.0, 0.0, 0.0137, 310.75, 31.0)" width="689.9" xlink:href="#font_AW_Conqueror_Sans_Light_t0"/>
      <use fill="#422a00" height="51.5" transform="matrix(0.0137, 0.0, 0.0, 0.0137, 315.85, 31.0)" width="689.9" xlink:href="#font_AW_Conqueror_Sans_Light_e0"/>
      <use fill="#422a00" height="51.5" transform="matrix(0.0137, 0.0, 0.0, 0.0137, 322.95, 31.0)" width="689.9" xlink:href="#font_AW_Conqueror_Sans_Light__3"/>
      <use fill="#422a00" height="51.5" transform="matrix(0.0137, 0.0, 0.0, 0.0137, 330.75, 31.0)" width="689.9" xlink:href="#font_AW_Conqueror_Sans_Light_c0"/>
      <use fill="#422a00" height="51.5" transform="matrix(0.0137, 0.0, 0.0, 0.0137, 337.25, 31.0)" width="689.9" xlink:href="#font_AW_Conqueror_Sans_Light_o0"/>
      <use fill="#422a00" height="51.5" transform="matrix(0.0137, 0.0, 0.0, 0.0137, 344.6, 31.0)" width="689.9" xlink:href="#font_AW_Conqueror_Sans_Light_m0"/>
      <use fill="#422a00" height="51.5" transform="matrix(0.0137, 0.0, 0.0, 0.0137, 356.75, 31.0)" width="689.9" xlink:href="#font_AW_Conqueror_Sans_Light_b0"/>
      <use fill="#422a00" height="51.5" transform="matrix(0.0137, 0.0, 0.0, 0.0137, 364.3, 31.0)" width="689.9" xlink:href="#font_AW_Conqueror_Sans_Light_i0"/>
      <use fill="#422a00" height="51.5" transform="matrix(0.0137, 0.0, 0.0, 0.0137, 367.7, 31.0)" width="689.9" xlink:href="#font_AW_Conqueror_Sans_Light_n0"/>
      <use fill="#422a00" height="51.5" transform="matrix(0.0137, 0.0, 0.0, 0.0137, 375.65, 31.0)" width="689.9" xlink:href="#font_AW_Conqueror_Sans_Light_e0"/>
      <use fill="#422a00" height="51.5" transform="matrix(0.0137, 0.0, 0.0, 0.0137, 386.25, 31.0)" width="689.9" xlink:href="#font_AW_Conqueror_Sans_Light_f0"/>
      <use fill="#422a00" height="51.5" transform="matrix(0.0137, 0.0, 0.0, 0.0137, 390.65, 31.0)" width="689.9" xlink:href="#font_AW_Conqueror_Sans_Light_o0"/>
      <use fill="#422a00" height="51.5" transform="matrix(0.0137, 0.0, 0.0, 0.0137, 397.95, 31.0)" width="689.9" xlink:href="#font_AW_Conqueror_Sans_Light_r0"/>
      <use fill="#422a00" height="51.5" transform="matrix(0.0137, 0.0, 0.0, 0.0137, 406.7, 31.0)" width="689.9" xlink:href="#font_AW_Conqueror_Sans_Light_o0"/>
      <use fill="#422a00" height="51.5" transform="matrix(0.0137, 0.0, 0.0, 0.0137, 414.0, 31.0)" width="689.9" xlink:href="#font_AW_Conqueror_Sans_Light_n0"/>
      <use fill="#422a00" height="51.5" transform="matrix(0.0137, 0.0, 0.0, 0.0137, 421.95, 31.0)" width="689.9" xlink:href="#font_AW_Conqueror_Sans_Light_e0"/>
      <use fill="#422a00" height="51.5" transform="matrix(0.0137, 0.0, 0.0, 0.0137, 432.55, 31.0)" width="689.9" xlink:href="#font_AW_Conqueror_Sans_Light_o0"/>
      <use fill="#422a00" height="51.5" transform="matrix(0.0137, 0.0, 0.0, 0.0137, 439.85, 31.0)" width="689.9" xlink:href="#font_AW_Conqueror_Sans_Light_f0"/>
      <use fill="#422a00" height="51.5" transform="matrix(0.0137, 0.0, 0.0, 0.0137, 448.0, 31.0)" width="689.9" xlink:href="#font_AW_Conqueror_Sans_Light_t0"/>
      <use fill="#422a00" height="51.5" transform="matrix(0.0137, 0.0, 0.0, 0.0137, 453.05, 31.0)" width="689.9" xlink:href="#font_AW_Conqueror_Sans_Light_h0"/>
      <use fill="#422a00" height="51.5" transform="matrix(0.0137, 0.0, 0.0, 0.0137, 460.8, 31.0)" width="689.9" xlink:href="#font_AW_Conqueror_Sans_Light_e0"/>
      <use fill="#422a00" height="51.5" transform="matrix(0.0137, 0.0, 0.0, 0.0137, 471.4, 31.0)" width="689.9" xlink:href="#font_AW_Conqueror_Sans_Light_m0"/>
      <use fill="#422a00" height="51.5" transform="matrix(0.0137, 0.0, 0.0, 0.0137, 483.55, 31.0)" width="689.9" xlink:href="#font_AW_Conqueror_Sans_Light_o0"/>
      <use fill="#422a00" height="51.5" transform="matrix(0.0137, 0.0, 0.0, 0.0137, 490.85, 31.0)" width="689.9" xlink:href="#font_AW_Conqueror_Sans_Light_s0"/>
      <use fill="#422a00" height="51.5" transform="matrix(0.0137, 0.0, 0.0, 0.0137, 496.7, 31.0)" width="689.9" xlink:href="#font_AW_Conqueror_Sans_Light_t0"/>
      <use fill="#422a00" height="51.5" transform="matrix(0.0137, 0.0, 0.0, 0.0137, 505.25, 31.0)" width="689.9" xlink:href="#font_AW_Conqueror_Sans_Light_g0"/>
      <use fill="#422a00" height="51.5" transform="matrix(0.0137, 0.0, 0.0, 0.0137, 512.8, 31.0)" width="689.9" xlink:href="#font_AW_Conqueror_Sans_Light_r0"/>
      <use fill="#422a00" height="51.5" transform="matrix(0.0137, 0.0, 0.0, 0.0137, 517.65, 31.0)" width="689.9" xlink:href="#font_AW_Conqueror_Sans_Light_a0"/>
      <use fill="#422a00" height="51.5" transform="matrix(0.0137, 0.0, 0.0, 0.0137, 524.75, 31.0)" width="689.9" xlink:href="#font_AW_Conqueror_Sans_Light_p0"/>
      <use fill="#422a00" height="51.5" transform="matrix(0.0137, 0.0, 0.0, 0.0137, 532.3, 31.0)" width="689.9" xlink:href="#font_AW_Conqueror_Sans_Light_h0"/>
      <use fill="#422a00" height="51.5" transform="matrix(0.0137, 0.0, 0.0, 0.0137, 540.05, 31.0)" width="689.9" xlink:href="#font_AW_Conqueror_Sans_Light_i0"/>
      <use fill="#422a00" height="51.5" transform="matrix(0.0137, 0.0, 0.0, 0.0137, 543.45, 31.0)" width="689.9" xlink:href="#font_AW_Conqueror_Sans_Light_c0"/>
      <use fill="#422a00" height="51.5" transform="matrix(0.0137, 0.0, 0.0, 0.0137, 550.1, 31.0)" width="689.9" xlink:href="#font_AW_Conqueror_Sans_Light_a0"/>
      <use fill="#422a00" height="51.5" transform="matrix(0.0137, 0.0, 0.0, 0.0137, 557.2, 31.0)" width="689.9" xlink:href="#font_AW_Conqueror_Sans_Light_l0"/>
      <use fill="#422a00" height="51.5" transform="matrix(0.0137, 0.0, 0.0, 0.0137, 560.6, 31.0)" width="689.9" xlink:href="#font_AW_Conqueror_Sans_Light_l0"/>
      <use fill="#422a00" height="51.5" transform="matrix(0.0137, 0.0, 0.0, 0.0137, 564.0, 31.0)" width="689.9" xlink:href="#font_AW_Conqueror_Sans_Light_y0"/>
      <use fill="#422a00" height="51.5" transform="matrix(0.0137, 0.0, 0.0, 0.0137, 574.0, 31.0)" width="689.9" xlink:href="#font_AW_Conqueror_Sans_Light_i0"/>
      <use fill="#422a00" height="51.5" transform="matrix(0.0137, 0.0, 0.0, 0.0137, 577.4, 31.0)" width="689.9" xlink:href="#font_AW_Conqueror_Sans_Light_m0"/>
      <use fill="#422a00" height="51.5" transform="matrix(0.0137, 0.0, 0.0, 0.0137, 589.55, 31.0)" width="689.9" xlink:href="#font_AW_Conqueror_Sans_Light_p0"/>
      <use fill="#422a00" height="51.5" transform="matrix(0.0137, 0.0, 0.0, 0.0137, 597.1, 31.0)" width="689.9" xlink:href="#font_AW_Conqueror_Sans_Light_r0"/>
      <use fill="#422a00" height="51.5" transform="matrix(0.0137, 0.0, 0.0, 0.0137, 601.8, 31.0)" width="689.9" xlink:href="#font_AW_Conqueror_Sans_Light_e0"/>
      <use fill="#422a00" height="51.5" transform="matrix(0.0137, 0.0, 0.0, 0.0137, 608.9, 31.0)" width="689.9" xlink:href="#font_AW_Conqueror_Sans_Light_s0"/>
      <use fill="#422a00" height="51.5" transform="matrix(0.0137, 0.0, 0.0, 0.0137, 614.75, 31.0)" width="689.9" xlink:href="#font_AW_Conqueror_Sans_Light_s0"/>
      <use fill="#422a00" height="51.5" transform="matrix(0.0137, 0.0, 0.0, 0.0137, 620.6, 31.0)" width="689.9" xlink:href="#font_AW_Conqueror_Sans_Light_i0"/>
      <use fill="#422a00" height="51.5" transform="matrix(0.0137, 0.0, 0.0, 0.0137, 624.0, 31.0)" width="689.9" xlink:href="#font_AW_Conqueror_Sans_Light_v0"/>
      <use fill="#422a00" height="51.5" transform="matrix(0.0137, 0.0, 0.0, 0.0137, 630.4, 31.0)" width="689.9" xlink:href="#font_AW_Conqueror_Sans_Light_e0"/>
      <use fill="#422a00" height="51.5" transform="matrix(0.0137, 0.0, 0.0, 0.0137, 641.0, 31.0)" width="689.9" xlink:href="#font_AW_Conqueror_Sans_Light_g0"/>
      <use fill="#422a00" height="51.5" transform="matrix(0.0137, 0.0, 0.0, 0.0137, 648.55, 31.0)" width="689.9" xlink:href="#font_AW_Conqueror_Sans_Light_a0"/>
      <use fill="#422a00" height="51.5" transform="matrix(0.0137, 0.0, 0.0, 0.0137, 655.65, 31.0)" width="689.9" xlink:href="#font_AW_Conqueror_Sans_Light_m0"/>
      <use fill="#422a00" height="51.5" transform="matrix(0.0137, 0.0, 0.0, 0.0137, 667.8, 31.0)" width="689.9" xlink:href="#font_AW_Conqueror_Sans_Light_e0"/>
      <use fill="#422a00" height="51.5" transform="matrix(0.0137, 0.0, 0.0, 0.0137, 674.9, 31.0)" width="689.9" xlink:href="#font_AW_Conqueror_Sans_Light_s0"/>
    </g>
    <g transform="matrix(1.0, 0.0, 0.0, 1.0, 0.0, 0.0)">
      <use fill="#422a00" height="51.5" transform="matrix(0.0137, 0.0, 0.0, 0.0137, 0.0, 49.0)" width="689.9" xlink:href="#font_AW_Conqueror_Sans_Light_o0"/>
      <use fill="#422a00" height="51.5" transform="matrix(0.0137, 0.0, 0.0, 0.0137, 7.3, 49.0)" width="689.9" xlink:href="#font_AW_Conqueror_Sans_Light_n0"/>
      <use fill="#422a00" height="51.5" transform="matrix(0.0137, 0.0, 0.0, 0.0137, 18.75, 49.0)" width="689.9" xlink:href="#font_AW_Conqueror_Sans_Light_t0"/>
      <use fill="#422a00" height="51.5" transform="matrix(0.0137, 0.0, 0.0, 0.0137, 23.8, 49.0)" width="689.9" xlink:href="#font_AW_Conqueror_Sans_Light_h0"/>
      <use fill="#422a00" height="51.5" transform="matrix(0.0137, 0.0, 0.0, 0.0137, 31.55, 49.0)" width="689.9" xlink:href="#font_AW_Conqueror_Sans_Light_e0"/>
      <use fill="#422a00" height="51.5" transform="matrix(0.0137, 0.0, 0.0, 0.0137, 42.15, 49.0)" width="689.9" xlink:href="#font_AW_Conqueror_Sans_Light_s0"/>
      <use fill="#422a00" height="51.5" transform="matrix(0.0137, 0.0, 0.0, 0.0137, 47.95, 49.0)" width="689.9" xlink:href="#font_AW_Conqueror_Sans_Light_y0"/>
      <use fill="#422a00" height="51.5" transform="matrix(0.0137, 0.0, 0.0, 0.0137, 54.35, 49.0)" width="689.9" xlink:href="#font_AW_Conqueror_Sans_Light_s0"/>
      <use fill="#422a00" height="51.5" transform="matrix(0.0137, 0.0, 0.0, 0.0137, 60.2, 49.0)" width="689.9" xlink:href="#font_AW_Conqueror_Sans_Light_t0"/>
      <use fill="#422a00" height="51.5" transform="matrix(0.0137, 0.0, 0.0, 0.0137, 65.25, 49.0)" width="689.9" xlink:href="#font_AW_Conqueror_Sans_Light_e0"/>
      <use fill="#422a00" height="51.5" transform="matrix(0.0137, 0.0, 0.0, 0.0137, 72.35, 49.0)" width="689.9" xlink:href="#font_AW_Conqueror_Sans_Light_m0"/>
      <use fill="#422a00" height="51.5" transform="matrix(0.0137, 0.0, 0.0, 0.0137, 84.5, 49.0)" width="689.9" xlink:href="#font_AW_Conqueror_Sans_Light_.0"/>
    </g>
  </g>
  <defs>
    <g id="font_AW_Conqueror_Sans_Light_A0">
      <path d="M470.0 -276.0 L470.0 -276.0 216.0 -276.0 342.5 -598.0 470.0 -276.0 470.0 -276.0 M659.5 0.0 L659.5 0.0 376.5 -704.0 313.5 -704.0 28.5 0.0 108.5 0.0 191.5 -212.0 494.5 -212.0 578.5 0.0 659.5 0.0 659.5 0.0" fill-rule="evenodd" stroke="none"/>
    </g>
    <g id="font_AW_Conqueror_Sans_Light_b0">
      <path d="M436.5 -229.5 L436.5 -229.5 Q436.0 -145.5 390.5 -95.0 345.5 -45.0 262.0 -44.0 208.5 -43.0 159.5 -59.5 L159.5 -400.5 Q206.5 -416.0 253.0 -416.0 337.5 -415.5 386.5 -367.5 435.5 -319.0 436.5 -229.5 L436.5 -229.5 M159.5 -692.0 L159.5 -692.0 92.5 -692.0 92.5 -13.0 Q177.0 11.5 256.0 12.0 373.5 10.0 440.0 -56.0 506.5 -122.5 507.5 -230.5 504.0 -358.0 430.0 -415.5 356.5 -473.0 259.0 -472.0 208.0 -471.5 159.5 -459.0 L159.5 -692.0 159.5 -692.0" fill-rule="evenodd" stroke="none"/>
    </g>
    <g id="font_AW_Conqueror_Sans_Light_e0">
      <path d="M400.0 -275.5 L400.0 -275.5 114.0 -275.5 Q120.5 -337.0 154.5 -376.0 188.0 -415.0 258.0 -416.5 328.0 -415.0 364.0 -375.0 400.0 -335.0 400.0 -275.5 L400.0 -275.5 M454.5 -63.0 L454.5 -63.0 413.5 -104.5 Q358.5 -44.0 276.5 -44.0 201.5 -45.0 158.0 -93.0 115.0 -140.5 112.0 -220.5 L472.0 -220.5 Q468.5 -467.5 258.0 -471.5 168.0 -472.0 107.5 -410.5 46.5 -349.5 44.0 -225.5 44.0 -130.0 100.5 -60.5 157.0 8.5 271.0 12.0 390.5 9.0 454.5 -63.0 L454.5 -63.0" fill-rule="evenodd" stroke="none"/>
    </g>
    <g id="font_AW_Conqueror_Sans_Light_a0">
      <path d="M431.5 -1.5 L431.5 -1.5 431.5 -312.5 Q430.0 -391.5 378.5 -432.0 326.5 -472.0 243.5 -472.0 132.5 -469.5 69.5 -397.5 L114.5 -356.0 Q166.0 -418.0 240.5 -416.0 361.0 -413.5 364.5 -305.0 L364.5 -242.5 Q304.5 -267.0 229.5 -268.0 156.0 -268.5 103.5 -235.0 51.0 -201.5 48.5 -126.0 50.0 -62.0 95.5 -25.5 141.0 11.0 211.0 11.5 309.5 11.5 368.5 -61.5 L368.5 -1.5 431.5 -1.5 431.5 -1.5 M364.5 -119.0 L364.5 -119.0 Q312.5 -43.5 225.5 -43.5 119.5 -47.5 115.5 -127.0 117.5 -178.5 155.0 -198.0 192.5 -217.0 240.5 -216.0 307.0 -215.5 364.5 -191.0 L364.5 -119.0 364.5 -119.0" fill-rule="evenodd" stroke="none"/>
    </g>
    <g id="font_AW_Conqueror_Sans_Light_u0">
      <path d="M279.5 12.0 L279.5 12.0 Q374.5 11.0 424.5 -34.5 475.0 -79.5 475.5 -153.5 L475.5 -460.0 408.5 -460.0 408.5 -159.5 Q407.0 -103.5 371.5 -74.0 336.0 -44.0 279.5 -44.0 226.0 -44.5 189.5 -75.5 153.0 -107.0 151.5 -162.5 L151.5 -460.0 84.5 -460.0 84.5 -153.5 Q85.0 -80.0 135.5 -34.5 186.0 10.5 279.5 12.0 L279.5 12.0" fill-rule="evenodd" stroke="none"/>
    </g>
    <g id="font_AW_Conqueror_Sans_Light_t0">
      <path d="M112.5 -178.5 L112.5 -178.5 Q110.5 -104.0 145.0 -47.5 179.5 9.0 276.0 12.0 311.0 11.5 337.5 8.0 L328.0 -48.0 Q312.0 -44.5 290.0 -44.0 224.0 -46.0 201.0 -86.0 178.0 -126.0 179.5 -180.5 L179.5 -404.5 318.0 -404.5 318.0 -459.5 179.5 -459.5 179.5 -624.5 112.5 -624.5 112.5 -459.5 29.5 -459.5 29.5 -404.5 112.5 -404.5 112.5 -178.5 112.5 -178.5" fill-rule="evenodd" stroke="none"/>
    </g>
    <g id="font_AW_Conqueror_Sans_Light_i0">
      <path d="M81.0 -659.5 L81.0 -659.5 Q83.5 -618.5 125.5 -616.0 168.0 -618.5 171.0 -659.5 168.0 -701.0 125.5 -704.0 83.5 -701.0 81.0 -659.5 L81.0 -659.5 M159.5 0.0 L159.5 0.0 159.5 -460.0 92.5 -460.0 92.5 0.0 159.5 0.0 159.5 0.0" fill-rule="evenodd" stroke="none"/>
    </g>
    <g id="font_AW_Conqueror_Sans_Light_f0">
      <path d="M112.5 -501.5 L112.5 -501.5 112.5 -459.5 29.5 -459.5 29.5 -404.5 112.5 -404.5 112.5 0.0 179.5 0.0 179.5 -404.5 318.0 -404.5 318.0 -459.5 179.5 -459.5 179.5 -499.0 Q181.0 -644.5 300.5 -648.0 332.0 -647.5 358.0 -636.5 L375.0 -693.0 Q341.5 -704.5 307.5 -704.0 206.5 -701.0 159.0 -641.0 112.0 -581.0 112.5 -501.5 L112.5 -501.5" fill-rule="evenodd" stroke="none"/>
    </g>
    <g id="font_AW_Conqueror_Sans_Light_l0">
      <path d="M159.5 0.0 L159.5 0.0 159.5 -692.0 92.5 -692.0 92.5 0.0 159.5 0.0 159.5 0.0" fill-rule="evenodd" stroke="none"/>
    </g>
    <g id="font_AW_Conqueror_Sans_Light_m0">
      <path d="M807.5 0.0 L807.5 0.0 807.5 -310.5 Q805.5 -390.5 756.5 -431.0 707.5 -472.0 635.5 -472.0 519.5 -468.0 466.5 -386.5 418.5 -472.5 311.5 -472.0 200.0 -465.0 155.5 -400.5 L155.5 -459.0 92.5 -459.0 92.5 0.0 159.5 0.0 159.5 -338.0 Q191.0 -408.5 293.0 -416.0 345.0 -416.0 380.0 -386.0 415.0 -355.5 416.5 -297.0 L416.5 0.0 483.5 0.0 483.5 -303.5 Q483.5 -319.0 481.5 -333.0 519.5 -413.0 617.0 -416.0 669.0 -416.0 704.0 -386.0 739.0 -355.5 740.5 -297.0 L740.5 0.0 807.5 0.0 807.5 0.0" fill-rule="evenodd" stroke="none"/>
    </g>
    <g id="font_AW_Conqueror_Sans_Light_x0">
      <path d="M464.0 0.0 L464.0 0.0 296.0 -231.5 462.5 -460.0 393.0 -460.0 258.0 -271.5 120.5 -460.0 43.5 -460.0 209.0 -232.5 40.0 0.0 111.0 0.0 248.0 -190.5 386.5 0.0 464.0 0.0 464.0 0.0" fill-rule="evenodd" stroke="none"/>
    </g>
    <g id="font_AW_Conqueror_Sans_Light_o0">
      <path d="M487.5 -228.5 L487.5 -228.5 Q487.5 -330.5 432.0 -400.0 376.5 -469.0 266.0 -471.5 155.5 -469.0 100.0 -401.5 44.5 -333.5 44.5 -231.5 44.5 -129.5 100.0 -60.0 155.5 9.0 266.0 11.5 376.5 9.0 432.0 -58.5 487.5 -126.5 487.5 -228.5 L487.5 -228.5 M416.5 -229.5 L416.5 -229.5 Q417.0 -147.5 381.5 -96.0 346.0 -45.0 266.0 -43.5 186.0 -45.5 150.5 -97.5 115.0 -149.5 115.5 -230.5 115.0 -312.5 150.5 -364.0 186.0 -415.0 266.0 -416.5 346.0 -414.5 381.5 -362.5 417.0 -310.5 416.5 -229.5 L416.5 -229.5" fill-rule="evenodd" stroke="none"/>
    </g>
    <g id="font_AW_Conqueror_Sans_Light_30">
      <path d="M495.5 -3.5 L495.5 -3.5 Q494.0 -84.5 446.0 -130.5 398.5 -176.5 323.0 -189.5 387.5 -203.0 427.0 -244.0 466.5 -285.0 467.5 -346.0 465.5 -432.5 405.0 -476.0 345.0 -519.5 252.0 -519.5 126.0 -519.5 58.5 -443.0 L102.5 -400.5 Q151.5 -461.5 253.0 -460.5 315.5 -459.5 353.5 -429.0 391.5 -398.5 392.5 -345.0 391.5 -282.0 344.5 -249.0 298.0 -216.0 219.5 -215.5 L157.0 -215.5 157.0 -152.5 217.5 -152.5 Q416.5 -151.0 420.5 -3.5 416.5 137.5 252.5 140.0 153.5 140.0 94.5 72.5 L47.5 116.5 Q89.0 157.0 137.0 176.5 185.0 196.0 252.5 196.0 353.0 196.0 423.0 147.0 492.5 97.5 495.5 -3.5 L495.5 -3.5" fill-rule="evenodd" stroke="none"/>
    </g>
    <g id="font_AW_Conqueror_Sans_Light_D0">
      <path d="M628.5 -346.0 L628.5 -346.0 Q628.5 -220.5 563.0 -143.5 497.5 -66.0 367.5 -63.5 L195.5 -63.5 195.5 -628.5 367.5 -628.5 Q488.5 -626.5 558.0 -551.5 627.0 -476.0 628.5 -346.0 L628.5 -346.0 M703.5 -347.0 L703.5 -347.0 Q704.0 -491.0 623.0 -589.5 541.5 -687.5 372.5 -691.5 L120.5 -691.5 120.5 -0.5 372.5 -0.5 Q537.0 -4.0 620.0 -102.0 703.5 -200.0 703.5 -347.0 L703.5 -347.0" fill-rule="evenodd" stroke="none"/>
    </g>
    <g id="font_AW_Conqueror_Sans_Light_p0">
      <path d="M436.5 -228.5 L436.5 -228.5 Q436.0 -144.5 390.5 -94.5 345.5 -45.0 262.0 -44.0 208.5 -43.0 159.5 -59.5 L159.5 -400.5 Q206.5 -416.0 253.0 -416.0 337.5 -415.5 386.5 -367.0 435.5 -318.0 436.5 -228.5 L436.5 -228.5 M507.5 -229.5 L507.5 -229.5 Q504.0 -357.0 430.0 -415.0 356.5 -473.0 259.0 -472.0 173.0 -471.5 92.5 -446.0 L92.5 211.5 159.5 211.5 159.5 -1.0 Q212.5 12.5 265.0 12.0 366.0 11.0 435.5 -51.5 504.5 -114.0 507.5 -229.5 L507.5 -229.5" fill-rule="evenodd" stroke="none"/>
    </g>
    <g id="font_AW_Conqueror_Sans_Light_y0">
      <path d="M271.5 213.0 L271.5 213.0 271.5 13.0 465.0 -460.0 399.5 -460.0 239.5 -61.5 79.5 -460.0 9.0 -460.0 204.5 13.0 204.5 213.0 271.5 213.0 271.5 213.0" fill-rule="evenodd" stroke="none"/>
    </g>
    <g id="font_AW_Conqueror_Sans_Light_g0">
      <path d="M115.5 -238.5 L115.5 -238.5 Q116.0 -319.5 161.5 -367.5 206.5 -415.0 290.0 -416.0 343.5 -415.5 392.5 -399.5 L392.5 -74.5 Q345.5 -59.5 299.0 -60.0 214.5 -60.5 165.5 -106.5 116.5 -152.5 115.5 -238.5 L115.5 -238.5 M459.5 -446.0 L459.5 -446.0 Q375.0 -470.0 296.0 -472.0 178.5 -470.0 112.0 -406.0 45.5 -341.5 44.5 -237.5 48.0 -115.0 122.0 -59.0 195.5 -3.0 293.0 -4.0 344.0 -4.0 392.5 -16.0 L392.5 25.0 Q392.0 159.5 248.5 156.0 161.0 154.5 106.0 94.0 L63.0 136.5 Q129.5 209.0 246.5 212.0 341.0 213.0 399.5 167.0 458.0 120.5 459.5 12.5 L459.5 -446.0 459.5 -446.0" fill-rule="evenodd" stroke="none"/>
    </g>
    <g id="font_AW_Conqueror_Sans_Light_n0">
      <path d="M495.5 0.0 L495.5 0.0 495.5 -310.5 Q493.5 -390.5 442.5 -431.0 392.0 -472.0 317.0 -472.0 202.0 -465.0 155.5 -400.5 L155.5 -459.0 92.5 -459.0 92.5 0.0 159.5 0.0 159.5 -338.0 Q193.0 -408.5 300.5 -416.0 354.5 -416.0 390.5 -386.0 427.0 -355.5 428.5 -297.0 L428.5 0.0 495.5 0.0 495.5 0.0" fill-rule="evenodd" stroke="none"/>
    </g>
    <g id="font_AW_Conqueror_Sans_Light_s0">
      <path d="M337.0 -354.5 L337.0 -354.5 381.5 -396.0 Q315.0 -476.0 220.5 -471.5 150.5 -471.0 108.0 -438.0 65.0 -404.5 64.0 -343.0 68.5 -262.0 130.5 -236.5 192.0 -211.0 254.0 -192.5 315.5 -174.0 320.5 -113.5 321.0 -49.5 217.5 -43.5 135.5 -45.0 87.0 -108.5 L40.5 -67.0 Q111.5 14.5 214.5 11.5 286.0 11.0 334.0 -23.5 381.5 -58.5 383.5 -123.0 379.0 -205.5 317.5 -232.5 256.0 -260.0 194.5 -278.0 132.5 -296.0 128.0 -350.5 124.0 -411.5 217.5 -416.5 291.5 -416.5 337.0 -354.5 L337.0 -354.5" fill-rule="evenodd" stroke="none"/>
    </g>
    <g id="font_AW_Conqueror_Sans_Light__1">
      <path d="M92.0 156.0 L92.0 156.0 164.0 -96.0 97.5 -96.0 40.0 156.0 92.0 156.0 92.0 156.0" fill-rule="evenodd" stroke="none"/>
    </g>
    <g id="font_AW_Conqueror_Sans_Light_h0">
      <path d="M479.5 0.0 L479.5 0.0 479.5 -310.5 Q477.5 -390.5 429.0 -431.0 380.0 -472.0 308.5 -472.0 202.5 -466.0 159.5 -402.5 L159.5 -692.0 92.5 -692.0 92.5 0.0 159.5 0.0 159.5 -338.0 Q190.5 -408.5 291.5 -416.0 342.5 -416.0 376.5 -386.0 411.0 -355.5 412.5 -297.0 L412.5 0.0 479.5 0.0 479.5 0.0" fill-rule="evenodd" stroke="none"/>
    </g>
    <g id="font_AW_Conqueror_Sans_Light_d0">
      <path d="M115.5 -231.5 L115.5 -231.5 Q116.0 -315.5 161.5 -365.5 206.5 -415.0 290.0 -416.0 343.5 -416.5 392.5 -399.5 L392.5 -58.5 Q345.5 -43.5 299.0 -44.0 214.5 -44.5 165.5 -93.0 116.5 -142.0 115.5 -231.5 L115.5 -231.5 M44.5 -230.5 L44.5 -230.5 Q48.0 -103.0 122.0 -45.0 195.5 13.0 293.0 12.0 379.0 12.5 459.5 -13.0 L459.5 -692.0 392.5 -692.0 392.5 -458.0 Q339.5 -471.5 287.0 -472.0 186.0 -471.0 116.5 -408.5 47.5 -346.0 44.5 -230.5 L44.5 -230.5" fill-rule="evenodd" stroke="none"/>
    </g>
    <g id="font_AW_Conqueror_Sans_Light_-0">
      <path d="M236.0 -208.5 L236.0 -208.5 236.0 -271.5 20.0 -271.5 20.0 -208.5 236.0 -208.5 236.0 -208.5" fill-rule="evenodd" stroke="none"/>
    </g>
    <g id="font_AW_Conqueror_Sans_Light_r0">
      <path d="M342.0 -397.0 L342.0 -397.0 358.5 -461.0 Q328.0 -471.0 296.0 -471.5 194.5 -464.5 145.0 -386.0 L145.0 -458.0 84.5 -458.0 84.5 0.0 151.5 0.0 151.5 -325.0 Q201.0 -403.5 287.0 -408.5 316.0 -408.0 342.0 -397.0 L342.0 -397.0" fill-rule="evenodd" stroke="none"/>
    </g>
    <g id="font_AW_Conqueror_Sans_Light_w0">
      <path d="M756.0 -460.0 L756.0 -460.0 691.5 -460.0 563.0 -75.5 425.0 -460.0 364.5 -460.0 227.0 -74.5 97.5 -460.0 28.0 -460.0 191.0 8.0 253.5 8.0 393.0 -371.5 530.5 8.0 593.0 8.0 756.0 -460.0 756.0 -460.0" fill-rule="evenodd" stroke="none"/>
    </g>
    <g id="font_AW_Conqueror_Sans_Light_20">
      <path d="M69.5 -441.0 L69.5 -441.0 114.0 -398.0 Q163.5 -460.5 256.0 -460.5 316.5 -460.0 356.0 -431.0 395.0 -401.5 396.5 -344.5 400.0 -275.5 326.0 -215.0 252.5 -154.5 58.5 -50.0 L58.5 0.0 517.5 0.0 517.5 -64.0 184.5 -64.0 Q300.5 -122.5 384.0 -187.5 467.5 -252.5 471.5 -341.5 468.0 -436.0 405.5 -478.0 343.0 -520.5 262.0 -519.5 139.0 -519.5 69.5 -441.0 L69.5 -441.0" fill-rule="evenodd" stroke="none"/>
    </g>
    <g id="font_AW_Conqueror_Sans_Light_c0">
      <path d="M449.5 -63.5 L449.5 -63.5 410.0 -105.5 Q352.0 -43.0 271.5 -44.0 187.5 -47.0 149.5 -102.5 111.0 -158.0 112.0 -232.5 111.0 -309.5 148.0 -361.5 185.0 -414.0 268.5 -416.0 351.5 -413.5 400.5 -352.5 L444.5 -396.5 Q383.0 -469.0 266.5 -472.0 157.0 -469.5 101.0 -402.5 44.5 -335.0 44.0 -230.5 43.5 -133.5 97.5 -62.5 151.5 8.5 267.5 12.0 387.0 9.0 449.5 -63.5 L449.5 -63.5" fill-rule="evenodd" stroke="none"/>
    </g>
    <g id="font_AW_Conqueror_Sans_Light_k0">
      <path d="M159.5 0.0 L159.5 0.0 159.5 -692.0 92.5 -692.0 92.5 0.0 159.5 0.0 159.5 0.0 M484.0 0.0 L484.0 0.0 259.0 -238.5 485.5 -460.0 399.0 -460.0 178.0 -237.5 395.0 0.0 484.0 0.0 484.0 0.0" fill-rule="evenodd" stroke="none"/>
    </g>
    <g id="font_AW_Conqueror_Sans_Light_M0">
      <path d="M747.5 0.0 L747.5 0.0 747.5 -700.0 689.5 -700.0 435.5 -292.0 182.5 -700.0 124.0 -700.0 124.0 0.0 196.0 0.0 196.0 -545.0 408.0 -210.0 460.0 -210.0 672.5 -553.5 672.5 0.0 747.5 0.0 747.5 0.0" fill-rule="evenodd" stroke="none"/>
    </g>
    <g id="font_AW_Conqueror_Sans_Light_H0">
      <path d="M675.5 0.0 L675.5 0.0 675.5 -692.0 600.5 -692.0 600.5 -392.0 195.5 -392.0 195.5 -692.0 120.5 -692.0 120.5 0.0 195.5 0.0 195.5 -328.0 600.5 -328.0 600.5 0.0 675.5 0.0 675.5 0.0" fill-rule="evenodd" stroke="none"/>
    </g>
    <g id="font_AW_Conqueror_Sans_Light_O0">
      <path d="M711.5 -347.0 L711.5 -347.0 Q711.5 -492.0 629.0 -595.5 546.5 -699.0 384.0 -703.5 221.5 -699.0 139.0 -595.5 56.5 -492.0 56.5 -347.0 56.5 -202.0 139.0 -97.5 221.5 7.0 384.0 11.5 546.5 7.0 629.0 -97.5 711.5 -202.0 711.5 -347.0 L711.5 -347.0 M636.5 -346.0 L636.5 -346.0 Q636.0 -226.5 572.5 -141.0 509.0 -55.5 384.0 -51.5 259.0 -56.0 195.5 -142.0 132.0 -227.5 131.5 -346.0 132.0 -465.5 195.5 -551.0 259.0 -636.5 384.0 -640.5 509.0 -636.0 572.5 -550.0 636.0 -464.5 636.5 -346.0 L636.5 -346.0" fill-rule="evenodd" stroke="none"/>
    </g>
    <g id="font_AW_Conqueror_Sans_Light_U0">
      <path d="M398.5 11.5 L398.5 11.5 Q519.0 11.0 596.0 -53.0 673.5 -116.5 676.0 -234.0 L676.0 -692.0 604.0 -692.0 604.0 -232.0 Q602.0 -143.0 545.5 -97.5 488.5 -52.0 398.5 -51.5 314.5 -51.5 256.5 -96.5 198.0 -141.5 195.5 -233.0 L195.5 -692.0 120.5 -692.0 120.5 -234.0 Q123.5 -117.0 202.0 -53.0 281.0 11.0 398.5 11.5 L398.5 11.5" fill-rule="evenodd" stroke="none"/>
    </g>
    <g id="font_AW_Conqueror_Sans_Light_S0">
      <path d="M522.5 -550.5 L522.5 -550.5 573.5 -598.5 Q481.5 -708.0 343.0 -703.5 225.0 -701.0 172.0 -647.0 119.0 -592.5 120.0 -518.5 127.0 -404.5 219.5 -366.0 312.0 -327.5 404.5 -295.0 497.0 -263.0 504.0 -168.0 501.5 -58.0 338.5 -51.5 209.0 -55.0 141.5 -149.0 L87.5 -98.5 Q187.0 15.5 336.5 11.5 443.0 11.5 510.5 -38.0 577.5 -87.0 580.0 -181.5 573.0 -297.5 480.5 -339.5 388.0 -381.5 295.5 -413.0 203.0 -444.5 196.0 -530.0 193.5 -633.5 345.0 -640.5 457.5 -639.0 522.5 -550.5 L522.5 -550.5" fill-rule="evenodd" stroke="none"/>
    </g>
    <g id="font_AW_Conqueror_Sans_Light_E0">
      <path d="M554.0 0.0 L554.0 0.0 554.0 -64.0 195.5 -64.0 195.5 -324.5 503.0 -324.5 503.0 -387.5 195.5 -387.5 195.5 -628.0 533.5 -628.0 533.5 -692.0 120.5 -692.0 120.5 0.0 554.0 0.0 554.0 0.0" fill-rule="evenodd" stroke="none"/>
    </g>
    <g id="font_AW_Conqueror_Sans_Light__2">
      <path d="M302.5 211.0 L302.5 211.0 Q231.0 123.5 184.0 13.5 137.5 -97.0 135.5 -240.5 137.5 -384.0 184.0 -494.0 231.0 -604.5 302.5 -692.0 L239.0 -692.0 Q176.0 -618.5 124.0 -509.0 71.5 -399.0 68.5 -240.5 71.5 -81.0 124.0 28.0 176.0 137.0 239.0 211.0 L302.5 211.0 302.5 211.0" fill-rule="evenodd" stroke="none"/>
    </g>
    <g id="font_AW_Conqueror_Sans_Light_N0">
      <path d="M676.0 8.0 L676.0 8.0 676.0 -692.0 604.0 -692.0 604.0 -131.5 178.5 -700.0 124.0 -700.0 124.0 0.0 196.0 0.0 196.0 -557.5 620.5 8.0 676.0 8.0 676.0 8.0" fill-rule="evenodd" stroke="none"/>
    </g>
    <g id="font_AW_Conqueror_Sans_Light_j0">
      <path d="M81.0 -659.5 L81.0 -659.5 Q83.5 -618.5 125.5 -616.0 168.0 -618.5 171.0 -659.5 168.0 -701.0 125.5 -704.0 83.5 -701.0 81.0 -659.5 L81.0 -659.5 M-11.0 213.0 L-11.0 213.0 Q78.0 201.0 119.0 144.5 160.0 88.5 159.5 12.0 L159.5 -460.0 92.5 -460.0 92.5 10.0 Q95.0 142.0 -25.5 155.5 L-11.0 213.0 -11.0 213.0" fill-rule="evenodd" stroke="none"/>
    </g>
    <g id="font_AW_Conqueror_Sans_Light_T0">
      <path d="M614.5 -628.0 L614.5 -628.0 614.5 -692.0 28.5 -692.0 28.5 -628.0 284.5 -628.0 284.5 0.0 359.5 0.0 359.5 -628.0 614.5 -628.0 614.5 -628.0" fill-rule="evenodd" stroke="none"/>
    </g>
    <g id="font_AW_Conqueror_Sans_Light__3">
      <path d="M77.0 211.0 L77.0 211.0 Q140.0 137.0 192.0 28.0 244.5 -81.0 247.5 -240.5 244.5 -399.0 192.0 -509.0 140.0 -618.5 77.0 -692.0 L13.5 -692.0 Q85.0 -604.5 132.0 -494.0 178.5 -384.0 180.5 -240.5 178.5 -97.0 132.0 13.5 85.0 123.5 13.5 211.0 L77.0 211.0 77.0 211.0" fill-rule="evenodd" stroke="none"/>
    </g>
    <g id="font_AW_Conqueror_Sans_Light_v0">
      <path d="M463.5 -460.0 L463.5 -460.0 398.0 -460.0 238.5 -65.0 79.5 -460.0 8.5 -460.0 202.5 8.0 270.5 8.0 463.5 -460.0 463.5 -460.0" fill-rule="evenodd" stroke="none"/>
    </g>
    <g id="font_AW_Conqueror_Sans_Light_.0">
      <path d="M76.5 -49.5 L76.5 -49.5 Q79.5 -3.5 125.5 -0.5 172.0 -3.5 175.5 -49.5 172.0 -96.0 125.5 -99.5 79.5 -96.0 76.5 -49.5 L76.5 -49.5" fill-rule="evenodd" stroke="none"/>
    </g>
  </defs>
</svg>
