<?xml version="1.0" encoding="UTF-8" standalone="no"?>
<svg xmlns:ffdec="https://www.free-decompiler.com/flash" xmlns:xlink="http://www.w3.org/1999/xlink" ffdec:objectType="text" height="20.3px" width="357.75px" xmlns="http://www.w3.org/2000/svg">
  <g transform="matrix(1.0, 0.0, 0.0, 1.0, -163.3, 0.6)">
    <g transform="matrix(1.0, 0.0, 0.0, 1.0, 161.55, 0.0)">
      <use fill="#ffffff" height="20.3" transform="matrix(0.0215, 0.0, 0.0, 0.0215, 0.0, 17.0)" width="357.75" xlink:href="#font_Myriad_Pro_U0"/>
      <use fill="#ffffff" height="20.3" transform="matrix(0.0215, 0.0, 0.0, 0.0215, 14.25, 17.0)" width="357.75" xlink:href="#font_Myriad_Pro_N0"/>
      <use fill="#ffffff" height="20.3" transform="matrix(0.0215, 0.0, 0.0, 0.0215, 28.7, 17.0)" width="357.75" xlink:href="#font_Myriad_Pro_I0"/>
      <use fill="#ffffff" height="20.3" transform="matrix(0.0215, 0.0, 0.0, 0.0215, 33.95, 17.0)" width="357.75" xlink:href="#font_Myriad_Pro_Q0"/>
      <use fill="#ffffff" height="20.3" transform="matrix(0.0215, 0.0, 0.0, 0.0215, 49.1, 17.0)" width="357.75" xlink:href="#font_Myriad_Pro_U0"/>
      <use fill="#ffffff" height="20.3" transform="matrix(0.0215, 0.0, 0.0, 0.0215, 63.35, 17.0)" width="357.75" xlink:href="#font_Myriad_Pro_E0"/>
      <use fill="#ffffff" height="20.3" transform="matrix(0.0215, 0.0, 0.0, 0.0215, 78.85, 17.0)" width="357.75" xlink:href="#font_Myriad_Pro_R0"/>
      <use fill="#ffffff" height="20.3" transform="matrix(0.0215, 0.0, 0.0, 0.0215, 90.7, 17.0)" width="357.75" xlink:href="#font_Myriad_Pro_O0"/>
      <use fill="#ffffff" height="20.3" transform="matrix(0.0215, 0.0, 0.0, 0.0215, 105.85, 17.0)" width="357.75" xlink:href="#font_Myriad_Pro_B0"/>
      <use fill="#ffffff" height="20.3" transform="matrix(0.0215, 0.0, 0.0, 0.0215, 117.8, 17.0)" width="357.75" xlink:href="#font_Myriad_Pro_O0"/>
      <use fill="#ffffff" height="20.3" transform="matrix(0.0215, 0.0, 0.0, 0.0215, 132.45, 17.0)" width="357.75" xlink:href="#font_Myriad_Pro_T0"/>
      <use fill="#ffffff" height="20.3" transform="matrix(0.0215, 0.0, 0.0, 0.0215, 142.25, 17.0)" width="357.75" xlink:href="#font_Myriad_Pro_-0"/>
      <use fill="#ffffff" height="20.3" transform="matrix(0.0215, 0.0, 0.0, 0.0215, 149.0, 17.0)" width="357.75" xlink:href="#font_Myriad_Pro_B0"/>
      <use fill="#ffffff" height="20.3" transform="matrix(0.0215, 0.0, 0.0, 0.0215, 160.95, 17.0)" width="357.75" xlink:href="#font_Myriad_Pro_A0"/>
      <use fill="#ffffff" height="20.3" transform="matrix(0.0215, 0.0, 0.0, 0.0215, 174.45, 17.0)" width="357.75" xlink:href="#font_Myriad_Pro_S0"/>
      <use fill="#ffffff" height="20.3" transform="matrix(0.0215, 0.0, 0.0, 0.0215, 185.3, 17.0)" width="357.75" xlink:href="#font_Myriad_Pro_E0"/>
      <use fill="#ffffff" height="20.3" transform="matrix(0.0215, 0.0, 0.0, 0.0215, 196.1, 17.0)" width="357.75" xlink:href="#font_Myriad_Pro_D0"/>
      <use fill="#ffffff" height="20.3" transform="matrix(0.0215, 0.0, 0.0, 0.0215, 215.45, 17.0)" width="357.75" xlink:href="#font_Myriad_Pro_B0"/>
      <use fill="#ffffff" height="20.3" transform="matrix(0.0215, 0.0, 0.0, 0.0215, 227.4, 17.0)" width="357.75" xlink:href="#font_Myriad_Pro_A0"/>
      <use fill="#ffffff" height="20.3" transform="matrix(0.0215, 0.0, 0.0, 0.0215, 239.2, 17.0)" width="357.75" xlink:href="#font_Myriad_Pro_T0"/>
      <use fill="#ffffff" height="20.3" transform="matrix(0.0215, 0.0, 0.0, 0.0215, 250.15, 17.0)" width="357.75" xlink:href="#font_Myriad_Pro_T0"/>
      <use fill="#ffffff" height="20.3" transform="matrix(0.0215, 0.0, 0.0, 0.0215, 261.1, 17.0)" width="357.75" xlink:href="#font_Myriad_Pro_L0"/>
      <use fill="#ffffff" height="20.3" transform="matrix(0.0215, 0.0, 0.0, 0.0215, 271.45, 17.0)" width="357.75" xlink:href="#font_Myriad_Pro_E0"/>
      <use fill="#ffffff" height="20.3" transform="matrix(0.0215, 0.0, 0.0, 0.0215, 286.95, 17.0)" width="357.75" xlink:href="#font_Myriad_Pro_S0"/>
      <use fill="#ffffff" height="20.3" transform="matrix(0.0215, 0.0, 0.0, 0.0215, 297.8, 17.0)" width="357.75" xlink:href="#font_Myriad_Pro_Y0"/>
      <use fill="#ffffff" height="20.3" transform="matrix(0.0215, 0.0, 0.0, 0.0215, 309.4, 17.0)" width="357.75" xlink:href="#font_Myriad_Pro_S0"/>
      <use fill="#ffffff" height="20.3" transform="matrix(0.0215, 0.0, 0.0, 0.0215, 320.25, 17.0)" width="357.75" xlink:href="#font_Myriad_Pro_T0"/>
      <use fill="#ffffff" height="20.3" transform="matrix(0.0215, 0.0, 0.0, 0.0215, 331.2, 17.0)" width="357.75" xlink:href="#font_Myriad_Pro_E0"/>
      <use fill="#ffffff" height="20.3" transform="matrix(0.0215, 0.0, 0.0, 0.0215, 342.0, 17.0)" width="357.75" xlink:href="#font_Myriad_Pro_M0"/>
    </g>
  </g>
  <defs>
    <g id="font_Myriad_Pro_U0">
      <path d="M76.0 -692.0 L76.0 -692.0 76.0 -285.5 Q78.5 -126.0 148.0 -56.5 217.0 13.0 325.5 11.5 439.5 12.5 512.5 -59.0 585.5 -131.0 588.0 -289.0 L588.0 -692.0 496.0 -692.0 496.0 -282.5 Q488.0 -59.5 328.5 -63.5 258.0 -63.0 213.5 -115.5 169.5 -168.0 168.0 -282.5 L168.0 -692.0 76.0 -692.0 76.0 -692.0" fill-rule="evenodd" stroke="none"/>
    </g>
    <g id="font_Myriad_Pro_N0">
      <path d="M160.0 0.0 L160.0 0.0 160.0 -295.5 Q160.0 -380.0 159.0 -447.5 157.5 -515.0 154.0 -579.5 L157.0 -580.5 Q210.5 -466.5 285.5 -350.0 L506.0 0.0 596.0 0.0 596.0 -691.5 512.0 -691.5 512.0 -401.0 Q511.0 -251.5 522.5 -120.5 L519.0 -119.5 Q471.5 -224.0 395.5 -343.5 L174.5 -692.0 76.0 -692.0 76.0 -0.5 160.0 0.0 160.0 0.0" fill-rule="evenodd" stroke="none"/>
    </g>
    <g id="font_Myriad_Pro_I0">
      <path d="M76.0 -692.0 L76.0 -692.0 76.0 0.0 168.0 0.0 168.0 -692.0 76.0 -692.0 76.0 -692.0" fill-rule="evenodd" stroke="none"/>
    </g>
    <g id="font_Myriad_Pro_Q0">
      <path d="M352.0 -63.5 L352.0 -63.5 Q246.0 -67.5 189.0 -147.5 132.5 -228.0 132.0 -341.5 132.0 -457.0 187.5 -540.5 243.0 -624.5 355.0 -628.5 464.0 -624.0 518.0 -540.5 572.0 -457.0 572.0 -348.5 571.5 -228.5 515.0 -147.5 458.0 -67.0 352.0 -63.5 L352.0 -63.5 M673.0 27.0 L673.0 27.0 Q578.5 10.5 470.0 -18.0 L470.0 -22.5 Q557.5 -54.0 612.0 -137.5 666.5 -220.5 668.0 -353.5 666.0 -508.5 583.0 -604.5 499.5 -700.5 357.0 -703.5 215.5 -701.5 127.0 -604.0 38.5 -506.5 36.0 -339.5 39.5 -172.5 127.0 -83.0 214.0 6.5 341.0 11.5 360.0 13.0 382.5 22.0 503.5 64.0 647.0 101.5 L673.0 27.0 673.0 27.0" fill-rule="evenodd" stroke="none"/>
    </g>
    <g id="font_Myriad_Pro_E0">
      <path d="M435.0 -399.5 L435.0 -399.5 168.0 -399.5 168.0 -616.0 451.5 -616.0 451.5 -692.0 76.0 -692.0 76.0 0.0 467.0 0.0 467.0 -76.0 168.0 -76.0 168.0 -324.5 435.0 -324.5 435.0 -399.5 435.0 -399.5" fill-rule="evenodd" stroke="none"/>
    </g>
    <g id="font_Myriad_Pro_R0">
      <path d="M168.0 -617.5 L168.0 -617.5 Q191.0 -624.0 255.0 -624.5 326.0 -624.5 368.5 -594.0 411.0 -563.5 412.0 -497.5 406.0 -374.0 258.0 -367.5 L168.0 -367.5 168.0 -617.5 168.0 -617.5 M76.0 0.0 L76.0 0.0 168.0 0.0 168.0 -296.5 251.0 -296.5 Q364.5 -298.5 389.0 -163.5 416.5 -33.0 434.5 0.0 L528.5 0.0 Q508.0 -42.0 474.5 -188.0 450.0 -296.5 372.5 -327.5 L372.5 -331.0 Q428.0 -350.5 465.5 -395.0 502.5 -439.5 504.0 -506.5 502.0 -589.5 448.0 -638.0 387.0 -696.0 249.0 -695.5 152.5 -694.5 76.0 -681.0 L76.0 0.0 76.0 0.0" fill-rule="evenodd" stroke="none"/>
    </g>
    <g id="font_Myriad_Pro_O0">
      <path d="M353.0 -628.5 L353.0 -628.5 Q463.5 -624.0 518.0 -540.0 572.0 -456.0 572.0 -348.5 571.5 -228.5 515.0 -147.5 458.0 -67.0 352.0 -63.5 246.0 -67.0 189.0 -147.5 132.5 -228.0 132.0 -342.5 132.0 -458.5 187.0 -541.5 242.5 -624.5 353.0 -628.5 L353.0 -628.5 M356.0 -703.5 L356.0 -703.5 Q215.5 -701.5 127.5 -603.5 39.0 -506.0 36.0 -340.5 38.5 -182.0 123.0 -86.5 208.0 9.0 347.0 11.5 482.0 11.0 573.0 -82.5 664.5 -175.5 668.0 -352.5 666.0 -509.0 582.5 -605.0 499.5 -701.0 356.0 -703.5 L356.0 -703.5" fill-rule="evenodd" stroke="none"/>
    </g>
    <g id="font_Myriad_Pro_B0">
      <path d="M168.0 -332.0 L168.0 -332.0 241.0 -332.0 Q314.5 -332.5 364.5 -300.5 414.0 -268.0 416.0 -198.5 413.5 -124.0 363.0 -93.0 312.0 -62.5 241.5 -63.5 195.0 -63.5 168.0 -67.5 L168.0 -332.0 168.0 -332.0 M168.0 -618.5 L168.0 -618.5 Q187.0 -623.5 246.5 -624.5 388.5 -628.0 396.0 -514.0 395.5 -464.5 357.0 -432.5 318.5 -401.0 248.5 -400.0 L168.0 -400.0 168.0 -618.5 168.0 -618.5 M76.0 -1.0 L76.0 -1.0 Q123.5 6.5 216.5 7.5 381.5 8.5 451.5 -58.5 509.0 -108.0 512.0 -197.5 509.0 -274.0 464.5 -316.5 420.5 -359.0 368.5 -370.5 L368.5 -374.0 Q483.5 -418.5 488.0 -523.0 485.5 -603.0 429.0 -643.5 370.0 -696.5 241.0 -695.5 143.0 -695.0 76.0 -679.5 L76.0 -1.0 76.0 -1.0" fill-rule="evenodd" stroke="none"/>
    </g>
    <g id="font_Myriad_Pro_T0">
      <path d="M208.0 0.0 L208.0 0.0 300.0 0.0 300.0 -616.0 511.0 -616.0 511.0 -692.0 -2.0 -692.0 -2.0 -616.0 208.0 -616.0 208.0 0.0 208.0 0.0" fill-rule="evenodd" stroke="none"/>
    </g>
    <g id="font_Myriad_Pro_-0">
      <path d="M28.5 -311.5 L28.5 -311.5 28.5 -244.5 283.5 -244.5 283.5 -311.5 28.5 -311.5 28.5 -311.5" fill-rule="evenodd" stroke="none"/>
    </g>
    <g id="font_Myriad_Pro_A0">
      <path d="M207.0 -287.5 L207.0 -287.5 275.0 -488.0 Q295.5 -551.0 310.0 -612.0 L312.0 -612.0 Q326.0 -553.0 348.0 -486.0 L416.5 -287.5 207.0 -287.5 207.0 -287.5 M434.0 -216.5 L434.0 -216.5 508.0 0.0 603.5 0.0 367.5 -692.0 260.5 -692.0 24.5 0.0 117.0 0.0 188.5 -216.5 434.0 -216.5 434.0 -216.5" fill-rule="evenodd" stroke="none"/>
    </g>
    <g id="font_Myriad_Pro_S0">
      <path d="M42.0 -34.0 L42.0 -34.0 Q71.0 -14.5 119.5 -1.5 168.0 11.5 219.0 12.0 340.0 9.5 400.0 -48.5 460.0 -106.5 460.0 -189.0 460.0 -264.0 415.5 -311.5 371.5 -359.0 284.0 -391.5 213.5 -418.0 180.5 -448.0 147.5 -477.5 148.0 -525.0 147.0 -562.5 177.5 -594.5 207.5 -626.5 277.0 -628.5 371.5 -622.0 406.5 -595.5 L431.5 -668.0 Q385.0 -700.0 280.0 -703.5 178.5 -702.0 118.0 -649.5 57.5 -597.0 56.0 -514.5 63.5 -375.0 239.0 -318.0 373.0 -271.5 368.0 -182.0 364.5 -70.5 225.0 -64.0 130.0 -67.5 65.5 -109.0 L42.0 -34.0 42.0 -34.0" fill-rule="evenodd" stroke="none"/>
    </g>
    <g id="font_Myriad_Pro_D0">
      <path d="M168.0 -615.0 L168.0 -615.0 Q203.0 -623.5 272.5 -624.5 413.5 -623.0 483.5 -552.0 553.0 -481.5 552.0 -357.5 548.5 -70.5 258.0 -64.0 203.5 -63.5 168.0 -68.0 L168.0 -615.0 168.0 -615.0 M76.0 -0.5 L76.0 -0.5 Q145.0 7.5 240.5 8.0 445.5 6.5 547.0 -91.5 646.0 -189.0 648.0 -360.5 645.5 -526.5 548.0 -609.0 459.0 -694.0 268.5 -695.5 161.0 -695.0 76.0 -680.0 L76.0 -0.5 76.0 -0.5" fill-rule="evenodd" stroke="none"/>
    </g>
    <g id="font_Myriad_Pro_L0">
      <path d="M76.0 0.0 L76.0 0.0 463.0 0.0 463.0 -76.0 168.0 -76.0 168.0 -692.0 76.0 -692.0 76.0 0.0 76.0 0.0" fill-rule="evenodd" stroke="none"/>
    </g>
    <g id="font_Myriad_Pro_Y0">
      <path d="M324.0 0.0 L324.0 0.0 324.0 -294.5 554.5 -692.0 454.0 -692.0 354.5 -501.0 Q313.5 -424.5 284.5 -358.5 L282.0 -358.5 Q250.5 -426.5 212.5 -501.0 L115.5 -692.0 13.0 -692.0 232.0 -293.5 232.0 0.0 324.0 0.0 324.0 0.0" fill-rule="evenodd" stroke="none"/>
    </g>
    <g id="font_Myriad_Pro_M0">
      <path d="M675.0 0.0 L675.0 0.0 763.5 0.0 720.5 -691.5 606.5 -691.5 483.0 -356.0 Q436.5 -227.0 409.0 -124.0 L407.0 -124.0 Q379.5 -230.0 337.0 -356.0 L219.0 -691.5 104.5 -691.5 56.5 0.0 141.5 0.0 160.0 -295.5 Q165.0 -375.0 168.5 -455.0 172.0 -534.5 173.5 -600.5 L175.5 -600.5 Q205.0 -478.5 255.0 -332.5 L368.0 -4.0 435.5 -4.0 558.0 -338.5 Q609.5 -481.0 645.5 -600.5 L647.5 -600.5 Q647.5 -535.0 651.0 -456.0 654.5 -376.5 659.0 -302.5 L675.0 0.0 675.0 0.0" fill-rule="evenodd" stroke="none"/>
    </g>
  </defs>
</svg>
