<?xml version="1.0" encoding="UTF-8" standalone="no"?>
<svg xmlns:ffdec="https://www.free-decompiler.com/flash" xmlns:xlink="http://www.w3.org/1999/xlink" ffdec:objectType="text" height="33.5px" width="688.3px" xmlns="http://www.w3.org/2000/svg">
  <g transform="matrix(1.0, 0.0, 0.0, 1.0, -0.55, -1.05)">
    <g transform="matrix(1.0, 0.0, 0.0, 1.0, 0.0, 0.0)">
      <use fill="#422a00" height="33.5" transform="matrix(0.0137, 0.0, 0.0, 0.0137, 0.0, 13.0)" width="688.3" xlink:href="#font_AW_Conqueror_Sans_Light_S0"/>
      <use fill="#422a00" height="33.5" transform="matrix(0.0137, 0.0, 0.0, 0.0137, 8.9, 13.0)" width="688.3" xlink:href="#font_AW_Conqueror_Sans_Light_p0"/>
      <use fill="#422a00" height="33.5" transform="matrix(0.0137, 0.0, 0.0, 0.0137, 16.45, 13.0)" width="688.3" xlink:href="#font_AW_Conqueror_Sans_Light_e0"/>
      <use fill="#422a00" height="33.5" transform="matrix(0.0137, 0.0, 0.0, 0.0137, 23.55, 13.0)" width="688.3" xlink:href="#font_AW_Conqueror_Sans_Light_c0"/>
      <use fill="#422a00" height="33.5" transform="matrix(0.0137, 0.0, 0.0, 0.0137, 30.35, 13.0)" width="688.3" xlink:href="#font_AW_Conqueror_Sans_Light_i0"/>
      <use fill="#422a00" height="33.5" transform="matrix(0.0137, 0.0, 0.0, 0.0137, 33.75, 13.0)" width="688.3" xlink:href="#font_AW_Conqueror_Sans_Light_a0"/>
      <use fill="#422a00" height="33.5" transform="matrix(0.0137, 0.0, 0.0, 0.0137, 40.85, 13.0)" width="688.3" xlink:href="#font_AW_Conqueror_Sans_Light_l0"/>
      <use fill="#422a00" height="33.5" transform="matrix(0.0137, 0.0, 0.0, 0.0137, 47.75, 13.0)" width="688.3" xlink:href="#font_AW_Conqueror_Sans_Light_a0"/>
      <use fill="#422a00" height="33.5" transform="matrix(0.0137, 0.0, 0.0, 0.0137, 54.85, 13.0)" width="688.3" xlink:href="#font_AW_Conqueror_Sans_Light_i0"/>
      <use fill="#422a00" height="33.5" transform="matrix(0.0137, 0.0, 0.0, 0.0137, 58.25, 13.0)" width="688.3" xlink:href="#font_AW_Conqueror_Sans_Light_r0"/>
      <use fill="#422a00" height="33.5" transform="matrix(0.0137, 0.0, 0.0, 0.0137, 62.95, 13.0)" width="688.3" xlink:href="#font_AW_Conqueror_Sans_Light_c0"/>
      <use fill="#422a00" height="33.5" transform="matrix(0.0137, 0.0, 0.0, 0.0137, 69.75, 13.0)" width="688.3" xlink:href="#font_AW_Conqueror_Sans_Light_r0"/>
      <use fill="#422a00" height="33.5" transform="matrix(0.0137, 0.0, 0.0, 0.0137, 74.6, 13.0)" width="688.3" xlink:href="#font_AW_Conqueror_Sans_Light_a0"/>
      <use fill="#422a00" height="33.5" transform="matrix(0.0137, 0.0, 0.0, 0.0137, 81.7, 13.0)" width="688.3" xlink:href="#font_AW_Conqueror_Sans_Light_f0"/>
      <use fill="#422a00" height="33.5" transform="matrix(0.0137, 0.0, 0.0, 0.0137, 86.35, 13.0)" width="688.3" xlink:href="#font_AW_Conqueror_Sans_Light_t0"/>
      <use fill="#422a00" height="33.5" transform="matrix(0.0137, 0.0, 0.0, 0.0137, 94.9, 13.0)" width="688.3" xlink:href="#font_AW_Conqueror_Sans_Light_b0"/>
      <use fill="#422a00" height="33.5" transform="matrix(0.0137, 0.0, 0.0, 0.0137, 102.45, 13.0)" width="688.3" xlink:href="#font_AW_Conqueror_Sans_Light_e0"/>
      <use fill="#422a00" height="33.5" transform="matrix(0.0137, 0.0, 0.0, 0.0137, 109.55, 13.0)" width="688.3" xlink:href="#font_AW_Conqueror_Sans_Light_c0"/>
      <use fill="#422a00" height="33.5" transform="matrix(0.0137, 0.0, 0.0, 0.0137, 116.05, 13.0)" width="688.3" xlink:href="#font_AW_Conqueror_Sans_Light_o0"/>
      <use fill="#422a00" height="33.5" transform="matrix(0.0137, 0.0, 0.0, 0.0137, 123.4, 13.0)" width="688.3" xlink:href="#font_AW_Conqueror_Sans_Light_m0"/>
      <use fill="#422a00" height="33.5" transform="matrix(0.0137, 0.0, 0.0, 0.0137, 135.55, 13.0)" width="688.3" xlink:href="#font_AW_Conqueror_Sans_Light_e0"/>
      <use fill="#422a00" height="33.5" transform="matrix(0.0137, 0.0, 0.0, 0.0137, 146.15, 13.0)" width="688.3" xlink:href="#font_AW_Conqueror_Sans_Light_a0"/>
      <use fill="#422a00" height="33.5" transform="matrix(0.0137, 0.0, 0.0, 0.0137, 153.15, 13.0)" width="688.3" xlink:href="#font_AW_Conqueror_Sans_Light_v0"/>
      <use fill="#422a00" height="33.5" transform="matrix(0.0137, 0.0, 0.0, 0.0137, 159.6, 13.0)" width="688.3" xlink:href="#font_AW_Conqueror_Sans_Light_a0"/>
      <use fill="#422a00" height="33.5" transform="matrix(0.0137, 0.0, 0.0, 0.0137, 166.7, 13.0)" width="688.3" xlink:href="#font_AW_Conqueror_Sans_Light_i0"/>
      <use fill="#422a00" height="33.5" transform="matrix(0.0137, 0.0, 0.0, 0.0137, 170.1, 13.0)" width="688.3" xlink:href="#font_AW_Conqueror_Sans_Light_l0"/>
      <use fill="#422a00" height="33.5" transform="matrix(0.0137, 0.0, 0.0, 0.0137, 173.5, 13.0)" width="688.3" xlink:href="#font_AW_Conqueror_Sans_Light_a0"/>
      <use fill="#422a00" height="33.5" transform="matrix(0.0137, 0.0, 0.0, 0.0137, 180.6, 13.0)" width="688.3" xlink:href="#font_AW_Conqueror_Sans_Light_b0"/>
      <use fill="#422a00" height="33.5" transform="matrix(0.0137, 0.0, 0.0, 0.0137, 188.15, 13.0)" width="688.3" xlink:href="#font_AW_Conqueror_Sans_Light_l0"/>
      <use fill="#422a00" height="33.5" transform="matrix(0.0137, 0.0, 0.0, 0.0137, 191.55, 13.0)" width="688.3" xlink:href="#font_AW_Conqueror_Sans_Light_e0"/>
      <use fill="#422a00" height="33.5" transform="matrix(0.0137, 0.0, 0.0, 0.0137, 202.15, 13.0)" width="688.3" xlink:href="#font_AW_Conqueror_Sans_Light_t0"/>
      <use fill="#422a00" height="33.5" transform="matrix(0.0137, 0.0, 0.0, 0.0137, 207.2, 13.0)" width="688.3" xlink:href="#font_AW_Conqueror_Sans_Light_o0"/>
      <use fill="#422a00" height="33.5" transform="matrix(0.0137, 0.0, 0.0, 0.0137, 218.05, 13.0)" width="688.3" xlink:href="#font_AW_Conqueror_Sans_Light_t0"/>
      <use fill="#422a00" height="33.5" transform="matrix(0.0137, 0.0, 0.0, 0.0137, 223.1, 13.0)" width="688.3" xlink:href="#font_AW_Conqueror_Sans_Light_a0"/>
      <use fill="#422a00" height="33.5" transform="matrix(0.0137, 0.0, 0.0, 0.0137, 230.2, 13.0)" width="688.3" xlink:href="#font_AW_Conqueror_Sans_Light_k0"/>
      <use fill="#422a00" height="33.5" transform="matrix(0.0137, 0.0, 0.0, 0.0137, 237.0, 13.0)" width="688.3" xlink:href="#font_AW_Conqueror_Sans_Light_e0"/>
      <use fill="#422a00" height="33.5" transform="matrix(0.0137, 0.0, 0.0, 0.0137, 247.6, 13.0)" width="688.3" xlink:href="#font_AW_Conqueror_Sans_Light_o0"/>
      <use fill="#422a00" height="33.5" transform="matrix(0.0137, 0.0, 0.0, 0.0137, 254.9, 13.0)" width="688.3" xlink:href="#font_AW_Conqueror_Sans_Light_n0"/>
      <use fill="#422a00" height="33.5" transform="matrix(0.0137, 0.0, 0.0, 0.0137, 266.35, 13.0)" width="688.3" xlink:href="#font_AW_Conqueror_Sans_Light_a0"/>
      <use fill="#422a00" height="33.5" transform="matrix(0.0137, 0.0, 0.0, 0.0137, 273.45, 13.0)" width="688.3" xlink:href="#font_AW_Conqueror_Sans_Light_e0"/>
      <use fill="#422a00" height="33.5" transform="matrix(0.0137, 0.0, 0.0, 0.0137, 280.55, 13.0)" width="688.3" xlink:href="#font_AW_Conqueror_Sans_Light_r0"/>
      <use fill="#422a00" height="33.5" transform="matrix(0.0137, 0.0, 0.0, 0.0137, 285.65, 13.0)" width="688.3" xlink:href="#font_AW_Conqueror_Sans_Light_i0"/>
      <use fill="#422a00" height="33.5" transform="matrix(0.0137, 0.0, 0.0, 0.0137, 289.1, 13.0)" width="688.3" xlink:href="#font_AW_Conqueror_Sans_Light_a0"/>
      <use fill="#422a00" height="33.5" transform="matrix(0.0137, 0.0, 0.0, 0.0137, 296.2, 13.0)" width="688.3" xlink:href="#font_AW_Conqueror_Sans_Light_l0"/>
      <use fill="#422a00" height="33.5" transform="matrix(0.0137, 0.0, 0.0, 0.0137, 303.1, 13.0)" width="688.3" xlink:href="#font_AW_Conqueror_Sans_Light_r0"/>
      <use fill="#422a00" height="33.5" transform="matrix(0.0137, 0.0, 0.0, 0.0137, 307.95, 13.0)" width="688.3" xlink:href="#font_AW_Conqueror_Sans_Light_a0"/>
      <use fill="#422a00" height="33.5" transform="matrix(0.0137, 0.0, 0.0, 0.0137, 315.05, 13.0)" width="688.3" xlink:href="#font_AW_Conqueror_Sans_Light_c0"/>
      <use fill="#422a00" height="33.5" transform="matrix(0.0137, 0.0, 0.0, 0.0137, 321.55, 13.0)" width="688.3" xlink:href="#font_AW_Conqueror_Sans_Light_e0"/>
      <use fill="#422a00" height="33.5" transform="matrix(0.0137, 0.0, 0.0, 0.0137, 328.65, 13.0)" width="688.3" xlink:href="#font_AW_Conqueror_Sans_Light_-0"/>
      <use fill="#422a00" height="33.5" transform="matrix(0.0137, 0.0, 0.0, 0.0137, 332.15, 13.0)" width="688.3" xlink:href="#font_AW_Conqueror_Sans_Light_b0"/>
      <use fill="#422a00" height="33.5" transform="matrix(0.0137, 0.0, 0.0, 0.0137, 339.7, 13.0)" width="688.3" xlink:href="#font_AW_Conqueror_Sans_Light_a0"/>
      <use fill="#422a00" height="33.5" transform="matrix(0.0137, 0.0, 0.0, 0.0137, 346.75, 13.0)" width="688.3" xlink:href="#font_AW_Conqueror_Sans_Light_s0"/>
      <use fill="#422a00" height="33.5" transform="matrix(0.0137, 0.0, 0.0, 0.0137, 352.6, 13.0)" width="688.3" xlink:href="#font_AW_Conqueror_Sans_Light_e0"/>
      <use fill="#422a00" height="33.5" transform="matrix(0.0137, 0.0, 0.0, 0.0137, 359.7, 13.0)" width="688.3" xlink:href="#font_AW_Conqueror_Sans_Light_d0"/>
      <use fill="#422a00" height="33.5" transform="matrix(0.0137, 0.0, 0.0, 0.0137, 370.75, 13.0)" width="688.3" xlink:href="#font_AW_Conqueror_Sans_Light_c0"/>
      <use fill="#422a00" height="33.5" transform="matrix(0.0137, 0.0, 0.0, 0.0137, 377.55, 13.0)" width="688.3" xlink:href="#font_AW_Conqueror_Sans_Light_h0"/>
      <use fill="#422a00" height="33.5" transform="matrix(0.0137, 0.0, 0.0, 0.0137, 385.3, 13.0)" width="688.3" xlink:href="#font_AW_Conqueror_Sans_Light_a0"/>
      <use fill="#422a00" height="33.5" transform="matrix(0.0137, 0.0, 0.0, 0.0137, 392.4, 13.0)" width="688.3" xlink:href="#font_AW_Conqueror_Sans_Light_l0"/>
      <use fill="#422a00" height="33.5" transform="matrix(0.0137, 0.0, 0.0, 0.0137, 395.8, 13.0)" width="688.3" xlink:href="#font_AW_Conqueror_Sans_Light_l0"/>
      <use fill="#422a00" height="33.5" transform="matrix(0.0137, 0.0, 0.0, 0.0137, 399.2, 13.0)" width="688.3" xlink:href="#font_AW_Conqueror_Sans_Light_e0"/>
      <use fill="#422a00" height="33.5" transform="matrix(0.0137, 0.0, 0.0, 0.0137, 406.3, 13.0)" width="688.3" xlink:href="#font_AW_Conqueror_Sans_Light_n0"/>
      <use fill="#422a00" height="33.5" transform="matrix(0.0137, 0.0, 0.0, 0.0137, 414.25, 13.0)" width="688.3" xlink:href="#font_AW_Conqueror_Sans_Light_g0"/>
      <use fill="#422a00" height="33.5" transform="matrix(0.0137, 0.0, 0.0, 0.0137, 421.8, 13.0)" width="688.3" xlink:href="#font_AW_Conqueror_Sans_Light_e0"/>
      <use fill="#422a00" height="33.5" transform="matrix(0.0137, 0.0, 0.0, 0.0137, 428.9, 13.0)" width="688.3" xlink:href="#font_AW_Conqueror_Sans_Light_s0"/>
      <use fill="#422a00" height="33.5" transform="matrix(0.0137, 0.0, 0.0, 0.0137, 434.75, 13.0)" width="688.3" xlink:href="#font_AW_Conqueror_Sans_Light__1"/>
      <use fill="#422a00" height="33.5" transform="matrix(0.0137, 0.0, 0.0, 0.0137, 440.75, 13.0)" width="688.3" xlink:href="#font_AW_Conqueror_Sans_Light_o0"/>
      <use fill="#422a00" height="33.5" transform="matrix(0.0137, 0.0, 0.0, 0.0137, 448.05, 13.0)" width="688.3" xlink:href="#font_AW_Conqueror_Sans_Light_r0"/>
      <use fill="#422a00" height="33.5" transform="matrix(0.0137, 0.0, 0.0, 0.0137, 456.8, 13.0)" width="688.3" xlink:href="#font_AW_Conqueror_Sans_Light_i0"/>
      <use fill="#422a00" height="33.5" transform="matrix(0.0137, 0.0, 0.0, 0.0137, 460.2, 13.0)" width="688.3" xlink:href="#font_AW_Conqueror_Sans_Light_n0"/>
      <use fill="#422a00" height="33.5" transform="matrix(0.0137, 0.0, 0.0, 0.0137, 468.0, 13.0)" width="688.3" xlink:href="#font_AW_Conqueror_Sans_Light_v0"/>
      <use fill="#422a00" height="33.5" transform="matrix(0.0137, 0.0, 0.0, 0.0137, 474.5, 13.0)" width="688.3" xlink:href="#font_AW_Conqueror_Sans_Light_i0"/>
      <use fill="#422a00" height="33.5" transform="matrix(0.0137, 0.0, 0.0, 0.0137, 477.9, 13.0)" width="688.3" xlink:href="#font_AW_Conqueror_Sans_Light_t0"/>
      <use fill="#422a00" height="33.5" transform="matrix(0.0137, 0.0, 0.0, 0.0137, 482.95, 13.0)" width="688.3" xlink:href="#font_AW_Conqueror_Sans_Light_e0"/>
      <use fill="#422a00" height="33.5" transform="matrix(0.0137, 0.0, 0.0, 0.0137, 493.55, 13.0)" width="688.3" xlink:href="#font_AW_Conqueror_Sans_Light_f0"/>
      <use fill="#422a00" height="33.5" transform="matrix(0.0137, 0.0, 0.0, 0.0137, 498.2, 13.0)" width="688.3" xlink:href="#font_AW_Conqueror_Sans_Light_r0"/>
      <use fill="#422a00" height="33.5" transform="matrix(0.0137, 0.0, 0.0, 0.0137, 503.35, 13.0)" width="688.3" xlink:href="#font_AW_Conqueror_Sans_Light_i0"/>
      <use fill="#422a00" height="33.5" transform="matrix(0.0137, 0.0, 0.0, 0.0137, 506.8, 13.0)" width="688.3" xlink:href="#font_AW_Conqueror_Sans_Light_e0"/>
      <use fill="#422a00" height="33.5" transform="matrix(0.0137, 0.0, 0.0, 0.0137, 513.9, 13.0)" width="688.3" xlink:href="#font_AW_Conqueror_Sans_Light_n0"/>
      <use fill="#422a00" height="33.5" transform="matrix(0.0137, 0.0, 0.0, 0.0137, 521.85, 13.0)" width="688.3" xlink:href="#font_AW_Conqueror_Sans_Light_d0"/>
      <use fill="#422a00" height="33.5" transform="matrix(0.0137, 0.0, 0.0, 0.0137, 529.4, 13.0)" width="688.3" xlink:href="#font_AW_Conqueror_Sans_Light_s0"/>
      <use fill="#422a00" height="33.5" transform="matrix(0.0137, 0.0, 0.0, 0.0137, 538.75, 13.0)" width="688.3" xlink:href="#font_AW_Conqueror_Sans_Light_v0"/>
      <use fill="#422a00" height="33.5" transform="matrix(0.0137, 0.0, 0.0, 0.0137, 545.25, 13.0)" width="688.3" xlink:href="#font_AW_Conqueror_Sans_Light_i0"/>
      <use fill="#422a00" height="33.5" transform="matrix(0.0137, 0.0, 0.0, 0.0137, 548.65, 13.0)" width="688.3" xlink:href="#font_AW_Conqueror_Sans_Light_a0"/>
      <use fill="#422a00" height="33.5" transform="matrix(0.0137, 0.0, 0.0, 0.0137, 559.25, 13.0)" width="688.3" xlink:href="#font_AW_Conqueror_Sans_Light_l0"/>
      <use fill="#422a00" height="33.5" transform="matrix(0.0137, 0.0, 0.0, 0.0137, 562.65, 13.0)" width="688.3" xlink:href="#font_AW_Conqueror_Sans_Light_o0"/>
      <use fill="#422a00" height="33.5" transform="matrix(0.0137, 0.0, 0.0, 0.0137, 569.95, 13.0)" width="688.3" xlink:href="#font_AW_Conqueror_Sans_Light_c0"/>
      <use fill="#422a00" height="33.5" transform="matrix(0.0137, 0.0, 0.0, 0.0137, 576.65, 13.0)" width="688.3" xlink:href="#font_AW_Conqueror_Sans_Light_a0"/>
      <use fill="#422a00" height="33.5" transform="matrix(0.0137, 0.0, 0.0, 0.0137, 583.75, 13.0)" width="688.3" xlink:href="#font_AW_Conqueror_Sans_Light_l0"/>
      <use fill="#422a00" height="33.5" transform="matrix(0.0137, 0.0, 0.0, 0.0137, 590.65, 13.0)" width="688.3" xlink:href="#font_AW_Conqueror_Sans_Light_c0"/>
      <use fill="#422a00" height="33.5" transform="matrix(0.0137, 0.0, 0.0, 0.0137, 597.15, 13.0)" width="688.3" xlink:href="#font_AW_Conqueror_Sans_Light_o0"/>
      <use fill="#422a00" height="33.5" transform="matrix(0.0137, 0.0, 0.0, 0.0137, 604.5, 13.0)" width="688.3" xlink:href="#font_AW_Conqueror_Sans_Light_n0"/>
      <use fill="#422a00" height="33.5" transform="matrix(0.0137, 0.0, 0.0, 0.0137, 612.45, 13.0)" width="688.3" xlink:href="#font_AW_Conqueror_Sans_Light_n0"/>
      <use fill="#422a00" height="33.5" transform="matrix(0.0137, 0.0, 0.0, 0.0137, 620.4, 13.0)" width="688.3" xlink:href="#font_AW_Conqueror_Sans_Light_e0"/>
      <use fill="#422a00" height="33.5" transform="matrix(0.0137, 0.0, 0.0, 0.0137, 627.5, 13.0)" width="688.3" xlink:href="#font_AW_Conqueror_Sans_Light_c0"/>
      <use fill="#422a00" height="33.5" transform="matrix(0.0137, 0.0, 0.0, 0.0137, 634.3, 13.0)" width="688.3" xlink:href="#font_AW_Conqueror_Sans_Light_t0"/>
      <use fill="#422a00" height="33.5" transform="matrix(0.0137, 0.0, 0.0, 0.0137, 639.35, 13.0)" width="688.3" xlink:href="#font_AW_Conqueror_Sans_Light_i0"/>
      <use fill="#422a00" height="33.5" transform="matrix(0.0137, 0.0, 0.0, 0.0137, 642.75, 13.0)" width="688.3" xlink:href="#font_AW_Conqueror_Sans_Light_o0"/>
      <use fill="#422a00" height="33.5" transform="matrix(0.0137, 0.0, 0.0, 0.0137, 650.05, 13.0)" width="688.3" xlink:href="#font_AW_Conqueror_Sans_Light_n0"/>
      <use fill="#422a00" height="33.5" transform="matrix(0.0137, 0.0, 0.0, 0.0137, 661.5, 13.0)" width="688.3" xlink:href="#font_AW_Conqueror_Sans_Light_f0"/>
      <use fill="#422a00" height="33.5" transform="matrix(0.0137, 0.0, 0.0, 0.0137, 665.9, 13.0)" width="688.3" xlink:href="#font_AW_Conqueror_Sans_Light_o0"/>
      <use fill="#422a00" height="33.5" transform="matrix(0.0137, 0.0, 0.0, 0.0137, 673.2, 13.0)" width="688.3" xlink:href="#font_AW_Conqueror_Sans_Light_r0"/>
      <use fill="#422a00" height="33.5" transform="matrix(0.0137, 0.0, 0.0, 0.0137, 681.95, 13.0)" width="688.3" xlink:href="#font_AW_Conqueror_Sans_Light_a0"/>
    </g>
    <g transform="matrix(1.0, 0.0, 0.0, 1.0, 0.0, 0.0)">
      <use fill="#422a00" height="33.5" transform="matrix(0.0137, 0.0, 0.0, 0.0137, 0.0, 31.0)" width="688.3" xlink:href="#font_AW_Conqueror_Sans_Light_40"/>
      <use fill="#422a00" height="33.5" transform="matrix(0.0137, 0.0, 0.0, 0.0137, 8.1, 31.0)" width="688.3" xlink:href="#font_AW_Conqueror_Sans_Light_-0"/>
      <use fill="#422a00" height="33.5" transform="matrix(0.0137, 0.0, 0.0, 0.0137, 11.6, 31.0)" width="688.3" xlink:href="#font_AW_Conqueror_Sans_Light_p0"/>
      <use fill="#422a00" height="33.5" transform="matrix(0.0137, 0.0, 0.0, 0.0137, 19.15, 31.0)" width="688.3" xlink:href="#font_AW_Conqueror_Sans_Light_e0"/>
      <use fill="#422a00" height="33.5" transform="matrix(0.0137, 0.0, 0.0, 0.0137, 26.25, 31.0)" width="688.3" xlink:href="#font_AW_Conqueror_Sans_Light_r0"/>
      <use fill="#422a00" height="33.5" transform="matrix(0.0137, 0.0, 0.0, 0.0137, 31.25, 31.0)" width="688.3" xlink:href="#font_AW_Conqueror_Sans_Light_s0"/>
      <use fill="#422a00" height="33.5" transform="matrix(0.0137, 0.0, 0.0, 0.0137, 37.1, 31.0)" width="688.3" xlink:href="#font_AW_Conqueror_Sans_Light_o0"/>
      <use fill="#422a00" height="33.5" transform="matrix(0.0137, 0.0, 0.0, 0.0137, 44.4, 31.0)" width="688.3" xlink:href="#font_AW_Conqueror_Sans_Light_n0"/>
      <use fill="#422a00" height="33.5" transform="matrix(0.0137, 0.0, 0.0, 0.0137, 55.85, 31.0)" width="688.3" xlink:href="#font_AW_Conqueror_Sans_Light_r0"/>
      <use fill="#422a00" height="33.5" transform="matrix(0.0137, 0.0, 0.0, 0.0137, 60.7, 31.0)" width="688.3" xlink:href="#font_AW_Conqueror_Sans_Light_a0"/>
      <use fill="#422a00" height="33.5" transform="matrix(0.0137, 0.0, 0.0, 0.0137, 67.8, 31.0)" width="688.3" xlink:href="#font_AW_Conqueror_Sans_Light_c0"/>
      <use fill="#422a00" height="33.5" transform="matrix(0.0137, 0.0, 0.0, 0.0137, 74.3, 31.0)" width="688.3" xlink:href="#font_AW_Conqueror_Sans_Light_e0"/>
      <use fill="#422a00" height="33.5" transform="matrix(0.0137, 0.0, 0.0, 0.0137, 84.9, 31.0)" width="688.3" xlink:href="#font_AW_Conqueror_Sans_Light_t0"/>
      <use fill="#422a00" height="33.5" transform="matrix(0.0137, 0.0, 0.0, 0.0137, 89.95, 31.0)" width="688.3" xlink:href="#font_AW_Conqueror_Sans_Light_h0"/>
      <use fill="#422a00" height="33.5" transform="matrix(0.0137, 0.0, 0.0, 0.0137, 97.7, 31.0)" width="688.3" xlink:href="#font_AW_Conqueror_Sans_Light_r0"/>
      <use fill="#422a00" height="33.5" transform="matrix(0.0137, 0.0, 0.0, 0.0137, 102.4, 31.0)" width="688.3" xlink:href="#font_AW_Conqueror_Sans_Light_o0"/>
      <use fill="#422a00" height="33.5" transform="matrix(0.0137, 0.0, 0.0, 0.0137, 109.7, 31.0)" width="688.3" xlink:href="#font_AW_Conqueror_Sans_Light_u0"/>
      <use fill="#422a00" height="33.5" transform="matrix(0.0137, 0.0, 0.0, 0.0137, 117.35, 31.0)" width="688.3" xlink:href="#font_AW_Conqueror_Sans_Light_g0"/>
      <use fill="#422a00" height="33.5" transform="matrix(0.0137, 0.0, 0.0, 0.0137, 124.9, 31.0)" width="688.3" xlink:href="#font_AW_Conqueror_Sans_Light_h0"/>
      <use fill="#422a00" height="33.5" transform="matrix(0.0137, 0.0, 0.0, 0.0137, 136.15, 31.0)" width="688.3" xlink:href="#font_AW_Conqueror_Sans_Light_t0"/>
      <use fill="#422a00" height="33.5" transform="matrix(0.0137, 0.0, 0.0, 0.0137, 141.2, 31.0)" width="688.3" xlink:href="#font_AW_Conqueror_Sans_Light_h0"/>
      <use fill="#422a00" height="33.5" transform="matrix(0.0137, 0.0, 0.0, 0.0137, 148.95, 31.0)" width="688.3" xlink:href="#font_AW_Conqueror_Sans_Light_e0"/>
      <use fill="#422a00" height="33.5" transform="matrix(0.0137, 0.0, 0.0, 0.0137, 159.55, 31.0)" width="688.3" xlink:href="#font_AW_Conqueror_Sans_Light_s0"/>
      <use fill="#422a00" height="33.5" transform="matrix(0.0137, 0.0, 0.0, 0.0137, 165.4, 31.0)" width="688.3" xlink:href="#font_AW_Conqueror_Sans_Light_k0"/>
      <use fill="#422a00" height="33.5" transform="matrix(0.0137, 0.0, 0.0, 0.0137, 172.55, 31.0)" width="688.3" xlink:href="#font_AW_Conqueror_Sans_Light_i0"/>
      <use fill="#422a00" height="33.5" transform="matrix(0.0137, 0.0, 0.0, 0.0137, 175.95, 31.0)" width="688.3" xlink:href="#font_AW_Conqueror_Sans_Light_e0"/>
      <use fill="#422a00" height="33.5" transform="matrix(0.0137, 0.0, 0.0, 0.0137, 183.05, 31.0)" width="688.3" xlink:href="#font_AW_Conqueror_Sans_Light_s0"/>
      <use fill="#422a00" height="33.5" transform="matrix(0.0137, 0.0, 0.0, 0.0137, 188.9, 31.0)" width="688.3" xlink:href="#font_AW_Conqueror_Sans_Light_.0"/>
    </g>
  </g>
  <defs>
    <g id="font_AW_Conqueror_Sans_Light_S0">
      <path d="M522.5 -550.5 L522.5 -550.5 573.5 -598.5 Q481.5 -708.0 343.0 -703.5 225.0 -701.0 172.0 -647.0 119.0 -592.5 120.0 -518.5 127.0 -404.5 219.5 -366.0 312.0 -327.5 404.5 -295.0 497.0 -263.0 504.0 -168.0 501.5 -58.0 338.5 -51.5 209.0 -55.0 141.5 -149.0 L87.5 -98.5 Q187.0 15.5 336.5 11.5 443.0 11.5 510.5 -38.0 577.5 -87.0 580.0 -181.5 573.0 -297.5 480.5 -339.5 388.0 -381.5 295.5 -413.0 203.0 -444.5 196.0 -530.0 193.5 -633.5 345.0 -640.5 457.5 -639.0 522.5 -550.5 L522.5 -550.5" fill-rule="evenodd" stroke="none"/>
    </g>
    <g id="font_AW_Conqueror_Sans_Light_p0">
      <path d="M436.5 -228.5 L436.5 -228.5 Q436.0 -144.5 390.5 -94.5 345.5 -45.0 262.0 -44.0 208.5 -43.0 159.5 -59.5 L159.5 -400.5 Q206.5 -416.0 253.0 -416.0 337.5 -415.5 386.5 -367.0 435.5 -318.0 436.5 -228.5 L436.5 -228.5 M507.5 -229.5 L507.5 -229.5 Q504.0 -357.0 430.0 -415.0 356.5 -473.0 259.0 -472.0 173.0 -471.5 92.5 -446.0 L92.5 211.5 159.5 211.5 159.5 -1.0 Q212.5 12.5 265.0 12.0 366.0 11.0 435.5 -51.5 504.5 -114.0 507.5 -229.5 L507.5 -229.5" fill-rule="evenodd" stroke="none"/>
    </g>
    <g id="font_AW_Conqueror_Sans_Light_e0">
      <path d="M400.0 -275.5 L400.0 -275.5 114.0 -275.5 Q120.5 -337.0 154.5 -376.0 188.0 -415.0 258.0 -416.5 328.0 -415.0 364.0 -375.0 400.0 -335.0 400.0 -275.5 L400.0 -275.5 M454.5 -63.0 L454.5 -63.0 413.5 -104.5 Q358.5 -44.0 276.5 -44.0 201.5 -45.0 158.0 -93.0 115.0 -140.5 112.0 -220.5 L472.0 -220.5 Q468.5 -467.5 258.0 -471.5 168.0 -472.0 107.5 -410.5 46.5 -349.5 44.0 -225.5 44.0 -130.0 100.5 -60.5 157.0 8.5 271.0 12.0 390.5 9.0 454.5 -63.0 L454.5 -63.0" fill-rule="evenodd" stroke="none"/>
    </g>
    <g id="font_AW_Conqueror_Sans_Light_c0">
      <path d="M449.5 -63.5 L449.5 -63.5 410.0 -105.5 Q352.0 -43.0 271.5 -44.0 187.5 -47.0 149.5 -102.5 111.0 -158.0 112.0 -232.5 111.0 -309.5 148.0 -361.5 185.0 -414.0 268.5 -416.0 351.5 -413.5 400.5 -352.5 L444.5 -396.5 Q383.0 -469.0 266.5 -472.0 157.0 -469.5 101.0 -402.5 44.5 -335.0 44.0 -230.5 43.5 -133.5 97.5 -62.5 151.5 8.5 267.5 12.0 387.0 9.0 449.5 -63.5 L449.5 -63.5" fill-rule="evenodd" stroke="none"/>
    </g>
    <g id="font_AW_Conqueror_Sans_Light_i0">
      <path d="M81.0 -659.5 L81.0 -659.5 Q83.5 -618.5 125.5 -616.0 168.0 -618.5 171.0 -659.5 168.0 -701.0 125.5 -704.0 83.5 -701.0 81.0 -659.5 L81.0 -659.5 M159.5 0.0 L159.5 0.0 159.5 -460.0 92.5 -460.0 92.5 0.0 159.5 0.0 159.5 0.0" fill-rule="evenodd" stroke="none"/>
    </g>
    <g id="font_AW_Conqueror_Sans_Light_a0">
      <path d="M431.5 -1.5 L431.5 -1.5 431.5 -312.5 Q430.0 -391.5 378.5 -432.0 326.5 -472.0 243.5 -472.0 132.5 -469.5 69.5 -397.5 L114.5 -356.0 Q166.0 -418.0 240.5 -416.0 361.0 -413.5 364.5 -305.0 L364.5 -242.5 Q304.5 -267.0 229.5 -268.0 156.0 -268.5 103.5 -235.0 51.0 -201.5 48.5 -126.0 50.0 -62.0 95.5 -25.5 141.0 11.0 211.0 11.5 309.5 11.5 368.5 -61.5 L368.5 -1.5 431.5 -1.5 431.5 -1.5 M364.5 -119.0 L364.5 -119.0 Q312.5 -43.5 225.5 -43.5 119.5 -47.5 115.5 -127.0 117.5 -178.5 155.0 -198.0 192.5 -217.0 240.5 -216.0 307.0 -215.5 364.5 -191.0 L364.5 -119.0 364.5 -119.0" fill-rule="evenodd" stroke="none"/>
    </g>
    <g id="font_AW_Conqueror_Sans_Light_l0">
      <path d="M159.5 0.0 L159.5 0.0 159.5 -692.0 92.5 -692.0 92.5 0.0 159.5 0.0 159.5 0.0" fill-rule="evenodd" stroke="none"/>
    </g>
    <g id="font_AW_Conqueror_Sans_Light_r0">
      <path d="M342.0 -397.0 L342.0 -397.0 358.5 -461.0 Q328.0 -471.0 296.0 -471.5 194.5 -464.5 145.0 -386.0 L145.0 -458.0 84.5 -458.0 84.5 0.0 151.5 0.0 151.5 -325.0 Q201.0 -403.5 287.0 -408.5 316.0 -408.0 342.0 -397.0 L342.0 -397.0" fill-rule="evenodd" stroke="none"/>
    </g>
    <g id="font_AW_Conqueror_Sans_Light_f0">
      <path d="M112.5 -501.5 L112.5 -501.5 112.5 -459.5 29.5 -459.5 29.5 -404.5 112.5 -404.5 112.5 0.0 179.5 0.0 179.5 -404.5 318.0 -404.5 318.0 -459.5 179.5 -459.5 179.5 -499.0 Q181.0 -644.5 300.5 -648.0 332.0 -647.5 358.0 -636.5 L375.0 -693.0 Q341.5 -704.5 307.5 -704.0 206.5 -701.0 159.0 -641.0 112.0 -581.0 112.5 -501.5 L112.5 -501.5" fill-rule="evenodd" stroke="none"/>
    </g>
    <g id="font_AW_Conqueror_Sans_Light_t0">
      <path d="M112.5 -178.5 L112.5 -178.5 Q110.5 -104.0 145.0 -47.5 179.5 9.0 276.0 12.0 311.0 11.5 337.5 8.0 L328.0 -48.0 Q312.0 -44.5 290.0 -44.0 224.0 -46.0 201.0 -86.0 178.0 -126.0 179.5 -180.5 L179.5 -404.5 318.0 -404.5 318.0 -459.5 179.5 -459.5 179.5 -624.5 112.5 -624.5 112.5 -459.5 29.5 -459.5 29.5 -404.5 112.5 -404.5 112.5 -178.5 112.5 -178.5" fill-rule="evenodd" stroke="none"/>
    </g>
    <g id="font_AW_Conqueror_Sans_Light_b0">
      <path d="M436.5 -229.5 L436.5 -229.5 Q436.0 -145.5 390.5 -95.0 345.5 -45.0 262.0 -44.0 208.5 -43.0 159.5 -59.5 L159.5 -400.5 Q206.5 -416.0 253.0 -416.0 337.5 -415.5 386.5 -367.5 435.5 -319.0 436.5 -229.5 L436.5 -229.5 M159.5 -692.0 L159.5 -692.0 92.5 -692.0 92.5 -13.0 Q177.0 11.5 256.0 12.0 373.5 10.0 440.0 -56.0 506.5 -122.5 507.5 -230.5 504.0 -358.0 430.0 -415.5 356.5 -473.0 259.0 -472.0 208.0 -471.5 159.5 -459.0 L159.5 -692.0 159.5 -692.0" fill-rule="evenodd" stroke="none"/>
    </g>
    <g id="font_AW_Conqueror_Sans_Light_o0">
      <path d="M487.5 -228.5 L487.5 -228.5 Q487.5 -330.5 432.0 -400.0 376.5 -469.0 266.0 -471.5 155.5 -469.0 100.0 -401.5 44.5 -333.5 44.5 -231.5 44.5 -129.5 100.0 -60.0 155.5 9.0 266.0 11.5 376.5 9.0 432.0 -58.5 487.5 -126.5 487.5 -228.5 L487.5 -228.5 M416.5 -229.5 L416.5 -229.5 Q417.0 -147.5 381.5 -96.0 346.0 -45.0 266.0 -43.5 186.0 -45.5 150.5 -97.5 115.0 -149.5 115.5 -230.5 115.0 -312.5 150.5 -364.0 186.0 -415.0 266.0 -416.5 346.0 -414.5 381.5 -362.5 417.0 -310.5 416.5 -229.5 L416.5 -229.5" fill-rule="evenodd" stroke="none"/>
    </g>
    <g id="font_AW_Conqueror_Sans_Light_m0">
      <path d="M807.5 0.0 L807.5 0.0 807.5 -310.5 Q805.5 -390.5 756.5 -431.0 707.5 -472.0 635.5 -472.0 519.5 -468.0 466.5 -386.5 418.5 -472.5 311.5 -472.0 200.0 -465.0 155.5 -400.5 L155.5 -459.0 92.5 -459.0 92.5 0.0 159.5 0.0 159.5 -338.0 Q191.0 -408.5 293.0 -416.0 345.0 -416.0 380.0 -386.0 415.0 -355.5 416.5 -297.0 L416.5 0.0 483.5 0.0 483.5 -303.5 Q483.5 -319.0 481.5 -333.0 519.5 -413.0 617.0 -416.0 669.0 -416.0 704.0 -386.0 739.0 -355.5 740.5 -297.0 L740.5 0.0 807.5 0.0 807.5 0.0" fill-rule="evenodd" stroke="none"/>
    </g>
    <g id="font_AW_Conqueror_Sans_Light_v0">
      <path d="M463.5 -460.0 L463.5 -460.0 398.0 -460.0 238.5 -65.0 79.5 -460.0 8.5 -460.0 202.5 8.0 270.5 8.0 463.5 -460.0 463.5 -460.0" fill-rule="evenodd" stroke="none"/>
    </g>
    <g id="font_AW_Conqueror_Sans_Light_k0">
      <path d="M159.5 0.0 L159.5 0.0 159.5 -692.0 92.5 -692.0 92.5 0.0 159.5 0.0 159.5 0.0 M484.0 0.0 L484.0 0.0 259.0 -238.5 485.5 -460.0 399.0 -460.0 178.0 -237.5 395.0 0.0 484.0 0.0 484.0 0.0" fill-rule="evenodd" stroke="none"/>
    </g>
    <g id="font_AW_Conqueror_Sans_Light_n0">
      <path d="M495.5 0.0 L495.5 0.0 495.5 -310.5 Q493.5 -390.5 442.5 -431.0 392.0 -472.0 317.0 -472.0 202.0 -465.0 155.5 -400.5 L155.5 -459.0 92.5 -459.0 92.5 0.0 159.5 0.0 159.5 -338.0 Q193.0 -408.5 300.5 -416.0 354.5 -416.0 390.5 -386.0 427.0 -355.5 428.5 -297.0 L428.5 0.0 495.5 0.0 495.5 0.0" fill-rule="evenodd" stroke="none"/>
    </g>
    <g id="font_AW_Conqueror_Sans_Light_-0">
      <path d="M236.0 -208.5 L236.0 -208.5 236.0 -271.5 20.0 -271.5 20.0 -208.5 236.0 -208.5 236.0 -208.5" fill-rule="evenodd" stroke="none"/>
    </g>
    <g id="font_AW_Conqueror_Sans_Light_s0">
      <path d="M337.0 -354.5 L337.0 -354.5 381.5 -396.0 Q315.0 -476.0 220.5 -471.5 150.5 -471.0 108.0 -438.0 65.0 -404.5 64.0 -343.0 68.5 -262.0 130.5 -236.5 192.0 -211.0 254.0 -192.5 315.5 -174.0 320.5 -113.5 321.0 -49.5 217.5 -43.5 135.5 -45.0 87.0 -108.5 L40.5 -67.0 Q111.5 14.5 214.5 11.5 286.0 11.0 334.0 -23.5 381.5 -58.5 383.5 -123.0 379.0 -205.5 317.5 -232.5 256.0 -260.0 194.5 -278.0 132.5 -296.0 128.0 -350.5 124.0 -411.5 217.5 -416.5 291.5 -416.5 337.0 -354.5 L337.0 -354.5" fill-rule="evenodd" stroke="none"/>
    </g>
    <g id="font_AW_Conqueror_Sans_Light_d0">
      <path d="M115.5 -231.5 L115.5 -231.5 Q116.0 -315.5 161.5 -365.5 206.5 -415.0 290.0 -416.0 343.5 -416.5 392.5 -399.5 L392.5 -58.5 Q345.5 -43.5 299.0 -44.0 214.5 -44.5 165.5 -93.0 116.5 -142.0 115.5 -231.5 L115.5 -231.5 M44.5 -230.5 L44.5 -230.5 Q48.0 -103.0 122.0 -45.0 195.5 13.0 293.0 12.0 379.0 12.5 459.5 -13.0 L459.5 -692.0 392.5 -692.0 392.5 -458.0 Q339.5 -471.5 287.0 -472.0 186.0 -471.0 116.5 -408.5 47.5 -346.0 44.5 -230.5 L44.5 -230.5" fill-rule="evenodd" stroke="none"/>
    </g>
    <g id="font_AW_Conqueror_Sans_Light_h0">
      <path d="M479.5 0.0 L479.5 0.0 479.5 -310.5 Q477.5 -390.5 429.0 -431.0 380.0 -472.0 308.5 -472.0 202.5 -466.0 159.5 -402.5 L159.5 -692.0 92.5 -692.0 92.5 0.0 159.5 0.0 159.5 -338.0 Q190.5 -408.5 291.5 -416.0 342.5 -416.0 376.5 -386.0 411.0 -355.5 412.5 -297.0 L412.5 0.0 479.5 0.0 479.5 0.0" fill-rule="evenodd" stroke="none"/>
    </g>
    <g id="font_AW_Conqueror_Sans_Light_g0">
      <path d="M115.5 -238.5 L115.5 -238.5 Q116.0 -319.5 161.5 -367.5 206.5 -415.0 290.0 -416.0 343.5 -415.5 392.5 -399.5 L392.5 -74.5 Q345.5 -59.5 299.0 -60.0 214.5 -60.5 165.5 -106.5 116.5 -152.5 115.5 -238.5 L115.5 -238.5 M459.5 -446.0 L459.5 -446.0 Q375.0 -470.0 296.0 -472.0 178.5 -470.0 112.0 -406.0 45.5 -341.5 44.5 -237.5 48.0 -115.0 122.0 -59.0 195.5 -3.0 293.0 -4.0 344.0 -4.0 392.5 -16.0 L392.5 25.0 Q392.0 159.5 248.5 156.0 161.0 154.5 106.0 94.0 L63.0 136.5 Q129.5 209.0 246.5 212.0 341.0 213.0 399.5 167.0 458.0 120.5 459.5 12.5 L459.5 -446.0 459.5 -446.0" fill-rule="evenodd" stroke="none"/>
    </g>
    <g id="font_AW_Conqueror_Sans_Light__1">
      <path d="M92.0 156.0 L92.0 156.0 164.0 -96.0 97.5 -96.0 40.0 156.0 92.0 156.0 92.0 156.0" fill-rule="evenodd" stroke="none"/>
    </g>
    <g id="font_AW_Conqueror_Sans_Light_40">
      <path d="M118.0 -63.5 L118.0 -63.5 380.5 -415.0 380.5 -63.5 118.0 -63.5 118.0 -63.5 M447.5 184.0 L447.5 184.0 447.5 -4.5 561.5 -4.5 561.5 -63.5 447.5 -63.5 447.5 -520.0 386.5 -520.0 39.5 -54.5 39.5 -4.5 380.5 -4.5 380.5 184.0 447.5 184.0 447.5 184.0" fill-rule="evenodd" stroke="none"/>
    </g>
    <g id="font_AW_Conqueror_Sans_Light_u0">
      <path d="M279.5 12.0 L279.5 12.0 Q374.5 11.0 424.5 -34.5 475.0 -79.5 475.5 -153.5 L475.5 -460.0 408.5 -460.0 408.5 -159.5 Q407.0 -103.5 371.5 -74.0 336.0 -44.0 279.5 -44.0 226.0 -44.5 189.5 -75.5 153.0 -107.0 151.5 -162.5 L151.5 -460.0 84.5 -460.0 84.5 -153.5 Q85.0 -80.0 135.5 -34.5 186.0 10.5 279.5 12.0 L279.5 12.0" fill-rule="evenodd" stroke="none"/>
    </g>
    <g id="font_AW_Conqueror_Sans_Light_.0">
      <path d="M76.5 -49.5 L76.5 -49.5 Q79.5 -3.5 125.5 -0.5 172.0 -3.5 175.5 -49.5 172.0 -96.0 125.5 -99.5 79.5 -96.0 76.5 -49.5 L76.5 -49.5" fill-rule="evenodd" stroke="none"/>
    </g>
  </defs>
</svg>
