<?xml version="1.0" encoding="UTF-8" standalone="no"?>
<svg xmlns:ffdec="https://www.free-decompiler.com/flash" xmlns:xlink="http://www.w3.org/1999/xlink" ffdec:objectType="shape" height="15.9px" width="56.05px" xmlns="http://www.w3.org/2000/svg">
  <g transform="matrix(1.0, 0.0, 0.0, 1.0, -1.0, 0.1)">
    <path d="M56.65 0.2 Q49.55 1.35 43.1 3.6 L40.9 4.45 Q35.2 6.85 33.35 9.55 31.65 12.05 33.3 14.85 L26.5 15.7 Q25.95 12.85 22.5 10.35 L21.3 9.55 Q18.15 7.65 13.65 7.0 9.3 6.35 3.75 6.8 L13.45 5.8 13.65 5.8 Q25.45 5.55 28.9 9.55 L29.25 10.0 29.35 10.15 29.45 9.55 Q30.1 7.2 34.6 5.2 L34.9 5.1 35.3 4.9 40.25 3.2 40.9 3.0 Q47.45 1.25 52.4 0.65 L56.65 0.1 56.65 0.2 Q47.05 1.35 40.75 3.05 L40.25 3.2 40.75 3.05 Q47.05 1.35 56.65 0.2" fill="#000000" fill-rule="evenodd" stroke="none"/>
    <path d="M21.3 9.55 L22.5 10.35 Q25.95 12.85 26.5 15.7 L33.3 14.85 Q31.65 12.05 33.35 9.55 35.2 6.85 40.9 4.45 L43.1 3.6 Q49.55 1.35 56.65 0.2 47.05 1.35 40.75 3.05 L40.25 3.2 35.3 4.9 34.9 5.1 34.6 5.2 34.45 5.25 Q30.0 7.2 29.35 9.55 L29.25 10.0 28.9 9.55 Q25.45 5.55 13.65 5.8 L13.45 5.8 3.75 6.8 Q9.3 6.35 13.65 7.0 18.15 7.65 21.3 9.55 M29.35 10.15 L29.25 10.0 M56.65 0.1 Q56.75 0.0 56.95 0.0 M56.65 0.2 L56.65 0.1 52.4 0.65 M3.75 6.8 L1.1 7.05" fill="none" stroke="#000000" stroke-linecap="round" stroke-linejoin="round" stroke-width="0.25"/>
  </g>
</svg>
