<?xml version="1.0" encoding="UTF-8" standalone="no"?>
<svg xmlns:ffdec="https://www.free-decompiler.com/flash" xmlns:xlink="http://www.w3.org/1999/xlink" ffdec:objectType="shape" height="14.65px" width="55.5px" xmlns="http://www.w3.org/2000/svg">
  <g transform="matrix(1.0, 0.0, 0.0, 1.0, -1.55, -1.1)">
    <path d="M52.85 1.55 Q38.6 3.7 34.25 8.5 L33.45 9.55 Q31.7 12.15 33.15 14.75 L26.4 15.5 Q25.6 12.6 22.1 10.25 L20.95 9.55 Q14.65 6.05 3.75 7.9 16.7 5.4 21.95 6.2 24.75 6.6 28.7 9.55 L29.3 10.0 29.95 8.75 Q31.0 7.25 33.25 6.0 39.6 2.3 52.85 1.55" fill="#000000" fill-rule="evenodd" stroke="none"/>
    <path d="M52.85 1.55 L56.8 1.35 M52.85 1.55 Q38.6 3.7 34.25 8.5 L33.45 9.55 Q31.7 12.15 33.15 14.75 L26.4 15.5 Q25.6 12.6 22.1 10.25 L20.95 9.55 Q14.65 6.05 3.75 7.9 L1.8 8.25 M3.75 7.9 Q16.7 5.4 21.95 6.2 24.75 6.6 28.7 9.55 L29.3 10.0 29.95 8.75 Q31.0 7.25 33.25 6.0 39.6 2.3 52.85 1.55" fill="none" stroke="#000000" stroke-linecap="round" stroke-linejoin="round" stroke-width="0.5"/>
  </g>
</svg>
