<?xml version="1.0" encoding="UTF-8" standalone="no"?>
<svg xmlns:ffdec="https://www.free-decompiler.com/flash" xmlns:xlink="http://www.w3.org/1999/xlink" ffdec:objectType="shape" height="13.55px" width="55.5px" xmlns="http://www.w3.org/2000/svg">
  <g transform="matrix(1.0, 0.0, 0.0, 1.0, -1.05, -2.1)">
    <path d="M55.05 2.35 Q40.65 4.5 35.1 8.85 L34.4 9.45 Q31.3 12.2 32.65 14.65 L25.9 15.4 Q25.15 12.75 21.95 10.45 L20.2 9.45 Q17.55 8.25 13.9 8.0 L2.95 8.8 2.9 8.8 Q16.55 6.1 21.65 6.6 24.75 6.9 28.2 9.45 L28.8 9.9 29.75 8.9 Q31.2 7.75 33.6 6.65 41.15 3.2 55.05 2.35" fill="#000000" fill-rule="evenodd" stroke="none"/>
    <path d="M55.05 2.35 L56.3 2.35 M55.05 2.35 Q40.65 4.5 35.1 8.85 L34.4 9.45 Q31.3 12.2 32.65 14.65 L25.9 15.4 Q25.15 12.75 21.95 10.45 L20.2 9.45 Q17.55 8.25 13.9 8.0 L2.95 8.8 1.3 9.1 M2.95 8.8 L2.9 8.8 Q16.55 6.1 21.65 6.6 24.75 6.9 28.2 9.45 L28.8 9.9 29.75 8.9 Q31.2 7.75 33.6 6.65 41.15 3.2 55.05 2.35" fill="none" stroke="#000000" stroke-linecap="round" stroke-linejoin="round" stroke-width="0.5"/>
  </g>
</svg>
