<?xml version="1.0" encoding="UTF-8" standalone="no"?>
<svg xmlns:ffdec="https://www.free-decompiler.com/flash" xmlns:xlink="http://www.w3.org/1999/xlink" ffdec:objectType="shape" height="12.95px" width="56.1px" xmlns="http://www.w3.org/2000/svg">
  <g transform="matrix(1.0, 0.0, 0.0, 1.0, -0.65, -2.4)">
    <path d="M55.25 2.65 Q40.8 4.9 35.2 8.85 L34.8 9.15 Q31.3 11.9 32.65 14.35 L25.9 15.1 Q25.15 12.45 21.95 10.15 21.1 9.55 20.05 9.15 17.5 8.15 13.7 8.2 L2.55 9.5 2.5 9.5 4.3 9.15 Q17.05 6.7 21.45 6.8 25.0 6.9 28.2 9.15 L28.8 9.6 29.25 8.75 Q30.05 7.7 32.15 6.75 38.8 3.6 55.25 2.65" fill="#000000" fill-rule="evenodd" stroke="none"/>
    <path d="M55.25 2.65 L56.5 2.65 M55.25 2.65 Q40.8 4.9 35.2 8.85 L34.8 9.15 Q31.3 11.9 32.65 14.35 L25.9 15.1 Q25.15 12.45 21.95 10.15 21.1 9.55 20.05 9.15 17.5 8.15 13.7 8.2 L2.55 9.5 0.9 9.8 M2.55 9.5 L2.5 9.5 4.3 9.15 Q17.05 6.7 21.45 6.8 25.0 6.9 28.2 9.15 L28.8 9.6 29.25 8.75 Q30.05 7.7 32.15 6.75 38.8 3.6 55.25 2.65" fill="none" stroke="#000000" stroke-linecap="round" stroke-linejoin="round" stroke-width="0.5"/>
  </g>
</svg>
