<?xml version="1.0" encoding="UTF-8" standalone="no"?>
<svg xmlns:ffdec="https://www.free-decompiler.com/flash" xmlns:xlink="http://www.w3.org/1999/xlink" ffdec:objectType="shape" height="11.85px" width="56.4px" xmlns="http://www.w3.org/2000/svg">
  <g transform="matrix(1.0, 0.0, 0.0, 1.0, -0.45, -3.3)">
    <path d="M55.35 3.55 Q40.75 5.8 35.15 9.2 L34.05 9.95 Q31.3 12.05 32.45 14.15 L25.7 14.9 Q24.95 12.25 21.75 9.95 19.0 8.05 13.5 8.65 L2.35 10.6 2.3 10.6 4.55 9.95 Q16.05 6.7 20.9 6.65 25.05 6.6 28.6 9.4 L29.05 8.7 Q29.95 7.85 32.1 7.1 38.9 4.5 55.35 3.55" fill="#000000" fill-rule="evenodd" stroke="none"/>
    <path d="M55.35 3.55 L56.6 3.55 M55.35 3.55 Q40.75 5.8 35.15 9.2 L34.05 9.95 Q31.3 12.05 32.45 14.15 L25.7 14.9 Q24.95 12.25 21.75 9.95 19.0 8.05 13.5 8.65 L2.35 10.6 0.7 10.9 M2.35 10.6 L2.3 10.6 4.55 9.95 Q16.05 6.7 20.9 6.65 25.05 6.6 28.6 9.4 L29.05 8.7 Q29.95 7.85 32.1 7.1 38.9 4.5 55.35 3.55" fill="none" stroke="#000000" stroke-linecap="round" stroke-linejoin="round" stroke-width="0.5"/>
  </g>
</svg>
