<?xml version="1.0" encoding="UTF-8" standalone="no"?>
<svg xmlns:ffdec="https://www.free-decompiler.com/flash" xmlns:xlink="http://www.w3.org/1999/xlink" ffdec:objectType="shape" height="9.8px" width="57.8px" xmlns="http://www.w3.org/2000/svg">
  <g transform="matrix(1.0, 0.0, 0.0, 1.0, 0.85, -5.35)">
    <path d="M1.05 13.8 L-0.15 13.8 11.45 8.5 Q16.8 6.05 20.2 6.85 L24.75 7.7 Q27.25 8.2 28.7 9.35 L29.15 8.55 Q30.05 7.65 32.2 6.95 38.95 4.85 55.45 6.05 40.55 7.0 35.1 9.7 31.2 11.7 32.55 14.15 L25.8 14.9 Q25.05 12.25 21.85 9.9 19.25 8.1 12.9 9.5 10.0 10.05 6.3 11.65 L1.05 13.8" fill="#000000" fill-rule="evenodd" stroke="none"/>
    <path d="M55.45 6.05 L56.7 6.05 M1.05 13.8 L-0.15 13.8 11.45 8.5 Q16.8 6.05 20.2 6.85 L24.75 7.7 Q27.25 8.2 28.7 9.35 L29.15 8.55 Q30.05 7.65 32.2 6.95 38.95 4.85 55.45 6.05 40.55 7.0 35.1 9.7 31.2 11.7 32.55 14.15 L25.8 14.9 Q25.05 12.25 21.85 9.9 19.25 8.1 12.9 9.5 10.0 10.05 6.3 11.65 L1.05 13.8 -0.6 14.1" fill="none" stroke="#000000" stroke-linecap="round" stroke-linejoin="round" stroke-width="0.5"/>
  </g>
</svg>
