<?xml version="1.0" encoding="UTF-8" standalone="no"?>
<svg xmlns:ffdec="https://www.free-decompiler.com/flash" xmlns:xlink="http://www.w3.org/1999/xlink" ffdec:objectType="shape" height="9.6px" width="58.1px" xmlns="http://www.w3.org/2000/svg">
  <g transform="matrix(1.0, 0.0, 0.0, 1.0, 0.95, -6.85)">
    <path d="M8.95 11.25 L11.5 9.75 Q17.15 6.5 20.4 7.25 L24.95 8.1 Q27.45 8.6 28.9 9.75 L29.35 9.15 Q30.25 8.5 32.4 8.0 39.15 6.55 55.65 7.75 40.55 8.75 35.3 10.75 31.5 12.25 32.75 14.55 L26.0 15.3 Q25.25 12.65 22.05 10.3 19.45 8.5 13.1 9.9 11.15 10.3 8.95 11.25" fill="#000000" fill-rule="evenodd" stroke="none"/>
    <path d="M55.65 7.75 L56.9 7.75 M8.95 11.25 L11.5 9.75 Q17.15 6.5 20.4 7.25 L24.95 8.1 Q27.45 8.6 28.9 9.75 L29.35 9.15 Q30.25 8.5 32.4 8.0 39.15 6.55 55.65 7.75 40.55 8.75 35.3 10.75 31.5 12.25 32.75 14.55 L26.0 15.3 Q25.25 12.65 22.05 10.3 19.45 8.5 13.1 9.9 11.15 10.3 8.95 11.25 L4.4 13.75 4.35 13.8 0.95 15.9 -0.7 16.2 M8.95 11.25 Q7.65 11.75 6.3 12.55 L4.4 13.75" fill="none" stroke="#000000" stroke-linecap="round" stroke-linejoin="round" stroke-width="0.5"/>
  </g>
</svg>
