<?xml version="1.0" encoding="UTF-8" standalone="no"?>
<svg xmlns:ffdec="https://www.free-decompiler.com/flash" xmlns:xlink="http://www.w3.org/1999/xlink" ffdec:objectType="shape" height="10.1px" width="57.5px" xmlns="http://www.w3.org/2000/svg">
  <g transform="matrix(1.0, 0.0, 0.0, 1.0, 0.35, -6.75)">
    <path d="M8.95 11.15 L11.5 9.65 Q17.15 6.4 20.4 7.15 L24.95 8.0 Q27.45 8.5 28.9 9.65 L29.35 9.05 Q30.25 8.4 32.4 7.9 39.15 6.45 55.65 7.65 40.55 8.65 35.3 10.65 31.5 12.15 32.75 14.45 L26.0 15.2 Q25.25 12.55 22.05 10.2 19.45 8.4 13.1 9.8 11.15 10.2 8.95 11.15" fill="#000000" fill-rule="evenodd" stroke="none"/>
    <path d="M55.65 7.65 L56.9 7.65 M8.95 11.15 L11.5 9.65 Q17.15 6.4 20.4 7.15 L24.95 8.0 Q27.45 8.5 28.9 9.65 L29.35 9.05 Q30.25 8.4 32.4 7.9 39.15 6.45 55.65 7.65 40.55 8.65 35.3 10.65 31.5 12.15 32.75 14.45 L26.0 15.2 Q25.25 12.55 22.05 10.2 19.45 8.4 13.1 9.8 11.15 10.2 8.95 11.15 L4.4 13.65 4.35 13.7 0.95 15.8 -0.1 16.6 M8.95 11.15 Q7.65 11.65 6.3 12.45 L4.4 13.65" fill="none" stroke="#000000" stroke-linecap="round" stroke-linejoin="round" stroke-width="0.5"/>
  </g>
</svg>
