<?xml version="1.0" encoding="UTF-8" standalone="no"?>
<svg xmlns:ffdec="https://www.free-decompiler.com/flash" xmlns:xlink="http://www.w3.org/1999/xlink" ffdec:objectType="shape" height="9.75px" width="57.8px" xmlns="http://www.w3.org/2000/svg">
  <g transform="matrix(1.0, 0.0, 0.0, 1.0, 0.35, -5.6)">
    <path d="M55.95 6.3 Q41.05 7.25 35.6 9.95 31.7 11.9 33.05 14.35 L26.3 15.1 Q25.55 12.45 22.35 10.15 19.75 8.35 13.4 9.75 10.5 10.3 6.8 11.85 L1.55 14.0 0.35 14.0 11.95 8.75 Q17.3 6.3 20.7 7.1 L25.25 7.95 Q27.75 8.45 29.2 9.6 L29.65 8.8 Q30.55 7.9 32.7 7.2 39.45 5.1 55.95 6.3" fill="#000000" fill-rule="evenodd" stroke="none"/>
    <path d="M55.95 6.3 L57.2 6.3 M55.95 6.3 Q41.05 7.25 35.6 9.95 31.7 11.9 33.05 14.35 L26.3 15.1 Q25.55 12.45 22.35 10.15 19.75 8.35 13.4 9.75 10.5 10.3 6.8 11.85 L1.55 14.0 -0.1 14.3 M1.55 14.0 L0.35 14.0 11.95 8.75 Q17.3 6.3 20.7 7.1 L25.25 7.95 Q27.75 8.45 29.2 9.6 L29.65 8.8 Q30.55 7.9 32.7 7.2 39.45 5.1 55.95 6.3" fill="none" stroke="#000000" stroke-linecap="round" stroke-linejoin="round" stroke-width="0.5"/>
  </g>
</svg>
