<?xml version="1.0" encoding="UTF-8" standalone="no"?>
<svg xmlns:ffdec="https://www.free-decompiler.com/flash" xmlns:xlink="http://www.w3.org/1999/xlink" ffdec:objectType="shape" height="10.75px" width="57.8px" xmlns="http://www.w3.org/2000/svg">
  <g transform="matrix(1.0, 0.0, 0.0, 1.0, 0.25, -4.7)">
    <path d="M1.65 12.7 L0.45 12.7 Q14.75 7.5 20.8 7.2 25.75 6.95 29.3 9.7 L29.8 8.85 Q30.7 7.9 32.85 7.1 39.65 4.6 56.05 5.0 41.3 7.2 35.85 10.05 31.85 12.15 33.15 14.45 L26.4 15.2 Q25.65 12.55 22.45 10.25 19.85 8.45 13.5 9.85 6.2 11.2 1.65 12.7" fill="#000000" fill-rule="evenodd" stroke="none"/>
    <path d="M56.05 5.0 L57.3 5.0 M1.65 12.7 L0.45 12.7 Q14.75 7.5 20.8 7.2 25.75 6.95 29.3 9.7 L29.8 8.85 Q30.7 7.9 32.85 7.1 39.65 4.6 56.05 5.0 41.3 7.2 35.85 10.05 31.85 12.15 33.15 14.45 L26.4 15.2 Q25.65 12.55 22.45 10.25 19.85 8.45 13.5 9.85 6.2 11.2 1.65 12.7 L0.0 13.0" fill="none" stroke="#000000" stroke-linecap="round" stroke-linejoin="round" stroke-width="0.5"/>
  </g>
</svg>
