<?xml version="1.0" encoding="UTF-8" standalone="no"?>
<svg xmlns:ffdec="https://www.free-decompiler.com/flash" xmlns:xlink="http://www.w3.org/1999/xlink" ffdec:objectType="shape" height="11.8px" width="56.4px" xmlns="http://www.w3.org/2000/svg">
  <g transform="matrix(1.0, 0.0, 0.0, 1.0, -1.15, -3.45)">
    <path d="M3.05 10.7 L3.0 10.7 Q16.3 6.8 21.6 6.75 25.75 6.7 29.3 9.5 L29.75 8.8 Q30.65 7.95 32.8 7.2 39.6 4.65 56.05 3.7 41.45 5.9 35.85 9.3 31.8 11.8 33.15 14.25 L26.4 15.0 Q25.65 12.35 22.45 10.05 19.7 8.15 14.2 8.75 L3.05 10.7" fill="#000000" fill-rule="evenodd" stroke="none"/>
    <path d="M56.05 3.7 L57.3 3.7 M3.05 10.7 L3.0 10.7 Q16.3 6.8 21.6 6.75 25.75 6.7 29.3 9.5 L29.75 8.8 Q30.65 7.95 32.8 7.2 39.6 4.65 56.05 3.7 41.45 5.9 35.85 9.3 31.8 11.8 33.15 14.25 L26.4 15.0 Q25.65 12.35 22.45 10.05 19.7 8.15 14.2 8.75 L3.05 10.7 1.4 11.0" fill="none" stroke="#000000" stroke-linecap="round" stroke-linejoin="round" stroke-width="0.5"/>
  </g>
</svg>
