<?xml version="1.0" encoding="UTF-8" standalone="no"?>
<svg xmlns:ffdec="https://www.free-decompiler.com/flash" xmlns:xlink="http://www.w3.org/1999/xlink" ffdec:objectType="shape" height="12.9px" width="56.1px" xmlns="http://www.w3.org/2000/svg">
  <g transform="matrix(1.0, 0.0, 0.0, 1.0, -1.15, -2.55)">
    <path d="M3.05 9.6 L3.0 9.6 Q17.25 6.8 21.95 6.9 25.85 7.0 29.3 9.7 L29.75 8.85 Q30.55 7.8 32.65 6.85 39.3 3.75 55.75 2.8 41.3 5.0 35.7 8.95 31.7 11.85 33.15 14.45 L26.4 15.2 Q25.65 12.55 22.45 10.25 19.55 8.25 14.2 8.3 L3.05 9.6" fill="#000000" fill-rule="evenodd" stroke="none"/>
    <path d="M55.75 2.8 L57.0 2.8 M3.05 9.6 L3.0 9.6 Q17.25 6.8 21.95 6.9 25.85 7.0 29.3 9.7 L29.75 8.85 Q30.55 7.8 32.65 6.85 39.3 3.75 55.75 2.8 41.3 5.0 35.7 8.95 31.7 11.85 33.15 14.45 L26.4 15.2 Q25.65 12.55 22.45 10.25 19.55 8.25 14.2 8.3 L3.05 9.6 1.4 9.9" fill="none" stroke="#000000" stroke-linecap="round" stroke-linejoin="round" stroke-width="0.5"/>
  </g>
</svg>
