<?xml version="1.0" encoding="UTF-8" standalone="no"?>
<svg xmlns:ffdec="https://www.free-decompiler.com/flash" xmlns:xlink="http://www.w3.org/1999/xlink" ffdec:objectType="shape" height="13.5px" width="55.5px" xmlns="http://www.w3.org/2000/svg">
  <g transform="matrix(1.0, 0.0, 0.0, 1.0, -1.55, -1.95)">
    <path d="M3.45 8.6 L3.4 8.6 Q17.05 5.9 22.15 6.4 25.5 6.75 29.3 9.7 L30.25 8.7 Q31.7 7.55 34.1 6.45 41.65 3.05 55.55 2.2 41.15 4.35 35.6 8.65 31.65 11.75 33.15 14.45 L26.4 15.2 Q25.65 12.55 22.45 10.25 19.4 8.15 14.4 7.8 L3.45 8.6" fill="#000000" fill-rule="evenodd" stroke="none"/>
    <path d="M55.55 2.2 L56.8 2.2 M3.45 8.6 L3.4 8.6 Q17.05 5.9 22.15 6.4 25.5 6.75 29.3 9.7 L30.25 8.7 Q31.7 7.55 34.1 6.45 41.65 3.05 55.55 2.2 41.15 4.35 35.6 8.65 31.65 11.75 33.15 14.45 L26.4 15.2 Q25.65 12.55 22.45 10.25 19.4 8.15 14.4 7.8 L3.45 8.6 1.8 8.9" fill="none" stroke="#000000" stroke-linecap="round" stroke-linejoin="round" stroke-width="0.5"/>
  </g>
</svg>
