<?xml version="1.0" encoding="UTF-8" standalone="no"?>
<svg xmlns:ffdec="https://www.free-decompiler.com/flash" xmlns:xlink="http://www.w3.org/1999/xlink" ffdec:objectType="shape" height="14.6px" width="55.5px" xmlns="http://www.w3.org/2000/svg">
  <g transform="matrix(1.0, 0.0, 0.0, 1.0, -1.55, -0.95)">
    <path d="M52.85 1.4 Q38.6 3.55 34.25 8.3 31.4 11.45 33.15 14.55 L26.4 15.3 Q25.6 12.4 22.1 10.05 15.65 5.7 3.75 7.7 16.7 5.2 21.95 6.0 24.95 6.45 29.3 9.8 L29.95 8.55 Q31.0 7.05 33.25 5.8 39.6 2.15 52.85 1.4" fill="#000000" fill-rule="evenodd" stroke="none"/>
    <path d="M52.85 1.4 L56.8 1.2 M52.85 1.4 Q38.6 3.55 34.25 8.3 31.4 11.45 33.15 14.55 L26.4 15.3 Q25.6 12.4 22.1 10.05 15.65 5.7 3.75 7.7 L1.8 8.05 M3.75 7.7 Q16.7 5.2 21.95 6.0 24.95 6.45 29.3 9.8 L29.95 8.55 Q31.0 7.05 33.25 5.8 39.6 2.15 52.85 1.4" fill="none" stroke="#000000" stroke-linecap="round" stroke-linejoin="round" stroke-width="0.5"/>
  </g>
</svg>
