<?xml version="1.0" encoding="UTF-8" standalone="no"?>
<svg xmlns:ffdec="https://www.free-decompiler.com/flash" xmlns:xlink="http://www.w3.org/1999/xlink" ffdec:objectType="shape" height="257.25px" width="277.1px" xmlns="http://www.w3.org/2000/svg">
  <g transform="matrix(1.0, 0.0, 0.0, 1.0, 141.0, 86.7)">
    <path d="M130.55 -83.75 L-136.85 -81.05 -138.2 -80.45 -133.35 166.35 Q-133.35 169.3 -125.95 168.3 L132.15 162.65 133.75 161.65 131.3 -81.2 Q131.2 -83.65 130.55 -83.75 M133.4 -82.05 L136.1 161.05 135.0 163.5 Q133.9 164.6 132.15 164.75 L-131.05 170.55 -133.6 169.8 Q-135.35 168.3 -135.6 166.6 L-141.0 -78.1 Q-141.0 -81.3 -140.05 -81.65 L-138.3 -82.9 -133.85 -83.3 117.75 -86.35 Q130.8 -87.45 132.15 -85.15 133.25 -84.25 133.4 -82.05" fill="#f9f9f9" fill-rule="evenodd" stroke="none"/>
    <path d="M130.05 -83.3 L-136.1 -80.45 -137.7 -80.05 -134.35 98.65 Q-133.8 132.1 -132.75 165.6 -133.15 166.95 -131.65 167.7 L132.15 162.05 133.25 161.3 130.7 -78.85 Q130.8 -83.05 130.05 -83.3 M130.55 -83.75 Q131.2 -83.65 131.3 -81.2 L133.75 161.65 132.15 162.65 -125.95 168.3 Q-133.35 169.3 -133.35 166.35 L-138.2 -80.45 -136.85 -81.05 130.55 -83.75" fill="#dbd8d2" fill-rule="evenodd" stroke="none"/>
    <path d="M130.05 -83.3 Q130.8 -83.05 130.7 -78.85 L133.25 161.3 132.15 162.05 -131.65 167.7 Q-133.15 166.95 -132.75 165.6 -133.8 132.1 -134.35 98.65 L-137.7 -80.05 -136.1 -80.45 130.05 -83.3" fill="#f4f1e9" fill-rule="evenodd" stroke="none"/>
  </g>
</svg>
