<?xml version="1.0" encoding="UTF-8" standalone="no"?>
<svg xmlns:ffdec="https://www.free-decompiler.com/flash" xmlns:xlink="http://www.w3.org/1999/xlink" ffdec:objectType="shape" height="225.75px" width="150.35px" xmlns="http://www.w3.org/2000/svg">
  <g transform="matrix(1.0, 0.0, 0.0, 1.0, 18.3, 77.6)">
    <path d="M131.05 -76.75 Q131.8 -77.1 132.05 -75.25 L121.7 54.5 120.3 56.6 8.95 147.85 Q7.95 148.45 6.85 147.85 L-16.35 18.7 -15.95 15.65 -14.0 13.55 131.05 -76.75 M129.85 -60.45 L131.05 -73.9 131.05 -74.9 130.45 -75.25 -13.6 15.0 -14.75 16.5 6.75 140.45 8.2 147.0 Q8.95 147.1 11.15 145.15 L120.1 55.95 120.55 55.25 120.55 55.1 120.8 54.6 125.25 -2.1 125.25 -2.25 129.85 -60.45" fill="#9f9f9f" fill-rule="evenodd" stroke="none"/>
    <path d="M129.85 -60.45 L130.8 -74.5 130.2 -74.75 -13.85 15.65 -14.35 16.75 8.35 146.6 9.45 146.25 120.55 55.25 120.1 55.95 11.15 145.15 Q8.95 147.1 8.2 147.0 L6.75 140.45 -14.75 16.5 -13.6 15.0 130.45 -75.25 131.05 -74.9 131.05 -73.9 129.85 -60.45" fill="#8b8986" fill-rule="evenodd" stroke="none"/>
    <path d="M120.55 55.25 L9.45 146.25 8.35 146.6 -14.35 16.75 -13.85 15.65 130.2 -74.75 130.8 -74.5 129.85 -60.45 125.25 -2.25 125.25 -2.1 120.8 54.6 120.55 55.1 120.55 55.25" fill="#9c9a95" fill-rule="evenodd" stroke="none"/>
    <path d="M6.85 147.85 L5.15 146.1 -17.3 23.15 Q-19.05 16.6 -17.8 14.3 L-16.35 12.55 127.85 -77.25 Q128.7 -78.1 131.05 -76.75 L-14.0 13.55 -15.95 15.65 -16.35 18.7 6.85 147.85" fill="#979797" fill-rule="evenodd" stroke="none"/>
  </g>
</svg>
