<?xml version="1.0" encoding="UTF-8" standalone="no"?>
<svg xmlns:ffdec="https://www.free-decompiler.com/flash" xmlns:xlink="http://www.w3.org/1999/xlink" ffdec:objectType="shape" height="138.85px" width="123.85px" xmlns="http://www.w3.org/2000/svg">
  <g transform="matrix(1.0, 0.0, 0.0, 1.0, 17.7, 16.05)">
    <path d="M-16.6 -10.55 L-16.6 -14.45 -15.8 -15.3 Q-16.5 -14.25 -16.6 -10.55 M-17.45 121.1 L-17.7 120.45 -16.65 -8.05 -16.45 -3.35 -17.45 121.1" fill="#3f3f3f" fill-rule="evenodd" stroke="none"/>
    <path d="M-15.8 -15.3 L-15.45 -15.7 -15.35 -15.7 -15.1 -15.8 -14.25 -16.05 102.05 -13.95 104.9 -13.7 Q105.5 -13.95 106.15 -11.85 L101.8 114.05 101.35 116.9 99.95 117.75 -11.9 122.8 -16.1 122.8 Q-16.95 122.45 -17.45 121.2 L-17.45 121.1 -16.45 -3.35 -16.65 -8.05 -16.6 -10.55 Q-16.5 -14.25 -15.8 -15.3 M-15.1 -14.35 L-16.1 121.35 Q-15.95 122.05 -13.25 121.85 L98.5 116.9 100.45 116.5 105.15 -11.75 104.65 -12.75 -14.1 -14.95 -15.1 -14.35" fill="#f6f6f6" fill-rule="evenodd" stroke="none"/>
    <path d="M-14.75 -14.35 L-14.5 -14.6 104.4 -12.5 Q104.9 -12.35 104.8 -9.9 L100.2 116.3 -14.85 121.6 -15.95 121.1 -14.75 -14.35" fill="#f1eee6" fill-rule="evenodd" stroke="none"/>
    <path d="M-14.75 -14.35 L-15.95 121.1 -14.85 121.6 100.2 116.3 104.8 -9.9 Q104.9 -12.35 104.4 -12.5 L-14.5 -14.6 -14.75 -14.35 M-15.1 -14.35 L-14.1 -14.95 104.65 -12.75 105.15 -11.75 100.45 116.5 98.5 116.9 -13.25 121.85 Q-15.95 122.05 -16.1 121.35 L-15.1 -14.35" fill="#d8d5cf" fill-rule="evenodd" stroke="none"/>
  </g>
</svg>
