<?xml version="1.0" encoding="UTF-8" standalone="no"?>
<svg xmlns:ffdec="https://www.free-decompiler.com/flash" xmlns:xlink="http://www.w3.org/1999/xlink" ffdec:objectType="shape" height="204.85px" width="115.75px" xmlns="http://www.w3.org/2000/svg">
  <g transform="matrix(1.0, 0.0, 0.0, 1.0, 115.2, 84.5)">
    <path d="M-1.5 -84.45 L-1.25 -84.5 0.55 -83.15 -5.1 -10.5 -5.7 -8.3 -7.75 -5.2 -112.65 120.3 Q-113.15 120.55 -115.2 119.25 L-9.15 -8.3 Q-7.6 -9.65 -7.1 -18.5 -1.95 -77.85 -1.5 -84.45" fill="#b7b7b7" fill-rule="evenodd" stroke="none"/>
    <path d="M-2.55 -82.95 L-2.4 -83.05 -2.25 -82.7 -2.25 -82.65 -2.3 -81.95 -2.3 -81.7 -2.4 -81.15 -2.4 -80.8 -2.5 -80.25 -2.5 -79.9 -2.55 -79.35 -2.55 -79.0 -2.65 -78.45 -2.65 -78.1 -2.75 -77.55 -2.75 -77.2 -2.8 -76.6 -2.8 -76.35 -2.9 -75.75 -2.9 -75.5 -3.0 -74.8 -3.0 -74.55 -3.05 -73.9 -3.05 -73.65 -3.25 -72.2 -3.25 -71.95 -3.3 -71.3 -3.3 -71.05 -3.4 -70.4 -3.4 -70.15 -3.5 -69.55 -3.5 -69.2 -3.55 -68.65 -3.55 -68.4 -3.65 -67.75 -3.65 -67.5 -3.7 -66.85 -3.7 -66.6 -4.05 -63.15 -4.05 -63.05 -7.5 -25.05 -9.15 -9.45 -9.25 -9.4 -9.3 -9.2 -9.4 -9.15 -9.45 -8.9 -9.55 -8.7 -9.8 -8.7 -9.95 -8.2 -9.95 -8.15 -10.3 -7.8 -10.4 -7.65 -10.7 -7.3 -10.8 -7.15 -11.1 -6.8 -11.2 -6.65 -12.35 -5.25 -12.7 -4.95 -12.75 -4.75 -13.1 -4.45 -13.15 -4.25 -13.5 -3.95 -13.6 -3.8 -14.65 -2.55 -14.75 -2.35 -15.05 -2.05 -15.15 -1.9 -15.45 -1.55 -15.55 -1.4 -15.9 -1.05 -15.95 -0.9 -16.65 -0.15 -16.7 0.0 -17.05 0.35 -17.1 0.5 -17.45 0.85 -17.55 1.0 -17.85 1.35 -17.95 1.5 -18.6 2.2 -18.65 2.4 -19.0 2.7 -19.1 2.9 -19.4 3.2 -19.5 3.4 -19.85 3.7 -19.9 3.85 -20.25 4.2 -20.65 4.8 -21.0 5.1 -21.05 5.3 -21.4 5.6 -21.5 5.75 -21.8 6.1 -22.35 6.85 -22.55 7.0 -22.6 7.15 -22.95 7.5 -23.05 7.65 -23.35 8.0 -23.55 8.25 -23.7 8.4 -23.95 8.75 -24.1 8.9 -24.35 9.2 -24.5 9.35 -25.0 10.05 -25.35 10.35 -25.5 10.6 -25.7 10.8 -26.3 11.6 -26.5 11.75 -27.05 12.5 -27.25 12.7 -27.5 13.0 -27.65 13.15 -28.3 14.0 -28.7 14.4 -28.8 14.55 -29.15 14.9 -29.2 15.05 -29.45 15.4 -29.6 15.55 -29.85 15.9 -30.0 16.05 -30.25 16.4 -30.7 16.75 -30.75 16.95 -31.1 17.25 -31.2 17.45 -31.45 17.75 -31.6 17.95 -32.0 18.4 -32.25 18.65 -32.4 18.9 -32.65 19.15 -32.85 19.4 -33.1 19.65 -33.15 19.85 -33.45 20.15 -33.55 20.3 -33.8 20.55 -33.95 20.8 -34.2 21.05 -34.4 21.3 -34.65 21.55 -34.8 21.8 -35.05 22.05 -35.15 22.2 -35.35 22.45 -35.55 22.7 -35.8 22.95 -35.95 23.2 -36.2 23.45 -36.35 23.7 -36.6 23.9 -36.8 24.15 -37.0 24.4 -37.1 24.6 -37.35 24.85 -37.5 25.1 -37.75 25.35 -37.9 25.6 -38.15 25.8 -38.35 26.05 -38.6 26.3 -39.05 27.0 -39.3 27.25 -39.5 27.5 -39.75 27.7 -39.9 27.95 -40.15 28.2 -40.3 28.45 -40.5 28.6 -40.7 28.95 -40.85 29.1 -41.05 29.35 -41.3 29.6 -41.45 29.85 -41.7 30.1 -41.85 30.35 -42.05 30.5 -42.3 30.85 -42.45 31.0 -43.1 31.8 -43.25 32.0 -43.45 32.25 -43.7 32.5 -43.85 32.75 -44.0 32.9 -44.25 33.2 -44.4 33.4 -45.05 34.2 -45.25 34.4 -45.4 34.65 -45.55 34.8 -45.8 35.1 -46.0 35.25 -46.25 35.6 -46.4 35.75 -46.65 36.1 -46.8 36.25 -47.8 37.5 -47.95 37.65 -48.2 38.0 -48.35 38.15 -49.75 39.9 -49.95 40.05 -50.15 40.4 -50.35 40.55 -51.75 42.3 -51.9 42.4 -58.5 50.4 -58.55 50.5 -59.6 51.8 -59.7 51.9 -78.6 74.75 -78.95 75.1 -79.05 75.25 -80.6 77.15 -80.95 77.45 -81.0 77.6 -81.35 77.95 -81.4 78.1 -82.5 79.35 -82.55 79.5 -82.9 79.85 -83.0 80.0 -83.3 80.35 -83.4 80.5 -84.05 81.25 -84.15 81.4 -84.45 81.75 -84.55 81.9 -84.9 82.25 -84.95 82.4 -85.25 82.75 -85.35 82.9 -85.7 83.2 -85.75 83.35 -86.0 83.6 -86.1 83.8 -86.45 84.1 -86.5 84.3 -86.85 84.6 -86.9 84.8 -87.25 85.1 -87.35 85.25 -87.6 85.5 -87.75 85.75 -88.0 86.0 -88.1 86.2 -88.4 86.5 -88.5 86.7 -88.8 87.0 -88.9 87.15 -89.15 87.4 -89.3 87.65 -89.55 87.9 -89.7 88.15 -89.95 88.4 -90.15 88.65 -90.4 88.9 -90.45 89.05 -90.7 89.3 -90.85 89.55 -91.1 89.8 -91.3 90.05 -91.55 90.3 -91.7 90.5 -91.95 90.75 -92.1 91.0 -92.35 91.25 -92.45 91.45 -92.65 91.7 -92.85 91.95 -93.1 92.2 -93.25 92.4 -93.5 92.65 -93.65 92.9 -93.9 93.15 -94.1 93.4 -94.25 93.6 -94.8 94.3 -95.05 94.55 -95.25 94.8 -95.5 95.05 -95.65 95.3 -95.8 95.45 -96.05 95.8 -96.2 95.95 -96.45 96.3 -96.6 96.45 -96.8 96.7 -97.05 96.95 -97.6 97.7 -97.8 97.85 -98.0 98.15 -98.2 98.35 -98.85 99.15 -99.0 99.35 -99.6 100.05 -99.75 100.25 -100.0 100.55 -100.15 100.75 -101.15 101.95 -101.3 102.1 -101.55 102.45 -101.7 102.6 -101.95 102.95 -102.15 103.1 -103.55 104.85 -103.7 105.0 -103.95 105.3 -104.1 105.5 -105.5 107.2 -105.65 107.4 -113.8 117.15 -114.4 117.5 -114.4 117.35 -112.15 110.7 -112.15 110.6 -111.4 108.3 -111.35 108.15 -111.0 107.15 -111.0 107.05 -110.8 106.3 -110.8 106.15 -109.85 103.6 -109.85 103.35 -108.7 100.05 -108.7 99.8 -98.5 68.65 -98.5 68.55 -97.7 66.1 -97.7 66.05 -89.8 41.8 -89.7 41.55 -84.7 26.25 -84.45 25.8 -84.15 25.35 -84.15 25.25 -83.95 25.1 -18.1 -62.4 -18.05 -62.55 -17.85 -62.75 -17.8 -62.9 -17.6 -63.05 -17.55 -63.2 -17.35 -63.4 -17.3 -63.55 -17.1 -63.7 -17.05 -63.9 -16.8 -64.15 -14.8 -66.75 -14.75 -66.9 -14.6 -67.1 -14.5 -67.25 -14.35 -67.4 -14.25 -67.6 -14.1 -67.75 -14.0 -67.9 -13.85 -68.1 -13.75 -68.25 -13.6 -68.4 -13.5 -68.55 -13.35 -68.7 -13.25 -68.9 -13.1 -69.05 -13.0 -69.2 -12.85 -69.4 -12.75 -69.55 -12.6 -69.7 -12.5 -69.9 -12.35 -70.05 -12.25 -70.2 -12.1 -70.4 -12.0 -70.55 -11.85 -70.7 -9.95 -73.25 -9.8 -73.4 -9.7 -73.6 -9.55 -73.75 -9.45 -73.9 -9.3 -74.1 -9.25 -74.25 -9.05 -74.4 -9.0 -74.55 -8.8 -74.75 -8.75 -74.9 -8.55 -75.05 -8.4 -75.3 -2.9 -82.65 -2.8 -82.8 -2.55 -82.95" fill="#666561" fill-rule="evenodd" stroke="none"/>
    <path d="M-115.2 119.25 L-115.2 118.5 -99.9 71.65 -86.0 29.1 Q-85.5 27.15 -84.7 26.25 L-89.7 41.55 -89.8 41.8 -97.7 66.05 -97.7 66.1 -98.5 68.55 -98.5 68.65 -108.7 99.8 -108.7 100.05 -109.85 103.35 -109.85 103.6 -110.8 106.15 -110.8 106.3 -111.0 107.05 -111.0 107.15 -111.35 108.15 -111.4 108.3 -112.15 110.6 -112.15 110.7 -114.4 117.35 -114.4 117.5 -114.5 118.0 -113.8 117.15 -105.65 107.4 -105.5 107.2 -104.1 105.5 -103.95 105.3 -103.7 105.0 -103.55 104.85 -102.15 103.1 -101.95 102.95 -101.7 102.6 -101.55 102.45 -101.3 102.1 -101.15 101.95 -100.15 100.75 -100.0 100.55 -99.75 100.25 -99.6 100.05 -99.0 99.35 -98.85 99.15 -98.2 98.35 -98.0 98.15 -97.8 97.85 -97.6 97.7 -97.05 96.95 -96.8 96.7 -96.6 96.45 -96.45 96.3 -96.2 95.95 -96.05 95.8 -95.8 95.45 -95.65 95.3 -95.5 95.05 -95.25 94.8 -95.05 94.55 -94.8 94.3 -94.25 93.6 -94.1 93.4 -93.9 93.15 -93.65 92.9 -93.5 92.65 -93.25 92.4 -93.1 92.2 -92.85 91.95 -92.65 91.7 -92.45 91.45 -92.35 91.25 -92.1 91.0 -91.95 90.75 -91.7 90.5 -91.55 90.3 -91.3 90.05 -91.1 89.8 -90.85 89.55 -90.7 89.3 -90.45 89.05 -90.4 88.9 -90.15 88.65 -89.95 88.4 -89.7 88.15 -89.55 87.9 -89.3 87.65 -89.15 87.4 -88.9 87.15 -88.8 87.0 -88.5 86.7 -88.4 86.5 -88.1 86.2 -88.0 86.0 -87.75 85.75 -87.6 85.5 -87.35 85.25 -87.25 85.1 -86.9 84.8 -86.85 84.6 -86.5 84.3 -86.45 84.1 -86.1 83.8 -86.0 83.6 -85.75 83.35 -85.7 83.2 -85.35 82.9 -85.25 82.75 -84.95 82.4 -84.9 82.25 -84.55 81.9 -84.45 81.75 -84.15 81.4 -84.05 81.25 -83.4 80.5 -83.3 80.35 -83.0 80.0 -82.9 79.85 -82.55 79.5 -82.5 79.35 -81.4 78.1 -81.35 77.95 -81.0 77.6 -80.95 77.45 -80.6 77.15 -79.05 75.25 -78.95 75.1 -78.6 74.75 -59.7 51.9 -59.6 51.8 -58.55 50.5 -58.5 50.4 -51.9 42.4 -51.75 42.3 -50.35 40.55 -50.15 40.4 -49.95 40.05 -49.75 39.9 -48.35 38.15 -48.2 38.0 -47.95 37.65 -47.8 37.5 -46.8 36.25 -46.65 36.1 -46.4 35.75 -46.25 35.6 -46.0 35.25 -45.8 35.1 -45.55 34.8 -45.4 34.65 -45.25 34.4 -45.05 34.2 -44.4 33.4 -44.25 33.2 -44.0 32.9 -43.85 32.75 -43.7 32.5 -43.45 32.25 -43.25 32.0 -43.1 31.8 -42.45 31.0 -42.3 30.85 -42.05 30.5 -41.85 30.35 -41.7 30.1 -41.45 29.85 -41.3 29.6 -41.05 29.35 -40.85 29.1 -40.7 28.95 -40.5 28.6 -40.3 28.45 -40.15 28.2 -39.9 27.95 -39.75 27.7 -39.5 27.5 -39.3 27.25 -39.05 27.0 -38.6 26.3 -38.35 26.05 -38.15 25.8 -37.9 25.6 -37.75 25.35 -37.5 25.1 -37.35 24.85 -37.1 24.6 -37.0 24.4 -36.8 24.15 -36.6 23.9 -36.35 23.7 -36.2 23.45 -35.95 23.2 -35.8 22.95 -35.55 22.7 -35.35 22.45 -35.15 22.2 -35.05 22.05 -34.8 21.8 -34.65 21.55 -34.4 21.3 -34.2 21.05 -33.95 20.8 -33.8 20.55 -33.55 20.3 -33.45 20.15 -33.15 19.85 -33.1 19.65 -32.85 19.4 -32.65 19.15 -32.4 18.9 -32.25 18.65 -32.0 18.4 -31.6 17.95 -31.45 17.75 -31.2 17.45 -31.1 17.25 -30.75 16.95 -30.7 16.75 -30.25 16.4 -30.0 16.05 -29.85 15.9 -29.6 15.55 -29.45 15.4 -29.2 15.05 -29.15 14.9 -28.8 14.55 -28.7 14.4 -28.3 14.0 -27.65 13.15 -27.5 13.0 -27.25 12.7 -27.05 12.5 -26.5 11.75 -26.3 11.6 -25.7 10.8 -25.5 10.6 -25.35 10.35 -25.0 10.05 -24.5 9.35 -24.35 9.2 -24.1 8.9 -23.95 8.75 -23.7 8.4 -23.55 8.25 -23.35 8.0 -23.05 7.65 -22.95 7.5 -22.6 7.15 -22.55 7.0 -22.35 6.85 -21.8 6.1 -21.5 5.75 -21.4 5.6 -21.05 5.3 -21.0 5.1 -20.65 4.8 -20.25 4.2 -19.9 3.85 -19.85 3.7 -19.5 3.4 -19.4 3.2 -19.1 2.9 -19.0 2.7 -18.65 2.4 -18.6 2.2 -17.95 1.5 -17.85 1.35 -17.55 1.0 -17.45 0.85 -17.1 0.5 -17.05 0.35 -16.7 0.0 -16.65 -0.15 -15.95 -0.9 -15.9 -1.05 -15.55 -1.4 -15.45 -1.55 -15.15 -1.9 -15.05 -2.05 -14.75 -2.35 -14.65 -2.55 -13.6 -3.8 -13.5 -3.95 -13.15 -4.25 -13.1 -4.45 -12.75 -4.75 -12.7 -4.95 -12.35 -5.25 -11.2 -6.65 -11.1 -6.8 -10.8 -7.15 -10.7 -7.3 -10.4 -7.65 -10.3 -7.8 -9.95 -8.15 -9.95 -8.2 -9.55 -8.7 -9.45 -8.9 -9.4 -9.15 -9.3 -9.2 -9.25 -9.4 -9.15 -9.45 -8.75 -10.2 -7.5 -25.05 -4.05 -63.05 -4.05 -63.15 -3.7 -66.6 -3.7 -66.85 -3.65 -67.5 -3.65 -67.75 -3.55 -68.4 -3.55 -68.65 -3.5 -69.2 -3.5 -69.55 -3.4 -70.15 -3.4 -70.4 -3.3 -71.05 -3.3 -71.3 -3.25 -71.95 -3.25 -72.2 -3.05 -73.65 -3.05 -73.9 -3.0 -74.55 -3.0 -74.8 -2.9 -75.5 -2.9 -75.75 -2.8 -76.35 -2.8 -76.6 -2.75 -77.2 -2.75 -77.55 -2.65 -78.1 -2.65 -78.45 -2.55 -79.0 -2.55 -79.35 -2.5 -79.9 -2.5 -80.25 -2.4 -80.8 -2.4 -81.15 -2.3 -81.7 -2.3 -81.95 -2.25 -82.65 -2.25 -82.7 -2.15 -83.35 -2.55 -82.95 -2.8 -82.8 -2.9 -82.65 -8.4 -75.3 -8.55 -75.05 -8.75 -74.9 -8.8 -74.75 -9.0 -74.55 -9.05 -74.4 -9.25 -74.25 -9.3 -74.1 -9.45 -73.9 -9.55 -73.75 -9.7 -73.6 -9.8 -73.4 -9.95 -73.25 -11.85 -70.7 -12.0 -70.55 -12.1 -70.4 -12.25 -70.2 -12.35 -70.05 -12.5 -69.9 -12.6 -69.7 -12.75 -69.55 -12.85 -69.4 -13.0 -69.2 -13.1 -69.05 -13.25 -68.9 -13.35 -68.7 -13.5 -68.55 -13.6 -68.4 -13.75 -68.25 -13.85 -68.1 -14.0 -67.9 -14.1 -67.75 -14.25 -67.6 -14.35 -67.4 -14.5 -67.25 -14.6 -67.1 -14.75 -66.9 -14.8 -66.75 -16.8 -64.15 -17.05 -63.9 -17.1 -63.7 -17.3 -63.55 -17.35 -63.4 -17.55 -63.2 -17.6 -63.05 -17.8 -62.9 -17.85 -62.75 -18.05 -62.55 -18.1 -62.4 -83.95 25.1 -84.15 25.25 -84.15 25.35 -84.4 25.5 -84.45 25.8 -84.65 25.9 -84.4 25.5 -37.5 -37.1 Q-5.55 -80.05 -1.5 -84.45 -1.95 -77.85 -7.1 -18.5 -7.6 -9.65 -9.15 -8.3 L-115.2 119.25" fill="#686868" fill-rule="evenodd" stroke="none"/>
    <path d="M-84.7 26.25 L-84.7 26.05 -84.65 25.9 -84.45 25.8 -84.4 25.5 -84.15 25.35 -84.45 25.8 -84.7 26.25 M-2.25 -82.7 L-2.4 -83.05 -2.55 -82.95 -2.15 -83.35 -2.25 -82.7 M-114.4 117.5 L-113.8 117.15 -114.5 118.0 -114.4 117.5 M-9.95 -8.2 L-9.8 -8.7 -9.55 -8.7 -9.95 -8.2 M-9.15 -9.45 L-7.5 -25.05 -8.75 -10.2 -9.15 -9.45" fill="#5b5a57" fill-rule="evenodd" stroke="none"/>
  </g>
</svg>
