<?xml version="1.0" encoding="UTF-8" standalone="no"?>
<svg xmlns:ffdec="https://www.free-decompiler.com/flash" xmlns:xlink="http://www.w3.org/1999/xlink" ffdec:objectType="shape" height="253.75px" width="213.9px" xmlns="http://www.w3.org/2000/svg">
  <g transform="matrix(1.0, 0.0, 0.0, 1.0, 143.05, 113.2)">
    <path d="M-117.9 -35.7 L-141.5 -22.1 -134.1 137.0 -133.6 137.75 -133.0 137.75 66.2 58.45 66.9 57.55 23.5 -92.3 17.7 -111.25 16.95 -111.25 17.85 -111.75 18.45 -111.25 67.3 55.35 67.4 57.95 65.95 59.15 -133.0 138.25 -133.85 138.25 -134.5 137.35 -141.9 -21.75 -141.25 -22.85 -117.9 -35.7" fill="#bebbb6" fill-rule="evenodd" stroke="none"/>
    <path d="M-117.9 -35.7 L-141.25 -22.85 -141.9 -21.75 -134.5 137.35 -133.85 138.25 -133.0 138.25 65.95 59.15 67.4 57.95 67.3 55.35 18.45 -111.25 17.85 -111.75 16.95 -111.25 16.7 -111.25 Q-50.55 -73.5 -117.9 -35.7 M-134.0 139.95 L-134.85 139.7 Q-135.85 138.85 -135.85 137.75 L-142.75 -14.1 Q-143.5 -22.0 -142.4 -22.7 L-140.9 -24.2 15.6 -112.4 Q17.1 -113.75 19.45 -112.75 L67.4 48.55 Q70.75 57.55 69.0 58.95 L67.15 60.65 -132.4 139.7 -134.0 139.95" fill="#d8d8d8" fill-rule="evenodd" stroke="none"/>
    <path d="M16.95 -111.25 L17.7 -111.25 23.5 -92.3 66.9 57.55 66.2 58.45 -133.0 137.75 -133.6 137.75 -134.1 137.0 -141.5 -22.1 -117.9 -35.7 Q-50.55 -73.5 16.7 -111.25 L16.95 -111.25" fill="#d4d1ca" fill-rule="evenodd" stroke="none"/>
    <path d="M-134.0 139.95 L-132.4 139.7 67.15 60.65 69.0 58.95 Q70.75 57.55 67.4 48.55 L19.45 -112.75 21.3 -110.3 70.25 54.75 Q71.35 56.45 70.5 59.9 69.9 61.15 67.65 62.25 L-130.65 140.45 Q-131.5 140.8 -134.0 139.95" fill="#878787" fill-rule="evenodd" stroke="none"/>
  </g>
</svg>
