<?xml version="1.0" encoding="UTF-8" standalone="no"?>
<svg xmlns:ffdec="https://www.free-decompiler.com/flash" xmlns:xlink="http://www.w3.org/1999/xlink" ffdec:objectType="shape" height="273.25px" width="281.5px" xmlns="http://www.w3.org/2000/svg">
  <g transform="matrix(1.0, 0.0, 0.0, 1.0, 158.85, 110.35)">
    <path d="M80.5 -107.55 L81.1 -106.45 119.45 129.1 118.6 129.7 -139.4 160.2 Q-140.55 160.45 -141.25 158.95 L-156.45 -61.45 Q-155.95 -62.7 -148.3 -63.65 L80.5 -107.55" fill="#f5f2ea" fill-rule="evenodd" stroke="none"/>
    <path d="M80.5 -107.55 L-148.3 -63.65 Q-155.95 -62.7 -156.45 -61.45 L-141.25 158.95 Q-140.55 160.45 -139.4 160.2 L118.6 129.7 119.45 129.1 81.1 -106.45 80.5 -107.55 M81.35 -107.7 L94.2 -31.1 120.3 127.5 120.1 129.35 Q119.6 130.2 118.45 130.45 L-139.3 160.8 Q-142.0 160.9 -141.9 158.95 L-157.05 -61.45 -155.45 -62.8 78.4 -108.3 Q80.1 -108.95 81.35 -107.7" fill="#dbd9d3" fill-rule="evenodd" stroke="none"/>
    <path d="M81.35 -107.7 Q80.1 -108.95 78.4 -108.3 L-155.45 -62.8 -157.05 -61.45 -141.9 158.95 Q-142.0 160.9 -139.3 160.8 L118.45 130.45 Q119.6 130.2 120.1 129.35 L120.3 127.5 94.2 -31.1 81.35 -107.7 M83.8 -107.35 L122.3 124.8 Q123.15 130.2 122.05 130.85 120.55 132.55 119.1 132.7 L-139.15 162.9 Q-143.35 162.9 -143.75 159.3 L-158.65 -57.0 Q-159.25 -61.7 -158.05 -62.95 -157.55 -64.05 -155.1 -64.65 L77.4 -110.05 Q81.45 -110.9 82.45 -109.4 83.2 -109.3 83.8 -107.35" fill="#fafafa" fill-rule="evenodd" stroke="none"/>
  </g>
</svg>
