<?xml version="1.0" encoding="UTF-8" standalone="no"?>
<svg xmlns:ffdec="https://www.free-decompiler.com/flash" xmlns:xlink="http://www.w3.org/1999/xlink" ffdec:objectType="shape" height="269.15px" width="290.6px" xmlns="http://www.w3.org/2000/svg">
  <g transform="matrix(1.0, 0.0, 0.0, 1.0, 149.95, 92.2)">
    <path d="M131.55 -89.3 L132.4 -87.85 137.6 170.55 136.1 171.3 -134.85 174.75 Q-144.25 175.95 -144.6 172.9 L-147.05 -82.8 -145.6 -83.65 131.55 -89.3 M131.8 -87.0 L131.65 -88.1 131.2 -88.7 -145.35 -83.05 -146.45 -82.65 -144.0 172.65 -143.0 174.0 134.15 170.65 Q136.85 170.65 137.1 170.05 L131.8 -87.0" fill="#dcd9d3" fill-rule="evenodd" stroke="none"/>
    <path d="M131.8 -87.0 L137.1 170.05 Q136.85 170.65 134.15 170.65 L-143.0 174.0 -144.0 172.65 -146.45 -82.65 -145.35 -83.05 131.2 -88.7 131.65 -88.1 131.8 -87.0" fill="#f6f3eb" fill-rule="evenodd" stroke="none"/>
    <path d="M133.15 -91.05 L134.25 -89.7 134.75 -87.95 140.3 156.6 Q141.3 170.55 139.45 172.0 138.7 173.0 136.5 173.5 L-133.85 176.95 -144.1 176.7 Q-146.95 174.6 -146.8 172.9 L-149.65 -70.8 Q-150.4 -83.15 -148.65 -84.25 L-147.3 -85.35 -145.45 -85.85 126.85 -92.05 Q131.05 -92.65 133.15 -91.05 M131.55 -89.3 L-145.6 -83.65 -147.05 -82.8 -144.6 172.9 Q-144.25 175.95 -134.85 174.75 L136.1 171.3 137.6 170.55 132.4 -87.85 131.55 -89.3" fill="#fbfbfb" fill-rule="evenodd" stroke="none"/>
  </g>
</svg>
