<?xml version="1.0" encoding="UTF-8" standalone="no"?>
<svg xmlns:ffdec="https://www.free-decompiler.com/flash" xmlns:xlink="http://www.w3.org/1999/xlink" ffdec:objectType="shape" height="234.15px" width="162.2px" xmlns="http://www.w3.org/2000/svg">
  <g transform="matrix(1.0, 0.0, 0.0, 1.0, -97.65, 10.1)">
    <path d="M246.65 -10.1 L259.85 -3.4 259.85 23.9 259.65 24.05 259.4 24.0 258.65 23.65 258.6 23.6 257.35 23.15 257.2 23.05 257.1 23.0 257.0 23.0 256.75 22.95 256.6 22.95 256.6 22.85 256.5 22.8 256.4 22.8 256.05 22.7 255.95 22.6 255.75 22.55 254.75 22.1 254.7 22.1 251.0 20.75 250.85 20.75 250.4 20.5 250.3 20.5 250.2 20.45 250.05 20.35 249.9 20.35 249.85 20.35 249.75 20.3 249.65 20.25 249.6 20.25 249.45 20.15 248.85 19.9 248.75 19.9 248.05 19.65 247.8 19.5 247.75 19.5 247.0 19.2 246.65 18.95 246.65 -10.1 M246.65 194.9 L246.75 194.9 247.65 194.55 247.8 194.5 247.85 194.5 249.2 193.95 249.25 193.95 249.85 193.75 249.9 193.75 250.1 193.7 250.55 193.5 250.8 193.45 251.0 193.35 251.4 193.25 251.65 193.1 256.0 191.5 256.15 191.45 256.25 191.35 256.8 191.25 256.95 191.15 257.1 191.1 257.25 191.0 257.6 190.9 258.2 190.65 258.4 190.65 258.6 190.55 258.75 190.5 259.6 190.2 259.85 190.15 259.85 217.5 259.45 217.85 246.65 224.05 246.65 194.9" fill="#bbbbbb" fill-rule="evenodd" stroke="none"/>
    <path d="M246.55 19.05 L246.4 -10.05 246.65 -10.1 246.65 18.95 246.55 19.05 M246.65 224.05 L246.4 224.05 246.4 195.0 246.65 194.9 246.65 224.05" fill="#959595" fill-rule="evenodd" stroke="none"/>
    <path d="M247.75 19.5 L247.15 19.4 247.0 19.2 246.55 19.05 246.65 18.95 247.0 19.2 247.75 19.5" fill="#060606" fill-rule="evenodd" stroke="none"/>
    <path d="M256.5 24.05 L253.2 24.8 253.1 24.85 252.9 24.85 251.15 25.35 251.05 25.35 250.85 25.25 250.85 20.75 251.0 20.75 254.7 22.1 254.75 22.1 255.75 22.55 255.95 22.6 256.05 22.7 256.4 22.8 256.5 22.8 256.5 24.05 M153.4 112.4 L149.05 112.25 149.05 101.9 153.4 101.75 153.45 106.85 153.4 112.4" fill="#050505" fill-rule="evenodd" stroke="none"/>
    <path d="M256.6 22.95 L256.5 24.05 256.5 22.8 256.6 22.85 256.6 22.95 M153.45 106.85 L153.5 111.9 153.4 112.4 153.45 106.85" fill="#e9e9e9" fill-rule="evenodd" stroke="none"/>
    <path d="M190.85 107.7 L190.3 107.7 190.3 107.05 190.85 107.05 190.85 107.7" fill="#121212" fill-rule="evenodd" stroke="none"/>
    <path d="M228.5 195.95 L224.45 195.35 224.45 189.85 224.55 189.85 228.5 190.4 228.5 195.95" fill="#0b0b0b" fill-rule="evenodd" stroke="none"/>
    <path d="M110.85 194.9 L110.75 194.9 109.9 194.55 109.7 194.5 109.65 194.5 108.3 194.0 108.25 194.0 107.65 193.75 107.6 193.75 107.45 193.7 107.0 193.5 106.75 193.45 106.5 193.35 106.1 193.25 105.9 193.1 101.55 191.5 101.35 191.45 101.25 191.35 100.75 191.25 100.6 191.15 100.45 191.1 100.25 191.0 99.95 190.9 99.3 190.65 99.15 190.65 98.95 190.55 98.75 190.5 97.95 190.2 97.65 190.15 97.65 217.5 98.1 217.85 110.85 224.05 110.85 194.9 M110.85 -10.1 L97.65 -3.4 97.65 23.9 97.9 24.05 98.1 24.0 98.9 23.65 98.95 23.6 100.2 23.15 100.3 23.05 100.45 23.05 100.55 23.05 100.75 22.95 100.95 22.95 100.95 22.85 101.05 22.8 101.15 22.8 101.45 22.7 101.6 22.6 101.8 22.55 102.8 22.1 102.85 22.1 106.5 20.75 106.65 20.75 107.1 20.5 107.2 20.5 107.35 20.45 107.5 20.4 107.6 20.35 107.65 20.35 107.8 20.3 107.9 20.25 107.95 20.25 108.1 20.15 108.65 19.9 108.75 19.9 109.5 19.65 109.7 19.5 109.75 19.5 110.55 19.2 110.85 18.95 110.85 -10.1" fill="#bbbbbb" fill-rule="evenodd" stroke="none"/>
    <path d="M110.85 224.05 L111.15 224.05 111.15 195.0 110.85 194.9 110.85 224.05 M111.0 19.05 L111.15 -10.05 110.85 -10.1 110.85 18.95 111.0 19.05" fill="#959595" fill-rule="evenodd" stroke="none"/>
    <path d="M129.05 190.4 L129.05 195.95 133.1 195.35 133.1 189.85 132.95 189.85 129.05 190.4" fill="#0b0b0b" fill-rule="evenodd" stroke="none"/>
    <path d="M100.95 22.95 L101.05 24.05 101.05 22.8 100.95 22.85 100.95 22.95 M204.1 106.85 L204.0 111.95 204.15 112.4 204.1 106.85" fill="#e9e9e9" fill-rule="evenodd" stroke="none"/>
    <path d="M101.05 24.05 L104.35 24.8 104.4 24.85 104.65 24.85 106.4 25.35 106.5 25.35 106.65 25.25 106.65 20.75 106.5 20.75 102.85 22.1 102.8 22.1 101.8 22.55 101.6 22.6 101.45 22.7 101.15 22.8 101.05 22.8 101.05 24.05 M204.15 112.4 L208.5 112.25 208.5 101.9 204.15 101.75 204.1 106.85 204.15 112.4" fill="#050505" fill-rule="evenodd" stroke="none"/>
    <path d="M109.75 19.5 L110.35 19.4 110.55 19.2 111.0 19.05 110.85 18.95 110.55 19.2 109.75 19.5" fill="#060606" fill-rule="evenodd" stroke="none"/>
    <path d="M166.7 107.7 L167.25 107.7 167.25 107.05 166.7 107.05 166.7 107.7" fill="#121212" fill-rule="evenodd" stroke="none"/>
  </g>
</svg>
