<?xml version="1.0" encoding="UTF-8" standalone="no"?>
<svg xmlns:ffdec="https://www.free-decompiler.com/flash" xmlns:xlink="http://www.w3.org/1999/xlink" ffdec:objectType="shape" height="243.8px" width="298.05px" xmlns="http://www.w3.org/2000/svg">
  <g transform="matrix(1.0, 0.0, 0.0, 1.0, -20.45, 14.9)">
    <path d="M318.5 -12.8 L318.35 29.45 316.0 29.45 315.85 29.4 314.35 29.4 314.05 29.3 312.6 29.3 312.25 29.3 277.05 28.15 277.05 -14.9 318.5 -12.8 M315.85 184.7 L316.05 184.65 318.5 184.65 318.5 226.95 277.05 228.9 277.05 185.9 311.85 184.85 312.25 184.8 313.9 184.8 314.15 184.7 315.85 184.7" fill="#e5e5e5" fill-rule="evenodd" stroke="none"/>
    <path d="M219.8 118.15 L219.8 95.95 222.75 96.55 222.75 117.7 219.8 118.15" fill="#6e6e6e" fill-rule="evenodd" stroke="none"/>
    <path d="M219.8 118.15 L219.55 118.15 219.55 95.95 219.8 95.95 219.8 118.15" fill="#d4d4d4" fill-rule="evenodd" stroke="none"/>
    <path d="M224.55 110.1 L224.55 104.55 228.65 104.5 228.65 110.1 224.55 110.1" fill="#0b0b0b" fill-rule="evenodd" stroke="none"/>
    <path d="M116.75 184.7 L117.0 184.65 119.4 184.65 119.4 226.95 77.95 228.9 77.95 185.9 112.8 184.85 113.15 184.8 114.8 184.8 115.05 184.7 116.75 184.7 M113.15 29.3 L77.95 28.15 77.95 -14.85 119.4 -12.8 119.25 29.45 116.9 29.45 116.75 29.4 115.25 29.4 115.0 29.35 113.5 29.35 113.15 29.3" fill="#e5e5e5" fill-rule="evenodd" stroke="none"/>
    <path d="M20.75 95.95 L23.65 96.55 23.65 117.7 20.75 118.15 20.75 95.95" fill="#6e6e6e" fill-rule="evenodd" stroke="none"/>
    <path d="M20.75 118.15 L20.45 118.15 20.45 95.95 20.75 95.95 20.75 118.15" fill="#d4d4d4" fill-rule="evenodd" stroke="none"/>
    <path d="M25.5 104.55 L29.55 104.55 29.55 110.1 25.5 110.1 25.5 104.55" fill="#0b0b0b" fill-rule="evenodd" stroke="none"/>
  </g>
</svg>
