<?xml version="1.0" encoding="UTF-8" standalone="no"?>
<svg xmlns:ffdec="https://www.free-decompiler.com/flash" xmlns:xlink="http://www.w3.org/1999/xlink" ffdec:objectType="shape" height="253.95px" width="346.5px" xmlns="http://www.w3.org/2000/svg">
  <g transform="matrix(1.0, 0.0, 0.0, 1.0, -5.5, 19.95)">
    <path d="M344.15 24.8 L344.15 -3.55 344.45 -3.55 344.45 24.8 344.15 24.8 M246.65 92.45 L246.65 121.55 246.4 121.55 246.4 92.45 246.65 92.45" fill="#959595" fill-rule="evenodd" stroke="none"/>
    <path d="M280.9 33.9 L280.9 -15.25 329.15 -19.95 329.15 31.05 287.3 33.55 280.9 33.9 M325.1 182.65 L325.25 182.75 329.15 182.9 329.15 234.0 280.9 229.4 280.9 180.3 295.8 181.0 296.25 181.1 297.85 181.1 298.2 181.2 314.75 182.05 315.25 182.15 316.8 182.2 317.2 182.3 318.85 182.3 319.2 182.35 319.95 182.35 320.25 182.4 320.95 182.4 321.2 182.5 322.0 182.5 322.25 182.55 323.05 182.55 323.25 182.6 324.05 182.6 324.25 182.65 325.1 182.65" fill="#a6a6a6" fill-rule="evenodd" stroke="none"/>
    <path d="M344.45 -3.55 L352.0 2.5 351.95 29.45 344.45 24.8 344.45 -3.55 M246.65 92.45 L259.85 93.4 259.85 120.8 246.65 121.55 246.65 92.45" fill="#bbbbbb" fill-rule="evenodd" stroke="none"/>
    <path d="M351.95 29.45 L351.3 29.3 344.15 24.8 344.45 24.8 351.95 29.45 M280.9 33.9 L287.3 33.55 281.05 34.05 280.9 33.9" fill="#060606" fill-rule="evenodd" stroke="none"/>
    <path d="M28.4 234.0 L76.6 229.4 76.6 180.3 61.75 181.0 61.3 181.1 59.7 181.1 59.3 181.2 42.8 182.05 42.3 182.15 40.75 182.2 40.3 182.3 38.65 182.3 38.3 182.4 37.6 182.4 37.3 182.4 36.55 182.4 36.35 182.5 35.5 182.5 35.3 182.55 34.45 182.55 34.3 182.6 33.45 182.6 33.3 182.65 32.4 182.65 32.3 182.75 28.4 182.9 28.4 234.0 M76.6 33.9 L76.6 -15.25 28.4 -19.95 28.4 31.05 70.2 33.55 76.6 33.9" fill="#a6a6a6" fill-rule="evenodd" stroke="none"/>
    <path d="M110.85 121.55 L111.15 121.55 111.15 92.45 110.85 92.45 110.85 121.55 M13.05 24.8 L13.4 24.8 13.4 -3.55 13.05 -3.55 13.05 24.8" fill="#959595" fill-rule="evenodd" stroke="none"/>
    <path d="M110.85 92.45 L97.65 93.4 97.65 120.85 110.85 121.55 110.85 92.45 M5.55 29.45 L13.05 24.8 13.05 -3.55 5.5 2.5 5.55 29.45" fill="#bbbbbb" fill-rule="evenodd" stroke="none"/>
    <path d="M5.55 29.45 L6.2 29.3 13.4 24.8 13.05 24.8 5.55 29.45 M76.6 33.9 L70.2 33.55 76.5 34.05 76.6 33.9" fill="#060606" fill-rule="evenodd" stroke="none"/>
  </g>
</svg>
