<?xml version="1.0" encoding="UTF-8" standalone="no"?>
<svg xmlns:ffdec="https://www.free-decompiler.com/flash" xmlns:xlink="http://www.w3.org/1999/xlink" ffdec:objectType="shape" height="286.45px" width="473.6px" xmlns="http://www.w3.org/2000/svg">
  <g transform="matrix(1.0, 0.0, 0.0, 1.0, 58.05, 36.35)">
    <path d="M307.1 -36.2 L307.9 -36.35 307.9 34.05 307.1 34.05 307.1 -36.2 M307.1 250.1 L307.1 179.7 307.75 179.7 307.9 250.1 307.1 250.1" fill="#171717" fill-rule="evenodd" stroke="none"/>
    <path d="M374.75 24.6 L374.85 -13.7 415.55 -11.7 415.55 31.5 387.3 30.7 386.55 30.55 374.85 30.1 374.75 24.6 M318.4 128.2 L276.95 128.6 276.95 85.55 318.4 85.95 318.4 128.2" fill="#e5e5e5" fill-rule="evenodd" stroke="none"/>
    <path d="M293.9 44.1 L293.75 -16.4 307.1 -36.2 307.1 34.05 293.9 44.1 M374.75 24.6 L374.85 30.1 374.7 30.1 374.75 24.6 M307.75 179.7 L307.1 179.7 307.1 250.1 293.75 231.15 294.0 170.15 295.65 170.85 307.75 179.7" fill="#000000" fill-rule="evenodd" stroke="none"/>
    <path d="M307.9 34.05 L294.7 44.1 293.9 44.1 307.1 34.05 307.9 34.05" fill="#060606" fill-rule="evenodd" stroke="none"/>
    <path d="M363.95 187.35 L386.55 183.55 386.55 218.15 363.95 223.75 363.95 187.35" fill="#eaeaea" fill-rule="evenodd" stroke="none"/>
    <path d="M363.95 223.75 L363.6 223.6 363.6 187.45 363.95 187.35 363.95 223.75" fill="#313131" fill-rule="evenodd" stroke="none"/>
    <path d="M-17.2 24.6 L-17.3 -13.7 -58.05 -11.7 -58.05 31.5 -29.75 30.7 -29.05 30.55 -17.3 30.1 -17.2 24.6 M39.15 128.25 L80.6 128.6 80.6 85.6 39.15 85.95 39.15 128.25" fill="#e5e5e5" fill-rule="evenodd" stroke="none"/>
    <path d="M-17.2 24.6 L-17.3 30.1 -17.15 30.1 -17.2 24.6 M50.4 250.1 L63.8 231.15 63.5 170.15 61.85 170.85 49.75 179.7 50.4 179.7 50.4 250.1 M50.4 -36.2 L50.4 34.05 63.65 44.1 63.8 -16.4 50.4 -36.2" fill="#000000" fill-rule="evenodd" stroke="none"/>
    <path d="M-6.45 187.35 L-29.05 183.55 -29.05 218.15 -6.45 223.75 -6.45 187.35" fill="#eaeaea" fill-rule="evenodd" stroke="none"/>
    <path d="M49.75 179.7 L49.65 250.1 50.4 250.1 50.4 179.7 49.75 179.7 M49.65 34.05 L50.4 34.05 50.4 -36.2 49.65 -36.35 49.65 34.05" fill="#171717" fill-rule="evenodd" stroke="none"/>
    <path d="M-6.45 223.75 L-6.05 223.6 -6.05 187.45 -6.45 187.35 -6.45 223.75" fill="#313131" fill-rule="evenodd" stroke="none"/>
    <path d="M50.4 34.05 L49.65 34.05 62.85 44.1 63.65 44.1 50.4 34.05" fill="#060606" fill-rule="evenodd" stroke="none"/>
  </g>
</svg>
