<?xml version="1.0" encoding="UTF-8" standalone="no"?>
<svg xmlns:ffdec="https://www.free-decompiler.com/flash" xmlns:xlink="http://www.w3.org/1999/xlink" ffdec:objectType="shape" height="361.8px" width="491.75px" xmlns="http://www.w3.org/2000/svg">
  <g transform="matrix(1.0, 0.0, 0.0, 1.0, 67.1, 72.6)">
    <path d="M94.75 57.05 L86.4 57.3 82.9 57.05 82.9 -42.8 172.4 -47.95 172.4 -48.55 172.95 -48.65 178.75 -48.3 184.55 -48.65 185.15 -48.55 185.15 -47.95 274.6 -42.8 274.6 57.05 271.15 57.3 270.0 57.15 262.8 57.05 258.1 57.0 257.85 56.5 202.4 47.75 201.45 47.85 201.45 55.9 192.75 55.8 191.45 55.65 166.05 55.65 164.8 55.8 156.05 55.9 156.05 47.85 155.1 47.75 99.7 56.5 99.45 57.0 94.75 57.05 M264.5 156.7 L270.0 156.85 270.75 156.7 274.6 156.7 274.6 256.95 185.15 262.0 185.15 262.7 178.8 262.35 172.4 262.7 172.4 262.0 82.9 256.95 82.9 156.7 86.8 156.7 87.55 156.85 93.05 156.7 94.6 156.95 99.45 157.1 99.45 157.65 155.1 165.8 155.95 165.8 156.05 165.45 156.05 158.0 157.7 158.0 158.6 158.15 170.55 158.2 171.4 158.35 179.55 158.45 180.6 158.35 186.1 158.35 187.0 158.2 198.95 158.15 199.8 158.0 201.45 158.0 201.45 165.45 201.6 165.8 202.4 165.8 258.1 157.65 258.1 157.1 262.9 156.95 264.5 156.7" fill="#e5e5e5" fill-rule="evenodd" stroke="none"/>
    <path d="M39.15 -72.6 L40.45 -72.15 40.45 50.45 39.15 50.4 39.15 -72.6 M155.1 47.75 L156.05 47.85 156.05 55.9 156.05 158.0 156.05 165.45 155.95 165.8 155.1 165.8 155.1 47.75 M201.45 55.9 L201.45 47.85 202.4 47.75 202.4 165.8 201.6 165.8 201.45 165.45 201.45 158.0 201.45 55.9 M317.1 50.45 L317.1 -72.15 318.4 -72.6 318.4 50.35 317.1 50.45" fill="#717171" fill-rule="evenodd" stroke="none"/>
    <path d="M-10.8 51.8 L-10.8 -39.25 39.15 -72.6 39.15 50.4 12.8 56.25 12.4 56.25 12.4 54.85 11.85 54.7 -10.8 51.8 M94.75 57.05 L99.45 57.0 99.7 56.5 155.1 47.75 155.1 165.8 99.45 157.65 99.45 157.1 94.6 156.95 93.05 156.7 86.25 155.55 86.25 58.6 94.75 57.05 M202.4 47.75 L257.85 56.5 258.1 57.0 262.8 57.05 271.3 58.6 271.3 155.55 264.5 156.7 262.9 156.95 258.1 157.1 258.1 157.65 202.4 165.8 202.4 47.75 M318.4 50.35 L318.4 -72.6 368.3 -39.25 368.3 51.8 345.7 54.7 345.1 54.85 345.1 56.25 344.75 56.25 318.4 50.35" fill="#d3d3d3" fill-rule="evenodd" stroke="none"/>
    <path d="M-66.25 168.85 L-67.1 168.75 -67.1 44.5 -66.25 44.35 -66.25 168.85 M423.8 44.35 L424.65 44.5 424.65 168.7 423.8 168.85 423.8 44.35" fill="#ebebeb" fill-rule="evenodd" stroke="none"/>
    <path d="M18.15 55.45 L22.05 56.15 22.05 157.75 7.6 159.65 7.0 158.8 5.65 159.05 5.55 160.0 1.7 160.5 -66.25 168.85 -66.25 44.35 -10.8 51.8 11.85 54.7 12.4 54.85 12.4 56.25 12.8 56.25 13.7 56.4 18.15 55.45 M368.3 51.8 L423.8 44.35 423.8 168.85 355.85 160.5 351.95 160.0 351.85 159.05 350.55 158.8 349.95 159.65 335.5 157.75 335.5 56.1 339.35 55.45 343.85 56.4 344.75 56.25 345.1 56.25 345.1 54.85 345.7 54.7 368.3 51.8" fill="#040404" fill-rule="evenodd" stroke="none"/>
    <path d="M40.45 50.45 L18.15 55.45 13.7 56.4 12.8 56.25 39.15 50.4 40.45 50.45 M317.1 50.45 L318.4 50.35 344.75 56.25 343.85 56.4 339.35 55.45 317.1 50.45" fill="#060606" fill-rule="evenodd" stroke="none"/>
    <path d="M7.6 159.65 L10.65 164.5 9.2 164.6 5.65 159.05 7.0 158.8 7.6 159.65 M346.9 164.45 L349.95 159.65 350.55 158.8 351.85 159.05 348.3 164.6 346.9 164.45" fill="#000000" fill-rule="evenodd" stroke="none"/>
    <path d="M10.65 164.5 L10.65 289.0 9.2 289.2 9.2 164.6 10.65 164.5 M348.3 289.2 L346.9 289.0 346.9 164.45 348.3 164.6 348.3 289.2" fill="#b6b6b6" fill-rule="evenodd" stroke="none"/>
    <path d="M9.2 289.2 L1.7 250.6 1.7 160.5 5.55 160.0 5.65 159.05 9.2 164.6 9.2 289.2 M355.85 160.5 L355.85 250.6 348.3 289.2 348.3 164.6 351.85 159.05 351.95 160.0 355.85 160.5" fill="#9b9b9b" fill-rule="evenodd" stroke="none"/>
  </g>
</svg>
