<?xml version="1.0" encoding="UTF-8" standalone="no"?>
<svg xmlns:ffdec="https://www.free-decompiler.com/flash" xmlns:xlink="http://www.w3.org/1999/xlink" ffdec:objectType="shape" height="351.65px" width="430.95px" xmlns="http://www.w3.org/2000/svg">
  <g transform="matrix(1.0, 0.0, 0.0, 1.0, 36.7, 65.55)">
    <path d="M295.9 52.45 L295.9 -64.95 296.75 -65.55 296.75 52.4 295.9 52.45 M184.85 56.85 L184.85 50.25 185.3 50.0 185.3 163.65 184.85 163.5 184.85 157.1 184.85 56.85" fill="#272727" fill-rule="evenodd" stroke="none"/>
    <path d="M184.85 56.85 L171.05 56.85 171.05 -44.1 271.5 -42.6 271.5 57.15 267.75 57.3 267.65 56.85 185.3 50.0 184.85 50.25 184.85 56.85 M271.5 156.95 L271.5 256.7 171.2 258.2 171.05 157.4 184.15 157.2 184.85 157.1 184.85 163.5 185.3 163.65 267.4 157.25 267.65 156.85 271.5 156.95" fill="#dadada" fill-rule="evenodd" stroke="none"/>
    <path d="M296.75 52.4 L296.75 -65.55 376.05 -42.0 376.05 44.95 348.55 54.5 348.55 57.4 346.8 57.3 345.7 57.15 345.35 57.15 342.1 56.85 341.75 56.85 339.6 56.65 339.2 56.65 337.1 56.4 336.75 56.4 331.0 55.8 330.65 55.8 317.3 54.5 317.2 54.5 304.45 53.2 296.75 52.4 M185.3 50.0 L267.65 56.85 267.75 57.3 271.5 57.15 276.8 57.65 276.8 156.05 276.7 156.6 271.5 156.95 267.65 156.85 267.4 157.25 185.3 163.65 185.3 50.0" fill="#ececec" fill-rule="evenodd" stroke="none"/>
    <path d="M376.05 44.95 L392.75 39.15 392.75 173.95 368.3 166.05 349.8 160.0 349.5 156.7 318.4 162.9 317.6 162.85 346.8 156.95 346.8 57.3 348.55 57.4 348.55 54.5 376.05 44.95" fill="#000000" fill-rule="evenodd" stroke="none"/>
    <path d="M392.75 39.15 L394.25 39.15 394.25 173.55 393.8 173.95 392.75 173.95 392.75 39.15" fill="#e6e6e6" fill-rule="evenodd" stroke="none"/>
    <path d="M318.4 286.1 L317.1 285.75 317.1 162.9 317.6 162.85 318.4 162.9 318.4 286.1" fill="#717171" fill-rule="evenodd" stroke="none"/>
    <path d="M368.3 166.05 L368.3 253.35 318.4 286.1 318.4 162.9 349.5 156.7 349.8 160.0 368.3 166.05" fill="#d3d3d3" fill-rule="evenodd" stroke="none"/>
    <path d="M295.9 52.45 L296.75 52.4 304.45 53.2 295.9 52.45" fill="#060606" fill-rule="evenodd" stroke="none"/>
    <path d="M-35.2 39.15 L-36.7 39.15 -36.7 173.55 -36.25 173.95 -35.2 173.95 -35.2 39.15" fill="#e6e6e6" fill-rule="evenodd" stroke="none"/>
    <path d="M-35.2 173.95 L-10.8 166.05 7.7 160.0 8.05 156.7 39.15 162.95 39.95 162.85 10.75 156.95 10.75 57.3 9.0 57.4 9.0 54.5 -18.55 44.95 -35.2 39.15 -35.2 173.95" fill="#000000" fill-rule="evenodd" stroke="none"/>
    <path d="M10.75 57.3 L11.85 57.2 12.2 57.2 15.45 56.85 15.8 56.85 17.95 56.65 18.3 56.65 20.4 56.4 20.8 56.4 26.55 55.8 26.9 55.8 40.25 54.5 40.3 54.5 53.1 53.2 60.75 52.4 60.75 -65.55 -18.55 -42.0 -18.55 44.95 9.0 54.5 9.0 57.4 10.75 57.3 M86.0 57.2 L80.75 57.65 80.75 156.05 80.8 156.65 86.0 156.95 89.9 156.85 90.15 157.25 172.25 163.65 172.25 50.0 89.9 56.85 89.75 57.3 86.0 57.2" fill="#ececec" fill-rule="evenodd" stroke="none"/>
    <path d="M39.15 286.1 L40.45 285.75 40.45 162.95 39.95 162.85 39.15 162.95 39.15 286.1" fill="#717171" fill-rule="evenodd" stroke="none"/>
    <path d="M-10.8 166.05 L-10.8 253.4 39.15 286.1 39.15 162.95 8.05 156.7 7.7 160.0 -10.8 166.05" fill="#d3d3d3" fill-rule="evenodd" stroke="none"/>
    <path d="M86.0 156.95 L86.0 256.7 186.35 258.2 186.45 157.4 173.35 157.2 172.7 157.1 172.7 163.5 172.25 163.65 90.15 157.25 89.9 156.85 86.0 156.95 M172.7 56.85 L186.45 56.85 186.45 -44.1 86.0 -42.6 86.0 57.2 89.75 57.3 89.9 56.85 172.25 50.0 172.7 50.25 172.7 56.85" fill="#dadada" fill-rule="evenodd" stroke="none"/>
    <path d="M53.1 53.2 L61.65 52.5 60.75 52.4 53.1 53.2" fill="#060606" fill-rule="evenodd" stroke="none"/>
    <path d="M61.65 52.5 L61.65 -64.95 60.75 -65.55 60.75 52.4 61.65 52.5 M172.7 157.1 L172.7 56.85 172.7 50.25 172.25 50.0 172.25 163.65 172.7 163.5 172.7 157.1" fill="#272727" fill-rule="evenodd" stroke="none"/>
  </g>
</svg>
