<?xml version="1.0" encoding="UTF-8" standalone="no"?>
<svg xmlns:ffdec="https://www.free-decompiler.com/flash" xmlns:xlink="http://www.w3.org/1999/xlink" ffdec:objectType="shape" height="307.75px" width="411.4px" xmlns="http://www.w3.org/2000/svg">
  <g transform="matrix(1.0, 0.0, 0.0, 1.0, 26.95, 44.35)">
    <path d="M271.3 57.0 L271.35 -44.1 271.5 -44.35 371.25 -42.8 371.25 50.15 298.8 41.9 297.95 42.25 297.95 57.05 275.0 57.05 271.3 57.0 M270.25 57.05 L271.3 57.05 271.5 57.15 271.5 156.95 270.25 157.1 171.05 157.55 171.05 56.65 270.25 57.05" fill="#dadada" fill-rule="evenodd" stroke="none"/>
    <path d="M171.05 56.65 L170.85 -42.3 270.25 -42.3 270.25 57.05 171.05 56.65 M270.25 157.1 L270.25 256.5 171.05 256.5 170.85 181.9 171.05 157.55 270.25 157.1" fill="#d6d6d6" fill-rule="evenodd" stroke="none"/>
    <path d="M298.8 41.9 L371.25 50.15 384.45 51.65 384.45 162.0 383.9 162.35 374.95 163.3 298.8 171.4 298.8 41.9" fill="#ececec" fill-rule="evenodd" stroke="none"/>
    <path d="M374.95 163.3 L374.95 257.55 275.2 263.4 275.2 157.85 288.85 157.65 289.85 157.55 295.05 157.55 296.15 157.4 297.95 157.4 297.95 170.95 298.05 171.3 298.8 171.4 374.95 163.3" fill="#e5e5e5" fill-rule="evenodd" stroke="none"/>
    <path d="M297.95 57.05 L297.95 42.25 298.8 41.9 298.8 171.4 298.05 171.3 297.95 170.95 297.95 157.4 297.95 57.05" fill="#272727" fill-rule="evenodd" stroke="none"/>
    <path d="M271.3 57.0 L275.0 57.05 271.5 57.15 271.3 57.05 271.3 57.0" fill="#060606" fill-rule="evenodd" stroke="none"/>
    <path d="M-13.75 50.15 L-26.95 51.65 -26.95 162.0 -26.35 162.35 -17.4 163.3 58.7 171.4 58.7 41.9 -13.75 50.15" fill="#ececec" fill-rule="evenodd" stroke="none"/>
    <path d="M-17.4 163.3 L-17.4 257.55 82.3 263.4 82.3 157.85 68.65 157.65 67.65 157.55 62.45 157.55 61.35 157.4 59.6 157.4 59.6 170.95 59.5 171.3 58.7 171.4 -17.4 163.3" fill="#e5e5e5" fill-rule="evenodd" stroke="none"/>
    <path d="M87.3 157.1 L87.3 256.5 186.45 256.5 186.7 181.9 186.45 157.55 87.3 157.1 M186.45 56.65 L186.7 -42.3 87.3 -42.3 87.3 57.05 186.45 56.65" fill="#d6d6d6" fill-rule="evenodd" stroke="none"/>
    <path d="M59.6 157.4 L59.6 57.05 59.6 42.25 58.7 41.9 58.7 171.4 59.5 171.3 59.6 170.95 59.6 157.4" fill="#272727" fill-rule="evenodd" stroke="none"/>
    <path d="M59.6 57.05 L82.55 57.05 86.25 57.0 86.15 -44.1 86.0 -44.3 -13.75 -42.8 -13.75 50.15 58.7 41.9 59.6 42.25 59.6 57.05 M86.0 57.2 L86.0 156.95 87.3 157.1 186.45 157.55 186.45 56.65 87.3 57.05 86.25 57.05 86.0 57.2" fill="#dadada" fill-rule="evenodd" stroke="none"/>
    <path d="M82.55 57.05 L86.0 57.2 86.25 57.05 86.25 57.0 82.55 57.05" fill="#060606" fill-rule="evenodd" stroke="none"/>
  </g>
</svg>
