<?xml version="1.0" encoding="UTF-8" standalone="no"?>
<svg xmlns:ffdec="https://www.free-decompiler.com/flash" xmlns:xlink="http://www.w3.org/1999/xlink" ffdec:objectType="shape" height="298.8px" width="386.85px" xmlns="http://www.w3.org/2000/svg">
  <g transform="matrix(1.0, 0.0, 0.0, 1.0, 14.65, 42.3)">
    <path d="M369.65 157.65 L369.65 256.5 170.85 256.5 170.85 -42.3 369.65 -42.3 369.65 56.5 271.3 55.9 271.3 57.3 270.25 57.3 270.25 156.7 271.3 156.7 271.3 158.15 369.65 157.65" fill="#d6d6d6" fill-rule="evenodd" stroke="none"/>
    <path d="M369.65 157.65 L271.3 158.15 271.3 156.7 271.3 57.3 271.3 55.9 369.65 56.5 372.2 56.5 372.2 157.65 369.65 157.65" fill="#dadada" fill-rule="evenodd" stroke="none"/>
    <path d="M-12.1 56.5 L-14.65 56.5 -14.65 157.65 -12.1 157.65 86.25 158.15 86.25 156.7 86.25 57.3 86.25 55.9 -12.1 56.5" fill="#dadada" fill-rule="evenodd" stroke="none"/>
    <path d="M-12.1 56.5 L86.25 55.9 86.25 57.3 87.3 57.3 87.3 156.7 86.25 156.7 86.25 158.15 -12.1 157.65 -12.1 256.5 186.7 256.5 186.7 -42.3 -12.1 -42.3 -12.1 56.5" fill="#d6d6d6" fill-rule="evenodd" stroke="none"/>
  </g>
</svg>
