<?xml version="1.0" encoding="UTF-8" standalone="no"?>
<svg xmlns:ffdec="https://www.free-decompiler.com/flash" xmlns:xlink="http://www.w3.org/1999/xlink" ffdec:objectType="shape" height="91.1px" width="231.25px" xmlns="http://www.w3.org/2000/svg">
  <g transform="matrix(1.0, 0.0, 0.0, 1.0, -321.0, -346.55)">
    <path d="M349.2 367.05 Q347.35 367.5 346.05 368.35 344.7 369.3 344.6 370.9 344.6 371.6 345.25 372.0 L346.9 372.65 348.8 373.05 350.45 373.25 354.55 374.15 356.0 374.5 Q358.55 375.05 360.9 376.0 363.65 377.3 366.6 378.9 369.5 380.55 371.95 382.85 374.3 385.25 375.9 388.5 377.45 391.8 377.65 396.3 377.9 402.7 375.6 407.6 373.2 412.55 368.95 415.9 364.7 419.3 358.7 421.15 352.75 423.0 345.95 423.25 L339.5 422.95 333.0 421.7 Q329.75 420.95 326.7 419.8 323.7 418.7 321.0 417.4 L327.8 398.2 331.0 399.55 Q332.9 400.45 335.0 401.15 337.15 401.9 339.5 402.45 L344.05 402.85 Q347.35 402.7 349.7 401.7 352.0 400.7 351.9 398.35 351.8 396.8 350.3 396.0 L346.75 394.4 343.25 393.4 338.55 391.65 Q336.05 390.55 333.5 389.05 330.95 387.5 328.8 385.35 326.7 383.15 325.35 380.3 323.95 377.45 323.85 373.75 323.7 367.4 326.0 362.5 328.35 357.55 332.35 354.1 336.4 350.6 341.75 348.75 347.1 346.9 353.25 346.6 L364.5 347.25 Q370.1 348.05 374.9 350.1 L369.6 371.15 Q366.0 369.6 363.05 368.6 360.05 367.55 356.1 367.0 L352.95 366.65 349.2 367.05 M401.3 368.6 L408.8 367.55 407.75 383.9 401.65 383.9 401.65 399.75 Q401.65 402.45 402.4 403.35 403.2 404.3 405.9 404.3 L407.75 404.2 409.15 403.9 405.95 421.6 403.25 421.8 400.4 421.85 Q391.7 421.85 386.8 417.95 382.0 414.05 382.0 405.2 L382.0 383.9 376.85 383.95 377.4 368.6 381.6 368.6 381.6 362.7 401.3 354.0 401.3 368.6 M433.95 386.3 Q429.75 388.1 428.15 391.25 426.6 394.45 428.05 397.85 429.55 401.35 432.85 402.45 436.2 403.55 440.4 401.75 444.6 399.9 446.15 396.8 447.7 393.7 446.3 390.2 444.75 386.8 441.45 385.65 438.1 384.55 433.95 386.3 M445.1 367.25 Q450.55 368.4 454.85 371.45 459.15 374.45 462.05 379.25 464.9 383.95 465.8 390.2 466.7 396.4 465.25 401.75 463.75 407.15 460.45 411.2 457.15 415.3 452.3 417.95 447.35 420.6 441.35 421.4 L429.85 421.05 Q424.35 419.9 420.0 416.9 415.7 413.85 412.85 409.15 409.95 404.4 409.15 398.2 408.2 392.0 409.7 386.65 411.2 381.3 414.5 377.15 417.75 373.0 422.65 370.35 427.6 367.7 433.6 366.9 L445.1 367.25 M503.85 370.45 L523.15 368.05 529.15 387.9 529.35 387.9 533.7 368.05 552.25 369.7 533.0 437.65 512.65 436.05 520.4 414.85 503.7 371.0 499.85 386.8 498.45 386.7 496.65 386.7 Q492.9 386.7 490.15 389.2 487.4 391.65 487.4 397.0 L487.4 420.25 468.4 421.85 467.9 369.0 486.0 367.35 486.0 377.35 486.2 377.35 Q488.75 367.35 499.9 367.35 L504.5 367.7 503.85 370.45" fill="#00ff00" fill-rule="evenodd" stroke="none"/>
  </g>
</svg>
