<?xml version="1.0" encoding="UTF-8" standalone="no"?>
<svg xmlns:ffdec="https://www.free-decompiler.com/flash" xmlns:xlink="http://www.w3.org/1999/xlink" ffdec:objectType="shape" height="44.0px" width="717.0px" xmlns="http://www.w3.org/2000/svg">
  <g transform="matrix(1.0, 0.0, 0.0, 1.0, 0.0, 0.0)">
    <path d="M705.95 38.0 L706.0 38.0 Q710.05 38.0 713.05 35.45 714.05 36.7 714.0 38.2 713.95 40.7 711.2 42.35 708.45 44.0 705.95 44.0 L705.95 43.0 705.95 38.0" fill="url(#gradient0)" fill-rule="evenodd" stroke="none"/>
    <path d="M705.95 38.0 L705.95 43.0 613.9 43.0 613.9 38.0 705.95 38.0" fill="url(#gradient1)" fill-rule="evenodd" stroke="none"/>
    <path d="M613.9 43.0 L562.9 43.0 562.9 38.0 613.9 38.0 613.9 43.0" fill="url(#gradient2)" fill-rule="evenodd" stroke="none"/>
    <path d="M562.9 43.0 L482.95 43.0 482.95 38.0 562.9 38.0 562.9 43.0" fill="url(#gradient3)" fill-rule="evenodd" stroke="none"/>
    <path d="M482.95 43.0 L268.0 43.0 268.0 38.0 482.95 38.0 482.95 43.0" fill="url(#gradient4)" fill-rule="evenodd" stroke="none"/>
    <path d="M268.0 43.0 L137.0 43.0 137.0 38.0 268.0 38.0 268.0 43.0" fill="url(#gradient5)" fill-rule="evenodd" stroke="none"/>
    <path d="M137.0 43.0 L11.0 43.0 11.0 38.0 137.0 38.0 137.0 43.0" fill="url(#gradient6)" fill-rule="evenodd" stroke="none"/>
    <path d="M0.0 16.0 L0.0 15.2 0.0 16.75 0.0 16.0" fill="#cc6666" fill-rule="evenodd" stroke="none"/>
    <path d="M11.0 43.0 L11.0 44.0 Q8.5 44.0 5.75 42.35 3.0 40.7 2.95 38.2 2.9 36.7 3.95 35.45 6.9 38.0 11.0 38.0 L11.0 43.0" fill="url(#gradient7)" fill-rule="evenodd" stroke="none"/>
    <path d="M10.95 1.0 L706.05 1.0 715.95 1.0 716.0 11.05 715.95 25.6 715.95 27.0 715.9 28.1 Q715.55 31.55 713.05 34.1 710.1 36.95 705.95 37.0 L11.0 37.0 Q6.85 36.95 3.9 34.1 1.4 31.55 1.05 28.1 L1.0 27.0 1.0 10.95 1.0 1.0 10.95 1.0" fill="#ffffff" fill-opacity="0.2" fill-rule="evenodd" stroke="none"/>
    <path d="M10.95 0.05 L706.05 0.0 716.95 0.0 716.95 0.95 717.0 0.95 717.0 10.95 717.0 13.3 716.95 13.3 716.95 27.05 716.9 28.1 Q716.55 32.0 713.75 34.8 710.55 37.95 705.95 38.0 L11.0 38.0 Q6.4 38.0 3.2 34.8 0.4 32.0 0.05 28.1 L0.0 27.05 0.0 10.95 0.0 0.05 10.95 0.05 M10.95 1.05 L1.0 1.05 1.05 10.95 1.05 11.05 1.0 11.05 1.0 13.15 1.0 14.05 1.0 14.95 1.0 23.15 1.0 24.0 1.0 24.9 1.0 27.05 1.05 28.1 Q1.35 31.6 3.9 34.1 6.8 36.95 11.0 37.0 L705.95 37.0 Q710.15 36.95 713.05 34.1 715.6 31.6 715.9 28.1 L715.95 27.05 715.9 10.95 715.9 10.05 716.0 10.05 715.95 1.0 706.05 1.0 14.85 1.05 14.0 1.05 13.15 1.05 10.95 1.05" fill="#000000" fill-opacity="0.2" fill-rule="evenodd" stroke="none"/>
  </g>
  <defs>
    <radialGradient cx="0" cy="0" gradientTransform="matrix(-0.0098, 0.0, 0.0, 0.0082, 705.95, 37.0)" gradientUnits="userSpaceOnUse" id="gradient0" r="819.2" spreadMethod="pad">
      <stop offset="0.0" stop-color="#000000" stop-opacity="0.2"/>
      <stop offset="1.0" stop-color="#000000" stop-opacity="0.0"/>
    </radialGradient>
    <linearGradient gradientTransform="matrix(0.0, -0.0061, 0.0098, 0.0, 369.0, 38.0)" gradientUnits="userSpaceOnUse" id="gradient1" spreadMethod="pad" x1="-819.2" x2="819.2">
      <stop offset="0.0" stop-color="#000000" stop-opacity="0.0"/>
      <stop offset="1.0" stop-color="#000000" stop-opacity="0.3529412"/>
    </linearGradient>
    <linearGradient gradientTransform="matrix(0.0, -0.0061, 0.0098, 0.0, 438.0, 38.0)" gradientUnits="userSpaceOnUse" id="gradient2" spreadMethod="pad" x1="-819.2" x2="819.2">
      <stop offset="0.0" stop-color="#000000" stop-opacity="0.0"/>
      <stop offset="1.0" stop-color="#000000" stop-opacity="0.3529412"/>
    </linearGradient>
    <linearGradient gradientTransform="matrix(0.0, -0.0061, 0.0098, 0.0, 439.0, 38.0)" gradientUnits="userSpaceOnUse" id="gradient3" spreadMethod="pad" x1="-819.2" x2="819.2">
      <stop offset="0.0" stop-color="#000000" stop-opacity="0.0"/>
      <stop offset="1.0" stop-color="#000000" stop-opacity="0.3529412"/>
    </linearGradient>
    <linearGradient gradientTransform="matrix(0.0, -0.0061, 0.0098, 0.0, 359.0, 38.0)" gradientUnits="userSpaceOnUse" id="gradient4" spreadMethod="pad" x1="-819.2" x2="819.2">
      <stop offset="0.0" stop-color="#000000" stop-opacity="0.0"/>
      <stop offset="1.0" stop-color="#000000" stop-opacity="0.3529412"/>
    </linearGradient>
    <linearGradient gradientTransform="matrix(0.0, -0.0061, 0.0098, 0.0, 333.05, 38.0)" gradientUnits="userSpaceOnUse" id="gradient5" spreadMethod="pad" x1="-819.2" x2="819.2">
      <stop offset="0.0" stop-color="#000000" stop-opacity="0.0"/>
      <stop offset="1.0" stop-color="#000000" stop-opacity="0.3529412"/>
    </linearGradient>
    <linearGradient gradientTransform="matrix(0.0, -0.0061, 0.0098, 0.0, 349.0, 38.0)" gradientUnits="userSpaceOnUse" id="gradient6" spreadMethod="pad" x1="-819.2" x2="819.2">
      <stop offset="0.0" stop-color="#000000" stop-opacity="0.0"/>
      <stop offset="1.0" stop-color="#000000" stop-opacity="0.3529412"/>
    </linearGradient>
    <radialGradient cx="0" cy="0" gradientTransform="matrix(0.0098, 0.0, 0.0, 0.0082, 11.0, 37.0)" gradientUnits="userSpaceOnUse" id="gradient7" r="819.2" spreadMethod="pad">
      <stop offset="0.0" stop-color="#000000" stop-opacity="0.2"/>
      <stop offset="1.0" stop-color="#000000" stop-opacity="0.0"/>
    </radialGradient>
  </defs>
</svg>
