<?xml version="1.0" encoding="UTF-8" standalone="no"?>
<svg xmlns:ffdec="https://www.free-decompiler.com/flash" xmlns:xlink="http://www.w3.org/1999/xlink" ffdec:objectType="shape" height="11.0px" width="11.0px" xmlns="http://www.w3.org/2000/svg">
  <g transform="matrix(1.0, 0.0, 0.0, 1.0, 0.0, 0.0)">
    <path d="M8.0 0.0 L8.0 1.0 9.0 1.0 9.0 2.0 10.0 2.0 10.0 3.0 11.0 3.0 11.0 8.0 10.0 8.0 10.0 9.0 9.0 9.0 9.0 10.0 8.0 10.0 8.0 11.0 6.0 11.0 6.0 10.0 8.0 10.0 8.0 9.0 9.0 9.0 9.0 8.0 10.0 8.0 10.0 3.0 9.0 3.0 9.0 2.0 8.0 2.0 8.0 1.0 6.0 1.0 6.0 0.0 8.0 0.0 M7.0 3.0 L8.0 3.0 8.0 4.0 9.0 4.0 9.0 7.0 8.0 7.0 8.0 8.0 7.0 8.0 7.0 9.0 6.0 9.0 6.0 8.0 7.0 8.0 7.0 7.0 8.0 7.0 8.0 4.0 7.0 4.0 7.0 3.0 6.0 3.0 6.0 2.0 7.0 2.0 7.0 3.0 M2.0 4.0 L2.0 3.0 3.0 3.0 3.0 2.0 4.0 2.0 4.0 1.0 5.0 1.0 5.0 10.0 4.0 10.0 4.0 9.0 3.0 9.0 3.0 8.0 2.0 8.0 2.0 7.0 0.0 7.0 0.0 4.0 2.0 4.0" fill="#ffffff" fill-opacity="0.6509804" fill-rule="evenodd" stroke="none"/>
  </g>
</svg>
