<?xml version="1.0" encoding="UTF-8" standalone="no"?>
<svg xmlns:ffdec="https://www.free-decompiler.com/flash" xmlns:xlink="http://www.w3.org/1999/xlink" ffdec:objectType="shape" height="7.5px" width="2095.7px" xmlns="http://www.w3.org/2000/svg">
  <g transform="matrix(1.0, 0.0, 0.0, 1.0, -2.0, -0.45)">
    <path d="M97.0 2.95 L96.0 2.95 96.0 3.95 95.0 3.95 95.0 4.95 94.0 4.95 94.0 5.95 93.0 5.95 93.0 6.95 92.0 6.95 92.0 7.95 82.0 7.95 82.0 6.95 83.0 6.95 83.0 5.95 84.0 5.95 84.0 4.95 85.0 4.95 85.0 3.95 86.0 3.95 86.0 2.95 87.0 2.95 87.0 1.95 88.0 1.95 88.0 0.95 98.0 0.95 98.0 1.95 97.0 1.95 97.0 2.95 M76.0 3.95 L75.0 3.95 75.0 4.95 74.0 4.95 74.0 5.95 73.0 5.95 73.0 6.95 72.0 6.95 72.0 7.95 62.0 7.95 62.0 6.95 63.0 6.95 63.0 5.95 64.0 5.95 64.0 4.95 65.0 4.95 65.0 3.95 66.0 3.95 66.0 2.95 67.0 2.95 67.0 1.95 68.0 1.95 68.0 0.95 78.0 0.95 78.0 1.95 77.0 1.95 77.0 2.95 76.0 2.95 76.0 3.95 M57.0 2.95 L56.0 2.95 56.0 3.95 55.0 3.95 55.0 4.95 54.0 4.95 54.0 5.95 53.0 5.95 53.0 6.95 52.0 6.95 52.0 7.95 42.0 7.95 42.0 6.95 43.0 6.95 43.0 5.95 44.0 5.95 44.0 4.95 45.0 4.95 45.0 3.95 46.0 3.95 46.0 2.95 47.0 2.95 47.0 1.95 48.0 1.95 48.0 0.95 58.0 0.95 58.0 1.95 57.0 1.95 57.0 2.95 M37.0 2.95 L36.0 2.95 36.0 3.95 35.0 3.95 35.0 4.95 34.0 4.95 34.0 5.95 33.0 5.95 33.0 6.95 32.0 6.95 32.0 7.95 22.0 7.95 22.0 6.95 23.0 6.95 23.0 5.95 24.0 5.95 24.0 4.95 25.0 4.95 25.0 3.95 26.0 3.95 26.0 2.95 27.0 2.95 27.0 1.95 28.0 1.95 28.0 0.95 38.0 0.95 38.0 1.95 37.0 1.95 37.0 2.95 M16.0 3.95 L15.0 3.95 15.0 4.95 14.0 4.95 14.0 5.95 13.0 5.95 13.0 6.95 12.0 6.95 12.0 7.95 2.0 7.95 2.0 6.95 3.0 6.95 3.0 5.95 4.0 5.95 4.0 4.95 5.0 4.95 5.0 3.95 6.0 3.95 6.0 2.95 7.0 2.95 7.0 1.95 8.0 1.95 8.0 0.95 18.0 0.95 18.0 1.95 17.0 1.95 17.0 2.95 16.0 2.95 16.0 3.95" fill="#00ff00" fill-opacity="0.6509804" fill-rule="evenodd" stroke="none"/>
    <path d="M197.0 2.95 L196.0 2.95 196.0 3.95 195.0 3.95 195.0 4.95 194.0 4.95 194.0 5.95 193.0 5.95 193.0 6.95 192.0 6.95 192.0 7.95 182.0 7.95 182.0 6.95 183.0 6.95 183.0 5.95 184.0 5.95 184.0 4.95 185.0 4.95 185.0 3.95 186.0 3.95 186.0 2.95 187.0 2.95 187.0 1.95 188.0 1.95 188.0 0.95 198.0 0.95 198.0 1.95 197.0 1.95 197.0 2.95 M176.0 3.95 L175.0 3.95 175.0 4.95 174.0 4.95 174.0 5.95 173.0 5.95 173.0 6.95 172.0 6.95 172.0 7.95 162.0 7.95 162.0 6.95 163.0 6.95 163.0 5.95 164.0 5.95 164.0 4.95 165.0 4.95 165.0 3.95 166.0 3.95 166.0 2.95 167.0 2.95 167.0 1.95 168.0 1.95 168.0 0.95 178.0 0.95 178.0 1.95 177.0 1.95 177.0 2.95 176.0 2.95 176.0 3.95 M157.0 2.95 L156.0 2.95 156.0 3.95 155.0 3.95 155.0 4.95 154.0 4.95 154.0 5.95 153.0 5.95 153.0 6.95 152.0 6.95 152.0 7.95 142.0 7.95 142.0 6.95 143.0 6.95 143.0 5.95 144.0 5.95 144.0 4.95 145.0 4.95 145.0 3.95 146.0 3.95 146.0 2.95 147.0 2.95 147.0 1.95 148.0 1.95 148.0 0.95 158.0 0.95 158.0 1.95 157.0 1.95 157.0 2.95 M137.0 2.95 L136.0 2.95 136.0 3.95 135.0 3.95 135.0 4.95 134.0 4.95 134.0 5.95 133.0 5.95 133.0 6.95 132.0 6.95 132.0 7.95 122.0 7.95 122.0 6.95 123.0 6.95 123.0 5.95 124.0 5.95 124.0 4.95 125.0 4.95 125.0 3.95 126.0 3.95 126.0 2.95 127.0 2.95 127.0 1.95 128.0 1.95 128.0 0.95 138.0 0.95 138.0 1.95 137.0 1.95 137.0 2.95 M116.0 3.95 L115.0 3.95 115.0 4.95 114.0 4.95 114.0 5.95 113.0 5.95 113.0 6.95 112.0 6.95 112.0 7.95 102.0 7.95 102.0 6.95 103.0 6.95 103.0 5.95 104.0 5.95 104.0 4.95 105.0 4.95 105.0 3.95 106.0 3.95 106.0 2.95 107.0 2.95 107.0 1.95 108.0 1.95 108.0 0.95 118.0 0.95 118.0 1.95 117.0 1.95 117.0 2.95 116.0 2.95 116.0 3.95" fill="#00ff00" fill-opacity="0.6509804" fill-rule="evenodd" stroke="none"/>
    <path d="M297.0 2.5 L296.0 2.5 296.0 3.5 295.0 3.5 295.0 4.5 294.0 4.5 294.0 5.5 293.0 5.5 293.0 6.5 292.0 6.5 292.0 7.5 282.0 7.5 282.0 6.5 283.0 6.5 283.0 5.5 284.0 5.5 284.0 4.5 285.0 4.5 285.0 3.5 286.0 3.5 286.0 2.5 287.0 2.5 287.0 1.5 288.0 1.5 288.0 0.5 298.0 0.5 298.0 1.5 297.0 1.5 297.0 2.5 M276.0 3.5 L275.0 3.5 275.0 4.5 274.0 4.5 274.0 5.5 273.0 5.5 273.0 6.5 272.0 6.5 272.0 7.5 262.0 7.5 262.0 6.5 263.0 6.5 263.0 5.5 264.0 5.5 264.0 4.5 265.0 4.5 265.0 3.5 266.0 3.5 266.0 2.5 267.0 2.5 267.0 1.5 268.0 1.5 268.0 0.5 278.0 0.5 278.0 1.5 277.0 1.5 277.0 2.5 276.0 2.5 276.0 3.5 M257.0 2.5 L256.0 2.5 256.0 3.5 255.0 3.5 255.0 4.5 254.0 4.5 254.0 5.5 253.0 5.5 253.0 6.5 252.0 6.5 252.0 7.5 242.0 7.5 242.0 6.5 243.0 6.5 243.0 5.5 244.0 5.5 244.0 4.5 245.0 4.5 245.0 3.5 246.0 3.5 246.0 2.5 247.0 2.5 247.0 1.5 248.0 1.5 248.0 0.5 258.0 0.5 258.0 1.5 257.0 1.5 257.0 2.5 M237.0 2.5 L236.0 2.5 236.0 3.5 235.0 3.5 235.0 4.5 234.0 4.5 234.0 5.5 233.0 5.5 233.0 6.5 232.0 6.5 232.0 7.5 222.0 7.5 222.0 6.5 223.0 6.5 223.0 5.5 224.0 5.5 224.0 4.5 225.0 4.5 225.0 3.5 226.0 3.5 226.0 2.5 227.0 2.5 227.0 1.5 228.0 1.5 228.0 0.5 238.0 0.5 238.0 1.5 237.0 1.5 237.0 2.5 M216.0 3.5 L215.0 3.5 215.0 4.5 214.0 4.5 214.0 5.5 213.0 5.5 213.0 6.5 212.0 6.5 212.0 7.5 202.0 7.5 202.0 6.5 203.0 6.5 203.0 5.5 204.0 5.5 204.0 4.5 205.0 4.5 205.0 3.5 206.0 3.5 206.0 2.5 207.0 2.5 207.0 1.5 208.0 1.5 208.0 0.5 218.0 0.5 218.0 1.5 217.0 1.5 217.0 2.5 216.0 2.5 216.0 3.5" fill="#00ff00" fill-opacity="0.6509804" fill-rule="evenodd" stroke="none"/>
    <path d="M396.7 2.45 L395.7 2.45 395.7 3.45 394.7 3.45 394.7 4.45 393.7 4.45 393.7 5.45 392.7 5.45 392.7 6.45 391.7 6.45 391.7 7.45 381.7 7.45 381.7 6.45 382.7 6.45 382.7 5.45 383.7 5.45 383.7 4.45 384.7 4.45 384.7 3.45 385.7 3.45 385.7 2.45 386.7 2.45 386.7 1.45 387.7 1.45 387.7 0.45 397.7 0.45 397.7 1.45 396.7 1.45 396.7 2.45 M375.7 3.45 L374.7 3.45 374.7 4.45 373.7 4.45 373.7 5.45 372.7 5.45 372.7 6.45 371.7 6.45 371.7 7.45 361.7 7.45 361.7 6.45 362.7 6.45 362.7 5.45 363.7 5.45 363.7 4.45 364.7 4.45 364.7 3.45 365.7 3.45 365.7 2.45 366.7 2.45 366.7 1.45 367.7 1.45 367.7 0.45 377.7 0.45 377.7 1.45 376.7 1.45 376.7 2.45 375.7 2.45 375.7 3.45 M356.7 2.45 L355.7 2.45 355.7 3.45 354.7 3.45 354.7 4.45 353.7 4.45 353.7 5.45 352.7 5.45 352.7 6.45 351.7 6.45 351.7 7.45 341.7 7.45 341.7 6.45 342.7 6.45 342.7 5.45 343.7 5.45 343.7 4.45 344.7 4.45 344.7 3.45 345.7 3.45 345.7 2.45 346.7 2.45 346.7 1.45 347.7 1.45 347.7 0.45 357.7 0.45 357.7 1.45 356.7 1.45 356.7 2.45 M336.7 2.45 L335.7 2.45 335.7 3.45 334.7 3.45 334.7 4.45 333.7 4.45 333.7 5.45 332.7 5.45 332.7 6.45 331.7 6.45 331.7 7.45 321.7 7.45 321.7 6.45 322.7 6.45 322.7 5.45 323.7 5.45 323.7 4.45 324.7 4.45 324.7 3.45 325.7 3.45 325.7 2.45 326.7 2.45 326.7 1.45 327.7 1.45 327.7 0.45 337.7 0.45 337.7 1.45 336.7 1.45 336.7 2.45 M315.7 3.45 L314.7 3.45 314.7 4.45 313.7 4.45 313.7 5.45 312.7 5.45 312.7 6.45 311.7 6.45 311.7 7.45 301.7 7.45 301.7 6.45 302.7 6.45 302.7 5.45 303.7 5.45 303.7 4.45 304.7 4.45 304.7 3.45 305.7 3.45 305.7 2.45 306.7 2.45 306.7 1.45 307.7 1.45 307.7 0.45 317.7 0.45 317.7 1.45 316.7 1.45 316.7 2.45 315.7 2.45 315.7 3.45" fill="#00ff00" fill-opacity="0.6509804" fill-rule="evenodd" stroke="none"/>
    <path d="M496.7 2.45 L495.7 2.45 495.7 3.45 494.7 3.45 494.7 4.45 493.7 4.45 493.7 5.45 492.7 5.45 492.7 6.45 491.7 6.45 491.7 7.45 481.7 7.45 481.7 6.45 482.7 6.45 482.7 5.45 483.7 5.45 483.7 4.45 484.7 4.45 484.7 3.45 485.7 3.45 485.7 2.45 486.7 2.45 486.7 1.45 487.7 1.45 487.7 0.45 497.7 0.45 497.7 1.45 496.7 1.45 496.7 2.45 M475.7 3.45 L474.7 3.45 474.7 4.45 473.7 4.45 473.7 5.45 472.7 5.45 472.7 6.45 471.7 6.45 471.7 7.45 461.7 7.45 461.7 6.45 462.7 6.45 462.7 5.45 463.7 5.45 463.7 4.45 464.7 4.45 464.7 3.45 465.7 3.45 465.7 2.45 466.7 2.45 466.7 1.45 467.7 1.45 467.7 0.45 477.7 0.45 477.7 1.45 476.7 1.45 476.7 2.45 475.7 2.45 475.7 3.45 M456.7 2.45 L455.7 2.45 455.7 3.45 454.7 3.45 454.7 4.45 453.7 4.45 453.7 5.45 452.7 5.45 452.7 6.45 451.7 6.45 451.7 7.45 441.7 7.45 441.7 6.45 442.7 6.45 442.7 5.45 443.7 5.45 443.7 4.45 444.7 4.45 444.7 3.45 445.7 3.45 445.7 2.45 446.7 2.45 446.7 1.45 447.7 1.45 447.7 0.45 457.7 0.45 457.7 1.45 456.7 1.45 456.7 2.45 M436.7 2.45 L435.7 2.45 435.7 3.45 434.7 3.45 434.7 4.45 433.7 4.45 433.7 5.45 432.7 5.45 432.7 6.45 431.7 6.45 431.7 7.45 421.7 7.45 421.7 6.45 422.7 6.45 422.7 5.45 423.7 5.45 423.7 4.45 424.7 4.45 424.7 3.45 425.7 3.45 425.7 2.45 426.7 2.45 426.7 1.45 427.7 1.45 427.7 0.45 437.7 0.45 437.7 1.45 436.7 1.45 436.7 2.45 M415.7 3.45 L414.7 3.45 414.7 4.45 413.7 4.45 413.7 5.45 412.7 5.45 412.7 6.45 411.7 6.45 411.7 7.45 401.7 7.45 401.7 6.45 402.7 6.45 402.7 5.45 403.7 5.45 403.7 4.45 404.7 4.45 404.7 3.45 405.7 3.45 405.7 2.45 406.7 2.45 406.7 1.45 407.7 1.45 407.7 0.45 417.7 0.45 417.7 1.45 416.7 1.45 416.7 2.45 415.7 2.45 415.7 3.45" fill="#00ff00" fill-opacity="0.6509804" fill-rule="evenodd" stroke="none"/>
    <path d="M596.7 2.5 L595.7 2.5 595.7 3.5 594.7 3.5 594.7 4.5 593.7 4.5 593.7 5.5 592.7 5.5 592.7 6.5 591.7 6.5 591.7 7.5 581.7 7.5 581.7 6.5 582.7 6.5 582.7 5.5 583.7 5.5 583.7 4.5 584.7 4.5 584.7 3.5 585.7 3.5 585.7 2.5 586.7 2.5 586.7 1.5 587.7 1.5 587.7 0.5 597.7 0.5 597.7 1.5 596.7 1.5 596.7 2.5 M575.7 3.5 L574.7 3.5 574.7 4.5 573.7 4.5 573.7 5.5 572.7 5.5 572.7 6.5 571.7 6.5 571.7 7.5 561.7 7.5 561.7 6.5 562.7 6.5 562.7 5.5 563.7 5.5 563.7 4.5 564.7 4.5 564.7 3.5 565.7 3.5 565.7 2.5 566.7 2.5 566.7 1.5 567.7 1.5 567.7 0.5 577.7 0.5 577.7 1.5 576.7 1.5 576.7 2.5 575.7 2.5 575.7 3.5 M556.7 2.5 L555.7 2.5 555.7 3.5 554.7 3.5 554.7 4.5 553.7 4.5 553.7 5.5 552.7 5.5 552.7 6.5 551.7 6.5 551.7 7.5 541.7 7.5 541.7 6.5 542.7 6.5 542.7 5.5 543.7 5.5 543.7 4.5 544.7 4.5 544.7 3.5 545.7 3.5 545.7 2.5 546.7 2.5 546.7 1.5 547.7 1.5 547.7 0.5 557.7 0.5 557.7 1.5 556.7 1.5 556.7 2.5 M536.7 2.5 L535.7 2.5 535.7 3.5 534.7 3.5 534.7 4.5 533.7 4.5 533.7 5.5 532.7 5.5 532.7 6.5 531.7 6.5 531.7 7.5 521.7 7.5 521.7 6.5 522.7 6.5 522.7 5.5 523.7 5.5 523.7 4.5 524.7 4.5 524.7 3.5 525.7 3.5 525.7 2.5 526.7 2.5 526.7 1.5 527.7 1.5 527.7 0.5 537.7 0.5 537.7 1.5 536.7 1.5 536.7 2.5 M515.7 3.5 L514.7 3.5 514.7 4.5 513.7 4.5 513.7 5.5 512.7 5.5 512.7 6.5 511.7 6.5 511.7 7.5 501.7 7.5 501.7 6.5 502.7 6.5 502.7 5.5 503.7 5.5 503.7 4.5 504.7 4.5 504.7 3.5 505.7 3.5 505.7 2.5 506.7 2.5 506.7 1.5 507.7 1.5 507.7 0.5 517.7 0.5 517.7 1.5 516.7 1.5 516.7 2.5 515.7 2.5 515.7 3.5" fill="#00ff00" fill-opacity="0.6509804" fill-rule="evenodd" stroke="none"/>
    <path d="M696.7 2.5 L695.7 2.5 695.7 3.5 694.7 3.5 694.7 4.5 693.7 4.5 693.7 5.5 692.7 5.5 692.7 6.5 691.7 6.5 691.7 7.5 681.7 7.5 681.7 6.5 682.7 6.5 682.7 5.5 683.7 5.5 683.7 4.5 684.7 4.5 684.7 3.5 685.7 3.5 685.7 2.5 686.7 2.5 686.7 1.5 687.7 1.5 687.7 0.5 697.7 0.5 697.7 1.5 696.7 1.5 696.7 2.5 M675.7 3.5 L674.7 3.5 674.7 4.5 673.7 4.5 673.7 5.5 672.7 5.5 672.7 6.5 671.7 6.5 671.7 7.5 661.7 7.5 661.7 6.5 662.7 6.5 662.7 5.5 663.7 5.5 663.7 4.5 664.7 4.5 664.7 3.5 665.7 3.5 665.7 2.5 666.7 2.5 666.7 1.5 667.7 1.5 667.7 0.5 677.7 0.5 677.7 1.5 676.7 1.5 676.7 2.5 675.7 2.5 675.7 3.5 M656.7 2.5 L655.7 2.5 655.7 3.5 654.7 3.5 654.7 4.5 653.7 4.5 653.7 5.5 652.7 5.5 652.7 6.5 651.7 6.5 651.7 7.5 641.7 7.5 641.7 6.5 642.7 6.5 642.7 5.5 643.7 5.5 643.7 4.5 644.7 4.5 644.7 3.5 645.7 3.5 645.7 2.5 646.7 2.5 646.7 1.5 647.7 1.5 647.7 0.5 657.7 0.5 657.7 1.5 656.7 1.5 656.7 2.5 M636.7 2.5 L635.7 2.5 635.7 3.5 634.7 3.5 634.7 4.5 633.7 4.5 633.7 5.5 632.7 5.5 632.7 6.5 631.7 6.5 631.7 7.5 621.7 7.5 621.7 6.5 622.7 6.5 622.7 5.5 623.7 5.5 623.7 4.5 624.7 4.5 624.7 3.5 625.7 3.5 625.7 2.5 626.7 2.5 626.7 1.5 627.7 1.5 627.7 0.5 637.7 0.5 637.7 1.5 636.7 1.5 636.7 2.5 M615.7 3.5 L614.7 3.5 614.7 4.5 613.7 4.5 613.7 5.5 612.7 5.5 612.7 6.5 611.7 6.5 611.7 7.5 601.7 7.5 601.7 6.5 602.7 6.5 602.7 5.5 603.7 5.5 603.7 4.5 604.7 4.5 604.7 3.5 605.7 3.5 605.7 2.5 606.7 2.5 606.7 1.5 607.7 1.5 607.7 0.5 617.7 0.5 617.7 1.5 616.7 1.5 616.7 2.5 615.7 2.5 615.7 3.5" fill="#00ff00" fill-opacity="0.6509804" fill-rule="evenodd" stroke="none"/>
    <path d="M796.7 2.5 L795.7 2.5 795.7 3.5 794.7 3.5 794.7 4.5 793.7 4.5 793.7 5.5 792.7 5.5 792.7 6.5 791.7 6.5 791.7 7.5 781.7 7.5 781.7 6.5 782.7 6.5 782.7 5.5 783.7 5.5 783.7 4.5 784.7 4.5 784.7 3.5 785.7 3.5 785.7 2.5 786.7 2.5 786.7 1.5 787.7 1.5 787.7 0.5 797.7 0.5 797.7 1.5 796.7 1.5 796.7 2.5 M775.7 3.5 L774.7 3.5 774.7 4.5 773.7 4.5 773.7 5.5 772.7 5.5 772.7 6.5 771.7 6.5 771.7 7.5 761.7 7.5 761.7 6.5 762.7 6.5 762.7 5.5 763.7 5.5 763.7 4.5 764.7 4.5 764.7 3.5 765.7 3.5 765.7 2.5 766.7 2.5 766.7 1.5 767.7 1.5 767.7 0.5 777.7 0.5 777.7 1.5 776.7 1.5 776.7 2.5 775.7 2.5 775.7 3.5 M756.7 2.5 L755.7 2.5 755.7 3.5 754.7 3.5 754.7 4.5 753.7 4.5 753.7 5.5 752.7 5.5 752.7 6.5 751.7 6.5 751.7 7.5 741.7 7.5 741.7 6.5 742.7 6.5 742.7 5.5 743.7 5.5 743.7 4.5 744.7 4.5 744.7 3.5 745.7 3.5 745.7 2.5 746.7 2.5 746.7 1.5 747.7 1.5 747.7 0.5 757.7 0.5 757.7 1.5 756.7 1.5 756.7 2.5 M736.7 2.5 L735.7 2.5 735.7 3.5 734.7 3.5 734.7 4.5 733.7 4.5 733.7 5.5 732.7 5.5 732.7 6.5 731.7 6.5 731.7 7.5 721.7 7.5 721.7 6.5 722.7 6.5 722.7 5.5 723.7 5.5 723.7 4.5 724.7 4.5 724.7 3.5 725.7 3.5 725.7 2.5 726.7 2.5 726.7 1.5 727.7 1.5 727.7 0.5 737.7 0.5 737.7 1.5 736.7 1.5 736.7 2.5 M715.7 3.5 L714.7 3.5 714.7 4.5 713.7 4.5 713.7 5.5 712.7 5.5 712.7 6.5 711.7 6.5 711.7 7.5 701.7 7.5 701.7 6.5 702.7 6.5 702.7 5.5 703.7 5.5 703.7 4.5 704.7 4.5 704.7 3.5 705.7 3.5 705.7 2.5 706.7 2.5 706.7 1.5 707.7 1.5 707.7 0.5 717.7 0.5 717.7 1.5 716.7 1.5 716.7 2.5 715.7 2.5 715.7 3.5" fill="#00ff00" fill-opacity="0.6509804" fill-rule="evenodd" stroke="none"/>
    <path d="M896.7 2.5 L895.7 2.5 895.7 3.5 894.7 3.5 894.7 4.5 893.7 4.5 893.7 5.5 892.7 5.5 892.7 6.5 891.7 6.5 891.7 7.5 881.7 7.5 881.7 6.5 882.7 6.5 882.7 5.5 883.7 5.5 883.7 4.5 884.7 4.5 884.7 3.5 885.7 3.5 885.7 2.5 886.7 2.5 886.7 1.5 887.7 1.5 887.7 0.5 897.7 0.5 897.7 1.5 896.7 1.5 896.7 2.5 M875.7 3.5 L874.7 3.5 874.7 4.5 873.7 4.5 873.7 5.5 872.7 5.5 872.7 6.5 871.7 6.5 871.7 7.5 861.7 7.5 861.7 6.5 862.7 6.5 862.7 5.5 863.7 5.5 863.7 4.5 864.7 4.5 864.7 3.5 865.7 3.5 865.7 2.5 866.7 2.5 866.7 1.5 867.7 1.5 867.7 0.5 877.7 0.5 877.7 1.5 876.7 1.5 876.7 2.5 875.7 2.5 875.7 3.5 M856.7 2.5 L855.7 2.5 855.7 3.5 854.7 3.5 854.7 4.5 853.7 4.5 853.7 5.5 852.7 5.5 852.7 6.5 851.7 6.5 851.7 7.5 841.7 7.5 841.7 6.5 842.7 6.5 842.7 5.5 843.7 5.5 843.7 4.5 844.7 4.5 844.7 3.5 845.7 3.5 845.7 2.5 846.7 2.5 846.7 1.5 847.7 1.5 847.7 0.5 857.7 0.5 857.7 1.5 856.7 1.5 856.7 2.5 M836.7 2.5 L835.7 2.5 835.7 3.5 834.7 3.5 834.7 4.5 833.7 4.5 833.7 5.5 832.7 5.5 832.7 6.5 831.7 6.5 831.7 7.5 821.7 7.5 821.7 6.5 822.7 6.5 822.7 5.5 823.7 5.5 823.7 4.5 824.7 4.5 824.7 3.5 825.7 3.5 825.7 2.5 826.7 2.5 826.7 1.5 827.7 1.5 827.7 0.5 837.7 0.5 837.7 1.5 836.7 1.5 836.7 2.5 M815.7 3.5 L814.7 3.5 814.7 4.5 813.7 4.5 813.7 5.5 812.7 5.5 812.7 6.5 811.7 6.5 811.7 7.5 801.7 7.5 801.7 6.5 802.7 6.5 802.7 5.5 803.7 5.5 803.7 4.5 804.7 4.5 804.7 3.5 805.7 3.5 805.7 2.5 806.7 2.5 806.7 1.5 807.7 1.5 807.7 0.5 817.7 0.5 817.7 1.5 816.7 1.5 816.7 2.5 815.7 2.5 815.7 3.5" fill="#00ff00" fill-opacity="0.6509804" fill-rule="evenodd" stroke="none"/>
    <path d="M996.7 2.5 L995.7 2.5 995.7 3.5 994.7 3.5 994.7 4.5 993.7 4.5 993.7 5.5 992.7 5.5 992.7 6.5 991.7 6.5 991.7 7.5 981.7 7.5 981.7 6.5 982.7 6.5 982.7 5.5 983.7 5.5 983.7 4.5 984.7 4.5 984.7 3.5 985.7 3.5 985.7 2.5 986.7 2.5 986.7 1.5 987.7 1.5 987.7 0.5 997.7 0.5 997.7 1.5 996.7 1.5 996.7 2.5 M975.7 3.5 L974.7 3.5 974.7 4.5 973.7 4.5 973.7 5.5 972.7 5.5 972.7 6.5 971.7 6.5 971.7 7.5 961.7 7.5 961.7 6.5 962.7 6.5 962.7 5.5 963.7 5.5 963.7 4.5 964.7 4.5 964.7 3.5 965.7 3.5 965.7 2.5 966.7 2.5 966.7 1.5 967.7 1.5 967.7 0.5 977.7 0.5 977.7 1.5 976.7 1.5 976.7 2.5 975.7 2.5 975.7 3.5 M956.7 2.5 L955.7 2.5 955.7 3.5 954.7 3.5 954.7 4.5 953.7 4.5 953.7 5.5 952.7 5.5 952.7 6.5 951.7 6.5 951.7 7.5 941.7 7.5 941.7 6.5 942.7 6.5 942.7 5.5 943.7 5.5 943.7 4.5 944.7 4.5 944.7 3.5 945.7 3.5 945.7 2.5 946.7 2.5 946.7 1.5 947.7 1.5 947.7 0.5 957.7 0.5 957.7 1.5 956.7 1.5 956.7 2.5 M936.7 2.5 L935.7 2.5 935.7 3.5 934.7 3.5 934.7 4.5 933.7 4.5 933.7 5.5 932.7 5.5 932.7 6.5 931.7 6.5 931.7 7.5 921.7 7.5 921.7 6.5 922.7 6.5 922.7 5.5 923.7 5.5 923.7 4.5 924.7 4.5 924.7 3.5 925.7 3.5 925.7 2.5 926.7 2.5 926.7 1.5 927.7 1.5 927.7 0.5 937.7 0.5 937.7 1.5 936.7 1.5 936.7 2.5 M915.7 3.5 L914.7 3.5 914.7 4.5 913.7 4.5 913.7 5.5 912.7 5.5 912.7 6.5 911.7 6.5 911.7 7.5 901.7 7.5 901.7 6.5 902.7 6.5 902.7 5.5 903.7 5.5 903.7 4.5 904.7 4.5 904.7 3.5 905.7 3.5 905.7 2.5 906.7 2.5 906.7 1.5 907.7 1.5 907.7 0.5 917.7 0.5 917.7 1.5 916.7 1.5 916.7 2.5 915.7 2.5 915.7 3.5" fill="#00ff00" fill-opacity="0.6509804" fill-rule="evenodd" stroke="none"/>
    <path d="M1096.7 2.5 L1095.7 2.5 1095.7 3.5 1094.7 3.5 1094.7 4.5 1093.7 4.5 1093.7 5.5 1092.7 5.5 1092.7 6.5 1091.7 6.5 1091.7 7.5 1081.7 7.5 1081.7 6.5 1082.7 6.5 1082.7 5.5 1083.7 5.5 1083.7 4.5 1084.7 4.5 1084.7 3.5 1085.7 3.5 1085.7 2.5 1086.7 2.5 1086.7 1.5 1087.7 1.5 1087.7 0.5 1097.7 0.5 1097.7 1.5 1096.7 1.5 1096.7 2.5 M1075.7 3.5 L1074.7 3.5 1074.7 4.5 1073.7 4.5 1073.7 5.5 1072.7 5.5 1072.7 6.5 1071.7 6.5 1071.7 7.5 1061.7 7.5 1061.7 6.5 1062.7 6.5 1062.7 5.5 1063.7 5.5 1063.7 4.5 1064.7 4.5 1064.7 3.5 1065.7 3.5 1065.7 2.5 1066.7 2.5 1066.7 1.5 1067.7 1.5 1067.7 0.5 1077.7 0.5 1077.7 1.5 1076.7 1.5 1076.7 2.5 1075.7 2.5 1075.7 3.5 M1056.7 2.5 L1055.7 2.5 1055.7 3.5 1054.7 3.5 1054.7 4.5 1053.7 4.5 1053.7 5.5 1052.7 5.5 1052.7 6.5 1051.7 6.5 1051.7 7.5 1041.7 7.5 1041.7 6.5 1042.7 6.5 1042.7 5.5 1043.7 5.5 1043.7 4.5 1044.7 4.5 1044.7 3.5 1045.7 3.5 1045.7 2.5 1046.7 2.5 1046.7 1.5 1047.7 1.5 1047.7 0.5 1057.7 0.5 1057.7 1.5 1056.7 1.5 1056.7 2.5 M1036.7 2.5 L1035.7 2.5 1035.7 3.5 1034.7 3.5 1034.7 4.5 1033.7 4.5 1033.7 5.5 1032.7 5.5 1032.7 6.5 1031.7 6.5 1031.7 7.5 1021.7 7.5 1021.7 6.5 1022.7 6.5 1022.7 5.5 1023.7 5.5 1023.7 4.5 1024.7 4.5 1024.7 3.5 1025.7 3.5 1025.7 2.5 1026.7 2.5 1026.7 1.5 1027.7 1.5 1027.7 0.5 1037.7 0.5 1037.7 1.5 1036.7 1.5 1036.7 2.5 M1015.7 3.5 L1014.7 3.5 1014.7 4.5 1013.7 4.5 1013.7 5.5 1012.7 5.5 1012.7 6.5 1011.7 6.5 1011.7 7.5 1001.7 7.5 1001.7 6.5 1002.7 6.5 1002.7 5.5 1003.7 5.5 1003.7 4.5 1004.7 4.5 1004.7 3.5 1005.7 3.5 1005.7 2.5 1006.7 2.5 1006.7 1.5 1007.7 1.5 1007.7 0.5 1017.7 0.5 1017.7 1.5 1016.7 1.5 1016.7 2.5 1015.7 2.5 1015.7 3.5" fill="#00ff00" fill-opacity="0.6509804" fill-rule="evenodd" stroke="none"/>
    <path d="M1196.7 2.5 L1195.7 2.5 1195.7 3.5 1194.7 3.5 1194.7 4.5 1193.7 4.5 1193.7 5.5 1192.7 5.5 1192.7 6.5 1191.7 6.5 1191.7 7.5 1181.7 7.5 1181.7 6.5 1182.7 6.5 1182.7 5.5 1183.7 5.5 1183.7 4.5 1184.7 4.5 1184.7 3.5 1185.7 3.5 1185.7 2.5 1186.7 2.5 1186.7 1.5 1187.7 1.5 1187.7 0.5 1197.7 0.5 1197.7 1.5 1196.7 1.5 1196.7 2.5 M1175.7 3.5 L1174.7 3.5 1174.7 4.5 1173.7 4.5 1173.7 5.5 1172.7 5.5 1172.7 6.5 1171.7 6.5 1171.7 7.5 1161.7 7.5 1161.7 6.5 1162.7 6.5 1162.7 5.5 1163.7 5.5 1163.7 4.5 1164.7 4.5 1164.7 3.5 1165.7 3.5 1165.7 2.5 1166.7 2.5 1166.7 1.5 1167.7 1.5 1167.7 0.5 1177.7 0.5 1177.7 1.5 1176.7 1.5 1176.7 2.5 1175.7 2.5 1175.7 3.5 M1156.7 2.5 L1155.7 2.5 1155.7 3.5 1154.7 3.5 1154.7 4.5 1153.7 4.5 1153.7 5.5 1152.7 5.5 1152.7 6.5 1151.7 6.5 1151.7 7.5 1141.7 7.5 1141.7 6.5 1142.7 6.5 1142.7 5.5 1143.7 5.5 1143.7 4.5 1144.7 4.5 1144.7 3.5 1145.7 3.5 1145.7 2.5 1146.7 2.5 1146.7 1.5 1147.7 1.5 1147.7 0.5 1157.7 0.5 1157.7 1.5 1156.7 1.5 1156.7 2.5 M1136.7 2.5 L1135.7 2.5 1135.7 3.5 1134.7 3.5 1134.7 4.5 1133.7 4.5 1133.7 5.5 1132.7 5.5 1132.7 6.5 1131.7 6.5 1131.7 7.5 1121.7 7.5 1121.7 6.5 1122.7 6.5 1122.7 5.5 1123.7 5.5 1123.7 4.5 1124.7 4.5 1124.7 3.5 1125.7 3.5 1125.7 2.5 1126.7 2.5 1126.7 1.5 1127.7 1.5 1127.7 0.5 1137.7 0.5 1137.7 1.5 1136.7 1.5 1136.7 2.5 M1115.7 3.5 L1114.7 3.5 1114.7 4.5 1113.7 4.5 1113.7 5.5 1112.7 5.5 1112.7 6.5 1111.7 6.5 1111.7 7.5 1101.7 7.5 1101.7 6.5 1102.7 6.5 1102.7 5.5 1103.7 5.5 1103.7 4.5 1104.7 4.5 1104.7 3.5 1105.7 3.5 1105.7 2.5 1106.7 2.5 1106.7 1.5 1107.7 1.5 1107.7 0.5 1117.7 0.5 1117.7 1.5 1116.7 1.5 1116.7 2.5 1115.7 2.5 1115.7 3.5" fill="#00ff00" fill-opacity="0.6509804" fill-rule="evenodd" stroke="none"/>
    <path d="M1296.7 2.5 L1295.7 2.5 1295.7 3.5 1294.7 3.5 1294.7 4.5 1293.7 4.5 1293.7 5.5 1292.7 5.5 1292.7 6.5 1291.7 6.5 1291.7 7.5 1281.7 7.5 1281.7 6.5 1282.7 6.5 1282.7 5.5 1283.7 5.5 1283.7 4.5 1284.7 4.5 1284.7 3.5 1285.7 3.5 1285.7 2.5 1286.7 2.5 1286.7 1.5 1287.7 1.5 1287.7 0.5 1297.7 0.5 1297.7 1.5 1296.7 1.5 1296.7 2.5 M1275.7 3.5 L1274.7 3.5 1274.7 4.5 1273.7 4.5 1273.7 5.5 1272.7 5.5 1272.7 6.5 1271.7 6.5 1271.7 7.5 1261.7 7.5 1261.7 6.5 1262.7 6.5 1262.7 5.5 1263.7 5.5 1263.7 4.5 1264.7 4.5 1264.7 3.5 1265.7 3.5 1265.7 2.5 1266.7 2.5 1266.7 1.5 1267.7 1.5 1267.7 0.5 1277.7 0.5 1277.7 1.5 1276.7 1.5 1276.7 2.5 1275.7 2.5 1275.7 3.5 M1256.7 2.5 L1255.7 2.5 1255.7 3.5 1254.7 3.5 1254.7 4.5 1253.7 4.5 1253.7 5.5 1252.7 5.5 1252.7 6.5 1251.7 6.5 1251.7 7.5 1241.7 7.5 1241.7 6.5 1242.7 6.5 1242.7 5.5 1243.7 5.5 1243.7 4.5 1244.7 4.5 1244.7 3.5 1245.7 3.5 1245.7 2.5 1246.7 2.5 1246.7 1.5 1247.7 1.5 1247.7 0.5 1257.7 0.5 1257.7 1.5 1256.7 1.5 1256.7 2.5 M1236.7 2.5 L1235.7 2.5 1235.7 3.5 1234.7 3.5 1234.7 4.5 1233.7 4.5 1233.7 5.5 1232.7 5.5 1232.7 6.5 1231.7 6.5 1231.7 7.5 1221.7 7.5 1221.7 6.5 1222.7 6.5 1222.7 5.5 1223.7 5.5 1223.7 4.5 1224.7 4.5 1224.7 3.5 1225.7 3.5 1225.7 2.5 1226.7 2.5 1226.7 1.5 1227.7 1.5 1227.7 0.5 1237.7 0.5 1237.7 1.5 1236.7 1.5 1236.7 2.5 M1215.7 3.5 L1214.7 3.5 1214.7 4.5 1213.7 4.5 1213.7 5.5 1212.7 5.5 1212.7 6.5 1211.7 6.5 1211.7 7.5 1201.7 7.5 1201.7 6.5 1202.7 6.5 1202.7 5.5 1203.7 5.5 1203.7 4.5 1204.7 4.5 1204.7 3.5 1205.7 3.5 1205.7 2.5 1206.7 2.5 1206.7 1.5 1207.7 1.5 1207.7 0.5 1217.7 0.5 1217.7 1.5 1216.7 1.5 1216.7 2.5 1215.7 2.5 1215.7 3.5" fill="#00ff00" fill-opacity="0.6509804" fill-rule="evenodd" stroke="none"/>
    <path d="M1396.7 2.5 L1395.7 2.5 1395.7 3.5 1394.7 3.5 1394.7 4.5 1393.7 4.5 1393.7 5.5 1392.7 5.5 1392.7 6.5 1391.7 6.5 1391.7 7.5 1381.7 7.5 1381.7 6.5 1382.7 6.5 1382.7 5.5 1383.7 5.5 1383.7 4.5 1384.7 4.5 1384.7 3.5 1385.7 3.5 1385.7 2.5 1386.7 2.5 1386.7 1.5 1387.7 1.5 1387.7 0.5 1397.7 0.5 1397.7 1.5 1396.7 1.5 1396.7 2.5 M1375.7 3.5 L1374.7 3.5 1374.7 4.5 1373.7 4.5 1373.7 5.5 1372.7 5.5 1372.7 6.5 1371.7 6.5 1371.7 7.5 1361.7 7.5 1361.7 6.5 1362.7 6.5 1362.7 5.5 1363.7 5.5 1363.7 4.5 1364.7 4.5 1364.7 3.5 1365.7 3.5 1365.7 2.5 1366.7 2.5 1366.7 1.5 1367.7 1.5 1367.7 0.5 1377.7 0.5 1377.7 1.5 1376.7 1.5 1376.7 2.5 1375.7 2.5 1375.7 3.5 M1356.7 2.5 L1355.7 2.5 1355.7 3.5 1354.7 3.5 1354.7 4.5 1353.7 4.5 1353.7 5.5 1352.7 5.5 1352.7 6.5 1351.7 6.5 1351.7 7.5 1341.7 7.5 1341.7 6.5 1342.7 6.5 1342.7 5.5 1343.7 5.5 1343.7 4.5 1344.7 4.5 1344.7 3.5 1345.7 3.5 1345.7 2.5 1346.7 2.5 1346.7 1.5 1347.7 1.5 1347.7 0.5 1357.7 0.5 1357.7 1.5 1356.7 1.5 1356.7 2.5 M1336.7 2.5 L1335.7 2.5 1335.7 3.5 1334.7 3.5 1334.7 4.5 1333.7 4.5 1333.7 5.5 1332.7 5.5 1332.7 6.5 1331.7 6.5 1331.7 7.5 1321.7 7.5 1321.7 6.5 1322.7 6.5 1322.7 5.5 1323.7 5.5 1323.7 4.5 1324.7 4.5 1324.7 3.5 1325.7 3.5 1325.7 2.5 1326.7 2.5 1326.7 1.5 1327.7 1.5 1327.7 0.5 1337.7 0.5 1337.7 1.5 1336.7 1.5 1336.7 2.5 M1315.7 3.5 L1314.7 3.5 1314.7 4.5 1313.7 4.5 1313.7 5.5 1312.7 5.5 1312.7 6.5 1311.7 6.5 1311.7 7.5 1301.7 7.5 1301.7 6.5 1302.7 6.5 1302.7 5.5 1303.7 5.5 1303.7 4.5 1304.7 4.5 1304.7 3.5 1305.7 3.5 1305.7 2.5 1306.7 2.5 1306.7 1.5 1307.7 1.5 1307.7 0.5 1317.7 0.5 1317.7 1.5 1316.7 1.5 1316.7 2.5 1315.7 2.5 1315.7 3.5" fill="#00ff00" fill-opacity="0.6509804" fill-rule="evenodd" stroke="none"/>
    <path d="M1496.7 2.5 L1495.7 2.5 1495.7 3.5 1494.7 3.5 1494.7 4.5 1493.7 4.5 1493.7 5.5 1492.7 5.5 1492.7 6.5 1491.7 6.5 1491.7 7.5 1481.7 7.5 1481.7 6.5 1482.7 6.5 1482.7 5.5 1483.7 5.5 1483.7 4.5 1484.7 4.5 1484.7 3.5 1485.7 3.5 1485.7 2.5 1486.7 2.5 1486.7 1.5 1487.7 1.5 1487.7 0.5 1497.7 0.5 1497.7 1.5 1496.7 1.5 1496.7 2.5 M1475.7 3.5 L1474.7 3.5 1474.7 4.5 1473.7 4.5 1473.7 5.5 1472.7 5.5 1472.7 6.5 1471.7 6.5 1471.7 7.5 1461.7 7.5 1461.7 6.5 1462.7 6.5 1462.7 5.5 1463.7 5.5 1463.7 4.5 1464.7 4.5 1464.7 3.5 1465.7 3.5 1465.7 2.5 1466.7 2.5 1466.7 1.5 1467.7 1.5 1467.7 0.5 1477.7 0.5 1477.7 1.5 1476.7 1.5 1476.7 2.5 1475.7 2.5 1475.7 3.5 M1456.7 2.5 L1455.7 2.5 1455.7 3.5 1454.7 3.5 1454.7 4.5 1453.7 4.5 1453.7 5.5 1452.7 5.5 1452.7 6.5 1451.7 6.5 1451.7 7.5 1441.7 7.5 1441.7 6.5 1442.7 6.5 1442.7 5.5 1443.7 5.5 1443.7 4.5 1444.7 4.5 1444.7 3.5 1445.7 3.5 1445.7 2.5 1446.7 2.5 1446.7 1.5 1447.7 1.5 1447.7 0.5 1457.7 0.5 1457.7 1.5 1456.7 1.5 1456.7 2.5 M1436.7 2.5 L1435.7 2.5 1435.7 3.5 1434.7 3.5 1434.7 4.5 1433.7 4.5 1433.7 5.5 1432.7 5.5 1432.7 6.5 1431.7 6.5 1431.7 7.5 1421.7 7.5 1421.7 6.5 1422.7 6.5 1422.7 5.5 1423.7 5.5 1423.7 4.5 1424.7 4.5 1424.7 3.5 1425.7 3.5 1425.7 2.5 1426.7 2.5 1426.7 1.5 1427.7 1.5 1427.7 0.5 1437.7 0.5 1437.7 1.5 1436.7 1.5 1436.7 2.5 M1415.7 3.5 L1414.7 3.5 1414.7 4.5 1413.7 4.5 1413.7 5.5 1412.7 5.5 1412.7 6.5 1411.7 6.5 1411.7 7.5 1401.7 7.5 1401.7 6.5 1402.7 6.5 1402.7 5.5 1403.7 5.5 1403.7 4.5 1404.7 4.5 1404.7 3.5 1405.7 3.5 1405.7 2.5 1406.7 2.5 1406.7 1.5 1407.7 1.5 1407.7 0.5 1417.7 0.5 1417.7 1.5 1416.7 1.5 1416.7 2.5 1415.7 2.5 1415.7 3.5" fill="#00ff00" fill-opacity="0.6509804" fill-rule="evenodd" stroke="none"/>
    <path d="M1596.7 2.5 L1595.7 2.5 1595.7 3.5 1594.7 3.5 1594.7 4.5 1593.7 4.5 1593.7 5.5 1592.7 5.5 1592.7 6.5 1591.7 6.5 1591.7 7.5 1581.7 7.5 1581.7 6.5 1582.7 6.5 1582.7 5.5 1583.7 5.5 1583.7 4.5 1584.7 4.5 1584.7 3.5 1585.7 3.5 1585.7 2.5 1586.7 2.5 1586.7 1.5 1587.7 1.5 1587.7 0.5 1597.7 0.5 1597.7 1.5 1596.7 1.5 1596.7 2.5 M1575.7 3.5 L1574.7 3.5 1574.7 4.5 1573.7 4.5 1573.7 5.5 1572.7 5.5 1572.7 6.5 1571.7 6.5 1571.7 7.5 1561.7 7.5 1561.7 6.5 1562.7 6.5 1562.7 5.5 1563.7 5.5 1563.7 4.5 1564.7 4.5 1564.7 3.5 1565.7 3.5 1565.7 2.5 1566.7 2.5 1566.7 1.5 1567.7 1.5 1567.7 0.5 1577.7 0.5 1577.7 1.5 1576.7 1.5 1576.7 2.5 1575.7 2.5 1575.7 3.5 M1556.7 2.5 L1555.7 2.5 1555.7 3.5 1554.7 3.5 1554.7 4.5 1553.7 4.5 1553.7 5.5 1552.7 5.5 1552.7 6.5 1551.7 6.5 1551.7 7.5 1541.7 7.5 1541.7 6.5 1542.7 6.5 1542.7 5.5 1543.7 5.5 1543.7 4.5 1544.7 4.5 1544.7 3.5 1545.7 3.5 1545.7 2.5 1546.7 2.5 1546.7 1.5 1547.7 1.5 1547.7 0.5 1557.7 0.5 1557.7 1.5 1556.7 1.5 1556.7 2.5 M1536.7 2.5 L1535.7 2.5 1535.7 3.5 1534.7 3.5 1534.7 4.5 1533.7 4.5 1533.7 5.5 1532.7 5.5 1532.7 6.5 1531.7 6.5 1531.7 7.5 1521.7 7.5 1521.7 6.5 1522.7 6.5 1522.7 5.5 1523.7 5.5 1523.7 4.5 1524.7 4.5 1524.7 3.5 1525.7 3.5 1525.7 2.5 1526.7 2.5 1526.7 1.5 1527.7 1.5 1527.7 0.5 1537.7 0.5 1537.7 1.5 1536.7 1.5 1536.7 2.5 M1515.7 3.5 L1514.7 3.5 1514.7 4.5 1513.7 4.5 1513.7 5.5 1512.7 5.5 1512.7 6.5 1511.7 6.5 1511.7 7.5 1501.7 7.5 1501.7 6.5 1502.7 6.5 1502.7 5.5 1503.7 5.5 1503.7 4.5 1504.7 4.5 1504.7 3.5 1505.7 3.5 1505.7 2.5 1506.7 2.5 1506.7 1.5 1507.7 1.5 1507.7 0.5 1517.7 0.5 1517.7 1.5 1516.7 1.5 1516.7 2.5 1515.7 2.5 1515.7 3.5" fill="#00ff00" fill-opacity="0.6509804" fill-rule="evenodd" stroke="none"/>
    <path d="M1696.7 2.5 L1695.7 2.5 1695.7 3.5 1694.7 3.5 1694.7 4.5 1693.7 4.5 1693.7 5.5 1692.7 5.5 1692.7 6.5 1691.7 6.5 1691.7 7.5 1681.7 7.5 1681.7 6.5 1682.7 6.5 1682.7 5.5 1683.7 5.5 1683.7 4.5 1684.7 4.5 1684.7 3.5 1685.7 3.5 1685.7 2.5 1686.7 2.5 1686.7 1.5 1687.7 1.5 1687.7 0.5 1697.7 0.5 1697.7 1.5 1696.7 1.5 1696.7 2.5 M1675.7 3.5 L1674.7 3.5 1674.7 4.5 1673.7 4.5 1673.7 5.5 1672.7 5.5 1672.7 6.5 1671.7 6.5 1671.7 7.5 1661.7 7.5 1661.7 6.5 1662.7 6.5 1662.7 5.5 1663.7 5.5 1663.7 4.5 1664.7 4.5 1664.7 3.5 1665.7 3.5 1665.7 2.5 1666.7 2.5 1666.7 1.5 1667.7 1.5 1667.7 0.5 1677.7 0.5 1677.7 1.5 1676.7 1.5 1676.7 2.5 1675.7 2.5 1675.7 3.5 M1656.7 2.5 L1655.7 2.5 1655.7 3.5 1654.7 3.5 1654.7 4.5 1653.7 4.5 1653.7 5.5 1652.7 5.5 1652.7 6.5 1651.7 6.5 1651.7 7.5 1641.7 7.5 1641.7 6.5 1642.7 6.5 1642.7 5.5 1643.7 5.5 1643.7 4.5 1644.7 4.5 1644.7 3.5 1645.7 3.5 1645.7 2.5 1646.7 2.5 1646.7 1.5 1647.7 1.5 1647.7 0.5 1657.7 0.5 1657.7 1.5 1656.7 1.5 1656.7 2.5 M1636.7 2.5 L1635.7 2.5 1635.7 3.5 1634.7 3.5 1634.7 4.5 1633.7 4.5 1633.7 5.5 1632.7 5.5 1632.7 6.5 1631.7 6.5 1631.7 7.5 1621.7 7.5 1621.7 6.5 1622.7 6.5 1622.7 5.5 1623.7 5.5 1623.7 4.5 1624.7 4.5 1624.7 3.5 1625.7 3.5 1625.7 2.5 1626.7 2.5 1626.7 1.5 1627.7 1.5 1627.7 0.5 1637.7 0.5 1637.7 1.5 1636.7 1.5 1636.7 2.5 M1615.7 3.5 L1614.7 3.5 1614.7 4.5 1613.7 4.5 1613.7 5.5 1612.7 5.5 1612.7 6.5 1611.7 6.5 1611.7 7.5 1601.7 7.5 1601.7 6.5 1602.7 6.5 1602.7 5.5 1603.7 5.5 1603.7 4.5 1604.7 4.5 1604.7 3.5 1605.7 3.5 1605.7 2.5 1606.7 2.5 1606.7 1.5 1607.7 1.5 1607.7 0.5 1617.7 0.5 1617.7 1.5 1616.7 1.5 1616.7 2.5 1615.7 2.5 1615.7 3.5" fill="#00ff00" fill-opacity="0.6509804" fill-rule="evenodd" stroke="none"/>
    <path d="M1796.7 2.5 L1795.7 2.5 1795.7 3.5 1794.7 3.5 1794.7 4.5 1793.7 4.5 1793.7 5.5 1792.7 5.5 1792.7 6.5 1791.7 6.5 1791.7 7.5 1781.7 7.5 1781.7 6.5 1782.7 6.5 1782.7 5.5 1783.7 5.5 1783.7 4.5 1784.7 4.5 1784.7 3.5 1785.7 3.5 1785.7 2.5 1786.7 2.5 1786.7 1.5 1787.7 1.5 1787.7 0.5 1797.7 0.5 1797.7 1.5 1796.7 1.5 1796.7 2.5 M1775.7 3.5 L1774.7 3.5 1774.7 4.5 1773.7 4.5 1773.7 5.5 1772.7 5.5 1772.7 6.5 1771.7 6.5 1771.7 7.5 1761.7 7.5 1761.7 6.5 1762.7 6.5 1762.7 5.5 1763.7 5.5 1763.7 4.5 1764.7 4.5 1764.7 3.5 1765.7 3.5 1765.7 2.5 1766.7 2.5 1766.7 1.5 1767.7 1.5 1767.7 0.5 1777.7 0.5 1777.7 1.5 1776.7 1.5 1776.7 2.5 1775.7 2.5 1775.7 3.5 M1756.7 2.5 L1755.7 2.5 1755.7 3.5 1754.7 3.5 1754.7 4.5 1753.7 4.5 1753.7 5.5 1752.7 5.5 1752.7 6.5 1751.7 6.5 1751.7 7.5 1741.7 7.5 1741.7 6.5 1742.7 6.5 1742.7 5.5 1743.7 5.5 1743.7 4.5 1744.7 4.5 1744.7 3.5 1745.7 3.5 1745.7 2.5 1746.7 2.5 1746.7 1.5 1747.7 1.5 1747.7 0.5 1757.7 0.5 1757.7 1.5 1756.7 1.5 1756.7 2.5 M1736.7 2.5 L1735.7 2.5 1735.7 3.5 1734.7 3.5 1734.7 4.5 1733.7 4.5 1733.7 5.5 1732.7 5.5 1732.7 6.5 1731.7 6.5 1731.7 7.5 1721.7 7.5 1721.7 6.5 1722.7 6.5 1722.7 5.5 1723.7 5.5 1723.7 4.5 1724.7 4.5 1724.7 3.5 1725.7 3.5 1725.7 2.5 1726.7 2.5 1726.7 1.5 1727.7 1.5 1727.7 0.5 1737.7 0.5 1737.7 1.5 1736.7 1.5 1736.7 2.5 M1715.7 3.5 L1714.7 3.5 1714.7 4.5 1713.7 4.5 1713.7 5.5 1712.7 5.5 1712.7 6.5 1711.7 6.5 1711.7 7.5 1701.7 7.5 1701.7 6.5 1702.7 6.5 1702.7 5.5 1703.7 5.5 1703.7 4.5 1704.7 4.5 1704.7 3.5 1705.7 3.5 1705.7 2.5 1706.7 2.5 1706.7 1.5 1707.7 1.5 1707.7 0.5 1717.7 0.5 1717.7 1.5 1716.7 1.5 1716.7 2.5 1715.7 2.5 1715.7 3.5" fill="#00ff00" fill-opacity="0.6509804" fill-rule="evenodd" stroke="none"/>
    <path d="M1896.7 2.5 L1895.7 2.5 1895.7 3.5 1894.7 3.5 1894.7 4.5 1893.7 4.5 1893.7 5.5 1892.7 5.5 1892.7 6.5 1891.7 6.5 1891.7 7.5 1881.7 7.5 1881.7 6.5 1882.7 6.5 1882.7 5.5 1883.7 5.5 1883.7 4.5 1884.7 4.5 1884.7 3.5 1885.7 3.5 1885.7 2.5 1886.7 2.5 1886.7 1.5 1887.7 1.5 1887.7 0.5 1897.7 0.5 1897.7 1.5 1896.7 1.5 1896.7 2.5 M1875.7 3.5 L1874.7 3.5 1874.7 4.5 1873.7 4.5 1873.7 5.5 1872.7 5.5 1872.7 6.5 1871.7 6.5 1871.7 7.5 1861.7 7.5 1861.7 6.5 1862.7 6.5 1862.7 5.5 1863.7 5.5 1863.7 4.5 1864.7 4.5 1864.7 3.5 1865.7 3.5 1865.7 2.5 1866.7 2.5 1866.7 1.5 1867.7 1.5 1867.7 0.5 1877.7 0.5 1877.7 1.5 1876.7 1.5 1876.7 2.5 1875.7 2.5 1875.7 3.5 M1856.7 2.5 L1855.7 2.5 1855.7 3.5 1854.7 3.5 1854.7 4.5 1853.7 4.5 1853.7 5.5 1852.7 5.5 1852.7 6.5 1851.7 6.5 1851.7 7.5 1841.7 7.5 1841.7 6.5 1842.7 6.5 1842.7 5.5 1843.7 5.5 1843.7 4.5 1844.7 4.5 1844.7 3.5 1845.7 3.5 1845.7 2.5 1846.7 2.5 1846.7 1.5 1847.7 1.5 1847.7 0.5 1857.7 0.5 1857.7 1.5 1856.7 1.5 1856.7 2.5 M1836.7 2.5 L1835.7 2.5 1835.7 3.5 1834.7 3.5 1834.7 4.5 1833.7 4.5 1833.7 5.5 1832.7 5.5 1832.7 6.5 1831.7 6.5 1831.7 7.5 1821.7 7.5 1821.7 6.5 1822.7 6.5 1822.7 5.5 1823.7 5.5 1823.7 4.5 1824.7 4.5 1824.7 3.5 1825.7 3.5 1825.7 2.5 1826.7 2.5 1826.7 1.5 1827.7 1.5 1827.7 0.5 1837.7 0.5 1837.7 1.5 1836.7 1.5 1836.7 2.5 M1815.7 3.5 L1814.7 3.5 1814.7 4.5 1813.7 4.5 1813.7 5.5 1812.7 5.5 1812.7 6.5 1811.7 6.5 1811.7 7.5 1801.7 7.5 1801.7 6.5 1802.7 6.5 1802.7 5.5 1803.7 5.5 1803.7 4.5 1804.7 4.5 1804.7 3.5 1805.7 3.5 1805.7 2.5 1806.7 2.5 1806.7 1.5 1807.7 1.5 1807.7 0.5 1817.7 0.5 1817.7 1.5 1816.7 1.5 1816.7 2.5 1815.7 2.5 1815.7 3.5" fill="#00ff00" fill-opacity="0.6509804" fill-rule="evenodd" stroke="none"/>
    <path d="M1996.7 2.5 L1995.7 2.5 1995.7 3.5 1994.7 3.5 1994.7 4.5 1993.7 4.5 1993.7 5.5 1992.7 5.5 1992.7 6.5 1991.7 6.5 1991.7 7.5 1981.7 7.5 1981.7 6.5 1982.7 6.5 1982.7 5.5 1983.7 5.5 1983.7 4.5 1984.7 4.5 1984.7 3.5 1985.7 3.5 1985.7 2.5 1986.7 2.5 1986.7 1.5 1987.7 1.5 1987.7 0.5 1997.7 0.5 1997.7 1.5 1996.7 1.5 1996.7 2.5 M1975.7 3.5 L1974.7 3.5 1974.7 4.5 1973.7 4.5 1973.7 5.5 1972.7 5.5 1972.7 6.5 1971.7 6.5 1971.7 7.5 1961.7 7.5 1961.7 6.5 1962.7 6.5 1962.7 5.5 1963.7 5.5 1963.7 4.5 1964.7 4.5 1964.7 3.5 1965.7 3.5 1965.7 2.5 1966.7 2.5 1966.7 1.5 1967.7 1.5 1967.7 0.5 1977.7 0.5 1977.7 1.5 1976.7 1.5 1976.7 2.5 1975.7 2.5 1975.7 3.5 M1956.7 2.5 L1955.7 2.5 1955.7 3.5 1954.7 3.5 1954.7 4.5 1953.7 4.5 1953.7 5.5 1952.7 5.5 1952.7 6.5 1951.7 6.5 1951.7 7.5 1941.7 7.5 1941.7 6.5 1942.7 6.5 1942.7 5.5 1943.7 5.5 1943.7 4.5 1944.7 4.5 1944.7 3.5 1945.7 3.5 1945.7 2.5 1946.7 2.5 1946.7 1.5 1947.7 1.5 1947.7 0.5 1957.7 0.5 1957.7 1.5 1956.7 1.5 1956.7 2.5 M1936.7 2.5 L1935.7 2.5 1935.7 3.5 1934.7 3.5 1934.7 4.5 1933.7 4.5 1933.7 5.5 1932.7 5.5 1932.7 6.5 1931.7 6.5 1931.7 7.5 1921.7 7.5 1921.7 6.5 1922.7 6.5 1922.7 5.5 1923.7 5.5 1923.7 4.5 1924.7 4.5 1924.7 3.5 1925.7 3.5 1925.7 2.5 1926.7 2.5 1926.7 1.5 1927.7 1.5 1927.7 0.5 1937.7 0.5 1937.7 1.5 1936.7 1.5 1936.7 2.5 M1915.7 3.5 L1914.7 3.5 1914.7 4.5 1913.7 4.5 1913.7 5.5 1912.7 5.5 1912.7 6.5 1911.7 6.5 1911.7 7.5 1901.7 7.5 1901.7 6.5 1902.7 6.5 1902.7 5.5 1903.7 5.5 1903.7 4.5 1904.7 4.5 1904.7 3.5 1905.7 3.5 1905.7 2.5 1906.7 2.5 1906.7 1.5 1907.7 1.5 1907.7 0.5 1917.7 0.5 1917.7 1.5 1916.7 1.5 1916.7 2.5 1915.7 2.5 1915.7 3.5" fill="#00ff00" fill-opacity="0.6509804" fill-rule="evenodd" stroke="none"/>
    <path d="M2096.7 2.5 L2095.7 2.5 2095.7 3.5 2094.7 3.5 2094.7 4.5 2093.7 4.5 2093.7 5.5 2092.7 5.5 2092.7 6.5 2091.7 6.5 2091.7 7.5 2081.7 7.5 2081.7 6.5 2082.7 6.5 2082.7 5.5 2083.7 5.5 2083.7 4.5 2084.7 4.5 2084.7 3.5 2085.7 3.5 2085.7 2.5 2086.7 2.5 2086.7 1.5 2087.7 1.5 2087.7 0.5 2097.7 0.5 2097.7 1.5 2096.7 1.5 2096.7 2.5 M2075.7 3.5 L2074.7 3.5 2074.7 4.5 2073.7 4.5 2073.7 5.5 2072.7 5.5 2072.7 6.5 2071.7 6.5 2071.7 7.5 2061.7 7.5 2061.7 6.5 2062.7 6.5 2062.7 5.5 2063.7 5.5 2063.7 4.5 2064.7 4.5 2064.7 3.5 2065.7 3.5 2065.7 2.5 2066.7 2.5 2066.7 1.5 2067.7 1.5 2067.7 0.5 2077.7 0.5 2077.7 1.5 2076.7 1.5 2076.7 2.5 2075.7 2.5 2075.7 3.5 M2056.7 2.5 L2055.7 2.5 2055.7 3.5 2054.7 3.5 2054.7 4.5 2053.7 4.5 2053.7 5.5 2052.7 5.5 2052.7 6.5 2051.7 6.5 2051.7 7.5 2041.7 7.5 2041.7 6.5 2042.7 6.5 2042.7 5.5 2043.7 5.5 2043.7 4.5 2044.7 4.5 2044.7 3.5 2045.7 3.5 2045.7 2.5 2046.7 2.5 2046.7 1.5 2047.7 1.5 2047.7 0.5 2057.7 0.5 2057.7 1.5 2056.7 1.5 2056.7 2.5 M2036.7 2.5 L2035.7 2.5 2035.7 3.5 2034.7 3.5 2034.7 4.5 2033.7 4.5 2033.7 5.5 2032.7 5.5 2032.7 6.5 2031.7 6.5 2031.7 7.5 2021.7 7.5 2021.7 6.5 2022.7 6.5 2022.7 5.5 2023.7 5.5 2023.7 4.5 2024.7 4.5 2024.7 3.5 2025.7 3.5 2025.7 2.5 2026.7 2.5 2026.7 1.5 2027.7 1.5 2027.7 0.5 2037.7 0.5 2037.7 1.5 2036.7 1.5 2036.7 2.5 M2015.7 3.5 L2014.7 3.5 2014.7 4.5 2013.7 4.5 2013.7 5.5 2012.7 5.5 2012.7 6.5 2011.7 6.5 2011.7 7.5 2001.7 7.5 2001.7 6.5 2002.7 6.5 2002.7 5.5 2003.7 5.5 2003.7 4.5 2004.7 4.5 2004.7 3.5 2005.7 3.5 2005.7 2.5 2006.7 2.5 2006.7 1.5 2007.7 1.5 2007.7 0.5 2017.7 0.5 2017.7 1.5 2016.7 1.5 2016.7 2.5 2015.7 2.5 2015.7 3.5" fill="#00ff00" fill-opacity="0.6509804" fill-rule="evenodd" stroke="none"/>
  </g>
</svg>
