<?xml version="1.0" encoding="UTF-8" standalone="no"?>
<svg xmlns:ffdec="https://www.free-decompiler.com/flash" xmlns:xlink="http://www.w3.org/1999/xlink" ffdec:objectType="text" height="28.15px" width="130.35px" xmlns="http://www.w3.org/2000/svg">
  <g transform="matrix(1.0, 0.0, 0.0, 1.0, -249.4, -0.25)">
    <g transform="matrix(1.0, 0.0, 0.0, 1.0, 248.15, 0.0)">
      <use fill="#ffffff" height="28.15" transform="matrix(0.0352, 0.0, 0.0, 0.0352, 0.0, 27.0)" width="130.35" xlink:href="#font_Myriad_Pro_C0"/>
      <use fill="#ffffff" height="28.15" transform="matrix(0.0352, 0.0, 0.0, 0.0352, 20.1, 27.0)" width="130.35" xlink:href="#font_Myriad_Pro_O0"/>
      <use fill="#ffffff" height="28.15" transform="matrix(0.0352, 0.0, 0.0, 0.0352, 44.95, 27.0)" width="130.35" xlink:href="#font_Myriad_Pro_M0"/>
      <use fill="#ffffff" height="28.15" transform="matrix(0.0352, 0.0, 0.0, 0.0352, 73.9, 27.0)" width="130.35" xlink:href="#font_Myriad_Pro_B0"/>
      <use fill="#ffffff" height="28.15" transform="matrix(0.0352, 0.0, 0.0, 0.0352, 93.4, 27.0)" width="130.35" xlink:href="#font_Myriad_Pro_A0"/>
      <use fill="#ffffff" height="28.15" transform="matrix(0.0352, 0.0, 0.0, 0.0352, 112.65, 27.0)" width="130.35" xlink:href="#font_Myriad_Pro_T0"/>
    </g>
  </g>
  <defs>
    <g id="font_Myriad_Pro_C0">
      <path d="M542.5 -92.5 L542.5 -92.5 Q484.0 -65.0 396.0 -64.0 270.0 -65.5 201.5 -139.0 133.0 -213.0 132.0 -342.5 133.5 -479.5 206.0 -553.5 278.0 -627.0 401.0 -628.0 489.0 -626.0 539.5 -599.0 L562.0 -668.0 Q526.0 -699.0 398.0 -704.0 235.0 -701.5 137.0 -603.5 38.5 -505.0 36.0 -339.5 39.0 -167.5 134.0 -78.0 228.5 11.5 377.5 12.0 508.0 8.0 560.0 -21.0 L542.5 -92.5 542.5 -92.5" fill-rule="evenodd" stroke="none"/>
    </g>
    <g id="font_Myriad_Pro_O0">
      <path d="M353.0 -628.5 L353.0 -628.5 Q463.5 -624.0 518.0 -540.0 572.0 -456.0 572.0 -348.5 571.5 -228.5 515.0 -147.5 458.0 -67.0 352.0 -63.5 246.0 -67.0 189.0 -147.5 132.5 -228.0 132.0 -342.5 132.0 -458.5 187.0 -541.5 242.5 -624.5 353.0 -628.5 L353.0 -628.5 M356.0 -703.5 L356.0 -703.5 Q215.5 -701.5 127.5 -603.5 39.0 -506.0 36.0 -340.5 38.5 -182.0 123.0 -86.5 208.0 9.0 347.0 11.5 482.0 11.0 573.0 -82.5 664.5 -175.5 668.0 -352.5 666.0 -509.0 582.5 -605.0 499.5 -701.0 356.0 -703.5 L356.0 -703.5" fill-rule="evenodd" stroke="none"/>
    </g>
    <g id="font_Myriad_Pro_M0">
      <path d="M675.0 0.0 L675.0 0.0 763.5 0.0 720.5 -691.5 606.5 -691.5 483.0 -356.0 Q436.5 -227.0 409.0 -124.0 L407.0 -124.0 Q379.5 -230.0 337.0 -356.0 L219.0 -691.5 104.5 -691.5 56.5 0.0 141.5 0.0 160.0 -295.5 Q165.0 -375.0 168.5 -455.0 172.0 -534.5 173.5 -600.5 L175.5 -600.5 Q205.0 -478.5 255.0 -332.5 L368.0 -4.0 435.5 -4.0 558.0 -338.5 Q609.5 -481.0 645.5 -600.5 L647.5 -600.5 Q647.5 -535.0 651.0 -456.0 654.5 -376.5 659.0 -302.5 L675.0 0.0 675.0 0.0" fill-rule="evenodd" stroke="none"/>
    </g>
    <g id="font_Myriad_Pro_B0">
      <path d="M168.0 -332.0 L168.0 -332.0 241.0 -332.0 Q314.5 -332.5 364.5 -300.5 414.0 -268.0 416.0 -198.5 413.5 -124.0 363.0 -93.0 312.0 -62.5 241.5 -63.5 195.0 -63.5 168.0 -67.5 L168.0 -332.0 168.0 -332.0 M168.0 -618.5 L168.0 -618.5 Q187.0 -623.5 246.5 -624.5 388.5 -628.0 396.0 -514.0 395.5 -464.5 357.0 -432.5 318.5 -401.0 248.5 -400.0 L168.0 -400.0 168.0 -618.5 168.0 -618.5 M76.0 -1.0 L76.0 -1.0 Q123.5 6.5 216.5 7.5 381.5 8.5 451.5 -58.5 509.0 -108.0 512.0 -197.5 509.0 -274.0 464.5 -316.5 420.5 -359.0 368.5 -370.5 L368.5 -374.0 Q483.5 -418.5 488.0 -523.0 485.5 -603.0 429.0 -643.5 370.0 -696.5 241.0 -695.5 143.0 -695.0 76.0 -679.5 L76.0 -1.0 76.0 -1.0" fill-rule="evenodd" stroke="none"/>
    </g>
    <g id="font_Myriad_Pro_A0">
      <path d="M207.0 -287.5 L207.0 -287.5 275.0 -488.0 Q295.5 -551.0 310.0 -612.0 L312.0 -612.0 Q326.0 -553.0 348.0 -486.0 L416.5 -287.5 207.0 -287.5 207.0 -287.5 M434.0 -216.5 L434.0 -216.5 508.0 0.0 603.5 0.0 367.5 -692.0 260.5 -692.0 24.5 0.0 117.0 0.0 188.5 -216.5 434.0 -216.5 434.0 -216.5" fill-rule="evenodd" stroke="none"/>
    </g>
    <g id="font_Myriad_Pro_T0">
      <path d="M208.0 0.0 L208.0 0.0 300.0 0.0 300.0 -616.0 511.0 -616.0 511.0 -692.0 -2.0 -692.0 -2.0 -616.0 208.0 -616.0 208.0 0.0 208.0 0.0" fill-rule="evenodd" stroke="none"/>
    </g>
  </defs>
</svg>
