<?xml version="1.0" encoding="UTF-8" standalone="no"?>
<svg xmlns:ffdec="https://www.free-decompiler.com/flash" xmlns:xlink="http://www.w3.org/1999/xlink" ffdec:objectType="text" height="31.3px" width="117.1px" xmlns="http://www.w3.org/2000/svg">
  <g transform="matrix(1.0, 0.0, 0.0, 1.0, -249.4, -0.25)">
    <g transform="matrix(1.0, 0.0, 0.0, 1.0, 248.15, 0.0)">
      <use fill="#ffffff" height="31.3" transform="matrix(0.0352, 0.0, 0.0, 0.0352, 0.0, 27.0)" width="117.1" xlink:href="#font_Myriad_Pro_Q0"/>
      <use fill="#ffffff" height="31.3" transform="matrix(0.0352, 0.0, 0.0, 0.0352, 24.8, 27.0)" width="117.1" xlink:href="#font_Myriad_Pro_U0"/>
      <use fill="#ffffff" height="31.3" transform="matrix(0.0352, 0.0, 0.0, 0.0352, 48.1, 27.0)" width="117.1" xlink:href="#font_Myriad_Pro_E0"/>
      <use fill="#ffffff" height="31.3" transform="matrix(0.0352, 0.0, 0.0, 0.0352, 65.8, 27.0)" width="117.1" xlink:href="#font_Myriad_Pro_S0"/>
      <use fill="#ffffff" height="31.3" transform="matrix(0.0352, 0.0, 0.0, 0.0352, 83.55, 27.0)" width="117.1" xlink:href="#font_Myriad_Pro_T0"/>
      <use fill="#ffffff" height="31.3" transform="matrix(0.0352, 0.0, 0.0, 0.0352, 101.2, 27.0)" width="117.1" xlink:href="#font_Myriad_Pro_S0"/>
    </g>
  </g>
  <defs>
    <g id="font_Myriad_Pro_Q0">
      <path d="M352.0 -63.5 L352.0 -63.5 Q246.0 -67.5 189.0 -147.5 132.5 -228.0 132.0 -341.5 132.0 -457.0 187.5 -540.5 243.0 -624.5 355.0 -628.5 464.0 -624.0 518.0 -540.5 572.0 -457.0 572.0 -348.5 571.5 -228.5 515.0 -147.5 458.0 -67.0 352.0 -63.5 L352.0 -63.5 M673.0 27.0 L673.0 27.0 Q578.5 10.5 470.0 -18.0 L470.0 -22.5 Q557.5 -54.0 612.0 -137.5 666.5 -220.5 668.0 -353.5 666.0 -508.5 583.0 -604.5 499.5 -700.5 357.0 -703.5 215.5 -701.5 127.0 -604.0 38.5 -506.5 36.0 -339.5 39.5 -172.5 127.0 -83.0 214.0 6.5 341.0 11.5 360.0 13.0 382.5 22.0 503.5 64.0 647.0 101.5 L673.0 27.0 673.0 27.0" fill-rule="evenodd" stroke="none"/>
    </g>
    <g id="font_Myriad_Pro_U0">
      <path d="M76.0 -692.0 L76.0 -692.0 76.0 -285.5 Q78.5 -126.0 148.0 -56.5 217.0 13.0 325.5 11.5 439.5 12.5 512.5 -59.0 585.5 -131.0 588.0 -289.0 L588.0 -692.0 496.0 -692.0 496.0 -282.5 Q488.0 -59.5 328.5 -63.5 258.0 -63.0 213.5 -115.5 169.5 -168.0 168.0 -282.5 L168.0 -692.0 76.0 -692.0 76.0 -692.0" fill-rule="evenodd" stroke="none"/>
    </g>
    <g id="font_Myriad_Pro_E0">
      <path d="M435.0 -399.5 L435.0 -399.5 168.0 -399.5 168.0 -616.0 451.5 -616.0 451.5 -692.0 76.0 -692.0 76.0 0.0 467.0 0.0 467.0 -76.0 168.0 -76.0 168.0 -324.5 435.0 -324.5 435.0 -399.5 435.0 -399.5" fill-rule="evenodd" stroke="none"/>
    </g>
    <g id="font_Myriad_Pro_S0">
      <path d="M42.0 -34.0 L42.0 -34.0 Q71.0 -14.5 119.5 -1.5 168.0 11.5 219.0 12.0 340.0 9.5 400.0 -48.5 460.0 -106.5 460.0 -189.0 460.0 -264.0 415.5 -311.5 371.5 -359.0 284.0 -391.5 213.5 -418.0 180.5 -448.0 147.5 -477.5 148.0 -525.0 147.0 -562.5 177.5 -594.5 207.5 -626.5 277.0 -628.5 371.5 -622.0 406.5 -595.5 L431.5 -668.0 Q385.0 -700.0 280.0 -703.5 178.5 -702.0 118.0 -649.5 57.5 -597.0 56.0 -514.5 63.5 -375.0 239.0 -318.0 373.0 -271.5 368.0 -182.0 364.5 -70.5 225.0 -64.0 130.0 -67.5 65.5 -109.0 L42.0 -34.0 42.0 -34.0" fill-rule="evenodd" stroke="none"/>
    </g>
    <g id="font_Myriad_Pro_T0">
      <path d="M208.0 0.0 L208.0 0.0 300.0 0.0 300.0 -616.0 511.0 -616.0 511.0 -692.0 -2.0 -692.0 -2.0 -616.0 208.0 -616.0 208.0 0.0 208.0 0.0" fill-rule="evenodd" stroke="none"/>
    </g>
  </defs>
</svg>
