<?xml version="1.0" encoding="UTF-8" standalone="no"?>
<svg xmlns:ffdec="https://www.free-decompiler.com/flash" xmlns:xlink="http://www.w3.org/1999/xlink" ffdec:objectType="text" height="23.95px" width="163.05px" xmlns="http://www.w3.org/2000/svg">
  <g transform="matrix(1.0, 0.0, 0.0, 1.0, -260.05, 0.1)">
    <g transform="matrix(1.0, 0.0, 0.0, 1.0, 259.5, 0.0)">
      <use fill="#ffffff" height="23.95" transform="matrix(0.0293, 0.0, 0.0, 0.0293, 0.0, 23.0)" width="163.05" xlink:href="#font_Myriad_Pro_W0"/>
      <use fill="#ffffff" height="23.95" transform="matrix(0.0293, 0.0, 0.0, 0.0293, 23.65, 23.0)" width="163.05" xlink:href="#font_Myriad_Pro_A0"/>
      <use fill="#ffffff" height="23.95" transform="matrix(0.0293, 0.0, 0.0, 0.0293, 42.05, 23.0)" width="163.05" xlink:href="#font_Myriad_Pro_L0"/>
      <use fill="#ffffff" height="23.95" transform="matrix(0.0293, 0.0, 0.0, 0.0293, 56.2, 23.0)" width="163.05" xlink:href="#font_Myriad_Pro_L0"/>
      <use fill="#ffffff" height="23.95" transform="matrix(0.0293, 0.0, 0.0, 0.0293, 70.35, 23.0)" width="163.05" xlink:href="#font_Myriad_Pro_P0"/>
      <use fill="#ffffff" height="23.95" transform="matrix(0.0293, 0.0, 0.0, 0.0293, 83.8, 23.0)" width="163.05" xlink:href="#font_Myriad_Pro_A0"/>
      <use fill="#ffffff" height="23.95" transform="matrix(0.0293, 0.0, 0.0, 0.0293, 102.15, 23.0)" width="163.05" xlink:href="#font_Myriad_Pro_P0"/>
      <use fill="#ffffff" height="23.95" transform="matrix(0.0293, 0.0, 0.0, 0.0293, 118.1, 23.0)" width="163.05" xlink:href="#font_Myriad_Pro_E0"/>
      <use fill="#ffffff" height="23.95" transform="matrix(0.0293, 0.0, 0.0, 0.0293, 132.85, 23.0)" width="163.05" xlink:href="#font_Myriad_Pro_R0"/>
      <use fill="#ffffff" height="23.95" transform="matrix(0.0293, 0.0, 0.0, 0.0293, 149.0, 23.0)" width="163.05" xlink:href="#font_Myriad_Pro_S0"/>
    </g>
  </g>
  <defs>
    <g id="font_Myriad_Pro_W0">
      <path d="M284.5 0.0 L284.5 0.0 383.0 -360.5 Q420.5 -487.0 436.5 -584.5 L438.5 -584.5 Q452.0 -485.5 483.5 -359.0 L571.0 0.0 664.0 0.0 860.0 -691.5 768.5 -691.5 677.5 -342.0 Q644.5 -216.0 622.0 -103.5 L620.0 -103.5 Q603.0 -215.5 572.0 -341.0 L487.5 -692.0 394.5 -692.0 302.0 -343.0 Q264.5 -207.5 245.5 -102.5 L243.5 -102.5 Q224.0 -207.5 192.5 -342.0 L110.5 -692.0 16.0 -692.0 191.5 -0.5 284.5 0.0 284.5 0.0" fill-rule="evenodd" stroke="none"/>
    </g>
    <g id="font_Myriad_Pro_A0">
      <path d="M207.0 -287.5 L207.0 -287.5 275.0 -488.0 Q295.5 -551.0 310.0 -612.0 L312.0 -612.0 Q326.0 -553.0 348.0 -486.0 L416.5 -287.5 207.0 -287.5 207.0 -287.5 M434.0 -216.5 L434.0 -216.5 508.0 0.0 603.5 0.0 367.5 -692.0 260.5 -692.0 24.5 0.0 117.0 0.0 188.5 -216.5 434.0 -216.5 434.0 -216.5" fill-rule="evenodd" stroke="none"/>
    </g>
    <g id="font_Myriad_Pro_L0">
      <path d="M76.0 0.0 L76.0 0.0 463.0 0.0 463.0 -76.0 168.0 -76.0 168.0 -692.0 76.0 -692.0 76.0 0.0 76.0 0.0" fill-rule="evenodd" stroke="none"/>
    </g>
    <g id="font_Myriad_Pro_P0">
      <path d="M168.0 -617.0 L168.0 -617.0 Q192.0 -624.0 251.0 -624.5 324.0 -624.5 367.5 -590.5 411.0 -556.5 412.0 -487.5 406.5 -343.0 241.0 -340.0 197.0 -339.5 168.0 -347.0 L168.0 -617.0 168.0 -617.0 M76.0 0.0 L76.0 0.0 168.0 0.0 168.0 -274.5 Q199.0 -267.5 239.0 -268.0 371.5 -268.5 449.0 -344.0 503.5 -398.0 504.0 -492.5 501.0 -586.5 441.5 -638.0 379.5 -694.5 249.0 -695.5 142.5 -694.5 76.0 -682.0 L76.0 0.0 76.0 0.0" fill-rule="evenodd" stroke="none"/>
    </g>
    <g id="font_Myriad_Pro_E0">
      <path d="M435.0 -399.5 L435.0 -399.5 168.0 -399.5 168.0 -616.0 451.5 -616.0 451.5 -692.0 76.0 -692.0 76.0 0.0 467.0 0.0 467.0 -76.0 168.0 -76.0 168.0 -324.5 435.0 -324.5 435.0 -399.5 435.0 -399.5" fill-rule="evenodd" stroke="none"/>
    </g>
    <g id="font_Myriad_Pro_R0">
      <path d="M168.0 -617.5 L168.0 -617.5 Q191.0 -624.0 255.0 -624.5 326.0 -624.5 368.5 -594.0 411.0 -563.5 412.0 -497.5 406.0 -374.0 258.0 -367.5 L168.0 -367.5 168.0 -617.5 168.0 -617.5 M76.0 0.0 L76.0 0.0 168.0 0.0 168.0 -296.5 251.0 -296.5 Q364.5 -298.5 389.0 -163.5 416.5 -33.0 434.5 0.0 L528.5 0.0 Q508.0 -42.0 474.5 -188.0 450.0 -296.5 372.5 -327.5 L372.5 -331.0 Q428.0 -350.5 465.5 -395.0 502.5 -439.5 504.0 -506.5 502.0 -589.5 448.0 -638.0 387.0 -696.0 249.0 -695.5 152.5 -694.5 76.0 -681.0 L76.0 0.0 76.0 0.0" fill-rule="evenodd" stroke="none"/>
    </g>
    <g id="font_Myriad_Pro_S0">
      <path d="M42.0 -34.0 L42.0 -34.0 Q71.0 -14.5 119.5 -1.5 168.0 11.5 219.0 12.0 340.0 9.5 400.0 -48.5 460.0 -106.5 460.0 -189.0 460.0 -264.0 415.5 -311.5 371.5 -359.0 284.0 -391.5 213.5 -418.0 180.5 -448.0 147.5 -477.5 148.0 -525.0 147.0 -562.5 177.5 -594.5 207.5 -626.5 277.0 -628.5 371.5 -622.0 406.5 -595.5 L431.5 -668.0 Q385.0 -700.0 280.0 -703.5 178.5 -702.0 118.0 -649.5 57.5 -597.0 56.0 -514.5 63.5 -375.0 239.0 -318.0 373.0 -271.5 368.0 -182.0 364.5 -70.5 225.0 -64.0 130.0 -67.5 65.5 -109.0 L42.0 -34.0 42.0 -34.0" fill-rule="evenodd" stroke="none"/>
    </g>
  </defs>
</svg>
