<?xml version="1.0" encoding="UTF-8" standalone="no"?>
<svg xmlns:ffdec="https://www.free-decompiler.com/flash" xmlns:xlink="http://www.w3.org/1999/xlink" ffdec:objectType="text" height="23.95px" width="76.7px" xmlns="http://www.w3.org/2000/svg">
  <g transform="matrix(1.0, 0.0, 0.0, 1.0, -304.1, 0.1)">
    <g transform="matrix(1.0, 0.0, 0.0, 1.0, 301.8, 0.0)">
      <use fill="#ffffff" height="23.95" transform="matrix(0.0293, 0.0, 0.0, 0.0293, 0.0, 23.0)" width="76.7" xlink:href="#font_Myriad_Pro_I0"/>
      <use fill="#ffffff" height="23.95" transform="matrix(0.0293, 0.0, 0.0, 0.0293, 7.2, 23.0)" width="76.7" xlink:href="#font_Myriad_Pro_C0"/>
      <use fill="#ffffff" height="23.95" transform="matrix(0.0293, 0.0, 0.0, 0.0293, 24.0, 23.0)" width="76.7" xlink:href="#font_Myriad_Pro_O0"/>
      <use fill="#ffffff" height="23.95" transform="matrix(0.0293, 0.0, 0.0, 0.0293, 44.7, 23.0)" width="76.7" xlink:href="#font_Myriad_Pro_N0"/>
      <use fill="#ffffff" height="23.95" transform="matrix(0.0293, 0.0, 0.0, 0.0293, 64.45, 23.0)" width="76.7" xlink:href="#font_Myriad_Pro_S0"/>
    </g>
  </g>
  <defs>
    <g id="font_Myriad_Pro_I0">
      <path d="M76.0 -692.0 L76.0 -692.0 76.0 0.0 168.0 0.0 168.0 -692.0 76.0 -692.0 76.0 -692.0" fill-rule="evenodd" stroke="none"/>
    </g>
    <g id="font_Myriad_Pro_C0">
      <path d="M542.5 -92.5 L542.5 -92.5 Q484.0 -65.0 396.0 -64.0 270.0 -65.5 201.5 -139.0 133.0 -213.0 132.0 -342.5 133.5 -479.5 206.0 -553.5 278.0 -627.0 401.0 -628.0 489.0 -626.0 539.5 -599.0 L562.0 -668.0 Q526.0 -699.0 398.0 -704.0 235.0 -701.5 137.0 -603.5 38.5 -505.0 36.0 -339.5 39.0 -167.5 134.0 -78.0 228.5 11.5 377.5 12.0 508.0 8.0 560.0 -21.0 L542.5 -92.5 542.5 -92.5" fill-rule="evenodd" stroke="none"/>
    </g>
    <g id="font_Myriad_Pro_O0">
      <path d="M353.0 -628.5 L353.0 -628.5 Q463.5 -624.0 518.0 -540.0 572.0 -456.0 572.0 -348.5 571.5 -228.5 515.0 -147.5 458.0 -67.0 352.0 -63.5 246.0 -67.0 189.0 -147.5 132.5 -228.0 132.0 -342.5 132.0 -458.5 187.0 -541.5 242.5 -624.5 353.0 -628.5 L353.0 -628.5 M356.0 -703.5 L356.0 -703.5 Q215.5 -701.5 127.5 -603.5 39.0 -506.0 36.0 -340.5 38.5 -182.0 123.0 -86.5 208.0 9.0 347.0 11.5 482.0 11.0 573.0 -82.5 664.5 -175.5 668.0 -352.5 666.0 -509.0 582.5 -605.0 499.5 -701.0 356.0 -703.5 L356.0 -703.5" fill-rule="evenodd" stroke="none"/>
    </g>
    <g id="font_Myriad_Pro_N0">
      <path d="M160.0 0.0 L160.0 0.0 160.0 -295.5 Q160.0 -380.0 159.0 -447.5 157.5 -515.0 154.0 -579.5 L157.0 -580.5 Q210.5 -466.5 285.5 -350.0 L506.0 0.0 596.0 0.0 596.0 -691.5 512.0 -691.5 512.0 -401.0 Q511.0 -251.5 522.5 -120.5 L519.0 -119.5 Q471.5 -224.0 395.5 -343.5 L174.5 -692.0 76.0 -692.0 76.0 -0.5 160.0 0.0 160.0 0.0" fill-rule="evenodd" stroke="none"/>
    </g>
    <g id="font_Myriad_Pro_S0">
      <path d="M42.0 -34.0 L42.0 -34.0 Q71.0 -14.5 119.5 -1.5 168.0 11.5 219.0 12.0 340.0 9.5 400.0 -48.5 460.0 -106.5 460.0 -189.0 460.0 -264.0 415.5 -311.5 371.5 -359.0 284.0 -391.5 213.5 -418.0 180.5 -448.0 147.5 -477.5 148.0 -525.0 147.0 -562.5 177.5 -594.5 207.5 -626.5 277.0 -628.5 371.5 -622.0 406.5 -595.5 L431.5 -668.0 Q385.0 -700.0 280.0 -703.5 178.5 -702.0 118.0 -649.5 57.5 -597.0 56.0 -514.5 63.5 -375.0 239.0 -318.0 373.0 -271.5 368.0 -182.0 364.5 -70.5 225.0 -64.0 130.0 -67.5 65.5 -109.0 L42.0 -34.0 42.0 -34.0" fill-rule="evenodd" stroke="none"/>
    </g>
  </defs>
</svg>
