<?xml version="1.0" encoding="UTF-8" standalone="no"?>
<svg xmlns:ffdec="https://www.free-decompiler.com/flash" xmlns:xlink="http://www.w3.org/1999/xlink" ffdec:objectType="text" height="23.4px" width="88.7px" xmlns="http://www.w3.org/2000/svg">
  <g transform="matrix(1.0, 0.0, 0.0, 1.0, -0.3, -0.1)">
    <g transform="matrix(1.0, 0.0, 0.0, 1.0, 0.0, 0.0)">
      <use fill="#0097fc" height="23.4" transform="matrix(0.0293, 0.0, 0.0, 0.0293, 0.0, 23.0)" width="88.7" xlink:href="#font_Myriad_Pro_Cond_T0"/>
      <use fill="#0097fc" height="23.4" transform="matrix(0.0293, 0.0, 0.0, 0.0293, 10.5, 23.0)" width="88.7" xlink:href="#font_Myriad_Pro_Cond_R0"/>
      <use fill="#0097fc" height="23.4" transform="matrix(0.0293, 0.0, 0.0, 0.0293, 23.3, 23.0)" width="88.7" xlink:href="#font_Myriad_Pro_Cond_A0"/>
      <use fill="#0097fc" height="23.4" transform="matrix(0.0293, 0.0, 0.0, 0.0293, 35.75, 23.0)" width="88.7" xlink:href="#font_Myriad_Pro_Cond_I0"/>
      <use fill="#0097fc" height="23.4" transform="matrix(0.0293, 0.0, 0.0, 0.0293, 41.9, 23.0)" width="88.7" xlink:href="#font_Myriad_Pro_Cond_L0"/>
      <use fill="#0097fc" height="23.4" transform="matrix(0.0293, 0.0, 0.0, 0.0293, 52.0, 23.0)" width="88.7" xlink:href="#font_Myriad_Pro_Cond_E0"/>
      <use fill="#0097fc" height="23.4" transform="matrix(0.0293, 0.0, 0.0, 0.0293, 62.5, 23.0)" width="88.7" xlink:href="#font_Myriad_Pro_Cond_R0"/>
      <use fill="#0097fc" height="23.4" transform="matrix(0.0293, 0.0, 0.0, 0.0293, 78.75, 23.0)" width="88.7" xlink:href="#font_Myriad_Pro_Cond_10"/>
    </g>
  </g>
  <defs>
    <g id="font_Myriad_Pro_Cond_T0">
      <path d="M132.0 0.0 L132.0 0.0 268.0 0.0 268.0 -568.0 391.0 -568.0 391.0 -692.0 10.0 -692.0 10.0 -568.0 132.0 -568.0 132.0 0.0 132.0 0.0" fill-rule="evenodd" stroke="none"/>
    </g>
    <g id="font_Myriad_Pro_Cond_R0">
      <path d="M196.0 -584.5 L196.0 -584.5 Q208.0 -588.5 227.5 -588.5 311.0 -580.0 308.0 -486.5 308.0 -440.5 285.0 -410.5 262.5 -381.0 219.5 -379.5 L196.0 -379.5 196.0 -584.5 196.0 -584.5 M60.0 0.0 L60.0 0.0 196.0 0.0 196.0 -276.5 216.0 -276.5 Q247.5 -277.5 265.0 -253.5 282.5 -229.0 291.0 -166.5 299.0 -107.5 308.5 -61.5 318.0 -16.0 325.5 0.0 L465.5 0.0 Q456.0 -21.5 444.0 -74.5 431.5 -128.0 421.5 -188.0 405.0 -298.5 337.5 -325.5 L337.5 -327.5 Q443.0 -382.0 444.0 -499.0 447.5 -586.0 389.0 -643.0 319.0 -700.0 208.0 -695.5 127.5 -695.0 60.0 -682.0 L60.0 0.0 60.0 0.0" fill-rule="evenodd" stroke="none"/>
    </g>
    <g id="font_Myriad_Pro_Cond_A0">
      <path d="M183.5 -263.5 L183.5 -263.5 209.5 -407.5 Q215.0 -439.5 221.5 -483.5 228.5 -528.0 234.0 -564.0 L237.0 -564.0 Q242.0 -528.5 248.0 -484.5 254.5 -440.5 260.0 -407.5 L282.5 -263.5 183.5 -263.5 183.5 -263.5 M295.0 -156.5 L295.0 -156.5 324.5 0.0 455.5 0.0 320.5 -692.0 159.0 -692.0 8.5 0.0 139.5 0.0 170.0 -156.5 295.0 -156.5 295.0 -156.5" fill-rule="evenodd" stroke="none"/>
    </g>
    <g id="font_Myriad_Pro_Cond_I0">
      <path d="M60.0 -692.0 L60.0 -692.0 60.0 0.0 196.0 0.0 196.0 -692.0 60.0 -692.0 60.0 -692.0" fill-rule="evenodd" stroke="none"/>
    </g>
    <g id="font_Myriad_Pro_Cond_L0">
      <path d="M60.0 -0.5 L60.0 -0.5 372.0 -0.5 372.0 -115.5 196.0 -115.5 196.0 -692.0 60.0 -692.0 60.0 -0.5 60.0 -0.5" fill-rule="evenodd" stroke="none"/>
    </g>
    <g id="font_Myriad_Pro_Cond_E0">
      <path d="M352.5 -416.0 L352.5 -416.0 196.0 -416.0 196.0 -572.5 362.0 -572.5 362.0 -691.5 60.0 -691.5 60.0 -0.5 373.0 -0.5 373.0 -119.5 196.0 -119.5 196.0 -304.0 352.5 -304.0 352.5 -416.0 352.5 -416.0" fill-rule="evenodd" stroke="none"/>
    </g>
    <g id="font_Myriad_Pro_Cond_10">
      <path d="M180.0 0.0 L180.0 0.0 316.0 0.0 316.0 -664.0 196.0 -664.0 43.0 -585.5 65.5 -480.0 178.0 -538.5 180.0 -538.5 180.0 0.0 180.0 0.0" fill-rule="evenodd" stroke="none"/>
    </g>
  </defs>
</svg>
