<?xml version="1.0" encoding="UTF-8" standalone="no"?>
<svg xmlns:ffdec="https://www.free-decompiler.com/flash" xmlns:xlink="http://www.w3.org/1999/xlink" ffdec:objectType="text" height="11.4px" width="69.85px" xmlns="http://www.w3.org/2000/svg">
  <g transform="matrix(1.0, 0.0, 0.0, 1.0, -0.4, 1.25)">
    <g transform="matrix(1.0, 0.0, 0.0, 1.0, 0.0, 0.0)">
      <use fill="#064a78" height="11.4" transform="matrix(0.0117, 0.0, 0.0, 0.0117, 0.0, 9.0)" width="69.85" xlink:href="#font_Myriad_Pro_C0"/>
      <use fill="#064a78" height="11.4" transform="matrix(0.0117, 0.0, 0.0, 0.0117, 7.15, 9.0)" width="69.85" xlink:href="#font_Myriad_Pro_L0"/>
      <use fill="#064a78" height="11.4" transform="matrix(0.0117, 0.0, 0.0, 0.0117, 13.25, 9.0)" width="69.85" xlink:href="#font_Myriad_Pro_I0"/>
      <use fill="#064a78" height="11.4" transform="matrix(0.0117, 0.0, 0.0, 0.0117, 16.65, 9.0)" width="69.85" xlink:href="#font_Myriad_Pro_C0"/>
      <use fill="#064a78" height="11.4" transform="matrix(0.0117, 0.0, 0.0, 0.0117, 23.8, 9.0)" width="69.85" xlink:href="#font_Myriad_Pro_K0"/>
      <use fill="#064a78" height="11.4" transform="matrix(0.0117, 0.0, 0.0, 0.0117, 33.1, 9.0)" width="69.85" xlink:href="#font_Myriad_Pro_T0"/>
      <use fill="#064a78" height="11.4" transform="matrix(0.0117, 0.0, 0.0, 0.0117, 39.35, 9.0)" width="69.85" xlink:href="#font_Myriad_Pro_O0"/>
      <use fill="#064a78" height="11.4" transform="matrix(0.0117, 0.0, 0.0, 0.0117, 50.4, 9.0)" width="69.85" xlink:href="#font_Myriad_Pro_S0"/>
      <use fill="#064a78" height="11.4" transform="matrix(0.0117, 0.0, 0.0, 0.0117, 56.9, 9.0)" width="69.85" xlink:href="#font_Myriad_Pro_E0"/>
      <use fill="#064a78" height="11.4" transform="matrix(0.0117, 0.0, 0.0, 0.0117, 63.3, 9.0)" width="69.85" xlink:href="#font_Myriad_Pro_E0"/>
    </g>
  </g>
  <defs>
    <g id="font_Myriad_Pro_C0">
      <path d="M551.0 -142.5 L551.0 -142.5 Q497.5 -121.0 420.0 -120.0 315.5 -121.0 258.0 -180.5 200.5 -240.0 199.5 -344.5 202.0 -459.0 263.0 -515.5 324.5 -572.0 419.0 -572.0 503.5 -569.0 550.0 -546.5 L582.5 -668.0 Q537.5 -696.5 412.5 -700.0 252.0 -699.0 144.0 -605.5 36.5 -512.0 32.5 -335.0 32.5 -185.0 125.0 -88.0 217.5 8.5 397.5 12.0 527.0 7.0 573.5 -18.0 L551.0 -142.5 551.0 -142.5" fill-rule="evenodd" stroke="none"/>
    </g>
    <g id="font_Myriad_Pro_L0">
      <path d="M68.0 0.0 L68.0 0.0 498.5 0.0 498.5 -132.0 224.0 -132.0 224.0 -692.0 68.0 -692.0 68.0 0.0 68.0 0.0" fill-rule="evenodd" stroke="none"/>
    </g>
    <g id="font_Myriad_Pro_I0">
      <path d="M68.0 -692.0 L68.0 -692.0 68.0 0.0 224.0 0.0 224.0 -692.0 68.0 -692.0 68.0 -692.0" fill-rule="evenodd" stroke="none"/>
    </g>
    <g id="font_Myriad_Pro_K0">
      <path d="M68.0 0.0 L68.0 0.0 224.0 0.0 224.0 -226.0 282.5 -299.0 452.5 0.0 633.5 0.0 394.0 -397.5 622.5 -692.0 430.0 -692.0 274.0 -462.0 Q249.5 -425.5 226.0 -386.0 L224.0 -386.0 224.0 -692.0 68.0 -692.0 68.0 0.0 68.0 0.0" fill-rule="evenodd" stroke="none"/>
    </g>
    <g id="font_Myriad_Pro_T0">
      <path d="M200.0 0.0 L200.0 0.0 356.0 0.0 356.0 -560.0 544.0 -560.0 544.0 -692.0 14.0 -692.0 14.0 -560.0 200.0 -560.0 200.0 0.0 200.0 0.0" fill-rule="evenodd" stroke="none"/>
    </g>
    <g id="font_Myriad_Pro_O0">
      <path d="M369.0 -580.0 L369.0 -580.0 Q448.5 -577.5 490.5 -511.0 532.0 -444.5 532.5 -347.5 532.0 -244.5 489.5 -179.0 447.5 -114.0 369.0 -112.0 291.0 -113.5 247.5 -177.0 204.5 -240.0 203.5 -344.5 204.0 -447.5 247.0 -513.0 290.0 -578.0 369.0 -580.0 L369.0 -580.0 M372.0 -704.0 L372.0 -704.0 Q219.5 -701.0 129.0 -600.5 38.5 -500.5 36.5 -341.5 37.5 -189.0 123.0 -90.5 208.0 8.5 361.0 12.0 513.5 10.5 605.5 -84.5 697.5 -180.0 699.5 -352.5 699.0 -501.0 614.5 -600.5 530.5 -700.0 372.0 -704.0 L372.0 -704.0" fill-rule="evenodd" stroke="none"/>
    </g>
    <g id="font_Myriad_Pro_S0">
      <path d="M40.0 -35.0 L40.0 -35.0 Q70.5 -18.0 123.0 -5.5 176.0 7.5 237.0 8.0 379.0 5.5 448.0 -55.5 516.5 -116.5 516.0 -205.5 518.5 -346.5 336.5 -409.5 269.0 -433.5 238.5 -454.0 207.5 -474.5 208.0 -506.0 207.5 -565.0 308.5 -572.0 411.0 -565.5 453.0 -539.5 L488.0 -664.0 Q428.0 -697.5 311.0 -700.0 187.5 -698.0 118.5 -640.5 49.0 -583.0 48.0 -493.0 49.0 -418.5 100.5 -369.0 152.0 -319.5 240.0 -289.5 360.5 -252.5 356.0 -194.0 355.0 -123.5 246.0 -120.0 139.5 -125.5 71.5 -162.5 L40.0 -35.0 40.0 -35.0" fill-rule="evenodd" stroke="none"/>
    </g>
    <g id="font_Myriad_Pro_E0">
      <path d="M478.0 -420.0 L478.0 -420.0 224.0 -420.0 224.0 -564.0 493.0 -564.0 493.0 -692.0 68.0 -692.0 68.0 0.0 507.5 0.0 507.5 -128.0 224.0 -128.0 224.0 -292.0 478.0 -292.0 478.0 -420.0 478.0 -420.0" fill-rule="evenodd" stroke="none"/>
    </g>
  </defs>
</svg>
