<?xml version="1.0" encoding="UTF-8" standalone="no"?>
<svg xmlns:ffdec="https://www.free-decompiler.com/flash" xmlns:xlink="http://www.w3.org/1999/xlink" ffdec:objectType="text" height="9.7px" width="53.45px" xmlns="http://www.w3.org/2000/svg">
  <g transform="matrix(1.0, 0.0, 0.0, 1.0, -0.85, 1.1)">
    <g transform="matrix(1.0, 0.0, 0.0, 1.0, 0.0, 0.0)">
      <use fill="#ffffff" height="9.7" transform="matrix(0.0098, 0.0, 0.0, 0.0098, 0.0, 8.0)" width="53.45" xlink:href="#font_Myriad_Pro_10"/>
      <use fill="#ffffff" height="9.7" transform="matrix(0.0098, 0.0, 0.0, 0.0098, 5.55, 8.0)" width="53.45" xlink:href="#font_Myriad_Pro_90"/>
      <use fill="#ffffff" height="9.7" transform="matrix(0.0098, 0.0, 0.0, 0.0098, 11.1, 8.0)" width="53.45" xlink:href="#font_Myriad_Pro_20"/>
      <use fill="#ffffff" height="9.7" transform="matrix(0.0098, 0.0, 0.0, 0.0098, 16.65, 8.0)" width="53.45" xlink:href="#font_Myriad_Pro_00"/>
      <use fill="#ffffff" height="9.7" transform="matrix(0.0098, 0.0, 0.0, 0.0098, 24.2, 8.0)" width="53.45" xlink:href="#font_Myriad_Pro_x0"/>
      <use fill="#ffffff" height="9.7" transform="matrix(0.0098, 0.0, 0.0, 0.0098, 31.4, 8.0)" width="53.45" xlink:href="#font_Myriad_Pro_10"/>
      <use fill="#ffffff" height="9.7" transform="matrix(0.0098, 0.0, 0.0, 0.0098, 36.95, 8.0)" width="53.45" xlink:href="#font_Myriad_Pro_20"/>
      <use fill="#ffffff" height="9.7" transform="matrix(0.0098, 0.0, 0.0, 0.0098, 42.5, 8.0)" width="53.45" xlink:href="#font_Myriad_Pro_00"/>
      <use fill="#ffffff" height="9.7" transform="matrix(0.0098, 0.0, 0.0, 0.0098, 48.05, 8.0)" width="53.45" xlink:href="#font_Myriad_Pro_00"/>
    </g>
  </g>
  <defs>
    <g id="font_Myriad_Pro_10">
      <path d="M240.0 0.0 L240.0 0.0 392.0 0.0 392.0 -664.0 262.5 -664.0 85.5 -582.5 111.0 -466.0 238.0 -526.0 240.0 -526.0 240.0 0.0 240.0 0.0" fill-rule="evenodd" stroke="none"/>
    </g>
    <g id="font_Myriad_Pro_90">
      <path d="M276.0 -560.0 L276.0 -560.0 Q329.0 -558.0 351.0 -517.0 373.5 -476.0 372.0 -421.5 372.5 -395.5 365.0 -382.5 343.5 -344.0 280.0 -340.0 234.5 -341.5 211.0 -371.5 188.0 -401.5 188.0 -445.0 194.0 -554.0 276.0 -560.0 L276.0 -560.0 M93.0 7.5 L93.0 7.5 Q122.5 10.0 164.0 7.5 319.0 1.5 415.0 -86.5 528.0 -183.0 532.0 -389.5 532.0 -508.0 470.5 -590.0 408.5 -672.5 282.0 -676.0 171.5 -673.0 103.0 -604.0 34.0 -535.0 32.0 -436.0 34.5 -338.0 93.5 -283.5 152.5 -229.0 239.0 -228.0 327.0 -229.0 370.0 -276.5 L372.0 -275.5 Q355.0 -198.5 290.0 -154.5 236.0 -120.0 161.0 -115.5 119.5 -113.5 93.0 -115.5 L93.0 7.5 93.0 7.5" fill-rule="evenodd" stroke="none"/>
    </g>
    <g id="font_Myriad_Pro_20">
      <path d="M517.0 0.0 L517.0 0.0 517.0 -128.0 265.0 -128.0 265.0 -130.0 326.5 -181.0 Q401.5 -244.0 451.5 -313.5 502.0 -383.0 504.0 -466.0 503.5 -558.0 444.0 -616.0 384.5 -674.0 270.5 -675.5 132.0 -669.5 53.5 -605.5 L97.5 -494.5 Q151.5 -540.5 239.5 -548.5 351.5 -540.5 348.0 -452.0 347.5 -396.0 293.5 -331.0 239.5 -266.5 130.0 -170.5 L45.0 -94.0 45.0 0.0 517.0 0.0 517.0 0.0" fill-rule="evenodd" stroke="none"/>
    </g>
    <g id="font_Myriad_Pro_00">
      <path d="M284.5 -556.5 L284.5 -556.5 Q380.0 -554.5 380.0 -333.0 379.0 -107.5 285.5 -107.5 191.5 -106.0 188.0 -331.0 193.5 -559.5 284.5 -556.5 L284.5 -556.5 M286.5 -675.5 L286.5 -675.5 Q157.0 -672.0 94.5 -575.5 32.0 -478.5 32.0 -331.0 32.0 -187.0 92.5 -89.5 153.0 8.0 282.5 11.5 410.0 9.0 473.0 -85.5 536.0 -180.0 536.0 -335.0 537.0 -475.0 478.0 -573.0 419.5 -671.5 286.5 -675.5 L286.5 -675.5" fill-rule="evenodd" stroke="none"/>
    </g>
    <g id="font_Myriad_Pro_x0">
      <path d="M8.0 -500.0 L8.0 -500.0 174.0 -256.0 4.0 0.0 175.0 0.0 222.0 -90.5 Q241.0 -127.0 260.0 -166.5 L263.0 -166.5 Q281.0 -127.5 302.0 -90.5 L352.0 0.0 528.0 0.0 361.0 -263.0 526.0 -500.0 357.0 -500.0 313.0 -418.5 Q293.5 -383.0 274.0 -342.5 L272.0 -342.5 Q252.5 -379.0 231.0 -416.5 L182.0 -500.0 8.0 -500.0 8.0 -500.0" fill-rule="evenodd" stroke="none"/>
    </g>
  </defs>
</svg>
