<?xml version="1.0" encoding="UTF-8" standalone="no"?>
<svg xmlns:ffdec="https://www.free-decompiler.com/flash" xmlns:xlink="http://www.w3.org/1999/xlink" ffdec:objectType="text" height="9.7px" width="53.55px" xmlns="http://www.w3.org/2000/svg">
  <g transform="matrix(1.0, 0.0, 0.0, 1.0, -0.85, 1.1)">
    <g transform="matrix(1.0, 0.0, 0.0, 1.0, 0.0, 0.0)">
      <use fill="#ffffff" height="9.7" transform="matrix(0.0098, 0.0, 0.0, 0.0098, 0.0, 8.0)" width="53.55" xlink:href="#font_Myriad_Pro_10"/>
      <use fill="#ffffff" height="9.7" transform="matrix(0.0098, 0.0, 0.0, 0.0098, 5.55, 8.0)" width="53.55" xlink:href="#font_Myriad_Pro_20"/>
      <use fill="#ffffff" height="9.7" transform="matrix(0.0098, 0.0, 0.0, 0.0098, 11.1, 8.0)" width="53.55" xlink:href="#font_Myriad_Pro_80"/>
      <use fill="#ffffff" height="9.7" transform="matrix(0.0098, 0.0, 0.0, 0.0098, 16.65, 8.0)" width="53.55" xlink:href="#font_Myriad_Pro_00"/>
      <use fill="#ffffff" height="9.7" transform="matrix(0.0098, 0.0, 0.0, 0.0098, 24.2, 8.0)" width="53.55" xlink:href="#font_Myriad_Pro_x0"/>
      <use fill="#ffffff" height="9.7" transform="matrix(0.0098, 0.0, 0.0, 0.0098, 31.4, 8.0)" width="53.55" xlink:href="#font_Myriad_Pro_10"/>
      <use fill="#ffffff" height="9.7" transform="matrix(0.0098, 0.0, 0.0, 0.0098, 36.95, 8.0)" width="53.55" xlink:href="#font_Myriad_Pro_00"/>
      <use fill="#ffffff" height="9.7" transform="matrix(0.0098, 0.0, 0.0, 0.0098, 42.5, 8.0)" width="53.55" xlink:href="#font_Myriad_Pro_20"/>
      <use fill="#ffffff" height="9.7" transform="matrix(0.0098, 0.0, 0.0, 0.0098, 48.05, 8.0)" width="53.55" xlink:href="#font_Myriad_Pro_40"/>
    </g>
  </g>
  <defs>
    <g id="font_Myriad_Pro_10">
      <path d="M240.0 0.0 L240.0 0.0 392.0 0.0 392.0 -664.0 262.5 -664.0 85.5 -582.5 111.0 -466.0 238.0 -526.0 240.0 -526.0 240.0 0.0 240.0 0.0" fill-rule="evenodd" stroke="none"/>
    </g>
    <g id="font_Myriad_Pro_20">
      <path d="M517.0 0.0 L517.0 0.0 517.0 -128.0 265.0 -128.0 265.0 -130.0 326.5 -181.0 Q401.5 -244.0 451.5 -313.5 502.0 -383.0 504.0 -466.0 503.5 -558.0 444.0 -616.0 384.5 -674.0 270.5 -675.5 132.0 -669.5 53.5 -605.5 L97.5 -494.5 Q151.5 -540.5 239.5 -548.5 351.5 -540.5 348.0 -452.0 347.5 -396.0 293.5 -331.0 239.5 -266.5 130.0 -170.5 L45.0 -94.0 45.0 0.0 517.0 0.0 517.0 0.0" fill-rule="evenodd" stroke="none"/>
    </g>
    <g id="font_Myriad_Pro_80">
      <path d="M283.5 -568.5 L283.5 -568.5 Q326.0 -567.0 345.0 -543.0 364.5 -518.5 364.0 -486.0 357.0 -421.0 296.5 -402.5 210.5 -426.0 203.5 -492.0 203.5 -560.5 283.5 -568.5 L283.5 -568.5 M285.5 -96.0 L285.5 -96.0 Q241.5 -97.0 216.5 -124.0 191.5 -151.0 192.0 -188.5 194.0 -263.0 272.5 -287.0 369.0 -264.0 376.0 -178.5 371.0 -102.0 285.5 -96.0 L285.5 -96.0 M152.5 -339.0 L152.5 -339.0 Q36.5 -292.0 32.0 -173.0 31.5 -102.5 92.5 -47.0 153.0 8.5 279.5 12.0 397.0 10.5 465.5 -44.0 534.5 -99.0 536.0 -190.5 534.5 -254.0 499.0 -295.0 463.0 -336.0 412.0 -354.5 L412.0 -357.5 Q513.5 -412.0 512.0 -503.0 513.0 -567.0 460.0 -619.5 407.0 -672.5 290.5 -675.5 188.5 -674.5 123.5 -623.5 58.5 -572.5 56.5 -487.0 56.0 -395.5 152.5 -341.0 L152.5 -339.0 152.5 -339.0" fill-rule="evenodd" stroke="none"/>
    </g>
    <g id="font_Myriad_Pro_00">
      <path d="M284.5 -556.5 L284.5 -556.5 Q380.0 -554.5 380.0 -333.0 379.0 -107.5 285.5 -107.5 191.5 -106.0 188.0 -331.0 193.5 -559.5 284.5 -556.5 L284.5 -556.5 M286.5 -675.5 L286.5 -675.5 Q157.0 -672.0 94.5 -575.5 32.0 -478.5 32.0 -331.0 32.0 -187.0 92.5 -89.5 153.0 8.0 282.5 11.5 410.0 9.0 473.0 -85.5 536.0 -180.0 536.0 -335.0 537.0 -475.0 478.0 -573.0 419.5 -671.5 286.5 -675.5 L286.5 -675.5" fill-rule="evenodd" stroke="none"/>
    </g>
    <g id="font_Myriad_Pro_x0">
      <path d="M8.0 -500.0 L8.0 -500.0 174.0 -256.0 4.0 0.0 175.0 0.0 222.0 -90.5 Q241.0 -127.0 260.0 -166.5 L263.0 -166.5 Q281.0 -127.5 302.0 -90.5 L352.0 0.0 528.0 0.0 361.0 -263.0 526.0 -500.0 357.0 -500.0 313.0 -418.5 Q293.5 -383.0 274.0 -342.5 L272.0 -342.5 Q252.5 -379.0 231.0 -416.5 L182.0 -500.0 8.0 -500.0 8.0 -500.0" fill-rule="evenodd" stroke="none"/>
    </g>
    <g id="font_Myriad_Pro_40">
      <path d="M169.5 -276.0 L169.5 -276.0 171.0 -278.0 259.0 -421.5 Q291.0 -482.0 321.5 -544.0 L324.5 -544.0 Q321.0 -480.5 320.5 -421.5 L320.5 -276.0 169.5 -276.0 169.5 -276.0 M467.5 0.0 L467.5 0.0 467.5 -160.0 546.5 -160.0 546.5 -276.0 467.5 -276.0 467.5 -664.0 276.0 -664.0 25.5 -260.5 25.5 -160.0 320.5 -160.0 320.5 0.0 467.5 0.0 467.5 0.0" fill-rule="evenodd" stroke="none"/>
    </g>
  </defs>
</svg>
