<?xml version="1.0" encoding="UTF-8" standalone="no"?>
<svg xmlns:ffdec="https://www.free-decompiler.com/flash" xmlns:xlink="http://www.w3.org/1999/xlink" ffdec:objectType="text" height="11.3px" width="39.4px" xmlns="http://www.w3.org/2000/svg">
  <g transform="matrix(1.0, 0.0, 0.0, 1.0, -0.55, -0.85)">
    <g transform="matrix(1.0, 0.0, 0.0, 1.0, 0.0, 0.0)">
      <use fill="#ff0000" height="11.3" transform="matrix(0.0107, 0.0, 0.0, 0.0107, 0.0, 11.0)" width="39.4" xlink:href="#font_Verdana_C0"/>
      <use fill="#ff0000" height="11.3" transform="matrix(0.0107, 0.0, 0.0, 0.0107, 7.95, 11.0)" width="39.4" xlink:href="#font_Verdana_L0"/>
      <use fill="#ff0000" height="11.3" transform="matrix(0.0107, 0.0, 0.0, 0.0107, 14.95, 11.0)" width="39.4" xlink:href="#font_Verdana_O0"/>
      <use fill="#ff0000" height="11.3" transform="matrix(0.0107, 0.0, 0.0, 0.0107, 24.3, 11.0)" width="39.4" xlink:href="#font_Verdana_S0"/>
      <use fill="#ff0000" height="11.3" transform="matrix(0.0107, 0.0, 0.0, 0.0107, 32.1, 11.0)" width="39.4" xlink:href="#font_Verdana_E0"/>
    </g>
  </g>
  <defs>
    <g id="font_Verdana_C0">
      <path d="M430.0 16.0 L430.0 16.0 Q485.5 16.0 517.5 10.5 549.5 5.0 585.5 -5.5 613.5 -13.5 639.0 -25.0 664.0 -36.0 692.0 -48.5 L692.0 -228.0 672.0 -228.0 Q659.0 -216.0 638.0 -199.0 617.0 -182.5 593.0 -167.5 564.0 -149.5 530.0 -138.5 496.5 -128.0 461.5 -128.0 425.5 -128.0 388.5 -140.0 351.0 -151.5 321.0 -179.0 291.0 -206.0 271.5 -253.5 252.0 -300.5 252.0 -370.5 252.0 -438.0 270.0 -485.0 288.0 -532.0 317.5 -561.0 348.0 -590.5 384.5 -603.0 420.5 -616.0 460.5 -616.0 497.0 -616.0 528.5 -605.0 560.0 -593.5 587.5 -577.5 614.0 -561.5 635.5 -545.0 656.5 -528.0 670.0 -516.0 L692.0 -516.0 692.0 -697.5 Q671.5 -707.5 644.5 -719.5 617.5 -731.5 584.0 -741.0 552.5 -749.5 514.5 -754.5 477.0 -760.0 430.5 -760.0 346.0 -760.0 274.5 -733.0 203.0 -706.0 155.0 -656.0 104.5 -604.5 78.5 -532.5 52.0 -460.0 52.0 -371.0 52.0 -276.0 79.5 -203.0 107.0 -130.5 157.5 -82.0 207.5 -33.0 277.5 -8.5 347.5 16.0 430.0 16.0" fill-rule="evenodd" stroke="none"/>
    </g>
    <g id="font_Verdana_L0">
      <path d="M632.0 -144.0 L632.0 -144.0 288.0 -144.0 288.0 -744.0 96.0 -744.0 96.0 0.0 632.0 0.0 632.0 -144.0" fill-rule="evenodd" stroke="none"/>
    </g>
    <g id="font_Verdana_O0">
      <path d="M565.0 -182.5 L565.0 -182.5 Q540.0 -152.5 506.5 -138.5 473.0 -124.0 436.5 -124.0 399.5 -124.0 366.0 -138.0 332.5 -152.0 307.5 -181.5 282.5 -211.0 267.0 -258.0 252.0 -305.0 252.0 -371.5 252.0 -437.0 267.5 -486.5 283.5 -535.5 308.5 -564.0 335.5 -594.0 367.5 -607.0 400.0 -620.0 436.5 -620.0 472.0 -620.0 505.5 -606.5 538.5 -593.0 564.0 -563.0 589.0 -533.5 604.5 -486.5 620.0 -439.5 620.0 -372.0 620.0 -309.5 606.5 -263.0 593.0 -216.5 565.0 -182.5 M820.0 -371.5 L820.0 -371.5 Q820.0 -551.5 717.5 -655.5 615.0 -760.0 436.0 -760.0 256.0 -760.0 154.0 -655.5 52.0 -551.5 52.0 -371.5 52.0 -193.5 154.0 -89.0 256.0 16.0 436.0 16.0 616.0 16.0 718.0 -89.0 820.0 -193.5 820.0 -371.5" fill-rule="evenodd" stroke="none"/>
    </g>
    <g id="font_Verdana_S0">
      <path d="M692.0 -233.0 L692.0 -233.0 Q692.0 -310.5 651.0 -359.0 610.0 -407.5 524.5 -435.5 481.0 -449.5 443.0 -457.5 405.0 -465.5 364.0 -474.5 301.0 -487.5 278.5 -503.0 256.0 -519.0 256.0 -548.5 256.0 -569.0 270.0 -584.5 284.0 -600.5 304.0 -608.0 326.0 -617.5 350.0 -620.5 374.0 -624.0 398.0 -624.0 466.5 -624.0 532.5 -600.0 598.0 -576.0 643.5 -540.0 L664.0 -540.0 664.0 -710.5 Q611.0 -731.5 538.5 -746.0 466.0 -760.0 392.0 -760.0 244.0 -760.0 150.0 -694.0 56.0 -627.5 56.0 -523.0 56.0 -445.0 97.5 -392.5 139.0 -340.0 233.0 -309.5 274.5 -295.5 321.0 -287.0 368.0 -278.0 410.0 -268.0 450.5 -258.5 471.0 -240.5 492.0 -223.0 492.0 -198.0 492.0 -170.5 477.5 -157.0 463.5 -143.0 441.5 -133.5 423.5 -126.0 395.0 -123.0 366.0 -120.0 348.5 -120.0 280.5 -120.0 206.5 -146.0 132.5 -171.5 73.0 -220.0 L52.0 -220.0 52.0 -41.5 Q112.5 -16.5 181.5 0.0 250.5 16.0 343.5 16.0 504.5 16.0 598.5 -53.0 692.0 -122.5 692.0 -233.0" fill-rule="evenodd" stroke="none"/>
    </g>
    <g id="font_Verdana_E0">
      <path d="M636.0 -144.0 L636.0 -144.0 288.0 -144.0 288.0 -328.0 612.0 -328.0 612.0 -472.0 288.0 -472.0 288.0 -600.0 636.0 -600.0 636.0 -744.0 96.0 -744.0 96.0 0.0 636.0 0.0 636.0 -144.0" fill-rule="evenodd" stroke="none"/>
    </g>
  </defs>
</svg>
