<?xml version="1.0" encoding="UTF-8" standalone="no"?>
<svg xmlns:ffdec="https://www.free-decompiler.com/flash" xmlns:xlink="http://www.w3.org/1999/xlink" ffdec:objectType="text" height="25.65px" width="113.1px" xmlns="http://www.w3.org/2000/svg">
  <g transform="matrix(1.0, 0.0, 0.0, 1.0, -3.2, -6.65)">
    <g transform="matrix(1.0, 0.0, 0.0, 1.0, 0.0, 0.0)">
      <use fill="#004080" height="25.65" transform="matrix(0.0254, 0.0, 0.0, 0.0254, 2.0, 31.0)" width="113.1" xlink:href="#font_Bebas_G0"/>
    </g>
    <g transform="matrix(1.0, 0.0, 0.0, 1.0, 0.0, 0.0)">
      <use fill="#004080" height="25.65" transform="matrix(0.0254, 0.0, 0.0, 0.0254, 15.1, 31.0)" width="113.1" xlink:href="#font_Bebas_A0"/>
      <use fill="#004080" height="25.65" transform="matrix(0.0254, 0.0, 0.0, 0.0254, 30.75, 31.0)" width="113.1" xlink:href="#font_Bebas_M0"/>
      <use fill="#004080" height="25.65" transform="matrix(0.0254, 0.0, 0.0, 0.0254, 50.0, 31.0)" width="113.1" xlink:href="#font_Bebas_E0"/>
    </g>
    <g transform="matrix(1.0, 0.0, 0.0, 1.0, 0.0, 0.0)">
      <use fill="#004080" height="25.65" transform="matrix(0.0254, 0.0, 0.0, 0.0254, 63.0, 31.0)" width="113.1" xlink:href="#font_Bebas_P0"/>
      <use fill="#004080" height="25.65" transform="matrix(0.0254, 0.0, 0.0, 0.0254, 76.35, 31.0)" width="113.1" xlink:href="#font_Bebas_L0"/>
    </g>
    <g transform="matrix(1.0, 0.0, 0.0, 1.0, 0.0, 0.0)">
      <use fill="#004080" height="25.65" transform="matrix(0.0254, 0.0, 0.0, 0.0254, 88.25, 31.0)" width="113.1" xlink:href="#font_Bebas_A0"/>
    </g>
    <g transform="matrix(1.0, 0.0, 0.0, 1.0, 0.0, 0.0)">
      <use fill="#004080" height="25.65" transform="matrix(0.0254, 0.0, 0.0, 0.0254, 100.95, 31.0)" width="113.1" xlink:href="#font_Bebas_Y0"/>
    </g>
  </g>
  <defs>
    <g id="font_Bebas_G0">
      <path d="M293.0 12.0 L293.0 12.0 Q391.5 12.0 462.0 -51.5 532.5 -114.5 532.5 -205.5 L532.5 -524.0 290.5 -524.0 290.5 -384.0 374.0 -384.0 374.0 -206.0 Q374.0 -173.5 348.5 -150.5 323.5 -128.0 288.0 -128.0 252.0 -128.0 227.5 -150.5 202.5 -173.5 202.5 -206.0 L202.5 -701.5 Q202.5 -734.0 227.5 -757.0 252.0 -780.0 288.0 -780.0 323.5 -780.0 348.5 -757.5 374.0 -735.0 374.0 -703.0 L374.0 -599.0 532.5 -599.0 532.5 -703.0 Q532.5 -792.5 463.0 -856.5 393.0 -920.0 293.0 -920.0 193.5 -920.0 123.5 -856.5 53.0 -793.0 53.0 -702.0 L53.0 -205.0 Q53.0 -116.0 123.0 -52.0 193.0 12.0 293.0 12.0" fill-rule="evenodd" stroke="none"/>
    </g>
    <g id="font_Bebas_A0">
      <path d="M382.5 -340.0 L382.5 -340.0 270.5 -340.0 326.5 -702.5 382.5 -340.0 M404.0 -208.0 L404.0 -208.0 438.5 4.0 599.0 4.0 431.0 -912.0 223.0 -912.0 53.0 4.0 209.0 4.0 244.0 -208.0 404.0 -208.0" fill-rule="evenodd" stroke="none"/>
    </g>
    <g id="font_Bebas_M0">
      <path d="M202.5 -571.5 L202.5 -571.5 349.5 4.0 472.0 4.0 603.0 -573.0 603.0 4.0 752.5 4.0 752.5 -916.0 545.5 -916.0 410.5 -259.0 269.5 -916.0 53.0 -916.0 53.0 4.0 202.5 4.0 202.5 -571.5" fill-rule="evenodd" stroke="none"/>
    </g>
    <g id="font_Bebas_E0">
      <path d="M483.0 4.0 L483.0 4.0 483.0 -136.0 202.5 -136.0 202.5 -388.0 409.0 -388.0 409.0 -528.0 202.5 -528.0 202.5 -776.0 483.0 -776.0 483.0 -916.0 53.0 -916.0 53.0 4.0 483.0 4.0" fill-rule="evenodd" stroke="none"/>
    </g>
    <g id="font_Bebas_P0">
      <path d="M378.5 -562.5 L378.5 -562.5 Q378.5 -530.0 353.5 -507.0 328.5 -484.0 293.0 -484.0 L202.5 -484.0 202.5 -772.0 293.0 -772.0 Q331.5 -772.0 355.0 -750.5 378.5 -729.0 378.5 -693.5 L378.5 -562.5 M53.0 -912.0 L53.0 -912.0 53.0 4.0 202.5 4.0 202.5 -344.0 290.0 -344.0 Q389.0 -344.0 458.5 -408.0 528.0 -472.0 528.0 -562.0 L528.0 -694.5 Q528.0 -788.5 467.0 -848.5 401.5 -912.0 291.0 -912.0 L53.0 -912.0" fill-rule="evenodd" stroke="none"/>
    </g>
    <g id="font_Bebas_L0">
      <path d="M465.0 -136.0 L465.0 -136.0 202.5 -136.0 202.5 -912.0 53.0 -912.0 53.0 4.0 465.0 4.0 465.0 -136.0" fill-rule="evenodd" stroke="none"/>
    </g>
    <g id="font_Bebas_Y0">
      <path d="M255.0 4.0 L255.0 4.0 405.0 4.0 405.0 -381.0 609.5 -916.0 442.5 -916.0 331.0 -584.5 219.0 -916.0 53.0 -916.0 255.0 -381.0 255.0 4.0" fill-rule="evenodd" stroke="none"/>
    </g>
  </defs>
</svg>
