<?xml version="1.0" encoding="UTF-8" standalone="no"?>
<svg xmlns:ffdec="https://www.free-decompiler.com/flash" xmlns:xlink="http://www.w3.org/1999/xlink" ffdec:objectType="shape" height="92.2px" width="43.5px" xmlns="http://www.w3.org/2000/svg">
  <g transform="matrix(1.0, 0.0, 0.0, 1.0, -280.0, -448.8)">
    <path d="M280.75 486.45 Q280.0 483.8 280.0 483.3 280.0 481.45 281.0 480.1 281.95 478.8 283.3 478.75 286.75 478.55 288.0 485.35 288.5 488.25 290.0 492.0 291.25 494.95 291.25 497.75 291.25 499.5 290.75 501.7 289.9 505.25 288.25 505.25 286.05 505.25 282.95 500.25 L280.25 495.15 Q280.25 494.55 280.9 492.65 281.5 490.75 281.5 490.1 281.5 489.05 280.75 486.45 M305.25 462.8 Q304.7 464.75 303.25 464.75 300.4 464.75 299.55 459.9 L299.25 455.05 Q299.25 450.8 300.25 449.4 301.1 448.15 302.4 449.5 305.5 452.7 305.5 460.55 L305.25 462.8 M323.5 538.95 Q323.5 539.65 323.0 540.3 322.35 541.0 321.35 541.0 317.15 541.0 313.85 535.95 311.25 531.85 311.25 529.35 311.25 526.1 313.2 526.15 315.3 526.2 317.35 530.5 L320.95 535.4 Q323.5 538.7 323.5 538.95" fill="#00ff00" fill-rule="evenodd" stroke="none"/>
  </g>
</svg>
