<?xml version="1.0" encoding="UTF-8" standalone="no"?>
<svg xmlns:ffdec="https://www.free-decompiler.com/flash" xmlns:xlink="http://www.w3.org/1999/xlink" ffdec:objectType="shape" height="243.6px" width="60.3px" xmlns="http://www.w3.org/2000/svg">
  <g transform="matrix(1.0, 0.0, 0.0, 1.0, -263.2, -297.4)">
    <path d="M284.15 303.7 Q283.8 304.55 283.45 307.25 283.25 308.6 281.8 308.6 279.25 308.6 277.45 306.2 276.1 304.4 276.1 303.45 276.1 302.05 276.5 301.35 277.05 300.3 278.95 299.15 279.75 298.6 283.45 297.85 285.5 297.15 286.25 297.55 286.7 297.75 286.7 298.5 L284.15 303.7 M275.05 325.85 L274.5 327.0 273.8 328.2 270.7 332.9 267.4 338.4 Q265.15 342.1 264.65 342.1 263.7 342.1 263.35 340.05 L263.2 337.8 Q263.2 335.25 263.75 333.6 264.25 332.15 265.95 329.05 L267.3 326.9 Q268.4 325.6 270.2 324.95 L271.45 323.95 272.95 322.9 Q275.1 321.95 276.15 322.35 276.95 322.65 276.95 323.45 276.95 324.0 276.15 324.45 275.3 324.95 275.05 325.85 M281.1 362.05 Q281.4 359.85 281.95 357.75 283.1 353.6 284.55 353.6 285.7 353.6 286.45 354.95 L286.55 355.35 286.9 356.0 286.85 357.15 286.95 361.3 Q286.7 365.2 285.75 366.1 285.25 367.25 284.6 367.25 282.85 367.25 281.8 364.8 281.1 363.15 281.1 362.05 M275.55 385.9 L278.9 390.8 283.45 395.95 284.7 397.35 286.4 398.85 Q291.35 403.2 291.35 404.45 L291.3 404.75 291.35 404.9 Q291.35 405.95 289.95 405.95 287.05 405.95 279.8 400.5 277.95 399.15 276.75 397.2 L275.0 393.95 Q269.25 383.55 269.25 380.75 269.25 378.05 271.6 380.6 L272.15 381.1 Q274.8 383.7 274.85 384.75 L275.55 385.9 M267.45 444.1 L267.35 442.75 Q267.35 441.85 267.9 440.25 268.5 438.4 269.3 437.7 272.45 434.9 272.45 440.05 L272.2 442.75 Q271.6 445.1 269.95 445.1 267.95 445.1 267.45 444.1 M281.5 490.1 Q281.5 489.05 280.75 486.45 280.0 483.8 280.0 483.3 280.0 481.45 281.0 480.1 281.95 478.8 283.3 478.75 286.75 478.55 288.0 485.35 288.5 488.25 290.0 492.0 291.25 494.95 291.25 497.75 291.25 499.5 290.75 501.7 289.9 505.25 288.25 505.25 286.05 505.25 282.95 500.25 L280.25 495.15 Q280.25 494.55 280.9 492.65 281.5 490.75 281.5 490.1 M300.25 449.4 Q301.1 448.15 302.4 449.5 305.5 452.7 305.5 460.55 L305.25 462.8 Q304.7 464.75 303.25 464.75 300.4 464.75 299.55 459.9 L299.25 455.05 Q299.25 450.8 300.25 449.4 M311.25 529.35 Q311.25 526.1 313.2 526.15 315.3 526.2 317.35 530.5 L320.95 535.4 Q323.5 538.7 323.5 538.95 323.5 539.65 323.0 540.3 322.35 541.0 321.35 541.0 317.15 541.0 313.85 535.95 311.25 531.85 311.25 529.35" fill="#00ff00" fill-rule="evenodd" stroke="none"/>
  </g>
</svg>
