<?xml version="1.0" encoding="UTF-8" standalone="no"?>
<svg xmlns:ffdec="https://www.free-decompiler.com/flash" xmlns:xlink="http://www.w3.org/1999/xlink" ffdec:objectType="shape" height="488.55px" width="149.0px" xmlns="http://www.w3.org/2000/svg">
  <g transform="matrix(1.0, 0.0, 0.0, 1.0, -263.2, -52.45)">
    <path d="M405.6 55.25 Q405.6 52.6 408.9 53.6 412.2 54.55 412.2 56.6 412.2 58.85 409.45 58.85 408.35 58.85 406.9 57.2 405.6 55.75 405.6 55.25 M324.2 54.15 L323.75 55.85 322.8 57.8 322.7 59.45 Q322.4 60.95 321.4 60.95 320.0 60.95 319.7 59.8 L319.7 58.55 Q319.7 57.3 320.3 55.3 321.15 52.45 322.5 52.45 323.75 52.45 324.1 53.3 L324.2 54.15 M326.4 58.35 Q327.2 56.3 330.55 55.9 L333.85 55.95 Q334.95 56.15 334.95 57.2 334.95 58.2 331.65 62.7 L330.25 65.4 Q328.95 67.7 328.15 67.7 326.8 67.7 326.3 64.75 L326.1 61.75 Q326.1 59.05 326.4 58.35 M328.45 197.8 Q329.8 198.3 329.8 199.25 329.8 200.75 325.45 201.85 L320.85 201.85 Q319.85 201.75 319.6 201.1 L319.55 200.3 Q319.55 199.45 320.1 199.25 321.8 198.7 322.95 198.0 L325.75 197.6 328.45 197.8 M315.45 207.35 Q312.85 208.85 310.1 208.85 307.05 208.85 306.2 208.1 305.85 207.8 305.85 207.0 305.85 204.7 311.85 203.15 317.8 201.55 317.8 204.85 317.8 206.0 315.45 207.35 M295.35 216.45 Q296.75 216.75 296.75 218.1 296.75 220.05 291.75 222.85 L288.35 225.0 Q285.4 226.6 282.7 226.6 280.4 226.6 279.5 225.4 279.0 224.7 279.0 223.9 279.0 223.1 279.9 221.5 280.85 219.8 281.7 219.3 282.9 218.65 284.55 216.85 286.7 215.6 291.95 216.4 L295.35 216.45 M295.75 237.65 Q293.9 239.6 290.8 239.6 288.65 239.6 288.05 238.3 L287.85 236.95 Q287.85 235.4 289.2 234.7 290.35 234.15 294.5 233.3 297.1 233.45 297.1 234.75 297.1 236.15 295.75 237.65 M280.95 260.65 Q281.65 258.25 283.4 258.25 284.6 258.25 284.75 259.5 L284.8 260.5 285.35 261.7 286.15 263.55 286.35 263.85 288.7 267.0 Q289.6 268.2 289.6 269.55 289.6 270.35 289.25 271.0 288.6 272.1 287.05 272.1 284.95 272.1 283.65 270.8 L281.55 267.85 Q280.6 266.45 280.55 265.55 L280.6 263.45 Q280.6 261.9 280.95 260.65 M266.45 290.7 Q264.5 290.7 263.75 286.95 L263.35 283.1 Q263.35 280.05 264.4 277.6 266.35 272.95 271.3 272.95 272.25 272.95 272.5 274.0 L272.5 275.1 Q272.5 278.4 270.35 284.4 268.05 290.7 266.45 290.7 M286.7 298.5 L284.15 303.7 Q283.8 304.55 283.45 307.25 283.25 308.6 281.8 308.6 279.25 308.6 277.45 306.2 276.1 304.4 276.1 303.45 276.1 302.05 276.5 301.35 277.05 300.3 278.95 299.15 279.75 298.6 283.45 297.85 285.5 297.15 286.25 297.55 286.7 297.75 286.7 298.5 M276.95 323.45 Q276.95 324.0 276.15 324.45 275.3 324.95 275.05 325.85 L274.5 327.0 273.8 328.2 270.7 332.9 267.4 338.4 Q265.15 342.1 264.65 342.1 263.7 342.1 263.35 340.05 L263.2 337.8 Q263.2 335.25 263.75 333.6 264.25 332.15 265.95 329.05 L267.3 326.9 Q268.4 325.6 270.2 324.95 L271.45 323.95 272.95 322.9 Q275.1 321.95 276.15 322.35 276.95 322.65 276.95 323.45 M281.95 357.75 Q283.1 353.6 284.55 353.6 285.7 353.6 286.45 354.95 L286.55 355.35 286.9 356.0 286.85 357.15 286.95 361.3 Q286.7 365.2 285.75 366.1 285.25 367.25 284.6 367.25 282.85 367.25 281.8 364.8 281.1 363.15 281.1 362.05 281.4 359.85 281.95 357.75 M283.45 395.95 L284.7 397.35 286.4 398.85 Q291.35 403.2 291.35 404.45 L291.3 404.75 291.35 404.9 Q291.35 405.95 289.95 405.95 287.05 405.95 279.8 400.5 277.95 399.15 276.75 397.2 L275.0 393.95 Q269.25 383.55 269.25 380.75 269.25 378.05 271.6 380.6 L272.15 381.1 Q274.8 383.7 274.85 384.75 L275.55 385.9 278.9 390.8 283.45 395.95 M267.9 440.25 Q268.5 438.4 269.3 437.7 272.45 434.9 272.45 440.05 L272.2 442.75 Q271.6 445.1 269.95 445.1 267.95 445.1 267.45 444.1 L267.35 442.75 Q267.35 441.85 267.9 440.25 M283.3 478.75 Q286.75 478.55 288.0 485.35 288.5 488.25 290.0 492.0 291.25 494.95 291.25 497.75 291.25 499.5 290.75 501.7 289.9 505.25 288.25 505.25 286.05 505.25 282.95 500.25 L280.25 495.15 Q280.25 494.55 280.9 492.65 281.5 490.75 281.5 490.1 281.5 489.05 280.75 486.45 280.0 483.8 280.0 483.3 280.0 481.45 281.0 480.1 281.95 478.8 283.3 478.75 M305.5 460.55 L305.25 462.8 Q304.7 464.75 303.25 464.75 300.4 464.75 299.55 459.9 L299.25 455.05 Q299.25 450.8 300.25 449.4 301.1 448.15 302.4 449.5 305.5 452.7 305.5 460.55 M313.85 535.95 Q311.25 531.85 311.25 529.35 311.25 526.1 313.2 526.15 315.3 526.2 317.35 530.5 L320.95 535.4 Q323.5 538.7 323.5 538.95 323.5 539.65 323.0 540.3 322.35 541.0 321.35 541.0 317.15 541.0 313.85 535.95" fill="#00ff00" fill-rule="evenodd" stroke="none"/>
  </g>
</svg>
