<?xml version="1.0" encoding="UTF-8" standalone="no"?>
<svg xmlns:ffdec="https://www.free-decompiler.com/flash" xmlns:xlink="http://www.w3.org/1999/xlink" ffdec:objectType="shape" height="496.5px" width="316.75px" xmlns="http://www.w3.org/2000/svg">
  <g transform="matrix(1.0, 0.0, 0.0, 1.0, -263.2, -44.5)">
    <path d="M579.95 56.5 Q579.9 59.2 577.6 59.2 576.2 59.2 576.1 58.2 L576.3 56.75 Q576.25 56.3 575.75 56.15 L574.9 55.8 Q574.45 55.35 574.45 54.6 574.45 54.1 574.8 53.65 575.3 52.95 576.5 52.95 578.9 52.95 579.65 54.6 579.95 55.25 579.95 56.5 M530.75 48.85 Q530.15 48.85 529.1 48.25 528.05 47.65 526.35 47.65 L524.35 47.7 522.95 48.0 520.4 48.05 519.85 48.25 Q519.2 48.25 518.9 47.7 L518.7 47.1 Q518.7 46.25 520.0 45.45 521.35 44.55 523.1 44.5 L526.7 44.5 Q530.0 45.2 530.85 45.7 531.95 46.25 531.95 47.45 531.95 48.85 530.75 48.85 M493.1 60.3 Q491.65 65.25 488.25 65.25 486.95 65.25 486.65 64.5 L486.6 63.75 Q486.6 62.8 487.75 61.4 L488.9 59.9 488.45 58.45 Q488.45 56.45 490.8 56.7 493.1 56.95 493.1 60.3 M489.95 62.05 L490.25 61.6 490.0 61.95 489.95 62.05 M547.1 63.1 Q545.0 62.45 543.8 61.55 542.6 60.65 542.6 59.8 542.6 58.5 543.25 58.65 L546.25 59.15 547.7 58.95 Q549.0 58.95 552.2 62.1 L551.95 62.7 551.2 63.1 547.1 63.1 M548.95 117.25 L545.0 117.85 Q542.65 117.85 542.05 117.1 541.85 116.85 541.85 116.0 541.85 114.55 542.55 113.9 543.75 112.8 547.6 112.35 L553.05 112.35 Q555.45 112.75 555.45 114.1 555.45 114.95 554.45 115.4 L551.55 116.35 548.95 117.25 M528.45 112.9 L522.9 113.85 Q522.55 113.9 520.6 114.7 L520.1 114.9 519.05 115.5 516.25 115.85 515.3 115.75 514.05 115.85 513.1 115.75 511.55 115.75 Q509.8 115.2 509.35 114.8 509.05 114.55 509.05 113.85 509.05 112.65 510.6 111.3 512.8 109.35 516.85 109.35 L519.15 109.65 519.8 109.55 519.8 109.5 523.2 109.5 525.45 110.15 Q529.45 110.4 529.45 111.9 529.45 112.7 528.45 112.9 M530.0 120.85 L532.55 123.3 534.05 125.7 535.3 128.15 535.05 128.85 Q534.7 129.25 534.15 129.25 531.15 129.25 529.0 127.35 L527.25 125.2 524.9 123.1 Q523.05 121.4 523.05 120.75 523.05 119.5 524.15 119.5 L526.7 119.85 Q529.35 120.3 530.0 120.85 M501.65 120.3 Q503.45 120.65 503.45 121.8 503.45 123.1 501.1 124.9 498.3 127.0 494.95 127.0 492.1 127.0 490.5 124.8 489.45 123.3 489.45 122.3 489.45 121.1 489.6 120.85 490.05 120.0 491.85 119.6 L496.35 119.55 501.65 120.3 M489.3 129.1 Q489.3 132.2 486.15 132.2 483.6 132.2 481.5 130.45 479.7 128.95 479.7 127.85 479.7 127.1 479.85 126.9 L481.2 126.2 485.55 126.2 Q488.1 126.65 488.9 127.55 489.3 128.05 489.3 129.1 M445.2 89.15 Q445.2 88.35 446.5 86.7 L448.3 84.65 Q450.3 81.95 452.3 80.9 453.55 79.85 455.45 79.85 L456.1 79.9 458.05 79.6 458.3 79.65 459.7 79.35 Q460.85 79.35 460.85 80.4 460.85 81.25 454.35 86.0 447.8 90.75 446.4 90.75 445.7 90.75 445.4 90.0 L445.2 89.15 M409.45 58.85 Q408.35 58.85 406.9 57.2 405.6 55.75 405.6 55.25 405.6 52.6 408.9 53.6 412.2 54.55 412.2 56.6 412.2 58.85 409.45 58.85 M475.5 60.1 L474.75 61.85 474.8 63.55 Q474.65 64.95 473.3 64.95 472.0 64.95 471.6 63.2 L471.45 61.35 Q471.45 57.4 473.7 56.7 475.95 56.0 475.95 58.4 L475.5 60.1 M324.2 54.15 L323.75 55.85 322.8 57.8 322.7 59.45 Q322.4 60.95 321.4 60.95 320.0 60.95 319.7 59.8 L319.7 58.55 Q319.7 57.3 320.3 55.3 321.15 52.45 322.5 52.45 323.75 52.45 324.1 53.3 L324.2 54.15 M330.55 55.9 L333.85 55.95 Q334.95 56.15 334.95 57.2 334.95 58.2 331.65 62.7 L330.25 65.4 Q328.95 67.7 328.15 67.7 326.8 67.7 326.3 64.75 L326.1 61.75 Q326.1 59.05 326.4 58.35 327.2 56.3 330.55 55.9 M331.45 94.65 Q334.45 97.95 334.45 99.15 334.45 101.35 332.35 101.35 327.65 101.35 322.95 97.1 318.6 93.15 318.6 90.2 318.6 87.15 320.35 87.1 322.5 86.95 327.8 91.05 329.1 92.1 331.45 94.65 M351.3 101.7 Q352.7 103.55 352.7 104.4 352.7 105.85 351.25 105.85 350.65 105.85 348.6 104.5 L346.65 103.1 345.25 103.35 Q343.8 103.35 343.5 102.5 L343.45 101.55 Q343.45 100.0 344.55 98.9 346.15 97.3 349.1 99.35 350.1 100.15 351.3 101.7 M328.45 197.8 Q329.8 198.3 329.8 199.25 329.8 200.75 325.45 201.85 L320.85 201.85 Q319.85 201.75 319.6 201.1 L319.55 200.3 Q319.55 199.45 320.1 199.25 321.8 198.7 322.95 198.0 L325.75 197.6 328.45 197.8 M468.5 121.3 L465.4 121.15 Q464.65 121.15 463.25 121.9 L461.4 122.6 Q459.95 122.6 459.7 121.4 L459.7 120.15 Q459.7 119.15 460.65 117.6 462.05 115.35 464.4 115.35 467.5 115.35 470.15 117.15 472.35 118.65 472.35 119.55 L471.9 120.7 Q471.15 121.6 469.7 121.6 L468.95 121.45 468.5 121.3 M461.5 133.75 Q460.7 134.65 459.45 134.6 L456.45 134.6 Q453.7 134.7 452.15 133.2 450.95 132.1 450.95 131.05 L451.05 130.3 Q451.35 129.8 452.45 129.8 L454.25 129.75 Q458.8 129.75 460.85 130.75 462.2 131.4 462.2 132.25 462.2 132.95 461.5 133.75 M421.45 134.65 Q421.45 132.6 424.55 130.05 L427.6 130.1 Q427.6 132.0 422.6 136.35 421.9 136.35 421.6 135.5 L421.45 134.65 M414.85 147.1 Q414.85 144.05 418.8 141.0 422.7 137.95 422.7 140.85 422.7 141.5 421.55 143.0 L420.05 144.9 418.1 147.8 Q417.4 148.5 416.1 148.5 415.15 148.5 414.9 147.85 L414.85 147.1 M436.95 134.6 L434.85 135.7 Q432.95 136.6 432.0 136.6 431.15 136.6 430.85 136.1 L430.7 135.55 Q430.7 134.95 431.65 134.3 L433.3 133.0 434.15 131.7 Q435.15 130.6 436.55 130.6 L438.85 130.75 Q440.0 130.75 440.3 131.4 L440.35 132.05 Q440.35 132.9 439.7 133.3 L436.95 134.6 M417.8 156.65 L417.35 159.35 416.9 162.75 Q416.4 165.0 415.65 165.0 414.45 165.0 413.2 161.6 L412.2 158.2 Q412.2 155.4 414.45 153.85 L415.35 152.75 Q415.85 151.95 416.3 151.7 417.1 151.25 417.95 152.35 L418.2 153.4 417.8 156.65 M315.45 207.35 Q312.85 208.85 310.1 208.85 307.05 208.85 306.2 208.1 305.85 207.8 305.85 207.0 305.85 204.7 311.85 203.15 317.8 201.55 317.8 204.85 317.8 206.0 315.45 207.35 M296.75 218.1 Q296.75 220.05 291.75 222.85 L288.35 225.0 Q285.4 226.6 282.7 226.6 280.4 226.6 279.5 225.4 279.0 224.7 279.0 223.9 279.0 223.1 279.9 221.5 280.85 219.8 281.7 219.3 282.9 218.65 284.55 216.85 286.7 215.6 291.95 216.4 L295.35 216.45 Q296.75 216.75 296.75 218.1 M297.1 234.75 Q297.1 236.15 295.75 237.65 293.9 239.6 290.8 239.6 288.65 239.6 288.05 238.3 L287.85 236.95 Q287.85 235.4 289.2 234.7 290.35 234.15 294.5 233.3 297.1 233.45 297.1 234.75 M283.4 258.25 Q284.6 258.25 284.75 259.5 L284.8 260.5 285.35 261.7 286.15 263.55 286.35 263.85 288.7 267.0 Q289.6 268.2 289.6 269.55 289.6 270.35 289.25 271.0 288.6 272.1 287.05 272.1 284.95 272.1 283.65 270.8 L281.55 267.85 Q280.6 266.45 280.55 265.55 L280.6 263.45 Q280.6 261.9 280.95 260.65 281.65 258.25 283.4 258.25 M263.75 286.95 L263.35 283.1 Q263.35 280.05 264.4 277.6 266.35 272.95 271.3 272.95 272.25 272.95 272.5 274.0 L272.5 275.1 Q272.5 278.4 270.35 284.4 268.05 290.7 266.45 290.7 264.5 290.7 263.75 286.95 M284.15 303.7 Q283.8 304.55 283.45 307.25 283.25 308.6 281.8 308.6 279.25 308.6 277.45 306.2 276.1 304.4 276.1 303.45 276.1 302.05 276.5 301.35 277.05 300.3 278.95 299.15 279.75 298.6 283.45 297.85 285.5 297.15 286.25 297.55 286.7 297.75 286.7 298.5 L284.15 303.7 M275.05 325.85 L274.5 327.0 273.8 328.2 270.7 332.9 267.4 338.4 Q265.15 342.1 264.65 342.1 263.7 342.1 263.35 340.05 L263.2 337.8 Q263.2 335.25 263.75 333.6 264.25 332.15 265.95 329.05 L267.3 326.9 Q268.4 325.6 270.2 324.95 L271.45 323.95 272.95 322.9 Q275.1 321.95 276.15 322.35 276.95 322.65 276.95 323.45 276.95 324.0 276.15 324.45 275.3 324.95 275.05 325.85 M281.1 362.05 Q281.4 359.85 281.95 357.75 283.1 353.6 284.55 353.6 285.7 353.6 286.45 354.95 L286.55 355.35 286.9 356.0 286.85 357.15 286.95 361.3 Q286.7 365.2 285.75 366.1 285.25 367.25 284.6 367.25 282.85 367.25 281.8 364.8 281.1 363.15 281.1 362.05 M278.9 390.8 L283.45 395.95 284.7 397.35 286.4 398.85 Q291.35 403.2 291.35 404.45 L291.3 404.75 291.35 404.9 Q291.35 405.95 289.95 405.95 287.05 405.95 279.8 400.5 277.95 399.15 276.75 397.2 L275.0 393.95 Q269.25 383.55 269.25 380.75 269.25 378.05 271.6 380.6 L272.15 381.1 Q274.8 383.7 274.85 384.75 L275.55 385.9 278.9 390.8 M267.35 442.75 Q267.35 441.85 267.9 440.25 268.5 438.4 269.3 437.7 272.45 434.9 272.45 440.05 L272.2 442.75 Q271.6 445.1 269.95 445.1 267.95 445.1 267.45 444.1 L267.35 442.75 M280.0 483.3 Q280.0 481.45 281.0 480.1 281.95 478.8 283.3 478.75 286.75 478.55 288.0 485.35 288.5 488.25 290.0 492.0 291.25 494.95 291.25 497.75 291.25 499.5 290.75 501.7 289.9 505.25 288.25 505.25 286.05 505.25 282.95 500.25 L280.25 495.15 Q280.25 494.55 280.9 492.65 281.5 490.75 281.5 490.1 281.5 489.05 280.75 486.45 280.0 483.8 280.0 483.3 M302.4 449.5 Q305.5 452.7 305.5 460.55 L305.25 462.8 Q304.7 464.75 303.25 464.75 300.4 464.75 299.55 459.9 L299.25 455.05 Q299.25 450.8 300.25 449.4 301.1 448.15 302.4 449.5 M317.35 530.5 L320.95 535.4 Q323.5 538.7 323.5 538.95 323.5 539.65 323.0 540.3 322.35 541.0 321.35 541.0 317.15 541.0 313.85 535.95 311.25 531.85 311.25 529.35 311.25 526.1 313.2 526.15 315.3 526.2 317.35 530.5" fill="#00ff00" fill-rule="evenodd" stroke="none"/>
  </g>
</svg>
