<?xml version="1.0" encoding="UTF-8" standalone="no"?>
<svg xmlns:ffdec="https://www.free-decompiler.com/flash" xmlns:xlink="http://www.w3.org/1999/xlink" ffdec:objectType="shape" height="527.3px" width="597.0px" xmlns="http://www.w3.org/2000/svg">
  <g transform="matrix(1.0, 0.0, 0.0, 1.0, 298.5, 281.6)">
    <path d="M179.55 -233.65 L179.55 -232.75 179.8 -230.45 179.35 -226.3 179.35 -226.25 Q179.2 -225.2 178.45 -223.9 177.55 -222.35 176.6 -222.35 175.9 -222.35 175.7 -222.9 L175.6 -223.5 175.8 -224.7 175.6 -226.3 176.05 -229.75 176.65 -232.75 Q176.7 -233.7 177.6 -234.35 178.6 -235.2 179.55 -233.65 M59.3 -275.0 Q62.1 -271.45 62.1 -269.8 62.1 -268.0 61.0 -268.0 59.25 -268.0 57.7 -271.55 L56.5 -275.2 Q56.5 -278.55 59.3 -275.0 M14.8 -273.15 Q17.2 -273.15 17.95 -271.5 L18.25 -269.6 Q18.2 -266.9 15.9 -266.9 14.5 -266.9 14.4 -267.9 L14.6 -269.35 14.05 -269.95 Q13.35 -270.15 13.2 -270.3 12.75 -270.75 12.75 -271.5 12.75 -272.0 13.1 -272.45 13.6 -273.15 14.8 -273.15 M19.3 -258.2 L21.3 -256.35 25.0 -254.8 Q27.15 -253.95 27.15 -253.25 27.15 -252.25 25.65 -252.25 22.7 -252.25 20.15 -253.85 17.5 -255.5 17.5 -257.6 17.5 -259.5 19.3 -258.2 M8.25 -203.25 Q9.3 -204.5 11.6 -204.5 13.7 -204.5 15.05 -202.75 L16.25 -200.6 16.6 -198.65 16.75 -196.6 16.7 -193.55 Q16.4 -190.75 15.2 -190.75 14.0 -190.75 13.85 -191.9 L13.9 -193.5 13.4 -194.8 12.7 -196.2 12.4 -197.6 Q12.15 -198.45 11.3 -198.9 L9.65 -199.25 Q8.1 -199.55 7.8 -199.95 7.5 -200.4 7.5 -201.25 7.5 -202.4 8.25 -203.25 M18.45 -208.5 Q20.25 -207.2 20.25 -206.6 20.25 -205.5 18.7 -205.5 17.65 -205.5 16.5 -206.2 L15.1 -207.1 12.35 -207.05 Q11.9 -206.75 11.5 -206.75 10.8 -206.75 10.6 -207.3 L10.5 -207.85 Q10.5 -209.55 12.95 -210.2 L15.85 -210.3 18.45 -208.5 M22.55 -220.5 Q26.95 -220.5 29.0 -217.65 30.25 -215.9 30.25 -214.1 L30.1 -212.8 Q31.15 -212.35 31.15 -211.2 31.15 -210.4 30.75 -209.75 30.15 -208.75 28.8 -208.75 25.7 -208.75 24.8 -209.3 24.4 -209.55 24.4 -210.25 24.4 -212.65 26.7 -213.1 L26.45 -213.3 24.1 -215.1 Q22.05 -216.15 21.3 -216.8 20.4 -217.6 20.4 -218.5 20.4 -219.15 20.75 -219.65 21.3 -220.5 22.55 -220.5 M37.55 -198.35 Q35.85 -198.35 32.45 -199.95 29.1 -201.55 29.1 -202.25 29.1 -203.5 31.25 -203.5 L34.45 -203.5 Q35.35 -203.2 37.35 -201.75 39.5 -200.15 39.5 -199.45 39.5 -198.95 39.3 -198.75 38.9 -198.35 37.55 -198.35 M79.9 -247.25 Q82.1 -247.25 83.75 -245.6 L84.55 -245.35 Q85.5 -244.85 85.5 -243.75 85.5 -242.85 85.0 -242.5 84.3 -242.0 82.25 -242.0 79.4 -242.0 77.15 -243.3 74.75 -244.7 74.75 -246.6 74.75 -247.95 76.0 -247.85 76.9 -247.8 78.1 -247.0 L79.9 -247.25 M61.5 -233.2 L61.35 -232.0 61.0 -230.5 61.0 -229.05 Q60.9 -228.0 59.85 -228.0 58.55 -228.0 58.1 -230.8 57.85 -232.05 57.3 -232.55 56.85 -233.0 56.85 -233.75 56.85 -235.05 58.1 -235.3 L58.95 -235.35 59.35 -235.3 59.35 -235.35 Q60.8 -235.25 61.3 -234.4 L61.5 -233.2 M65.9 -201.4 L68.7 -199.05 70.55 -197.15 72.2 -195.15 74.5 -191.2 Q75.4 -189.2 75.4 -187.3 75.05 -184.8 74.4 -183.5 73.95 -182.35 72.9 -182.25 L72.75 -182.25 Q71.8 -182.25 70.7 -183.0 L69.5 -184.0 69.15 -183.35 Q68.75 -182.85 67.7 -182.85 66.4 -182.85 65.1 -184.45 64.3 -185.5 63.85 -186.6 63.25 -188.0 61.05 -188.55 59.15 -189.0 59.15 -189.85 59.15 -190.3 60.15 -190.85 61.3 -191.5 62.7 -191.5 L64.15 -191.25 64.15 -194.7 Q63.65 -195.7 63.65 -197.2 L63.65 -197.3 63.35 -198.05 61.9 -201.75 Q61.9 -202.85 63.2 -202.85 64.3 -202.85 65.65 -201.55 L65.9 -201.4 M124.7 -270.5 Q124.25 -270.5 123.0 -271.45 L121.4 -272.75 Q119.4 -272.5 118.8 -273.1 118.55 -273.35 118.55 -274.05 118.55 -275.75 121.3 -275.75 123.45 -275.75 124.85 -274.05 125.85 -272.85 125.85 -272.05 125.85 -270.5 124.7 -270.5 M127.85 -252.45 Q127.85 -254.35 129.9 -254.35 130.25 -254.35 130.6 -254.05 130.95 -253.8 131.45 -253.8 131.8 -253.8 132.55 -254.4 133.3 -255.0 133.9 -255.0 135.15 -255.0 135.05 -253.75 135.05 -253.05 134.3 -252.05 133.4 -250.9 132.35 -250.75 L129.35 -250.75 Q128.3 -251.1 128.0 -251.5 127.85 -251.8 127.85 -252.45 M133.0 -209.85 Q133.0 -208.6 131.8 -208.6 130.3 -208.6 129.35 -210.65 128.65 -212.15 128.65 -213.15 128.65 -216.45 130.85 -213.75 133.0 -211.1 133.0 -209.85 M161.75 -178.35 L162.25 -178.75 162.4 -178.85 Q163.55 -179.5 163.6 -177.95 L163.8 -177.35 163.75 -177.1 163.8 -176.55 163.6 -174.0 163.35 -170.65 Q163.35 -167.3 164.7 -163.2 L165.7 -160.25 166.8 -158.95 168.3 -157.2 Q169.45 -156.15 170.8 -154.05 172.35 -151.65 172.35 -150.45 L172.3 -149.6 Q172.1 -149.0 171.35 -149.0 L171.2 -149.0 170.8 -149.0 Q169.75 -149.0 168.95 -149.6 165.9 -150.2 162.75 -152.7 159.8 -155.05 158.95 -156.7 157.1 -160.2 156.8 -161.2 156.55 -161.85 156.45 -162.7 156.05 -164.0 156.05 -165.45 156.05 -170.5 159.85 -176.05 160.9 -177.6 161.75 -178.35 M121.55 -166.6 Q120.85 -165.75 119.95 -165.75 119.35 -165.75 119.05 -166.25 115.15 -166.35 109.2 -170.85 107.55 -172.1 106.2 -173.8 L104.2 -176.55 Q98.0 -185.85 98.0 -188.05 98.0 -188.65 98.25 -188.8 98.55 -189.35 99.55 -189.35 L99.75 -189.3 100.45 -189.4 104.95 -188.6 Q109.1 -187.3 110.5 -186.3 L114.5 -183.3 Q116.65 -181.5 117.2 -180.2 L120.3 -174.1 Q122.15 -170.4 122.15 -168.0 122.15 -167.35 121.55 -166.6 M85.95 -161.7 L87.5 -159.4 87.2 -158.35 Q86.7 -157.5 85.75 -157.5 82.45 -157.5 79.95 -159.45 77.6 -161.3 77.6 -163.45 77.6 -170.2 82.55 -165.55 L85.95 -161.7 M97.4 -157.25 L97.55 -157.3 Q97.8 -158.1 99.6 -158.25 102.0 -158.35 104.45 -156.2 L106.55 -154.25 108.0 -152.3 Q112.5 -145.75 112.5 -144.55 112.5 -143.4 111.5 -143.4 110.85 -143.4 109.65 -144.9 L108.25 -146.75 106.05 -148.55 103.8 -150.15 103.15 -150.6 103.85 -145.95 104.2 -141.15 Q104.25 -140.35 105.0 -138.75 105.75 -137.15 105.75 -136.45 L105.65 -135.35 105.65 -135.25 Q105.6 -134.6 105.2 -134.3 L105.25 -132.75 105.15 -130.2 Q104.85 -127.95 103.7 -127.95 102.65 -127.95 101.8 -131.7 L101.15 -135.5 101.2 -135.95 100.0 -137.05 Q97.55 -139.5 96.6 -141.45 95.95 -142.7 95.6 -145.05 95.25 -147.1 95.25 -148.9 L95.25 -151.05 95.65 -153.55 Q95.65 -155.15 96.1 -155.75 96.45 -156.8 97.4 -157.25 M102.6 -138.9 L102.55 -139.05 102.5 -138.95 102.6 -138.9 M117.95 -129.15 Q116.65 -131.15 116.65 -131.7 116.65 -134.35 119.05 -132.35 L121.85 -129.45 125.35 -126.85 Q127.5 -125.15 127.5 -124.0 127.5 -122.65 126.4 -122.65 125.75 -122.65 123.0 -124.5 L119.55 -126.95 117.95 -129.15 M112.65 -115.35 L112.75 -113.0 Q112.75 -112.45 113.35 -110.6 L113.9 -108.3 113.4 -106.5 114.75 -105.35 116.95 -102.9 120.35 -97.95 Q122.85 -94.0 125.5 -86.75 127.9 -80.05 127.9 -78.1 128.1 -76.5 126.9 -76.5 126.15 -76.5 125.7 -77.3 L125.15 -78.35 122.65 -80.3 Q120.25 -82.35 116.7 -83.5 113.15 -84.7 110.55 -86.9 108.4 -88.7 107.4 -90.7 104.4 -96.45 103.5 -98.95 102.25 -102.45 102.25 -106.2 L102.35 -108.9 Q102.65 -111.05 103.75 -111.25 104.7 -111.45 107.45 -110.4 L108.05 -112.65 108.85 -114.95 109.5 -117.3 Q109.5 -118.15 110.35 -118.55 111.25 -118.95 111.8 -117.75 112.5 -116.75 112.65 -115.35 M143.35 -129.15 L143.0 -129.7 142.35 -131.0 141.8 -132.05 Q139.55 -136.35 139.55 -136.7 L139.55 -136.8 Q137.55 -141.1 137.55 -143.75 137.55 -144.3 138.1 -144.75 138.75 -145.2 139.35 -144.25 L139.75 -143.45 Q140.05 -142.95 140.7 -142.55 L143.05 -140.85 145.2 -139.2 Q150.25 -136.0 152.4 -132.45 L156.25 -126.15 Q159.8 -120.1 159.8 -118.95 L159.8 -118.55 159.85 -118.0 Q159.85 -117.1 159.2 -116.7 L158.8 -116.25 Q158.1 -115.7 156.8 -115.7 153.05 -115.7 148.95 -120.3 146.2 -123.4 144.95 -126.05 L143.35 -129.15 M130.85 -105.7 L131.8 -105.35 132.25 -105.25 132.6 -104.85 Q133.4 -104.2 133.4 -103.1 L133.4 -103.0 Q133.75 -102.0 133.75 -100.85 133.75 -98.5 130.7 -95.75 127.9 -93.25 126.5 -93.25 125.75 -93.25 125.55 -94.0 L125.5 -94.75 Q125.5 -95.55 127.35 -98.1 L129.15 -100.75 Q129.15 -101.35 128.2 -102.15 127.25 -103.0 127.25 -104.15 127.25 -105.5 128.4 -105.6 L128.55 -105.6 130.85 -105.7 M151.25 -101.25 Q151.25 -102.85 150.35 -104.25 L149.4 -105.75 Q149.4 -106.45 150.0 -106.95 L151.8 -106.9 Q153.0 -105.95 153.3 -105.1 L153.9 -103.15 154.15 -101.5 153.85 -99.55 153.2 -98.45 155.5 -99.05 155.5 -99.1 161.65 -99.1 Q165.6 -98.95 171.5 -91.7 176.75 -85.25 176.75 -83.65 176.75 -82.5 175.45 -82.5 174.65 -82.5 171.85 -84.15 L168.35 -86.1 Q163.5 -87.6 160.7 -89.4 L157.8 -91.3 155.6 -93.1 Q154.4 -94.4 153.35 -94.95 L151.6 -95.8 150.15 -95.85 Q149.15 -96.0 149.15 -96.95 149.15 -97.65 151.3 -98.8 L151.15 -99.65 151.25 -101.25 M49.2 -188.95 L52.25 -184.5 Q52.25 -182.75 50.85 -182.75 48.6 -182.75 47.2 -185.15 46.15 -186.95 46.15 -188.4 46.15 -192.5 49.2 -188.95 M47.5 -164.45 Q47.15 -163.65 45.6 -163.65 41.6 -163.65 38.0 -167.3 35.55 -169.8 34.85 -171.65 L32.8 -176.2 Q31.85 -178.3 31.85 -180.2 L31.8 -181.55 Q31.8 -182.2 32.15 -183.1 32.7 -184.6 35.1 -184.3 37.15 -184.05 38.1 -183.2 41.95 -179.85 43.05 -177.3 43.9 -175.2 45.85 -171.4 L46.1 -169.9 46.35 -168.45 Q46.75 -167.3 47.3 -166.65 L47.6 -165.6 47.5 -164.45 M73.35 -164.45 Q73.35 -163.15 72.1 -163.15 69.4 -163.15 67.95 -165.65 66.85 -167.5 66.85 -169.4 66.85 -171.15 67.2 -171.55 67.9 -172.25 69.85 -169.3 L71.8 -166.7 73.35 -164.45 M61.8 -155.1 Q61.95 -155.7 62.75 -156.15 63.9 -156.75 65.75 -156.7 68.45 -157.05 70.75 -155.45 72.35 -154.3 72.6 -153.4 L72.75 -152.75 Q72.75 -152.3 72.3 -152.0 71.65 -151.6 69.95 -151.15 69.0 -150.9 68.25 -150.3 67.8 -149.9 66.1 -149.9 63.7 -149.9 62.05 -151.55 60.85 -152.8 60.85 -153.5 60.85 -154.5 61.8 -155.1 M70.0 -128.7 Q70.0 -129.55 70.35 -129.95 71.1 -130.85 72.1 -130.6 73.15 -130.3 73.85 -130.9 L75.05 -131.95 Q75.85 -132.75 75.95 -133.3 76.05 -134.15 77.05 -134.45 78.1 -134.75 78.7 -134.0 L78.85 -131.55 Q78.85 -129.1 78.65 -128.45 78.15 -126.65 76.0 -125.7 L72.5 -125.7 Q70.95 -126.5 70.4 -127.25 70.0 -127.8 70.0 -128.7 M133.4 -67.6 Q133.4 -61.85 130.95 -59.6 L129.35 -57.7 127.75 -55.55 Q127.45 -55.2 127.2 -53.25 127.0 -51.75 125.9 -51.75 125.2 -51.75 124.05 -53.85 123.05 -55.7 122.85 -56.8 L122.3 -59.8 122.25 -61.95 Q122.25 -63.45 122.45 -63.95 L123.35 -66.8 Q123.6 -67.75 125.35 -69.25 L128.0 -71.6 128.95 -72.95 Q129.5 -73.75 130.0 -73.95 130.8 -74.35 131.7 -73.7 132.45 -73.15 132.6 -72.45 133.2 -71.5 133.35 -70.0 L133.4 -67.6 M158.35 -55.9 L161.2 -58.65 162.7 -61.9 163.7 -64.25 Q164.45 -65.3 165.2 -65.1 165.85 -64.9 166.1 -63.85 166.6 -62.35 166.6 -60.95 L166.55 -56.75 Q166.3 -55.45 164.6 -51.45 163.6 -49.2 162.05 -46.8 L159.85 -44.25 Q157.95 -42.4 156.9 -42.4 155.55 -42.4 155.3 -44.85 L155.3 -47.3 155.25 -49.9 Q155.35 -51.0 155.95 -53.0 156.25 -54.1 158.35 -55.9 M120.35 -8.3 L121.05 -8.5 121.4 -8.45 121.45 -8.5 Q122.45 -8.5 122.5 -7.5 122.5 -6.85 120.6 -5.7 118.7 -4.55 117.5 -4.55 116.25 -4.55 115.3 -5.7 114.6 -6.3 114.2 -7.4 L114.15 -7.6 114.0 -7.95 114.0 -8.05 113.95 -8.25 113.9 -9.0 113.9 -9.05 113.75 -9.95 Q113.75 -11.85 115.2 -11.25 115.75 -10.95 115.8 -10.35 115.85 -9.65 116.05 -9.35 116.85 -8.2 119.7 -8.3 L120.35 -8.3 M127.6 -27.45 Q126.3 -28.55 126.05 -29.3 125.9 -29.7 125.9 -31.0 125.9 -32.4 126.05 -32.8 126.5 -34.0 128.15 -34.0 129.65 -34.0 133.2 -30.05 134.25 -28.9 134.25 -25.75 L134.2 -24.75 Q134.0 -24.1 133.1 -24.1 132.75 -24.1 130.55 -25.45 L127.6 -27.45 M151.45 -0.6 Q151.1 1.0 150.2 2.05 L147.25 4.75 144.55 7.4 143.05 10.4 Q142.0 12.6 141.3 12.6 140.3 12.6 140.15 11.45 L140.05 9.85 139.6 8.25 139.55 7.05 Q139.55 2.4 142.2 -1.4 L145.65 -5.6 Q146.2 -6.25 149.1 -8.0 151.9 -9.65 152.3 -9.65 153.35 -9.65 153.35 -8.7 L152.6 -6.15 151.8 -3.3 151.45 -0.6 M208.55 -86.9 Q209.6 -86.9 212.6 -84.45 L215.85 -81.45 217.95 -78.6 Q219.15 -76.85 219.4 -75.65 L220.15 -69.2 220.5 -64.1 Q220.5 -60.65 218.55 -60.65 218.0 -60.65 217.7 -61.15 L217.65 -61.35 Q215.5 -61.75 212.85 -64.25 211.0 -66.0 209.85 -67.65 208.15 -69.8 207.15 -71.3 L205.65 -73.0 Q205.25 -73.65 205.2 -74.85 L205.05 -75.15 205.0 -75.95 Q205.0 -76.9 205.6 -78.95 L206.25 -81.8 Q206.35 -83.85 206.75 -84.8 L206.75 -86.1 Q207.55 -86.9 208.05 -86.8 L208.55 -86.9 M202.05 -29.4 L203.25 -26.6 204.6 -23.75 205.95 -20.9 208.35 -14.5 208.45 -13.95 208.85 -12.05 209.0 -6.45 208.85 -1.3 207.5 5.35 206.65 8.25 205.6 11.3 Q205.0 12.9 203.6 15.0 202.25 17.05 201.65 17.1 201.05 17.6 200.6 17.6 199.9 17.6 199.7 17.05 L199.6 16.45 Q199.6 15.55 200.4 14.55 201.45 13.3 201.8 12.35 L202.25 10.35 202.6 8.2 Q203.0 5.9 203.0 0.0 L202.95 -5.25 202.1 -12.15 202.1 -19.05 200.95 -23.6 Q200.1 -27.1 200.1 -28.6 200.1 -29.9 200.85 -30.35 201.65 -30.8 202.05 -29.4 M176.2 -28.1 Q176.25 -29.5 177.55 -29.5 178.95 -29.5 180.3 -26.6 L181.85 -22.55 182.9 -19.4 Q183.8 -16.5 183.8 -15.6 183.8 -13.6 183.05 -10.55 182.35 -7.55 181.6 -6.35 L179.35 -1.25 Q177.6 2.5 176.05 2.5 174.1 2.5 172.3 -4.65 171.1 -9.45 171.1 -11.75 L171.1 -13.65 171.55 -16.25 Q171.2 -17.9 172.8 -20.75 L174.3 -22.95 175.8 -25.25 Q176.1 -25.85 176.2 -28.1 M296.75 -57.55 L297.8 -52.35 298.45 -46.4 Q298.45 -45.0 297.35 -45.0 296.65 -45.0 294.7 -47.35 L292.65 -49.9 Q291.3 -51.0 289.0 -53.45 L283.45 -59.8 Q281.9 -61.5 278.7 -65.9 277.0 -67.8 274.1 -72.4 L272.3 -75.45 270.0 -78.65 264.45 -85.2 Q261.7 -88.25 261.7 -89.9 261.7 -90.85 262.85 -90.85 L266.5 -88.9 271.6 -85.65 278.75 -80.05 Q286.25 -73.35 289.85 -68.8 295.35 -61.8 296.75 -57.55 M292.85 46.35 Q298.5 49.4 298.5 50.0 L298.2 50.7 296.4 51.0 Q288.55 51.0 276.55 45.3 L265.0 39.1 Q261.15 37.3 252.55 31.05 243.6 24.6 243.6 23.25 243.6 21.8 246.75 22.05 249.75 22.35 254.15 24.0 257.4 25.5 260.75 27.6 L267.1 31.3 273.5 35.1 286.25 42.85 292.85 46.35 M210.45 29.15 Q208.8 30.0 208.4 30.25 L204.45 33.15 Q201.7 35.1 200.45 39.05 199.2 42.5 198.85 45.05 L198.25 48.15 Q197.55 50.65 196.4 50.65 195.1 50.65 194.3 48.3 L193.8 45.85 193.4 43.2 193.35 40.95 Q193.35 38.05 193.65 36.9 194.2 34.85 196.35 32.35 197.1 31.45 199.1 30.2 201.35 28.85 203.05 28.45 L208.1 27.2 Q211.85 26.5 211.85 27.7 211.85 28.3 210.45 29.15 M169.55 45.2 Q169.4 48.3 168.7 52.2 168.1 55.55 166.1 60.15 163.9 65.25 162.55 65.25 160.5 65.25 159.85 59.65 L159.6 54.0 Q159.6 51.8 161.6 46.45 163.4 41.5 164.45 39.95 L166.05 36.4 Q166.95 33.9 167.55 32.9 168.45 31.4 169.0 33.0 L169.55 35.3 169.55 38.85 169.55 45.2 M216.15 82.25 Q216.15 79.65 219.65 81.6 L226.25 85.25 231.95 88.6 Q235.2 90.55 237.45 92.2 242.35 95.75 243.6 99.4 L245.1 103.25 Q245.7 104.7 245.7 106.6 L245.95 107.5 246.2 108.9 Q246.2 111.5 243.85 111.5 237.15 111.5 230.0 106.15 224.0 101.7 222.2 97.75 216.15 85.15 216.15 82.25 M182.8 147.6 L182.9 148.15 182.85 148.35 181.5 153.95 179.55 160.95 Q177.4 166.65 175.95 173.7 174.15 181.95 174.05 186.55 L173.5 189.7 172.8 192.95 172.45 195.65 172.4 196.1 172.3 196.6 172.1 197.55 170.2 206.25 Q168.0 217.05 168.0 220.6 168.0 223.8 168.5 228.0 169.0 232.15 169.0 236.3 169.1 245.7 167.45 245.7 166.7 245.7 164.75 242.7 162.9 239.9 162.35 238.3 160.75 233.95 160.9 230.8 160.95 229.45 160.2 223.75 159.4 217.9 159.4 215.95 159.4 212.75 160.9 201.1 L161.7 193.7 162.45 190.05 Q162.7 188.8 163.2 188.15 163.9 184.95 167.2 177.35 170.2 170.35 171.65 167.65 L173.95 162.15 176.4 156.65 179.3 151.2 180.0 149.95 180.7 148.5 Q181.05 147.1 181.9 147.1 182.6 146.95 182.8 147.6 M164.65 143.05 Q160.1 147.1 159.2 147.1 158.3 147.1 158.15 145.05 L158.15 142.7 Q158.15 138.7 158.4 137.05 L158.4 132.55 Q158.5 129.0 160.35 126.55 161.0 125.65 164.5 123.75 168.25 121.7 169.9 121.7 171.45 121.7 172.45 124.1 L173.15 126.55 Q172.15 135.35 170.8 137.05 169.05 139.2 164.65 143.05 M124.1 28.55 L124.4 31.95 124.8 35.0 125.0 37.9 Q125.0 45.05 120.7 52.95 118.3 57.3 117.25 60.45 116.65 62.15 113.85 65.05 111.3 67.75 110.75 67.75 109.8 67.75 109.65 66.7 L109.65 65.6 Q109.65 64.25 110.05 63.5 L110.15 63.25 Q110.05 61.15 109.1 57.5 108.0 53.5 108.0 49.3 108.0 45.7 108.5 43.75 109.1 41.65 111.25 37.75 112.85 34.75 114.75 32.3 L114.95 31.95 116.55 30.05 116.85 29.7 Q118.45 27.95 119.3 27.6 121.2 26.1 122.1 26.1 123.65 26.1 124.1 28.55 M151.35 79.95 Q152.1 81.65 152.1 83.9 L150.85 92.45 Q149.35 100.75 148.05 100.75 146.7 100.75 146.6 98.8 L146.85 95.95 Q147.05 95.05 146.3 93.55 L145.1 91.1 143.5 86.05 Q142.85 83.6 142.85 81.4 142.85 79.6 143.2 78.0 L143.55 76.05 Q143.55 75.45 142.2 72.9 L140.8 70.35 143.35 70.4 148.65 75.85 Q150.65 78.25 151.35 79.95 M117.3 159.75 L120.7 155.6 121.7 153.55 Q122.3 152.3 123.0 152.95 123.6 153.55 123.6 154.15 123.6 155.45 122.1 158.2 L119.85 162.0 Q117.25 166.6 114.25 169.8 L110.65 173.6 Q108.2 175.95 105.55 177.4 L99.75 181.15 Q95.9 183.55 92.5 184.1 L88.85 184.1 Q88.35 184.1 88.05 183.7 L87.85 183.1 Q87.85 182.4 88.55 182.1 L91.25 181.6 94.0 180.95 95.5 180.05 101.35 175.95 110.05 167.9 113.6 163.85 Q115.65 161.25 117.3 159.75 M-86.95 -264.25 L-86.9 -262.55 Q-87.05 -261.15 -88.4 -261.15 -89.7 -261.15 -90.1 -262.9 L-90.25 -264.75 Q-90.25 -268.7 -88.0 -269.4 -85.75 -270.1 -85.75 -267.7 -85.75 -266.95 -86.2 -266.0 L-86.95 -264.25 M-149.5 -269.5 Q-149.5 -267.25 -152.25 -267.25 -153.35 -267.25 -154.8 -268.9 -156.1 -270.35 -156.1 -270.85 -156.1 -273.5 -152.8 -272.5 -149.5 -271.55 -149.5 -269.5 M-103.4 -246.45 L-102.0 -246.75 Q-100.85 -246.75 -100.85 -245.7 -100.85 -244.85 -107.35 -240.1 -113.9 -235.35 -115.3 -235.35 -116.0 -235.35 -116.3 -236.1 L-116.5 -236.95 Q-116.5 -237.75 -115.2 -239.4 L-113.4 -241.45 Q-111.4 -244.15 -109.4 -245.2 -108.15 -246.25 -106.25 -246.25 L-105.6 -246.2 -103.65 -246.5 -103.4 -246.45 M-102.0 -205.95 Q-102.0 -206.95 -101.05 -208.5 -99.65 -210.75 -97.3 -210.75 -94.2 -210.75 -91.55 -208.95 -89.35 -207.45 -89.35 -206.55 -89.35 -206.0 -89.8 -205.4 -90.55 -204.5 -92.0 -204.5 L-92.75 -204.65 -93.2 -204.8 -96.3 -204.95 Q-97.05 -204.95 -98.45 -204.2 -99.9 -203.5 -100.3 -203.5 -101.75 -203.5 -102.0 -204.7 L-102.0 -205.95 M-81.85 -199.2 L-80.5 -199.9 -76.15 -199.9 Q-73.6 -199.45 -72.8 -198.55 -72.4 -198.05 -72.4 -197.0 -72.4 -193.9 -75.55 -193.9 -78.1 -193.9 -80.2 -195.65 -82.0 -197.15 -82.0 -198.25 L-81.85 -199.2 M-37.35 -278.4 L-38.75 -278.1 -41.3 -278.05 -41.85 -277.85 Q-42.5 -277.85 -42.8 -278.4 L-43.0 -279.0 Q-43.0 -279.85 -41.7 -280.65 -40.35 -281.55 -38.6 -281.6 L-35.0 -281.6 Q-31.7 -280.9 -30.85 -280.4 -29.75 -279.85 -29.75 -278.65 -29.75 -277.25 -30.95 -277.25 -31.55 -277.25 -32.6 -277.85 -33.65 -278.45 -35.35 -278.45 L-37.35 -278.4 M-9.75 -263.4 Q-10.05 -263.05 -10.5 -263.0 L-14.6 -263.0 Q-16.7 -263.65 -17.9 -264.55 -19.1 -265.45 -19.1 -266.3 -19.1 -267.6 -18.45 -267.45 L-15.45 -266.95 -14.0 -267.15 Q-12.7 -267.15 -9.5 -264.0 L-9.75 -263.4 M-73.25 -267.65 Q-73.25 -269.65 -70.9 -269.4 -68.6 -269.15 -68.6 -265.8 -70.05 -260.85 -73.45 -260.85 -74.75 -260.85 -75.05 -261.6 L-75.1 -262.35 Q-75.1 -263.3 -73.95 -264.7 L-72.8 -266.2 -73.25 -267.65 M-71.7 -264.15 L-71.75 -264.05 -71.45 -264.5 -71.7 -264.15 M-72.25 -203.8 L-72.1 -205.25 Q-71.65 -206.1 -69.85 -206.5 L-65.35 -206.55 -60.05 -205.8 Q-58.25 -205.45 -58.25 -204.3 -58.25 -203.0 -60.6 -201.2 -63.4 -199.1 -66.75 -199.1 -69.6 -199.1 -71.2 -201.3 -72.25 -202.8 -72.25 -203.8 M-41.9 -216.55 L-41.9 -216.6 -38.5 -216.6 -36.25 -215.95 Q-32.25 -215.7 -32.25 -214.2 -32.25 -213.4 -33.25 -213.2 L-38.8 -212.25 -41.1 -211.4 -41.6 -211.2 Q-41.9 -210.85 -42.65 -210.6 L-45.45 -210.25 -46.4 -210.35 -47.65 -210.25 -48.6 -210.35 -50.15 -210.35 Q-51.9 -210.9 -52.35 -211.3 L-52.65 -212.25 Q-52.65 -213.45 -51.1 -214.8 -48.9 -216.75 -44.85 -216.75 L-42.55 -216.45 -41.9 -216.55 M-34.45 -200.9 L-36.8 -203.0 Q-38.65 -204.7 -38.65 -205.35 -38.65 -206.6 -37.55 -206.6 L-35.0 -206.25 Q-32.35 -205.8 -31.7 -205.25 L-29.15 -202.8 -27.65 -200.4 -26.4 -197.95 -26.65 -197.25 Q-27.0 -196.85 -27.55 -196.85 -30.55 -196.85 -32.7 -198.75 L-34.45 -200.9 M-7.25 -210.7 L-10.15 -209.75 -12.75 -208.85 Q-14.6 -208.25 -16.7 -208.25 -19.05 -208.25 -19.65 -209.0 -19.85 -209.25 -19.85 -210.1 -19.85 -211.55 -19.15 -212.2 -17.95 -213.3 -14.1 -213.75 L-8.65 -213.75 Q-6.25 -213.35 -6.25 -212.0 -6.25 -211.15 -7.25 -210.7 M-237.6 -272.8 Q-237.4 -272.35 -237.5 -271.95 -237.5 -271.2 -237.95 -270.25 L-238.9 -268.3 -239.0 -266.65 Q-239.3 -265.15 -240.3 -265.15 -241.7 -265.15 -242.0 -266.3 L-242.0 -267.55 Q-242.0 -268.8 -241.4 -270.8 -240.55 -273.65 -239.2 -273.65 -237.95 -273.65 -237.6 -272.8 M-230.05 -263.4 L-231.45 -260.7 Q-232.75 -258.4 -233.55 -258.4 -234.9 -258.4 -235.4 -261.35 L-235.6 -264.35 Q-235.6 -267.05 -235.3 -267.75 -234.5 -269.8 -231.15 -270.2 L-227.85 -270.15 Q-226.75 -269.95 -226.75 -268.9 -226.75 -267.9 -230.05 -263.4 M-210.4 -224.4 Q-209.0 -222.55 -209.0 -221.7 -209.0 -220.25 -210.45 -220.25 -211.05 -220.25 -213.1 -221.6 L-215.05 -223.0 -216.45 -222.75 Q-217.9 -222.75 -218.2 -223.6 L-218.25 -224.55 Q-218.25 -226.1 -217.15 -227.2 -215.55 -228.8 -212.6 -226.75 L-210.4 -224.4 M-230.25 -231.45 Q-227.25 -228.15 -227.25 -226.95 -227.25 -224.75 -229.35 -224.75 -234.05 -224.75 -238.75 -229.0 -243.1 -232.95 -243.1 -235.9 -243.1 -238.95 -241.35 -239.0 -239.2 -239.15 -233.9 -235.05 -232.6 -234.0 -230.25 -231.45 M-240.85 -124.25 Q-241.85 -124.35 -242.1 -125.0 L-242.15 -125.8 Q-242.15 -126.65 -241.6 -126.85 -239.9 -127.4 -238.75 -128.1 L-235.95 -128.5 -233.25 -128.3 Q-231.9 -127.8 -231.9 -126.85 -231.9 -125.35 -236.25 -124.25 L-240.85 -124.25 M-277.15 -109.25 Q-275.0 -110.5 -269.75 -109.7 L-266.35 -109.65 Q-264.95 -109.35 -264.95 -108.0 -264.95 -106.05 -269.95 -103.25 -271.8 -101.95 -273.35 -101.1 -276.3 -99.5 -279.0 -99.5 -281.3 -99.5 -282.2 -100.7 -282.7 -101.4 -282.7 -102.2 -282.7 -103.0 -281.8 -104.6 -280.85 -106.3 -280.0 -106.8 -278.8 -107.45 -277.15 -109.25 M-251.6 -117.25 Q-254.65 -117.25 -255.5 -118.0 -255.85 -118.3 -255.85 -119.1 -255.85 -121.4 -249.85 -122.95 -243.9 -124.55 -243.9 -121.25 -243.9 -120.1 -246.25 -118.75 -248.85 -117.25 -251.6 -117.25 M-267.2 -92.8 Q-264.6 -92.65 -264.6 -91.35 -264.6 -89.95 -265.95 -88.45 -267.8 -86.5 -270.9 -86.5 -273.05 -86.5 -273.65 -87.8 L-273.85 -89.15 Q-273.85 -90.7 -272.5 -91.4 L-267.2 -92.8 M-278.3 -67.85 Q-277.1 -67.85 -276.95 -66.6 L-276.9 -65.6 Q-276.55 -65.1 -276.35 -64.4 L-275.55 -62.55 -275.35 -62.25 -273.0 -59.1 Q-272.1 -57.9 -272.1 -56.55 -272.1 -55.75 -272.45 -55.1 -273.1 -54.0 -274.65 -54.0 -276.75 -54.0 -278.05 -55.3 L-280.15 -58.25 Q-281.1 -59.65 -281.15 -60.55 L-281.1 -62.65 Q-281.1 -64.2 -280.75 -65.45 -280.05 -67.85 -278.3 -67.85 M-289.2 -51.0 Q-289.2 -47.7 -291.35 -41.7 -293.65 -35.4 -295.25 -35.4 -297.2 -35.4 -297.95 -39.15 L-298.35 -43.0 Q-298.35 -46.05 -297.3 -48.5 -295.35 -53.15 -290.4 -53.15 -289.45 -53.15 -289.2 -52.1 L-289.2 -51.0 M-285.2 -24.75 Q-284.65 -25.8 -282.75 -26.95 -281.95 -27.5 -278.25 -28.25 -276.2 -28.95 -275.45 -28.55 -275.0 -28.35 -275.0 -27.6 -275.0 -27.35 -277.55 -22.4 -277.9 -21.55 -278.25 -18.85 -278.45 -17.5 -279.9 -17.5 -282.45 -17.5 -284.25 -19.9 -285.6 -21.7 -285.6 -22.65 -285.6 -24.05 -285.2 -24.75 M-285.55 -1.65 Q-286.4 -1.15 -286.65 -0.25 L-287.2 0.9 -287.9 2.1 -291.0 6.8 -294.3 12.3 Q-296.55 16.0 -297.05 16.0 -298.0 16.0 -298.35 13.95 L-298.5 11.7 Q-298.5 9.15 -297.95 7.5 -297.45 6.05 -295.75 2.95 L-294.4 0.8 Q-293.3 -0.5 -291.5 -1.15 L-290.25 -2.15 Q-289.3 -3.0 -288.75 -3.2 -286.6 -4.15 -285.55 -3.75 -284.75 -3.45 -284.75 -2.65 -284.75 -2.1 -285.55 -1.65 M-1.3 -188.65 L-0.2 -186.35 0.6 -184.5 Q0.6 -183.4 -0.75 -183.4 -5.2 -183.4 -7.05 -184.6 -8.3 -185.4 -11.45 -189.45 -14.75 -193.7 -14.75 -196.5 -14.75 -199.85 -9.9 -196.9 -6.0 -194.5 -4.8 -192.95 L-3.0 -190.8 -1.3 -188.65 M-100.2 -192.35 Q-101.0 -191.45 -102.25 -191.5 L-105.25 -191.5 Q-108.0 -191.4 -109.55 -192.9 -110.75 -194.0 -110.75 -195.05 L-110.65 -195.8 Q-110.35 -196.3 -109.25 -196.3 L-107.45 -196.35 Q-102.9 -196.35 -100.85 -195.35 -99.5 -194.7 -99.5 -193.85 -99.5 -193.15 -100.2 -192.35 M-121.35 -194.05 Q-121.35 -193.2 -122.0 -192.8 L-124.75 -191.5 -126.85 -190.4 Q-128.75 -189.5 -129.7 -189.5 -130.55 -189.5 -130.85 -190.0 L-131.0 -190.55 Q-131.0 -191.15 -130.05 -191.8 -128.75 -192.7 -128.4 -193.1 L-127.55 -194.4 Q-126.55 -195.5 -125.15 -195.5 L-122.85 -195.35 Q-121.7 -195.35 -121.4 -194.7 L-121.35 -194.05 M-134.1 -196.0 Q-134.1 -194.1 -139.1 -189.75 -139.8 -189.75 -140.1 -190.6 L-140.25 -191.45 Q-140.25 -193.5 -137.15 -196.05 L-134.1 -196.0 M-140.15 -183.1 L-141.65 -181.2 -143.6 -178.3 Q-144.3 -177.6 -145.6 -177.6 -146.55 -177.6 -146.8 -178.25 L-146.85 -179.0 Q-146.85 -182.05 -142.9 -185.1 -139.0 -188.15 -139.0 -185.25 -139.0 -184.6 -140.15 -183.1 M-145.4 -174.4 Q-144.6 -174.85 -143.75 -173.75 -143.5 -173.3 -143.5 -172.7 L-143.9 -169.45 -144.35 -166.75 Q-144.45 -164.85 -144.8 -163.35 -145.3 -161.1 -146.05 -161.1 -147.25 -161.1 -148.5 -164.5 L-149.5 -167.9 Q-149.5 -170.7 -147.25 -172.25 L-146.35 -173.35 -145.4 -174.4 M-277.15 27.5 Q-276.0 27.5 -275.25 28.85 L-275.15 29.25 Q-274.85 29.5 -274.8 29.9 L-274.85 31.05 -274.75 35.2 Q-275.0 39.1 -275.95 40.0 -276.45 41.15 -277.1 41.15 -278.85 41.15 -279.9 38.7 -280.6 37.05 -280.6 35.95 L-279.75 31.65 Q-278.6 27.5 -277.15 27.5 M-286.7 67.85 Q-292.45 57.45 -292.45 54.65 -292.45 51.95 -290.1 54.5 L-289.55 55.0 Q-286.9 57.6 -286.85 58.65 L-286.15 59.8 -282.8 64.7 -278.25 69.85 -277.0 71.25 -275.3 72.75 Q-270.35 77.1 -270.35 78.35 L-270.4 78.65 -270.35 78.8 Q-270.35 79.85 -271.75 79.85 -274.65 79.85 -281.9 74.4 -283.75 73.05 -284.95 71.1 -286.05 68.9 -286.7 67.85 M-258.45 138.65 Q-261.3 138.65 -262.15 133.8 L-262.45 128.95 Q-262.45 124.7 -261.45 123.3 -260.6 122.05 -259.3 123.4 -256.2 126.6 -256.2 134.45 L-256.45 136.7 Q-257.0 138.65 -258.45 138.65 M-294.35 116.65 Q-294.35 115.75 -293.8 114.15 -293.2 112.3 -292.4 111.6 -289.25 108.8 -289.25 113.95 -289.25 115.6 -289.5 116.65 -290.1 119.0 -291.75 119.0 -293.75 119.0 -294.25 118.0 L-294.35 116.65 M-281.7 157.2 Q-281.7 155.35 -280.7 154.0 -279.75 152.7 -278.4 152.65 -274.95 152.45 -273.7 159.25 -273.2 162.15 -271.7 165.9 -270.45 168.85 -270.45 171.65 -270.45 173.4 -270.95 175.6 -271.8 179.15 -273.45 179.15 -275.65 179.15 -278.75 174.15 L-281.45 169.05 -280.8 166.55 -280.2 164.0 Q-280.2 162.95 -280.95 160.35 L-281.7 157.2 M-238.7 214.2 Q-239.35 214.9 -240.35 214.9 -244.55 214.9 -247.85 209.85 -250.45 205.75 -250.45 203.25 -250.45 200.0 -248.5 200.05 -246.4 200.1 -244.35 204.4 L-240.75 209.3 Q-238.2 212.6 -238.2 212.85 -238.2 213.55 -238.7 214.2" fill="#ffffff" fill-rule="evenodd" stroke="none"/>
  </g>
</svg>
