<?xml version="1.0" encoding="UTF-8" standalone="no"?>
<svg xmlns:ffdec="https://www.free-decompiler.com/flash" xmlns:xlink="http://www.w3.org/1999/xlink" ffdec:objectType="text" height="27.75px" width="146.75px" xmlns="http://www.w3.org/2000/svg">
  <g transform="matrix(1.0, 0.0, 0.0, 1.0, -268.4, -0.55)">
    <g transform="matrix(1.0, 0.0, 0.0, 1.0, 267.45, 0.0)">
      <use fill="#ffffff" height="27.75" transform="matrix(0.0352, 0.0, 0.0, 0.0352, 0.0, 27.0)" width="146.75" xlink:href="#font_Myriad_Pro_A0"/>
      <use fill="#ffffff" height="27.75" transform="matrix(0.0352, 0.0, 0.0, 0.0352, 22.0, 27.0)" width="146.75" xlink:href="#font_Myriad_Pro_I0"/>
      <use fill="#ffffff" height="27.75" transform="matrix(0.0352, 0.0, 0.0, 0.0352, 30.6, 27.0)" width="146.75" xlink:href="#font_Myriad_Pro_R0"/>
      <use fill="#ffffff" height="27.75" transform="matrix(0.0352, 0.0, 0.0, 0.0352, 49.95, 27.0)" width="146.75" xlink:href="#font_Myriad_Pro_E0"/>
      <use fill="#ffffff" height="27.75" transform="matrix(0.0352, 0.0, 0.0, 0.0352, 67.7, 27.0)" width="146.75" xlink:href="#font_Myriad_Pro_D0"/>
      <use fill="#ffffff" height="27.75" transform="matrix(0.0352, 0.0, 0.0, 0.0352, 91.2, 27.0)" width="146.75" xlink:href="#font_Myriad_Pro_A0"/>
      <use fill="#ffffff" height="27.75" transform="matrix(0.0352, 0.0, 0.0, 0.0352, 113.25, 27.0)" width="146.75" xlink:href="#font_Myriad_Pro_L0"/>
      <use fill="#ffffff" height="27.75" transform="matrix(0.0352, 0.0, 0.0, 0.0352, 130.2, 27.0)" width="146.75" xlink:href="#font_Myriad_Pro_E0"/>
    </g>
  </g>
  <defs>
    <g id="font_Myriad_Pro_A0">
      <path d="M207.0 -287.5 L207.0 -287.5 275.0 -488.0 Q295.5 -551.0 310.0 -612.0 L312.0 -612.0 Q326.0 -553.0 348.0 -486.0 L416.5 -287.5 207.0 -287.5 207.0 -287.5 M434.0 -216.5 L434.0 -216.5 508.0 0.0 603.5 0.0 367.5 -692.0 260.5 -692.0 24.5 0.0 117.0 0.0 188.5 -216.5 434.0 -216.5 434.0 -216.5" fill-rule="evenodd" stroke="none"/>
    </g>
    <g id="font_Myriad_Pro_I0">
      <path d="M76.0 -692.0 L76.0 -692.0 76.0 0.0 168.0 0.0 168.0 -692.0 76.0 -692.0 76.0 -692.0" fill-rule="evenodd" stroke="none"/>
    </g>
    <g id="font_Myriad_Pro_R0">
      <path d="M168.0 -617.5 L168.0 -617.5 Q191.0 -624.0 255.0 -624.5 326.0 -624.5 368.5 -594.0 411.0 -563.5 412.0 -497.5 406.0 -374.0 258.0 -367.5 L168.0 -367.5 168.0 -617.5 168.0 -617.5 M76.0 0.0 L76.0 0.0 168.0 0.0 168.0 -296.5 251.0 -296.5 Q364.5 -298.5 389.0 -163.5 416.5 -33.0 434.5 0.0 L528.5 0.0 Q508.0 -42.0 474.5 -188.0 450.0 -296.5 372.5 -327.5 L372.5 -331.0 Q428.0 -350.5 465.5 -395.0 502.5 -439.5 504.0 -506.5 502.0 -589.5 448.0 -638.0 387.0 -696.0 249.0 -695.5 152.5 -694.5 76.0 -681.0 L76.0 0.0 76.0 0.0" fill-rule="evenodd" stroke="none"/>
    </g>
    <g id="font_Myriad_Pro_E0">
      <path d="M435.0 -399.5 L435.0 -399.5 168.0 -399.5 168.0 -616.0 451.5 -616.0 451.5 -692.0 76.0 -692.0 76.0 0.0 467.0 0.0 467.0 -76.0 168.0 -76.0 168.0 -324.5 435.0 -324.5 435.0 -399.5 435.0 -399.5" fill-rule="evenodd" stroke="none"/>
    </g>
    <g id="font_Myriad_Pro_D0">
      <path d="M168.0 -615.0 L168.0 -615.0 Q203.0 -623.5 272.5 -624.5 413.5 -623.0 483.5 -552.0 553.0 -481.5 552.0 -357.5 548.5 -70.5 258.0 -64.0 203.5 -63.5 168.0 -68.0 L168.0 -615.0 168.0 -615.0 M76.0 -0.5 L76.0 -0.5 Q145.0 7.5 240.5 8.0 445.5 6.5 547.0 -91.5 646.0 -189.0 648.0 -360.5 645.5 -526.5 548.0 -609.0 459.0 -694.0 268.5 -695.5 161.0 -695.0 76.0 -680.0 L76.0 -0.5 76.0 -0.5" fill-rule="evenodd" stroke="none"/>
    </g>
    <g id="font_Myriad_Pro_L0">
      <path d="M76.0 0.0 L76.0 0.0 463.0 0.0 463.0 -76.0 168.0 -76.0 168.0 -692.0 76.0 -692.0 76.0 0.0 76.0 0.0" fill-rule="evenodd" stroke="none"/>
    </g>
  </defs>
</svg>
