<?xml version="1.0" encoding="UTF-8" standalone="no"?>
<svg xmlns:ffdec="https://www.free-decompiler.com/flash" xmlns:xlink="http://www.w3.org/1999/xlink" ffdec:objectType="text" height="28.15px" width="105.35px" xmlns="http://www.w3.org/2000/svg">
  <g transform="matrix(1.0, 0.0, 0.0, 1.0, -289.0, -0.25)">
    <g transform="matrix(1.0, 0.0, 0.0, 1.0, 288.75, 0.0)">
      <use fill="#ffffff" height="28.15" transform="matrix(0.0352, 0.0, 0.0, 0.0352, 0.0, 27.0)" width="105.35" xlink:href="#font_Myriad_Pro_V0"/>
      <use fill="#ffffff" height="28.15" transform="matrix(0.0352, 0.0, 0.0, 0.0352, 20.05, 27.0)" width="105.35" xlink:href="#font_Myriad_Pro_I0"/>
      <use fill="#ffffff" height="28.15" transform="matrix(0.0352, 0.0, 0.0, 0.0352, 28.65, 27.0)" width="105.35" xlink:href="#font_Myriad_Pro_Z0"/>
      <use fill="#ffffff" height="28.15" transform="matrix(0.0352, 0.0, 0.0, 0.0352, 48.55, 27.0)" width="105.35" xlink:href="#font_Myriad_Pro_S0"/>
      <use fill="#ffffff" height="28.15" transform="matrix(0.0352, 0.0, 0.0, 0.0352, 66.3, 27.0)" width="105.35" xlink:href="#font_Myriad_Pro_L0"/>
      <use fill="#ffffff" height="28.15" transform="matrix(0.0352, 0.0, 0.0, 0.0352, 83.3, 27.0)" width="105.35" xlink:href="#font_Myriad_Pro_A0"/>
    </g>
  </g>
  <defs>
    <g id="font_Myriad_Pro_V0">
      <path d="M329.0 0.0 L329.0 0.0 575.5 -692.0 480.5 -692.0 363.5 -350.0 Q315.0 -213.0 285.0 -92.0 L283.0 -92.0 Q253.0 -212.0 209.0 -351.0 L101.5 -692.0 4.5 -692.0 230.5 0.0 329.0 0.0 329.0 0.0" fill-rule="evenodd" stroke="none"/>
    </g>
    <g id="font_Myriad_Pro_I0">
      <path d="M76.0 -692.0 L76.0 -692.0 76.0 0.0 168.0 0.0 168.0 -692.0 76.0 -692.0 76.0 -692.0" fill-rule="evenodd" stroke="none"/>
    </g>
    <g id="font_Myriad_Pro_Z0">
      <path d="M32.0 0.0 L32.0 0.0 536.0 0.0 536.0 -76.0 150.0 -76.0 150.0 -79.0 531.0 -637.0 531.0 -692.0 65.0 -692.0 65.0 -616.0 414.0 -616.0 414.0 -613.0 32.0 -53.0 32.0 0.0 32.0 0.0" fill-rule="evenodd" stroke="none"/>
    </g>
    <g id="font_Myriad_Pro_S0">
      <path d="M42.0 -34.0 L42.0 -34.0 Q71.0 -14.5 119.5 -1.5 168.0 11.5 219.0 12.0 340.0 9.5 400.0 -48.5 460.0 -106.5 460.0 -189.0 460.0 -264.0 415.5 -311.5 371.5 -359.0 284.0 -391.5 213.5 -418.0 180.5 -448.0 147.5 -477.5 148.0 -525.0 147.0 -562.5 177.5 -594.5 207.5 -626.5 277.0 -628.5 371.5 -622.0 406.5 -595.5 L431.5 -668.0 Q385.0 -700.0 280.0 -703.5 178.5 -702.0 118.0 -649.5 57.5 -597.0 56.0 -514.5 63.5 -375.0 239.0 -318.0 373.0 -271.5 368.0 -182.0 364.5 -70.5 225.0 -64.0 130.0 -67.5 65.5 -109.0 L42.0 -34.0 42.0 -34.0" fill-rule="evenodd" stroke="none"/>
    </g>
    <g id="font_Myriad_Pro_L0">
      <path d="M76.0 0.0 L76.0 0.0 463.0 0.0 463.0 -76.0 168.0 -76.0 168.0 -692.0 76.0 -692.0 76.0 0.0 76.0 0.0" fill-rule="evenodd" stroke="none"/>
    </g>
    <g id="font_Myriad_Pro_A0">
      <path d="M207.0 -287.5 L207.0 -287.5 275.0 -488.0 Q295.5 -551.0 310.0 -612.0 L312.0 -612.0 Q326.0 -553.0 348.0 -486.0 L416.5 -287.5 207.0 -287.5 207.0 -287.5 M434.0 -216.5 L434.0 -216.5 508.0 0.0 603.5 0.0 367.5 -692.0 260.5 -692.0 24.5 0.0 117.0 0.0 188.5 -216.5 434.0 -216.5 434.0 -216.5" fill-rule="evenodd" stroke="none"/>
    </g>
  </defs>
</svg>
