<?xml version="1.0" encoding="UTF-8" standalone="no"?>
<svg xmlns:ffdec="https://www.free-decompiler.com/flash" xmlns:xlink="http://www.w3.org/1999/xlink" ffdec:objectType="text" height="28.15px" width="111.05px" xmlns="http://www.w3.org/2000/svg">
  <g transform="matrix(1.0, 0.0, 0.0, 1.0, -287.8, -0.25)">
    <g transform="matrix(1.0, 0.0, 0.0, 1.0, 285.1, 0.0)">
      <use fill="#ffffff" height="28.15" transform="matrix(0.0352, 0.0, 0.0, 0.0352, 0.0, 27.0)" width="111.05" xlink:href="#font_Myriad_Pro_B0"/>
      <use fill="#ffffff" height="28.15" transform="matrix(0.0352, 0.0, 0.0, 0.0352, 19.5, 27.0)" width="111.05" xlink:href="#font_Myriad_Pro_A0"/>
      <use fill="#ffffff" height="28.15" transform="matrix(0.0352, 0.0, 0.0, 0.0352, 41.55, 27.0)" width="111.05" xlink:href="#font_Myriad_Pro_S0"/>
      <use fill="#ffffff" height="28.15" transform="matrix(0.0352, 0.0, 0.0, 0.0352, 59.3, 27.0)" width="111.05" xlink:href="#font_Myriad_Pro_S0"/>
      <use fill="#ffffff" height="28.15" transform="matrix(0.0352, 0.0, 0.0, 0.0352, 77.05, 27.0)" width="111.05" xlink:href="#font_Myriad_Pro_E0"/>
      <use fill="#ffffff" height="28.15" transform="matrix(0.0352, 0.0, 0.0, 0.0352, 94.75, 27.0)" width="111.05" xlink:href="#font_Myriad_Pro_T0"/>
    </g>
  </g>
  <defs>
    <g id="font_Myriad_Pro_B0">
      <path d="M168.0 -332.0 L168.0 -332.0 241.0 -332.0 Q314.5 -332.5 364.5 -300.5 414.0 -268.0 416.0 -198.5 413.5 -124.0 363.0 -93.0 312.0 -62.5 241.5 -63.5 195.0 -63.5 168.0 -67.5 L168.0 -332.0 168.0 -332.0 M168.0 -618.5 L168.0 -618.5 Q187.0 -623.5 246.5 -624.5 388.5 -628.0 396.0 -514.0 395.5 -464.5 357.0 -432.5 318.5 -401.0 248.5 -400.0 L168.0 -400.0 168.0 -618.5 168.0 -618.5 M76.0 -1.0 L76.0 -1.0 Q123.5 6.5 216.5 7.5 381.5 8.5 451.5 -58.5 509.0 -108.0 512.0 -197.5 509.0 -274.0 464.5 -316.5 420.5 -359.0 368.5 -370.5 L368.5 -374.0 Q483.5 -418.5 488.0 -523.0 485.5 -603.0 429.0 -643.5 370.0 -696.5 241.0 -695.5 143.0 -695.0 76.0 -679.5 L76.0 -1.0 76.0 -1.0" fill-rule="evenodd" stroke="none"/>
    </g>
    <g id="font_Myriad_Pro_A0">
      <path d="M207.0 -287.5 L207.0 -287.5 275.0 -488.0 Q295.5 -551.0 310.0 -612.0 L312.0 -612.0 Q326.0 -553.0 348.0 -486.0 L416.5 -287.5 207.0 -287.5 207.0 -287.5 M434.0 -216.5 L434.0 -216.5 508.0 0.0 603.5 0.0 367.5 -692.0 260.5 -692.0 24.5 0.0 117.0 0.0 188.5 -216.5 434.0 -216.5 434.0 -216.5" fill-rule="evenodd" stroke="none"/>
    </g>
    <g id="font_Myriad_Pro_S0">
      <path d="M42.0 -34.0 L42.0 -34.0 Q71.0 -14.5 119.5 -1.5 168.0 11.5 219.0 12.0 340.0 9.5 400.0 -48.5 460.0 -106.5 460.0 -189.0 460.0 -264.0 415.5 -311.5 371.5 -359.0 284.0 -391.5 213.5 -418.0 180.5 -448.0 147.5 -477.5 148.0 -525.0 147.0 -562.5 177.5 -594.5 207.5 -626.5 277.0 -628.5 371.5 -622.0 406.5 -595.5 L431.5 -668.0 Q385.0 -700.0 280.0 -703.5 178.5 -702.0 118.0 -649.5 57.5 -597.0 56.0 -514.5 63.5 -375.0 239.0 -318.0 373.0 -271.5 368.0 -182.0 364.5 -70.5 225.0 -64.0 130.0 -67.5 65.5 -109.0 L42.0 -34.0 42.0 -34.0" fill-rule="evenodd" stroke="none"/>
    </g>
    <g id="font_Myriad_Pro_E0">
      <path d="M435.0 -399.5 L435.0 -399.5 168.0 -399.5 168.0 -616.0 451.5 -616.0 451.5 -692.0 76.0 -692.0 76.0 0.0 467.0 0.0 467.0 -76.0 168.0 -76.0 168.0 -324.5 435.0 -324.5 435.0 -399.5 435.0 -399.5" fill-rule="evenodd" stroke="none"/>
    </g>
    <g id="font_Myriad_Pro_T0">
      <path d="M208.0 0.0 L208.0 0.0 300.0 0.0 300.0 -616.0 511.0 -616.0 511.0 -692.0 -2.0 -692.0 -2.0 -616.0 208.0 -616.0 208.0 0.0 208.0 0.0" fill-rule="evenodd" stroke="none"/>
    </g>
  </defs>
</svg>
