<?xml version="1.0" encoding="UTF-8" standalone="no"?>
<svg xmlns:ffdec="https://www.free-decompiler.com/flash" xmlns:xlink="http://www.w3.org/1999/xlink" ffdec:objectType="shape" height="160.8px" width="292.5px" xmlns="http://www.w3.org/2000/svg">
  <g transform="matrix(1.0, 0.0, 0.0, 1.0, 149.95, 92.0)">
    <path d="M105.15 13.75 L106.15 13.1 Q106.4 14.85 105.35 16.3 104.3 17.8 102.65 18.5 L103.2 19.2 103.55 19.85 Q102.95 20.2 102.7 20.7 L102.1 21.55 Q102.45 21.7 102.85 22.0 L103.5 22.5 102.55 22.65 103.25 24.4 102.6 24.7 101.8 24.8 102.5 25.4 101.45 25.4 100.45 25.55 Q100.2 26.55 100.45 27.55 L101.0 29.55 100.4 28.05 99.85 30.95 99.65 29.0 99.2 27.15 98.9 29.0 98.9 27.3 Q98.8 29.1 98.0 30.65 L97.9 27.45 Q97.4 28.8 97.3 30.2 L97.3 32.7 97.05 31.95 97.3 34.2 Q97.4 35.2 97.8 35.95 L96.45 38.8 97.55 37.55 Q97.5 38.65 96.85 39.95 L94.1 44.0 94.45 40.35 Q93.0 41.55 91.95 43.15 L89.55 46.15 91.15 42.0 89.55 44.4 Q89.65 42.6 90.15 40.9 L91.1 37.5 88.1 42.4 88.6 40.65 88.75 39.1 87.65 40.65 88.4 36.0 Q87.4 37.35 86.85 38.8 86.3 40.3 85.9 41.9 L86.15 39.7 86.05 37.65 83.7 44.0 84.25 39.2 Q83.45 40.65 83.1 42.25 L82.6 44.7 83.05 40.6 82.05 44.0 Q81.95 43.0 81.45 42.15 80.3 44.15 79.8 46.5 L78.6 51.0 79.15 47.9 Q79.4 46.25 78.95 44.85 78.15 46.35 77.8 48.05 L77.05 51.4 Q77.1 50.4 77.3 49.35 L77.6 47.35 Q76.6 49.25 75.95 51.35 L74.45 55.4 Q73.95 54.1 74.4 52.4 L75.35 49.35 72.35 55.95 74.3 51.05 Q75.1 48.3 74.85 45.9 73.95 47.8 73.3 49.8 L71.95 53.75 73.15 47.1 Q72.15 49.15 71.55 51.35 L70.35 55.7 71.6 48.25 Q70.9 49.6 70.5 51.25 L69.7 54.5 Q69.6 53.4 69.85 52.05 L70.1 50.9 69.25 53.25 Q68.5 55.1 67.35 56.6 L68.2 53.65 66.7 56.5 65.6 59.55 66.05 57.25 65.15 58.3 66.3 56.1 67.0 53.7 Q67.35 52.5 68.0 51.6 67.15 52.7 66.45 53.95 L65.0 56.4 67.7 50.45 Q65.35 52.8 63.7 55.7 L67.2 47.95 65.35 50.05 65.85 48.4 Q64.95 49.1 64.2 50.3 L64.05 50.6 64.5 49.5 Q65.8 46.5 66.15 43.6 64.85 45.2 63.8 47.1 L62.9 48.8 63.4 47.05 64.05 43.0 Q62.65 44.7 61.65 47.2 L59.95 51.35 Q59.1 53.4 57.75 54.85 58.7 52.55 60.2 50.5 L56.55 55.15 Q57.1 54.1 57.2 52.9 55.5 54.2 54.15 55.9 L56.3 52.9 Q57.4 51.25 57.85 49.35 56.2 50.55 55.15 52.25 54.1 54.0 52.7 55.35 53.15 53.3 54.05 51.3 L55.45 47.25 Q53.95 48.85 52.9 50.85 L50.8 54.75 Q51.4 52.4 52.55 50.1 L54.8 45.5 Q53.15 47.45 51.65 49.7 L49.95 52.8 52.2 47.15 Q52.75 45.25 52.65 43.45 51.5 45.25 50.85 47.35 L49.25 51.25 49.75 48.95 49.8 46.7 Q48.8 48.3 48.1 50.05 L47.7 51.0 Q47.25 53.45 45.95 55.9 43.9 59.75 40.65 62.7 37.35 65.7 33.8 66.85 37.4 64.65 39.9 62.25 42.35 59.85 43.95 56.8 45.55 53.7 46.55 49.5 L46.2 50.05 46.55 48.2 44.55 51.35 46.3 45.7 Q45.1 47.4 44.15 49.3 L41.95 52.9 45.2 45.85 43.15 48.95 40.75 51.65 Q41.7 48.95 43.25 46.55 L39.5 51.4 Q40.15 49.05 41.4 46.95 40.25 48.45 39.35 50.1 L37.85 52.8 38.75 50.95 39.65 48.4 37.9 51.75 Q37.0 53.45 35.7 54.85 L35.85 53.95 Q34.75 54.8 33.75 55.9 L31.2 58.5 Q30.2 58.95 29.25 59.5 L30.55 58.25 35.1 53.05 Q37.0 50.4 37.45 48.6 L33.65 53.6 36.7 48.7 33.6 52.5 36.4 48.55 30.3 54.4 34.35 49.35 31.2 52.4 Q29.7 54.05 28.0 55.4 L32.6 49.25 30.05 52.15 Q28.75 53.55 27.1 54.55 28.3 53.2 29.65 52.0 L32.3 49.5 24.55 56.0 Q25.55 54.55 27.0 53.15 L29.5 50.8 25.8 53.4 28.25 50.85 Q25.85 53.1 23.1 54.8 19.5 57.0 15.7 58.8 L13.65 59.8 13.85 59.65 Q16.65 58.1 19.05 56.0 21.45 53.9 23.05 51.1 L19.9 53.7 22.6 51.0 Q21.4 51.45 20.3 52.15 L18.15 53.5 20.3 50.45 Q18.6 51.4 17.2 52.7 L14.25 55.1 16.8 51.8 12.2 55.45 17.6 49.55 Q15.7 50.65 14.05 52.15 L10.6 55.0 13.5 51.8 12.05 53.1 Q11.15 53.8 10.35 53.95 L12.1 52.6 Q12.95 51.85 13.3 50.95 12.0 51.65 10.85 52.45 L8.3 53.75 11.35 51.7 9.15 51.65 Q7.75 52.15 6.35 53.05 L4.05 54.35 6.3 52.25 Q5.25 52.3 4.3 52.95 L2.4 54.3 Q1.45 55.0 0.45 55.25 L2.55 53.6 -1.0 55.8 0.4 54.75 1.55 53.6 Q-1.05 54.55 -3.5 55.95 -1.35 54.6 1.0 53.6 -1.9 54.0 -4.65 54.9 L-10.2 56.7 -16.0 57.65 -10.5 56.15 Q-7.45 55.35 -4.8 54.1 -2.1 52.8 -0.85 50.55 L-0.55 49.9 Q15.15 48.1 30.35 42.8 L69.25 29.4 87.0 22.6 Q95.95 19.1 104.9 15.15 L105.15 13.75" fill="url(#gradient0)" fill-rule="evenodd" stroke="none"/>
    <path d="M-0.55 49.9 L-1.2 49.95 Q-17.25 51.75 -33.7 48.75 -44.75 46.65 -55.6 42.35 -66.5 38.05 -76.15 32.1 L-81.8 28.1 -101.2 11.75 Q-105.15 8.05 -109.95 2.75 -114.75 -2.55 -119.7 -9.35 -124.65 -16.15 -129.0 -24.25 L-125.4 -19.3 Q-123.8 -17.35 -121.85 -15.75 -119.85 -14.1 -117.9 -13.7 -119.5 -15.15 -121.0 -17.25 L-124.45 -22.65 -130.2 -33.45 Q-136.8 -45.25 -141.45 -57.9 L-143.5 -64.4 Q-144.45 -67.65 -145.75 -70.75 L-147.75 -74.7 Q-148.9 -76.7 -149.55 -78.85 -150.25 -81.0 -149.75 -83.2 L-149.15 -81.7 -149.35 -82.8 Q-149.6 -84.1 -149.45 -85.4 L-148.9 -83.7 -148.85 -85.8 -148.15 -83.7 -148.4 -86.15 -147.85 -84.05 -147.8 -86.5 -147.5 -85.5 -147.05 -87.55 -146.45 -85.35 -146.3 -87.9 -145.55 -85.7 -145.55 -87.3 Q-145.5 -88.15 -145.6 -89.0 L-144.85 -86.75 -144.8 -87.9 Q-144.7 -88.55 -144.75 -89.15 L-144.15 -87.75 -143.95 -90.1 -142.85 -87.65 -142.8 -89.4 -141.7 -86.75 -142.05 -89.05 -141.15 -87.35 -141.05 -89.6 -140.1 -86.9 -140.0 -89.25 -139.35 -86.95 Q-139.5 -87.5 -139.25 -88.0 L-138.35 -86.85 -138.35 -90.05 -137.4 -87.2 -137.65 -91.45 -137.1 -88.65 -137.25 -92.0 Q-136.3 -89.3 -135.85 -86.5 L-136.2 -91.15 Q-135.3 -89.35 -135.15 -87.35 L-135.1 -90.4 Q-134.4 -88.75 -134.1 -87.0 L-134.05 -89.7 Q-133.25 -88.05 -133.05 -86.2 L-132.85 -89.35 -131.7 -86.35 -131.65 -87.85 Q-131.6 -88.6 -131.7 -89.35 -131.3 -87.4 -130.3 -85.65 L-130.2 -88.2 -129.3 -85.3 -129.25 -87.55 Q-128.95 -85.25 -127.85 -83.25 L-128.15 -85.45 -126.4 -79.85 -126.45 -83.0 -125.35 -79.5 -125.3 -81.75 -124.05 -77.75 -123.9 -79.85 -122.9 -75.25 Q-122.8 -77.9 -123.35 -80.55 L-123.9 -85.85 Q-122.8 -83.25 -122.45 -80.45 L-121.9 -81.65 -119.95 -77.75 -119.15 -79.1 -119.05 -77.7 -118.75 -76.35 -116.4 -76.1 Q-115.25 -76.0 -114.2 -76.8 L-114.1 -75.65 -112.8 -74.85 -108.9 -70.05 -108.4 -70.7 -106.2 -67.3 Q-105.0 -65.55 -104.25 -63.65 L-104.35 -65.7 -102.6 -62.85 -102.1 -64.15 -101.55 -62.8 -101.25 -64.9 Q-99.2 -60.35 -95.85 -56.75 L-89.0 -49.55 -89.75 -52.55 -85.5 -46.9 -85.8 -49.45 -82.2 -44.15 Q-80.1 -41.35 -77.55 -38.9 L-72.3 -34.3 Q-73.15 -35.9 -73.55 -37.8 L-74.2 -41.45 Q-72.5 -40.25 -71.75 -38.2 L-70.2 -34.05 Q-69.75 -32.75 -68.85 -31.8 L-78.4 -38.55 Q-83.05 -41.75 -87.35 -45.4 -91.65 -49.05 -95.95 -54.15 L-94.35 -48.25 Q-93.6 -45.3 -93.6 -42.25 -95.95 -47.55 -99.4 -52.1 L-96.15 -40.7 Q-95.3 -37.8 -94.15 -35.3 L-97.25 -40.5 Q-95.5 -34.1 -91.75 -28.6 L-96.05 -33.05 -92.0 -26.0 Q-96.4 -29.85 -99.45 -34.8 -98.6 -31.95 -97.25 -29.2 L-94.4 -23.85 Q-96.1 -26.5 -98.35 -28.9 L-102.75 -33.8 -95.25 -18.3 Q-91.55 -10.6 -87.25 -3.55 -82.95 3.5 -77.25 9.5 -71.55 15.45 -63.65 19.9 -55.9 24.15 -47.05 27.2 -38.15 30.2 -28.7 32.1 -19.25 33.95 -9.75 34.85 L8.6 35.7 1.6 36.7 Q6.7 37.2 12.1 36.65 L23.1 35.0 34.1 32.7 61.25 27.95 Q69.65 26.5 77.95 24.5 86.25 22.45 94.1 19.6 L86.5 19.95 Q88.45 19.35 90.55 18.25 94.3 16.3 97.9 13.95 L99.0 13.3 105.55 11.25 105.15 13.75 104.9 15.15 Q95.95 19.1 87.0 22.6 L69.25 29.4 30.35 42.8 Q15.15 48.1 -0.55 49.9 M-67.75 -31.0 L-68.05 -32.1 -68.15 -33.15 -65.85 -29.65 -67.75 -31.0 M-62.1 -27.0 L-62.15 -27.4 -62.05 -29.55 -59.95 -25.7 -59.8 -27.85 Q-58.7 -27.5 -58.0 -26.4 L-56.55 -24.2 Q-55.85 -23.0 -54.75 -22.4 L-54.35 -25.0 Q-53.55 -23.1 -52.5 -21.65 L-49.9 -18.9 -49.45 -22.8 Q-48.65 -20.95 -47.25 -19.4 -45.9 -17.85 -44.15 -16.8 L-44.7 -19.05 -40.75 -14.1 Q-41.75 -16.0 -42.15 -17.95 L-42.6 -22.05 -38.2 -16.2 -34.2 -10.3 -37.0 -12.05 -43.7 -15.35 Q-47.2 -16.8 -50.25 -18.65 L-62.1 -27.0 M-34.1 -10.2 Q-33.95 -11.3 -34.15 -12.5 L-34.65 -14.8 -33.1 -12.3 -33.65 -15.7 -31.6 -11.75 -31.05 -15.05 Q-30.75 -13.6 -30.85 -12.1 L-30.55 -14.4 Q-30.2 -11.7 -28.65 -9.6 L-27.1 -7.7 -27.3 -7.8 -31.35 -7.6 -34.1 -10.2 M-13.25 2.05 L-13.35 1.65 -14.3 -3.1 Q-14.85 -5.45 -16.15 -7.5 L-10.5 -1.15 -3.55 5.0 Q-0.75 7.25 2.65 9.4 0.95 8.85 0.25 8.25 0.05 8.65 0.9 9.15 L2.55 10.3 Q3.4 10.85 3.4 11.3 L5.05 12.75 0.15 9.9 Q-5.25 6.5 -9.3 2.6 L-13.0 -1.65 -13.0 -1.6 -11.65 2.45 -13.25 2.05" fill="url(#gradient1)" fill-rule="evenodd" stroke="none"/>
    <path d="M2.65 9.4 L6.05 10.45 Q7.75 10.95 8.5 11.5 L6.6 5.55 10.2 9.4 7.5 2.75 11.95 10.55 10.55 7.1 Q9.95 5.3 9.9 3.4 L11.85 7.25 Q12.9 9.3 14.55 10.6 L14.1 7.5 15.25 9.7 Q15.0 8.6 15.15 7.45 L19.3 12.7 Q20.35 14.0 21.75 14.9 L19.05 11.7 Q17.7 10.0 16.75 8.1 15.8 6.2 15.85 4.2 16.8 7.1 17.65 8.6 18.5 10.1 19.45 10.5 L21.5 10.6 20.1 6.6 21.75 8.9 Q22.65 10.3 23.7 11.2 24.7 12.15 25.8 11.8 L26.0 10.1 26.65 12.75 Q27.7 11.7 28.9 10.95 29.75 11.55 29.45 12.55 29.8 11.75 30.5 11.4 31.15 11.1 31.8 10.5 32.4 9.95 32.65 8.4 32.35 10.7 32.45 13.0 L33.6 10.75 35.0 8.8 34.6 11.1 34.5 13.3 Q35.4 12.2 35.9 10.9 L36.7 8.15 36.55 13.15 Q37.9 11.45 38.45 9.25 L38.5 12.75 Q38.7 10.9 39.6 9.2 L39.85 11.6 41.05 7.65 40.75 10.45 Q40.6 11.85 40.7 13.25 41.35 12.0 41.65 10.55 L42.1 7.65 42.45 10.7 Q42.55 12.25 43.2 13.4 L43.15 8.85 Q43.1 6.55 43.7 4.4 L43.75 4.55 43.75 2.65 Q43.8 -0.45 44.8 -2.9 44.2 -1.2 44.25 1.55 44.25 4.35 45.1 7.2 45.95 10.1 47.85 12.05 L48.0 10.45 48.1 11.6 48.4 10.65 48.9 9.7 49.4 12.25 50.35 9.7 Q50.85 8.45 51.75 7.5 L51.9 10.5 52.35 7.25 53.1 9.85 54.0 7.1 54.15 10.65 55.75 5.7 56.25 10.2 Q56.7 7.45 57.5 4.75 L57.6 9.15 58.95 6.2 Q58.75 7.15 58.7 8.15 L58.45 10.15 60.0 8.3 60.7 11.05 Q60.9 9.9 61.45 8.8 62.05 7.7 62.7 7.05 L63.1 10.65 Q63.35 9.1 63.75 7.6 64.1 6.1 64.8 4.65 L65.0 8.75 Q65.45 6.6 66.5 4.65 L67.45 7.25 67.85 3.55 68.75 6.3 69.3 2.4 69.6 4.2 69.8 0.45 70.25 5.2 70.9 2.9 71.0 2.1 71.05 2.7 Q71.2 3.9 71.8 4.7 L71.9 -0.25 Q72.05 1.3 72.65 2.75 L72.7 -0.35 Q72.8 0.55 73.2 1.4 L73.7 -2.2 74.95 1.2 75.4 -0.95 75.4 -2.5 Q75.8 -0.25 77.5 1.5 L77.75 -0.35 77.85 0.05 78.4 1.6 79.0 -2.4 80.6 1.2 81.3 -3.7 Q81.45 -2.65 81.95 -1.7 L82.75 0.2 Q83.5 -1.9 83.1 -4.2 L84.5 -0.25 Q84.4 -0.95 84.45 -1.7 L84.4 -3.2 85.7 -1.2 85.75 -2.7 86.55 -1.1 86.65 -1.7 86.7 -1.5 87.5 -4.05 87.95 -1.0 88.25 -4.55 Q88.4 -3.6 88.95 -2.75 L89.7 -1.45 90.2 -4.5 Q90.35 -3.6 90.75 -2.9 L91.4 -1.45 Q92.2 -2.4 92.3 -3.6 L92.35 -6.25 92.8 -4.7 93.6 -7.65 93.55 -3.7 94.45 -7.35 94.9 -4.55 94.95 -1.7 95.65 -2.65 95.8 -1.0 96.45 -2.3 96.2 0.75 97.5 -2.45 97.75 0.65 98.35 -0.85 98.85 1.05 99.55 0.25 99.65 3.3 99.95 2.1 Q100.3 4.25 101.8 6.0 L102.65 6.45 103.8 7.9 Q104.3 8.85 104.4 9.85 L99.0 13.3 97.9 13.95 Q94.3 16.3 90.55 18.25 88.45 19.35 86.5 19.95 L83.45 20.1 61.85 23.65 47.0 24.25 32.35 22.9 Q28.25 22.25 22.8 20.5 17.4 18.7 11.5 16.0 L5.05 12.75 3.4 11.3 Q3.4 10.85 2.55 10.3 L0.9 9.15 Q0.05 8.65 0.25 8.25 0.95 8.85 2.65 9.4" fill="url(#gradient2)" fill-rule="evenodd" stroke="none"/>
    <path d="M-68.85 -31.8 L-67.75 -31.0 -65.85 -29.65 -62.1 -27.0 -50.25 -18.65 Q-47.2 -16.8 -43.7 -15.35 L-37.0 -12.05 -34.2 -10.3 -34.1 -10.2 -31.35 -7.6 -27.3 -7.8 -27.1 -7.7 Q-25.25 -7.1 -23.45 -5.65 L-15.7 0.8 Q-14.5 1.6 -13.25 2.05 L-11.65 2.45 -13.0 -1.6 -13.0 -1.65 -9.3 2.6 Q-5.25 6.5 0.15 9.9 L5.05 12.75 11.5 16.0 Q17.4 18.7 22.8 20.5 28.25 22.25 32.35 22.9 L47.0 24.25 61.85 23.65 83.45 20.1 86.5 19.95 94.1 19.6 Q86.25 22.45 77.95 24.5 69.65 26.5 61.25 27.95 L34.1 32.7 23.1 35.0 12.1 36.65 Q6.7 37.2 1.6 36.7 L8.6 35.7 -9.75 34.85 Q-19.25 33.95 -28.7 32.1 -38.15 30.2 -47.05 27.2 -55.9 24.15 -63.65 19.9 -71.55 15.45 -77.25 9.5 -82.95 3.5 -87.25 -3.55 -91.55 -10.6 -95.25 -18.3 L-102.75 -33.8 -98.35 -28.9 Q-96.1 -26.5 -94.4 -23.85 L-97.25 -29.2 Q-98.6 -31.95 -99.45 -34.8 -96.4 -29.85 -92.0 -26.0 L-96.05 -33.05 -91.75 -28.6 Q-95.5 -34.1 -97.25 -40.5 L-94.15 -35.3 Q-95.3 -37.8 -96.15 -40.7 L-99.4 -52.1 Q-95.95 -47.55 -93.6 -42.25 -93.6 -45.3 -94.35 -48.25 L-95.95 -54.15 Q-91.65 -49.05 -87.35 -45.4 -83.05 -41.75 -78.4 -38.55 L-68.85 -31.8" fill="url(#gradient3)" fill-rule="evenodd" stroke="none"/>
    <path d="M141.8 -4.4 L142.55 -4.15 Q140.55 -3.2 138.7 -2.95 L135.75 -2.75 134.55 -2.85 Q137.55 -4.05 139.3 -4.3 L141.8 -4.4" fill="#fad7b8" fill-rule="evenodd" stroke="none"/>
    <path d="M108.2 2.95 Q108.45 4.6 109.7 5.05 L115.6 5.8 Q117.0 6.05 117.65 7.2 L117.85 9.1 117.6 11.7 117.15 13.65 116.05 12.8 115.75 14.5 115.75 15.15 115.2 16.95 Q115.0 18.3 114.3 19.15 L113.65 18.25 112.95 17.65 Q112.1 18.85 111.6 20.25 L110.65 23.1 110.05 19.6 Q109.25 20.95 109.15 22.6 L108.75 25.75 108.15 21.15 Q107.05 23.6 106.9 26.35 106.45 25.45 106.3 24.4 L106.0 22.3 104.3 27.1 Q103.8 28.25 102.9 29.2 L103.45 26.9 100.1 30.95 Q99.1 31.85 98.0 32.2 L100.05 27.4 98.25 29.15 Q97.4 30.1 96.25 30.5 96.5 29.15 97.05 27.95 L97.8 25.5 97.4 25.7 96.75 27.3 94.7 27.25 Q94.1 26.6 94.1 25.4 L94.1 23.1 91.75 23.65 92.8 21.9 94.05 20.3 Q92.15 20.25 90.95 19.4 89.7 18.55 89.9 17.45 90.1 16.35 92.5 15.55 L89.7 13.6 Q88.3 12.55 87.45 11.2 89.7 11.05 91.95 11.25 L96.45 11.4 Q95.95 10.4 94.9 9.65 93.8 8.95 93.15 7.95 L95.95 8.45 Q97.3 8.7 98.7 8.45 99.0 7.45 98.35 6.45 L96.8 4.55 Q95.95 3.6 95.6 2.6 96.85 2.55 97.75 3.2 L99.4 4.9 101.0 6.55 Q101.35 5.6 100.75 4.35 L99.25 1.95 97.6 0.05 Q100.3 1.35 103.3 2.0 L109.1 2.6 Q108.6 2.65 108.2 2.95" fill="url(#gradient4)" fill-rule="evenodd" stroke="none"/>
    <path d="M98.85 24.0 Q99.65 21.4 101.1 19.9 101.85 22.05 101.7 24.55 L101.25 29.3 Q101.55 28.2 101.6 28.4 L101.3 31.0 101.2 31.45 100.85 34.6 100.85 34.75 100.8 33.35 Q99.7 36.55 99.15 39.9 L97.75 46.55 Q97.3 45.2 97.35 43.65 L97.4 40.65 Q96.25 42.25 95.65 44.35 95.0 46.45 94.6 48.7 L93.55 52.95 94.3 45.1 Q92.8 47.15 91.95 49.9 L90.25 55.1 Q90.2 53.3 90.55 51.55 L91.0 48.05 Q90.25 48.65 89.75 49.75 89.25 50.85 88.85 52.1 L88.1 54.4 89.3 46.8 Q88.7 48.75 88.25 50.7 87.8 52.7 86.95 54.5 86.8 52.5 87.15 50.5 L87.55 46.5 Q86.7 47.55 86.3 48.8 L84.45 53.85 84.95 47.9 Q84.15 49.65 83.6 51.5 L82.45 55.15 83.3 49.7 81.5 53.75 Q80.65 55.8 79.3 57.45 L80.15 53.85 75.7 63.1 Q74.4 65.3 72.65 67.0 L77.35 58.8 70.0 68.8 75.15 60.7 Q76.4 58.65 77.0 56.4 75.0 58.0 73.7 60.2 L76.1 56.0 Q77.65 53.6 78.55 50.95 L76.7 54.0 Q77.45 51.7 78.5 49.45 L80.25 44.9 78.45 46.85 Q79.15 45.15 79.45 43.4 L80.05 39.8 78.95 39.8 Q79.7 38.4 80.9 37.45 82.05 36.55 83.35 35.6 L89.45 29.3 Q89.95 30.5 89.95 31.8 L90.15 34.4 Q90.3 35.7 91.15 36.8 93.75 36.25 95.15 34.15 96.5 32.1 97.3 29.3 L98.85 24.0" fill="url(#gradient5)" fill-rule="evenodd" stroke="none"/>
    <path d="M25.1 -0.4 Q25.5 -3.1 26.4 -5.05 26.25 -0.05 25.65 4.9 26.2 2.65 27.0 0.4 L28.45 -4.1 27.9 4.25 Q28.8 2.15 30.15 0.2 L32.5 -3.75 31.65 6.2 Q32.6 3.95 33.85 1.8 L36.25 -2.35 34.75 4.2 Q37.15 2.1 38.7 -0.7 40.25 -3.45 41.45 -6.4 41.35 -4.0 41.95 -1.6 43.15 -4.25 43.75 -7.0 L45.55 -18.2 Q46.75 -14.9 46.9 -11.0 L46.5 4.4 Q47.3 -1.1 48.45 -6.6 L50.85 -17.55 Q52.15 -12.15 52.35 -6.65 L52.7 4.4 55.35 -5.25 Q55.7 -2.2 55.45 1.0 L54.85 7.2 58.45 2.7 58.4 8.25 Q58.95 6.0 59.95 3.75 L61.6 -0.7 Q61.9 0.4 62.55 1.6 L63.5 3.6 65.0 0.4 Q65.9 -1.2 66.4 -2.85 L66.75 3.35 68.45 -1.65 Q68.9 -0.55 69.7 0.65 L72.45 4.95 73.1 -0.55 Q74.6 3.65 76.55 7.65 L78.55 9.65 Q77.55 11.5 75.4 12.15 L70.4 12.85 64.8 12.9 59.55 13.45 45.75 16.3 42.1 15.55 39.45 15.65 Q37.6 16.2 36.2 17.25 L33.3 19.3 Q31.8 20.3 29.7 20.55 29.9 19.0 29.55 17.15 29.25 15.3 29.45 13.75 25.95 14.2 22.75 15.6 L16.2 18.35 20.35 12.0 15.9 14.7 Q19.1 11.9 21.45 8.75 23.35 6.25 24.75 3.3 L25.1 -0.4" fill="url(#gradient6)" fill-rule="evenodd" stroke="none"/>
    <path d="M100.2 14.9 L96.15 20.0 Q100.7 17.1 105.65 15.2 L95.1 27.05 Q93.2 28.85 91.8 29.4 90.45 29.95 89.95 28.4 L86.15 31.55 Q83.95 33.1 81.8 34.25 81.65 32.65 82.0 31.05 L79.85 33.2 75.1 36.5 75.5 33.0 74.0 32.85 72.55 33.2 71.2 33.05 Q71.4 31.85 70.6 30.9 68.9 31.9 66.8 32.6 64.75 33.35 63.2 34.5 63.95 32.95 65.15 31.7 L63.6 32.2 Q62.6 32.55 61.5 33.0 L60.6 33.45 66.4 28.95 Q63.9 28.5 61.25 28.95 58.6 29.4 56.25 30.65 57.25 29.85 58.6 29.1 L64.0 26.45 Q63.75 27.55 64.5 28.45 67.95 27.15 71.15 25.3 L77.6 21.7 74.6 22.7 Q77.95 20.6 82.5 19.15 87.05 17.7 91.75 16.7 L100.2 14.9" fill="#ffffff" fill-rule="evenodd" stroke="none"/>
    <path d="M134.0 -2.0 L134.55 -2.85 142.1 -3.85 Q139.7 -0.7 136.7 1.55 133.65 3.75 130.85 5.15 128.0 6.55 126.15 7.2 L124.2 7.85 Q121.25 8.8 119.45 9.7 L117.55 10.65 Q91.25 20.9 69.15 26.8 47.05 32.65 28.85 34.95 10.65 37.25 -4.0 36.8 -18.65 36.3 -30.05 33.9 -41.45 31.45 -49.9 27.85 -58.35 24.3 -64.25 20.35 -70.1 16.45 -73.65 13.0 -77.25 9.55 -78.85 7.4 L-80.45 5.15 Q-76.75 10.1 -72.0 13.95 -67.2 17.75 -62.25 20.55 -57.25 23.35 -53.0 25.15 L-43.45 28.65 Q-27.5 33.4 -11.2 34.45 5.15 35.5 21.05 33.85 36.9 32.2 51.4 28.85 65.85 25.5 78.1 21.5 90.3 17.45 99.4 13.75 108.45 10.05 113.45 7.65 L118.55 5.15 Q121.95 3.35 123.75 2.7 L125.55 2.15 Q129.5 1.1 131.45 -0.05 133.4 -1.2 134.0 -2.0" fill="#edf0ed" fill-rule="evenodd" stroke="none"/>
    <path d="M-92.4 -15.35 Q-96.9 -23.25 -100.35 -32.55 L-101.1 -34.8 -100.3 -32.55 Q-96.85 -23.25 -92.35 -15.4 -87.85 -7.5 -83.2 -1.25 -78.55 5.0 -74.55 9.4 L-65.4 18.6 -65.5 18.7 -74.6 9.45 Q-78.6 5.05 -83.3 -1.2 -87.95 -7.45 -92.4 -15.35" fill="#d9d9d9" fill-rule="evenodd" stroke="none"/>
    <path d="M-89.95 -19.85 Q-85.75 -10.5 -81.2 -3.2 -76.7 4.15 -72.8 9.2 L-70.65 11.8 -72.85 9.25 Q-76.8 4.2 -81.3 -3.15 -85.8 -10.45 -90.0 -19.85 L-91.0 -22.25 -89.95 -19.85 M-63.85 19.75 L-65.4 17.9 -63.75 19.65 -63.85 19.75" fill="#d9d9d9" fill-rule="evenodd" stroke="none"/>
    <path d="M-82.65 -12.95 Q-78.8 -3.5 -74.55 3.35 -70.3 10.2 -66.5 14.65 L-60.25 21.2 -57.7 23.35 -57.75 23.45 -60.35 21.25 -66.55 14.7 Q-70.35 10.3 -74.6 3.4 -78.85 -3.45 -82.7 -12.95 L-83.6 -15.4 -82.65 -12.95" fill="#d9d9d9" fill-rule="evenodd" stroke="none"/>
    <path d="M-74.3 -3.5 Q-70.5 5.6 -66.4 11.55 -62.25 17.5 -58.7 20.85 -55.1 24.2 -52.8 25.6 L-50.4 26.95 -50.45 27.05 -52.85 25.7 Q-55.15 24.3 -58.75 20.95 -62.35 17.55 -66.45 11.6 -70.55 5.65 -74.35 -3.45 L-75.6 -6.8 -74.3 -3.5" fill="#d9d9d9" fill-rule="evenodd" stroke="none"/>
    <path d="M-103.1 -26.25 Q-97.95 -17.35 -93.4 -10.65 -88.85 -3.95 -85.95 -0.1 L-82.9 3.85 -82.95 3.9 -86.05 -0.05 Q-88.95 -3.85 -93.5 -10.6 -98.05 -17.3 -103.15 -26.2 -108.3 -35.1 -112.95 -45.45 L-113.75 -47.4 -112.9 -45.45 Q-108.25 -35.15 -103.1 -26.25" fill="#d9d9d9" fill-rule="evenodd" stroke="none"/>
    <path d="M-38.45 31.6 L-38.45 31.7 -40.95 30.55 Q-43.3 29.35 -47.05 26.55 -50.8 23.8 -55.2 19.0 -59.6 14.15 -63.85 6.95 L-65.35 4.1 -63.8 6.9 Q-59.55 14.1 -55.15 18.9 -50.75 23.7 -47.0 26.5 -43.25 29.25 -40.9 30.45 L-38.45 31.6" fill="#d9d9d9" fill-rule="evenodd" stroke="none"/>
    <path d="M-28.4 32.75 Q-31.15 31.7 -35.65 28.7 -40.15 25.7 -45.45 19.85 -50.8 14.0 -56.0 4.4 L-57.4 1.55 -55.95 4.35 Q-50.75 13.9 -45.45 19.75 -40.15 25.6 -35.65 28.6 -31.15 31.6 -28.35 32.65 L-25.45 33.6 -25.45 33.7 -28.4 32.75" fill="#d9d9d9" fill-rule="evenodd" stroke="none"/>
    <path d="M-32.3 22.85 L-31.1 24.1 Q-26.3 28.9 -21.75 31.55 -17.2 34.15 -13.55 35.25 L-7.75 36.5 -5.45 36.65 -5.45 36.75 -7.75 36.6 -13.6 35.35 Q-17.25 34.25 -21.8 31.6 -26.3 29.0 -31.1 24.15 L-32.3 22.85" fill="#d9d9d9" fill-rule="evenodd" stroke="none"/>
    <path d="M21.55 34.65 L21.55 34.75 18.85 34.55 12.0 33.4 Q7.75 32.45 2.6 30.3 -2.5 28.15 -7.7 24.35 L-9.1 23.25 -7.7 24.3 Q-2.5 28.1 2.65 30.2 7.75 32.35 12.0 33.3 L18.85 34.45 21.55 34.65" fill="#d9d9d9" fill-rule="evenodd" stroke="none"/>
  </g>
  <defs>
    <linearGradient gradientTransform="matrix(-0.0036, -0.0189, 0.0189, -0.0036, 46.2, 41.2)" gradientUnits="userSpaceOnUse" id="gradient0" spreadMethod="pad" x1="-819.2" x2="819.2">
      <stop offset="0.0" stop-color="#ffffff"/>
      <stop offset="1.0" stop-color="#d9f2ff"/>
    </linearGradient>
    <linearGradient gradientTransform="matrix(-0.0336, 0.0634, -0.0634, -0.0336, -62.6, 41.05)" gradientUnits="userSpaceOnUse" id="gradient1" spreadMethod="pad" x1="-819.2" x2="819.2">
      <stop offset="0.0" stop-color="#ffffff"/>
      <stop offset="1.0" stop-color="#ebffff"/>
    </linearGradient>
    <linearGradient gradientTransform="matrix(0.0012, 0.0173, -0.0173, 0.0012, 53.05, 19.75)" gradientUnits="userSpaceOnUse" id="gradient2" spreadMethod="pad" x1="-819.2" x2="819.2">
      <stop offset="0.0" stop-color="#ffffff"/>
      <stop offset="1.0" stop-color="#e3f7ff"/>
    </linearGradient>
    <linearGradient gradientTransform="matrix(-0.011, 0.0275, -0.0275, -0.011, -21.05, 20.55)" gradientUnits="userSpaceOnUse" id="gradient3" spreadMethod="pad" x1="-819.2" x2="819.2">
      <stop offset="0.0" stop-color="#ffffff"/>
      <stop offset="1.0" stop-color="#e3f7ff"/>
    </linearGradient>
    <linearGradient gradientTransform="matrix(0.0013, 0.0187, -0.0187, 0.0013, 103.8, 26.2)" gradientUnits="userSpaceOnUse" id="gradient4" spreadMethod="pad" x1="-819.2" x2="819.2">
      <stop offset="0.0" stop-color="#ffffff"/>
      <stop offset="1.0" stop-color="#e3f7ff"/>
    </linearGradient>
    <linearGradient gradientTransform="matrix(-0.0121, -0.0355, 0.0355, -0.0121, 77.9, 21.85)" gradientUnits="userSpaceOnUse" id="gradient5" spreadMethod="pad" x1="-819.2" x2="819.2">
      <stop offset="0.0" stop-color="#ffffff"/>
      <stop offset="1.0" stop-color="#e3f7ff"/>
    </linearGradient>
    <linearGradient gradientTransform="matrix(0.0031, 0.0336, -0.0336, 0.0031, 48.2, 22.95)" gradientUnits="userSpaceOnUse" id="gradient6" spreadMethod="pad" x1="-819.2" x2="819.2">
      <stop offset="0.0" stop-color="#ffffff"/>
      <stop offset="1.0" stop-color="#e3f7ff"/>
    </linearGradient>
  </defs>
</svg>
