<?xml version="1.0" encoding="UTF-8" standalone="no"?>
<svg xmlns:ffdec="https://www.free-decompiler.com/flash" xmlns:xlink="http://www.w3.org/1999/xlink" ffdec:objectType="shape" height="21.7px" width="21.7px" xmlns="http://www.w3.org/2000/svg">
  <g transform="matrix(1.0, 0.0, 0.0, 1.0, 10.85, -1.05)">
    <path d="M7.65 19.5 Q4.4 22.75 0.0 22.75 -4.4 22.75 -7.65 19.5 -10.85 16.35 -10.85 11.9 -10.85 7.4 -7.65 4.25 -4.4 1.05 0.0 1.05 4.4 1.05 7.65 4.25 10.85 7.4 10.85 11.9 10.85 16.35 7.65 19.5 M5.65 17.55 Q8.0 15.2 8.0 11.9 8.0 8.6 5.65 6.3 3.25 3.9 0.0 3.9 -3.25 3.9 -5.65 6.3 -8.0 8.6 -8.0 11.9 -8.0 15.2 -5.65 17.55 -3.25 19.9 0.0 19.9 3.25 19.9 5.65 17.55" fill="#006633" fill-rule="evenodd" stroke="none"/>
  </g>
</svg>
