<?xml version="1.0" encoding="UTF-8" standalone="no"?>
<svg xmlns:ffdec="https://www.free-decompiler.com/flash" xmlns:xlink="http://www.w3.org/1999/xlink" ffdec:objectType="shape" height="84.95px" width="308.0px" xmlns="http://www.w3.org/2000/svg">
  <g transform="matrix(1.0, 0.0, 0.0, 1.0, 16.5, -337.8)">
    <path d="M14.25 340.75 Q17.75 340.35 23.75 338.1 27.45 337.05 27.95 339.7 28.75 340.45 28.75 342.25 28.75 343.35 27.7 346.05 L26.25 349.5 Q26.0 350.15 26.0 353.25 25.65 356.0 23.5 356.0 L23.1 356.0 Q21.6 356.95 16.75 359.3 9.75 362.7 9.75 364.95 9.75 366.45 14.5 375.15 19.25 385.65 19.25 396.15 19.25 400.95 18.6 402.8 18.25 403.9 14.5 410.75 13.45 412.7 9.7 414.55 L3.35 417.35 Q1.3 418.35 -2.5 420.8 -6.4 422.75 -12.0 422.75 -15.5 422.75 -16.35 421.45 L-16.5 420.0 Q-16.5 418.05 -15.35 412.4 -14.25 406.95 -13.75 406.0 -12.95 404.5 -8.2 403.5 -2.5 402.3 -0.9 401.35 L0.15 400.7 -0.5 399.85 -0.75 398.7 Q-0.75 397.75 0.65 396.25 2.0 394.8 2.0 393.75 2.0 392.5 1.15 391.4 0.25 390.3 0.25 389.35 0.25 388.05 0.8 387.6 L0.6 387.25 Q0.05 386.0 -0.45 383.55 -0.95 381.15 -1.5 379.9 -4.2 374.0 -4.55 372.1 -4.75 371.15 -4.75 365.45 L-4.35 361.15 Q-3.9 357.8 -3.55 357.0 L-1.65 352.65 Q-0.45 350.15 1.25 348.6 4.6 345.25 6.6 343.8 10.05 341.2 14.25 340.75 M35.65 359.7 Q42.6 360.0 47.4 364.95 52.75 370.45 52.75 379.4 52.75 387.6 47.55 391.75 43.2 395.25 36.5 395.25 33.05 395.25 27.25 392.15 21.9 389.25 20.85 387.5 18.5 383.7 18.5 378.25 18.5 369.15 23.85 364.05 28.65 359.45 35.65 359.7 M79.4 357.4 Q85.8 359.7 89.75 362.0 94.05 364.75 96.7 368.2 98.7 370.8 100.4 374.75 102.1 378.65 104.8 389.2 107.25 398.9 107.25 400.05 107.25 403.1 105.45 403.9 100.75 405.2 95.0 407.25 L88.25 407.25 Q79.5 405.65 77.2 401.95 76.25 400.4 76.25 395.25 76.25 389.75 77.8 387.3 80.15 383.5 88.75 378.65 87.65 377.25 84.25 375.75 80.85 374.2 78.1 373.9 71.95 373.3 71.05 371.65 71.15 369.7 70.5 368.85 L70.5 358.35 70.25 357.25 Q70.25 354.1 79.4 357.4 M66.5 350.1 L66.5 364.15 68.75 377.45 Q70.15 385.6 69.75 390.9 72.9 390.45 73.85 391.75 74.25 392.3 74.25 393.5 74.25 394.65 73.35 397.05 72.5 399.45 72.5 400.5 72.55 403.85 67.3 405.15 L62.0 405.75 Q59.8 405.75 58.0 395.7 57.05 390.55 56.0 380.25 L54.0 367.3 Q52.75 359.8 52.75 354.75 L52.95 352.4 Q53.65 350.25 56.1 349.65 L63.2 347.85 Q66.2 347.5 66.5 350.1 M119.75 364.9 Q123.65 365.5 125.7 368.4 127.55 371.0 131.75 371.0 138.9 371.0 141.75 375.4 143.25 377.7 143.25 380.55 143.25 384.2 142.0 386.2 139.4 390.4 131.75 390.35 L131.75 395.3 Q130.95 399.5 126.85 399.5 120.8 399.5 116.2 391.7 112.65 385.6 112.5 381.5 109.0 382.0 108.05 379.95 107.75 379.3 107.75 377.35 107.6 374.9 108.05 372.85 108.95 368.7 111.9 370.1 110.9 366.95 111.25 365.65 111.95 363.4 119.75 364.9 M156.6 393.95 L155.55 399.3 Q154.2 405.0 149.75 405.0 146.3 405.0 144.95 402.0 L144.25 398.8 145.85 389.5 148.25 376.85 Q149.9 368.85 160.3 362.3 164.65 359.55 168.3 358.8 172.1 358.0 173.5 359.85 L173.5 369.6 174.05 370.7 174.5 371.45 174.35 372.1 Q177.35 370.85 181.25 370.6 190.35 370.05 195.5 376.95 199.25 382.0 199.25 387.15 199.25 394.55 192.15 399.6 186.3 403.75 181.0 403.75 171.1 403.75 166.85 396.5 164.5 392.45 164.5 388.3 164.5 382.35 167.25 377.95 168.55 375.9 170.35 374.45 L169.15 375.0 Q162.65 378.85 158.25 388.35 157.25 390.5 156.6 393.95 M197.0 354.4 Q197.0 353.35 197.5 352.95 198.2 352.35 200.25 352.3 L200.25 352.25 200.3 352.3 201.1 352.25 Q200.9 352.25 200.65 352.4 L208.65 353.4 Q217.0 354.75 217.0 357.3 217.0 358.5 214.9 364.3 212.75 370.1 212.75 375.2 212.75 378.2 213.05 378.5 213.3 378.8 216.75 379.9 218.75 380.55 221.35 382.05 223.95 383.55 224.6 384.5 226.75 387.45 227.7 389.75 228.5 391.75 228.7 393.8 L232.85 381.5 237.5 368.05 236.5 363.65 Q235.5 359.7 235.5 357.45 235.5 353.0 236.55 351.5 238.75 348.25 245.65 351.6 249.5 355.1 250.85 357.75 L252.9 360.55 Q255.85 363.15 261.0 363.15 265.15 363.15 268.15 361.45 271.2 359.75 272.0 359.75 274.3 359.75 276.0 365.1 276.9 368.0 277.85 372.85 278.15 374.05 279.95 375.95 281.6 377.65 283.85 379.25 286.15 380.9 289.8 382.0 291.5 382.45 291.5 384.85 291.5 386.25 286.25 393.25 284.6 394.75 279.6 397.15 L271.9 400.85 Q268.15 402.9 266.75 405.05 265.9 406.3 264.5 409.25 263.15 411.45 260.3 413.6 255.9 417.0 251.0 417.0 238.55 417.0 230.45 408.75 227.85 406.1 226.1 403.05 224.25 405.45 221.2 407.5 215.1 411.5 209.5 411.5 205.3 411.5 202.65 409.35 200.45 407.6 200.75 406.0 L200.75 394.35 199.1 384.4 Q198.1 378.35 197.75 374.25 L197.75 361.35 Q197.0 359.1 197.0 354.4" fill="#00ff00" fill-rule="evenodd" stroke="none"/>
  </g>
</svg>
