<?xml version="1.0" encoding="UTF-8" standalone="no"?>
<svg xmlns:ffdec="https://www.free-decompiler.com/flash" xmlns:xlink="http://www.w3.org/1999/xlink" ffdec:objectType="text" height="27.75px" width="109.25px" xmlns="http://www.w3.org/2000/svg">
  <g transform="matrix(1.0, 0.0, 0.0, 1.0, -244.95, -0.55)">
    <g transform="matrix(1.0, 0.0, 0.0, 1.0, 242.3, 0.0)">
      <use fill="#ffffff" height="27.75" transform="matrix(0.0352, 0.0, 0.0, 0.0352, 0.0, 27.0)" width="109.25" xlink:href="#font_Myriad_Pro_D0"/>
      <use fill="#ffffff" height="27.75" transform="matrix(0.0352, 0.0, 0.0, 0.0352, 23.45, 27.0)" width="109.25" xlink:href="#font_Myriad_Pro_A0"/>
      <use fill="#ffffff" height="27.75" transform="matrix(0.0352, 0.0, 0.0, 0.0352, 45.5, 27.0)" width="109.25" xlink:href="#font_Myriad_Pro_H0"/>
      <use fill="#ffffff" height="27.75" transform="matrix(0.0352, 0.0, 0.0, 0.0352, 68.95, 27.0)" width="109.25" xlink:href="#font_Myriad_Pro_A0"/>
      <use fill="#ffffff" height="27.75" transform="matrix(0.0352, 0.0, 0.0, 0.0352, 91.0, 27.0)" width="109.25" xlink:href="#font_Myriad_Pro_K0"/>
    </g>
  </g>
  <defs>
    <g id="font_Myriad_Pro_D0">
      <path d="M168.0 -615.0 L168.0 -615.0 Q203.0 -623.5 272.5 -624.5 413.5 -623.0 483.5 -552.0 553.0 -481.5 552.0 -357.5 548.5 -70.5 258.0 -64.0 203.5 -63.5 168.0 -68.0 L168.0 -615.0 168.0 -615.0 M76.0 -0.5 L76.0 -0.5 Q145.0 7.5 240.5 8.0 445.5 6.5 547.0 -91.5 646.0 -189.0 648.0 -360.5 645.5 -526.5 548.0 -609.0 459.0 -694.0 268.5 -695.5 161.0 -695.0 76.0 -680.0 L76.0 -0.5 76.0 -0.5" fill-rule="evenodd" stroke="none"/>
    </g>
    <g id="font_Myriad_Pro_A0">
      <path d="M207.0 -287.5 L207.0 -287.5 275.0 -488.0 Q295.5 -551.0 310.0 -612.0 L312.0 -612.0 Q326.0 -553.0 348.0 -486.0 L416.5 -287.5 207.0 -287.5 207.0 -287.5 M434.0 -216.5 L434.0 -216.5 508.0 0.0 603.5 0.0 367.5 -692.0 260.5 -692.0 24.5 0.0 117.0 0.0 188.5 -216.5 434.0 -216.5 434.0 -216.5" fill-rule="evenodd" stroke="none"/>
    </g>
    <g id="font_Myriad_Pro_H0">
      <path d="M76.0 -692.0 L76.0 -692.0 76.0 0.0 168.0 0.0 168.0 -324.5 500.0 -324.5 500.0 0.0 592.0 0.0 592.0 -692.0 500.0 -692.0 500.0 -403.5 168.0 -403.5 168.0 -692.0 76.0 -692.0 76.0 -692.0" fill-rule="evenodd" stroke="none"/>
    </g>
    <g id="font_Myriad_Pro_K0">
      <path d="M76.0 0.0 L76.0 0.0 168.0 0.0 168.0 -264.0 234.5 -340.0 460.5 0.0 566.0 0.0 297.0 -398.5 547.0 -692.0 436.0 -692.0 225.0 -432.5 Q199.0 -398.5 171.0 -358.5 L168.0 -358.5 168.0 -692.0 76.0 -692.0 76.0 0.0 76.0 0.0" fill-rule="evenodd" stroke="none"/>
    </g>
  </defs>
</svg>
