<?xml version="1.0" encoding="UTF-8" standalone="no"?>
<svg xmlns:ffdec="https://www.free-decompiler.com/flash" xmlns:xlink="http://www.w3.org/1999/xlink" ffdec:objectType="text" height="27.35px" width="190.4px" xmlns="http://www.w3.org/2000/svg">
  <g transform="matrix(1.0, 0.0, 0.0, 1.0, -244.95, -0.65)">
    <g transform="matrix(1.0, 0.0, 0.0, 1.0, 242.3, 0.0)">
      <use fill="#ffffff" height="27.35" transform="matrix(0.0352, 0.0, 0.0, 0.0352, 0.0, 27.0)" width="190.4" xlink:href="#font_Myriad_Pro_E0"/>
      <use fill="#ffffff" height="27.35" transform="matrix(0.0352, 0.0, 0.0, 0.0352, 17.7, 27.0)" width="190.4" xlink:href="#font_Myriad_Pro_L0"/>
      <use fill="#ffffff" height="27.35" transform="matrix(0.0352, 0.0, 0.0, 0.0352, 34.7, 27.0)" width="190.4" xlink:href="#font_Myriad_Pro_H0"/>
      <use fill="#ffffff" height="27.35" transform="matrix(0.0352, 0.0, 0.0, 0.0352, 65.8, 27.0)" width="190.4" xlink:href="#font_Myriad_Pro_M0"/>
      <use fill="#ffffff" height="27.35" transform="matrix(0.0352, 0.0, 0.0, 0.0352, 94.75, 27.0)" width="190.4" xlink:href="#font_Myriad_Pro_E0"/>
      <use fill="#ffffff" height="27.35" transform="matrix(0.0352, 0.0, 0.0, 0.0352, 112.45, 27.0)" width="190.4" xlink:href="#font_Myriad_Pro_L0"/>
      <use fill="#ffffff" height="27.35" transform="matrix(0.0352, 0.0, 0.0, 0.0352, 129.45, 27.0)" width="190.4" xlink:href="#font_Myriad_Pro_I0"/>
      <use fill="#ffffff" height="27.35" transform="matrix(0.0352, 0.0, 0.0, 0.0352, 138.05, 27.0)" width="190.4" xlink:href="#font_Myriad_Pro_Z0"/>
      <use fill="#ffffff" height="27.35" transform="matrix(0.0352, 0.0, 0.0, 0.0352, 157.95, 27.0)" width="190.4" xlink:href="#font_Myriad_Pro_E0"/>
      <use fill="#ffffff" height="27.35" transform="matrix(0.0352, 0.0, 0.0, 0.0352, 175.65, 27.0)" width="190.4" xlink:href="#font_Myriad_Pro_E0"/>
    </g>
  </g>
  <defs>
    <g id="font_Myriad_Pro_E0">
      <path d="M435.0 -399.5 L435.0 -399.5 168.0 -399.5 168.0 -616.0 451.5 -616.0 451.5 -692.0 76.0 -692.0 76.0 0.0 467.0 0.0 467.0 -76.0 168.0 -76.0 168.0 -324.5 435.0 -324.5 435.0 -399.5 435.0 -399.5" fill-rule="evenodd" stroke="none"/>
    </g>
    <g id="font_Myriad_Pro_L0">
      <path d="M76.0 0.0 L76.0 0.0 463.0 0.0 463.0 -76.0 168.0 -76.0 168.0 -692.0 76.0 -692.0 76.0 0.0 76.0 0.0" fill-rule="evenodd" stroke="none"/>
    </g>
    <g id="font_Myriad_Pro_H0">
      <path d="M76.0 -692.0 L76.0 -692.0 76.0 0.0 168.0 0.0 168.0 -324.5 500.0 -324.5 500.0 0.0 592.0 0.0 592.0 -692.0 500.0 -692.0 500.0 -403.5 168.0 -403.5 168.0 -692.0 76.0 -692.0 76.0 -692.0" fill-rule="evenodd" stroke="none"/>
    </g>
    <g id="font_Myriad_Pro_M0">
      <path d="M675.0 0.0 L675.0 0.0 763.5 0.0 720.5 -691.5 606.5 -691.5 483.0 -356.0 Q436.5 -227.0 409.0 -124.0 L407.0 -124.0 Q379.5 -230.0 337.0 -356.0 L219.0 -691.5 104.5 -691.5 56.5 0.0 141.5 0.0 160.0 -295.5 Q165.0 -375.0 168.5 -455.0 172.0 -534.5 173.5 -600.5 L175.5 -600.5 Q205.0 -478.5 255.0 -332.5 L368.0 -4.0 435.5 -4.0 558.0 -338.5 Q609.5 -481.0 645.5 -600.5 L647.5 -600.5 Q647.5 -535.0 651.0 -456.0 654.5 -376.5 659.0 -302.5 L675.0 0.0 675.0 0.0" fill-rule="evenodd" stroke="none"/>
    </g>
    <g id="font_Myriad_Pro_I0">
      <path d="M76.0 -692.0 L76.0 -692.0 76.0 0.0 168.0 0.0 168.0 -692.0 76.0 -692.0 76.0 -692.0" fill-rule="evenodd" stroke="none"/>
    </g>
    <g id="font_Myriad_Pro_Z0">
      <path d="M32.0 0.0 L32.0 0.0 536.0 0.0 536.0 -76.0 150.0 -76.0 150.0 -79.0 531.0 -637.0 531.0 -692.0 65.0 -692.0 65.0 -616.0 414.0 -616.0 414.0 -613.0 32.0 -53.0 32.0 0.0 32.0 0.0" fill-rule="evenodd" stroke="none"/>
    </g>
  </defs>
</svg>
