<?xml version="1.0" encoding="UTF-8" standalone="no"?>
<svg xmlns:ffdec="https://www.free-decompiler.com/flash" xmlns:xlink="http://www.w3.org/1999/xlink" ffdec:objectType="text" height="139.35px" width="257.5px" xmlns="http://www.w3.org/2000/svg">
  <g transform="matrix(1.0, 0.0, 0.0, 1.0, -0.45, -0.6)">
    <g transform="matrix(1.0, 0.0, 0.0, 1.0, 0.0, 0.0)">
      <use fill="#422a00" height="139.35" transform="matrix(0.0117, 0.0, 0.0, 0.0117, 39.0, 11.0)" width="257.5" xlink:href="#font_AW_Conqueror_Sans_Light_O0"/>
      <use fill="#422a00" height="139.35" transform="matrix(0.0117, 0.0, 0.0, 0.0117, 48.0, 11.0)" width="257.5" xlink:href="#font_AW_Conqueror_Sans_Light_f0"/>
      <use fill="#422a00" height="139.35" transform="matrix(0.0117, 0.0, 0.0, 0.0117, 52.0, 11.0)" width="257.5" xlink:href="#font_AW_Conqueror_Sans_Light_f0"/>
      <use fill="#422a00" height="139.35" transform="matrix(0.0117, 0.0, 0.0, 0.0117, 56.0, 11.0)" width="257.5" xlink:href="#font_AW_Conqueror_Sans_Light_i0"/>
      <use fill="#422a00" height="139.35" transform="matrix(0.0117, 0.0, 0.0, 0.0117, 58.9, 11.0)" width="257.5" xlink:href="#font_AW_Conqueror_Sans_Light_c0"/>
      <use fill="#422a00" height="139.35" transform="matrix(0.0117, 0.0, 0.0, 0.0117, 64.75, 11.0)" width="257.5" xlink:href="#font_AW_Conqueror_Sans_Light_i0"/>
      <use fill="#422a00" height="139.35" transform="matrix(0.0117, 0.0, 0.0, 0.0117, 67.65, 11.0)" width="257.5" xlink:href="#font_AW_Conqueror_Sans_Light_a0"/>
      <use fill="#422a00" height="139.35" transform="matrix(0.0117, 0.0, 0.0, 0.0117, 73.75, 11.0)" width="257.5" xlink:href="#font_AW_Conqueror_Sans_Light_l0"/>
      <use fill="#422a00" height="139.35" transform="matrix(0.0117, 0.0, 0.0, 0.0117, 76.7, 11.0)" width="257.5" xlink:href="#font_AW_Conqueror_Sans_Light_l0"/>
      <use fill="#422a00" height="139.35" transform="matrix(0.0117, 0.0, 0.0, 0.0117, 79.65, 11.0)" width="257.5" xlink:href="#font_AW_Conqueror_Sans_Light_y0"/>
      <use fill="#422a00" height="139.35" transform="matrix(0.0117, 0.0, 0.0, 0.0117, 88.2, 11.0)" width="257.5" xlink:href="#font_AW_Conqueror_Sans_Light_t0"/>
      <use fill="#422a00" height="139.35" transform="matrix(0.0117, 0.0, 0.0, 0.0117, 92.55, 11.0)" width="257.5" xlink:href="#font_AW_Conqueror_Sans_Light_h0"/>
      <use fill="#422a00" height="139.35" transform="matrix(0.0117, 0.0, 0.0, 0.0117, 99.2, 11.0)" width="257.5" xlink:href="#font_AW_Conqueror_Sans_Light_e0"/>
      <use fill="#422a00" height="139.35" transform="matrix(0.0117, 0.0, 0.0, 0.0117, 108.3, 11.0)" width="257.5" xlink:href="#font_AW_Conqueror_Sans_Light__1"/>
      <use fill="#422a00" height="139.35" transform="matrix(0.0117, 0.0, 0.0, 0.0117, 113.2, 11.0)" width="257.5" xlink:href="#font_AW_Conqueror_Sans_Light_S0"/>
      <use fill="#422a00" height="139.35" transform="matrix(0.0117, 0.0, 0.0, 0.0117, 121.0, 11.0)" width="257.5" xlink:href="#font_AW_Conqueror_Sans_Light_a0"/>
      <use fill="#422a00" height="139.35" transform="matrix(0.0117, 0.0, 0.0, 0.0117, 127.1, 11.0)" width="257.5" xlink:href="#font_AW_Conqueror_Sans_Light_l0"/>
      <use fill="#422a00" height="139.35" transform="matrix(0.0117, 0.0, 0.0, 0.0117, 130.05, 11.0)" width="257.5" xlink:href="#font_AW_Conqueror_Sans_Light_a0"/>
      <use fill="#422a00" height="139.35" transform="matrix(0.0117, 0.0, 0.0, 0.0117, 136.15, 11.0)" width="257.5" xlink:href="#font_AW_Conqueror_Sans_Light_m0"/>
      <use fill="#422a00" height="139.35" transform="matrix(0.0117, 0.0, 0.0, 0.0117, 146.6, 11.0)" width="257.5" xlink:href="#font_AW_Conqueror_Sans_Light_a0"/>
      <use fill="#422a00" height="139.35" transform="matrix(0.0117, 0.0, 0.0, 0.0117, 152.7, 11.0)" width="257.5" xlink:href="#font_AW_Conqueror_Sans_Light_n0"/>
      <use fill="#422a00" height="139.35" transform="matrix(0.0117, 0.0, 0.0, 0.0117, 159.55, 11.0)" width="257.5" xlink:href="#font_AW_Conqueror_Sans_Light_d0"/>
      <use fill="#422a00" height="139.35" transform="matrix(0.0117, 0.0, 0.0, 0.0117, 166.0, 11.0)" width="257.5" xlink:href="#font_AW_Conqueror_Sans_Light_e0"/>
      <use fill="#422a00" height="139.35" transform="matrix(0.0117, 0.0, 0.0, 0.0117, 172.1, 11.0)" width="257.5" xlink:href="#font_AW_Conqueror_Sans_Light_r0"/>
      <use fill="#422a00" height="139.35" transform="matrix(0.0117, 0.0, 0.0, 0.0117, 179.6, 11.0)" width="257.5" xlink:href="#font_AW_Conqueror_Sans_Light__2"/>
      <use fill="#422a00" height="139.35" transform="matrix(0.0117, 0.0, 0.0, 0.0117, 183.65, 11.0)" width="257.5" xlink:href="#font_AW_Conqueror_Sans_Light__2"/>
      <use fill="#422a00" height="139.35" transform="matrix(0.0117, 0.0, 0.0, 0.0117, 190.65, 11.0)" width="257.5" xlink:href="#font_AW_Conqueror_Sans_Light_00"/>
      <use fill="#422a00" height="139.35" transform="matrix(0.0117, 0.0, 0.0, 0.0117, 197.6, 11.0)" width="257.5" xlink:href="#font_AW_Conqueror_Sans_Light_00"/>
      <use fill="#422a00" height="139.35" transform="matrix(0.0117, 0.0, 0.0, 0.0117, 204.5, 11.0)" width="257.5" xlink:href="#font_AW_Conqueror_Sans_Light_90"/>
      <use fill="#422a00" height="139.35" transform="matrix(0.0117, 0.0, 0.0, 0.0117, 211.7, 11.0)" width="257.5" xlink:href="#font_AW_Conqueror_Sans_Light__3"/>
      <use fill="#422a00" height="139.35" transform="matrix(0.0117, 0.0, 0.0, 0.0117, 214.7, 11.0)" width="257.5" xlink:href="#font_AW_Conqueror_Sans_Light__1"/>
      <use fill="#422a00" height="139.35" transform="matrix(0.0117, 0.0, 0.0, 0.0117, 222.6, 11.0)" width="257.5" xlink:href="#font_AW_Conqueror_Sans_Light_i0"/>
      <use fill="#422a00" height="139.35" transform="matrix(0.0117, 0.0, 0.0, 0.0117, 225.5, 11.0)" width="257.5" xlink:href="#font_AW_Conqueror_Sans_Light_t0"/>
    </g>
    <g transform="matrix(1.0, 0.0, 0.0, 1.0, 0.0, 0.0)">
      <use fill="#422a00" height="139.35" transform="matrix(0.0117, 0.0, 0.0, 0.0117, 0.0, 27.0)" width="257.5" xlink:href="#font_AW_Conqueror_Sans_Light_b0"/>
      <use fill="#422a00" height="139.35" transform="matrix(0.0117, 0.0, 0.0, 0.0117, 6.45, 27.0)" width="257.5" xlink:href="#font_AW_Conqueror_Sans_Light_o0"/>
      <use fill="#422a00" height="139.35" transform="matrix(0.0117, 0.0, 0.0, 0.0117, 12.7, 27.0)" width="257.5" xlink:href="#font_AW_Conqueror_Sans_Light_a0"/>
      <use fill="#422a00" height="139.35" transform="matrix(0.0117, 0.0, 0.0, 0.0117, 18.75, 27.0)" width="257.5" xlink:href="#font_AW_Conqueror_Sans_Light_s0"/>
      <use fill="#422a00" height="139.35" transform="matrix(0.0117, 0.0, 0.0, 0.0117, 23.8, 27.0)" width="257.5" xlink:href="#font_AW_Conqueror_Sans_Light_t0"/>
      <use fill="#422a00" height="139.35" transform="matrix(0.0117, 0.0, 0.0, 0.0117, 28.15, 27.0)" width="257.5" xlink:href="#font_AW_Conqueror_Sans_Light_s0"/>
      <use fill="#422a00" height="139.35" transform="matrix(0.0117, 0.0, 0.0, 0.0117, 36.2, 27.0)" width="257.5" xlink:href="#font_AW_Conqueror_Sans_Light_s0"/>
      <use fill="#422a00" height="139.35" transform="matrix(0.0117, 0.0, 0.0, 0.0117, 41.2, 27.0)" width="257.5" xlink:href="#font_AW_Conqueror_Sans_Light_u0"/>
      <use fill="#422a00" height="139.35" transform="matrix(0.0117, 0.0, 0.0, 0.0117, 47.8, 27.0)" width="257.5" xlink:href="#font_AW_Conqueror_Sans_Light_p0"/>
      <use fill="#422a00" height="139.35" transform="matrix(0.0117, 0.0, 0.0, 0.0117, 54.3, 27.0)" width="257.5" xlink:href="#font_AW_Conqueror_Sans_Light_e0"/>
      <use fill="#422a00" height="139.35" transform="matrix(0.0117, 0.0, 0.0, 0.0117, 60.4, 27.0)" width="257.5" xlink:href="#font_AW_Conqueror_Sans_Light_r0"/>
      <use fill="#422a00" height="139.35" transform="matrix(0.0117, 0.0, 0.0, 0.0117, 64.8, 27.0)" width="257.5" xlink:href="#font_AW_Conqueror_Sans_Light_i0"/>
      <use fill="#422a00" height="139.35" transform="matrix(0.0117, 0.0, 0.0, 0.0117, 67.7, 27.0)" width="257.5" xlink:href="#font_AW_Conqueror_Sans_Light_o0"/>
      <use fill="#422a00" height="139.35" transform="matrix(0.0117, 0.0, 0.0, 0.0117, 74.0, 27.0)" width="257.5" xlink:href="#font_AW_Conqueror_Sans_Light_r0"/>
      <use fill="#422a00" height="139.35" transform="matrix(0.0117, 0.0, 0.0, 0.0117, 81.55, 27.0)" width="257.5" xlink:href="#font_AW_Conqueror_Sans_Light_p0"/>
      <use fill="#422a00" height="139.35" transform="matrix(0.0117, 0.0, 0.0, 0.0117, 88.0, 27.0)" width="257.5" xlink:href="#font_AW_Conqueror_Sans_Light_e0"/>
      <use fill="#422a00" height="139.35" transform="matrix(0.0117, 0.0, 0.0, 0.0117, 94.1, 27.0)" width="257.5" xlink:href="#font_AW_Conqueror_Sans_Light_r0"/>
      <use fill="#422a00" height="139.35" transform="matrix(0.0117, 0.0, 0.0, 0.0117, 98.6, 27.0)" width="257.5" xlink:href="#font_AW_Conqueror_Sans_Light_f0"/>
      <use fill="#422a00" height="139.35" transform="matrix(0.0117, 0.0, 0.0, 0.0117, 102.35, 27.0)" width="257.5" xlink:href="#font_AW_Conqueror_Sans_Light_o0"/>
      <use fill="#422a00" height="139.35" transform="matrix(0.0117, 0.0, 0.0, 0.0117, 108.6, 27.0)" width="257.5" xlink:href="#font_AW_Conqueror_Sans_Light_r0"/>
      <use fill="#422a00" height="139.35" transform="matrix(0.0117, 0.0, 0.0, 0.0117, 113.0, 27.0)" width="257.5" xlink:href="#font_AW_Conqueror_Sans_Light_m0"/>
      <use fill="#422a00" height="139.35" transform="matrix(0.0117, 0.0, 0.0, 0.0117, 123.4, 27.0)" width="257.5" xlink:href="#font_AW_Conqueror_Sans_Light_a0"/>
      <use fill="#422a00" height="139.35" transform="matrix(0.0117, 0.0, 0.0, 0.0117, 129.5, 27.0)" width="257.5" xlink:href="#font_AW_Conqueror_Sans_Light_n0"/>
      <use fill="#422a00" height="139.35" transform="matrix(0.0117, 0.0, 0.0, 0.0117, 136.35, 27.0)" width="257.5" xlink:href="#font_AW_Conqueror_Sans_Light_c0"/>
      <use fill="#422a00" height="139.35" transform="matrix(0.0117, 0.0, 0.0, 0.0117, 141.95, 27.0)" width="257.5" xlink:href="#font_AW_Conqueror_Sans_Light_e0"/>
      <use fill="#422a00" height="139.35" transform="matrix(0.0117, 0.0, 0.0, 0.0117, 151.05, 27.0)" width="257.5" xlink:href="#font_AW_Conqueror_Sans_Light_o0"/>
      <use fill="#422a00" height="139.35" transform="matrix(0.0117, 0.0, 0.0, 0.0117, 157.3, 27.0)" width="257.5" xlink:href="#font_AW_Conqueror_Sans_Light_n0"/>
      <use fill="#422a00" height="139.35" transform="matrix(0.0117, 0.0, 0.0, 0.0117, 167.1, 27.0)" width="257.5" xlink:href="#font_AW_Conqueror_Sans_Light_l0"/>
      <use fill="#422a00" height="139.35" transform="matrix(0.0117, 0.0, 0.0, 0.0117, 170.0, 27.0)" width="257.5" xlink:href="#font_AW_Conqueror_Sans_Light_o0"/>
      <use fill="#422a00" height="139.35" transform="matrix(0.0117, 0.0, 0.0, 0.0117, 176.3, 27.0)" width="257.5" xlink:href="#font_AW_Conqueror_Sans_Light_n0"/>
      <use fill="#422a00" height="139.35" transform="matrix(0.0117, 0.0, 0.0, 0.0117, 183.1, 27.0)" width="257.5" xlink:href="#font_AW_Conqueror_Sans_Light_g0"/>
      <use fill="#422a00" height="139.35" transform="matrix(0.0117, 0.0, 0.0, 0.0117, 189.55, 27.0)" width="257.5" xlink:href="#font_AW_Conqueror_Sans_Light_-0"/>
      <use fill="#422a00" height="139.35" transform="matrix(0.0117, 0.0, 0.0, 0.0117, 192.55, 27.0)" width="257.5" xlink:href="#font_AW_Conqueror_Sans_Light_r0"/>
      <use fill="#422a00" height="139.35" transform="matrix(0.0117, 0.0, 0.0, 0.0117, 196.7, 27.0)" width="257.5" xlink:href="#font_AW_Conqueror_Sans_Light_a0"/>
      <use fill="#422a00" height="139.35" transform="matrix(0.0117, 0.0, 0.0, 0.0117, 202.75, 27.0)" width="257.5" xlink:href="#font_AW_Conqueror_Sans_Light_n0"/>
      <use fill="#422a00" height="139.35" transform="matrix(0.0117, 0.0, 0.0, 0.0117, 209.6, 27.0)" width="257.5" xlink:href="#font_AW_Conqueror_Sans_Light_g0"/>
      <use fill="#422a00" height="139.35" transform="matrix(0.0117, 0.0, 0.0, 0.0117, 216.05, 27.0)" width="257.5" xlink:href="#font_AW_Conqueror_Sans_Light_e0"/>
    </g>
    <g transform="matrix(1.0, 0.0, 0.0, 1.0, 0.0, 0.0)">
      <use fill="#422a00" height="139.35" transform="matrix(0.0117, 0.0, 0.0, 0.0117, 0.0, 42.0)" width="257.5" xlink:href="#font_AW_Conqueror_Sans_Light_a0"/>
      <use fill="#422a00" height="139.35" transform="matrix(0.0117, 0.0, 0.0, 0.0117, 5.95, 42.0)" width="257.5" xlink:href="#font_AW_Conqueror_Sans_Light_t0"/>
      <use fill="#422a00" height="139.35" transform="matrix(0.0117, 0.0, 0.0, 0.0117, 10.3, 42.0)" width="257.5" xlink:href="#font_AW_Conqueror_Sans_Light_t0"/>
      <use fill="#422a00" height="139.35" transform="matrix(0.0117, 0.0, 0.0, 0.0117, 14.65, 42.0)" width="257.5" xlink:href="#font_AW_Conqueror_Sans_Light_a0"/>
      <use fill="#422a00" height="139.35" transform="matrix(0.0117, 0.0, 0.0, 0.0117, 20.7, 42.0)" width="257.5" xlink:href="#font_AW_Conqueror_Sans_Light_c0"/>
      <use fill="#422a00" height="139.35" transform="matrix(0.0117, 0.0, 0.0, 0.0117, 26.55, 42.0)" width="257.5" xlink:href="#font_AW_Conqueror_Sans_Light_k0"/>
      <use fill="#422a00" height="139.35" transform="matrix(0.0117, 0.0, 0.0, 0.0117, 32.4, 42.0)" width="257.5" xlink:href="#font_AW_Conqueror_Sans_Light_s0"/>
      <use fill="#422a00" height="139.35" transform="matrix(0.0117, 0.0, 0.0, 0.0117, 37.4, 42.0)" width="257.5" xlink:href="#font_AW_Conqueror_Sans_Light_.0"/>
      <use fill="#422a00" height="139.35" transform="matrix(0.0117, 0.0, 0.0, 0.0117, 42.35, 42.0)" width="257.5" xlink:href="#font_AW_Conqueror_Sans_Light_B0"/>
      <use fill="#422a00" height="139.35" transform="matrix(0.0117, 0.0, 0.0, 0.0117, 50.55, 42.0)" width="257.5" xlink:href="#font_AW_Conqueror_Sans_Light_o0"/>
      <use fill="#422a00" height="139.35" transform="matrix(0.0117, 0.0, 0.0, 0.0117, 56.8, 42.0)" width="257.5" xlink:href="#font_AW_Conqueror_Sans_Light_t0"/>
      <use fill="#422a00" height="139.35" transform="matrix(0.0117, 0.0, 0.0, 0.0117, 61.15, 42.0)" width="257.5" xlink:href="#font_AW_Conqueror_Sans_Light_h0"/>
      <use fill="#422a00" height="139.35" transform="matrix(0.0117, 0.0, 0.0, 0.0117, 70.8, 42.0)" width="257.5" xlink:href="#font_AW_Conqueror_Sans_Light_a0"/>
      <use fill="#422a00" height="139.35" transform="matrix(0.0117, 0.0, 0.0, 0.0117, 76.85, 42.0)" width="257.5" xlink:href="#font_AW_Conqueror_Sans_Light_r0"/>
      <use fill="#422a00" height="139.35" transform="matrix(0.0117, 0.0, 0.0, 0.0117, 81.25, 42.0)" width="257.5" xlink:href="#font_AW_Conqueror_Sans_Light_m0"/>
      <use fill="#422a00" height="139.35" transform="matrix(0.0117, 0.0, 0.0, 0.0117, 91.65, 42.0)" width="257.5" xlink:href="#font_AW_Conqueror_Sans_Light_s0"/>
      <use fill="#422a00" height="139.35" transform="matrix(0.0117, 0.0, 0.0, 0.0117, 99.7, 42.0)" width="257.5" xlink:href="#font_AW_Conqueror_Sans_Light_a0"/>
      <use fill="#422a00" height="139.35" transform="matrix(0.0117, 0.0, 0.0, 0.0117, 105.75, 42.0)" width="257.5" xlink:href="#font_AW_Conqueror_Sans_Light_r0"/>
      <use fill="#422a00" height="139.35" transform="matrix(0.0117, 0.0, 0.0, 0.0117, 109.8, 42.0)" width="257.5" xlink:href="#font_AW_Conqueror_Sans_Light_e0"/>
      <use fill="#422a00" height="139.35" transform="matrix(0.0117, 0.0, 0.0, 0.0117, 118.85, 42.0)" width="257.5" xlink:href="#font_AW_Conqueror_Sans_Light_e0"/>
      <use fill="#422a00" height="139.35" transform="matrix(0.0117, 0.0, 0.0, 0.0117, 124.95, 42.0)" width="257.5" xlink:href="#font_AW_Conqueror_Sans_Light_q0"/>
      <use fill="#422a00" height="139.35" transform="matrix(0.0117, 0.0, 0.0, 0.0117, 131.4, 42.0)" width="257.5" xlink:href="#font_AW_Conqueror_Sans_Light_u0"/>
      <use fill="#422a00" height="139.35" transform="matrix(0.0117, 0.0, 0.0, 0.0117, 138.0, 42.0)" width="257.5" xlink:href="#font_AW_Conqueror_Sans_Light_i0"/>
      <use fill="#422a00" height="139.35" transform="matrix(0.0117, 0.0, 0.0, 0.0117, 140.95, 42.0)" width="257.5" xlink:href="#font_AW_Conqueror_Sans_Light_p0"/>
      <use fill="#422a00" height="139.35" transform="matrix(0.0117, 0.0, 0.0, 0.0117, 147.45, 42.0)" width="257.5" xlink:href="#font_AW_Conqueror_Sans_Light_p0"/>
      <use fill="#422a00" height="139.35" transform="matrix(0.0117, 0.0, 0.0, 0.0117, 153.95, 42.0)" width="257.5" xlink:href="#font_AW_Conqueror_Sans_Light_e0"/>
      <use fill="#422a00" height="139.35" transform="matrix(0.0117, 0.0, 0.0, 0.0117, 160.05, 42.0)" width="257.5" xlink:href="#font_AW_Conqueror_Sans_Light_d0"/>
      <use fill="#422a00" height="139.35" transform="matrix(0.0117, 0.0, 0.0, 0.0117, 169.5, 42.0)" width="257.5" xlink:href="#font_AW_Conqueror_Sans_Light_w0"/>
      <use fill="#422a00" height="139.35" transform="matrix(0.0117, 0.0, 0.0, 0.0117, 178.7, 42.0)" width="257.5" xlink:href="#font_AW_Conqueror_Sans_Light_i0"/>
      <use fill="#422a00" height="139.35" transform="matrix(0.0117, 0.0, 0.0, 0.0117, 181.6, 42.0)" width="257.5" xlink:href="#font_AW_Conqueror_Sans_Light_t0"/>
      <use fill="#422a00" height="139.35" transform="matrix(0.0117, 0.0, 0.0, 0.0117, 185.95, 42.0)" width="257.5" xlink:href="#font_AW_Conqueror_Sans_Light_h0"/>
      <use fill="#422a00" height="139.35" transform="matrix(0.0117, 0.0, 0.0, 0.0117, 195.6, 42.0)" width="257.5" xlink:href="#font_AW_Conqueror_Sans_Light_b0"/>
      <use fill="#422a00" height="139.35" transform="matrix(0.0117, 0.0, 0.0, 0.0117, 202.05, 42.0)" width="257.5" xlink:href="#font_AW_Conqueror_Sans_Light_u0"/>
      <use fill="#422a00" height="139.35" transform="matrix(0.0117, 0.0, 0.0, 0.0117, 208.65, 42.0)" width="257.5" xlink:href="#font_AW_Conqueror_Sans_Light_i0"/>
      <use fill="#422a00" height="139.35" transform="matrix(0.0117, 0.0, 0.0, 0.0117, 211.6, 42.0)" width="257.5" xlink:href="#font_AW_Conqueror_Sans_Light_l0"/>
      <use fill="#422a00" height="139.35" transform="matrix(0.0117, 0.0, 0.0, 0.0117, 214.55, 42.0)" width="257.5" xlink:href="#font_AW_Conqueror_Sans_Light_t0"/>
      <use fill="#422a00" height="139.35" transform="matrix(0.0117, 0.0, 0.0, 0.0117, 218.55, 42.0)" width="257.5" xlink:href="#font_AW_Conqueror_Sans_Light_-0"/>
      <use fill="#422a00" height="139.35" transform="matrix(0.0117, 0.0, 0.0, 0.0117, 221.55, 42.0)" width="257.5" xlink:href="#font_AW_Conqueror_Sans_Light_i0"/>
      <use fill="#422a00" height="139.35" transform="matrix(0.0117, 0.0, 0.0, 0.0117, 224.45, 42.0)" width="257.5" xlink:href="#font_AW_Conqueror_Sans_Light_n0"/>
    </g>
    <g transform="matrix(1.0, 0.0, 0.0, 1.0, 0.0, 0.0)">
      <use fill="#422a00" height="139.35" transform="matrix(0.0117, 0.0, 0.0, 0.0117, 0.0, 58.0)" width="257.5" xlink:href="#font_AW_Conqueror_Sans_Light_R0"/>
      <use fill="#422a00" height="139.35" transform="matrix(0.0117, 0.0, 0.0, 0.0117, 7.95, 58.0)" width="257.5" xlink:href="#font_AW_Conqueror_Sans_Light_e0"/>
      <use fill="#422a00" height="139.35" transform="matrix(0.0117, 0.0, 0.0, 0.0117, 14.0, 58.0)" width="257.5" xlink:href="#font_AW_Conqueror_Sans_Light_v0"/>
      <use fill="#422a00" height="139.35" transform="matrix(0.0117, 0.0, 0.0, 0.0117, 19.5, 58.0)" width="257.5" xlink:href="#font_AW_Conqueror_Sans_Light_o0"/>
      <use fill="#422a00" height="139.35" transform="matrix(0.0117, 0.0, 0.0, 0.0117, 25.75, 58.0)" width="257.5" xlink:href="#font_AW_Conqueror_Sans_Light_l0"/>
      <use fill="#422a00" height="139.35" transform="matrix(0.0117, 0.0, 0.0, 0.0117, 28.7, 58.0)" width="257.5" xlink:href="#font_AW_Conqueror_Sans_Light_v0"/>
      <use fill="#422a00" height="139.35" transform="matrix(0.0117, 0.0, 0.0, 0.0117, 34.2, 58.0)" width="257.5" xlink:href="#font_AW_Conqueror_Sans_Light_e0"/>
      <use fill="#422a00" height="139.35" transform="matrix(0.0117, 0.0, 0.0, 0.0117, 40.3, 58.0)" width="257.5" xlink:href="#font_AW_Conqueror_Sans_Light_r0"/>
      <use fill="#422a00" height="139.35" transform="matrix(0.0117, 0.0, 0.0, 0.0117, 47.8, 58.0)" width="257.5" xlink:href="#font_AW_Conqueror_Sans_Light_C0"/>
      <use fill="#422a00" height="139.35" transform="matrix(0.0117, 0.0, 0.0, 0.0117, 55.65, 58.0)" width="257.5" xlink:href="#font_AW_Conqueror_Sans_Light_a0"/>
      <use fill="#422a00" height="139.35" transform="matrix(0.0117, 0.0, 0.0, 0.0117, 61.75, 58.0)" width="257.5" xlink:href="#font_AW_Conqueror_Sans_Light_n0"/>
      <use fill="#422a00" height="139.35" transform="matrix(0.0117, 0.0, 0.0, 0.0117, 68.6, 58.0)" width="257.5" xlink:href="#font_AW_Conqueror_Sans_Light_n0"/>
      <use fill="#422a00" height="139.35" transform="matrix(0.0117, 0.0, 0.0, 0.0117, 75.4, 58.0)" width="257.5" xlink:href="#font_AW_Conqueror_Sans_Light_o0"/>
      <use fill="#422a00" height="139.35" transform="matrix(0.0117, 0.0, 0.0, 0.0117, 81.65, 58.0)" width="257.5" xlink:href="#font_AW_Conqueror_Sans_Light_n0"/>
      <use fill="#422a00" height="139.35" transform="matrix(0.0117, 0.0, 0.0, 0.0117, 88.45, 58.0)" width="257.5" xlink:href="#font_AW_Conqueror_Sans_Light_s0"/>
      <use fill="#422a00" height="139.35" transform="matrix(0.0117, 0.0, 0.0, 0.0117, 93.45, 58.0)" width="257.5" xlink:href="#font_AW_Conqueror_Sans_Light__3"/>
      <use fill="#422a00" height="139.35" transform="matrix(0.0117, 0.0, 0.0, 0.0117, 98.65, 58.0)" width="257.5" xlink:href="#font_AW_Conqueror_Sans_Light_a0"/>
      <use fill="#422a00" height="139.35" transform="matrix(0.0117, 0.0, 0.0, 0.0117, 104.7, 58.0)" width="257.5" xlink:href="#font_AW_Conqueror_Sans_Light_n0"/>
      <use fill="#422a00" height="139.35" transform="matrix(0.0117, 0.0, 0.0, 0.0117, 111.55, 58.0)" width="257.5" xlink:href="#font_AW_Conqueror_Sans_Light_d0"/>
      <use fill="#422a00" height="139.35" transform="matrix(0.0117, 0.0, 0.0, 0.0117, 121.0, 58.0)" width="257.5" xlink:href="#font_AW_Conqueror_Sans_Light_a0"/>
      <use fill="#422a00" height="139.35" transform="matrix(0.0117, 0.0, 0.0, 0.0117, 130.05, 58.0)" width="257.5" xlink:href="#font_AW_Conqueror_Sans_Light_L0"/>
      <use fill="#422a00" height="139.35" transform="matrix(0.0117, 0.0, 0.0, 0.0117, 136.9, 58.0)" width="257.5" xlink:href="#font_AW_Conqueror_Sans_Light_o0"/>
      <use fill="#422a00" height="139.35" transform="matrix(0.0117, 0.0, 0.0, 0.0117, 143.15, 58.0)" width="257.5" xlink:href="#font_AW_Conqueror_Sans_Light_n0"/>
      <use fill="#422a00" height="139.35" transform="matrix(0.0117, 0.0, 0.0, 0.0117, 149.95, 58.0)" width="257.5" xlink:href="#font_AW_Conqueror_Sans_Light_g0"/>
      <use fill="#422a00" height="139.35" transform="matrix(0.0117, 0.0, 0.0, 0.0117, 159.4, 58.0)" width="257.5" xlink:href="#font_AW_Conqueror_Sans_Light_B0"/>
      <use fill="#422a00" height="139.35" transform="matrix(0.0117, 0.0, 0.0, 0.0117, 167.6, 58.0)" width="257.5" xlink:href="#font_AW_Conqueror_Sans_Light_a0"/>
      <use fill="#422a00" height="139.35" transform="matrix(0.0117, 0.0, 0.0, 0.0117, 173.65, 58.0)" width="257.5" xlink:href="#font_AW_Conqueror_Sans_Light_r0"/>
      <use fill="#422a00" height="139.35" transform="matrix(0.0117, 0.0, 0.0, 0.0117, 178.05, 58.0)" width="257.5" xlink:href="#font_AW_Conqueror_Sans_Light_r0"/>
      <use fill="#422a00" height="139.35" transform="matrix(0.0117, 0.0, 0.0, 0.0117, 182.05, 58.0)" width="257.5" xlink:href="#font_AW_Conqueror_Sans_Light_e0"/>
      <use fill="#422a00" height="139.35" transform="matrix(0.0117, 0.0, 0.0, 0.0117, 188.1, 58.0)" width="257.5" xlink:href="#font_AW_Conqueror_Sans_Light_l0"/>
      <use fill="#422a00" height="139.35" transform="matrix(0.0117, 0.0, 0.0, 0.0117, 194.0, 58.0)" width="257.5" xlink:href="#font_AW_Conqueror_Sans_Light_s0"/>
      <use fill="#422a00" height="139.35" transform="matrix(0.0117, 0.0, 0.0, 0.0117, 199.0, 58.0)" width="257.5" xlink:href="#font_AW_Conqueror_Sans_Light_t0"/>
      <use fill="#422a00" height="139.35" transform="matrix(0.0117, 0.0, 0.0, 0.0117, 203.35, 58.0)" width="257.5" xlink:href="#font_AW_Conqueror_Sans_Light_o0"/>
      <use fill="#422a00" height="139.35" transform="matrix(0.0117, 0.0, 0.0, 0.0117, 209.6, 58.0)" width="257.5" xlink:href="#font_AW_Conqueror_Sans_Light_r0"/>
      <use fill="#422a00" height="139.35" transform="matrix(0.0117, 0.0, 0.0, 0.0117, 213.65, 58.0)" width="257.5" xlink:href="#font_AW_Conqueror_Sans_Light_e0"/>
      <use fill="#422a00" height="139.35" transform="matrix(0.0117, 0.0, 0.0, 0.0117, 219.7, 58.0)" width="257.5" xlink:href="#font_AW_Conqueror_Sans_Light_d0"/>
      <use fill="#422a00" height="139.35" transform="matrix(0.0117, 0.0, 0.0, 0.0117, 229.15, 58.0)" width="257.5" xlink:href="#font_AW_Conqueror_Sans_Light_o0"/>
      <use fill="#422a00" height="139.35" transform="matrix(0.0117, 0.0, 0.0, 0.0117, 235.4, 58.0)" width="257.5" xlink:href="#font_AW_Conqueror_Sans_Light_n0"/>
      <use fill="#422a00" height="139.35" transform="matrix(0.0117, 0.0, 0.0, 0.0117, 245.2, 58.0)" width="257.5" xlink:href="#font_AW_Conqueror_Sans_Light_i0"/>
      <use fill="#422a00" height="139.35" transform="matrix(0.0117, 0.0, 0.0, 0.0117, 248.1, 58.0)" width="257.5" xlink:href="#font_AW_Conqueror_Sans_Light_t0"/>
      <use fill="#422a00" height="139.35" transform="matrix(0.0117, 0.0, 0.0, 0.0117, 252.45, 58.0)" width="257.5" xlink:href="#font_AW_Conqueror_Sans_Light_s0"/>
    </g>
    <g transform="matrix(1.0, 0.0, 0.0, 1.0, 0.0, 0.0)">
      <use fill="#422a00" height="139.35" transform="matrix(0.0117, 0.0, 0.0, 0.0117, 0.0, 74.0)" width="257.5" xlink:href="#font_AW_Conqueror_Sans_Light_b0"/>
      <use fill="#422a00" height="139.35" transform="matrix(0.0117, 0.0, 0.0, 0.0117, 6.45, 74.0)" width="257.5" xlink:href="#font_AW_Conqueror_Sans_Light_a0"/>
      <use fill="#422a00" height="139.35" transform="matrix(0.0117, 0.0, 0.0, 0.0117, 12.5, 74.0)" width="257.5" xlink:href="#font_AW_Conqueror_Sans_Light_c0"/>
      <use fill="#422a00" height="139.35" transform="matrix(0.0117, 0.0, 0.0, 0.0117, 18.35, 74.0)" width="257.5" xlink:href="#font_AW_Conqueror_Sans_Light_k0"/>
      <use fill="#422a00" height="139.35" transform="matrix(0.0117, 0.0, 0.0, 0.0117, 27.45, 74.0)" width="257.5" xlink:href="#font_AW_Conqueror_Sans_Light_c0"/>
      <use fill="#422a00" height="139.35" transform="matrix(0.0117, 0.0, 0.0, 0.0117, 33.15, 74.0)" width="257.5" xlink:href="#font_AW_Conqueror_Sans_Light_a0"/>
      <use fill="#422a00" height="139.35" transform="matrix(0.0117, 0.0, 0.0, 0.0117, 39.25, 74.0)" width="257.5" xlink:href="#font_AW_Conqueror_Sans_Light_n0"/>
      <use fill="#422a00" height="139.35" transform="matrix(0.0117, 0.0, 0.0, 0.0117, 49.1, 74.0)" width="257.5" xlink:href="#font_AW_Conqueror_Sans_Light_b0"/>
      <use fill="#422a00" height="139.35" transform="matrix(0.0117, 0.0, 0.0, 0.0117, 55.55, 74.0)" width="257.5" xlink:href="#font_AW_Conqueror_Sans_Light_e0"/>
      <use fill="#422a00" height="139.35" transform="matrix(0.0117, 0.0, 0.0, 0.0117, 64.65, 74.0)" width="257.5" xlink:href="#font_AW_Conqueror_Sans_Light_m0"/>
      <use fill="#422a00" height="139.35" transform="matrix(0.0117, 0.0, 0.0, 0.0117, 75.05, 74.0)" width="257.5" xlink:href="#font_AW_Conqueror_Sans_Light_o0"/>
      <use fill="#422a00" height="139.35" transform="matrix(0.0117, 0.0, 0.0, 0.0117, 81.35, 74.0)" width="257.5" xlink:href="#font_AW_Conqueror_Sans_Light_u0"/>
      <use fill="#422a00" height="139.35" transform="matrix(0.0117, 0.0, 0.0, 0.0117, 87.95, 74.0)" width="257.5" xlink:href="#font_AW_Conqueror_Sans_Light_n0"/>
      <use fill="#422a00" height="139.35" transform="matrix(0.0117, 0.0, 0.0, 0.0117, 94.75, 74.0)" width="257.5" xlink:href="#font_AW_Conqueror_Sans_Light_t0"/>
      <use fill="#422a00" height="139.35" transform="matrix(0.0117, 0.0, 0.0, 0.0117, 99.1, 74.0)" width="257.5" xlink:href="#font_AW_Conqueror_Sans_Light_e0"/>
      <use fill="#422a00" height="139.35" transform="matrix(0.0117, 0.0, 0.0, 0.0117, 105.2, 74.0)" width="257.5" xlink:href="#font_AW_Conqueror_Sans_Light_d0"/>
      <use fill="#422a00" height="139.35" transform="matrix(0.0117, 0.0, 0.0, 0.0117, 114.65, 74.0)" width="257.5" xlink:href="#font_AW_Conqueror_Sans_Light_t0"/>
      <use fill="#422a00" height="139.35" transform="matrix(0.0117, 0.0, 0.0, 0.0117, 119.0, 74.0)" width="257.5" xlink:href="#font_AW_Conqueror_Sans_Light_o0"/>
      <use fill="#422a00" height="139.35" transform="matrix(0.0117, 0.0, 0.0, 0.0117, 128.25, 74.0)" width="257.5" xlink:href="#font_AW_Conqueror_Sans_Light_t0"/>
      <use fill="#422a00" height="139.35" transform="matrix(0.0117, 0.0, 0.0, 0.0117, 132.6, 74.0)" width="257.5" xlink:href="#font_AW_Conqueror_Sans_Light_h0"/>
      <use fill="#422a00" height="139.35" transform="matrix(0.0117, 0.0, 0.0, 0.0117, 139.25, 74.0)" width="257.5" xlink:href="#font_AW_Conqueror_Sans_Light_e0"/>
      <use fill="#422a00" height="139.35" transform="matrix(0.0117, 0.0, 0.0, 0.0117, 148.35, 74.0)" width="257.5" xlink:href="#font_AW_Conqueror_Sans_Light_c0"/>
      <use fill="#422a00" height="139.35" transform="matrix(0.0117, 0.0, 0.0, 0.0117, 154.2, 74.0)" width="257.5" xlink:href="#font_AW_Conqueror_Sans_Light_h0"/>
      <use fill="#422a00" height="139.35" transform="matrix(0.0117, 0.0, 0.0, 0.0117, 160.85, 74.0)" width="257.5" xlink:href="#font_AW_Conqueror_Sans_Light_e0"/>
      <use fill="#422a00" height="139.35" transform="matrix(0.0117, 0.0, 0.0, 0.0117, 166.95, 74.0)" width="257.5" xlink:href="#font_AW_Conqueror_Sans_Light_s0"/>
      <use fill="#422a00" height="139.35" transform="matrix(0.0117, 0.0, 0.0, 0.0117, 171.95, 74.0)" width="257.5" xlink:href="#font_AW_Conqueror_Sans_Light_t0"/>
      <use fill="#422a00" height="139.35" transform="matrix(0.0117, 0.0, 0.0, 0.0117, 179.3, 74.0)" width="257.5" xlink:href="#font_AW_Conqueror_Sans_Light_t0"/>
      <use fill="#422a00" height="139.35" transform="matrix(0.0117, 0.0, 0.0, 0.0117, 183.65, 74.0)" width="257.5" xlink:href="#font_AW_Conqueror_Sans_Light_o0"/>
      <use fill="#422a00" height="139.35" transform="matrix(0.0117, 0.0, 0.0, 0.0117, 192.9, 74.0)" width="257.5" xlink:href="#font_AW_Conqueror_Sans_Light_u0"/>
      <use fill="#422a00" height="139.35" transform="matrix(0.0117, 0.0, 0.0, 0.0117, 199.45, 74.0)" width="257.5" xlink:href="#font_AW_Conqueror_Sans_Light_n0"/>
      <use fill="#422a00" height="139.35" transform="matrix(0.0117, 0.0, 0.0, 0.0117, 206.25, 74.0)" width="257.5" xlink:href="#font_AW_Conqueror_Sans_Light_l0"/>
      <use fill="#422a00" height="139.35" transform="matrix(0.0117, 0.0, 0.0, 0.0117, 209.15, 74.0)" width="257.5" xlink:href="#font_AW_Conqueror_Sans_Light_e0"/>
      <use fill="#422a00" height="139.35" transform="matrix(0.0117, 0.0, 0.0, 0.0117, 215.25, 74.0)" width="257.5" xlink:href="#font_AW_Conqueror_Sans_Light_a0"/>
      <use fill="#422a00" height="139.35" transform="matrix(0.0117, 0.0, 0.0, 0.0117, 221.3, 74.0)" width="257.5" xlink:href="#font_AW_Conqueror_Sans_Light_s0"/>
      <use fill="#422a00" height="139.35" transform="matrix(0.0117, 0.0, 0.0, 0.0117, 226.35, 74.0)" width="257.5" xlink:href="#font_AW_Conqueror_Sans_Light_h0"/>
      <use fill="#422a00" height="139.35" transform="matrix(0.0117, 0.0, 0.0, 0.0117, 236.0, 74.0)" width="257.5" xlink:href="#font_AW_Conqueror_Sans_Light_a0"/>
    </g>
    <g transform="matrix(1.0, 0.0, 0.0, 1.0, 0.0, 0.0)">
      <use fill="#422a00" height="139.35" transform="matrix(0.0117, 0.0, 0.0, 0.0117, 0.0, 89.0)" width="257.5" xlink:href="#font_AW_Conqueror_Sans_Light_d0"/>
      <use fill="#422a00" height="139.35" transform="matrix(0.0117, 0.0, 0.0, 0.0117, 6.45, 89.0)" width="257.5" xlink:href="#font_AW_Conqueror_Sans_Light_e0"/>
      <use fill="#422a00" height="139.35" transform="matrix(0.0117, 0.0, 0.0, 0.0117, 12.55, 89.0)" width="257.5" xlink:href="#font_AW_Conqueror_Sans_Light_a0"/>
      <use fill="#422a00" height="139.35" transform="matrix(0.0117, 0.0, 0.0, 0.0117, 18.6, 89.0)" width="257.5" xlink:href="#font_AW_Conqueror_Sans_Light_d0"/>
      <use fill="#422a00" height="139.35" transform="matrix(0.0117, 0.0, 0.0, 0.0117, 25.1, 89.0)" width="257.5" xlink:href="#font_AW_Conqueror_Sans_Light_l0"/>
      <use fill="#422a00" height="139.35" transform="matrix(0.0117, 0.0, 0.0, 0.0117, 28.05, 89.0)" width="257.5" xlink:href="#font_AW_Conqueror_Sans_Light_y0"/>
      <use fill="#422a00" height="139.35" transform="matrix(0.0117, 0.0, 0.0, 0.0117, 36.6, 89.0)" width="257.5" xlink:href="#font_AW_Conqueror_Sans_Light_B0"/>
      <use fill="#422a00" height="139.35" transform="matrix(0.0117, 0.0, 0.0, 0.0117, 44.8, 89.0)" width="257.5" xlink:href="#font_AW_Conqueror_Sans_Light_u0"/>
      <use fill="#422a00" height="139.35" transform="matrix(0.0117, 0.0, 0.0, 0.0117, 51.35, 89.0)" width="257.5" xlink:href="#font_AW_Conqueror_Sans_Light_s0"/>
      <use fill="#422a00" height="139.35" transform="matrix(0.0117, 0.0, 0.0, 0.0117, 56.4, 89.0)" width="257.5" xlink:href="#font_AW_Conqueror_Sans_Light_t0"/>
      <use fill="#422a00" height="139.35" transform="matrix(0.0117, 0.0, 0.0, 0.0117, 60.75, 89.0)" width="257.5" xlink:href="#font_AW_Conqueror_Sans_Light_e0"/>
      <use fill="#422a00" height="139.35" transform="matrix(0.0117, 0.0, 0.0, 0.0117, 66.85, 89.0)" width="257.5" xlink:href="#font_AW_Conqueror_Sans_Light_r0"/>
      <use fill="#422a00" height="139.35" transform="matrix(0.0117, 0.0, 0.0, 0.0117, 74.35, 89.0)" width="257.5" xlink:href="#font_AW_Conqueror_Sans_Light_C0"/>
      <use fill="#422a00" height="139.35" transform="matrix(0.0117, 0.0, 0.0, 0.0117, 82.2, 89.0)" width="257.5" xlink:href="#font_AW_Conqueror_Sans_Light_a0"/>
      <use fill="#422a00" height="139.35" transform="matrix(0.0117, 0.0, 0.0, 0.0117, 88.3, 89.0)" width="257.5" xlink:href="#font_AW_Conqueror_Sans_Light_n0"/>
      <use fill="#422a00" height="139.35" transform="matrix(0.0117, 0.0, 0.0, 0.0117, 95.15, 89.0)" width="257.5" xlink:href="#font_AW_Conqueror_Sans_Light_n0"/>
      <use fill="#422a00" height="139.35" transform="matrix(0.0117, 0.0, 0.0, 0.0117, 101.95, 89.0)" width="257.5" xlink:href="#font_AW_Conqueror_Sans_Light_o0"/>
      <use fill="#422a00" height="139.35" transform="matrix(0.0117, 0.0, 0.0, 0.0117, 108.2, 89.0)" width="257.5" xlink:href="#font_AW_Conqueror_Sans_Light_n0"/>
      <use fill="#422a00" height="139.35" transform="matrix(0.0117, 0.0, 0.0, 0.0117, 118.0, 89.0)" width="257.5" xlink:href="#font_AW_Conqueror_Sans_Light_s0"/>
      <use fill="#422a00" height="139.35" transform="matrix(0.0117, 0.0, 0.0, 0.0117, 123.0, 89.0)" width="257.5" xlink:href="#font_AW_Conqueror_Sans_Light_t0"/>
      <use fill="#422a00" height="139.35" transform="matrix(0.0117, 0.0, 0.0, 0.0117, 127.35, 89.0)" width="257.5" xlink:href="#font_AW_Conqueror_Sans_Light_r0"/>
      <use fill="#422a00" height="139.35" transform="matrix(0.0117, 0.0, 0.0, 0.0117, 131.75, 89.0)" width="257.5" xlink:href="#font_AW_Conqueror_Sans_Light_i0"/>
      <use fill="#422a00" height="139.35" transform="matrix(0.0117, 0.0, 0.0, 0.0117, 134.65, 89.0)" width="257.5" xlink:href="#font_AW_Conqueror_Sans_Light_k0"/>
      <use fill="#422a00" height="139.35" transform="matrix(0.0117, 0.0, 0.0, 0.0117, 140.5, 89.0)" width="257.5" xlink:href="#font_AW_Conqueror_Sans_Light_e0"/>
      <use fill="#422a00" height="139.35" transform="matrix(0.0117, 0.0, 0.0, 0.0117, 146.55, 89.0)" width="257.5" xlink:href="#font_AW_Conqueror_Sans_Light_.0"/>
      <use fill="#422a00" height="139.35" transform="matrix(0.0117, 0.0, 0.0, 0.0117, 151.45, 89.0)" width="257.5" xlink:href="#font_AW_Conqueror_Sans_Light_I0"/>
      <use fill="#422a00" height="139.35" transform="matrix(0.0117, 0.0, 0.0, 0.0117, 155.2, 89.0)" width="257.5" xlink:href="#font_AW_Conqueror_Sans_Light_t0"/>
      <use fill="#422a00" height="139.35" transform="matrix(0.0117, 0.0, 0.0, 0.0117, 159.5, 89.0)" width="257.5" xlink:href="#font_AW_Conqueror_Sans_Light_s0"/>
      <use fill="#422a00" height="139.35" transform="matrix(0.0117, 0.0, 0.0, 0.0117, 167.55, 89.0)" width="257.5" xlink:href="#font_AW_Conqueror_Sans_Light_p0"/>
      <use fill="#422a00" height="139.35" transform="matrix(0.0117, 0.0, 0.0, 0.0117, 174.0, 89.0)" width="257.5" xlink:href="#font_AW_Conqueror_Sans_Light_r0"/>
      <use fill="#422a00" height="139.35" transform="matrix(0.0117, 0.0, 0.0, 0.0117, 178.05, 89.0)" width="257.5" xlink:href="#font_AW_Conqueror_Sans_Light_e0"/>
      <use fill="#422a00" height="139.35" transform="matrix(0.0117, 0.0, 0.0, 0.0117, 184.1, 89.0)" width="257.5" xlink:href="#font_AW_Conqueror_Sans_Light_f0"/>
      <use fill="#422a00" height="139.35" transform="matrix(0.0117, 0.0, 0.0, 0.0117, 187.85, 89.0)" width="257.5" xlink:href="#font_AW_Conqueror_Sans_Light_e0"/>
      <use fill="#422a00" height="139.35" transform="matrix(0.0117, 0.0, 0.0, 0.0117, 193.95, 89.0)" width="257.5" xlink:href="#font_AW_Conqueror_Sans_Light_r0"/>
      <use fill="#422a00" height="139.35" transform="matrix(0.0117, 0.0, 0.0, 0.0117, 198.35, 89.0)" width="257.5" xlink:href="#font_AW_Conqueror_Sans_Light_r0"/>
      <use fill="#422a00" height="139.35" transform="matrix(0.0117, 0.0, 0.0, 0.0117, 202.35, 89.0)" width="257.5" xlink:href="#font_AW_Conqueror_Sans_Light_e0"/>
      <use fill="#422a00" height="139.35" transform="matrix(0.0117, 0.0, 0.0, 0.0117, 208.4, 89.0)" width="257.5" xlink:href="#font_AW_Conqueror_Sans_Light_d0"/>
    </g>
    <g transform="matrix(1.0, 0.0, 0.0, 1.0, 0.0, 0.0)">
      <use fill="#422a00" height="139.35" transform="matrix(0.0117, 0.0, 0.0, 0.0117, 0.0, 105.0)" width="257.5" xlink:href="#font_AW_Conqueror_Sans_Light_s0"/>
      <use fill="#422a00" height="139.35" transform="matrix(0.0117, 0.0, 0.0, 0.0117, 5.0, 105.0)" width="257.5" xlink:href="#font_AW_Conqueror_Sans_Light_t0"/>
      <use fill="#422a00" height="139.35" transform="matrix(0.0117, 0.0, 0.0, 0.0117, 9.35, 105.0)" width="257.5" xlink:href="#font_AW_Conqueror_Sans_Light_r0"/>
      <use fill="#422a00" height="139.35" transform="matrix(0.0117, 0.0, 0.0, 0.0117, 13.5, 105.0)" width="257.5" xlink:href="#font_AW_Conqueror_Sans_Light_a0"/>
      <use fill="#422a00" height="139.35" transform="matrix(0.0117, 0.0, 0.0, 0.0117, 19.45, 105.0)" width="257.5" xlink:href="#font_AW_Conqueror_Sans_Light_t0"/>
      <use fill="#422a00" height="139.35" transform="matrix(0.0117, 0.0, 0.0, 0.0117, 23.8, 105.0)" width="257.5" xlink:href="#font_AW_Conqueror_Sans_Light_e0"/>
      <use fill="#422a00" height="139.35" transform="matrix(0.0117, 0.0, 0.0, 0.0117, 29.9, 105.0)" width="257.5" xlink:href="#font_AW_Conqueror_Sans_Light_g0"/>
      <use fill="#422a00" height="139.35" transform="matrix(0.0117, 0.0, 0.0, 0.0117, 36.35, 105.0)" width="257.5" xlink:href="#font_AW_Conqueror_Sans_Light_y0"/>
      <use fill="#422a00" height="139.35" transform="matrix(0.0117, 0.0, 0.0, 0.0117, 44.9, 105.0)" width="257.5" xlink:href="#font_AW_Conqueror_Sans_Light_i0"/>
      <use fill="#422a00" height="139.35" transform="matrix(0.0117, 0.0, 0.0, 0.0117, 47.8, 105.0)" width="257.5" xlink:href="#font_AW_Conqueror_Sans_Light_s0"/>
      <use fill="#422a00" height="139.35" transform="matrix(0.0117, 0.0, 0.0, 0.0117, 55.85, 105.0)" width="257.5" xlink:href="#font_AW_Conqueror_Sans_Light_t0"/>
      <use fill="#422a00" height="139.35" transform="matrix(0.0117, 0.0, 0.0, 0.0117, 60.2, 105.0)" width="257.5" xlink:href="#font_AW_Conqueror_Sans_Light_o0"/>
      <use fill="#422a00" height="139.35" transform="matrix(0.0117, 0.0, 0.0, 0.0117, 69.45, 105.0)" width="257.5" xlink:href="#font_AW_Conqueror_Sans_Light_d0"/>
      <use fill="#422a00" height="139.35" transform="matrix(0.0117, 0.0, 0.0, 0.0117, 75.9, 105.0)" width="257.5" xlink:href="#font_AW_Conqueror_Sans_Light_a0"/>
      <use fill="#422a00" height="139.35" transform="matrix(0.0117, 0.0, 0.0, 0.0117, 82.0, 105.0)" width="257.5" xlink:href="#font_AW_Conqueror_Sans_Light_r0"/>
      <use fill="#422a00" height="139.35" transform="matrix(0.0117, 0.0, 0.0, 0.0117, 86.4, 105.0)" width="257.5" xlink:href="#font_AW_Conqueror_Sans_Light_t0"/>
      <use fill="#422a00" height="139.35" transform="matrix(0.0117, 0.0, 0.0, 0.0117, 93.75, 105.0)" width="257.5" xlink:href="#font_AW_Conqueror_Sans_Light_i0"/>
      <use fill="#422a00" height="139.35" transform="matrix(0.0117, 0.0, 0.0, 0.0117, 96.65, 105.0)" width="257.5" xlink:href="#font_AW_Conqueror_Sans_Light_n0"/>
      <use fill="#422a00" height="139.35" transform="matrix(0.0117, 0.0, 0.0, 0.0117, 106.45, 105.0)" width="257.5" xlink:href="#font_AW_Conqueror_Sans_Light_f0"/>
      <use fill="#422a00" height="139.35" transform="matrix(0.0117, 0.0, 0.0, 0.0117, 110.2, 105.0)" width="257.5" xlink:href="#font_AW_Conqueror_Sans_Light_o0"/>
      <use fill="#422a00" height="139.35" transform="matrix(0.0117, 0.0, 0.0, 0.0117, 116.45, 105.0)" width="257.5" xlink:href="#font_AW_Conqueror_Sans_Light_r0"/>
      <use fill="#422a00" height="139.35" transform="matrix(0.0117, 0.0, 0.0, 0.0117, 124.0, 105.0)" width="257.5" xlink:href="#font_AW_Conqueror_Sans_Light_a0"/>
      <use fill="#422a00" height="139.35" transform="matrix(0.0117, 0.0, 0.0, 0.0117, 133.05, 105.0)" width="257.5" xlink:href="#font_AW_Conqueror_Sans_Light_s0"/>
      <use fill="#422a00" height="139.35" transform="matrix(0.0117, 0.0, 0.0, 0.0117, 138.05, 105.0)" width="257.5" xlink:href="#font_AW_Conqueror_Sans_Light_i0"/>
      <use fill="#422a00" height="139.35" transform="matrix(0.0117, 0.0, 0.0, 0.0117, 141.0, 105.0)" width="257.5" xlink:href="#font_AW_Conqueror_Sans_Light_n0"/>
      <use fill="#422a00" height="139.35" transform="matrix(0.0117, 0.0, 0.0, 0.0117, 147.8, 105.0)" width="257.5" xlink:href="#font_AW_Conqueror_Sans_Light_g0"/>
      <use fill="#422a00" height="139.35" transform="matrix(0.0117, 0.0, 0.0, 0.0117, 154.25, 105.0)" width="257.5" xlink:href="#font_AW_Conqueror_Sans_Light_l0"/>
      <use fill="#422a00" height="139.35" transform="matrix(0.0117, 0.0, 0.0, 0.0117, 157.2, 105.0)" width="257.5" xlink:href="#font_AW_Conqueror_Sans_Light_e0"/>
      <use fill="#422a00" height="139.35" transform="matrix(0.0117, 0.0, 0.0, 0.0117, 166.3, 105.0)" width="257.5" xlink:href="#font_AW_Conqueror_Sans_Light_p0"/>
      <use fill="#422a00" height="139.35" transform="matrix(0.0117, 0.0, 0.0, 0.0117, 172.75, 105.0)" width="257.5" xlink:href="#font_AW_Conqueror_Sans_Light_o0"/>
      <use fill="#422a00" height="139.35" transform="matrix(0.0117, 0.0, 0.0, 0.0117, 178.95, 105.0)" width="257.5" xlink:href="#font_AW_Conqueror_Sans_Light_w0"/>
      <use fill="#422a00" height="139.35" transform="matrix(0.0117, 0.0, 0.0, 0.0117, 188.1, 105.0)" width="257.5" xlink:href="#font_AW_Conqueror_Sans_Light_e0"/>
      <use fill="#422a00" height="139.35" transform="matrix(0.0117, 0.0, 0.0, 0.0117, 194.15, 105.0)" width="257.5" xlink:href="#font_AW_Conqueror_Sans_Light_r0"/>
      <use fill="#422a00" height="139.35" transform="matrix(0.0117, 0.0, 0.0, 0.0117, 198.65, 105.0)" width="257.5" xlink:href="#font_AW_Conqueror_Sans_Light_f0"/>
      <use fill="#422a00" height="139.35" transform="matrix(0.0117, 0.0, 0.0, 0.0117, 202.65, 105.0)" width="257.5" xlink:href="#font_AW_Conqueror_Sans_Light_u0"/>
      <use fill="#422a00" height="139.35" transform="matrix(0.0117, 0.0, 0.0, 0.0117, 209.2, 105.0)" width="257.5" xlink:href="#font_AW_Conqueror_Sans_Light_l0"/>
      <use fill="#422a00" height="139.35" transform="matrix(0.0117, 0.0, 0.0, 0.0117, 215.15, 105.0)" width="257.5" xlink:href="#font_AW_Conqueror_Sans_Light_s0"/>
      <use fill="#422a00" height="139.35" transform="matrix(0.0117, 0.0, 0.0, 0.0117, 220.15, 105.0)" width="257.5" xlink:href="#font_AW_Conqueror_Sans_Light_t0"/>
      <use fill="#422a00" height="139.35" transform="matrix(0.0117, 0.0, 0.0, 0.0117, 224.5, 105.0)" width="257.5" xlink:href="#font_AW_Conqueror_Sans_Light_r0"/>
      <use fill="#422a00" height="139.35" transform="matrix(0.0117, 0.0, 0.0, 0.0117, 228.9, 105.0)" width="257.5" xlink:href="#font_AW_Conqueror_Sans_Light_i0"/>
      <use fill="#422a00" height="139.35" transform="matrix(0.0117, 0.0, 0.0, 0.0117, 231.8, 105.0)" width="257.5" xlink:href="#font_AW_Conqueror_Sans_Light_k0"/>
      <use fill="#422a00" height="139.35" transform="matrix(0.0117, 0.0, 0.0, 0.0117, 237.65, 105.0)" width="257.5" xlink:href="#font_AW_Conqueror_Sans_Light_e0"/>
      <use fill="#422a00" height="139.35" transform="matrix(0.0117, 0.0, 0.0, 0.0117, 243.7, 105.0)" width="257.5" xlink:href="#font_AW_Conqueror_Sans_Light__3"/>
    </g>
    <g transform="matrix(1.0, 0.0, 0.0, 1.0, 0.0, 0.0)">
      <use fill="#422a00" height="139.35" transform="matrix(0.0117, 0.0, 0.0, 0.0117, 0.0, 121.0)" width="257.5" xlink:href="#font_AW_Conqueror_Sans_Light_a0"/>
      <use fill="#422a00" height="139.35" transform="matrix(0.0117, 0.0, 0.0, 0.0117, 6.05, 121.0)" width="257.5" xlink:href="#font_AW_Conqueror_Sans_Light_n0"/>
      <use fill="#422a00" height="139.35" transform="matrix(0.0117, 0.0, 0.0, 0.0117, 12.9, 121.0)" width="257.5" xlink:href="#font_AW_Conqueror_Sans_Light_d0"/>
      <use fill="#422a00" height="139.35" transform="matrix(0.0117, 0.0, 0.0, 0.0117, 22.35, 121.0)" width="257.5" xlink:href="#font_AW_Conqueror_Sans_Light_t0"/>
      <use fill="#422a00" height="139.35" transform="matrix(0.0117, 0.0, 0.0, 0.0117, 26.7, 121.0)" width="257.5" xlink:href="#font_AW_Conqueror_Sans_Light_h0"/>
      <use fill="#422a00" height="139.35" transform="matrix(0.0117, 0.0, 0.0, 0.0117, 33.35, 121.0)" width="257.5" xlink:href="#font_AW_Conqueror_Sans_Light_e0"/>
      <use fill="#422a00" height="139.35" transform="matrix(0.0117, 0.0, 0.0, 0.0117, 39.45, 121.0)" width="257.5" xlink:href="#font_AW_Conqueror_Sans_Light_n0"/>
      <use fill="#422a00" height="139.35" transform="matrix(0.0117, 0.0, 0.0, 0.0117, 49.25, 121.0)" width="257.5" xlink:href="#font_AW_Conqueror_Sans_Light_u0"/>
      <use fill="#422a00" height="139.35" transform="matrix(0.0117, 0.0, 0.0, 0.0117, 55.8, 121.0)" width="257.5" xlink:href="#font_AW_Conqueror_Sans_Light_s0"/>
      <use fill="#422a00" height="139.35" transform="matrix(0.0117, 0.0, 0.0, 0.0117, 60.85, 121.0)" width="257.5" xlink:href="#font_AW_Conqueror_Sans_Light_e0"/>
      <use fill="#422a00" height="139.35" transform="matrix(0.0117, 0.0, 0.0, 0.0117, 69.95, 121.0)" width="257.5" xlink:href="#font_AW_Conqueror_Sans_Light_i0"/>
      <use fill="#422a00" height="139.35" transform="matrix(0.0117, 0.0, 0.0, 0.0117, 72.85, 121.0)" width="257.5" xlink:href="#font_AW_Conqueror_Sans_Light_t0"/>
      <use fill="#422a00" height="139.35" transform="matrix(0.0117, 0.0, 0.0, 0.0117, 77.2, 121.0)" width="257.5" xlink:href="#font_AW_Conqueror_Sans_Light_s0"/>
      <use fill="#422a00" height="139.35" transform="matrix(0.0117, 0.0, 0.0, 0.0117, 85.25, 121.0)" width="257.5" xlink:href="#font_AW_Conqueror_Sans_Light_w0"/>
      <use fill="#422a00" height="139.35" transform="matrix(0.0117, 0.0, 0.0, 0.0117, 94.45, 121.0)" width="257.5" xlink:href="#font_AW_Conqueror_Sans_Light_h0"/>
      <use fill="#422a00" height="139.35" transform="matrix(0.0117, 0.0, 0.0, 0.0117, 101.1, 121.0)" width="257.5" xlink:href="#font_AW_Conqueror_Sans_Light_e0"/>
      <use fill="#422a00" height="139.35" transform="matrix(0.0117, 0.0, 0.0, 0.0117, 107.2, 121.0)" width="257.5" xlink:href="#font_AW_Conqueror_Sans_Light_e0"/>
      <use fill="#422a00" height="139.35" transform="matrix(0.0117, 0.0, 0.0, 0.0117, 113.25, 121.0)" width="257.5" xlink:href="#font_AW_Conqueror_Sans_Light_l0"/>
      <use fill="#422a00" height="139.35" transform="matrix(0.0117, 0.0, 0.0, 0.0117, 116.15, 121.0)" width="257.5" xlink:href="#font_AW_Conqueror_Sans_Light_e0"/>
      <use fill="#422a00" height="139.35" transform="matrix(0.0117, 0.0, 0.0, 0.0117, 122.25, 121.0)" width="257.5" xlink:href="#font_AW_Conqueror_Sans_Light_d0"/>
      <use fill="#422a00" height="139.35" transform="matrix(0.0117, 0.0, 0.0, 0.0117, 131.7, 121.0)" width="257.5" xlink:href="#font_AW_Conqueror_Sans_Light_l0"/>
      <use fill="#422a00" height="139.35" transform="matrix(0.0117, 0.0, 0.0, 0.0117, 134.6, 121.0)" width="257.5" xlink:href="#font_AW_Conqueror_Sans_Light_e0"/>
      <use fill="#422a00" height="139.35" transform="matrix(0.0117, 0.0, 0.0, 0.0117, 140.7, 121.0)" width="257.5" xlink:href="#font_AW_Conqueror_Sans_Light_g0"/>
      <use fill="#422a00" height="139.35" transform="matrix(0.0117, 0.0, 0.0, 0.0117, 147.15, 121.0)" width="257.5" xlink:href="#font_AW_Conqueror_Sans_Light_s0"/>
      <use fill="#422a00" height="139.35" transform="matrix(0.0117, 0.0, 0.0, 0.0117, 155.2, 121.0)" width="257.5" xlink:href="#font_AW_Conqueror_Sans_Light_t0"/>
      <use fill="#422a00" height="139.35" transform="matrix(0.0117, 0.0, 0.0, 0.0117, 159.55, 121.0)" width="257.5" xlink:href="#font_AW_Conqueror_Sans_Light_o0"/>
      <use fill="#422a00" height="139.35" transform="matrix(0.0117, 0.0, 0.0, 0.0117, 168.8, 121.0)" width="257.5" xlink:href="#font_AW_Conqueror_Sans_Light_e0"/>
      <use fill="#422a00" height="139.35" transform="matrix(0.0117, 0.0, 0.0, 0.0117, 174.9, 121.0)" width="257.5" xlink:href="#font_AW_Conqueror_Sans_Light_s0"/>
      <use fill="#422a00" height="139.35" transform="matrix(0.0117, 0.0, 0.0, 0.0117, 179.9, 121.0)" width="257.5" xlink:href="#font_AW_Conqueror_Sans_Light_c0"/>
      <use fill="#422a00" height="139.35" transform="matrix(0.0117, 0.0, 0.0, 0.0117, 185.65, 121.0)" width="257.5" xlink:href="#font_AW_Conqueror_Sans_Light_a0"/>
      <use fill="#422a00" height="139.35" transform="matrix(0.0117, 0.0, 0.0, 0.0117, 191.75, 121.0)" width="257.5" xlink:href="#font_AW_Conqueror_Sans_Light_p0"/>
      <use fill="#422a00" height="139.35" transform="matrix(0.0117, 0.0, 0.0, 0.0117, 198.25, 121.0)" width="257.5" xlink:href="#font_AW_Conqueror_Sans_Light_e0"/>
      <use fill="#422a00" height="139.35" transform="matrix(0.0117, 0.0, 0.0, 0.0117, 207.35, 121.0)" width="257.5" xlink:href="#font_AW_Conqueror_Sans_Light_t0"/>
      <use fill="#422a00" height="139.35" transform="matrix(0.0117, 0.0, 0.0, 0.0117, 211.7, 121.0)" width="257.5" xlink:href="#font_AW_Conqueror_Sans_Light_h0"/>
      <use fill="#422a00" height="139.35" transform="matrix(0.0117, 0.0, 0.0, 0.0117, 218.35, 121.0)" width="257.5" xlink:href="#font_AW_Conqueror_Sans_Light_e0"/>
    </g>
    <g transform="matrix(1.0, 0.0, 0.0, 1.0, 0.0, 0.0)">
      <use fill="#422a00" height="139.35" transform="matrix(0.0117, 0.0, 0.0, 0.0117, 0.0, 136.0)" width="257.5" xlink:href="#font_AW_Conqueror_Sans_Light_e0"/>
      <use fill="#422a00" height="139.35" transform="matrix(0.0117, 0.0, 0.0, 0.0117, 6.1, 136.0)" width="257.5" xlink:href="#font_AW_Conqueror_Sans_Light_n0"/>
      <use fill="#422a00" height="139.35" transform="matrix(0.0117, 0.0, 0.0, 0.0117, 12.9, 136.0)" width="257.5" xlink:href="#font_AW_Conqueror_Sans_Light_e0"/>
      <use fill="#422a00" height="139.35" transform="matrix(0.0117, 0.0, 0.0, 0.0117, 19.0, 136.0)" width="257.5" xlink:href="#font_AW_Conqueror_Sans_Light_m0"/>
      <use fill="#422a00" height="139.35" transform="matrix(0.0117, 0.0, 0.0, 0.0117, 29.3, 136.0)" width="257.5" xlink:href="#font_AW_Conqueror_Sans_Light_y0"/>
      <use fill="#422a00" height="139.35" transform="matrix(0.0117, 0.0, 0.0, 0.0117, 34.85, 136.0)" width="257.5" xlink:href="#font_AW_Conqueror_Sans_Light__4"/>
      <use fill="#422a00" height="139.35" transform="matrix(0.0117, 0.0, 0.0, 0.0117, 37.85, 136.0)" width="257.5" xlink:href="#font_AW_Conqueror_Sans_Light_s0"/>
      <use fill="#422a00" height="139.35" transform="matrix(0.0117, 0.0, 0.0, 0.0117, 45.85, 136.0)" width="257.5" xlink:href="#font_AW_Conqueror_Sans_Light_r0"/>
      <use fill="#422a00" height="139.35" transform="matrix(0.0117, 0.0, 0.0, 0.0117, 49.9, 136.0)" width="257.5" xlink:href="#font_AW_Conqueror_Sans_Light_e0"/>
      <use fill="#422a00" height="139.35" transform="matrix(0.0117, 0.0, 0.0, 0.0117, 55.95, 136.0)" width="257.5" xlink:href="#font_AW_Conqueror_Sans_Light_a0"/>
      <use fill="#422a00" height="139.35" transform="matrix(0.0117, 0.0, 0.0, 0.0117, 62.0, 136.0)" width="257.5" xlink:href="#font_AW_Conqueror_Sans_Light_c0"/>
      <use fill="#422a00" height="139.35" transform="matrix(0.0117, 0.0, 0.0, 0.0117, 67.85, 136.0)" width="257.5" xlink:href="#font_AW_Conqueror_Sans_Light_h0"/>
      <use fill="#422a00" height="139.35" transform="matrix(0.0117, 0.0, 0.0, 0.0117, 74.5, 136.0)" width="257.5" xlink:href="#font_AW_Conqueror_Sans_Light_.0"/>
    </g>
  </g>
  <defs>
    <g id="font_AW_Conqueror_Sans_Light_O0">
      <path d="M711.5 -347.0 L711.5 -347.0 Q711.5 -492.0 629.0 -595.5 546.5 -699.0 384.0 -703.5 221.5 -699.0 139.0 -595.5 56.5 -492.0 56.5 -347.0 56.5 -202.0 139.0 -97.5 221.5 7.0 384.0 11.5 546.5 7.0 629.0 -97.5 711.5 -202.0 711.5 -347.0 L711.5 -347.0 M636.5 -346.0 L636.5 -346.0 Q636.0 -226.5 572.5 -141.0 509.0 -55.5 384.0 -51.5 259.0 -56.0 195.5 -142.0 132.0 -227.5 131.5 -346.0 132.0 -465.5 195.5 -551.0 259.0 -636.5 384.0 -640.5 509.0 -636.0 572.5 -550.0 636.0 -464.5 636.5 -346.0 L636.5 -346.0" fill-rule="evenodd" stroke="none"/>
    </g>
    <g id="font_AW_Conqueror_Sans_Light_f0">
      <path d="M112.5 -501.5 L112.5 -501.5 112.5 -459.5 29.5 -459.5 29.5 -404.5 112.5 -404.5 112.5 0.0 179.5 0.0 179.5 -404.5 318.0 -404.5 318.0 -459.5 179.5 -459.5 179.5 -499.0 Q181.0 -644.5 300.5 -648.0 332.0 -647.5 358.0 -636.5 L375.0 -693.0 Q341.5 -704.5 307.5 -704.0 206.5 -701.0 159.0 -641.0 112.0 -581.0 112.5 -501.5 L112.5 -501.5" fill-rule="evenodd" stroke="none"/>
    </g>
    <g id="font_AW_Conqueror_Sans_Light_i0">
      <path d="M81.0 -659.5 L81.0 -659.5 Q83.5 -618.5 125.5 -616.0 168.0 -618.5 171.0 -659.5 168.0 -701.0 125.5 -704.0 83.5 -701.0 81.0 -659.5 L81.0 -659.5 M159.5 0.0 L159.5 0.0 159.5 -460.0 92.5 -460.0 92.5 0.0 159.5 0.0 159.5 0.0" fill-rule="evenodd" stroke="none"/>
    </g>
    <g id="font_AW_Conqueror_Sans_Light_c0">
      <path d="M449.5 -63.5 L449.5 -63.5 410.0 -105.5 Q352.0 -43.0 271.5 -44.0 187.5 -47.0 149.5 -102.5 111.0 -158.0 112.0 -232.5 111.0 -309.5 148.0 -361.5 185.0 -414.0 268.5 -416.0 351.5 -413.5 400.5 -352.5 L444.5 -396.5 Q383.0 -469.0 266.5 -472.0 157.0 -469.5 101.0 -402.5 44.5 -335.0 44.0 -230.5 43.5 -133.5 97.5 -62.5 151.5 8.5 267.5 12.0 387.0 9.0 449.5 -63.5 L449.5 -63.5" fill-rule="evenodd" stroke="none"/>
    </g>
    <g id="font_AW_Conqueror_Sans_Light_a0">
      <path d="M431.5 -1.5 L431.5 -1.5 431.5 -312.5 Q430.0 -391.5 378.5 -432.0 326.5 -472.0 243.5 -472.0 132.5 -469.5 69.5 -397.5 L114.5 -356.0 Q166.0 -418.0 240.5 -416.0 361.0 -413.5 364.5 -305.0 L364.5 -242.5 Q304.5 -267.0 229.5 -268.0 156.0 -268.5 103.5 -235.0 51.0 -201.5 48.5 -126.0 50.0 -62.0 95.5 -25.5 141.0 11.0 211.0 11.5 309.5 11.5 368.5 -61.5 L368.5 -1.5 431.5 -1.5 431.5 -1.5 M364.5 -119.0 L364.5 -119.0 Q312.5 -43.5 225.5 -43.5 119.5 -47.5 115.5 -127.0 117.5 -178.5 155.0 -198.0 192.5 -217.0 240.5 -216.0 307.0 -215.5 364.5 -191.0 L364.5 -119.0 364.5 -119.0" fill-rule="evenodd" stroke="none"/>
    </g>
    <g id="font_AW_Conqueror_Sans_Light_l0">
      <path d="M159.5 0.0 L159.5 0.0 159.5 -692.0 92.5 -692.0 92.5 0.0 159.5 0.0 159.5 0.0" fill-rule="evenodd" stroke="none"/>
    </g>
    <g id="font_AW_Conqueror_Sans_Light_y0">
      <path d="M271.5 213.0 L271.5 213.0 271.5 13.0 465.0 -460.0 399.5 -460.0 239.5 -61.5 79.5 -460.0 9.0 -460.0 204.5 13.0 204.5 213.0 271.5 213.0 271.5 213.0" fill-rule="evenodd" stroke="none"/>
    </g>
    <g id="font_AW_Conqueror_Sans_Light_t0">
      <path d="M112.5 -178.5 L112.5 -178.5 Q110.5 -104.0 145.0 -47.5 179.5 9.0 276.0 12.0 311.0 11.5 337.5 8.0 L328.0 -48.0 Q312.0 -44.5 290.0 -44.0 224.0 -46.0 201.0 -86.0 178.0 -126.0 179.5 -180.5 L179.5 -404.5 318.0 -404.5 318.0 -459.5 179.5 -459.5 179.5 -624.5 112.5 -624.5 112.5 -459.5 29.5 -459.5 29.5 -404.5 112.5 -404.5 112.5 -178.5 112.5 -178.5" fill-rule="evenodd" stroke="none"/>
    </g>
    <g id="font_AW_Conqueror_Sans_Light_h0">
      <path d="M479.5 0.0 L479.5 0.0 479.5 -310.5 Q477.5 -390.5 429.0 -431.0 380.0 -472.0 308.5 -472.0 202.5 -466.0 159.5 -402.5 L159.5 -692.0 92.5 -692.0 92.5 0.0 159.5 0.0 159.5 -338.0 Q190.5 -408.5 291.5 -416.0 342.5 -416.0 376.5 -386.0 411.0 -355.5 412.5 -297.0 L412.5 0.0 479.5 0.0 479.5 0.0" fill-rule="evenodd" stroke="none"/>
    </g>
    <g id="font_AW_Conqueror_Sans_Light_e0">
      <path d="M400.0 -275.5 L400.0 -275.5 114.0 -275.5 Q120.5 -337.0 154.5 -376.0 188.0 -415.0 258.0 -416.5 328.0 -415.0 364.0 -375.0 400.0 -335.0 400.0 -275.5 L400.0 -275.5 M454.5 -63.0 L454.5 -63.0 413.5 -104.5 Q358.5 -44.0 276.5 -44.0 201.5 -45.0 158.0 -93.0 115.0 -140.5 112.0 -220.5 L472.0 -220.5 Q468.5 -467.5 258.0 -471.5 168.0 -472.0 107.5 -410.5 46.5 -349.5 44.0 -225.5 44.0 -130.0 100.5 -60.5 157.0 8.5 271.0 12.0 390.5 9.0 454.5 -63.0 L454.5 -63.0" fill-rule="evenodd" stroke="none"/>
    </g>
    <g id="font_AW_Conqueror_Sans_Light__1">
      <path d="M159.5 -692.0 L159.5 -692.0 96.5 -692.0 104.5 -440.0 151.5 -440.0 159.5 -692.0 159.5 -692.0 M324.5 -692.0 L324.5 -692.0 260.5 -692.0 269.5 -440.0 316.5 -440.0 324.5 -692.0 324.5 -692.0" fill-rule="evenodd" stroke="none"/>
    </g>
    <g id="font_AW_Conqueror_Sans_Light_S0">
      <path d="M522.5 -550.5 L522.5 -550.5 573.5 -598.5 Q481.5 -708.0 343.0 -703.5 225.0 -701.0 172.0 -647.0 119.0 -592.5 120.0 -518.5 127.0 -404.5 219.5 -366.0 312.0 -327.5 404.5 -295.0 497.0 -263.0 504.0 -168.0 501.5 -58.0 338.5 -51.5 209.0 -55.0 141.5 -149.0 L87.5 -98.5 Q187.0 15.5 336.5 11.5 443.0 11.5 510.5 -38.0 577.5 -87.0 580.0 -181.5 573.0 -297.5 480.5 -339.5 388.0 -381.5 295.5 -413.0 203.0 -444.5 196.0 -530.0 193.5 -633.5 345.0 -640.5 457.5 -639.0 522.5 -550.5 L522.5 -550.5" fill-rule="evenodd" stroke="none"/>
    </g>
    <g id="font_AW_Conqueror_Sans_Light_m0">
      <path d="M807.5 0.0 L807.5 0.0 807.5 -310.5 Q805.5 -390.5 756.5 -431.0 707.5 -472.0 635.5 -472.0 519.5 -468.0 466.5 -386.5 418.5 -472.5 311.5 -472.0 200.0 -465.0 155.5 -400.5 L155.5 -459.0 92.5 -459.0 92.5 0.0 159.5 0.0 159.5 -338.0 Q191.0 -408.5 293.0 -416.0 345.0 -416.0 380.0 -386.0 415.0 -355.5 416.5 -297.0 L416.5 0.0 483.5 0.0 483.5 -303.5 Q483.5 -319.0 481.5 -333.0 519.5 -413.0 617.0 -416.0 669.0 -416.0 704.0 -386.0 739.0 -355.5 740.5 -297.0 L740.5 0.0 807.5 0.0 807.5 0.0" fill-rule="evenodd" stroke="none"/>
    </g>
    <g id="font_AW_Conqueror_Sans_Light_n0">
      <path d="M495.5 0.0 L495.5 0.0 495.5 -310.5 Q493.5 -390.5 442.5 -431.0 392.0 -472.0 317.0 -472.0 202.0 -465.0 155.5 -400.5 L155.5 -459.0 92.5 -459.0 92.5 0.0 159.5 0.0 159.5 -338.0 Q193.0 -408.5 300.5 -416.0 354.5 -416.0 390.5 -386.0 427.0 -355.5 428.5 -297.0 L428.5 0.0 495.5 0.0 495.5 0.0" fill-rule="evenodd" stroke="none"/>
    </g>
    <g id="font_AW_Conqueror_Sans_Light_d0">
      <path d="M115.5 -231.5 L115.5 -231.5 Q116.0 -315.5 161.5 -365.5 206.5 -415.0 290.0 -416.0 343.5 -416.5 392.5 -399.5 L392.5 -58.5 Q345.5 -43.5 299.0 -44.0 214.5 -44.5 165.5 -93.0 116.5 -142.0 115.5 -231.5 L115.5 -231.5 M44.5 -230.5 L44.5 -230.5 Q48.0 -103.0 122.0 -45.0 195.5 13.0 293.0 12.0 379.0 12.5 459.5 -13.0 L459.5 -692.0 392.5 -692.0 392.5 -458.0 Q339.5 -471.5 287.0 -472.0 186.0 -471.0 116.5 -408.5 47.5 -346.0 44.5 -230.5 L44.5 -230.5" fill-rule="evenodd" stroke="none"/>
    </g>
    <g id="font_AW_Conqueror_Sans_Light_r0">
      <path d="M342.0 -397.0 L342.0 -397.0 358.5 -461.0 Q328.0 -471.0 296.0 -471.5 194.5 -464.5 145.0 -386.0 L145.0 -458.0 84.5 -458.0 84.5 0.0 151.5 0.0 151.5 -325.0 Q201.0 -403.5 287.0 -408.5 316.0 -408.0 342.0 -397.0 L342.0 -397.0" fill-rule="evenodd" stroke="none"/>
    </g>
    <g id="font_AW_Conqueror_Sans_Light__2">
      <path d="M63.0 0.0 L63.0 0.0 339.5 -692.0 281.0 -692.0 4.5 0.0 63.0 0.0 63.0 0.0" fill-rule="evenodd" stroke="none"/>
    </g>
    <g id="font_AW_Conqueror_Sans_Light_00">
      <path d="M543.5 -254.5 L543.5 -254.5 Q543.5 -362.5 480.0 -439.5 417.0 -516.5 296.0 -520.0 175.0 -516.5 112.0 -439.5 48.5 -362.5 48.5 -254.5 48.5 -146.5 112.0 -69.0 175.0 8.5 296.0 12.0 417.0 8.5 480.0 -69.0 543.5 -146.5 543.5 -254.5 L543.5 -254.5 M468.5 -253.5 L468.5 -253.5 Q469.0 -172.5 427.5 -110.0 386.0 -47.5 296.0 -44.0 205.5 -47.5 164.5 -110.5 123.0 -173.5 123.5 -253.5 123.0 -335.0 164.5 -398.0 205.5 -460.5 296.0 -464.0 386.0 -460.5 427.5 -397.5 469.0 -334.5 468.5 -253.5 L468.5 -253.5" fill-rule="evenodd" stroke="none"/>
    </g>
    <g id="font_AW_Conqueror_Sans_Light_90">
      <path d="M143.5 -294.5 L143.5 -294.5 Q146.5 -460.0 297.5 -464.5 384.0 -461.5 424.5 -396.5 464.5 -332.0 464.0 -239.5 L464.0 -219.0 Q409.0 -135.5 299.5 -132.0 219.0 -133.0 181.0 -177.5 143.5 -222.0 143.5 -294.5 L143.5 -294.5 M299.5 -519.5 L299.5 -519.5 Q195.0 -518.0 132.5 -454.5 70.0 -390.5 68.5 -285.5 69.5 -190.0 128.0 -133.5 186.0 -77.5 284.5 -76.0 394.5 -77.5 463.0 -150.5 462.0 -23.5 418.5 57.0 375.5 137.5 272.0 140.0 182.0 136.0 126.5 72.0 L76.0 116.5 Q156.0 196.0 266.0 196.0 432.5 188.0 486.5 66.0 540.5 -56.0 536.0 -197.5 538.0 -329.0 484.5 -422.0 431.0 -515.5 299.5 -519.5 L299.5 -519.5" fill-rule="evenodd" stroke="none"/>
    </g>
    <g id="font_AW_Conqueror_Sans_Light__3">
      <path d="M92.0 156.0 L92.0 156.0 164.0 -96.0 97.5 -96.0 40.0 156.0 92.0 156.0 92.0 156.0" fill-rule="evenodd" stroke="none"/>
    </g>
    <g id="font_AW_Conqueror_Sans_Light_b0">
      <path d="M436.5 -229.5 L436.5 -229.5 Q436.0 -145.5 390.5 -95.0 345.5 -45.0 262.0 -44.0 208.5 -43.0 159.5 -59.5 L159.5 -400.5 Q206.5 -416.0 253.0 -416.0 337.5 -415.5 386.5 -367.5 435.5 -319.0 436.5 -229.5 L436.5 -229.5 M159.5 -692.0 L159.5 -692.0 92.5 -692.0 92.5 -13.0 Q177.0 11.5 256.0 12.0 373.5 10.0 440.0 -56.0 506.5 -122.5 507.5 -230.5 504.0 -358.0 430.0 -415.5 356.5 -473.0 259.0 -472.0 208.0 -471.5 159.5 -459.0 L159.5 -692.0 159.5 -692.0" fill-rule="evenodd" stroke="none"/>
    </g>
    <g id="font_AW_Conqueror_Sans_Light_o0">
      <path d="M487.5 -228.5 L487.5 -228.5 Q487.5 -330.5 432.0 -400.0 376.5 -469.0 266.0 -471.5 155.5 -469.0 100.0 -401.5 44.5 -333.5 44.5 -231.5 44.5 -129.5 100.0 -60.0 155.5 9.0 266.0 11.5 376.5 9.0 432.0 -58.5 487.5 -126.5 487.5 -228.5 L487.5 -228.5 M416.5 -229.5 L416.5 -229.5 Q417.0 -147.5 381.5 -96.0 346.0 -45.0 266.0 -43.5 186.0 -45.5 150.5 -97.5 115.0 -149.5 115.5 -230.5 115.0 -312.5 150.5 -364.0 186.0 -415.0 266.0 -416.5 346.0 -414.5 381.5 -362.5 417.0 -310.5 416.5 -229.5 L416.5 -229.5" fill-rule="evenodd" stroke="none"/>
    </g>
    <g id="font_AW_Conqueror_Sans_Light_s0">
      <path d="M337.0 -354.5 L337.0 -354.5 381.5 -396.0 Q315.0 -476.0 220.5 -471.5 150.5 -471.0 108.0 -438.0 65.0 -404.5 64.0 -343.0 68.5 -262.0 130.5 -236.5 192.0 -211.0 254.0 -192.5 315.5 -174.0 320.5 -113.5 321.0 -49.5 217.5 -43.5 135.5 -45.0 87.0 -108.5 L40.5 -67.0 Q111.5 14.5 214.5 11.5 286.0 11.0 334.0 -23.5 381.5 -58.5 383.5 -123.0 379.0 -205.5 317.5 -232.5 256.0 -260.0 194.5 -278.0 132.5 -296.0 128.0 -350.5 124.0 -411.5 217.5 -416.5 291.5 -416.5 337.0 -354.5 L337.0 -354.5" fill-rule="evenodd" stroke="none"/>
    </g>
    <g id="font_AW_Conqueror_Sans_Light_u0">
      <path d="M279.5 12.0 L279.5 12.0 Q374.5 11.0 424.5 -34.5 475.0 -79.5 475.5 -153.5 L475.5 -460.0 408.5 -460.0 408.5 -159.5 Q407.0 -103.5 371.5 -74.0 336.0 -44.0 279.5 -44.0 226.0 -44.5 189.5 -75.5 153.0 -107.0 151.5 -162.5 L151.5 -460.0 84.5 -460.0 84.5 -153.5 Q85.0 -80.0 135.5 -34.5 186.0 10.5 279.5 12.0 L279.5 12.0" fill-rule="evenodd" stroke="none"/>
    </g>
    <g id="font_AW_Conqueror_Sans_Light_p0">
      <path d="M436.5 -228.5 L436.5 -228.5 Q436.0 -144.5 390.5 -94.5 345.5 -45.0 262.0 -44.0 208.5 -43.0 159.5 -59.5 L159.5 -400.5 Q206.5 -416.0 253.0 -416.0 337.5 -415.5 386.5 -367.0 435.5 -318.0 436.5 -228.5 L436.5 -228.5 M507.5 -229.5 L507.5 -229.5 Q504.0 -357.0 430.0 -415.0 356.5 -473.0 259.0 -472.0 173.0 -471.5 92.5 -446.0 L92.5 211.5 159.5 211.5 159.5 -1.0 Q212.5 12.5 265.0 12.0 366.0 11.0 435.5 -51.5 504.5 -114.0 507.5 -229.5 L507.5 -229.5" fill-rule="evenodd" stroke="none"/>
    </g>
    <g id="font_AW_Conqueror_Sans_Light_g0">
      <path d="M115.5 -238.5 L115.5 -238.5 Q116.0 -319.5 161.5 -367.5 206.5 -415.0 290.0 -416.0 343.5 -415.5 392.5 -399.5 L392.5 -74.5 Q345.5 -59.5 299.0 -60.0 214.5 -60.5 165.5 -106.5 116.5 -152.5 115.5 -238.5 L115.5 -238.5 M459.5 -446.0 L459.5 -446.0 Q375.0 -470.0 296.0 -472.0 178.5 -470.0 112.0 -406.0 45.5 -341.5 44.5 -237.5 48.0 -115.0 122.0 -59.0 195.5 -3.0 293.0 -4.0 344.0 -4.0 392.5 -16.0 L392.5 25.0 Q392.0 159.5 248.5 156.0 161.0 154.5 106.0 94.0 L63.0 136.5 Q129.5 209.0 246.5 212.0 341.0 213.0 399.5 167.0 458.0 120.5 459.5 12.5 L459.5 -446.0 459.5 -446.0" fill-rule="evenodd" stroke="none"/>
    </g>
    <g id="font_AW_Conqueror_Sans_Light_-0">
      <path d="M236.0 -208.5 L236.0 -208.5 236.0 -271.5 20.0 -271.5 20.0 -208.5 236.0 -208.5 236.0 -208.5" fill-rule="evenodd" stroke="none"/>
    </g>
    <g id="font_AW_Conqueror_Sans_Light_k0">
      <path d="M159.5 0.0 L159.5 0.0 159.5 -692.0 92.5 -692.0 92.5 0.0 159.5 0.0 159.5 0.0 M484.0 0.0 L484.0 0.0 259.0 -238.5 485.5 -460.0 399.0 -460.0 178.0 -237.5 395.0 0.0 484.0 0.0 484.0 0.0" fill-rule="evenodd" stroke="none"/>
    </g>
    <g id="font_AW_Conqueror_Sans_Light_.0">
      <path d="M76.5 -49.5 L76.5 -49.5 Q79.5 -3.5 125.5 -0.5 172.0 -3.5 175.5 -49.5 172.0 -96.0 125.5 -99.5 79.5 -96.0 76.5 -49.5 L76.5 -49.5" fill-rule="evenodd" stroke="none"/>
    </g>
    <g id="font_AW_Conqueror_Sans_Light_B0">
      <path d="M544.5 -197.0 L544.5 -197.0 Q545.0 -62.0 370.0 -64.0 L195.5 -64.0 195.5 -328.5 365.0 -328.5 Q447.0 -328.5 495.0 -295.5 543.5 -263.0 544.5 -197.0 L544.5 -197.0 M504.5 -508.5 L504.5 -508.5 Q497.0 -393.0 371.0 -391.5 L195.5 -391.5 195.5 -628.0 372.0 -628.0 Q499.5 -623.5 504.5 -508.5 L504.5 -508.5 M619.5 -194.0 L619.5 -194.0 Q618.0 -268.0 576.0 -310.5 534.5 -353.0 472.5 -365.0 572.0 -406.0 579.5 -512.5 576.0 -605.0 516.5 -648.5 456.5 -692.5 382.0 -692.0 L120.5 -692.0 120.5 0.0 377.0 0.0 Q477.0 0.5 547.0 -46.5 616.5 -93.0 619.5 -194.0 L619.5 -194.0" fill-rule="evenodd" stroke="none"/>
    </g>
    <g id="font_AW_Conqueror_Sans_Light_q0">
      <path d="M115.5 -231.5 L115.5 -231.5 Q116.0 -315.5 161.5 -365.5 206.5 -415.0 290.0 -416.0 343.5 -416.5 392.5 -399.5 L392.5 -58.5 Q345.5 -43.5 299.0 -44.0 214.5 -44.5 165.5 -93.0 116.5 -142.0 115.5 -231.5 L115.5 -231.5 M392.5 211.5 L392.5 211.5 459.5 211.5 459.5 -446.0 Q375.0 -471.0 296.0 -472.0 178.5 -470.0 112.0 -404.5 45.5 -338.5 44.5 -230.5 48.0 -103.0 122.0 -45.0 195.5 13.0 293.0 12.0 344.0 12.0 392.5 0.0 L392.5 211.5 392.5 211.5" fill-rule="evenodd" stroke="none"/>
    </g>
    <g id="font_AW_Conqueror_Sans_Light_w0">
      <path d="M756.0 -460.0 L756.0 -460.0 691.5 -460.0 563.0 -75.5 425.0 -460.0 364.5 -460.0 227.0 -74.5 97.5 -460.0 28.0 -460.0 191.0 8.0 253.5 8.0 393.0 -371.5 530.5 8.0 593.0 8.0 756.0 -460.0 756.0 -460.0" fill-rule="evenodd" stroke="none"/>
    </g>
    <g id="font_AW_Conqueror_Sans_Light_R0">
      <path d="M636.0 0.0 L636.0 0.0 423.0 -298.5 Q491.5 -309.5 538.5 -358.5 585.5 -407.5 587.5 -493.5 585.0 -588.0 523.5 -639.5 462.0 -691.5 371.0 -692.0 L120.5 -692.0 120.5 0.0 195.5 0.0 195.5 -288.0 344.5 -288.0 543.0 0.0 636.0 0.0 636.0 0.0 M512.5 -492.5 L512.5 -492.5 Q511.0 -420.5 469.0 -386.0 427.5 -351.5 360.5 -352.0 L195.5 -352.0 195.5 -628.0 368.0 -628.0 Q430.0 -627.5 470.5 -592.0 511.0 -556.0 512.5 -492.5 L512.5 -492.5" fill-rule="evenodd" stroke="none"/>
    </g>
    <g id="font_AW_Conqueror_Sans_Light_v0">
      <path d="M463.5 -460.0 L463.5 -460.0 398.0 -460.0 238.5 -65.0 79.5 -460.0 8.5 -460.0 202.5 8.0 270.5 8.0 463.5 -460.0 463.5 -460.0" fill-rule="evenodd" stroke="none"/>
    </g>
    <g id="font_AW_Conqueror_Sans_Light_C0">
      <path d="M56.5 -345.0 L56.5 -345.0 Q56.0 -203.5 132.5 -98.5 209.0 6.5 368.0 11.5 532.5 7.0 617.0 -102.0 L563.5 -149.0 Q483.0 -49.0 370.0 -51.5 247.0 -56.5 189.0 -144.0 131.0 -231.5 131.5 -346.0 131.0 -460.5 189.0 -548.0 247.0 -635.5 370.0 -640.5 483.0 -643.0 563.5 -543.0 L617.0 -590.0 Q532.5 -699.0 368.0 -703.5 209.0 -698.5 132.5 -593.5 56.0 -488.0 56.5 -345.0 L56.5 -345.0" fill-rule="evenodd" stroke="none"/>
    </g>
    <g id="font_AW_Conqueror_Sans_Light_L0">
      <path d="M559.0 0.0 L559.0 0.0 559.0 -64.0 195.5 -64.0 195.5 -692.0 120.5 -692.0 120.5 0.0 559.0 0.0 559.0 0.0" fill-rule="evenodd" stroke="none"/>
    </g>
    <g id="font_AW_Conqueror_Sans_Light_I0">
      <path d="M195.5 0.0 L195.5 0.0 195.5 -692.0 120.5 -692.0 120.5 0.0 195.5 0.0 195.5 0.0" fill-rule="evenodd" stroke="none"/>
    </g>
    <g id="font_AW_Conqueror_Sans_Light__4">
      <path d="M159.5 -692.0 L159.5 -692.0 96.5 -692.0 104.5 -441.0 151.5 -441.0 159.5 -692.0 159.5 -692.0" fill-rule="evenodd" stroke="none"/>
    </g>
  </defs>
</svg>
