<?xml version="1.0" encoding="UTF-8" standalone="no"?>
<svg xmlns:ffdec="https://www.free-decompiler.com/flash" xmlns:xlink="http://www.w3.org/1999/xlink" ffdec:objectType="text" height="27.35px" width="115.2px" xmlns="http://www.w3.org/2000/svg">
  <g transform="matrix(1.0, 0.0, 0.0, 1.0, -242.25, -0.65)">
    <g transform="matrix(1.0, 0.0, 0.0, 1.0, 242.3, 0.0)">
      <use fill="#ffffff" height="27.35" transform="matrix(0.0352, 0.0, 0.0, 0.0352, 0.0, 27.0)" width="115.2" xlink:href="#font_Myriad_Pro_T0"/>
      <use fill="#ffffff" height="27.35" transform="matrix(0.0352, 0.0, 0.0, 0.0352, 17.9, 27.0)" width="115.2" xlink:href="#font_Myriad_Pro_I0"/>
      <use fill="#ffffff" height="27.35" transform="matrix(0.0352, 0.0, 0.0, 0.0352, 26.5, 27.0)" width="115.2" xlink:href="#font_Myriad_Pro_A0"/>
      <use fill="#ffffff" height="27.35" transform="matrix(0.0352, 0.0, 0.0, 0.0352, 48.4, 27.0)" width="115.2" xlink:href="#font_Myriad_Pro_M0"/>
      <use fill="#ffffff" height="27.35" transform="matrix(0.0352, 0.0, 0.0, 0.0352, 76.95, 27.0)" width="115.2" xlink:href="#font_Myriad_Pro_A0"/>
      <use fill="#ffffff" height="27.35" transform="matrix(0.0352, 0.0, 0.0, 0.0352, 96.2, 27.0)" width="115.2" xlink:href="#font_Myriad_Pro_T0"/>
    </g>
  </g>
  <defs>
    <g id="font_Myriad_Pro_T0">
      <path d="M208.0 0.0 L208.0 0.0 300.0 0.0 300.0 -616.0 511.0 -616.0 511.0 -692.0 -2.0 -692.0 -2.0 -616.0 208.0 -616.0 208.0 0.0 208.0 0.0" fill-rule="evenodd" stroke="none"/>
    </g>
    <g id="font_Myriad_Pro_I0">
      <path d="M76.0 -692.0 L76.0 -692.0 76.0 0.0 168.0 0.0 168.0 -692.0 76.0 -692.0 76.0 -692.0" fill-rule="evenodd" stroke="none"/>
    </g>
    <g id="font_Myriad_Pro_A0">
      <path d="M207.0 -287.5 L207.0 -287.5 275.0 -488.0 Q295.5 -551.0 310.0 -612.0 L312.0 -612.0 Q326.0 -553.0 348.0 -486.0 L416.5 -287.5 207.0 -287.5 207.0 -287.5 M434.0 -216.5 L434.0 -216.5 508.0 0.0 603.5 0.0 367.5 -692.0 260.5 -692.0 24.5 0.0 117.0 0.0 188.5 -216.5 434.0 -216.5 434.0 -216.5" fill-rule="evenodd" stroke="none"/>
    </g>
    <g id="font_Myriad_Pro_M0">
      <path d="M675.0 0.0 L675.0 0.0 763.5 0.0 720.5 -691.5 606.5 -691.5 483.0 -356.0 Q436.5 -227.0 409.0 -124.0 L407.0 -124.0 Q379.5 -230.0 337.0 -356.0 L219.0 -691.5 104.5 -691.5 56.5 0.0 141.5 0.0 160.0 -295.5 Q165.0 -375.0 168.5 -455.0 172.0 -534.5 173.5 -600.5 L175.5 -600.5 Q205.0 -478.5 255.0 -332.5 L368.0 -4.0 435.5 -4.0 558.0 -338.5 Q609.5 -481.0 645.5 -600.5 L647.5 -600.5 Q647.5 -535.0 651.0 -456.0 654.5 -376.5 659.0 -302.5 L675.0 0.0 675.0 0.0" fill-rule="evenodd" stroke="none"/>
    </g>
  </defs>
</svg>
