<?xml version="1.0" encoding="UTF-8" standalone="no"?>
<svg xmlns:ffdec="https://www.free-decompiler.com/flash" xmlns:xlink="http://www.w3.org/1999/xlink" ffdec:objectType="text" height="25.55px" width="126.85px" xmlns="http://www.w3.org/2000/svg">
  <g transform="matrix(1.0, 0.0, 0.0, 1.0, -6.8, -6.75)">
    <g transform="matrix(1.0, 0.0, 0.0, 1.0, 0.0, 0.0)">
      <use fill="#004080" height="25.55" transform="matrix(0.0254, 0.0, 0.0, 0.0254, 5.0, 31.0)" width="126.85" xlink:href="#font_Bebas_M0"/>
      <use fill="#004080" height="25.55" transform="matrix(0.0254, 0.0, 0.0, 0.0254, 24.6, 31.0)" width="126.85" xlink:href="#font_Bebas_U0"/>
    </g>
    <g transform="matrix(1.0, 0.0, 0.0, 1.0, 0.0, 0.0)">
      <use fill="#004080" height="25.55" transform="matrix(0.0254, 0.0, 0.0, 0.0254, 39.05, 31.0)" width="126.85" xlink:href="#font_Bebas_L0"/>
    </g>
    <g transform="matrix(1.0, 0.0, 0.0, 1.0, 0.0, 0.0)">
      <use fill="#004080" height="25.55" transform="matrix(0.0254, 0.0, 0.0, 0.0254, 46.6, 31.0)" width="126.85" xlink:href="#font_Bebas_T0"/>
      <use fill="#004080" height="25.55" transform="matrix(0.0254, 0.0, 0.0, 0.0254, 59.9, 31.0)" width="126.85" xlink:href="#font_Bebas_I0"/>
    </g>
    <g transform="matrix(1.0, 0.0, 0.0, 1.0, 0.0, 0.0)">
      <use fill="#004080" height="25.55" transform="matrix(0.0254, 0.0, 0.0, 0.0254, 65.8, 31.0)" width="126.85" xlink:href="#font_Bebas_M0"/>
    </g>
    <g transform="matrix(1.0, 0.0, 0.0, 1.0, 0.0, 0.0)">
      <use fill="#004080" height="25.55" transform="matrix(0.0254, 0.0, 0.0, 0.0254, 85.4, 31.0)" width="126.85" xlink:href="#font_Bebas_E0"/>
    </g>
    <g transform="matrix(1.0, 0.0, 0.0, 1.0, 0.0, 0.0)">
      <use fill="#004080" height="25.55" transform="matrix(0.0254, 0.0, 0.0, 0.0254, 97.75, 31.0)" width="126.85" xlink:href="#font_Bebas_D0"/>
    </g>
    <g transform="matrix(1.0, 0.0, 0.0, 1.0, 0.0, 0.0)">
      <use fill="#004080" height="25.55" transform="matrix(0.0254, 0.0, 0.0, 0.0254, 112.1, 31.0)" width="126.85" xlink:href="#font_Bebas_I0"/>
      <use fill="#004080" height="25.55" transform="matrix(0.0254, 0.0, 0.0, 0.0254, 118.0, 31.0)" width="126.85" xlink:href="#font_Bebas_A0"/>
    </g>
  </g>
  <defs>
    <g id="font_Bebas_M0">
      <path d="M202.5 -571.5 L202.5 -571.5 349.5 4.0 472.0 4.0 603.0 -573.0 603.0 4.0 752.5 4.0 752.5 -916.0 545.5 -916.0 410.5 -259.0 269.5 -916.0 53.0 -916.0 53.0 4.0 202.5 4.0 202.5 -571.5" fill-rule="evenodd" stroke="none"/>
    </g>
    <g id="font_Bebas_U0">
      <path d="M292.0 12.0 L292.0 12.0 Q391.5 12.0 462.0 -50.5 532.5 -113.5 532.5 -205.5 L532.5 -912.0 374.0 -912.0 374.0 -206.5 Q374.0 -174.0 349.0 -151.0 324.0 -128.0 288.5 -128.0 253.0 -128.0 227.5 -151.0 202.5 -174.0 202.5 -206.5 L202.5 -912.0 53.0 -912.0 53.0 -205.5 Q53.0 -115.0 122.5 -51.5 192.0 12.0 292.0 12.0" fill-rule="evenodd" stroke="none"/>
    </g>
    <g id="font_Bebas_L0">
      <path d="M465.0 -136.0 L465.0 -136.0 202.5 -136.0 202.5 -912.0 53.0 -912.0 53.0 4.0 465.0 4.0 465.0 -136.0" fill-rule="evenodd" stroke="none"/>
    </g>
    <g id="font_Bebas_T0">
      <path d="M215.5 4.0 L215.5 4.0 365.0 4.0 365.0 -772.0 523.5 -772.0 523.5 -912.0 53.0 -912.0 53.0 -772.0 215.5 -772.0 215.5 4.0" fill-rule="evenodd" stroke="none"/>
    </g>
    <g id="font_Bebas_I0">
      <path d="M202.5 -912.0 L202.5 -912.0 53.0 -912.0 53.0 4.0 202.5 4.0 202.5 -912.0" fill-rule="evenodd" stroke="none"/>
    </g>
    <g id="font_Bebas_E0">
      <path d="M483.0 4.0 L483.0 4.0 483.0 -136.0 202.5 -136.0 202.5 -388.0 409.0 -388.0 409.0 -528.0 202.5 -528.0 202.5 -776.0 483.0 -776.0 483.0 -916.0 53.0 -916.0 53.0 4.0 483.0 4.0" fill-rule="evenodd" stroke="none"/>
    </g>
    <g id="font_Bebas_D0">
      <path d="M202.5 -776.0 L202.5 -776.0 293.0 -776.0 Q328.0 -776.0 353.5 -752.5 378.5 -729.0 378.5 -696.0 L378.5 -216.0 Q378.5 -183.5 353.5 -160.0 329.0 -136.0 293.0 -136.0 L202.5 -136.0 202.5 -776.0 M528.0 -696.5 L528.0 -696.5 Q528.0 -787.0 459.0 -851.5 389.5 -916.0 290.5 -916.0 L53.0 -916.0 53.0 4.0 290.5 4.0 Q389.0 4.0 458.5 -60.5 528.0 -125.0 528.0 -216.0 L528.0 -696.5" fill-rule="evenodd" stroke="none"/>
    </g>
    <g id="font_Bebas_A0">
      <path d="M382.5 -340.0 L382.5 -340.0 270.5 -340.0 326.5 -702.5 382.5 -340.0 M404.0 -208.0 L404.0 -208.0 438.5 4.0 599.0 4.0 431.0 -912.0 223.0 -912.0 53.0 4.0 209.0 4.0 244.0 -208.0 404.0 -208.0" fill-rule="evenodd" stroke="none"/>
    </g>
  </defs>
</svg>
