<?xml version="1.0" encoding="UTF-8" standalone="no"?>
<svg xmlns:ffdec="https://www.free-decompiler.com/flash" xmlns:xlink="http://www.w3.org/1999/xlink" ffdec:objectType="shape" height="298.8px" width="398.45px" xmlns="http://www.w3.org/2000/svg">
  <g transform="matrix(1.0, 0.0, 0.0, 1.0, 20.45, 42.3)">
    <path d="M369.65 159.55 L369.65 256.5 170.85 256.5 170.85 -42.3 369.65 -42.3 369.65 54.5 275.2 52.45 275.0 57.3 270.25 57.3 270.25 156.7 275.0 156.7 275.2 161.4 369.65 159.55" fill="#d6d6d6" fill-rule="evenodd" stroke="none"/>
    <path d="M369.65 159.55 L275.2 161.4 275.2 52.45 369.65 54.5 378.0 54.7 378.0 159.3 369.65 159.55" fill="#e5e5e5" fill-rule="evenodd" stroke="none"/>
    <path d="M275.2 161.4 L275.0 156.7 275.0 57.3 275.2 52.45 275.2 161.4" fill="#000000" fill-rule="evenodd" stroke="none"/>
    <path d="M-12.1 54.5 L-20.45 54.7 -20.45 159.3 -12.1 159.55 82.3 161.4 82.3 52.5 -12.1 54.5" fill="#e5e5e5" fill-rule="evenodd" stroke="none"/>
    <path d="M-12.1 54.5 L82.3 52.5 82.55 57.3 87.3 57.3 87.3 156.7 82.55 156.7 82.3 161.4 -12.1 159.55 -12.1 256.5 186.7 256.5 186.7 -42.3 -12.1 -42.3 -12.1 54.5" fill="#d6d6d6" fill-rule="evenodd" stroke="none"/>
    <path d="M82.3 52.5 L82.3 161.4 82.55 156.7 82.55 57.3 82.3 52.5" fill="#000000" fill-rule="evenodd" stroke="none"/>
  </g>
</svg>
