<?xml version="1.0" encoding="UTF-8" standalone="no"?>
<svg xmlns:ffdec="https://www.free-decompiler.com/flash" xmlns:xlink="http://www.w3.org/1999/xlink" ffdec:objectType="shape" height="84.05px" width="494.4px" xmlns="http://www.w3.org/2000/svg">
  <g transform="matrix(1.0, 0.0, 0.0, 1.0, -52.1, -342.5)">
    <path d="M342.25 366.4 Q346.25 366.4 349.3 367.8 352.45 369.2 354.5 371.75 356.6 374.3 357.75 377.65 358.85 381.05 358.95 384.9 L359.45 419.3 340.15 420.9 340.65 388.2 Q340.65 386.5 339.45 385.45 338.25 384.35 336.2 384.35 334.15 384.35 332.95 385.7 331.7 387.05 331.7 388.45 L332.2 419.3 312.55 420.9 312.9 388.4 Q313.0 386.6 311.6 385.5 310.3 384.35 308.15 384.35 306.45 384.35 304.95 385.45 303.45 386.5 303.55 388.45 L304.45 420.9 285.55 419.3 284.45 368.05 302.8 366.4 302.8 374.75 303.0 374.75 Q305.85 370.85 309.5 368.6 313.15 366.4 318.25 366.4 322.45 366.4 325.3 367.75 328.1 369.0 330.4 371.8 332.75 369.4 335.7 367.9 338.65 366.4 342.25 366.4 M361.65 382.55 Q363.8 377.25 367.5 373.55 371.2 369.95 376.1 368.0 381.05 366.05 386.55 366.05 395.55 366.05 402.2 370.6 408.8 375.15 412.05 382.7 L385.15 402.8 Q386.15 403.35 387.75 403.5 L390.75 403.7 Q394.85 403.7 397.7 402.2 400.55 400.75 402.85 398.6 L411.8 413.4 Q406.3 417.4 400.55 419.15 394.8 420.9 387.3 420.9 381.2 420.9 376.1 418.8 371.0 416.7 367.3 413.1 363.65 409.5 361.55 404.75 359.5 399.95 359.5 394.6 359.5 387.85 361.65 382.55 M379.25 394.3 L392.7 384.1 Q391.45 382.65 389.95 382.05 L386.55 381.55 Q384.75 381.55 383.3 382.3 381.8 383.05 380.7 384.35 379.65 385.65 379.05 387.3 378.5 388.9 378.5 390.6 L378.7 392.9 379.25 394.3 M436.85 366.1 Q439.8 366.1 442.6 366.9 445.35 367.65 447.45 369.45 L446.65 348.0 467.35 346.35 467.0 419.7 449.35 420.9 449.35 415.75 449.15 415.75 Q447.0 418.65 443.25 419.95 439.5 421.25 435.75 421.25 431.15 421.25 426.9 419.4 422.6 417.55 419.25 414.1 415.95 410.6 414.0 405.55 412.0 400.5 412.0 394.15 412.0 388.4 413.7 383.3 415.3 378.2 418.45 374.35 421.65 370.55 426.25 368.3 430.9 366.1 436.85 366.1 M430.0 394.15 Q429.9 395.8 430.4 397.25 431.0 398.8 432.1 399.9 433.25 401.05 434.75 401.7 436.3 402.4 438.15 402.45 440.0 402.5 442.05 401.75 444.05 401.05 445.35 399.8 446.75 398.6 447.5 397.15 448.25 395.65 448.35 394.0 448.45 392.4 447.9 390.85 447.35 389.45 446.25 388.25 445.1 387.05 443.55 386.4 442.05 385.75 440.2 385.65 438.4 385.55 436.4 386.25 434.35 387.0 432.95 388.25 431.6 389.55 430.85 391.0 430.05 392.45 430.0 394.15 M472.05 346.6 L492.5 345.65 491.4 361.55 472.0 362.95 472.05 346.6 M523.55 365.35 Q527.95 365.35 532.15 366.35 536.45 367.4 539.6 369.75 542.8 372.1 544.7 375.75 546.6 379.4 546.5 384.8 L545.5 418.65 527.4 420.2 527.4 414.1 527.25 414.1 Q524.8 417.5 521.05 418.85 517.3 420.2 513.0 420.2 509.4 420.2 506.15 418.9 502.95 417.6 500.5 415.2 498.05 412.75 496.6 409.35 495.2 405.9 495.2 401.7 495.2 398.0 496.6 394.95 498.05 391.8 500.55 389.55 503.05 387.25 506.4 385.9 509.75 384.65 513.75 384.65 517.9 384.65 520.7 385.85 523.55 387.05 525.55 388.6 L525.55 385.9 Q525.55 381.75 522.8 380.45 520.15 379.05 515.8 379.05 511.85 379.05 508.45 379.85 L501.5 381.8 505.0 367.6 Q509.3 366.3 514.0 365.85 L523.55 365.35 M492.05 367.7 L491.05 419.65 472.05 421.25 472.05 369.3 492.05 367.7 M118.2 348.35 L140.3 408.85 118.55 426.55 108.75 397.35 96.55 418.7 81.8 396.1 73.05 422.65 52.1 409.15 74.95 342.5 97.0 370.3 118.2 348.35 M191.4 366.4 L190.05 419.8 173.5 420.5 173.5 412.25 173.3 412.25 Q171.55 417.15 167.65 419.2 163.85 421.25 158.7 421.25 151.9 421.25 147.7 417.25 143.45 413.3 143.45 405.65 L143.45 368.05 163.7 366.4 163.15 399.65 Q163.05 401.8 164.05 402.75 165.15 403.7 167.3 403.7 169.1 403.7 170.2 402.8 171.3 401.85 171.25 399.7 L170.7 368.05 191.4 366.4 M225.55 361.75 L245.25 353.05 245.25 367.65 252.75 366.6 251.7 382.95 245.6 382.95 245.6 398.8 Q245.6 401.5 246.35 402.4 247.15 403.35 249.85 403.35 L251.7 403.25 253.1 402.95 249.9 420.65 247.2 420.85 244.35 420.9 Q235.65 420.9 230.75 417.0 225.95 413.1 225.95 404.25 L225.95 382.95 220.8 383.0 221.35 367.65 225.55 367.65 225.55 361.75 M216.9 347.1 L216.1 419.65 197.2 421.25 196.55 348.7 216.9 347.1 M257.15 362.95 L257.2 346.6 277.65 345.65 276.55 361.55 257.15 362.95 M277.2 367.7 L276.2 419.65 257.2 421.25 257.2 369.3 277.2 367.7 M522.7 404.65 Q524.45 402.95 524.1 400.95 523.8 399.25 521.8 398.0 519.75 396.8 516.0 397.45 512.9 397.9 510.95 399.55 508.95 401.2 509.25 403.3 509.6 405.35 511.8 406.4 514.0 407.4 517.55 406.9 521.0 406.35 522.7 404.65" fill="#00ff00" fill-rule="evenodd" stroke="none"/>
  </g>
</svg>
