<?xml version="1.0" encoding="UTF-8" standalone="no"?>
<svg xmlns:ffdec="https://www.free-decompiler.com/flash" xmlns:xlink="http://www.w3.org/1999/xlink" ffdec:objectType="shape" height="46.75px" width="28.2px" xmlns="http://www.w3.org/2000/svg">
  <g transform="matrix(1.0, 0.0, 0.0, 1.0, -4.5, 1.8)">
    <path d="M4.5 -1.1 L10.15 -1.75 Q13.05 -2.05 14.1 0.45 15.15 2.95 15.75 5.7 L16.7 9.25 Q16.85 9.8 17.15 10.2 L17.3 10.4 18.0 10.75 18.6 10.1 Q19.45 9.85 20.3 10.35 25.8 13.25 28.35 19.35 29.45 22.8 29.4 26.65 L29.4 26.7 28.55 27.35 28.9 27.75 Q29.95 29.15 26.5 29.2 L30.8 34.35 30.8 34.4 Q32.9 36.4 32.7 39.4 32.45 41.0 30.3 42.4 29.4 42.95 28.25 43.05 L26.15 43.15 Q24.65 43.25 24.3 44.65 L15.15 44.95 12.15 41.25 9.2 38.85 Q8.75 35.75 11.3 33.6 L13.4 31.85 Q15.3 31.4 10.85 25.6 6.45 19.75 6.3 14.8 6.15 9.8 7.0 8.45 7.9 7.1 8.2 4.45 L8.2 2.05 Q7.9 0.3 4.5 -1.1" fill="#000000" fill-rule="evenodd" stroke="none"/>
  </g>
</svg>
