<?xml version="1.0" encoding="UTF-8" standalone="no"?>
<svg xmlns:ffdec="https://www.free-decompiler.com/flash" xmlns:xlink="http://www.w3.org/1999/xlink" ffdec:objectType="shape" height="44.0px" width="22.45px" xmlns="http://www.w3.org/2000/svg">
  <g transform="matrix(1.0, 0.0, 0.0, 1.0, -0.05, 0.0)">
    <path d="M21.05 9.2 L21.85 9.85 21.45 16.05 22.45 17.2 Q22.8 24.95 20.95 32.3 L19.65 36.2 Q18.15 38.95 17.35 42.0 L14.85 44.0 12.35 44.0 8.35 43.5 1.35 36.5 Q-0.85 32.55 0.65 23.05 L7.9 13.75 9.65 7.55 Q11.9 6.4 13.25 4.7 15.3 2.2 17.75 0.0 L19.25 0.25 19.25 4.5 20.55 4.75 20.1 9.6 21.05 9.2" fill="#000000" fill-rule="evenodd" stroke="none"/>
  </g>
</svg>
