<?xml version="1.0" encoding="UTF-8" standalone="no"?>
<svg xmlns:ffdec="https://www.free-decompiler.com/flash" xmlns:xlink="http://www.w3.org/1999/xlink" ffdec:objectType="shape" height="42.2px" width="38.75px" xmlns="http://www.w3.org/2000/svg">
  <g transform="matrix(1.0, 0.0, 0.0, 1.0, 1.45, -2.7)">
    <path d="M29.8 24.9 L30.25 25.2 Q31.65 26.2 28.4 27.2 L33.95 30.75 34.0 30.8 Q36.55 32.05 37.3 34.95 37.45 36.45 35.8 38.35 L34.1 39.55 32.1 40.25 Q30.7 40.65 30.75 42.05 L22.1 44.9 18.15 42.3 14.65 40.9 Q13.35 38.15 15.15 35.5 L16.6 33.3 Q18.3 32.3 12.4 28.15 6.5 24.0 4.95 19.45 3.3 14.9 3.75 13.35 4.25 11.9 3.7 9.3 L3.0 7.15 Q2.2 5.6 -1.45 5.25 L3.8 3.1 Q6.45 2.0 8.15 4.05 9.85 6.05 11.25 8.45 L13.2 11.45 13.85 12.2 14.05 12.35 14.9 12.45 15.25 11.7 16.95 11.5 Q23.0 12.6 27.25 17.55 29.3 20.4 30.35 24.05 L30.45 24.1 29.8 24.9" fill="#000000" fill-rule="evenodd" stroke="none"/>
  </g>
</svg>
