<?xml version="1.0" encoding="UTF-8" standalone="no"?>
<svg xmlns:ffdec="https://www.free-decompiler.com/flash" xmlns:xlink="http://www.w3.org/1999/xlink" ffdec:objectType="shape" height="29.9px" width="68.7px" xmlns="http://www.w3.org/2000/svg">
  <g transform="matrix(1.0, 0.0, 0.0, 1.0, 20.5, -20.5)">
    <path d="M2.8 22.75 L6.9 22.6 Q11.5 23.35 15.05 20.5 L17.95 20.55 23.7 26.2 24.75 30.05 Q26.15 33.95 30.05 36.0 L37.05 35.45 38.45 36.7 Q41.8 40.4 44.55 44.3 L48.2 49.75 47.55 50.4 45.7 50.35 Q43.0 47.7 39.85 45.9 38.0 44.85 36.05 44.15 32.35 42.85 28.25 43.3 L27.55 43.85 26.85 44.4 Q25.2 45.35 23.45 45.15 L21.45 44.8 Q14.65 44.05 9.75 39.05 L7.05 42.15 Q2.65 42.65 -1.05 40.35 L-1.3 39.6 -12.05 36.85 -13.15 35.55 -18.8 34.8 -20.5 32.25 -9.05 30.55 -11.2 30.55 Q-15.2 30.2 -18.95 28.95 L-19.55 27.0 0.75 23.95 Q1.7 23.1 2.8 22.75" fill="#000000" fill-rule="evenodd" stroke="none"/>
  </g>
</svg>
