<?xml version="1.0" encoding="UTF-8" standalone="no"?>
<svg xmlns:ffdec="https://www.free-decompiler.com/flash" xmlns:xlink="http://www.w3.org/1999/xlink" ffdec:objectType="shape" height="231.35px" width="160.2px" xmlns="http://www.w3.org/2000/svg">
  <g transform="matrix(1.0, 0.0, 0.0, 1.0, 127.8, 101.95)">
    <path d="M-4.1 -97.3 L-0.15 -100.8 0.55 -100.4 28.7 19.45 Q28.95 20.3 27.7 21.55 L-126.2 127.0 -126.85 126.4 -125.7 111.65 -126.45 125.3 -126.35 126.5 -125.85 126.5 26.35 22.05 Q28.3 21.05 28.3 19.45 L0.2 -100.3 -0.4 -100.4 -4.1 -97.3" fill="#969490" fill-rule="evenodd" stroke="none"/>
    <path d="M-126.95 128.5 L-127.6 128.1 -127.8 127.0 -118.95 2.2 Q-118.55 0.85 -116.7 -0.65 L-1.65 -100.65 Q-0.15 -102.25 1.3 -101.9 L29.45 14.4 Q31.05 18.6 29.65 21.05 L27.6 23.3 Q-111.05 118.6 -126.95 128.5 M-125.7 111.65 L-126.85 126.4 -126.2 127.0 27.7 21.55 Q28.95 20.3 28.7 19.45 L0.55 -100.4 -0.15 -100.8 -4.1 -97.3 -117.85 1.35 -118.1 1.7 -118.2 1.95 -118.2 2.2 -119.2 16.0 -119.2 16.15 -125.7 111.65" fill="#ababab" fill-rule="evenodd" stroke="none"/>
    <path d="M-4.1 -97.3 L-0.4 -100.4 0.2 -100.3 28.3 19.45 Q28.3 21.05 26.35 22.05 L-125.85 126.5 -126.35 126.5 -126.45 125.3 -125.7 111.65 -119.2 16.15 -119.2 16.0 -118.2 2.2 -118.2 1.95 -118.1 1.7 -117.85 1.35 -4.1 -97.3" fill="#a8a6a0" fill-rule="evenodd" stroke="none"/>
    <path d="M1.3 -101.9 L3.4 -99.95 31.9 17.25 Q32.75 18.95 32.15 22.05 31.4 23.65 30.05 24.65 L-123.5 129.1 Q-124.1 129.95 -126.95 128.5 -111.05 118.6 27.6 23.3 L29.65 21.05 Q31.05 18.6 29.45 14.4 L1.3 -101.9" fill="#9d9d9d" fill-rule="evenodd" stroke="none"/>
  </g>
</svg>
