<?xml version="1.0" encoding="UTF-8" standalone="no"?>
<svg xmlns:ffdec="https://www.free-decompiler.com/flash" xmlns:xlink="http://www.w3.org/1999/xlink" ffdec:objectType="shape" height="352.65px" width="499.0px" xmlns="http://www.w3.org/2000/svg">
  <g transform="matrix(1.0, 0.0, 0.0, 1.0, 70.75, 69.55)">
    <path d="M155.1 -69.55 L156.05 -69.15 155.85 48.45 155.1 48.35 155.1 -69.55 M155.6 164.85 L156.05 165.05 156.05 282.85 155.1 283.1 155.1 165.05 155.6 164.85 M201.7 48.45 L201.45 -69.15 202.4 -69.55 202.4 48.35 201.7 48.45 M202.4 283.1 L201.45 282.8 201.45 165.05 201.9 164.85 202.4 165.05 202.4 283.1" fill="#717171" fill-rule="evenodd" stroke="none"/>
    <path d="M155.1 -69.55 L155.1 48.35 146.35 49.85 105.2 56.4 96.55 57.65 86.25 56.15 86.25 -37.85 155.1 -69.55 M97.3 156.5 L97.45 156.5 105.45 157.65 105.5 157.65 124.0 160.35 124.15 160.35 124.9 160.75 155.1 165.05 155.1 283.1 86.25 252.1 86.25 157.75 95.9 156.35 97.3 156.5 M202.4 48.35 L202.4 -69.55 270.9 -38.0 271.3 -37.85 271.3 56.1 260.95 57.65 252.35 56.4 211.2 49.85 202.4 48.35 M271.3 157.75 L271.3 252.1 202.4 283.1 202.4 165.05 232.65 160.75 233.4 160.35 233.5 160.35 252.0 157.65 252.1 157.65 260.1 156.5 260.25 156.5 261.65 156.35 271.3 157.75" fill="#d3d3d3" fill-rule="evenodd" stroke="none"/>
    <path d="M63.8 161.1 L62.7 160.95 62.7 52.55 63.8 52.55 63.8 161.1 M293.75 52.55 L294.85 52.55 294.85 160.95 293.75 161.1 293.75 52.55 M411.45 -66.55 L412.25 -66.35 412.25 47.55 411.8 47.7 411.45 47.45 411.45 -66.55 M-54.3 47.7 L-54.7 47.55 -54.7 -66.35 -53.9 -66.55 -53.9 47.45 -54.3 47.7" fill="#ebebeb" fill-rule="evenodd" stroke="none"/>
    <path d="M97.05 57.75 L121.25 61.8 121.25 152.6 96.55 156.25 95.9 156.35 86.25 157.75 63.8 161.1 63.8 52.55 86.25 56.15 96.55 57.65 97.05 57.75 M271.3 56.1 L293.75 52.55 293.75 161.1 271.3 157.75 261.65 156.35 260.95 156.25 236.3 152.6 236.3 61.8 260.45 57.75 260.95 57.65 271.3 56.1 M411.45 -66.55 L411.45 47.45 331.7 57.9 331.3 57.9 331.3 -36.8 411.45 -66.55 M367.05 153.75 L366.25 153.75 366.25 60.15 367.05 59.8 367.05 153.75 M-53.9 -66.55 L26.2 -36.8 26.2 57.9 25.85 57.9 -53.9 47.45 -53.9 -66.55 M-9.5 59.8 L-8.7 60.15 -8.7 153.75 -9.5 153.75 -9.5 59.8" fill="#040404" fill-rule="evenodd" stroke="none"/>
    <path d="M155.1 48.35 L155.85 48.45 146.35 49.85 155.1 48.35 M105.2 56.4 L97.05 57.75 96.55 57.65 105.2 56.4 M201.7 48.45 L202.4 48.35 211.2 49.85 201.7 48.45 M260.45 57.75 L252.35 56.4 260.95 57.65 260.45 57.75 M411.45 47.45 L411.8 47.7 332.8 58.0 331.7 57.9 411.45 47.45 M25.85 57.9 L24.75 58.0 -54.3 47.7 -53.9 47.45 25.85 57.9" fill="#060606" fill-rule="evenodd" stroke="none"/>
    <path d="M354.2 161.7 L356.1 161.7 356.45 161.8 358.45 161.8 358.75 161.85 360.7 161.85 361.2 162.0 363.0 162.0 363.5 162.1 365.4 162.1 365.75 162.25 367.6 162.25 368.1 162.35 370.0 162.35 370.45 162.45 372.3 162.45 372.7 162.6 374.6 162.6 375.05 162.7 376.95 162.7 377.4 162.85 379.3 162.85 379.65 162.9 381.5 162.9 382.0 163.05 383.9 163.05 384.4 163.2 386.1 163.2 386.55 163.3 388.5 163.3 388.95 163.4 390.8 163.4 391.25 163.5 393.05 163.5 393.7 163.65 395.45 163.65 395.9 163.8 397.8 163.8 398.25 163.9 400.0 163.9 400.6 164.0 402.35 164.0 402.85 164.1 404.7 164.1 405.2 164.25 407.0 164.25 407.55 164.4 409.3 164.4 409.75 164.45 411.7 164.45 412.25 164.6 413.9 164.6 414.6 164.7 416.3 164.7 416.85 164.85 418.5 164.85 419.2 165.0 423.2 165.05 423.9 165.2 425.45 165.2 426.15 165.3 427.65 165.3 428.25 165.55 428.25 268.7 329.5 254.55 329.5 160.75 329.6 160.35 330.5 160.35 331.1 160.5 332.85 160.5 333.4 160.6 335.1 160.6 335.55 160.75 337.5 160.75 337.95 160.8 339.95 160.8 340.25 160.95 342.2 160.95 342.55 161.1 344.5 161.1 344.9 161.2 346.9 161.2 347.25 161.3 349.15 161.3 349.5 161.4 351.5 161.4 351.85 161.55 353.7 161.55 354.2 161.7 M27.95 160.35 L28.05 160.75 28.05 254.55 -70.75 268.7 -70.75 165.6 -70.15 165.3 -68.65 165.3 -67.95 165.2 -66.4 165.2 -65.65 165.05 -61.7 165.0 -60.95 164.85 -59.3 164.85 -58.75 164.7 -57.05 164.7 -56.4 164.6 -54.7 164.6 -54.15 164.5 -52.25 164.5 -51.8 164.4 -50.05 164.4 -49.45 164.25 -47.65 164.25 -47.15 164.1 -45.35 164.1 -44.85 164.0 -43.05 164.0 -42.45 163.9 -40.75 163.9 -40.25 163.8 -38.35 163.8 -37.9 163.65 -36.15 163.65 -35.5 163.5 -33.75 163.5 -33.3 163.45 -31.4 163.45 -30.95 163.3 -29.05 163.3 -28.6 163.2 -26.85 163.2 -26.35 163.05 -24.45 163.05 -23.95 162.95 -22.15 162.95 -21.8 162.85 -19.85 162.85 -19.4 162.7 -17.55 162.7 -17.1 162.6 -15.15 162.6 -14.8 162.45 -12.9 162.45 -12.45 162.35 -10.55 162.35 -10.1 162.25 -8.2 162.25 -7.85 162.1 -6.0 162.1 -5.5 162.0 -3.65 162.0 -3.15 161.9 -1.25 161.9 -0.9 161.8 1.1 161.8 1.4 161.7 3.35 161.7 3.85 161.55 5.65 161.55 6.05 161.4 8.05 161.4 8.4 161.35 10.25 161.35 10.65 161.2 12.65 161.2 13.0 161.1 15.0 161.1 15.35 160.95 17.25 160.95 17.6 160.85 19.6 160.85 20.05 160.75 21.95 160.75 22.4 160.6 24.15 160.6 24.65 160.5 26.45 160.5 27.05 160.35 27.95 160.35" fill="#0f0f0f" fill-rule="evenodd" stroke="none"/>
    <path d="M367.05 153.75 L367.05 59.8 424.65 65.2 424.65 148.9 367.05 153.75 M-9.5 153.75 L-67.1 148.9 -67.1 65.2 -9.5 59.8 -9.5 153.75" fill="#181818" fill-rule="evenodd" stroke="none"/>
    <path d="M96.55 156.25 L97.3 156.5 95.9 156.35 96.55 156.25 M124.15 160.35 L155.6 164.85 155.1 165.05 124.9 160.75 124.15 160.35 M201.9 164.85 L233.4 160.35 232.65 160.75 202.4 165.05 201.9 164.85 M260.25 156.5 L260.95 156.25 261.65 156.35 260.25 156.5" fill="#000000" fill-rule="evenodd" stroke="none"/>
  </g>
</svg>
