<?xml version="1.0" encoding="UTF-8" standalone="no"?>
<svg xmlns:ffdec="https://www.free-decompiler.com/flash" xmlns:xlink="http://www.w3.org/1999/xlink" ffdec:objectType="shape" height="362.25px" width="521.15px" xmlns="http://www.w3.org/2000/svg">
  <g transform="matrix(1.0, 0.0, 0.0, 1.0, 81.8, 74.75)">
    <path d="M176.15 48.0 L176.25 -55.3 176.85 -55.4 277.25 -42.25 277.1 57.55 276.9 57.65 276.55 57.65 253.4 56.65 252.65 56.55 229.2 47.15 227.9 47.15 227.9 55.45 176.3 53.15 176.25 53.05 176.15 48.0 M253.35 157.35 L253.95 157.5 261.3 157.2 261.85 157.1 264.25 157.1 264.7 157.0 269.9 156.85 270.4 156.75 272.8 156.7 273.25 156.6 275.6 156.6 276.1 156.55 277.25 156.6 277.25 256.4 176.25 269.1 176.25 160.65 227.9 158.45 227.9 166.25 229.2 166.4 252.65 157.55 253.35 157.35" fill="#eeeeee" fill-rule="evenodd" stroke="none"/>
    <path d="M227.9 55.45 L227.9 47.15 229.2 47.15 229.2 166.4 227.9 166.25 227.9 158.45 227.9 55.45 M348.35 -74.75 L348.35 48.75 346.9 48.8 346.9 -74.6 348.35 -74.75" fill="#b6b6b6" fill-rule="evenodd" stroke="none"/>
    <path d="M229.2 47.15 L252.65 56.55 253.15 56.65 261.1 59.8 261.1 154.25 260.95 154.5 253.35 157.35 252.65 157.55 229.2 166.4 229.2 47.15 M348.35 -74.75 L348.65 -74.75 355.85 -36.4 355.85 55.65 352.45 55.8 348.35 48.75 348.35 -74.75" fill="#9b9b9b" fill-rule="evenodd" stroke="none"/>
    <path d="M176.25 53.05 L176.3 53.15 176.1 53.15 176.25 53.05 M252.65 56.55 L253.4 56.65 253.15 56.65 252.65 56.55 M276.55 57.65 L276.9 57.65 276.8 57.7 276.55 57.65 M348.35 48.75 L352.45 55.8 351.1 55.8 346.9 48.8 348.35 48.75" fill="#060606" fill-rule="evenodd" stroke="none"/>
    <path d="M352.45 55.8 L355.85 55.65 439.35 51.4 439.35 162.05 358.25 158.25 341.35 157.5 333.1 157.0 333.1 56.85 351.1 55.8 352.45 55.8" fill="#0f0f0f" fill-rule="evenodd" stroke="none"/>
    <path d="M176.15 48.0 L176.25 53.05 176.1 53.15 176.15 48.0 M358.25 158.25 L382.3 165.65 381.45 165.8 381.45 287.5 341.35 249.5 341.35 157.5 358.25 158.25 M176.25 269.1 L176.1 268.8 176.1 160.6 176.25 160.65 176.25 269.1" fill="#000000" fill-rule="evenodd" stroke="none"/>
    <path d="M382.3 165.65 L382.8 165.7 382.8 287.3 381.45 287.5 381.45 165.8 382.3 165.65" fill="#e6e6e6" fill-rule="evenodd" stroke="none"/>
    <path d="M-23.95 287.5 L-23.95 165.8 -24.8 165.65 -25.3 165.7 -25.3 287.3 -23.95 287.5" fill="#e6e6e6" fill-rule="evenodd" stroke="none"/>
    <path d="M-24.8 165.65 L-23.95 165.8 -23.95 287.5 16.15 249.5 16.15 157.5 -0.75 158.25 -24.8 165.65 M181.25 269.1 L181.45 268.8 181.45 160.6 181.25 160.65 181.25 269.1 M181.4 53.15 L181.35 48.0 181.25 53.05 181.4 53.15" fill="#000000" fill-rule="evenodd" stroke="none"/>
    <path d="M-0.75 158.25 L16.15 157.5 24.45 157.0 24.45 56.85 6.45 55.8 5.05 55.8 1.7 55.65 -81.8 51.45 -81.8 162.05 -0.75 158.25" fill="#0f0f0f" fill-rule="evenodd" stroke="none"/>
    <path d="M181.25 160.65 L129.65 158.45 129.65 166.25 128.35 166.4 104.9 157.55 104.2 157.35 103.6 157.5 96.25 157.2 95.7 157.15 93.3 157.1 92.85 157.0 87.6 156.85 87.1 156.75 84.75 156.7 84.3 156.65 81.9 156.65 81.4 156.55 80.25 156.65 80.25 256.4 181.25 269.1 181.25 160.65 M129.65 55.45 L181.2 53.15 181.25 53.05 181.35 48.0 181.25 -55.3 180.7 -55.35 80.25 -42.2 80.4 57.55 80.65 57.65 81.0 57.65 104.15 56.65 104.9 56.55 128.35 47.15 129.65 47.15 129.65 55.45" fill="#eeeeee" fill-rule="evenodd" stroke="none"/>
    <path d="M104.4 56.65 L96.45 59.85 96.45 154.25 96.55 154.55 104.2 157.35 104.9 157.55 128.35 166.4 128.35 47.15 104.9 56.55 104.4 56.65 M9.2 -74.75 L8.9 -74.75 1.7 -36.4 1.7 55.65 5.05 55.8 9.2 48.8 9.2 -74.75" fill="#9b9b9b" fill-rule="evenodd" stroke="none"/>
    <path d="M129.65 158.45 L129.65 55.45 129.65 47.15 128.35 47.15 128.35 166.4 129.65 166.25 129.65 158.45 M10.65 48.8 L10.65 -74.6 9.2 -74.75 9.2 48.8 10.65 48.8" fill="#b6b6b6" fill-rule="evenodd" stroke="none"/>
    <path d="M181.2 53.15 L181.4 53.15 181.25 53.05 181.2 53.15 M80.65 57.65 L80.75 57.75 81.0 57.65 80.65 57.65 M104.15 56.65 L104.4 56.65 104.9 56.55 104.15 56.65 M6.45 55.8 L10.65 48.8 9.2 48.8 5.05 55.8 6.45 55.8" fill="#060606" fill-rule="evenodd" stroke="none"/>
  </g>
</svg>
