<?xml version="1.0" encoding="UTF-8" standalone="no"?>
<svg xmlns:ffdec="https://www.free-decompiler.com/flash" xmlns:xlink="http://www.w3.org/1999/xlink" ffdec:objectType="shape" height="320.15px" width="397.55px" xmlns="http://www.w3.org/2000/svg">
  <g transform="matrix(1.0, 0.0, 0.0, 1.0, 20.0, 49.4)">
    <path d="M87.3 57.0 L87.3 -42.3 270.25 -42.3 270.25 57.0 186.7 55.25 186.7 57.3 185.15 57.3 185.15 54.95 87.3 57.0 M270.25 157.2 L270.25 256.5 87.3 256.5 87.3 157.2 185.15 158.95 185.15 156.7 186.7 156.95 186.7 158.7 270.25 157.2" fill="#d6d6d6" fill-rule="evenodd" stroke="none"/>
    <path d="M87.3 57.0 L185.15 54.95 185.15 57.3 186.7 57.3 186.7 55.25 270.25 57.0 274.6 57.0 274.6 157.2 270.25 157.2 186.7 158.7 186.7 156.95 185.15 156.7 185.15 158.95 87.3 157.2 82.9 157.2 82.9 57.0 87.3 57.0 M275.05 46.05 L275.2 -49.4 374.95 -43.35 374.95 51.65 323.35 37.9 321.9 38.0 321.9 57.0 281.6 56.15 275.2 55.9 275.05 46.05 M82.45 46.05 L82.3 55.9 75.95 56.15 35.6 57.0 35.6 38.0 34.2 37.9 -17.4 51.65 -17.4 -43.35 82.3 -49.4 82.45 46.05" fill="#e5e5e5" fill-rule="evenodd" stroke="none"/>
    <path d="M323.35 37.9 L374.95 51.65 376.95 52.15 376.95 155.15 376.8 161.85 323.35 175.2 323.35 37.9 M34.2 37.9 L34.2 175.2 -19.25 161.9 -19.4 155.15 -19.4 52.15 -17.4 51.65 34.2 37.9" fill="#d3d3d3" fill-rule="evenodd" stroke="none"/>
    <path d="M376.95 155.15 L377.55 155.3 377.55 257.55 282.85 270.7 282.85 159.3 304.4 158.35 305.45 158.2 309.8 158.15 310.75 158.0 312.5 158.0 313.35 157.85 315.25 157.85 316.05 157.75 317.9 157.75 318.75 157.65 320.55 157.65 321.45 157.55 321.9 157.55 321.9 175.0 323.35 175.2 376.8 161.85 376.95 155.15 M34.2 175.2 L35.6 175.0 35.6 157.55 36.05 157.55 37.0 157.65 38.75 157.65 39.65 157.75 41.45 157.75 42.3 157.85 44.2 157.85 45.0 158.0 46.75 158.0 47.7 158.15 52.1 158.2 53.15 158.35 74.7 159.3 74.7 270.75 -20.0 257.55 -20.0 155.3 -19.4 155.15 -19.25 161.9 34.2 175.2" fill="#eeeeee" fill-rule="evenodd" stroke="none"/>
    <path d="M321.9 57.0 L321.9 38.0 323.35 37.9 323.35 175.2 321.9 175.0 321.9 157.55 321.9 57.0 M34.2 37.9 L35.6 38.0 35.6 57.0 35.6 157.55 35.6 175.0 34.2 175.2 34.2 37.9" fill="#717171" fill-rule="evenodd" stroke="none"/>
    <path d="M275.2 55.9 L281.6 56.15 275.0 56.05 275.2 55.9 M82.3 55.9 L82.55 56.05 75.95 56.15 82.3 55.9" fill="#060606" fill-rule="evenodd" stroke="none"/>
    <path d="M275.05 46.05 L275.2 55.9 275.0 56.05 275.05 46.05 M282.85 270.7 L282.35 270.35 282.35 159.55 282.85 159.3 282.85 270.7 M82.55 56.05 L82.3 55.9 82.45 46.05 82.55 56.05 M74.7 159.3 L75.15 159.55 75.15 270.35 74.7 270.75 74.7 159.3" fill="#000000" fill-rule="evenodd" stroke="none"/>
  </g>
</svg>
