<?xml version="1.0" encoding="UTF-8" standalone="no"?>
<svg xmlns:ffdec="https://www.free-decompiler.com/flash" xmlns:xlink="http://www.w3.org/1999/xlink" ffdec:objectType="text" height="17.75px" width="55.3px" xmlns="http://www.w3.org/2000/svg">
  <g transform="matrix(1.0, 0.0, 0.0, 1.0, 4.2, 2.0)">
    <g transform="matrix(1.0, 0.0, 0.0, 1.0, -4.2, -2.0)">
      <use fill="#ffffff" height="17.75" transform="matrix(0.0107, 0.0, 0.0, 0.0107, 2.1, 12.7)" width="55.3" xlink:href="#font_Helvetica_Neue_Condensed_Black_p0"/>
      <use fill="#ffffff" height="17.75" transform="matrix(0.0107, 0.0, 0.0, 0.0107, 7.8, 12.7)" width="55.3" xlink:href="#font_Helvetica_Neue_Condensed_Black_e0"/>
      <use fill="#ffffff" height="17.75" transform="matrix(0.0107, 0.0, 0.0, 0.0107, 13.1, 12.7)" width="55.3" xlink:href="#font_Helvetica_Neue_Condensed_Black_r0"/>
      <use fill="#ffffff" height="17.75" transform="matrix(0.0107, 0.0, 0.0, 0.0107, 16.95, 12.7)" width="55.3" xlink:href="#font_Helvetica_Neue_Condensed_Black_c0"/>
      <use fill="#ffffff" height="17.75" transform="matrix(0.0107, 0.0, 0.0, 0.0107, 22.25, 12.7)" width="55.3" xlink:href="#font_Helvetica_Neue_Condensed_Black_e0"/>
      <use fill="#ffffff" height="17.75" transform="matrix(0.0107, 0.0, 0.0, 0.0107, 27.55, 12.7)" width="55.3" xlink:href="#font_Helvetica_Neue_Condensed_Black_n0"/>
      <use fill="#ffffff" height="17.75" transform="matrix(0.0107, 0.0, 0.0, 0.0107, 33.25, 12.7)" width="55.3" xlink:href="#font_Helvetica_Neue_Condensed_Black_t0"/>
      <use fill="#ffffff" height="17.75" transform="matrix(0.0107, 0.0, 0.0, 0.0107, 36.7, 12.7)" width="55.3" xlink:href="#font_Helvetica_Neue_Condensed_Black_a0"/>
      <use fill="#ffffff" height="17.75" transform="matrix(0.0107, 0.0, 0.0, 0.0107, 42.2, 12.7)" width="55.3" xlink:href="#font_Helvetica_Neue_Condensed_Black_g0"/>
      <use fill="#ffffff" height="17.75" transform="matrix(0.0107, 0.0, 0.0, 0.0107, 47.9, 12.7)" width="55.3" xlink:href="#font_Helvetica_Neue_Condensed_Black_e0"/>
    </g>
  </g>
  <defs>
    <g id="font_Helvetica_Neue_Condensed_Black_p0">
      <path d="M220.0 -556.0 L220.0 -556.0 220.0 -478.5 222.0 -478.5 Q253.5 -568.0 347.0 -568.0 439.0 -568.0 475.5 -493.0 512.0 -418.5 512.0 -264.5 512.0 -184.5 499.5 -131.5 487.5 -78.0 465.5 -46.0 443.5 -13.5 412.0 -1.0 381.0 12.0 342.0 12.0 303.0 12.0 272.0 -3.5 240.5 -19.0 226.5 -62.5 L228.0 -62.5 228.0 176.0 40.0 176.0 40.0 -556.0 220.0 -556.0 M228.0 -278.5 L228.0 -278.5 Q228.0 -233.5 230.0 -204.0 232.0 -174.0 237.5 -156.0 243.0 -138.5 253.0 -131.0 262.5 -124.0 277.5 -124.0 293.5 -124.0 303.5 -131.0 313.0 -138.5 318.5 -156.0 324.0 -174.0 326.0 -204.0 328.0 -233.5 328.0 -278.5 328.0 -323.5 326.0 -352.5 324.0 -382.0 318.5 -400.0 313.0 -417.5 303.5 -425.0 293.5 -432.0 277.5 -432.0 262.5 -432.0 253.0 -425.0 243.0 -417.5 237.5 -400.0 232.0 -382.0 230.0 -352.5 228.0 -323.5 228.0 -278.5" fill-rule="evenodd" stroke="none"/>
    </g>
    <g id="font_Helvetica_Neue_Condensed_Black_e0">
      <path d="M204.0 -171.0 L204.0 -171.0 Q204.0 -126.0 219.5 -111.0 235.0 -96.0 255.0 -96.0 280.0 -96.0 294.0 -116.0 308.0 -136.0 308.0 -192.0 L476.0 -192.0 Q474.0 -90.0 423.5 -39.0 373.0 12.0 257.5 12.0 190.5 12.0 145.0 -3.0 99.5 -17.5 71.5 -52.0 44.0 -86.5 32.0 -141.5 20.0 -197.0 20.0 -276.0 20.0 -356.0 33.5 -411.0 47.0 -466.5 75.5 -501.5 104.5 -536.0 149.0 -552.0 194.0 -568.0 256.5 -568.0 312.5 -568.0 354.0 -554.5 395.5 -541.0 424.0 -510.0 452.0 -478.5 466.0 -427.5 480.0 -376.5 480.0 -300.5 L480.0 -244.0 204.0 -244.0 204.0 -171.0 M308.0 -369.0 L308.0 -369.0 Q308.0 -414.0 297.0 -435.0 286.0 -456.0 255.5 -456.0 226.0 -456.0 215.0 -435.0 204.0 -414.0 204.0 -369.0 L204.0 -344.0 308.0 -344.0 308.0 -369.0" fill-rule="evenodd" stroke="none"/>
    </g>
    <g id="font_Helvetica_Neue_Condensed_Black_r0">
      <path d="M212.0 -556.0 L212.0 -556.0 212.0 -465.5 214.5 -465.5 Q231.5 -515.5 265.0 -542.0 299.0 -568.0 340.0 -568.0 L369.5 -568.0 369.5 -396.0 Q357.0 -398.0 346.0 -399.0 334.5 -400.0 323.5 -400.0 274.5 -400.0 247.0 -378.5 220.0 -357.0 220.0 -302.0 L220.0 0.0 32.0 0.0 32.0 -556.0 212.0 -556.0" fill-rule="evenodd" stroke="none"/>
    </g>
    <g id="font_Helvetica_Neue_Condensed_Black_c0">
      <path d="M312.0 -335.5 L312.0 -335.5 Q312.0 -369.0 309.0 -390.0 306.0 -411.0 299.5 -424.5 288.5 -448.0 258.5 -448.0 243.0 -448.0 232.5 -440.5 221.5 -432.5 215.5 -413.0 209.0 -393.0 206.5 -359.5 204.0 -326.5 204.0 -275.5 204.0 -224.5 206.5 -191.5 209.0 -158.0 215.5 -138.5 221.5 -119.5 232.5 -111.5 243.0 -104.0 258.5 -104.0 284.5 -104.0 298.0 -123.5 312.0 -143.0 312.0 -195.0 L312.0 -231.0 476.0 -231.0 Q476.0 -165.5 465.0 -119.5 453.5 -73.0 427.0 -43.5 375.0 12.0 257.5 12.0 204.5 12.0 161.0 3.0 117.0 -6.5 86.0 -36.5 54.5 -67.0 37.5 -121.5 20.0 -176.5 20.0 -266.5 20.0 -365.0 39.5 -424.5 59.0 -484.0 92.0 -515.5 125.0 -547.5 170.0 -557.5 215.0 -568.0 267.0 -568.0 328.0 -568.0 368.5 -551.0 408.5 -534.0 432.5 -503.5 456.5 -473.0 466.5 -430.0 476.0 -387.5 476.0 -335.5 L312.0 -335.5" fill-rule="evenodd" stroke="none"/>
    </g>
    <g id="font_Helvetica_Neue_Condensed_Black_n0">
      <path d="M214.0 -556.0 L214.0 -556.0 214.0 -486.5 216.0 -486.5 Q252.0 -568.0 351.0 -568.0 382.0 -568.0 408.0 -561.5 434.5 -554.5 454.0 -537.5 473.5 -520.0 484.5 -491.0 496.0 -462.5 496.0 -417.5 L496.0 0.0 312.0 0.0 312.0 -366.5 Q312.0 -401.0 301.5 -416.5 291.0 -432.0 266.0 -432.0 241.0 -432.0 230.5 -416.5 220.0 -401.0 220.0 -366.5 L220.0 0.0 36.0 0.0 36.0 -556.0 214.0 -556.0" fill-rule="evenodd" stroke="none"/>
    </g>
    <g id="font_Helvetica_Neue_Condensed_Black_t0">
      <path d="M64.0 -556.0 L64.0 -556.0 64.0 -716.0 248.0 -716.0 248.0 -556.0 320.5 -556.0 320.5 -428.0 248.0 -428.0 248.0 -165.0 Q248.0 -141.5 259.0 -132.0 269.5 -122.5 292.0 -122.5 L320.5 -122.5 320.5 0.0 Q295.0 0.0 269.5 2.0 244.0 4.0 220.5 4.0 178.5 4.0 149.0 0.5 119.0 -3.0 100.5 -17.5 81.5 -31.5 72.5 -60.0 64.0 -88.0 64.0 -134.0 L64.0 -428.0 2.5 -428.0 2.5 -556.0 64.0 -556.0" fill-rule="evenodd" stroke="none"/>
    </g>
    <g id="font_Helvetica_Neue_Condensed_Black_a0">
      <path d="M307.5 0.0 L307.5 0.0 Q302.0 -14.0 300.0 -29.5 298.0 -44.5 296.0 -61.5 L294.0 -61.5 Q278.5 -25.0 244.5 -6.5 211.0 12.0 167.5 12.0 125.0 12.0 95.5 1.0 66.0 -9.5 47.0 -31.0 28.5 -52.5 20.5 -82.5 12.0 -112.0 12.0 -148.0 12.0 -187.0 20.0 -216.0 27.5 -244.5 45.0 -265.5 63.0 -286.5 93.0 -301.5 123.0 -316.5 167.5 -326.5 L241.0 -344.0 Q271.0 -351.5 283.5 -365.0 296.0 -379.0 296.0 -404.5 296.0 -456.0 248.5 -456.0 222.0 -456.0 209.5 -440.5 197.0 -425.5 196.0 -380.0 L36.0 -380.0 Q36.0 -441.0 57.5 -477.5 79.0 -514.5 111.0 -534.5 142.5 -554.5 179.5 -561.5 216.5 -568.0 248.5 -568.0 296.5 -568.0 337.0 -560.5 377.5 -552.5 407.0 -532.5 436.0 -512.5 452.0 -478.5 468.0 -444.0 468.0 -390.0 L468.0 -119.5 Q468.0 -81.0 471.0 -51.0 474.0 -21.5 485.5 0.0 L307.5 0.0 M238.0 -108.0 L238.0 -108.0 Q269.0 -108.0 282.5 -130.5 296.0 -153.5 296.0 -199.5 L296.0 -266.5 294.0 -266.5 Q285.5 -255.5 268.5 -253.0 251.5 -250.0 230.5 -241.0 208.5 -230.5 200.5 -213.5 192.0 -196.5 192.0 -169.0 192.0 -141.0 204.5 -124.5 217.0 -108.0 238.0 -108.0" fill-rule="evenodd" stroke="none"/>
    </g>
    <g id="font_Helvetica_Neue_Condensed_Black_g0">
      <path d="M208.0 -292.0 L208.0 -292.0 Q208.0 -247.5 211.5 -220.5 215.0 -193.0 222.0 -177.5 228.5 -162.5 238.0 -157.0 248.0 -152.0 261.0 -152.0 273.5 -152.0 283.0 -157.0 292.5 -162.5 299.5 -177.5 306.0 -193.0 309.0 -220.5 312.0 -247.5 312.0 -292.0 312.0 -335.0 309.0 -362.5 306.0 -390.0 299.5 -405.0 292.5 -420.5 283.0 -426.5 273.5 -432.0 261.0 -432.0 248.0 -432.0 238.0 -426.5 228.5 -420.5 222.0 -405.0 215.0 -390.0 211.5 -362.5 208.0 -335.0 208.0 -292.0 M492.0 -556.0 L492.0 -556.0 492.0 -10.5 Q492.0 43.5 474.0 81.5 456.0 119.5 424.5 142.0 393.5 164.5 351.5 174.5 309.0 184.0 260.0 184.0 215.5 184.0 176.5 177.5 137.5 170.5 108.0 153.0 79.0 136.0 62.0 105.5 45.0 75.0 44.0 28.0 L212.0 28.0 Q212.0 49.0 224.0 60.5 236.0 72.0 257.0 72.0 267.0 72.0 277.0 70.0 287.0 68.0 294.5 61.0 302.0 53.5 307.0 40.5 312.0 27.0 312.0 3.5 L312.0 -98.0 310.0 -98.0 Q292.5 -50.5 258.0 -33.0 223.0 -16.0 185.5 -16.0 158.0 -16.0 129.0 -26.0 100.5 -36.5 77.0 -66.0 53.5 -95.5 39.0 -149.5 24.0 -203.0 24.0 -289.0 24.0 -368.5 36.0 -422.5 47.5 -476.0 69.5 -508.0 91.5 -540.5 123.0 -554.0 155.0 -568.0 194.5 -568.0 233.5 -568.0 267.0 -548.0 301.0 -527.5 316.0 -478.5 L320.0 -478.5 320.0 -556.0 492.0 -556.0" fill-rule="evenodd" stroke="none"/>
    </g>
  </defs>
</svg>
