<?xml version="1.0" encoding="UTF-8" standalone="no"?>
<svg xmlns:ffdec="https://www.free-decompiler.com/flash" xmlns:xlink="http://www.w3.org/1999/xlink" ffdec:objectType="text" height="25.75px" width="69.5px" xmlns="http://www.w3.org/2000/svg">
  <g transform="matrix(1.0, 0.0, 0.0, 1.0, -16.05, -6.55)">
    <g transform="matrix(1.0, 0.0, 0.0, 1.0, 0.0, 0.0)">
      <use fill="#004080" height="25.75" transform="matrix(0.0254, 0.0, 0.0, 0.0254, 15.0, 31.0)" width="69.5" xlink:href="#font_Bebas_S0"/>
      <use fill="#004080" height="25.75" transform="matrix(0.0254, 0.0, 0.0, 0.0254, 28.95, 31.0)" width="69.5" xlink:href="#font_Bebas_T0"/>
    </g>
    <g transform="matrix(1.0, 0.0, 0.0, 1.0, 0.0, 0.0)">
      <use fill="#004080" height="25.75" transform="matrix(0.0254, 0.0, 0.0, 0.0254, 42.25, 31.0)" width="69.5" xlink:href="#font_Bebas_O0"/>
    </g>
    <g transform="matrix(1.0, 0.0, 0.0, 1.0, 0.0, 0.0)">
      <use fill="#004080" height="25.75" transform="matrix(0.0254, 0.0, 0.0, 0.0254, 57.05, 31.0)" width="69.5" xlink:href="#font_Bebas_R0"/>
    </g>
    <g transform="matrix(1.0, 0.0, 0.0, 1.0, 0.0, 0.0)">
      <use fill="#004080" height="25.75" transform="matrix(0.0254, 0.0, 0.0, 0.0254, 70.35, 31.0)" width="69.5" xlink:href="#font_Bebas_Y0"/>
    </g>
  </g>
  <defs>
    <g id="font_Bebas_S0">
      <path d="M554.5 -226.5 L554.5 -226.5 Q553.5 -265.0 532.0 -314.0 523.0 -333.5 508.5 -357.0 478.0 -406.5 421.5 -457.5 404.5 -473.5 351.5 -513.5 306.5 -547.0 284.0 -572.0 224.5 -636.5 224.5 -699.5 224.5 -739.5 242.0 -766.5 263.5 -800.0 305.5 -800.0 344.5 -800.0 365.5 -777.5 394.0 -746.0 400.5 -689.5 L545.5 -713.5 Q540.0 -773.5 512.5 -819.5 485.0 -865.5 440.5 -891.0 383.0 -924.0 302.5 -924.0 218.5 -924.0 162.0 -885.5 70.5 -821.0 70.5 -696.5 70.5 -627.5 104.5 -568.5 136.0 -516.0 211.5 -449.5 302.0 -372.5 347.5 -334.0 405.0 -277.5 405.0 -221.0 405.0 -181.5 389.5 -160.5 359.5 -117.5 309.0 -116.0 273.5 -114.5 246.0 -141.5 208.5 -177.0 199.0 -256.5 L53.0 -247.0 Q57.5 -174.0 86.0 -117.5 114.5 -61.0 163.5 -28.0 222.0 12.0 311.0 12.0 359.5 12.0 395.5 2.0 463.0 -17.0 500.0 -63.0 556.0 -131.0 554.5 -226.5" fill-rule="evenodd" stroke="none"/>
    </g>
    <g id="font_Bebas_T0">
      <path d="M215.5 4.0 L215.5 4.0 365.0 4.0 365.0 -772.0 523.5 -772.0 523.5 -912.0 53.0 -912.0 53.0 -772.0 215.5 -772.0 215.5 4.0" fill-rule="evenodd" stroke="none"/>
    </g>
    <g id="font_Bebas_O0">
      <path d="M374.0 -206.5 L374.0 -206.5 Q374.0 -174.0 349.0 -151.0 324.0 -128.0 288.5 -128.0 253.0 -128.0 227.5 -151.0 202.5 -174.0 202.5 -206.5 L202.5 -705.5 Q202.5 -738.0 227.5 -761.0 253.0 -784.0 288.5 -784.0 324.0 -784.0 349.0 -761.0 374.0 -738.0 374.0 -705.5 L374.0 -206.5 M292.0 -924.0 L292.0 -924.0 Q193.5 -924.0 123.5 -860.0 53.0 -796.5 53.0 -705.5 L53.0 -206.5 Q53.0 -116.5 122.5 -52.0 192.0 12.0 292.0 12.0 391.5 12.0 462.0 -52.0 532.5 -115.5 532.5 -206.5 L532.5 -705.5 Q532.5 -795.5 462.5 -860.0 392.5 -924.0 292.0 -924.0" fill-rule="evenodd" stroke="none"/>
    </g>
    <g id="font_Bebas_R0">
      <path d="M378.5 -562.5 L378.5 -562.5 Q378.5 -530.0 353.5 -507.0 328.5 -484.0 293.0 -484.0 L202.5 -484.0 202.5 -772.0 293.0 -772.0 Q378.5 -772.0 378.5 -693.5 L378.5 -562.5 M53.0 -912.0 L53.0 -912.0 53.0 4.0 202.5 4.0 202.5 -344.0 290.5 -344.0 Q297.5 -344.0 304.0 -344.0 L396.5 4.0 560.0 4.0 448.0 -396.0 Q528.0 -463.0 528.0 -560.5 L528.0 -693.5 Q528.0 -793.0 476.0 -848.5 417.0 -912.0 291.0 -912.0 L53.0 -912.0" fill-rule="evenodd" stroke="none"/>
    </g>
    <g id="font_Bebas_Y0">
      <path d="M255.0 4.0 L255.0 4.0 405.0 4.0 405.0 -381.0 609.5 -916.0 442.5 -916.0 331.0 -584.5 219.0 -916.0 53.0 -916.0 255.0 -381.0 255.0 4.0" fill-rule="evenodd" stroke="none"/>
    </g>
  </defs>
</svg>
