<?xml version="1.0" encoding="UTF-8" standalone="no"?>
<svg xmlns:ffdec="https://www.free-decompiler.com/flash" xmlns:xlink="http://www.w3.org/1999/xlink" ffdec:objectType="shape" height="210.4px" width="120.9px" xmlns="http://www.w3.org/2000/svg">
  <g transform="matrix(1.0, 0.0, 0.0, 1.0, -31.0, 58.3)">
    <path d="M55.5 63.8 L55.55 63.65 55.8 63.4 55.9 63.25 56.15 63.0 56.2 62.8 56.45 62.6 56.55 62.4 56.8 62.15 56.95 61.9 72.25 42.75 72.4 42.6 72.9 41.95 73.1 41.8 73.25 41.55 73.4 41.35 73.9 40.7 74.05 40.55 74.2 40.3 74.4 40.15 74.9 39.45 75.05 39.3 75.2 39.05 75.4 38.9 75.85 38.25 76.05 38.1 76.2 37.85 76.35 37.65 76.85 37.0 77.05 36.85 77.2 36.6 77.35 36.45 77.85 35.75 78.0 35.6 78.15 35.35 78.35 35.2 78.85 34.55 79.0 34.4 79.15 34.15 79.35 33.95 79.75 33.4 80.0 33.15 80.05 33.0 80.3 32.75 80.4 32.55 80.65 32.3 80.75 32.15 81.0 31.9 81.05 31.75 81.3 31.5 81.4 31.3 81.6 31.1 81.7 30.95 81.95 30.7 82.05 30.5 82.3 30.25 82.35 30.1 82.6 29.85 82.7 29.7 82.95 29.45 83.05 29.3 83.2 29.1 83.35 28.85 83.5 28.7 84.0 28.05 84.2 27.85 84.35 27.6 84.5 27.5 85.0 26.8 85.15 26.65 85.3 26.4 85.5 26.25 86.0 25.6 86.15 25.4 86.3 25.15 86.5 25.0 86.95 24.35 87.15 24.15 87.2 24.0 87.45 23.8 87.55 23.6 87.8 23.35 87.9 23.2 88.15 22.95 88.2 22.8 88.45 22.55 88.55 22.35 88.8 22.1 88.85 21.95 89.1 21.7 89.2 21.55 89.45 21.3 89.5 21.15 89.75 20.9 89.85 20.7 90.1 20.45 90.2 20.3 90.45 20.1 90.5 19.9 90.75 19.65 90.85 19.5 91.1 19.25 91.15 19.1 91.4 18.85 91.5 18.65 91.75 18.4 91.85 18.25 92.1 18.0 92.15 17.85 92.4 17.6 92.5 17.45 92.7 17.2 92.8 17.0 93.05 16.75 93.15 16.6 93.4 16.4 93.45 16.2 93.7 15.95 93.8 15.8 94.05 15.55 94.15 15.4 94.35 15.15 94.45 14.95 117.55 -13.9 117.65 -14.05 117.9 -14.3 118.0 -14.45 118.25 -14.7 118.3 -14.9 118.55 -15.1 118.6 -15.3 118.85 -15.55 118.95 -15.7 119.2 -15.95 119.3 -16.1 119.55 -16.35 119.6 -16.55 119.85 -16.8 119.95 -16.9 120.2 -17.15 120.25 -17.35 120.5 -17.6 120.6 -17.75 120.85 -18.0 120.95 -18.15 121.2 -18.4 121.25 -18.6 121.5 -18.8 121.6 -19.0 121.85 -19.25 121.95 -19.4 122.15 -19.65 122.25 -19.8 122.5 -20.05 122.55 -20.25 122.8 -20.45 122.9 -20.6 143.95 -46.95 144.15 -47.1 144.3 -47.35 144.45 -47.5 144.95 -48.2 145.1 -48.35 145.25 -48.6 145.45 -48.75 145.95 -49.4 146.1 -49.6 146.25 -49.85 146.4 -50.0 146.6 -50.2 146.85 -50.45 146.9 -50.65 147.15 -50.9 147.25 -51.05 147.5 -51.3 150.8 -55.5 150.95 -55.15 150.95 -55.1 111.8 43.6 111.9 43.85 110.65 46.0 34.35 150.15 33.75 150.7 33.75 150.55 34.25 148.5 34.35 148.35 34.35 148.1 34.6 147.1 34.7 146.95 34.75 146.6 34.75 146.35 34.85 146.0 34.95 145.9 35.0 145.55 35.0 145.4 35.1 145.2 35.25 144.45 35.25 144.3 35.35 144.15 35.5 143.4 35.5 143.3 35.6 143.05 35.75 142.3 35.75 142.25 35.85 142.0 35.85 141.95 38.65 130.4 38.85 129.4 38.85 129.25 43.5 110.1 43.55 110.0 44.4 106.65 44.4 106.3 44.85 104.6 44.85 104.25 45.35 102.55 45.35 102.2 45.55 101.8 48.4 89.9 48.4 89.65 48.5 89.45 48.5 89.3 48.55 89.15 48.8 88.15 48.8 87.9 48.9 87.55 49.0 87.4 49.05 87.05 49.05 86.9 49.15 86.75 49.25 86.45 49.25 86.2 49.4 85.5 49.5 85.35 49.55 85.0 49.55 84.85 49.65 84.7 49.65 84.45 49.9 83.45 49.95 83.3 50.05 83.0 50.05 82.75 50.3 81.75 50.4 81.55 50.65 80.6 50.65 80.35 50.8 79.65 50.9 79.5 51.15 78.55 51.15 78.3 51.2 77.95 51.3 77.85 51.65 76.45 51.65 76.2 51.7 76.15 53.75 67.5 53.75 67.45 54.1 66.1 54.1 66.05 54.15 65.85 54.15 65.8 54.25 65.55 54.5 65.1 55.5 63.8" fill="#605f5c" fill-rule="evenodd" stroke="none"/>
    <path d="M150.8 -55.5 L147.5 -51.3 147.25 -51.05 147.15 -50.9 146.9 -50.65 146.85 -50.45 146.6 -50.2 146.4 -50.0 146.25 -49.85 146.1 -49.6 145.95 -49.4 145.45 -48.75 145.25 -48.6 145.1 -48.35 144.95 -48.2 144.45 -47.5 144.3 -47.35 144.15 -47.1 143.95 -46.95 122.9 -20.6 122.8 -20.45 122.55 -20.25 122.5 -20.05 122.25 -19.8 122.15 -19.65 121.95 -19.4 121.85 -19.25 121.6 -19.0 121.5 -18.8 121.25 -18.6 121.2 -18.4 120.95 -18.15 120.85 -18.0 120.6 -17.75 120.5 -17.6 120.25 -17.35 120.2 -17.15 119.95 -16.9 119.85 -16.8 119.6 -16.55 119.55 -16.35 119.3 -16.1 119.2 -15.95 118.95 -15.7 118.85 -15.55 118.6 -15.3 118.55 -15.1 118.3 -14.9 118.25 -14.7 118.0 -14.45 117.9 -14.3 117.65 -14.05 117.55 -13.9 94.45 14.95 94.35 15.15 94.15 15.4 94.05 15.55 93.8 15.8 93.7 15.95 93.45 16.2 93.4 16.4 93.15 16.6 93.05 16.75 92.8 17.0 92.7 17.2 92.5 17.45 92.4 17.6 92.15 17.85 92.1 18.0 91.85 18.25 91.75 18.4 91.5 18.65 91.4 18.85 91.15 19.1 91.1 19.25 90.85 19.5 90.75 19.65 90.5 19.9 90.45 20.1 90.2 20.3 90.1 20.45 89.85 20.7 89.75 20.9 89.5 21.15 89.45 21.3 89.2 21.55 89.1 21.7 88.85 21.95 88.8 22.1 88.55 22.35 88.45 22.55 88.2 22.8 88.15 22.95 87.9 23.2 87.8 23.35 87.55 23.6 87.45 23.8 87.2 24.0 87.15 24.15 86.95 24.35 86.5 25.0 86.3 25.15 86.15 25.4 86.0 25.6 85.5 26.25 85.3 26.4 85.15 26.65 85.0 26.8 84.5 27.5 84.35 27.6 84.2 27.85 84.0 28.05 83.5 28.7 83.35 28.85 83.2 29.1 83.05 29.3 82.95 29.45 82.7 29.7 82.6 29.85 82.35 30.1 82.3 30.25 82.05 30.5 81.95 30.7 81.7 30.95 81.6 31.1 81.4 31.3 81.3 31.5 81.05 31.75 81.0 31.9 80.75 32.15 80.65 32.3 80.4 32.55 80.3 32.75 80.05 33.0 80.0 33.15 79.75 33.4 79.35 33.95 79.15 34.15 79.0 34.4 78.85 34.55 78.35 35.2 78.15 35.35 78.0 35.6 77.85 35.75 77.35 36.45 77.2 36.6 77.05 36.85 76.85 37.0 76.35 37.65 76.2 37.85 76.05 38.1 75.85 38.25 75.4 38.9 75.2 39.05 75.05 39.3 74.9 39.45 74.4 40.15 74.2 40.3 74.05 40.55 73.9 40.7 73.4 41.35 73.25 41.55 73.1 41.8 72.9 41.95 72.4 42.6 72.25 42.75 56.95 61.9 56.8 62.15 56.55 62.4 56.45 62.6 56.2 62.8 56.15 63.0 55.9 63.25 55.8 63.4 55.55 63.65 55.5 63.8 54.9 64.25 54.5 65.1 54.25 65.55 54.15 65.8 54.15 65.85 54.1 66.05 54.1 66.1 53.75 66.6 53.75 67.45 53.75 67.5 51.7 76.15 51.65 76.2 51.65 76.45 51.3 77.85 51.2 77.95 51.15 78.3 51.15 78.55 50.9 79.5 50.8 79.65 50.65 80.35 50.65 80.6 50.4 81.55 50.3 81.75 50.05 82.75 50.05 83.0 49.95 83.3 49.9 83.45 49.65 84.45 49.65 84.7 49.55 84.85 49.55 85.0 49.5 85.35 49.4 85.5 49.25 86.2 49.25 86.45 49.15 86.75 49.05 86.9 49.05 87.05 49.0 87.4 48.9 87.55 48.8 87.9 48.8 88.15 48.55 89.15 48.5 89.3 48.5 89.45 48.4 89.65 48.4 89.9 45.55 101.8 45.35 102.2 45.35 102.55 44.85 104.25 44.85 104.6 44.4 106.3 44.4 106.65 43.55 110.0 43.5 110.1 38.85 129.25 38.85 129.4 38.55 129.9 38.65 130.4 38.15 131.65 36.1 140.2 35.85 141.95 35.85 142.0 35.75 142.25 35.75 142.3 35.6 143.05 35.5 143.3 35.5 143.4 35.35 144.15 35.25 144.3 35.25 144.45 35.1 145.2 35.0 145.4 35.0 145.55 34.95 145.9 34.85 146.0 34.75 146.35 34.75 146.6 34.7 146.95 34.6 147.1 34.35 148.1 34.35 148.35 34.25 148.5 33.75 150.55 33.75 150.7 33.7 151.05 34.35 150.15 110.65 46.0 111.9 43.85 111.8 43.6 150.95 -55.1 150.95 -55.15 151.2 -55.9 150.8 -55.5 M151.9 -57.3 L151.7 -55.8 112.05 43.9 111.05 45.65 35.4 149.35 Q33.45 152.2 32.8 152.1 51.0 73.8 53.75 65.3 L57.6 60.1 151.9 -57.3" fill="#626262" fill-rule="evenodd" stroke="none"/>
    <path d="M55.5 63.8 L54.5 65.1 54.9 64.25 55.5 63.8 M54.1 66.1 L53.75 67.45 53.75 66.6 54.1 66.1 M38.85 129.4 L38.65 130.4 35.85 141.95 36.1 140.2 38.15 131.65 38.65 130.4 38.55 129.9 38.85 129.4 M33.75 150.7 L34.35 150.15 33.7 151.05 33.75 150.7 M150.95 -55.15 L150.8 -55.5 151.2 -55.9 150.95 -55.15" fill="#565553" fill-rule="evenodd" stroke="none"/>
    <path d="M32.8 152.1 L31.15 151.15 31.0 150.45 50.2 65.95 51.05 64.0 52.45 61.75 148.95 -57.85 149.4 -58.3 149.85 -58.3 151.9 -57.3 57.6 60.1 53.75 65.3 Q51.0 73.8 32.8 152.1" fill="#ababab" fill-rule="evenodd" stroke="none"/>
  </g>
</svg>
