<?xml version="1.0" encoding="UTF-8" standalone="no"?>
<svg xmlns:ffdec="https://www.free-decompiler.com/flash" xmlns:xlink="http://www.w3.org/1999/xlink" ffdec:objectType="shape" height="267.95px" width="257.7px" xmlns="http://www.w3.org/2000/svg">
  <g transform="matrix(1.0, 0.0, 0.0, 1.0, 155.95, 115.8)">
    <path d="M46.8 -113.5 L47.45 -112.65 98.35 95.8 97.5 96.55 -136.95 149.45 -137.8 149.45 -138.55 148.6 -142.85 97.4 -153.85 -43.95 -127.2 -53.45 46.8 -113.5" fill="#ebe9e1" fill-rule="evenodd" stroke="none"/>
    <path d="M46.8 -113.5 L-127.2 -53.45 -153.85 -43.95 -142.85 97.4 -138.55 148.6 -137.8 149.45 -136.95 149.45 97.5 96.55 98.35 95.8 47.45 -112.65 46.8 -113.5 M47.95 -113.0 L99.0 96.05 97.4 97.3 -137.05 150.05 Q-139.05 150.2 -139.05 148.7 L-154.2 -44.05 -152.85 -44.9 -44.1 -82.8 Q37.65 -111.8 47.05 -114.0 L47.95 -113.0" fill="#d3d0ca" fill-rule="evenodd" stroke="none"/>
    <path d="M47.95 -113.0 L47.05 -114.0 Q37.65 -111.8 -44.1 -82.8 L-152.85 -44.9 -154.2 -44.05 -139.05 148.7 Q-139.05 150.2 -137.05 150.05 L97.4 97.3 99.0 96.05 47.95 -113.0 M-137.7 151.9 L-139.55 151.45 Q-140.4 150.7 -140.75 148.7 L-155.95 -42.1 -155.45 -44.3 -153.5 -46.15 38.3 -113.1 46.3 -115.7 Q48.55 -116.35 49.8 -113.6 L96.45 73.85 101.35 94.1 Q101.8 95.8 100.35 97.9 99.35 99.0 97.4 99.5 L-137.7 151.9" fill="#f0f0f0" fill-rule="evenodd" stroke="none"/>
    <path d="M-137.7 151.9 L97.4 99.5 Q99.35 99.0 100.35 97.9 101.8 95.8 101.35 94.1 L96.45 73.85 99.75 86.3 Q102.8 96.4 101.2 97.9 L99.85 99.25 97.4 100.1 -128.7 150.7 Q-136.35 152.8 -137.7 151.9" fill="#5b5b5b" fill-rule="evenodd" stroke="none"/>
  </g>
</svg>
