<?xml version="1.0" encoding="UTF-8" standalone="no"?>
<svg xmlns:ffdec="https://www.free-decompiler.com/flash" xmlns:xlink="http://www.w3.org/1999/xlink" ffdec:objectType="shape" height="206.1px" width="123.1px" xmlns="http://www.w3.org/2000/svg">
  <g transform="matrix(1.0, 0.0, 0.0, 1.0, -117.2, -4.0)">
    <path d="M118.7 10.6 L118.5 10.6 118.4 10.7 118.2 10.7 117.55 10.85 117.2 10.85 117.2 4.8 120.95 4.0 120.95 10.15 119.0 10.45 118.7 10.6 M117.45 203.2 L120.95 203.9 120.95 210.1 117.2 209.35 117.2 203.2 117.45 203.2" fill="#0b0b0b" fill-rule="evenodd" stroke="none"/>
    <path d="M238.85 10.6 L239.05 10.6 239.1 10.7 239.35 10.7 240.0 10.85 240.3 10.85 240.3 4.8 236.55 4.0 236.55 10.15 238.55 10.45 238.85 10.6 M240.1 203.2 L236.55 203.95 236.55 210.1 240.3 209.35 240.3 203.2 240.1 203.2" fill="#0b0b0b" fill-rule="evenodd" stroke="none"/>
  </g>
</svg>
