<?xml version="1.0" encoding="UTF-8" standalone="no"?>
<svg xmlns:ffdec="https://www.free-decompiler.com/flash" xmlns:xlink="http://www.w3.org/1999/xlink" ffdec:objectType="shape" height="358.1px" width="501.65px" xmlns="http://www.w3.org/2000/svg">
  <g transform="matrix(1.0, 0.0, 0.0, 1.0, 72.05, 72.35)">
    <path d="M227.85 46.85 L227.85 -72.0 229.15 -72.35 229.15 46.85 227.85 46.85 M229.15 166.5 L229.15 285.75 227.85 285.65 228.2 166.4 229.15 166.5" fill="#b6b6b6" fill-rule="evenodd" stroke="none"/>
    <path d="M229.15 46.85 L229.15 -72.35 261.05 -35.0 260.8 59.7 229.15 46.85 M260.6 154.55 L261.05 154.55 261.05 249.25 229.15 285.75 229.15 166.5 260.6 154.55" fill="#9b9b9b" fill-rule="evenodd" stroke="none"/>
    <path d="M329.5 53.5 L329.5 -40.55 428.25 -54.9 428.3 41.7 428.25 48.1 329.5 53.5 M315.95 155.9 L231.25 151.85 231.25 62.4 232.35 62.1 315.95 58.0 315.95 155.9" fill="#0f0f0f" fill-rule="evenodd" stroke="none"/>
    <path d="M396.7 63.65 L406.75 70.4 406.75 143.85 396.7 150.0 396.7 63.65" fill="#121212" fill-rule="evenodd" stroke="none"/>
    <path d="M396.7 150.0 L395.65 150.0 395.65 63.55 396.7 63.65 396.7 150.0" fill="#101010" fill-rule="evenodd" stroke="none"/>
    <path d="M428.25 48.1 L428.3 41.7 428.4 48.35 428.25 48.1 M315.95 58.0 L316.3 58.0 316.3 155.65 315.95 155.9 315.95 58.0" fill="#bbbbbb" fill-rule="evenodd" stroke="none"/>
    <path d="M227.85 46.85 L229.15 46.85 260.8 59.7 259.5 59.7 227.85 46.85 M329.5 53.5 L428.25 48.1 428.4 48.35 330.65 53.75 329.5 53.5" fill="#060606" fill-rule="evenodd" stroke="none"/>
    <path d="M340.75 165.8 L339.95 166.05 339.9 171.85 339.8 165.8 340.75 165.8 M260.6 154.55 L229.15 166.5 228.2 166.4 259.25 154.7 260.6 154.55" fill="#000000" fill-rule="evenodd" stroke="none"/>
    <path d="M339.9 171.85 L339.95 166.05 340.75 165.8 429.6 165.0 429.6 256.5 339.95 259.05 339.9 171.85" fill="#171717" fill-rule="evenodd" stroke="none"/>
    <path d="M-70.85 48.35 L-70.75 48.1 -70.75 41.7 -70.85 48.35 M41.6 58.0 L41.25 58.0 41.25 155.65 41.6 155.9 41.6 58.0" fill="#bbbbbb" fill-rule="evenodd" stroke="none"/>
    <path d="M-70.75 48.1 L-70.85 48.35 26.9 53.75 28.05 53.55 -70.75 48.1 M96.7 59.7 L98.05 59.7 129.65 46.85 128.4 46.85 96.7 59.7" fill="#060606" fill-rule="evenodd" stroke="none"/>
    <path d="M-39.2 150.0 L-38.15 150.0 -38.15 63.55 -39.2 63.65 -39.2 150.0" fill="#101010" fill-rule="evenodd" stroke="none"/>
    <path d="M-39.2 63.65 L-49.2 70.4 -49.2 143.85 -39.2 150.0 -39.2 63.65" fill="#121212" fill-rule="evenodd" stroke="none"/>
    <path d="M-70.75 41.7 L-70.75 48.1 28.05 53.55 28.05 -40.55 -70.75 -54.9 -70.75 41.7 M41.6 155.9 L126.3 151.9 126.3 62.4 125.2 62.1 41.6 58.0 41.6 155.9" fill="#0f0f0f" fill-rule="evenodd" stroke="none"/>
    <path d="M16.75 165.8 L-72.05 165.0 -72.05 256.5 17.6 259.05 17.6 171.85 17.6 166.05 16.75 165.8" fill="#171717" fill-rule="evenodd" stroke="none"/>
    <path d="M128.4 285.75 L129.65 285.65 129.35 166.4 128.4 166.5 128.4 285.75 M128.4 46.85 L129.65 46.85 129.65 -72.0 128.4 -72.35 128.4 46.85" fill="#b6b6b6" fill-rule="evenodd" stroke="none"/>
    <path d="M96.95 154.55 L96.5 154.55 96.5 249.25 128.4 285.75 128.4 166.5 96.95 154.55 M96.7 59.7 L128.4 46.85 128.4 -72.35 96.5 -35.0 96.7 59.7" fill="#9b9b9b" fill-rule="evenodd" stroke="none"/>
    <path d="M17.6 171.85 L17.7 165.8 16.75 165.8 17.6 166.05 17.6 171.85 M129.35 166.4 L98.25 154.7 96.95 154.55 128.4 166.5 129.35 166.4" fill="#000000" fill-rule="evenodd" stroke="none"/>
  </g>
</svg>
