<?xml version="1.0" encoding="UTF-8" standalone="no"?>
<svg xmlns:ffdec="https://www.free-decompiler.com/flash" xmlns:xlink="http://www.w3.org/1999/xlink" ffdec:objectType="shape" height="78.95px" width="476.95px" xmlns="http://www.w3.org/2000/svg">
  <g transform="matrix(1.0, 0.0, 0.0, 1.0, -74.25, -344.65)">
    <path d="M336.25 385.15 L335.25 419.0 317.15 420.55 317.15 414.45 317.0 414.45 Q314.55 417.85 310.8 419.2 307.05 420.55 302.75 420.55 299.15 420.55 295.9 419.25 292.7 417.95 290.25 415.55 287.8 413.1 286.35 409.7 284.95 406.25 284.95 402.05 284.95 398.35 286.35 395.3 287.8 392.15 290.3 389.9 292.8 387.6 296.15 386.25 299.5 385.0 303.5 385.0 307.65 385.0 310.45 386.2 313.3 387.4 315.3 388.95 L315.3 386.25 Q315.3 382.1 312.55 380.8 309.9 379.4 305.55 379.4 L298.2 380.2 291.25 382.15 294.75 367.95 Q299.05 366.65 303.75 366.2 L313.3 365.7 Q317.7 365.7 321.9 366.7 326.2 367.75 329.35 370.1 332.55 372.45 334.45 376.1 336.35 379.75 336.25 385.15 M358.9 393.4 Q358.95 395.05 359.85 396.8 361.65 400.4 364.95 401.15 368.3 402.0 372.0 400.2 L376.6 397.85 388.85 414.05 Q386.6 416.0 384.05 417.35 381.45 418.65 378.75 419.45 376.05 420.3 373.25 420.6 L367.85 420.9 Q361.75 420.9 356.55 418.85 351.4 416.75 347.55 413.1 343.75 409.5 341.6 404.55 339.45 399.7 339.45 393.95 339.45 387.4 341.7 382.15 343.9 376.85 347.9 373.2 351.9 369.55 357.4 367.65 362.9 365.7 369.3 365.7 375.7 365.7 380.45 367.75 385.15 369.85 388.4 372.0 L376.5 387.6 Q375.25 386.6 373.6 385.95 371.9 385.35 370.2 385.1 L366.9 384.85 Q365.35 385.0 364.35 385.55 362.65 386.4 361.4 387.65 360.2 388.85 359.5 390.25 358.85 391.7 358.9 393.4 M392.85 362.1 L412.55 353.4 412.55 368.0 420.05 366.95 419.0 383.3 412.9 383.3 412.9 399.15 Q412.9 401.85 413.65 402.75 414.45 403.7 417.15 403.7 L419.0 403.6 420.4 403.3 417.2 421.0 414.5 421.2 411.65 421.25 Q402.95 421.25 398.05 417.35 393.25 413.45 393.25 404.6 L393.25 383.3 388.1 383.35 388.65 368.0 392.85 368.0 392.85 362.1 M422.1 382.9 Q424.25 377.6 427.95 373.9 431.65 370.3 436.55 368.35 441.5 366.4 447.0 366.4 456.0 366.4 462.65 370.95 469.25 375.5 472.5 383.05 L445.6 403.15 Q446.6 403.7 448.2 403.85 L451.2 404.05 Q455.3 404.05 458.15 402.55 461.0 401.1 463.3 398.95 L472.25 413.75 Q466.75 417.75 461.0 419.5 455.25 421.25 447.75 421.25 441.65 421.25 436.55 419.15 431.45 417.05 427.75 413.45 424.1 409.85 422.0 405.1 419.95 400.3 419.95 394.95 419.95 388.2 422.1 382.9 M439.7 394.65 L453.15 384.45 Q451.9 383.0 450.4 382.4 L447.0 381.9 Q445.2 381.9 443.75 382.65 442.25 383.4 441.15 384.7 440.1 386.0 439.5 387.65 438.95 389.25 438.95 390.95 438.95 392.6 439.15 393.25 L439.7 394.65 M512.7 367.1 L508.05 386.2 506.65 386.1 504.85 386.1 Q501.1 386.1 498.35 388.6 495.6 391.05 495.6 396.4 L495.6 419.65 476.6 421.25 476.1 368.4 494.2 366.75 494.2 376.75 494.4 376.75 Q496.95 366.75 508.1 366.75 L512.7 367.1 M515.7 371.65 Q518.35 369.25 522.55 367.85 526.7 366.4 532.55 366.4 L537.1 366.6 541.35 367.05 545.05 367.75 547.95 368.3 547.95 384.2 543.55 383.3 538.9 382.95 537.15 383.0 534.85 383.25 Q533.65 383.45 532.75 384.05 531.85 384.55 531.85 385.45 531.85 386.9 533.3 387.6 534.75 388.35 536.85 388.95 L541.5 390.5 Q544.05 391.35 546.15 393.05 548.3 394.7 549.75 397.5 551.2 400.3 551.2 404.75 551.2 409.65 549.05 412.9 546.9 416.1 543.45 418.05 539.95 420.0 535.4 420.8 L525.95 421.6 518.5 421.15 511.1 419.7 511.1 402.75 516.05 403.95 521.5 404.4 524.15 404.35 526.7 404.05 Q527.85 403.85 528.6 403.3 529.4 402.75 529.4 401.7 529.4 400.35 528.0 399.7 526.55 399.0 524.55 398.35 L520.05 396.85 Q517.6 396.05 515.6 394.35 513.55 392.75 512.15 389.9 510.75 387.15 510.75 382.65 510.75 379.7 511.95 376.8 513.15 373.95 515.7 371.65 M80.15 367.0 Q83.15 361.15 87.25 356.5 91.35 351.8 95.6 349.0 L97.4 348.0 Q99.2 347.05 102.35 346.05 105.5 345.15 109.75 344.75 114.05 344.3 119.05 345.55 124.05 346.75 129.5 350.05 134.95 353.4 140.35 359.9 L124.55 379.25 Q119.75 374.1 116.1 372.7 112.45 371.25 109.75 372.0 107.1 372.8 105.3 375.15 103.5 377.55 102.4 380.0 101.35 382.5 100.9 384.45 L100.45 386.45 100.85 388.8 Q101.3 390.95 102.75 393.6 104.2 396.25 107.0 397.5 109.7 398.75 114.45 397.15 119.15 395.55 126.1 389.15 L143.65 407.85 Q142.3 410.5 139.0 413.15 135.65 415.9 131.05 418.15 126.45 420.35 120.95 421.85 115.45 423.35 109.75 423.6 104.05 423.8 98.5 422.35 92.95 420.9 88.3 417.3 81.55 412.1 78.3 405.8 75.1 399.5 74.45 392.8 73.8 386.2 75.5 379.5 77.15 372.85 80.15 367.0 M177.55 366.75 Q181.3 366.75 184.25 368.1 187.15 369.5 189.15 371.9 191.1 374.35 192.15 377.6 193.2 380.9 193.1 384.75 L192.55 419.65 173.6 421.25 173.6 388.4 Q173.6 386.85 172.5 385.8 171.45 384.7 169.65 384.7 167.9 384.7 166.75 385.75 165.5 386.75 165.5 388.55 L165.5 421.25 146.45 419.65 145.8 348.7 166.1 347.05 165.5 372.4 165.7 372.4 Q167.9 369.4 170.9 368.1 173.85 366.75 177.55 366.75 M200.4 389.9 Q202.9 387.6 206.25 386.25 209.6 385.0 213.6 385.0 217.75 385.0 220.55 386.2 223.4 387.4 225.4 388.95 L225.4 386.25 Q225.4 382.1 222.65 380.8 220.0 379.4 215.65 379.4 L208.3 380.2 Q204.85 381.05 201.35 382.15 L204.85 367.95 Q209.15 366.65 213.85 366.2 L223.4 365.7 Q227.8 365.7 232.0 366.7 236.3 367.75 239.45 370.1 242.65 372.45 244.55 376.1 246.45 379.75 246.35 385.15 L245.35 419.0 227.25 420.55 227.25 414.45 227.1 414.45 Q224.65 417.85 220.9 419.2 217.15 420.55 212.85 420.55 209.25 420.55 206.0 419.25 202.8 417.95 200.35 415.55 197.9 413.1 196.45 409.7 195.05 406.25 195.05 402.05 195.05 398.35 196.45 395.3 197.9 392.15 200.4 389.9 M275.0 388.6 Q272.25 391.05 272.25 396.4 L272.25 419.65 253.25 421.25 252.75 368.4 270.85 366.75 270.85 376.75 271.05 376.75 Q273.6 366.75 284.75 366.75 L289.35 367.1 284.7 386.2 283.3 386.1 281.5 386.1 Q277.75 386.1 275.0 388.6 M305.75 397.8 Q302.65 398.25 300.7 399.9 298.7 401.55 299.0 403.65 299.35 405.7 301.55 406.75 303.75 407.75 307.3 407.25 310.75 406.7 312.45 405.0 314.2 403.3 313.85 401.3 313.55 399.6 311.55 398.35 309.5 397.15 305.75 397.8 M211.65 406.75 Q213.85 407.75 217.4 407.25 220.85 406.7 222.55 405.0 224.3 403.3 223.95 401.3 223.65 399.6 221.65 398.35 219.6 397.15 215.85 397.8 212.75 398.25 210.8 399.9 208.8 401.55 209.1 403.65 209.45 405.7 211.65 406.75" fill="#00ff00" fill-rule="evenodd" stroke="none"/>
  </g>
</svg>
