<?xml version="1.0" encoding="UTF-8" standalone="no"?>
<svg xmlns:ffdec="https://www.free-decompiler.com/flash" xmlns:xlink="http://www.w3.org/1999/xlink" ffdec:objectType="shape" height="91.75px" width="445.9px" xmlns="http://www.w3.org/2000/svg">
  <g transform="matrix(1.0, 0.0, 0.0, 1.0, -107.4, -345.6)">
    <path d="M341.75 366.3 Q350.75 366.3 357.4 370.85 364.0 375.4 367.25 382.95 L340.35 403.05 Q341.35 403.6 342.95 403.75 L345.95 403.95 Q350.05 403.95 352.9 402.45 355.75 401.0 358.05 398.85 L367.0 413.65 Q361.5 417.65 355.75 419.4 350.0 421.15 342.5 421.15 336.4 421.15 331.3 419.05 326.2 416.95 322.5 413.35 318.85 409.75 316.75 405.0 314.7 400.2 314.7 394.85 314.7 388.1 316.85 382.8 319.0 377.5 322.7 373.8 326.4 370.2 331.3 368.25 336.25 366.3 341.75 366.3 M334.45 394.55 L347.9 384.35 Q346.65 382.9 345.15 382.3 L341.75 381.8 Q339.95 381.8 338.5 382.55 337.0 383.3 335.9 384.6 334.85 385.9 334.25 387.55 333.7 389.15 333.7 390.85 L333.9 393.15 334.45 394.55 M401.15 366.65 Q406.55 366.65 411.0 369.05 415.4 371.45 418.55 375.3 421.65 379.2 423.35 384.05 425.05 389.0 425.05 394.05 425.05 399.45 423.25 404.4 421.5 409.4 418.2 413.3 414.9 417.15 410.3 419.5 405.7 421.85 400.2 421.85 L394.25 421.0 Q391.05 420.25 388.5 417.75 L389.05 435.7 370.05 437.35 369.1 368.3 387.75 366.65 387.75 372.75 Q390.6 369.65 393.7 368.15 396.8 366.65 401.15 366.65 M387.35 391.9 Q385.95 395.25 387.45 398.3 388.15 399.85 389.4 400.9 390.7 401.9 392.35 402.35 L395.95 402.65 Q397.9 402.45 399.95 401.45 404.0 399.6 405.4 396.15 406.8 392.7 405.35 389.8 403.9 386.7 400.45 385.65 396.95 384.65 392.9 386.5 388.8 388.5 387.35 391.9 M479.15 365.6 Q483.55 365.6 487.75 366.6 492.05 367.65 495.2 370.0 498.4 372.35 500.3 376.0 502.2 379.65 502.1 385.05 L501.1 418.9 483.0 420.45 483.0 414.35 482.85 414.35 Q480.4 417.75 476.65 419.1 472.9 420.45 468.6 420.45 465.0 420.45 461.75 419.15 458.55 417.85 456.1 415.45 453.65 413.0 452.2 409.6 450.8 406.15 450.8 401.95 450.8 398.25 452.2 395.2 453.65 392.05 456.15 389.8 458.65 387.5 462.0 386.15 465.35 384.9 469.35 384.9 473.5 384.9 476.3 386.1 479.15 387.3 481.15 388.85 L481.15 386.15 Q481.15 382.0 478.4 380.7 475.75 379.3 471.4 379.3 L464.05 380.1 457.1 382.05 460.6 367.85 Q464.9 366.55 469.6 366.1 L479.15 365.6 M448.2 347.35 L447.4 419.9 428.5 421.5 427.85 348.95 448.2 347.35 M524.2 367.35 L530.2 387.2 530.4 387.2 534.75 367.35 553.3 369.0 534.05 436.95 513.7 435.35 521.45 414.15 504.55 369.8 524.2 367.35 M151.5 345.65 Q154.85 345.85 158.95 346.95 163.1 348.05 168.0 350.75 172.85 353.4 177.6 358.1 L160.75 375.8 Q159.55 372.75 156.75 371.35 154.05 369.95 150.6 369.95 147.3 369.95 143.7 371.4 140.05 372.85 137.15 375.45 134.15 378.05 132.2 381.8 130.25 385.6 130.25 390.4 130.2 394.8 131.7 397.45 133.15 400.1 135.45 401.3 137.75 402.45 140.5 402.3 143.35 402.15 146.0 401.0 148.75 399.75 150.95 397.75 153.15 395.7 154.2 393.05 L141.45 395.55 142.9 381.05 182.15 376.05 Q182.9 381.75 181.6 387.25 180.35 392.8 178.0 397.4 175.7 402.0 173.2 405.65 L169.05 411.2 167.2 413.25 Q163.95 416.5 159.3 418.9 154.65 421.35 149.35 422.6 144.05 423.9 138.35 423.75 132.7 423.6 127.6 421.75 122.45 419.9 118.05 416.15 113.7 412.35 111.05 406.35 107.95 399.6 107.5 392.85 107.05 386.15 108.55 379.9 110.1 373.65 113.5 368.05 116.85 362.5 121.55 358.05 126.3 353.55 132.15 350.45 138.0 347.3 144.5 345.9 L146.45 345.7 Q148.2 345.5 151.5 345.65 M201.3 366.1 L210.85 365.6 Q215.25 365.6 219.45 366.6 223.75 367.65 226.9 370.0 230.1 372.35 232.0 376.0 233.9 379.65 233.8 385.05 L232.8 418.9 214.7 420.45 214.7 414.35 214.55 414.35 Q212.1 417.75 208.35 419.1 204.6 420.45 200.3 420.45 196.7 420.45 193.45 419.15 190.25 417.85 187.8 415.45 185.35 413.0 183.9 409.6 182.5 406.15 182.5 401.95 182.5 398.25 183.9 395.2 185.35 392.05 187.85 389.8 190.35 387.5 193.7 386.15 197.05 384.9 201.05 384.9 205.2 384.9 208.0 386.1 210.85 387.3 212.85 388.85 L212.85 386.15 Q212.85 382.0 210.1 380.7 207.45 379.3 203.1 379.3 L195.75 380.1 188.8 382.05 192.3 367.85 Q196.6 366.55 201.3 366.1 M278.9 368.0 Q281.7 369.25 284.0 372.05 286.35 369.65 289.3 368.15 292.25 366.65 295.85 366.65 299.85 366.65 302.9 368.05 306.05 369.45 308.1 372.0 310.2 374.55 311.35 377.9 312.45 381.3 312.55 385.15 L313.05 419.55 293.75 421.15 294.25 388.45 Q294.25 386.75 293.05 385.7 291.85 384.6 289.8 384.6 287.75 384.6 286.55 385.95 285.3 387.3 285.3 388.7 L285.8 419.55 266.15 421.15 266.5 388.65 Q266.6 386.85 265.2 385.75 263.9 384.6 261.75 384.6 260.05 384.6 258.55 385.7 257.05 386.75 257.15 388.7 L258.05 421.15 239.15 419.55 238.05 368.3 256.4 366.65 256.4 375.0 256.6 375.0 Q259.45 371.1 263.1 368.85 266.75 366.65 271.85 366.65 276.05 366.65 278.9 368.0 M203.3 397.7 Q200.2 398.15 198.25 399.8 196.25 401.45 196.55 403.55 196.9 405.6 199.1 406.65 201.3 407.65 204.85 407.15 208.3 406.6 210.0 404.9 211.75 403.2 211.4 401.2 211.1 399.5 209.1 398.25 207.05 397.05 203.3 397.7 M479.7 401.2 Q479.4 399.5 477.4 398.25 475.35 397.05 471.6 397.7 468.5 398.15 466.55 399.8 464.55 401.45 464.85 403.55 465.2 405.6 467.4 406.65 469.6 407.65 473.15 407.15 476.6 406.6 478.3 404.9 480.05 403.2 479.7 401.2" fill="#00ff00" fill-rule="evenodd" stroke="none"/>
  </g>
</svg>
