<?xml version="1.0" encoding="UTF-8" standalone="no"?>
<svg xmlns:ffdec="https://www.free-decompiler.com/flash" xmlns:xlink="http://www.w3.org/1999/xlink" ffdec:objectType="shape" height="43.0px" width="548.85px" xmlns="http://www.w3.org/2000/svg">
  <g transform="matrix(1.0, 0.0, 0.0, 1.0, -45.0, -114.0)">
    <path d="M538.1 128.75 L570.85 129.0 Q579.7 129.4 584.3 133.25 L586.1 135.1 Q588.15 135.7 589.75 137.15 592.3 139.45 592.75 143.1 593.85 144.85 593.85 147.25 593.85 149.8 592.1 151.9 589.9 154.5 585.85 155.0 L198.15 155.0 179.0 157.0 62.0 157.0 Q49.95 156.85 49.1 148.75 47.3 147.6 46.25 145.5 45.0 143.05 45.0 140.6 45.0 137.8 46.25 135.8 46.0 134.5 46.0 130.85 46.0 123.15 50.9 119.85 57.6 115.3 77.0 114.25 L77.0 114.0 145.0 114.0 183.95 117.5 244.0 122.75 340.0 123.0 345.25 123.75 428.85 124.0 442.4 124.9 455.6 125.75 524.85 126.0 530.6 127.05 538.1 128.75" fill="#00ff00" fill-rule="evenodd" stroke="none"/>
  </g>
</svg>
