<?xml version="1.0" encoding="UTF-8" standalone="no"?>
<svg xmlns:ffdec="https://www.free-decompiler.com/flash" xmlns:xlink="http://www.w3.org/1999/xlink" ffdec:objectType="shape" height="249.1px" width="258.0px" xmlns="http://www.w3.org/2000/svg">
  <g transform="matrix(1.0, 0.0, 0.0, 1.0, 126.35, 95.15)">
    <path d="M131.65 111.2 Q131.8 112.7 130.95 114.05 L128.85 115.4 -86.5 153.9 Q-90.2 154.25 -91.05 151.05 L-125.85 -61.95 Q-126.85 -64.8 -125.85 -68.25 L-124.75 -69.45 Q-123.9 -69.75 -123.15 -70.1 L99.75 -93.9 Q113.4 -96.25 115.0 -94.25 L115.75 -93.25 116.25 -91.3 131.65 111.2 M112.05 -92.7 L-122.4 -68.1 -124.0 -67.1 -89.1 150.7 Q-88.85 152.3 -86.75 152.15 L127.95 113.95 Q129.45 113.7 129.8 112.8 L114.4 -91.8 113.8 -92.9 112.75 -92.75 112.05 -92.7" fill="#efefef" fill-rule="evenodd" stroke="none"/>
    <path d="M112.05 -92.7 L112.75 -92.75 Q113.45 -92.7 113.8 -91.9 L129.45 112.6 128.6 113.3 -86.4 151.55 Q-88.0 152.15 -88.6 150.05 L-123.65 -66.5 -122.9 -67.35 111.8 -92.65 112.05 -92.7" fill="#eae8e0" fill-rule="evenodd" stroke="none"/>
    <path d="M112.75 -92.75 L113.8 -92.9 114.4 -91.8 129.8 112.8 Q129.45 113.7 127.95 113.95 L-86.75 152.15 Q-88.85 152.3 -89.1 150.7 L-124.0 -67.1 -122.4 -68.1 112.05 -92.7 111.8 -92.65 -122.9 -67.35 -123.65 -66.5 -88.6 150.05 Q-88.0 152.15 -86.4 151.55 L128.6 113.3 129.45 112.6 113.8 -91.9 Q113.45 -92.7 112.75 -92.75" fill="#d2cfca" fill-rule="evenodd" stroke="none"/>
  </g>
</svg>
