<?xml version="1.0" encoding="UTF-8" standalone="no"?>
<svg xmlns:ffdec="https://www.free-decompiler.com/flash" xmlns:xlink="http://www.w3.org/1999/xlink" ffdec:objectType="shape" height="244.15px" width="236.6px" xmlns="http://www.w3.org/2000/svg">
  <g transform="matrix(1.0, 0.0, 0.0, 1.0, 106.8, 95.25)">
    <path d="M-93.3 -55.15 L108.75 -95.0 108.85 -95.0 109.35 -95.1 Q112.3 -96.0 113.3 -92.15 L129.55 84.45 Q130.2 88.75 129.2 90.0 L127.5 91.35 -55.05 148.6 Q-58.15 149.8 -59.75 145.9 L-75.9 78.9 -75.9 78.8 -82.05 53.25 -82.05 53.15 -103.35 -35.4 -105.75 -45.9 Q-107.35 -51.1 -105.0 -52.3 L-103.55 -53.05 -93.3 -55.15 M110.7 -93.4 L-102.55 -51.2 Q-104.0 -50.85 -104.15 -50.0 -102.1 -37.8 -75.9 70.15 L-60.6 133.55 -60.75 134.15 -57.5 146.6 -55.9 147.25 127.25 90.0 128.35 89.0 111.8 -91.8 Q111.55 -93.0 110.7 -93.4" fill="#e1e1e1" fill-rule="evenodd" stroke="none"/>
    <path d="M110.7 -93.4 Q111.55 -93.0 111.8 -91.8 L128.35 89.0 127.25 90.0 -55.9 147.25 -57.5 146.6 -60.75 134.15 -60.6 133.55 -75.9 70.15 Q-102.1 -37.8 -104.15 -50.0 -104.0 -50.85 -102.55 -51.2 L110.7 -93.4 M110.7 -92.75 L-102.55 -50.6 -103.4 -50.1 -103.65 -48.6 -57.15 146.1 -56.4 146.75 -55.65 146.75 127.85 89.15 111.3 -91.8 110.7 -92.75" fill="#c6c3be" fill-rule="evenodd" stroke="none"/>
    <path d="M110.7 -92.75 L111.3 -91.8 127.85 89.15 -55.65 146.75 -56.4 146.75 -57.15 146.1 -103.65 -48.6 -103.4 -50.1 -102.55 -50.6 110.7 -92.75" fill="#dddad3" fill-rule="evenodd" stroke="none"/>
    <path d="M-93.3 -55.15 L-103.55 -53.05 -105.0 -52.3 Q-107.35 -51.1 -105.75 -45.9 L-103.35 -35.4 -106.6 -48.35 Q-107.45 -50.2 -105.0 -52.7 L-103.3 -53.3 -93.3 -55.15" fill="#6e6e6e" fill-rule="evenodd" stroke="none"/>
  </g>
</svg>
