<?xml version="1.0" encoding="UTF-8" standalone="no"?>
<svg xmlns:ffdec="https://www.free-decompiler.com/flash" xmlns:xlink="http://www.w3.org/1999/xlink" ffdec:objectType="shape" height="157.65px" width="112.05px" xmlns="http://www.w3.org/2000/svg">
  <g transform="matrix(1.0, 0.0, 0.0, 1.0, 74.45, 43.95)">
    <path d="M-58.65 47.7 L-42.95 -28.75 -42.5 -29.85 -41.85 -30.25 36.95 -42.35 Q37.05 -40.6 36.6 -40.35 L36.7 -41.95 36.1 -41.95 -42.0 -29.85 -42.5 -29.5 -57.5 42.4 -57.5 43.65 -58.65 47.7 M4.5 73.5 Q4.5 74.35 0.45 76.2 L-7.2 79.95 3.65 74.35 4.5 73.5 M-69.4 111.35 L-71.85 112.6 -72.1 111.95 -69.1 98.3 -71.85 112.2 -69.4 111.35" fill="#72706d" fill-rule="evenodd" stroke="none"/>
    <path d="M-58.65 47.7 L-57.5 43.65 -57.5 42.4 -42.5 -29.5 -42.0 -29.85 36.1 -41.95 36.7 -41.95 36.6 -40.35 36.6 -40.25 28.45 -11.6 28.45 -11.5 23.5 6.0 23.4 6.75 21.8 12.45 21.65 12.7 21.55 13.3 21.4 13.55 21.3 14.15 21.15 14.4 21.05 15.0 20.9 15.25 20.8 15.65 20.8 15.9 20.65 16.15 19.7 19.6 19.7 19.85 19.55 20.1 19.45 20.45 19.45 20.7 19.3 20.95 6.0 68.2 5.85 68.8 4.5 73.5 3.65 74.35 -7.2 79.95 -69.4 111.35 -71.85 112.2 -69.1 98.3 -61.85 63.35 -61.85 63.25 -58.65 47.85 -58.65 47.7" fill="#7f7e79" fill-rule="evenodd" stroke="none"/>
    <path d="M36.6 -40.35 Q37.05 -40.6 36.95 -42.35 L-41.85 -30.25 -42.5 -29.85 -42.95 -28.75 -58.65 47.7 -58.65 47.85 -61.85 63.25 -61.85 63.35 -69.1 98.3 -72.1 111.95 -71.85 112.6 -69.4 111.35 -7.2 79.95 0.45 76.2 Q4.5 74.35 4.5 73.5 L5.85 68.8 6.0 68.2 19.3 20.95 19.45 20.7 19.45 20.45 19.55 20.1 19.7 19.85 19.7 19.6 20.65 16.15 20.8 15.9 20.8 15.65 20.9 15.25 21.05 15.0 21.15 14.4 21.3 14.15 21.4 13.55 21.55 13.3 21.65 12.7 21.8 12.45 23.4 6.75 23.5 6.0 28.45 -11.5 28.45 -11.6 36.6 -40.25 36.6 -40.35 M37.05 -43.3 L37.3 -43.3 Q37.95 -42.1 37.3 -40.5 L5.15 73.5 4.15 74.85 -71.6 113.55 -72.3 113.7 -72.8 113.3 -72.95 112.45 -71.45 104.55 -43.6 -29.75 -41.75 -31.5 37.05 -43.3" fill="#828282" fill-rule="evenodd" stroke="none"/>
    <path d="M-72.8 113.3 Q-74.8 112.7 -74.4 111.35 L-45.3 -30.6 -43.45 -32.35 32.25 -43.55 Q36.45 -44.45 37.05 -43.3 L-41.75 -31.5 -43.6 -29.75 -71.45 104.55 -72.95 112.45 -72.8 113.3" fill="#b4b4b4" fill-rule="evenodd" stroke="none"/>
  </g>
</svg>
