<?xml version="1.0" encoding="UTF-8" standalone="no"?>
<svg xmlns:ffdec="https://www.free-decompiler.com/flash" xmlns:xlink="http://www.w3.org/1999/xlink" ffdec:objectType="shape" height="272.35px" width="289.85px" xmlns="http://www.w3.org/2000/svg">
  <g transform="matrix(1.0, 0.0, 0.0, 1.0, 155.2, 100.8)">
    <path d="M99.1 -99.95 Q111.05 -101.65 112.45 -99.95 L113.65 -98.55 114.15 -96.7 133.75 139.85 Q135.6 154.65 133.75 156.35 132.8 157.6 130.8 157.85 L-141.15 171.55 Q-144.85 171.55 -145.7 167.35 L-154.7 -61.7 Q-155.95 -74.9 -154.2 -76.25 L-152.75 -77.5 -151.4 -77.85 99.1 -99.95 M111.8 -96.7 L111.05 -98.2 -151.25 -75.9 -152.6 -75.15 -143.6 167.35 Q-143.1 169.05 -142.25 169.2 L-140.55 169.3 130.45 155.6 132.05 154.65 111.8 -96.7" fill="#fcfcfc" fill-rule="evenodd" stroke="none"/>
    <path d="M110.6 -97.7 L111.2 -96.45 131.55 154.15 130.55 154.9 -141.9 168.55 Q-142.85 168.2 -143.0 167.2 L-152.1 -74.9 -151.15 -75.25 110.6 -97.7" fill="#f7f4ec" fill-rule="evenodd" stroke="none"/>
    <path d="M111.8 -96.7 L132.05 154.65 130.45 155.6 -140.55 169.3 -142.25 169.2 Q-143.1 169.05 -143.6 167.35 L-152.6 -75.15 -151.25 -75.9 111.05 -98.2 111.8 -96.7 M110.6 -97.7 L-151.15 -75.25 -152.1 -74.9 -143.0 167.2 Q-142.85 168.2 -141.9 168.55 L130.55 154.9 131.55 154.15 111.2 -96.45 110.6 -97.7" fill="#dddad4" fill-rule="evenodd" stroke="none"/>
  </g>
</svg>
