<?xml version="1.0" encoding="UTF-8" standalone="no"?>
<svg xmlns:ffdec="https://www.free-decompiler.com/flash" xmlns:xlink="http://www.w3.org/1999/xlink" ffdec:objectType="shape" height="297.2px" width="505.35px" xmlns="http://www.w3.org/2000/svg">
  <g transform="matrix(1.0, 0.0, 0.0, 1.0, 73.9, 41.7)">
    <path d="M281.3 37.25 L281.1 37.2 281.1 -41.5 281.95 -41.7 281.95 37.05 281.3 37.25 M281.95 255.5 L281.1 255.45 281.3 176.55 281.55 176.55 281.95 176.6 281.95 255.5" fill="#101010" fill-rule="evenodd" stroke="none"/>
    <path d="M422.95 32.55 L414.5 32.95 414.1 33.0 413.05 33.0 412.75 33.05 411.7 33.05 411.25 33.15 410.2 33.15 409.75 33.25 408.75 33.25 408.35 33.3 407.3 33.3 406.9 33.45 404.45 33.45 404.05 33.5 402.95 33.5 402.6 33.65 401.55 33.65 401.15 33.7 400.15 33.7 399.75 33.75 398.65 33.75 398.25 33.9 397.25 33.9 396.85 33.95 395.75 33.95 395.45 34.05 394.35 34.05 393.95 34.1 392.9 34.1 392.5 34.15 391.4 34.15 391.1 34.25 390.0 34.25 389.65 34.35 388.6 34.35 388.2 34.4 387.1 34.4 386.8 34.5 377.45 34.95 377.45 -16.05 431.35 -21.15 431.45 31.95 422.95 32.55 M329.15 125.0 L329.1 132.55 280.85 131.7 280.85 82.45 329.1 81.5 329.15 125.0" fill="#a6a6a6" fill-rule="evenodd" stroke="none"/>
    <path d="M281.95 37.05 L281.95 -41.7 307.45 -20.7 307.45 47.1 307.15 47.15 295.0 42.25 294.75 42.4 294.6 42.1 294.35 42.2 294.25 41.95 294.0 42.0 293.85 41.8 293.4 41.8 281.95 37.05 M307.05 167.15 L307.45 167.1 307.45 234.95 281.95 255.5 281.95 176.6 307.05 167.15" fill="#121212" fill-rule="evenodd" stroke="none"/>
    <path d="M281.3 37.25 L281.95 37.05 293.4 41.8 293.85 41.8 294.0 42.0 294.25 41.95 294.35 42.2 294.6 42.1 294.75 42.4 295.0 42.25 307.15 47.15 306.6 47.3 281.3 37.25 M422.95 32.55 L431.45 31.95 430.35 32.25 422.95 32.55" fill="#060606" fill-rule="evenodd" stroke="none"/>
    <path d="M344.05 93.0 L344.05 121.25 343.7 121.25 343.7 93.0 344.05 93.0" fill="#959595" fill-rule="evenodd" stroke="none"/>
    <path d="M344.05 93.0 L351.55 93.85 351.55 120.55 344.05 121.25 344.05 93.0" fill="#bbbbbb" fill-rule="evenodd" stroke="none"/>
    <path d="M329.1 132.55 L329.15 125.0 329.25 131.25 329.1 132.55" fill="#111111" fill-rule="evenodd" stroke="none"/>
    <path d="M281.55 176.55 L306.6 167.05 307.05 167.15 281.95 176.6 281.55 176.55 M374.9 183.95 L374.8 192.3 374.7 184.05 374.9 183.95" fill="#000000" fill-rule="evenodd" stroke="none"/>
    <path d="M374.9 183.95 L382.3 183.7 382.7 183.55 384.75 183.55 385.25 183.5 387.15 183.5 387.65 183.45 389.7 183.45 390.1 183.35 392.15 183.35 392.6 183.3 394.65 183.3 395.05 183.2 397.05 183.2 397.5 183.1 399.55 183.1 400.0 183.05 402.0 183.05 402.4 182.95 404.45 182.95 404.85 182.9 406.9 182.9 407.4 182.85 409.4 182.85 409.75 182.75 412.0 182.75 412.25 182.65 415.5 182.65 415.5 225.9 374.9 227.9 374.8 192.3 374.9 183.95" fill="#e5e5e5" fill-rule="evenodd" stroke="none"/>
    <path d="M-65.45 32.55 L-57.0 32.95 -56.55 33.05 -55.5 33.05 -55.2 33.05 -54.15 33.05 -53.75 33.15 -52.65 33.15 -52.25 33.25 -51.25 33.25 -50.8 33.3 -49.75 33.3 -49.35 33.45 -46.95 33.45 -46.55 33.55 -45.45 33.55 -45.05 33.65 -44.0 33.65 -43.6 33.7 -42.6 33.7 -42.25 33.75 -41.15 33.75 -40.75 33.9 -39.7 33.9 -39.3 33.95 -38.2 33.95 -37.9 34.05 -36.8 34.05 -36.45 34.1 -35.4 34.1 -35.0 34.15 -33.9 34.15 -33.55 34.25 -32.45 34.25 -32.1 34.35 -31.1 34.35 -30.7 34.4 -29.6 34.4 -29.25 34.5 -19.9 34.95 -19.9 -16.05 -73.85 -21.15 -73.9 31.95 -65.45 32.55 M28.4 125.05 L28.45 132.55 76.65 131.7 76.65 82.45 28.45 81.5 28.4 125.05" fill="#a6a6a6" fill-rule="evenodd" stroke="none"/>
    <path d="M-65.45 32.55 L-73.9 31.95 -72.85 32.25 -65.45 32.55 M75.55 37.05 L64.15 41.8 63.7 41.8 63.5 42.0 63.3 41.95 63.2 42.2 62.9 42.1 62.8 42.4 62.55 42.25 50.35 47.15 50.9 47.3 76.2 37.25 75.55 37.05" fill="#060606" fill-rule="evenodd" stroke="none"/>
    <path d="M-17.35 183.95 L-24.8 183.7 -25.15 183.55 -27.2 183.55 -27.7 183.5 -29.65 183.5 -30.15 183.45 -32.2 183.45 -32.55 183.35 -34.6 183.35 -35.05 183.3 -37.1 183.3 -37.55 183.2 -39.55 183.2 -39.95 183.1 -42.0 183.1 -42.45 183.05 -44.45 183.05 -44.9 182.95 -46.95 182.95 -47.3 182.9 -49.35 182.9 -49.85 182.85 -51.85 182.85 -52.25 182.75 -54.45 182.75 -54.7 182.65 -58.0 182.65 -58.0 225.9 -17.35 227.9 -17.25 192.3 -17.35 183.95" fill="#e5e5e5" fill-rule="evenodd" stroke="none"/>
    <path d="M-17.35 183.95 L-17.25 192.3 -17.15 184.05 -17.35 183.95 M50.5 167.15 L75.55 176.6 76.0 176.55 50.9 167.05 50.5 167.15" fill="#000000" fill-rule="evenodd" stroke="none"/>
    <path d="M50.5 167.15 L50.1 167.1 50.1 234.95 75.55 255.5 75.55 176.6 50.5 167.15 M50.35 47.15 L62.55 42.25 62.8 42.4 62.9 42.1 63.2 42.2 63.3 41.95 63.5 42.0 63.7 41.8 64.15 41.8 75.55 37.05 75.55 -41.7 50.1 -20.7 50.1 47.1 50.35 47.15" fill="#121212" fill-rule="evenodd" stroke="none"/>
    <path d="M75.55 176.6 L75.55 255.5 76.45 255.45 76.2 176.55 76.0 176.55 75.55 176.6 M75.55 37.05 L76.2 37.25 76.45 37.2 76.45 -41.5 75.55 -41.7 75.55 37.05" fill="#101010" fill-rule="evenodd" stroke="none"/>
    <path d="M28.45 132.55 L28.4 125.05 28.25 131.25 28.45 132.55" fill="#111111" fill-rule="evenodd" stroke="none"/>
    <path d="M13.45 121.25 L13.85 121.25 13.85 93.0 13.45 93.0 13.45 121.25" fill="#959595" fill-rule="evenodd" stroke="none"/>
    <path d="M13.45 93.0 L6.0 93.85 6.0 120.55 13.45 121.25 13.45 93.0" fill="#bbbbbb" fill-rule="evenodd" stroke="none"/>
  </g>
</svg>
