<?xml version="1.0" encoding="UTF-8" standalone="no"?>
<svg xmlns:ffdec="https://www.free-decompiler.com/flash" xmlns:xlink="http://www.w3.org/1999/xlink" ffdec:objectType="shape" height="295.6px" width="506.75px" xmlns="http://www.w3.org/2000/svg">
  <g transform="matrix(1.0, 0.0, 0.0, 1.0, 74.6, 40.8)">
    <path d="M236.9 -40.55 L238.85 -40.8 323.6 -38.35 323.6 48.1 318.75 48.35 236.9 47.3 236.9 -40.55 M418.1 33.75 L418.1 -40.8 419.0 -40.8 418.85 33.9 418.1 33.75 M307.1 71.65 L307.9 71.65 307.9 142.25 307.1 142.1 307.1 71.65 M301.3 165.8 L310.4 165.8 311.7 165.65 323.6 165.65 323.6 252.35 236.9 254.8 236.9 166.7 237.25 166.6 258.2 166.4 259.65 166.25 279.1 166.15 280.45 166.05 289.55 166.05 290.8 165.9 300.05 165.9 301.3 165.8" fill="#171717" fill-rule="evenodd" stroke="none"/>
    <path d="M388.6 44.5 L388.35 -19.35 388.6 -19.85 418.1 -40.8 418.1 33.75 388.6 44.5 M307.1 142.1 L293.75 137.65 293.75 76.65 307.1 71.65 307.1 142.1" fill="#000000" fill-rule="evenodd" stroke="none"/>
    <path d="M388.6 44.5 L418.1 33.75 418.85 33.9 390.0 44.35 388.6 44.5" fill="#060606" fill-rule="evenodd" stroke="none"/>
    <path d="M415.1 85.55 L415.1 128.7 374.45 129.05 374.45 85.2 415.1 85.55" fill="#e5e5e5" fill-rule="evenodd" stroke="none"/>
    <path d="M431.8 245.25 L379.4 231.75 379.4 174.15 380.8 174.15 427.65 180.6 428.05 180.75 428.55 180.75 428.85 180.8 429.45 180.8 431.1 181.1 431.45 181.2 431.8 181.2 431.8 245.25" fill="#373737" fill-rule="evenodd" stroke="none"/>
    <path d="M431.8 181.2 L432.15 181.2 432.15 244.8 431.8 245.25 431.8 181.2" fill="#181818" fill-rule="evenodd" stroke="none"/>
    <path d="M-60.6 -40.8 L-61.45 -40.8 -61.3 33.9 -60.6 33.75 -60.6 -40.8 M120.65 254.8 L120.65 166.7 120.25 166.6 99.3 166.4 97.9 166.25 78.45 166.15 77.05 166.05 68.0 166.05 66.7 165.9 57.5 165.9 56.2 165.8 47.1 165.8 45.85 165.65 33.95 165.65 33.95 252.35 120.65 254.8 M50.4 71.65 L49.65 71.65 49.65 142.25 50.4 142.1 50.4 71.65 M33.95 48.1 L38.75 48.35 120.65 47.3 120.65 -40.55 118.65 -40.8 33.95 -38.35 33.95 48.1" fill="#171717" fill-rule="evenodd" stroke="none"/>
    <path d="M-31.1 44.5 L-30.8 -19.35 -31.1 -19.85 -60.6 -40.8 -60.6 33.75 -31.1 44.5 M50.4 142.1 L63.8 137.65 63.8 76.65 50.4 71.65 50.4 142.1" fill="#000000" fill-rule="evenodd" stroke="none"/>
    <path d="M-61.3 33.9 L-32.45 44.35 -31.1 44.5 -60.6 33.75 -61.3 33.9" fill="#060606" fill-rule="evenodd" stroke="none"/>
    <path d="M-57.6 85.6 L-57.6 128.7 -16.95 129.05 -16.95 85.2 -57.6 85.6" fill="#e5e5e5" fill-rule="evenodd" stroke="none"/>
    <path d="M-74.3 245.25 L-21.85 231.75 -21.85 174.15 -23.3 174.15 -70.15 180.6 -70.5 180.75 -71.0 180.75 -71.3 180.85 -71.9 180.85 -73.55 181.1 -73.9 181.2 -74.3 181.2 -74.3 245.25" fill="#373737" fill-rule="evenodd" stroke="none"/>
    <path d="M-74.3 181.2 L-74.6 181.2 -74.6 244.8 -74.3 245.25 -74.3 181.2" fill="#181818" fill-rule="evenodd" stroke="none"/>
  </g>
</svg>
