<?xml version="1.0" encoding="UTF-8" standalone="no"?>
<svg xmlns:ffdec="https://www.free-decompiler.com/flash" xmlns:xlink="http://www.w3.org/1999/xlink" ffdec:objectType="shape" height="338.05px" width="508.95px" xmlns="http://www.w3.org/2000/svg">
  <g transform="matrix(1.0, 0.0, 0.0, 1.0, 75.7, 62.25)">
    <path d="M63.4 46.35 L62.7 46.25 62.7 -62.0 63.8 -62.2 63.8 46.15 63.4 46.35 M293.75 -62.25 L294.85 -62.0 294.85 46.25 294.1 46.35 293.75 46.1 293.75 -62.25 M294.25 167.15 L294.85 167.15 294.85 275.35 294.7 275.65 293.75 275.8 293.75 167.3 294.25 167.15 M63.3 167.15 L63.8 167.3 63.8 275.8 62.85 275.65 62.7 275.35 62.7 167.15 63.3 167.15" fill="#ebebeb" fill-rule="evenodd" stroke="none"/>
    <path d="M63.8 -62.2 L121.25 -34.2 121.25 56.4 120.85 56.4 63.8 46.15 63.8 -62.2 M293.75 -62.25 L293.75 46.1 236.65 56.4 236.3 56.4 236.3 -34.2 293.75 -62.25 M362.4 42.0 L362.4 -47.65 363.25 -48.2 363.25 41.9 362.4 42.0 M255.3 149.4 L254.7 149.25 254.7 64.6 255.3 64.5 255.3 149.4 M293.75 275.8 L236.3 248.65 236.3 157.85 237.15 157.75 283.2 165.45 293.75 167.3 293.75 275.8 M102.25 64.5 L102.85 64.6 102.85 149.25 102.25 149.4 102.25 64.5 M63.8 167.3 L74.35 165.45 120.4 157.75 121.25 157.85 121.25 248.7 63.8 275.8 63.8 167.3 M-5.7 -48.2 L-4.9 -47.65 -4.9 42.0 -5.7 41.9 -5.7 -48.2" fill="#040404" fill-rule="evenodd" stroke="none"/>
    <path d="M363.25 41.9 L363.25 -48.2 419.2 -31.6 419.2 48.8 418.7 49.05 388.25 45.15 388.1 45.15 372.55 43.2 363.25 41.9 M432.75 74.75 L433.25 74.75 433.25 139.05 432.75 139.15 432.75 74.75 M255.3 149.4 L255.3 64.5 319.15 68.95 319.15 145.3 255.3 149.4 M102.25 149.4 L38.4 145.3 38.4 68.95 102.25 64.5 102.25 149.4 M-15.0 43.2 L-30.6 45.15 -30.75 45.15 -61.2 49.05 -61.7 48.8 -61.7 -31.6 -5.7 -48.2 -5.7 41.9 -15.0 43.2 M-75.2 139.15 L-75.7 139.05 -75.7 74.75 -75.2 74.75 -75.2 139.15" fill="#181818" fill-rule="evenodd" stroke="none"/>
    <path d="M120.85 56.4 L120.25 56.65 63.4 46.35 63.8 46.15 120.85 56.4 M293.75 46.1 L294.1 46.35 237.25 56.65 236.65 56.4 293.75 46.1 M362.4 42.0 L363.25 41.9 372.55 43.2 362.4 42.0 M-4.9 42.0 L-15.0 43.2 -5.7 41.9 -4.9 42.0" fill="#060606" fill-rule="evenodd" stroke="none"/>
    <path d="M432.75 74.75 L432.75 139.15 380.0 136.05 380.0 78.4 380.9 78.05 432.75 74.75 M-75.2 139.15 L-75.2 74.75 -23.4 78.05 -22.45 78.4 -22.45 136.1 -75.2 139.15" fill="#373737" fill-rule="evenodd" stroke="none"/>
    <path d="M393.2 176.7 L392.25 176.7 402.3 166.95 402.75 166.6 403.5 166.7 393.2 176.7 M283.2 165.45 L294.25 167.15 293.75 167.3 283.2 165.45 M74.35 165.45 L63.8 167.3 63.3 167.15 74.35 165.45 M-46.0 166.7 L-45.2 166.6 -44.75 166.95 -34.7 176.7 -35.65 176.7 -46.0 166.7" fill="#000000" fill-rule="evenodd" stroke="none"/>
    <path d="M393.2 176.7 L403.5 166.7 403.5 238.45 393.2 260.75 393.2 176.7 M-35.65 260.75 L-46.0 238.45 -46.0 166.7 -35.65 176.7 -35.65 260.75" fill="#121212" fill-rule="evenodd" stroke="none"/>
    <path d="M392.25 176.7 L393.2 176.7 393.2 260.75 392.25 260.45 392.25 176.7 M-34.7 176.7 L-34.7 260.45 -35.65 260.75 -35.65 176.7 -34.7 176.7" fill="#101010" fill-rule="evenodd" stroke="none"/>
  </g>
</svg>
