<?xml version="1.0" encoding="UTF-8" standalone="no"?>
<svg xmlns:ffdec="https://www.free-decompiler.com/flash" xmlns:xlink="http://www.w3.org/1999/xlink" ffdec:objectType="shape" height="353.45px" width="501.65px" xmlns="http://www.w3.org/2000/svg">
  <g transform="matrix(1.0, 0.0, 0.0, 1.0, 72.05, 70.05)">
    <path d="M247.4 58.75 L247.4 -33.35 261.55 -69.9 261.55 46.0 247.4 58.75 M339.7 48.0 L339.85 36.25 339.95 47.85 339.7 48.0 M420.65 144.95 L389.85 139.65 389.85 74.9 390.1 74.55 420.65 68.85 420.65 144.95 M363.0 171.65 L369.6 170.95 363.25 171.8 363.0 171.65 M261.55 283.4 L247.4 247.9 247.55 155.45 248.55 155.45 262.8 167.4 261.55 167.4 261.55 283.4" fill="#000000" fill-rule="evenodd" stroke="none"/>
    <path d="M261.55 -69.9 L262.8 -70.05 262.7 46.1 261.55 46.0 261.55 -69.9 M261.55 283.4 L261.55 167.4 262.8 167.4 262.8 283.35 261.55 283.4" fill="#e6e6e6" fill-rule="evenodd" stroke="none"/>
    <path d="M339.85 36.25 L339.95 -45.0 429.6 -42.45 429.45 49.05 346.25 48.05 339.95 47.85 339.85 36.25 M420.65 144.95 L420.65 68.85 421.4 68.85 421.4 144.7 420.65 144.95 M323.6 150.35 L236.9 151.05 236.9 62.95 323.6 63.65 323.6 150.35" fill="#171717" fill-rule="evenodd" stroke="none"/>
    <path d="M262.7 46.1 L248.7 58.8 247.4 58.75 261.55 46.0 262.7 46.1 M346.25 48.05 L339.7 48.0 339.95 47.85 346.25 48.05" fill="#060606" fill-rule="evenodd" stroke="none"/>
    <path d="M369.6 170.95 L385.75 168.95 385.9 168.95 389.5 168.5 389.85 168.5 394.45 167.9 394.85 167.9 396.5 167.65 396.85 167.65 397.45 167.55 397.8 167.55 398.45 167.4 398.6 167.4 399.4 167.3 399.75 167.3 400.5 167.15 400.6 167.15 418.25 165.05 419.2 165.05 419.2 245.75 363.25 262.0 363.25 171.8 369.6 170.95" fill="#181818" fill-rule="evenodd" stroke="none"/>
    <path d="M363.25 262.0 L362.4 261.65 362.4 171.85 363.0 171.65 363.25 171.8 363.25 262.0" fill="#040404" fill-rule="evenodd" stroke="none"/>
    <path d="M-63.1 68.85 L-63.9 68.85 -63.9 144.7 -63.1 144.95 -63.1 68.85 M17.65 36.25 L17.6 -45.0 -72.05 -42.45 -71.9 49.05 11.3 48.05 17.6 47.85 17.65 36.25 M120.65 151.05 L120.65 63.0 33.95 63.65 33.95 150.35 120.65 151.05" fill="#171717" fill-rule="evenodd" stroke="none"/>
    <path d="M-63.1 144.95 L-32.35 139.65 -32.35 74.9 -32.55 74.55 -63.1 68.85 -63.1 144.95 M17.85 48.0 L17.65 36.25 17.6 47.85 17.85 48.0 M-12.05 170.95 L-5.7 171.8 -5.5 171.65 -12.05 170.95 M94.75 167.4 L96.0 167.4 96.0 283.4 110.15 247.9 110.0 155.45 109.0 155.45 94.75 167.4 M96.0 46.0 L110.15 58.75 110.15 -33.35 96.0 -69.9 96.0 46.0" fill="#000000" fill-rule="evenodd" stroke="none"/>
    <path d="M-12.05 170.95 L-28.2 168.95 -28.35 168.95 -31.95 168.5 -32.35 168.5 -36.95 167.9 -37.3 167.9 -38.95 167.7 -39.3 167.7 -39.9 167.55 -40.25 167.55 -40.9 167.4 -41.05 167.4 -41.85 167.3 -42.25 167.3 -42.95 167.15 -43.05 167.15 -60.75 165.05 -61.7 165.05 -61.7 245.75 -5.7 262.0 -5.7 171.8 -12.05 170.95" fill="#181818" fill-rule="evenodd" stroke="none"/>
    <path d="M-5.7 171.8 L-5.7 262.0 -4.9 261.65 -4.9 171.9 -5.5 171.65 -5.7 171.8" fill="#040404" fill-rule="evenodd" stroke="none"/>
    <path d="M94.75 167.4 L94.75 283.35 96.0 283.4 96.0 167.4 94.75 167.4 M94.85 46.15 L96.0 46.0 96.0 -69.9 94.75 -70.05 94.85 46.15" fill="#e6e6e6" fill-rule="evenodd" stroke="none"/>
    <path d="M11.3 48.05 L17.85 48.0 17.6 47.85 11.3 48.05 M94.85 46.15 L108.85 58.8 110.15 58.75 96.0 46.0 94.85 46.15" fill="#060606" fill-rule="evenodd" stroke="none"/>
  </g>
</svg>
