<?xml version="1.0" encoding="UTF-8" standalone="no"?>
<svg xmlns:ffdec="https://www.free-decompiler.com/flash" xmlns:xlink="http://www.w3.org/1999/xlink" ffdec:objectType="shape" height="44.0px" width="697.0px" xmlns="http://www.w3.org/2000/svg">
  <g transform="matrix(1.0, 0.0, 0.0, 1.0, 0.0, 0.0)">
    <path d="M686.0 38.0 L686.05 38.0 Q690.1 38.0 693.1 35.45 694.1 36.7 694.05 38.2 694.0 40.7 691.25 42.35 688.5 44.0 686.0 44.0 L686.0 43.0 686.0 38.0" fill="url(#gradient0)" fill-rule="evenodd" stroke="none"/>
    <path d="M686.0 38.0 L686.0 43.0 11.0 43.0 11.0 38.0 686.0 38.0" fill="url(#gradient1)" fill-rule="evenodd" stroke="none"/>
    <path d="M0.0 16.0 L0.0 15.2 0.0 16.75 0.0 16.0" fill="#cc6666" fill-rule="evenodd" stroke="none"/>
    <path d="M11.0 43.0 L11.0 44.0 Q8.5 44.0 5.75 42.35 3.0 40.7 2.95 38.2 2.9 36.7 3.95 35.45 6.9 38.0 11.0 38.0 L11.0 43.0" fill="url(#gradient2)" fill-rule="evenodd" stroke="none"/>
    <path d="M13.15 1.0 L14.0 1.0 14.85 1.0 682.2 1.0 683.1 1.0 683.95 1.0 686.0 1.0 Q690.15 1.0 693.1 3.9 695.95 6.85 696.0 11.0 L696.0 12.25 696.1 14.0 696.15 14.0 696.15 24.0 696.1 24.0 696.0 25.6 696.0 27.0 695.8 29.1 Q695.25 31.9 693.1 34.1 690.15 36.95 686.0 37.0 L11.0 37.0 Q6.85 36.95 3.9 34.1 1.75 31.9 1.2 29.1 L1.0 27.0 1.0 24.85 1.0 23.95 1.0 23.1 1.0 14.9 1.0 14.0 1.0 13.1 1.0 11.0 1.05 11.0 Q1.05 6.85 3.95 3.9 6.85 1.0 11.0 1.0 L13.15 1.0" fill="#ffffff" fill-opacity="0.2" fill-rule="evenodd" stroke="none"/>
    <path d="M13.15 1.0 L11.0 1.0 Q6.85 1.0 3.95 3.9 1.05 6.85 1.05 11.0 L1.0 11.0 1.0 13.1 1.0 14.0 1.0 14.9 1.0 23.1 1.0 23.95 1.0 24.85 1.0 27.0 1.2 29.1 Q1.75 31.9 3.9 34.1 6.85 36.95 11.0 37.0 L686.0 37.0 Q690.15 36.95 693.1 34.1 695.25 31.9 695.8 29.1 L696.0 27.0 696.0 25.6 696.1 24.0 696.15 24.0 696.15 14.0 696.1 14.0 696.0 12.25 696.0 11.0 Q695.95 6.85 693.1 3.9 690.15 1.0 686.0 1.0 L683.95 1.0 683.1 1.0 682.2 1.0 14.85 1.0 14.0 1.0 13.15 1.0 M693.8 34.8 Q690.55 37.95 686.0 38.0 L11.0 38.0 Q6.4 38.0 3.2 34.8 0.75 32.3 0.15 29.1 L0.0 27.0 0.0 26.2 0.0 11.75 0.0 11.0 Q0.0 6.4 3.2 3.2 6.4 0.0 11.0 0.0 L11.75 0.0 685.2 0.0 686.0 0.0 Q690.55 0.0 693.8 3.2 697.0 6.4 697.0 11.0 L697.0 27.0 696.8 29.1 Q696.2 32.35 693.8 34.8" fill="#000000" fill-opacity="0.2" fill-rule="evenodd" stroke="none"/>
  </g>
  <defs>
    <radialGradient cx="0" cy="0" gradientTransform="matrix(-0.0098, 0.0, 0.0, 0.0082, 686.0, 37.0)" gradientUnits="userSpaceOnUse" id="gradient0" r="819.2" spreadMethod="pad">
      <stop offset="0.0" stop-color="#000000" stop-opacity="0.2"/>
      <stop offset="1.0" stop-color="#000000" stop-opacity="0.0"/>
    </radialGradient>
    <linearGradient gradientTransform="matrix(0.0, -0.0061, 0.0098, 0.0, 349.05, 38.0)" gradientUnits="userSpaceOnUse" id="gradient1" spreadMethod="pad" x1="-819.2" x2="819.2">
      <stop offset="0.0" stop-color="#000000" stop-opacity="0.0"/>
      <stop offset="1.0" stop-color="#000000" stop-opacity="0.3529412"/>
    </linearGradient>
    <radialGradient cx="0" cy="0" gradientTransform="matrix(0.0098, 0.0, 0.0, 0.0082, 11.0, 37.0)" gradientUnits="userSpaceOnUse" id="gradient2" r="819.2" spreadMethod="pad">
      <stop offset="0.0" stop-color="#000000" stop-opacity="0.2"/>
      <stop offset="1.0" stop-color="#000000" stop-opacity="0.0"/>
    </radialGradient>
  </defs>
</svg>
