<?xml version="1.0" encoding="UTF-8" standalone="no"?>
<svg xmlns:ffdec="https://www.free-decompiler.com/flash" xmlns:xlink="http://www.w3.org/1999/xlink" ffdec:objectType="shape" height="9.05px" width="22.0px" xmlns="http://www.w3.org/2000/svg">
  <g transform="matrix(1.0, 0.0, 0.0, 1.0, 0.0, 0.0)">
    <path d="M21.0 0.0 L22.0 0.0 22.0 2.95 22.0 6.05 22.0 9.05 21.0 9.05 19.05 9.05 3.95 9.05 1.0 9.05 1.0 8.05 3.95 8.05 19.05 8.05 21.0 8.05 21.0 6.05 21.0 2.95 21.0 1.0 21.0 0.0" fill="#ffffff" fill-opacity="0.2" fill-rule="evenodd" stroke="none"/>
    <path d="M1.0 9.05 L0.0 9.05 0.0 6.05 0.0 2.95 0.0 0.0 3.95 0.0 19.05 0.0 21.0 0.0 21.0 1.0 19.05 1.0 3.95 1.0 1.0 1.0 1.0 2.95 1.0 6.05 1.0 8.05 1.0 9.05" fill="#000000" fill-opacity="0.3529412" fill-rule="evenodd" stroke="none"/>
  </g>
</svg>
