<?xml version="1.0" encoding="UTF-8" standalone="no"?>
<svg xmlns:ffdec="https://www.free-decompiler.com/flash" xmlns:xlink="http://www.w3.org/1999/xlink" ffdec:objectType="text" height="10.85px" width="75.7px" xmlns="http://www.w3.org/2000/svg">
  <g transform="matrix(1.0, 0.0, 0.0, 1.0, -57.9, -1.3)">
    <g transform="matrix(1.0, 0.0, 0.0, 1.0, 56.9, 0.0)">
      <use fill="#422a00" height="10.85" transform="matrix(0.0117, 0.0, 0.0, 0.0117, 0.0, 11.0)" width="75.7" xlink:href="#font_Trebuchet_MS_L0"/>
      <use fill="#422a00" height="10.85" transform="matrix(0.0117, 0.0, 0.0, 0.0117, 6.65, 11.0)" width="75.7" xlink:href="#font_Trebuchet_MS_O0"/>
      <use fill="#422a00" height="10.85" transform="matrix(0.0117, 0.0, 0.0, 0.0117, 15.1, 11.0)" width="75.7" xlink:href="#font_Trebuchet_MS_A0"/>
      <use fill="#422a00" height="10.85" transform="matrix(0.0117, 0.0, 0.0, 0.0117, 22.7, 11.0)" width="75.7" xlink:href="#font_Trebuchet_MS_D0"/>
      <use fill="#422a00" height="10.85" transform="matrix(0.0117, 0.0, 0.0, 0.0117, 30.4, 11.0)" width="75.7" xlink:href="#font_Trebuchet_MS_I0"/>
      <use fill="#422a00" height="10.85" transform="matrix(0.0117, 0.0, 0.0, 0.0117, 33.75, 11.0)" width="75.7" xlink:href="#font_Trebuchet_MS_N0"/>
      <use fill="#422a00" height="10.85" transform="matrix(0.0117, 0.0, 0.0, 0.0117, 41.75, 11.0)" width="75.7" xlink:href="#font_Trebuchet_MS_G0"/>
      <use fill="#422a00" height="10.85" transform="matrix(0.0117, 0.0, 0.0, 0.0117, 53.4, 11.0)" width="75.7" xlink:href="#font_Trebuchet_MS_S0"/>
      <use fill="#422a00" height="10.85" transform="matrix(0.0117, 0.0, 0.0, 0.0117, 59.55, 11.0)" width="75.7" xlink:href="#font_Trebuchet_MS_I0"/>
      <use fill="#422a00" height="10.85" transform="matrix(0.0117, 0.0, 0.0, 0.0117, 62.9, 11.0)" width="75.7" xlink:href="#font_Trebuchet_MS_T0"/>
      <use fill="#422a00" height="10.85" transform="matrix(0.0117, 0.0, 0.0, 0.0117, 70.25, 11.0)" width="75.7" xlink:href="#font_Trebuchet_MS_E0"/>
    </g>
  </g>
  <defs>
    <g id="font_Trebuchet_MS_L0">
      <path d="M540.0 0.0 L540.0 0.0 540.0 -116.0 208.0 -116.0 208.0 -732.0 76.0 -732.0 76.0 0.0 540.0 0.0" fill-rule="evenodd" stroke="none"/>
    </g>
    <g id="font_Trebuchet_MS_O0">
      <path d="M176.0 -372.0 L176.0 -372.0 Q176.0 -489.5 222.5 -558.5 268.5 -628.0 355.0 -628.0 544.0 -628.0 544.0 -372.0 544.0 -241.0 493.0 -172.5 442.0 -104.0 345.0 -104.0 262.5 -104.0 219.5 -174.0 176.0 -244.0 176.0 -372.0 M40.0 -372.0 L40.0 -372.0 Q40.0 -193.5 119.0 -90.5 197.5 12.0 345.0 12.0 505.5 12.0 593.0 -91.5 680.0 -195.5 680.0 -372.0 680.0 -548.5 596.5 -646.0 513.0 -744.0 355.0 -744.0 211.5 -744.0 126.0 -636.0 40.0 -528.0 40.0 -372.0" fill-rule="evenodd" stroke="none"/>
    </g>
    <g id="font_Trebuchet_MS_A0">
      <path d="M410.5 -248.0 L410.5 -248.0 236.0 -248.0 324.0 -520.0 410.5 -248.0 M644.0 0.0 L644.0 0.0 352.0 -744.0 296.0 -744.0 4.0 0.0 148.0 0.0 199.0 -148.0 447.5 -148.0 500.0 0.0 644.0 0.0" fill-rule="evenodd" stroke="none"/>
    </g>
    <g id="font_Trebuchet_MS_D0">
      <path d="M208.0 -616.5 L208.0 -616.5 Q246.5 -620.0 267.0 -620.0 484.0 -620.0 484.0 -386.0 484.0 -258.5 428.5 -187.0 373.5 -116.0 275.5 -116.0 239.5 -116.0 208.0 -119.0 L208.0 -616.5 M239.0 0.0 L239.0 0.0 Q620.0 0.0 620.0 -394.0 620.0 -549.0 526.0 -642.5 432.0 -736.0 272.0 -736.0 232.0 -736.0 76.0 -730.5 L76.0 0.0 239.0 0.0" fill-rule="evenodd" stroke="none"/>
    </g>
    <g id="font_Trebuchet_MS_I0">
      <path d="M208.0 0.0 L208.0 0.0 208.0 -732.0 76.0 -732.0 76.0 0.0 208.0 0.0" fill-rule="evenodd" stroke="none"/>
    </g>
    <g id="font_Trebuchet_MS_N0">
      <path d="M608.0 12.0 L608.0 12.0 608.0 -732.0 484.0 -732.0 484.0 -288.0 140.0 -732.0 76.0 -732.0 76.0 0.0 200.0 0.0 200.0 -452.0 556.0 12.0 608.0 12.0" fill-rule="evenodd" stroke="none"/>
    </g>
    <g id="font_Trebuchet_MS_G0">
      <path d="M616.0 -672.0 L616.0 -672.0 Q531.5 -744.0 411.0 -744.0 241.0 -744.0 140.5 -638.0 40.0 -532.5 40.0 -363.0 40.0 -194.0 132.5 -91.0 224.5 12.0 382.5 12.0 455.0 12.0 528.0 -9.5 601.5 -31.0 648.0 -69.0 L648.0 -400.0 416.0 -400.0 416.0 -288.0 516.0 -288.0 516.0 -142.5 Q471.5 -104.0 402.5 -104.0 297.5 -104.0 237.0 -173.5 176.0 -243.5 176.0 -359.5 176.0 -482.0 238.5 -555.0 300.5 -628.0 408.5 -628.0 443.0 -628.0 490.5 -608.0 538.5 -588.0 561.5 -567.5 L616.0 -672.0" fill-rule="evenodd" stroke="none"/>
    </g>
    <g id="font_Trebuchet_MS_S0">
      <path d="M40.0 -40.5 L40.0 -40.5 Q122.5 12.0 225.0 12.0 343.5 12.0 413.5 -45.5 484.0 -102.5 484.0 -191.0 484.0 -240.5 467.0 -280.5 450.0 -321.0 417.5 -351.0 385.0 -381.0 311.5 -417.0 172.0 -484.5 172.0 -547.0 172.0 -585.0 197.0 -608.5 222.0 -632.0 267.0 -632.0 343.5 -632.0 412.5 -584.0 L452.0 -696.5 Q392.0 -744.0 264.0 -744.0 165.5 -744.0 103.0 -688.0 40.0 -632.0 40.0 -547.0 40.0 -501.5 56.0 -464.0 72.0 -426.5 101.5 -399.5 131.0 -372.0 216.0 -330.5 301.5 -288.5 328.5 -254.5 356.0 -220.5 356.0 -183.5 356.0 -104.0 241.0 -104.0 166.0 -104.0 88.5 -156.0 L40.0 -40.5" fill-rule="evenodd" stroke="none"/>
    </g>
    <g id="font_Trebuchet_MS_T0">
      <path d="M620.0 -616.0 L620.0 -616.0 620.0 -732.0 12.0 -732.0 12.0 -616.0 244.0 -616.0 244.0 0.0 376.0 0.0 376.0 -616.0 620.0 -616.0" fill-rule="evenodd" stroke="none"/>
    </g>
    <g id="font_Trebuchet_MS_E0">
      <path d="M540.0 -616.0 L540.0 -616.0 540.0 -732.0 76.0 -732.0 76.0 0.0 540.0 0.0 540.0 -116.0 208.0 -116.0 208.0 -336.0 444.0 -336.0 444.0 -448.0 208.0 -448.0 208.0 -616.0 540.0 -616.0" fill-rule="evenodd" stroke="none"/>
    </g>
  </defs>
</svg>
