<?xml version="1.0" encoding="UTF-8" standalone="no"?>
<svg xmlns:ffdec="https://www.free-decompiler.com/flash" xmlns:xlink="http://www.w3.org/1999/xlink" ffdec:objectType="shape" height="56.25px" width="127.1px" xmlns="http://www.w3.org/2000/svg">
  <g transform="matrix(1.0, 0.0, 0.0, 1.0, -669.65, -37.75)">
    <path d="M764.4 60.6 Q764.4 59.65 764.7 59.5 L765.45 59.4 766.15 59.65 766.4 60.75 766.3 61.7 766.1 61.75 765.45 62.05 764.65 61.8 Q764.4 61.6 764.4 60.6 M734.05 89.75 L734.2 89.95 733.2 90.15 732.05 89.9 731.65 89.3 Q731.65 88.4 731.8 87.75 733.0 87.75 734.2 89.3 L734.05 89.75 M780.25 61.3 L779.1 60.55 780.1 59.5 781.0 59.2 781.45 60.1 Q781.15 60.95 780.25 61.3 M773.5 91.85 Q773.05 91.4 773.05 90.5 L773.7 90.55 774.55 91.25 773.5 91.85 M788.25 89.35 L788.05 89.35 788.25 89.5 787.3 89.65 786.4 89.45 786.35 88.95 Q786.35 88.3 786.65 87.7 786.9 87.1 787.3 87.0 L788.1 87.3 Q788.35 87.5 788.35 88.45 L788.25 89.35 M795.8 87.55 L796.75 88.25 Q796.45 88.7 795.5 88.85 L795.3 88.5 Q795.05 88.05 795.05 87.5 L795.8 87.55 M690.4 40.1 Q690.7 40.55 690.7 41.6 690.7 43.1 690.4 42.95 L689.7 43.2 688.9 43.55 688.0 43.4 Q687.7 43.3 687.7 42.35 687.7 40.6 689.5 39.5 690.15 39.75 690.4 40.1 M701.35 41.6 L699.85 40.7 Q699.7 41.4 699.7 39.9 699.7 38.95 700.2 39.05 700.45 39.1 700.9 39.3 702.3 40.05 702.5 40.55 702.5 41.45 701.35 41.6 M712.15 38.9 L713.05 39.15 Q713.35 39.3 713.35 40.25 L713.25 41.2 713.05 41.4 713.15 41.65 712.15 41.85 711.15 41.65 710.95 41.1 Q710.95 40.45 711.35 39.75 711.7 39.0 712.15 38.9 M726.05 38.15 L724.85 39.25 724.05 40.4 723.35 40.35 Q723.1 40.3 723.1 39.4 723.1 38.05 724.3 37.8 725.3 37.6 726.05 38.15 M671.45 85.8 L671.7 86.9 671.6 87.85 671.4 88.05 669.8 88.5 Q669.65 88.4 669.65 86.9 669.65 86.0 670.15 85.7 L670.65 85.55 671.45 85.8 M687.4 88.0 L687.7 88.3 687.85 89.5 Q687.85 90.7 686.05 92.15 L684.95 92.1 Q684.3 91.9 684.3 90.95 684.3 88.05 687.4 88.0 M723.55 89.55 Q722.9 89.55 722.65 89.2 722.9 88.5 724.45 89.2 724.25 89.55 723.55 89.55 M699.05 94.0 L697.9 93.25 Q698.4 92.5 698.9 92.25 L699.8 91.95 700.25 92.8 Q699.95 93.65 699.05 94.0" fill="#ffffff" fill-rule="evenodd" stroke="none"/>
    <path d="M712.0 91.75 Q712.45 91.35 712.65 91.35 713.55 91.7 713.85 92.55 L713.1 93.3 712.05 93.75 Q711.35 93.45 710.9 93.0 711.35 92.2 712.0 91.75" fill="#ffffff" fill-rule="evenodd" stroke="none"/>
  </g>
</svg>
