<?xml version="1.0" encoding="UTF-8" standalone="no"?>
<svg xmlns:ffdec="https://www.free-decompiler.com/flash" xmlns:xlink="http://www.w3.org/1999/xlink" ffdec:objectType="shape" height="56.65px" width="129.0px" xmlns="http://www.w3.org/2000/svg">
  <g transform="matrix(1.0, 0.0, 0.0, 1.0, -669.2, -37.25)">
    <path d="M765.65 61.35 Q765.3 61.0 765.3 60.55 L765.75 60.55 Q766.25 60.55 766.7 60.85 L765.95 61.6 765.65 61.35 M731.95 87.45 L734.05 87.6 733.75 88.35 732.25 88.4 Q731.95 87.9 731.95 87.45 M780.85 62.35 L780.05 62.35 Q779.8 62.3 779.8 61.4 L779.95 60.4 780.6 60.35 781.6 60.55 781.9 61.45 Q781.4 62.2 780.85 62.35 M770.8 91.75 L770.7 90.55 770.7 89.6 770.8 89.45 771.7 89.3 Q772.15 89.75 772.15 91.55 772.0 92.0 771.1 92.15 L770.8 91.75 M788.65 88.5 L788.95 89.4 788.6 90.0 787.3 90.25 786.05 89.95 Q785.75 90.85 785.75 89.35 L785.9 88.35 788.65 88.5 M798.2 88.1 Q797.95 88.95 797.05 89.3 L796.15 89.15 Q795.85 89.05 795.85 88.1 795.85 87.1 796.3 86.9 L797.35 86.8 798.2 88.1 M690.7 39.95 L690.05 40.8 Q689.4 41.3 688.6 41.3 L688.45 41.0 Q688.3 40.85 688.3 39.95 688.3 39.05 688.9 38.85 L689.5 38.8 Q690.4 39.15 690.7 39.95 M702.05 38.7 L702.05 39.55 701.9 39.6 Q701.45 40.05 700.3 40.05 700.15 39.75 700.15 38.25 700.15 37.3 700.55 37.25 L701.45 37.35 701.9 37.65 702.05 38.7 M712.3 40.85 Q712.6 39.95 713.65 39.95 714.15 40.6 714.15 41.25 L713.35 42.0 Q712.6 41.7 712.3 40.85 M723.9 39.5 L723.9 38.75 725.9 39.2 Q725.65 39.95 725.25 40.1 L724.7 39.95 Q724.1 39.8 723.9 39.5 M671.2 84.8 L672.6 85.25 672.3 86.0 670.7 86.15 669.2 85.7 669.65 85.05 670.1 84.6 671.2 84.8 M685.0 90.4 L685.15 89.4 Q687.35 89.25 688.3 92.6 L687.65 93.35 686.65 93.9 Q686.15 93.6 685.55 92.15 685.0 90.8 685.0 90.4 M701.15 91.8 Q700.85 92.7 699.8 92.85 L699.45 92.7 699.35 91.75 699.45 90.75 699.65 90.45 700.55 90.45 700.95 91.15 701.15 91.8 M723.55 90.25 L723.25 89.8 723.85 89.15 725.05 88.95 725.2 89.4 Q724.55 90.25 723.55 90.25" fill="#ffffff" fill-rule="evenodd" stroke="none"/>
    <path d="M712.95 90.4 L713.55 90.85 712.8 91.5 712.05 91.95 711.3 91.75 Q711.3 90.85 711.45 90.25 L712.1 90.2 712.95 90.4" fill="#ffffff" fill-rule="evenodd" stroke="none"/>
  </g>
</svg>
