<?xml version="1.0" encoding="UTF-8" standalone="no"?>
<svg xmlns:ffdec="https://www.free-decompiler.com/flash" xmlns:xlink="http://www.w3.org/1999/xlink" ffdec:objectType="shape" height="54.8px" width="128.4px" xmlns="http://www.w3.org/2000/svg">
  <g transform="matrix(1.0, 0.0, 0.0, 1.0, -669.95, -38.15)">
    <path d="M766.55 60.85 L765.75 60.85 Q765.5 60.85 765.5 59.95 L765.65 58.95 766.3 58.9 767.3 59.1 767.55 60.0 Q767.1 60.7 766.55 60.85 M734.05 87.75 L734.2 88.65 734.05 89.3 Q733.15 90.2 732.25 90.2 732.15 90.35 732.05 90.3 731.8 90.25 731.8 89.3 731.8 87.95 733.6 87.6 L734.05 87.75 M782.35 61.85 L781.45 62.05 Q780.5 62.05 780.1 61.7 L779.5 61.0 779.45 61.25 Q779.35 61.3 779.35 60.35 L779.5 59.35 780.7 59.3 782.2 59.35 782.4 59.55 782.5 60.5 782.35 61.6 782.35 61.85 M771.55 91.7 Q771.25 91.25 771.25 90.05 L772.75 90.35 Q772.75 91.25 772.3 91.7 L771.55 91.7 M786.7 87.95 L787.0 89.25 786.2 90.1 784.55 90.1 Q784.15 90.05 784.15 89.1 784.15 87.8 786.4 87.1 L786.7 87.95 M798.35 87.95 L798.1 89.25 797.75 89.6 797.05 89.8 795.7 89.8 Q795.4 89.75 795.4 88.75 L796.25 88.15 Q797.05 87.65 797.05 86.95 L798.0 86.95 Q798.35 87.0 798.35 87.95 M690.25 40.25 L689.8 41.15 688.45 41.15 688.1 40.95 688.0 40.0 688.3 38.95 689.8 38.95 690.25 40.25 M701.15 42.8 L700.55 42.55 700.45 41.4 700.55 40.05 700.75 39.45 701.45 39.45 Q701.9 40.35 701.9 42.05 L701.15 42.8 M710.6 42.15 Q710.2 42.25 710.2 41.3 710.2 40.3 711.0 40.15 L712.45 40.25 712.75 40.7 710.95 41.85 710.6 42.15 M726.65 39.95 L725.4 39.95 725.25 40.05 Q725.1 40.0 725.1 39.05 L725.1 38.25 725.25 38.2 725.65 38.15 726.65 38.2 727.1 38.65 Q727.1 39.5 726.65 39.95 M686.6 90.0 L689.1 90.3 687.6 91.55 686.05 92.3 684.85 91.55 Q686.05 90.2 686.6 90.0 M673.2 85.25 L671.65 87.05 670.2 88.35 Q669.95 88.95 669.95 87.45 669.95 86.75 670.85 86.0 671.9 85.15 673.2 85.25 M701.45 92.95 Q699.35 92.65 699.35 90.6 699.35 89.65 699.8 89.5 L700.4 89.55 701.4 90.55 702.2 92.25 701.45 92.95 M725.75 89.25 L725.85 90.15 Q725.85 91.65 725.65 91.3 L725.05 91.6 724.3 91.35 Q724.15 91.15 724.15 90.15 724.15 89.2 724.45 89.05 L725.35 89.1 725.75 89.25" fill="#ffffff" fill-rule="evenodd" stroke="none"/>
    <path d="M712.2 91.5 Q712.2 90.55 712.8 90.35 L713.85 90.25 Q714.75 90.6 715.05 91.45 L714.95 92.15 Q714.8 92.55 713.85 92.55 L712.9 92.45 712.5 92.1 712.35 92.35 Q712.2 92.45 712.2 91.5" fill="#ffffff" fill-rule="evenodd" stroke="none"/>
  </g>
</svg>
