<?xml version="1.0" encoding="UTF-8" standalone="no"?>
<svg xmlns:ffdec="https://www.free-decompiler.com/flash" xmlns:xlink="http://www.w3.org/1999/xlink" ffdec:objectType="shape" height="55.4px" width="127.1px" xmlns="http://www.w3.org/2000/svg">
  <g transform="matrix(1.0, 0.0, 0.0, 1.0, -671.55, -37.6)">
    <path d="M734.5 90.75 Q733.1 90.3 732.4 89.6 732.95 88.7 734.8 88.7 735.3 89.35 735.3 90.05 L734.5 90.75 M767.5 59.3 L766.55 59.25 Q766.7 58.85 767.25 58.6 L768.3 58.65 767.5 59.3 M780.85 61.45 L780.3 61.3 779.5 60.85 Q779.5 60.5 780.05 60.1 780.6 59.65 781.15 59.65 L781.6 60.55 Q781.35 61.3 780.85 61.45 M771.8 91.5 L771.7 90.55 Q771.7 89.55 772.0 89.45 L772.9 89.45 773.5 90.35 773.3 91.05 772.9 91.7 772.15 91.7 771.8 91.5 M786.15 88.5 Q786.35 88.55 786.35 89.5 L786.05 90.85 Q785.75 91.4 785.75 91.75 L785.25 92.0 784.0 92.35 783.8 92.45 Q783.55 92.4 783.55 91.45 783.55 90.65 783.95 89.9 784.55 88.6 785.9 88.65 786.0 88.5 786.15 88.5 M798.65 88.1 Q798.35 88.55 797.6 88.85 796.7 88.45 796.15 87.65 796.15 87.35 796.45 87.1 796.8 86.8 797.35 86.8 L798.65 88.1 M691.5 38.35 L691.2 39.35 Q690.75 40.15 689.5 40.4 L688.6 39.7 689.6 38.55 691.5 38.35 M700.15 37.65 L704.0 39.9 703.95 40.5 Q703.85 40.8 702.95 40.8 L701.7 40.65 700.45 40.2 700.25 39.55 Q700.0 39.05 700.0 38.15 L700.15 37.65 M711.4 39.8 Q712.2 39.9 712.65 40.4 L714.0 41.7 Q713.75 42.45 713.35 42.6 712.15 41.75 711.65 40.85 711.3 40.2 711.4 39.8 M724.85 38.7 Q725.25 37.9 726.05 37.6 726.5 38.05 726.5 39.8 L725.25 40.55 724.9 40.75 Q724.5 40.75 724.5 39.8 724.5 39.35 724.85 38.7 M674.1 86.6 Q673.85 87.4 673.05 87.6 672.0 87.3 671.55 86.9 L671.55 85.1 672.85 85.1 Q673.8 85.35 674.1 86.6 M686.65 92.6 L686.05 92.3 Q686.05 91.95 686.75 91.65 L688.0 91.4 686.65 92.6 M699.8 91.5 Q700.65 90.95 701.6 91.5 701.6 92.4 701.15 92.85 L700.4 92.85 699.8 91.5 M722.35 92.05 L722.1 91.85 722.05 90.9 Q722.05 89.95 723.0 89.2 724.05 88.4 725.35 88.8 L723.8 90.3 Q722.7 91.5 722.35 92.05" fill="#ffffff" fill-rule="evenodd" stroke="none"/>
    <path d="M712.15 90.9 Q712.8 89.95 713.55 89.55 L714.1 90.0 714.3 91.3 714.25 92.2 714.0 92.55 713.4 92.7 712.65 93.0 711.85 93.0 Q711.6 92.95 711.6 92.05 711.6 91.65 712.15 90.9" fill="#ffffff" fill-rule="evenodd" stroke="none"/>
  </g>
</svg>
