<?xml version="1.0" encoding="UTF-8" standalone="no"?>
<svg xmlns:ffdec="https://www.free-decompiler.com/flash" xmlns:xlink="http://www.w3.org/1999/xlink" ffdec:objectType="shape" height="55.2px" width="127.55px" xmlns="http://www.w3.org/2000/svg">
  <g transform="matrix(1.0, 0.0, 0.0, 1.0, -671.55, -37.5)">
    <path d="M768.9 59.25 Q768.9 60.25 768.6 60.55 L767.75 60.9 Q766.2 59.5 766.2 59.25 766.2 58.3 766.85 58.0 L768.05 57.9 Q768.3 58.15 768.65 58.2 L768.9 59.25 M735.25 90.35 L734.5 90.8 733.45 90.9 Q733.15 90.9 733.15 90.0 733.15 89.1 733.5 88.35 L734.05 87.3 734.8 87.3 Q735.25 88.2 735.25 90.35 M780.6 61.0 Q780.8 60.25 781.6 59.9 L782.0 59.75 782.1 59.85 783.05 60.5 782.75 61.6 782.3 62.3 781.6 62.35 781.15 62.35 780.55 62.3 780.6 61.0 M772.7 91.2 L772.3 91.7 771.6 91.7 Q771.15 90.35 771.15 88.85 771.15 87.9 771.45 87.75 L772.3 87.8 Q772.75 88.35 772.75 89.9 L772.7 91.2 M787.25 88.8 L787.1 89.05 786.5 89.4 783.85 87.7 784.15 87.2 784.45 86.95 787.25 88.8 M795.65 88.3 Q795.65 87.4 795.95 86.95 797.5 87.55 798.95 89.0 L799.1 89.45 Q799.3 90.05 797.8 90.05 L795.65 88.3 M689.55 39.95 L688.05 41.3 Q687.75 42.1 687.75 40.6 687.75 39.2 688.6 38.6 L690.85 38.65 689.55 39.95 M703.1 40.2 Q703.1 40.85 702.2 41.55 701.3 42.25 700.3 42.35 L700.0 41.75 699.5 41.1 Q699.9 40.75 701.0 40.1 702.3 39.3 702.65 39.3 L702.9 39.2 Q703.1 39.25 703.1 40.2 M714.7 41.15 L714.1 42.9 713.35 43.35 712.2 43.2 Q711.85 43.05 711.85 42.05 L711.85 41.1 712.0 40.55 713.35 40.4 713.85 40.6 714.7 41.15 M726.45 38.95 L725.85 38.8 Q725.2 38.65 724.8 38.35 L725.55 37.5 Q725.75 37.4 727.1 38.05 726.85 38.8 726.45 38.95 M687.7 91.55 Q687.7 89.95 690.15 90.45 689.6 91.65 688.75 92.15 L688.0 92.15 Q687.7 93.05 687.7 91.55 M672.75 86.75 Q672.0 86.75 671.55 86.3 672.8 84.15 673.8 84.15 673.8 85.8 672.75 86.75 M699.25 91.55 L698.95 91.05 Q700.15 89.85 702.2 90.3 L702.5 91.2 Q702.2 92.15 700.85 92.7 L699.25 91.55 M724.15 91.3 L723.4 89.85 Q725.1 89.3 726.55 91.15 726.55 92.0 725.65 92.35 724.45 92.0 724.15 91.3" fill="#ffffff" fill-rule="evenodd" stroke="none"/>
    <path d="M713.85 92.35 Q712.35 92.15 712.35 90.85 713.85 90.35 714.75 91.45 714.55 92.15 713.85 92.35" fill="#ffffff" fill-rule="evenodd" stroke="none"/>
  </g>
</svg>
