<?xml version="1.0" encoding="UTF-8" standalone="no"?>
<svg xmlns:ffdec="https://www.free-decompiler.com/flash" xmlns:xlink="http://www.w3.org/1999/xlink" ffdec:objectType="shape" height="54.8px" width="127.1px" xmlns="http://www.w3.org/2000/svg">
  <g transform="matrix(1.0, 0.0, 0.0, 1.0, -671.0, -38.1)">
    <path d="M766.8 60.75 Q766.4 60.35 766.4 59.35 L766.55 58.35 766.7 58.2 Q768.25 59.05 768.65 60.45 768.5 60.9 767.75 61.2 L766.8 60.75 M735.25 87.9 L735.4 88.95 735.4 89.8 735.25 89.75 734.8 90.2 733.45 90.2 733.25 90.45 Q733.0 90.5 733.0 89.55 733.0 88.95 733.6 88.35 L734.8 87.6 735.25 87.9 M783.1 60.85 L782.65 61.3 780.85 59.65 781.0 58.7 781.6 58.7 782.45 59.6 783.1 60.85 M771.15 91.4 Q772.45 89.35 773.5 89.35 L774.1 90.65 Q773.35 91.75 772.6 92.0 771.6 91.85 771.15 91.4 M786.95 89.55 L787.1 90.0 Q786.55 90.85 784.0 91.0 783.7 90.55 783.7 89.7 L786.95 89.55 M797.95 86.55 L798.1 87.55 Q798.1 88.5 797.75 88.8 L797.05 89.3 796.2 89.3 Q795.95 89.2 795.95 88.25 795.95 87.85 797.8 86.65 L797.95 86.55 M690.85 40.0 Q690.7 40.45 689.65 40.6 689.05 39.7 688.75 38.8 688.95 38.3 689.8 38.3 L690.55 39.1 690.85 40.0 M699.5 41.7 Q699.2 42.5 699.2 41.0 699.2 40.0 700.5 39.05 L702.1 38.1 Q702.6 40.6 700.1 41.9 L699.5 41.7 M711.25 41.3 Q712.55 41.3 713.05 42.0 712.75 42.45 711.7 42.6 L711.5 42.25 Q711.25 41.85 711.25 41.3 M724.15 39.4 Q724.4 39.05 725.2 38.9 L726.6 39.1 726.75 39.55 725.85 40.25 Q724.55 39.9 724.15 39.4 M673.2 84.6 Q674.1 84.7 674.7 85.25 L675.15 86.0 675.05 86.6 Q674.9 86.9 673.95 86.9 673.0 86.9 672.2 86.2 L671.0 84.9 671.4 84.75 672.0 84.8 673.2 84.6 M688.45 91.35 L689.35 90.6 Q689.8 91.3 689.8 92.3 L689.05 92.9 Q688.0 92.6 687.55 92.15 L688.45 91.35 M702.95 91.05 Q702.65 91.9 701.75 92.1 L700.85 91.35 700.8 91.6 Q700.7 91.65 700.7 90.7 L700.85 89.7 702.35 89.7 Q702.95 90.3 702.95 91.05 M723.85 92.05 L723.05 91.7 Q722.8 91.4 722.8 90.4 L722.95 88.65 Q724.7 88.75 725.6 90.35 L726.55 92.35 724.9 91.3 Q724.75 91.2 723.85 92.05" fill="#ffffff" fill-rule="evenodd" stroke="none"/>
    <path d="M712.95 89.7 L714.0 91.0 713.55 91.45 712.25 91.45 712.1 91.55 Q711.95 91.5 711.95 90.55 L711.95 89.75 712.1 89.7 712.95 89.7" fill="#ffffff" fill-rule="evenodd" stroke="none"/>
  </g>
</svg>
