<?xml version="1.0" encoding="UTF-8" standalone="no"?>
<svg xmlns:ffdec="https://www.free-decompiler.com/flash" xmlns:xlink="http://www.w3.org/1999/xlink" ffdec:objectType="shape" height="55.05px" width="126.8px" xmlns="http://www.w3.org/2000/svg">
  <g transform="matrix(1.0, 0.0, 0.0, 1.0, -672.6, -37.6)">
    <path d="M768.45 60.3 Q767.95 60.15 767.75 59.85 L768.5 59.2 769.5 59.25 Q769.5 60.05 768.9 60.45 L768.45 60.3 M734.2 89.45 L733.0 89.25 732.85 88.8 733.95 88.35 735.25 88.2 734.95 89.4 Q735.7 89.45 734.2 89.45 M782.05 60.85 Q781.6 60.4 781.6 59.45 L782.0 59.4 782.5 59.75 782.35 60.55 782.05 60.85 M770.7 88.75 L773.35 88.6 773.5 89.05 Q773.2 89.9 771.15 90.05 770.7 89.65 770.7 88.75 M784.75 90.7 L784.6 90.85 Q784.45 90.8 784.45 89.85 784.45 88.9 784.9 88.6 L785.75 88.35 786.1 88.55 786.2 89.5 786.05 90.15 785.65 90.35 784.75 90.7 M799.4 87.8 L799.25 88.85 798.45 89.1 797.65 89.6 797.2 89.55 Q797.05 89.5 797.05 88.6 797.05 87.1 799.1 87.1 799.4 86.3 799.4 87.8 M700.75 39.15 L701.35 39.0 Q701.75 39.65 701.5 41.25 L700.9 41.4 Q700.75 40.95 700.75 39.15 M712.3 41.9 Q712.3 41.0 712.6 40.85 L712.9 40.85 Q713.65 40.85 713.95 41.3 L713.8 42.15 712.45 42.6 712.4 42.8 Q712.3 42.85 712.3 41.9 M725.95 38.35 Q725.6 38.55 724.95 38.35 725.1 37.95 725.5 37.7 L726.3 37.75 Q726.3 38.15 725.95 38.35 M687.85 90.9 L688.75 90.9 Q689.2 90.9 689.5 91.2 L689.5 92.0 688.95 92.25 688.15 92.6 Q687.85 92.15 687.85 90.9 M674.55 86.75 L674.25 87.05 Q672.75 86.9 672.6 86.45 672.75 85.95 673.2 85.95 L673.8 86.2 674.55 86.75 M701.9 89.35 L702.05 90.3 701.9 91.5 701.45 91.65 700.95 91.85 Q700.4 91.85 700.4 90.9 700.4 89.9 700.75 89.65 L701.75 89.5 701.9 89.35 M725.35 90.25 L724.7 91.4 723.55 92.65 Q722.95 92.65 722.65 92.2 723.4 89.9 725.2 89.55 L725.3 89.35 725.35 90.25" fill="#ffffff" fill-rule="evenodd" stroke="none"/>
    <path d="M713.35 91.9 Q712.85 91.75 712.65 91.45 L713.45 90.85 Q714.05 90.6 714.45 90.85 714.45 91.65 713.85 92.05 L713.35 91.9" fill="#ffffff" fill-rule="evenodd" stroke="none"/>
  </g>
</svg>
