<?xml version="1.0" encoding="UTF-8" standalone="no"?>
<svg xmlns:ffdec="https://www.free-decompiler.com/flash" xmlns:xlink="http://www.w3.org/1999/xlink" ffdec:objectType="shape" height="55.1px" width="126.4px" xmlns="http://www.w3.org/2000/svg">
  <g transform="matrix(1.0, 0.0, 0.0, 1.0, -672.15, -37.4)">
    <path d="M767.9 59.1 Q768.25 58.75 769.2 59.4 L768.35 60.15 Q767.9 59.85 767.9 59.1 M735.7 89.3 L735.7 90.15 Q735.6 90.05 735.55 90.2 L735.1 90.5 734.6 90.5 734.5 89.55 734.5 88.65 734.65 88.5 735.4 88.5 735.55 88.35 735.7 89.3 M781.6 61.0 L781.0 60.55 781.85 59.55 Q782.85 58.55 783.55 58.55 783.55 59.65 782.05 61.15 L781.6 61.0 M772.55 90.15 L773.35 90.2 773.5 90.5 773.65 91.1 773.2 91.4 Q772.15 90.9 772.15 90.2 L772.55 90.15 M785.75 89.0 Q786.2 88.95 786.65 89.4 786.65 89.9 785.75 90.7 L785.35 90.7 Q785.2 91.6 785.2 90.1 785.2 89.1 785.75 89.0 M798.2 86.55 Q798.55 86.6 798.55 87.55 L798.35 88.75 798.1 88.85 797.65 89.3 796.7 89.3 Q796.45 89.2 796.45 88.25 796.45 86.65 797.8 86.65 L798.2 86.55 M699.8 42.5 Q699.65 43.35 699.65 41.85 699.65 41.05 699.9 40.4 L700.15 39.15 700.75 39.15 Q701.2 39.85 701.2 41.85 L699.8 42.5 M712.9 40.75 Q713.35 40.4 713.5 40.4 L713.65 40.3 713.8 41.3 713.7 42.35 713.5 42.6 713.05 42.6 Q712.75 41.75 712.3 41.45 L712.9 40.75 M724.8 37.45 L725.25 38.8 Q724.95 39.25 724.45 39.25 L724.3 39.35 Q724.15 39.3 724.15 38.35 724.15 37.45 724.3 37.4 L724.45 37.45 724.8 37.45 M688.0 90.6 Q688.75 90.6 689.05 91.05 688.7 92.05 687.55 91.8 L688.0 90.6 M673.05 87.05 L672.6 87.35 Q672.15 87.5 672.15 86.55 672.15 85.55 673.0 85.25 L674.55 85.05 674.85 85.5 673.05 87.05 M699.9 92.5 L699.8 91.5 Q699.8 90.65 701.6 89.55 L700.8 91.15 699.95 92.4 699.9 92.5 M723.55 92.05 L723.2 91.75 723.1 90.7 Q723.1 89.7 723.65 89.5 L724.75 89.4 Q724.75 90.85 724.15 92.05 L723.55 92.05" fill="#ffffff" fill-rule="evenodd" stroke="none"/>
  </g>
</svg>
