<?xml version="1.0" encoding="UTF-8" standalone="no"?>
<svg xmlns:ffdec="https://www.free-decompiler.com/flash" xmlns:xlink="http://www.w3.org/1999/xlink" ffdec:objectType="shape" height="53.4px" width="126.05px" xmlns="http://www.w3.org/2000/svg">
  <g transform="matrix(1.0, 0.0, 0.0, 1.0, -673.2, -39.45)">
    <path d="M769.2 58.65 L769.95 58.65 Q770.3 58.65 770.4 58.95 L769.8 59.85 769.2 60.0 769.2 58.65 M735.55 87.2 L735.7 88.2 735.7 89.05 Q735.6 88.95 735.55 89.1 L735.1 89.4 734.6 89.35 734.5 88.4 734.5 87.45 734.65 87.3 735.4 87.3 735.55 87.2 M781.75 60.4 L781.4 59.55 781.15 58.7 782.2 58.7 Q782.5 59.15 782.5 59.95 782.2 60.4 781.75 60.4 M771.0 92.3 Q770.7 93.1 770.7 91.6 770.7 90.65 771.45 90.5 L772.9 90.5 773.35 90.95 772.4 91.8 771.0 92.3 M786.95 89.1 L786.95 90.0 786.8 90.25 785.5 90.45 784.3 90.0 784.3 89.25 786.95 89.1 M797.05 89.3 L797.65 88.5 798.95 87.25 Q799.25 86.45 799.25 87.95 799.25 88.9 798.9 89.3 L798.25 89.9 797.65 90.15 Q797.05 90.25 797.05 89.3 M699.65 42.2 Q699.35 43.1 699.35 41.6 699.35 40.9 699.8 40.35 L700.9 39.45 700.6 42.05 699.65 42.2 M675.15 86.15 L674.85 86.45 673.35 86.3 Q673.2 85.95 673.2 85.2 L673.8 85.2 674.55 85.65 675.15 86.15 M690.15 89.7 L690.15 90.75 690.15 91.8 689.95 92.0 689.35 92.0 689.1 91.8 689.05 90.75 689.05 89.7 689.2 89.5 689.95 89.5 690.15 89.7 M700.25 89.55 L701.15 89.5 701.5 90.35 Q701.7 91.15 702.05 91.65 701.75 92.1 700.55 92.1 700.25 91.65 700.25 89.55 M725.3 89.75 L725.35 90.6 725.2 91.3 725.35 91.55 724.35 91.75 Q723.2 91.75 721.5 88.8 L723.05 89.0 Q724.25 89.35 725.2 90.0 L725.3 89.75" fill="#ffffff" fill-rule="evenodd" stroke="none"/>
    <path d="M712.8 90.75 L712.95 90.7 713.4 90.7 714.15 92.5 Q714.0 92.85 713.1 92.85 L712.95 92.65 Q712.8 92.5 712.8 91.6 L712.8 90.75" fill="#ffffff" fill-rule="evenodd" stroke="none"/>
  </g>
</svg>
