<?xml version="1.0" encoding="UTF-8" standalone="no"?>
<svg xmlns:ffdec="https://www.free-decompiler.com/flash" xmlns:xlink="http://www.w3.org/1999/xlink" ffdec:objectType="shape" height="56.75px" width="123.85px" xmlns="http://www.w3.org/2000/svg">
  <g transform="matrix(1.0, 0.0, 0.0, 1.0, -674.4, -36.25)">
    <path d="M735.7 88.95 Q734.8 88.65 734.65 88.2 L735.55 88.0 Q736.1 88.05 736.3 88.35 L735.7 88.95 M768.35 60.6 Q768.35 59.0 770.25 58.35 L770.7 59.25 768.9 60.9 768.35 60.6 M771.55 90.6 L770.55 90.2 Q770.4 89.8 770.4 89.05 L771.0 89.05 772.3 90.35 772.15 90.8 771.55 90.6 M797.45 88.75 L796.25 88.85 Q796.5 87.7 797.95 87.7 L798.25 88.15 797.45 88.75 M702.1 40.05 L700.1 40.65 Q698.75 40.45 698.75 39.6 L701.2 39.3 701.6 39.6 702.1 40.05 M723.2 36.3 L723.55 36.7 723.55 36.55 726.0 37.45 726.15 37.75 725.25 38.05 723.5 38.05 Q723.1 37.95 723.1 37.0 723.1 36.1 723.2 36.3 M713.8 43.95 L713.05 44.1 Q712.75 43.65 712.75 42.75 713.6 42.55 713.95 43.05 L713.8 43.95 M674.55 87.5 Q674.4 88.35 674.4 86.85 L674.55 86.15 675.7 86.0 677.0 86.15 677.0 86.9 674.55 87.5 M690.45 90.75 Q690.35 91.1 689.55 91.15 688.7 91.25 688.6 90.9 L689.45 90.0 690.45 90.75 M702.05 91.35 Q702.05 92.25 701.6 92.55 L701.0 93.0 700.55 93.0 Q700.25 91.2 700.25 90.0 L701.15 90.0 Q701.4 90.25 701.75 90.3 702.05 90.45 702.05 91.35 M722.4 91.3 L721.8 89.55 722.8 89.55 723.1 90.85 722.4 91.3" fill="#ffffff" fill-rule="evenodd" stroke="none"/>
  </g>
</svg>
