<?xml version="1.0" encoding="UTF-8" standalone="no"?>
<svg xmlns:ffdec="https://www.free-decompiler.com/flash" xmlns:xlink="http://www.w3.org/1999/xlink" ffdec:objectType="shape" height="56.15px" width="128.25px" xmlns="http://www.w3.org/2000/svg">
  <g transform="matrix(1.0, 0.0, 0.0, 1.0, -671.0, -36.85)">
    <path d="M768.9 60.25 L768.9 61.2 768.75 61.35 767.9 61.45 767.6 59.85 767.3 57.9 767.9 57.75 768.7 58.8 768.9 60.25 M734.75 88.7 Q734.95 88.6 734.95 89.55 L734.5 90.05 Q733.7 89.95 732.25 89.1 732.35 88.75 733.1 88.7 L734.5 88.95 734.75 88.7 M779.85 62.5 L779.7 62.75 Q779.55 62.8 779.55 61.85 779.55 61.0 780.6 60.65 L782.35 60.25 782.65 60.7 779.85 62.5 M771.6 90.5 L771.05 89.65 770.85 88.75 Q771.25 88.15 772.3 88.15 772.75 88.6 772.75 89.95 772.6 90.35 771.6 90.5 M784.0 89.4 L784.0 88.35 785.2 88.5 785.45 89.85 785.05 90.15 784.0 89.4 M798.8 89.3 Q798.25 89.2 796.9 88.3 L796.6 87.55 797.85 87.65 799.25 88.85 798.8 89.3 M690.4 40.15 L690.65 40.4 690.7 41.45 690.65 42.5 690.4 42.8 689.8 42.8 689.55 42.5 689.5 41.45 689.5 40.4 689.65 40.15 690.4 40.15 M701.5 39.8 Q702.4 38.65 703.25 38.25 702.85 40.75 700.6 41.1 L701.5 39.8 M711.55 41.9 L711.2 42.2 Q710.8 42.35 710.8 41.4 710.8 40.6 711.95 40.1 L713.65 39.65 713.95 40.1 713.2 40.85 Q712.45 41.6 711.55 41.9 M724.3 38.55 L723.7 37.3 723.85 36.85 725.7 38.65 Q725.7 39.1 724.8 39.25 L724.3 38.55 M676.2 85.1 L676.25 85.95 676.1 87.15 674.85 87.2 Q672.85 87.2 671.0 85.8 L673.85 85.6 676.1 85.35 676.2 85.1 M688.3 90.6 Q688.3 91.3 687.4 91.95 L686.8 91.5 687.55 90.15 Q688.0 90.15 688.3 90.6 M722.95 91.75 Q722.8 91.3 722.8 90.45 723.65 90.45 724.45 91.0 724.1 91.5 722.95 91.75 M699.95 91.8 L699.4 91.8 Q700.35 89.7 702.2 89.7 L701.55 90.75 699.95 91.8" fill="#ffffff" fill-rule="evenodd" stroke="none"/>
    <path d="M713.8 92.05 L713.25 92.8 713.05 93.0 Q712.8 93.0 712.8 92.05 712.8 91.15 712.9 91.25 L712.95 91.3 714.0 91.15 Q714.1 91.45 713.8 92.05" fill="#ffffff" fill-rule="evenodd" stroke="none"/>
  </g>
</svg>
