<?xml version="1.0" encoding="UTF-8" standalone="no"?>
<svg xmlns:ffdec="https://www.free-decompiler.com/flash" xmlns:xlink="http://www.w3.org/1999/xlink" ffdec:objectType="shape" height="55.7px" width="126.25px" xmlns="http://www.w3.org/2000/svg">
  <g transform="matrix(1.0, 0.0, 0.0, 1.0, -671.85, -37.3)">
    <path d="M766.35 60.15 L766.3 60.4 Q766.2 60.45 766.2 59.5 766.2 58.6 766.4 58.65 L766.55 58.8 Q767.9 58.95 768.05 59.4 767.3 60.15 766.35 60.15 M734.4 88.25 L734.65 89.9 733.9 90.5 732.95 89.45 Q732.7 88.9 732.7 87.8 L732.85 86.85 733.45 86.85 Q734.15 87.45 734.4 88.25 M780.55 60.7 Q781.25 60.0 782.65 60.7 782.45 61.05 781.65 61.05 L780.55 60.7 M773.35 89.5 Q772.0 91.1 771.15 91.4 771.05 91.55 770.95 91.5 770.7 91.45 770.7 90.5 L771.55 89.5 772.75 88.6 773.35 89.5 M784.9 89.35 Q785.4 88.8 785.9 88.8 L786.05 89.1 786.2 89.7 785.05 90.85 784.45 90.55 Q784.45 89.9 784.9 89.35 M798.1 88.45 Q798.1 89.35 797.75 89.9 L797.05 90.85 796.45 91.15 796.3 91.4 Q796.1 91.45 796.1 90.5 796.1 89.7 796.55 88.95 796.9 88.35 796.75 88.0 L797.8 87.85 Q798.1 86.95 798.1 88.45 M688.9 41.3 Q688.15 40.8 688.15 39.4 L691.45 39.85 Q691.2 40.6 688.9 41.3 M700.9 41.25 L700.9 40.05 Q702.05 40.05 702.5 40.35 L701.8 41.55 700.9 41.25 M711.1 41.75 Q711.85 41.0 712.9 41.0 L713.05 41.45 712.15 42.45 711.7 42.25 711.1 41.75 M725.75 37.5 L725.85 38.45 725.7 39.1 724.95 39.55 724.8 39.65 Q724.65 39.6 724.65 38.65 724.65 37.15 724.8 37.3 L725.4 37.3 725.75 37.5 M674.7 86.4 Q674.7 87.3 673.75 88.0 L672.45 88.8 671.85 88.5 Q672.55 86.55 674.4 85.35 L674.6 85.5 674.7 86.4 M726.75 89.85 L726.9 90.85 726.65 92.15 726.25 92.65 725.2 92.8 725.05 92.9 Q724.9 92.85 724.9 91.9 724.9 91.45 725.5 90.8 L726.55 90.0 726.75 89.85" fill="#ffffff" fill-rule="evenodd" stroke="none"/>
    <path d="M713.7 91.95 L713.25 93.0 712.8 92.9 712.25 92.5 712.55 91.5 Q712.8 90.9 714.15 91.0 L713.7 91.95" fill="#ffffff" fill-rule="evenodd" stroke="none"/>
  </g>
</svg>
