<?xml version="1.0" encoding="UTF-8" standalone="no"?>
<svg xmlns:ffdec="https://www.free-decompiler.com/flash" xmlns:xlink="http://www.w3.org/1999/xlink" ffdec:objectType="shape" height="236.65px" width="198.8px" xmlns="http://www.w3.org/2000/svg">
  <g transform="matrix(1.0, 0.0, 0.0, 1.0, 71.95, 89.55)">
    <path d="M118.45 -60.65 L116.75 -86.6 116.25 -87.2 -67.5 -23.35 -68.4 -22.35 -23.6 144.9 -22.75 145.25 125.0 70.25 125.75 69.45 125.75 70.05 -22.6 145.65 -23.85 145.4 -26.55 136.15 -68.75 -22.7 Q-68.4 -23.85 -67.15 -24.1 L111.05 -86.1 Q116.25 -88.75 117.1 -86.85 L118.45 -60.65" fill="#b0ada9" fill-rule="evenodd" stroke="none"/>
    <path d="M125.75 69.45 L125.0 70.25 -22.75 145.25 -23.6 144.9 -68.4 -22.35 -67.5 -23.35 116.25 -87.2 116.75 -86.6 118.45 -60.65 125.75 69.4 125.75 69.45" fill="#c4c2bc" fill-rule="evenodd" stroke="none"/>
    <path d="M118.45 -60.65 L117.1 -86.85 Q116.25 -88.75 111.05 -86.1 L-67.15 -24.1 Q-68.4 -23.85 -68.75 -22.7 L-26.55 136.15 -23.85 145.4 -22.6 145.65 125.75 70.05 125.75 69.45 125.75 69.4 118.45 -60.65 M116.6 -89.3 Q117.75 -89.7 118.35 -87.2 L126.85 69.8 125.25 71.65 -16.2 143.8 -22.85 147.0 Q-24.2 147.5 -25.6 145.75 L-70.85 -20.85 Q-71.1 -22.6 -70.35 -23.85 -69.85 -25.05 -67.9 -25.8 L116.6 -89.3" fill="#c8c8c8" fill-rule="evenodd" stroke="none"/>
    <path d="M-25.6 145.75 L-26.8 143.9 -71.35 -19.5 Q-72.45 -23.85 -71.6 -24.3 -70.85 -25.8 -69.25 -26.4 L113.4 -89.55 116.6 -89.3 -67.9 -25.8 Q-69.85 -25.05 -70.35 -23.85 -71.1 -22.6 -70.85 -20.85 L-25.6 145.75" fill="#818181" fill-rule="evenodd" stroke="none"/>
  </g>
</svg>
