<?xml version="1.0" encoding="UTF-8" standalone="no"?>
<svg xmlns:ffdec="https://www.free-decompiler.com/flash" xmlns:xlink="http://www.w3.org/1999/xlink" ffdec:objectType="shape" height="190.5px" width="124.9px" xmlns="http://www.w3.org/2000/svg">
  <g transform="matrix(1.0, 0.0, 0.0, 1.0, -45.6, 36.25)">
    <path d="M46.3 151.3 L46.0 152.0 46.3 152.1 118.4 110.95 119.2 109.95 167.45 -34.7 167.45 -35.1 Q166.1 -34.5 157.3 -25.6 L157.2 -25.6 151.7 -20.3 151.5 -20.2 149.8 -18.5 149.6 -18.4 147.95 -16.75 147.75 -16.65 146.05 -14.95 145.85 -14.85 144.1 -13.1 143.9 -13.0 142.2 -11.3 142.0 -11.2 140.35 -9.5 140.15 -9.4 138.45 -7.75 138.15 -7.55 136.6 -5.95 136.3 -5.75 134.7 -4.2 134.4 -4.0 132.85 -2.4 132.45 -2.1 130.95 -0.65 130.55 -0.35 129.1 1.15 128.7 1.45 127.2 2.9 126.8 3.2 125.35 4.7 124.85 5.1 123.45 6.45 122.95 6.85 121.6 8.25 121.1 8.65 115.45 14.05 115.15 14.05 114.0 15.45 113.5 15.95 113.2 15.95 112.1 17.2 111.6 17.7 111.3 17.7 110.25 19.0 109.75 19.5 109.45 19.5 108.25 20.85 107.85 21.25 107.45 21.35 105.9 23.15 105.5 23.25 99.25 29.4 97.1 31.4 96.7 31.7 93.75 34.6 66.7 101.0 66.6 101.2 66.55 101.5 66.45 101.65 66.35 101.95 66.25 102.15 66.15 102.45 66.05 102.65 65.95 102.95 65.85 103.15 65.75 103.45 65.65 103.65 65.25 104.65 65.15 104.85 65.05 105.15 64.95 105.3 64.85 105.6 64.75 105.8 64.65 106.1 64.55 106.3 64.45 106.6 64.35 106.8 64.25 107.1 64.15 107.3 64.05 107.6 63.25 109.45 63.15 109.75 63.05 109.95 62.95 110.25 62.9 110.45 62.8 110.75 56.85 125.25 56.75 125.55 56.65 125.75 56.55 126.05 56.45 126.25 56.35 126.55 56.25 126.75 56.15 127.05 56.05 127.25 55.5 128.7 55.4 128.9 55.3 129.2 55.2 129.4 55.1 129.7 55.0 129.9 54.9 130.2 54.8 130.4 54.7 130.7 54.6 130.9 54.5 131.2 54.4 131.35 54.3 131.65 54.2 131.85 54.1 132.15 54.0 132.35 53.9 132.65 53.7 133.05 53.6 133.35 53.5 133.55 53.4 133.85 53.3 134.05 53.2 134.35 53.1 134.55 53.0 134.85 52.9 135.0 52.8 135.3 52.7 135.5 52.6 135.8 52.5 136.0 52.4 136.3 52.3 136.5 52.2 136.8 52.1 137.0 52.0 137.3 51.9 137.5 51.8 137.8 51.75 138.0 51.65 138.3 51.55 138.5 51.45 138.6 51.05 139.55 50.95 139.75 50.85 140.05 50.75 140.25 50.65 140.55 50.55 140.75 50.45 141.05 50.35 141.25 48.95 144.7 48.85 144.9 47.7 147.95 47.6 148.15 47.5 148.45 46.5 150.8 46.4 151.1 46.3 151.3 M168.15 -36.25 L168.35 -35.55 119.4 110.75 117.75 112.55 45.6 153.2 45.7 151.9 93.35 34.8 95.55 32.3 Q160.45 -29.85 168.15 -36.25" fill="#252525" fill-rule="evenodd" stroke="none"/>
    <path d="M45.6 153.2 L117.75 112.55 119.4 110.75 168.35 -35.55 168.15 -36.25 Q170.9 -35.55 170.4 -34.3 L122.55 111.25 120.5 113.8 48.35 153.95 47.5 154.25 45.6 153.2" fill="#acacac" fill-rule="evenodd" stroke="none"/>
    <path d="M46.3 151.3 L46.4 151.8 46.9 151.6 118.35 110.65 118.9 109.95 167.25 -34.5 166.85 -34.7 157.3 -25.6 Q166.1 -34.5 167.45 -35.1 L167.45 -34.7 119.2 109.95 118.4 110.95 46.3 152.1 46.0 152.0 46.3 151.3 M115.45 14.05 L114.0 15.45 115.15 14.05 115.45 14.05 M113.5 15.95 L112.1 17.2 113.2 15.95 113.5 15.95 M111.6 17.7 L110.25 19.0 111.3 17.7 111.6 17.7 M109.75 19.5 L108.25 20.85 109.45 19.5 109.75 19.5 M107.85 21.25 L105.9 23.15 99.25 29.4 105.5 23.25 105.9 23.15 107.45 21.35 107.85 21.25" fill="#212020" fill-rule="evenodd" stroke="none"/>
    <path d="M157.3 -25.6 L166.85 -34.7 167.25 -34.5 118.9 109.95 118.35 110.65 46.9 151.6 46.4 151.8 46.3 151.3 46.4 151.1 46.5 150.8 47.5 148.45 47.6 148.15 47.7 147.95 48.85 144.9 48.95 144.7 50.35 141.25 50.45 141.05 50.55 140.75 50.65 140.55 50.75 140.25 50.85 140.05 50.95 139.75 51.05 139.55 51.45 138.6 51.55 138.5 51.65 138.3 51.75 138.0 51.8 137.8 51.9 137.5 52.0 137.3 52.1 137.0 52.2 136.8 52.3 136.5 52.4 136.3 52.5 136.0 52.6 135.8 52.7 135.5 52.8 135.3 52.9 135.0 53.0 134.85 53.1 134.55 53.2 134.35 53.3 134.05 53.4 133.85 53.5 133.55 53.6 133.35 53.7 133.05 53.9 132.65 54.0 132.35 54.1 132.15 54.2 131.85 54.3 131.65 54.4 131.35 54.5 131.2 54.6 130.9 54.7 130.7 54.8 130.4 54.9 130.2 55.0 129.9 55.1 129.7 55.2 129.4 55.3 129.2 55.4 128.9 55.5 128.7 56.05 127.25 56.15 127.05 56.25 126.75 56.35 126.55 56.45 126.25 56.55 126.05 56.65 125.75 56.75 125.55 56.85 125.25 62.8 110.75 62.9 110.45 62.95 110.25 63.05 109.95 63.15 109.75 63.25 109.45 64.05 107.6 64.15 107.3 64.25 107.1 64.35 106.8 64.45 106.6 64.55 106.3 64.65 106.1 64.75 105.8 64.85 105.6 64.95 105.3 65.05 105.15 65.15 104.85 65.25 104.65 65.65 103.65 65.75 103.45 65.85 103.15 65.95 102.95 66.05 102.65 66.15 102.45 66.25 102.15 66.35 101.95 66.45 101.65 66.55 101.5 66.6 101.2 66.7 101.0 93.75 34.6 96.7 31.7 97.1 31.4 99.25 29.4 105.9 23.15 107.85 21.25 108.25 20.85 109.75 19.5 110.25 19.0 111.6 17.7 112.1 17.2 113.5 15.95 114.0 15.45 115.45 14.05 121.1 8.65 121.6 8.25 122.95 6.85 123.45 6.45 124.85 5.1 125.35 4.7 126.8 3.2 127.2 2.9 128.7 1.45 129.1 1.15 130.55 -0.35 130.95 -0.65 132.45 -2.1 132.85 -2.4 134.4 -4.0 134.7 -4.2 136.3 -5.75 136.6 -5.95 138.15 -7.55 138.45 -7.75 140.15 -9.4 140.35 -9.5 142.0 -11.2 142.2 -11.3 143.9 -13.0 144.1 -13.1 145.85 -14.85 146.05 -14.95 147.75 -16.65 147.95 -16.75 149.6 -18.4 149.8 -18.5 151.5 -20.2 151.7 -20.3 157.2 -25.6 157.3 -25.6" fill="#252423" fill-rule="evenodd" stroke="none"/>
  </g>
</svg>
