<?xml version="1.0" encoding="UTF-8" standalone="no"?>
<svg xmlns:ffdec="https://www.free-decompiler.com/flash" xmlns:xlink="http://www.w3.org/1999/xlink" ffdec:objectType="shape" height="168.2px" width="130.65px" xmlns="http://www.w3.org/2000/svg">
  <g transform="matrix(1.0, 0.0, 0.0, 1.0, -45.55, 18.4)">
    <path d="M46.45 147.35 L46.8 147.75 47.95 147.75 159.15 137.6 160.15 136.4 173.25 -16.45 172.9 -16.95 173.6 -16.9 160.55 136.5 160.05 137.6 158.95 138.1 47.55 148.1 46.7 148.1 46.45 147.35 M172.6 -16.95 L70.5 23.8 Q78.7 19.7 155.35 -10.5 168.9 -16.5 172.6 -16.95" fill="#6b6a67" fill-rule="evenodd" stroke="none"/>
    <path d="M46.45 147.35 L46.7 148.1 47.55 148.1 158.95 138.1 160.05 137.6 160.55 136.5 173.6 -16.9 172.9 -16.95 172.85 -17.05 172.6 -16.95 Q168.9 -16.5 155.35 -10.5 78.7 19.7 70.5 23.8 L70.25 24.25 70.25 24.4 46.45 147.1 46.45 147.35 M46.55 149.2 Q45.35 148.85 45.6 147.35 L69.9 23.65 71.6 22.15 172.0 -18.15 174.1 -18.4 174.7 -16.8 161.9 136.0 161.0 138.35 Q160.15 139.45 158.2 139.6 L46.55 149.2" fill="#7a7a7a" fill-rule="evenodd" stroke="none"/>
    <path d="M172.9 -16.95 L173.25 -16.45 160.15 136.4 159.15 137.6 47.95 147.75 46.8 147.75 46.45 147.35 46.45 147.1 70.25 24.4 70.25 24.25 70.5 23.8 172.6 -16.95 172.85 -17.05 172.9 -16.95" fill="#777672" fill-rule="evenodd" stroke="none"/>
    <path d="M46.55 149.2 L158.2 139.6 Q160.15 139.45 161.0 138.35 L161.9 136.0 174.7 -16.8 174.1 -18.4 Q175.7 -17.8 176.2 -16.3 L163.25 138.5 162.25 139.7 160.9 140.35 50.75 149.7 Q47.45 150.05 46.55 149.2" fill="#a3a3a3" fill-rule="evenodd" stroke="none"/>
  </g>
</svg>
