<?xml version="1.0" encoding="UTF-8" standalone="no"?>
<svg xmlns:ffdec="https://www.free-decompiler.com/flash" xmlns:xlink="http://www.w3.org/1999/xlink" ffdec:objectType="shape" height="142.6px" width="132.3px" xmlns="http://www.w3.org/2000/svg">
  <g transform="matrix(1.0, 0.0, 0.0, 1.0, -10.2, 7.45)">
    <path d="M137.35 -5.95 Q137.95 -5.95 137.95 -3.6 L140.8 132.55 140.05 133.65 12.05 130.2 11.55 129.6 12.55 -1.65 14.25 -2.0 137.35 -5.95" fill="#eeebe3" fill-rule="evenodd" stroke="none"/>
    <path d="M137.35 -5.95 L14.25 -2.0 12.55 -1.65 11.55 129.6 12.05 130.2 140.05 133.65 140.8 132.55 137.95 -3.6 Q137.95 -5.95 137.35 -5.95 M138.2 -5.6 L141.15 131.7 Q141.55 133.3 140.45 133.9 L11.65 130.35 11.3 129.95 11.3 104.8 12.15 2.45 Q11.8 -1.75 12.65 -2.0 L16.1 -2.35 137.7 -6.2 138.2 -5.6" fill="#d5d2cc" fill-rule="evenodd" stroke="none"/>
    <path d="M138.2 -5.6 L137.7 -6.2 16.1 -2.35 12.65 -2.0 Q11.8 -1.75 12.15 2.45 L11.3 104.8 11.3 129.95 11.65 130.35 140.45 133.9 Q141.55 133.3 141.15 131.7 L138.2 -5.6 M139.55 -4.45 L142.5 132.2 142.3 133.9 Q141.3 135.25 140.3 135.15 23.95 132.35 11.05 131.2 L10.2 129.6 11.15 -0.65 Q11.05 -2.1 11.8 -2.6 L13.0 -3.25 136.1 -7.45 Q138.45 -7.55 138.7 -6.95 139.45 -6.8 139.55 -4.45" fill="#f2f2f2" fill-rule="evenodd" stroke="none"/>
  </g>
</svg>
