<?xml version="1.0" encoding="UTF-8" standalone="no"?>
<svg xmlns:ffdec="https://www.free-decompiler.com/flash" xmlns:xlink="http://www.w3.org/1999/xlink" ffdec:objectType="shape" height="178.8px" width="110.4px" xmlns="http://www.w3.org/2000/svg">
  <g transform="matrix(1.0, 0.0, 0.0, 1.0, 97.5, 64.0)">
    <path d="M-95.6 114.8 Q-98.0 114.0 -97.35 113.1 L-36.0 -26.1 -34.3 -28.4 10.8 -63.95 11.3 -64.0 12.85 -63.1 -30.9 -28.0 Q-32.55 -26.85 -33.85 -24.3 L-94.05 110.85 -95.6 114.8" fill="#bebebe" fill-rule="evenodd" stroke="none"/>
    <path d="M-33.3 -24.6 L-32.7 -25.45 -24.35 -32.0 11.8 -61.45 12.0 -61.6 12.1 -61.45 12.0 -61.3 11.95 -61.05 11.6 -60.35 11.5 -60.2 11.45 -60.15 -0.1 -36.05 -0.15 -35.9 -0.95 -34.25 -1.05 -34.15 -2.85 -30.3 -2.95 -30.2 -5.5 -24.9 -5.55 -24.75 -5.6 -24.6 -6.45 -22.85 -6.55 -22.7 -7.05 -21.65 -7.1 -21.5 -8.0 -19.6 -8.05 -19.45 -9.0 -17.55 -9.05 -17.4 -11.4 -12.55 -11.45 -12.45 -11.5 -12.3 -11.95 -11.45 -12.0 -11.3 -12.4 -10.5 -12.45 -10.4 -12.5 -10.25 -12.95 -9.4 -13.05 -9.05 -13.45 -8.35 -13.5 -8.2 -13.85 -7.5 -14.0 -7.15 -14.45 -6.3 -14.5 -6.15 -15.4 -4.25 -15.45 -4.1 -15.6 -3.85 -15.7 -3.6 -15.75 -3.5 -16.4 -2.2 -16.45 -2.05 -16.45 -2.0 -16.55 -1.8 -16.9 -1.1 -16.95 -0.95 -17.4 -0.1 -17.45 0.1 -17.9 0.95 -17.95 1.1 -18.85 3.0 -18.9 3.15 -19.35 4.05 -19.4 4.2 -19.85 5.05 -19.9 5.2 -20.35 6.1 -20.4 6.25 -21.1 7.75 -21.2 7.85 -22.05 9.65 -22.1 9.75 -23.3 12.25 -23.35 12.4 -23.8 13.3 -23.85 13.45 -24.8 15.35 -24.85 15.5 -25.8 17.4 -25.85 17.55 -26.75 19.45 -26.8 19.6 -26.9 19.7 -29.15 24.45 -29.25 24.55 -29.3 24.7 -30.2 26.6 -30.25 26.75 -30.7 27.65 -30.75 27.8 -31.7 29.7 -31.75 29.85 -32.7 31.75 -32.75 31.9 -35.1 36.8 -35.15 36.9 -35.2 37.05 -36.05 38.8 -36.15 38.95 -36.2 39.1 -37.1 41.0 -37.15 41.15 -37.6 42.05 -37.65 42.2 -38.1 43.05 -38.15 43.2 -38.6 44.1 -38.65 44.25 -39.35 45.75 -39.45 45.85 -41.05 49.25 -41.1 49.4 -41.55 50.2 -41.6 50.35 -41.75 50.65 -41.9 50.85 -42.0 51.0 -42.05 51.1 -49.65 60.15 -49.8 60.3 -50.8 61.5 -50.95 61.65 -51.55 62.45 -51.7 62.55 -52.7 63.75 -52.85 63.9 -53.05 64.2 -53.2 64.35 -54.15 65.5 -54.3 65.65 -54.95 66.45 -55.1 66.55 -55.3 66.85 -55.45 67.0 -56.05 67.8 -56.2 67.95 -56.4 68.2 -56.55 68.35 -57.2 69.1 -57.35 69.25 -57.55 69.55 -57.7 69.7 -57.95 70.05 -58.1 70.15 -58.7 70.9 -58.85 71.0 -59.1 71.4 -59.25 71.5 -59.45 71.8 -59.6 71.95 -60.6 73.15 -60.75 73.3 -60.95 73.55 -61.05 73.7 -61.35 74.05 -61.5 74.2 -62.05 74.9 -62.2 75.05 -62.5 75.4 -62.65 75.55 -62.85 75.8 -62.95 75.95 -63.2 76.25 -63.3 76.35 -63.6 76.75 -63.75 76.85 -63.95 77.15 -64.1 77.3 -64.3 77.55 -65.25 78.65 -65.45 78.9 -65.65 79.15 -65.85 79.4 -66.0 79.55 -66.6 80.25 -66.75 80.45 -67.0 80.75 -67.15 80.9 -67.35 81.2 -67.5 81.3 -67.7 81.6 -67.9 81.8 -68.45 82.5 -68.6 82.65 -68.8 82.95 -69.05 83.15 -69.25 83.4 -69.4 83.55 -70.2 84.5 -70.35 84.75 -70.5 84.9 -70.7 85.2 -70.85 85.3 -71.1 85.6 -71.3 85.8 -71.5 86.1 -71.65 86.25 -71.85 86.55 -72.1 86.75 -72.2 86.95 -72.4 87.15 -73.35 88.3 -73.55 88.5 -73.75 88.75 -74.3 89.4 -74.45 89.65 -74.65 89.85 -74.9 90.15 -75.05 90.25 -75.25 90.55 -75.45 90.75 -75.6 90.95 -75.8 91.15 -76.35 91.9 -76.6 92.1 -76.7 92.3 -76.95 92.5 -77.15 92.8 -78.05 93.85 -78.25 94.15 -78.4 94.25 -78.6 94.55 -78.75 94.7 -79.0 95.0 -79.2 95.2 -79.4 95.5 -79.55 95.6 -79.75 95.9 -79.9 96.05 -80.1 96.3 -80.25 96.45 -80.9 97.25 -81.05 97.4 -81.25 97.65 -81.35 97.8 -81.65 98.15 -81.8 98.3 -82.35 99.0 -82.5 99.15 -83.15 99.9 -83.25 100.05 -84.25 101.25 -84.4 101.4 -84.6 101.65 -84.75 101.8 -85.75 103.0 -85.9 103.15 -94.05 112.85 -94.55 113.35 -94.6 113.25 -94.35 112.45 -93.2 109.9 -93.05 109.65 -92.7 108.8 -92.5 108.4 -92.4 108.0 -92.25 107.75 -92.15 107.5 -91.95 107.1 -91.9 106.9 -91.1 105.2 -91.0 105.0 -90.95 104.85 -90.8 104.55 -90.75 104.45 -90.75 104.35 -90.45 103.8 -90.45 103.7 -90.4 103.55 -90.2 103.15 -90.2 103.1 -89.95 102.65 -89.9 102.5 -89.9 102.45 -89.6 101.9 -89.6 101.8 -89.35 101.25 -89.35 101.2 -89.25 101.05 -89.1 100.85 -89.05 100.6 -89.05 100.55 -88.85 100.2 -88.75 100.0 -88.75 99.9 -88.7 99.75 -88.55 99.55 -88.5 99.35 -88.5 99.3 -88.45 99.15 -88.3 98.95 -88.2 98.7 -88.2 98.65 -88.0 98.3 -87.85 97.95 -87.85 97.9 -87.7 97.65 -87.55 97.3 -87.55 97.25 -68.75 55.05 -68.7 54.8 -68.45 54.4 -68.4 54.15 -67.9 53.15 -67.85 52.9 -67.65 52.5 -67.55 52.25 -67.35 51.85 -67.25 51.65 -67.05 51.3 -67.0 51.0 -66.75 50.65 -66.7 50.35 -66.5 50.0 -66.45 49.75 -66.25 49.4 -66.15 49.1 -65.95 48.75 -65.85 48.45 -65.65 48.1 -65.6 47.85 -65.45 47.65 -65.45 47.55 -65.15 47.0 -65.15 46.9 -65.0 46.55 -64.85 46.35 -64.85 46.25 -64.75 45.95 -64.6 45.75 -64.6 45.65 -64.45 45.3 -64.3 45.1 -64.3 45.0 -64.2 44.65 -64.05 44.45 -64.05 44.35 -63.6 43.4 -63.45 43.1 -62.8 41.5 -62.55 41.05 -62.5 40.85 -62.35 40.55 -62.15 40.1 -62.0 39.8 -60.85 37.25 -60.75 36.9 -60.65 36.8 -60.35 36.15 -60.3 36.0 -59.45 34.1 -59.3 33.75 -58.9 32.85 -58.75 32.45 -58.7 32.35 -58.4 31.7 -58.35 31.55 -58.1 31.05 -58.05 30.95 -57.0 28.5 -56.9 28.4 -56.8 28.0 -56.4 27.25 -56.35 27.1 -56.0 26.35 -55.9 26.1 -55.45 25.05 -55.4 24.85 -55.15 24.45 -55.1 24.2 -54.95 23.95 -54.8 23.6 -54.75 23.45 -54.45 22.8 -54.4 22.65 -54.3 22.55 -54.25 22.3 -54.0 21.9 -53.9 21.55 -53.45 20.6 -53.35 20.25 -53.2 20.0 -53.05 19.65 -52.95 19.5 -52.45 18.35 -52.4 18.25 -52.35 18.1 -52.2 17.75 -52.05 17.45 -51.9 17.1 -51.3 15.7 -51.2 15.55 -51.05 15.2 -51.0 15.05 -50.95 14.9 -50.5 13.95 -50.45 13.8 -50.35 13.65 -50.2 13.3 -50.05 13.0 -49.95 12.7 -49.5 11.75 -49.4 11.4 -49.25 11.1 -49.1 10.75 -49.0 10.65 -48.5 9.5 -48.45 9.35 -48.4 9.2 -48.25 8.85 -48.1 8.6 -48.0 8.25 -47.35 6.8 -47.25 6.7 -47.1 6.3 -47.05 6.2 -47.0 6.05 -46.5 4.9 -46.4 4.8 -46.25 4.4 -46.15 4.15 -46.0 3.8 -45.35 2.35 -45.3 2.25 -45.05 1.75 -45.0 1.6 -44.5 0.45 -44.45 0.35 -33.65 -23.9 -33.6 -24.0 -33.35 -24.4 -33.35 -24.45 -33.3 -24.6" fill="#272625" fill-rule="evenodd" stroke="none"/>
    <path d="M-95.6 114.8 L-94.05 110.85 -33.85 -24.3 Q-32.55 -26.85 -30.9 -28.0 L12.85 -63.1 Q13.05 -62.8 12.3 -61.2 L-41.75 51.1 -92.1 111.1 Q-94.9 114.8 -95.6 114.8 M12.1 -61.45 L12.3 -61.9 12.15 -61.95 -16.95 -38.2 -21.25 -35.0 -32.6 -25.75 -33.3 -24.6 -33.35 -24.45 -33.35 -24.4 -33.6 -24.0 -33.65 -23.9 -44.45 0.35 -44.5 0.45 -45.0 1.6 -45.05 1.75 -45.3 2.25 -45.35 2.35 -46.0 3.8 -46.15 4.15 -46.25 4.4 -46.4 4.8 -46.5 4.9 -47.0 6.05 -47.05 6.2 -47.1 6.3 -47.25 6.7 -47.35 6.8 -48.0 8.25 -48.1 8.6 -48.25 8.85 -48.4 9.2 -48.45 9.35 -48.5 9.5 -49.0 10.65 -49.1 10.75 -49.25 11.1 -49.4 11.4 -49.5 11.75 -49.95 12.7 -50.05 13.0 -50.2 13.3 -50.35 13.65 -50.45 13.8 -50.5 13.95 -50.95 14.9 -51.0 15.05 -51.05 15.2 -51.2 15.55 -51.3 15.7 -51.9 17.1 -52.05 17.45 -52.2 17.75 -52.35 18.1 -52.4 18.25 -52.45 18.35 -52.95 19.5 -53.05 19.65 -53.2 20.0 -53.35 20.25 -53.45 20.6 -53.9 21.55 -54.0 21.9 -54.25 22.3 -54.3 22.55 -54.4 22.65 -54.45 22.8 -54.75 23.45 -54.8 23.6 -54.95 23.95 -55.1 24.2 -55.15 24.45 -55.4 24.85 -55.45 25.05 -55.9 26.1 -56.0 26.35 -56.35 27.1 -56.4 27.25 -56.8 28.0 -56.9 28.4 -57.0 28.5 -58.05 30.95 -58.1 31.05 -58.35 31.55 -58.4 31.7 -58.7 32.35 -58.75 32.45 -58.9 32.85 -59.3 33.75 -59.45 34.1 -60.3 36.0 -60.35 36.15 -60.65 36.8 -60.75 36.9 -60.85 37.25 -62.0 39.8 -62.15 40.1 -62.35 40.55 -62.5 40.85 -62.55 41.05 -62.8 41.5 -63.45 43.1 -63.6 43.4 -64.05 44.35 -64.05 44.45 -64.2 44.65 -64.3 45.0 -64.3 45.1 -64.45 45.3 -64.6 45.65 -64.6 45.75 -64.75 45.95 -64.85 46.25 -64.85 46.35 -65.0 46.55 -65.15 46.9 -65.15 47.0 -65.45 47.55 -65.45 47.65 -65.6 47.85 -65.65 48.1 -65.85 48.45 -65.95 48.75 -66.15 49.1 -66.25 49.4 -66.45 49.75 -66.5 50.0 -66.7 50.35 -66.75 50.65 -67.0 51.0 -67.05 51.3 -67.25 51.65 -67.35 51.85 -67.55 52.25 -67.65 52.5 -67.85 52.9 -67.9 53.15 -68.4 54.15 -68.45 54.4 -68.7 54.8 -68.75 55.05 -87.55 97.25 -87.55 97.3 -87.7 97.65 -87.85 97.9 -87.85 97.95 -88.0 98.3 -88.2 98.65 -88.2 98.7 -88.3 98.95 -88.45 99.15 -88.5 99.3 -88.5 99.35 -88.55 99.55 -88.7 99.75 -88.75 99.9 -88.75 100.0 -88.85 100.2 -89.05 100.55 -89.05 100.6 -89.1 100.85 -89.25 101.05 -89.35 101.2 -89.35 101.25 -89.6 101.8 -89.6 101.9 -89.9 102.45 -89.9 102.5 -89.95 102.65 -90.2 103.1 -90.2 103.15 -90.4 103.55 -90.45 103.7 -90.45 103.8 -90.75 104.35 -90.75 104.45 -90.8 104.55 -90.95 104.85 -91.0 105.0 -91.1 105.2 -91.9 106.9 -91.95 107.1 -92.15 107.5 -92.25 107.75 -92.4 108.0 -92.5 108.4 -92.7 108.8 -93.05 109.65 -93.2 109.9 -94.35 112.45 -94.6 113.25 -94.85 113.45 -94.75 113.75 -94.05 112.85 -85.9 103.15 -85.75 103.0 -84.75 101.8 -84.6 101.65 -84.4 101.4 -84.25 101.25 -83.25 100.05 -83.15 99.9 -82.5 99.15 -82.35 99.0 -81.8 98.3 -81.65 98.15 -81.35 97.8 -81.25 97.65 -81.05 97.4 -80.9 97.25 -80.25 96.45 -80.1 96.3 -79.9 96.05 -79.75 95.9 -79.55 95.6 -79.4 95.5 -79.2 95.2 -79.0 95.0 -78.75 94.7 -78.6 94.55 -78.4 94.25 -78.25 94.15 -78.05 93.85 -77.15 92.8 -76.95 92.5 -76.7 92.3 -76.6 92.1 -76.35 91.9 -75.8 91.15 -75.6 90.95 -75.45 90.75 -75.25 90.55 -75.05 90.25 -74.9 90.15 -74.65 89.85 -74.45 89.65 -74.3 89.4 -73.75 88.75 -73.55 88.5 -73.35 88.3 -72.4 87.15 -72.2 86.95 -72.1 86.75 -71.85 86.55 -71.65 86.25 -71.5 86.1 -71.3 85.8 -71.1 85.6 -70.85 85.3 -70.7 85.2 -70.5 84.9 -70.35 84.75 -70.2 84.5 -69.4 83.55 -69.25 83.4 -69.05 83.15 -68.8 82.95 -68.6 82.65 -68.45 82.5 -67.9 81.8 -67.7 81.6 -67.5 81.3 -67.35 81.2 -67.15 80.9 -67.0 80.75 -66.75 80.45 -66.6 80.25 -66.0 79.55 -65.85 79.4 -65.65 79.15 -65.45 78.9 -65.25 78.65 -64.3 77.55 -64.1 77.3 -63.95 77.15 -63.75 76.85 -63.6 76.75 -63.3 76.35 -63.2 76.25 -62.95 75.95 -62.85 75.8 -62.65 75.55 -62.5 75.4 -62.2 75.05 -62.05 74.9 -61.5 74.2 -61.35 74.05 -61.05 73.7 -60.95 73.55 -60.75 73.3 -60.6 73.15 -59.6 71.95 -59.45 71.8 -59.25 71.5 -59.1 71.4 -58.85 71.0 -58.7 70.9 -58.1 70.15 -57.95 70.05 -57.7 69.7 -57.55 69.55 -57.35 69.25 -57.2 69.1 -56.55 68.35 -56.4 68.2 -56.2 67.95 -56.05 67.8 -55.45 67.0 -55.3 66.85 -55.1 66.55 -54.95 66.45 -54.3 65.65 -54.15 65.5 -53.2 64.35 -53.05 64.2 -52.85 63.9 -52.7 63.75 -51.7 62.55 -51.55 62.45 -50.95 61.65 -50.8 61.5 -49.8 60.3 -49.65 60.15 -42.05 51.1 -42.0 51.0 -41.9 50.85 -41.75 50.65 -41.6 50.35 -41.55 50.2 -41.1 49.4 -41.05 49.25 -39.45 45.85 -39.35 45.75 -38.65 44.25 -38.6 44.1 -38.15 43.2 -38.1 43.05 -37.65 42.2 -37.6 42.05 -37.15 41.15 -37.1 41.0 -36.2 39.1 -36.15 38.95 -36.05 38.8 -35.2 37.05 -35.15 36.9 -35.1 36.8 -32.75 31.9 -32.7 31.75 -31.75 29.85 -31.7 29.7 -30.75 27.8 -30.7 27.65 -30.25 26.75 -30.2 26.6 -29.3 24.7 -29.25 24.55 -29.15 24.45 -26.9 19.7 -26.8 19.6 -26.75 19.45 -25.85 17.55 -25.8 17.4 -24.85 15.5 -24.8 15.35 -23.85 13.45 -23.8 13.3 -23.35 12.4 -23.3 12.25 -22.1 9.75 -22.05 9.65 -21.2 7.85 -21.1 7.75 -20.4 6.25 -20.35 6.1 -19.9 5.2 -19.85 5.05 -19.4 4.2 -19.35 4.05 -18.9 3.15 -18.85 3.0 -17.95 1.1 -17.9 0.95 -17.45 0.1 -17.4 -0.1 -16.95 -0.95 -16.9 -1.1 -16.55 -1.8 -16.45 -2.0 -16.45 -2.05 -16.4 -2.2 -15.75 -3.5 -15.7 -3.6 -15.6 -3.85 -15.45 -4.1 -15.4 -4.25 -14.5 -6.15 -14.45 -6.3 -14.0 -7.15 -13.85 -7.5 -13.5 -8.2 -13.45 -8.35 -13.05 -9.05 -12.95 -9.4 -12.5 -10.25 -12.45 -10.4 -12.4 -10.5 -12.0 -11.3 -11.95 -11.45 -11.5 -12.3 -11.45 -12.45 -11.4 -12.55 -9.05 -17.4 -9.0 -17.55 -8.05 -19.45 -8.0 -19.6 -7.1 -21.5 -7.05 -21.65 -6.55 -22.7 -6.45 -22.85 -5.6 -24.6 -5.55 -24.75 -5.5 -24.9 -2.95 -30.2 -2.85 -30.3 -1.05 -34.15 -0.95 -34.25 -0.15 -35.9 -0.1 -36.05 11.45 -60.15 11.5 -60.2 11.6 -60.35 11.95 -61.05 12.0 -61.3 12.1 -61.45" fill="#282828" fill-rule="evenodd" stroke="none"/>
    <path d="M-33.3 -24.6 L-32.6 -25.75 -21.25 -35.0 -16.95 -38.2 12.15 -61.95 12.3 -61.9 12.1 -61.45 12.0 -61.6 11.8 -61.45 -24.35 -32.0 -32.7 -25.45 -33.3 -24.6 M-94.05 112.85 L-94.75 113.75 -94.85 113.45 -94.6 113.25 -94.55 113.35 -94.05 112.85" fill="#232221" fill-rule="evenodd" stroke="none"/>
  </g>
</svg>
