<?xml version="1.0" encoding="UTF-8" standalone="no"?>
<svg xmlns:ffdec="https://www.free-decompiler.com/flash" xmlns:xlink="http://www.w3.org/1999/xlink" ffdec:objectType="shape" height="314.95px" width="505.35px" xmlns="http://www.w3.org/2000/svg">
  <g transform="matrix(1.0, 0.0, 0.0, 1.0, 73.9, 50.55)">
    <path d="M315.9 -50.55 L316.3 -50.2 316.3 47.3 316.0 47.35 315.9 47.2 315.9 -50.55 M315.9 166.5 L316.3 166.4 316.3 263.85 315.9 264.4 315.9 166.5" fill="#bbbbbb" fill-rule="evenodd" stroke="none"/>
    <path d="M392.3 36.95 L392.3 -46.85 393.25 -47.0 393.25 36.95 392.3 36.95 M281.95 67.45 L281.95 146.35 281.1 146.35 281.1 67.45 281.95 67.45" fill="#101010" fill-rule="evenodd" stroke="none"/>
    <path d="M393.25 -47.0 L403.6 -24.1 403.5 47.55 393.25 36.95 393.25 -47.0 M281.95 67.45 L307.45 73.2 307.45 141.05 281.95 146.35 281.95 67.45" fill="#121212" fill-rule="evenodd" stroke="none"/>
    <path d="M308.0 47.75 L231.4 52.4 231.25 52.3 231.25 -37.2 315.9 -50.55 315.9 47.2 308.0 47.75 M315.9 264.4 L231.25 251.25 231.25 161.7 256.75 163.0 257.25 163.1 258.1 163.1 258.6 163.2 259.45 163.2 259.9 163.25 260.85 163.25 261.25 163.35 262.2 163.35 262.55 163.4 263.6 163.4 263.95 163.45 264.95 163.45 265.15 163.55 266.3 163.55 266.55 163.65 267.65 163.65 267.85 163.75 290.9 165.0 291.65 165.05 295.0 165.2 295.6 165.3 296.45 165.3 297.0 165.4 299.1 165.45 299.55 165.55 301.8 165.55 302.25 165.65 303.2 165.65 303.55 165.8 304.55 165.8 304.9 165.85 305.95 165.85 306.25 165.9 307.25 165.9 307.55 166.05 308.65 166.05 308.85 166.05 310.0 166.05 310.2 166.15 311.35 166.15 311.5 166.25 315.9 166.5 315.9 264.4" fill="#0f0f0f" fill-rule="evenodd" stroke="none"/>
    <path d="M316.0 47.35 L308.0 47.75 315.9 47.2 316.0 47.35 M403.5 47.55 L402.75 47.7 392.3 36.95 393.25 36.95 403.5 47.55" fill="#060606" fill-rule="evenodd" stroke="none"/>
    <path d="M431.45 80.5 L431.45 133.6 377.45 132.65 377.45 81.5 431.45 80.5" fill="#a6a6a6" fill-rule="evenodd" stroke="none"/>
    <path d="M418.15 254.55 L388.35 233.9 388.35 169.85 388.75 169.75 389.65 169.85 418.5 179.75 418.15 179.9 418.15 254.55" fill="#000000" fill-rule="evenodd" stroke="none"/>
    <path d="M418.15 254.55 L418.15 179.9 418.5 179.75 419.05 179.8 419.05 254.45 418.15 254.55" fill="#171717" fill-rule="evenodd" stroke="none"/>
    <path d="M-34.75 36.95 L-34.75 -46.85 -35.7 -47.0 -35.7 36.95 -34.75 36.95 M75.55 67.45 L75.55 146.35 76.45 146.35 76.45 67.45 75.55 67.45" fill="#101010" fill-rule="evenodd" stroke="none"/>
    <path d="M-35.7 -47.0 L-46.05 -24.1 -46.0 47.55 -35.7 36.95 -35.7 -47.0 M75.55 67.45 L50.1 73.2 50.1 141.05 75.55 146.35 75.55 67.45" fill="#121212" fill-rule="evenodd" stroke="none"/>
    <path d="M-46.0 47.55 L-45.2 47.7 -34.75 36.95 -35.7 36.95 -46.0 47.55 M41.65 47.2 L41.55 47.35 49.55 47.75 41.65 47.2" fill="#060606" fill-rule="evenodd" stroke="none"/>
    <path d="M-19.9 81.5 L-73.9 80.5 -73.9 133.6 -19.9 132.65 -19.9 81.5" fill="#a6a6a6" fill-rule="evenodd" stroke="none"/>
    <path d="M-60.65 254.55 L-60.65 179.9 -60.95 179.75 -61.5 179.8 -61.5 254.45 -60.65 254.55" fill="#171717" fill-rule="evenodd" stroke="none"/>
    <path d="M-60.95 179.75 L-60.65 179.9 -60.65 254.55 -30.8 233.9 -30.8 169.85 -31.25 169.8 -32.1 169.85 -60.95 179.75" fill="#000000" fill-rule="evenodd" stroke="none"/>
    <path d="M41.65 166.5 L41.25 166.4 41.25 263.85 41.65 264.4 41.65 166.5 M41.55 47.35 L41.65 47.2 41.65 -50.55 41.25 -50.2 41.25 47.3 41.55 47.35" fill="#bbbbbb" fill-rule="evenodd" stroke="none"/>
    <path d="M41.65 264.4 L126.3 251.3 126.3 161.7 100.75 163.0 100.25 163.1 99.45 163.1 98.95 163.2 98.1 163.2 97.6 163.25 96.65 163.25 96.3 163.35 95.35 163.35 94.95 163.45 93.9 163.45 93.6 163.45 92.6 163.45 92.35 163.55 91.25 163.55 91.0 163.65 89.85 163.65 89.7 163.75 66.6 165.0 65.9 165.05 62.55 165.2 61.9 165.3 61.1 165.3 60.55 165.4 58.45 165.45 58.0 165.6 55.7 165.6 55.3 165.65 54.35 165.65 53.95 165.8 52.95 165.8 52.65 165.85 51.6 165.85 51.3 165.9 50.25 165.9 50.0 166.05 48.85 166.05 48.65 166.1 47.55 166.1 47.35 166.15 46.15 166.15 46.05 166.25 41.65 166.5 41.65 264.4 M41.65 47.2 L49.55 47.75 126.1 52.4 126.3 52.3 126.3 -37.2 41.65 -50.55 41.65 47.2" fill="#0f0f0f" fill-rule="evenodd" stroke="none"/>
  </g>
</svg>
