<?xml version="1.0" encoding="UTF-8" standalone="no"?>
<svg xmlns:ffdec="https://www.free-decompiler.com/flash" xmlns:xlink="http://www.w3.org/1999/xlink" ffdec:objectType="shape" height="354.25px" width="518.35px" xmlns="http://www.w3.org/2000/svg">
  <g transform="matrix(1.0, 0.0, 0.0, 1.0, 80.4, 74.0)">
    <path d="M184.85 50.6 L184.85 -62.6 185.3 -63.05 185.3 50.6 184.85 50.6 M185.3 276.7 L184.85 276.5 185.05 255.2 185.3 276.7" fill="#272727" fill-rule="evenodd" stroke="none"/>
    <path d="M185.3 50.6 L185.3 -63.05 276.7 -40.65 276.8 58.15 276.2 58.2 275.4 58.15 274.85 58.15 274.0 58.0 273.4 58.0 272.7 57.9 272.0 57.9 271.3 57.75 270.6 57.75 269.9 57.65 267.75 57.55 267.05 57.4 266.3 57.4 265.65 57.3 264.95 57.3 264.25 57.15 263.5 57.15 262.8 57.05 262.8 48.7 261.55 48.7 252.55 56.25 252.25 56.25 251.4 56.1 249.25 56.05 248.55 55.9 247.85 55.9 247.15 55.8 246.45 55.8 245.75 55.65 245.0 55.65 244.3 55.55 243.6 55.55 242.9 55.45 242.2 55.45 241.5 55.3 240.8 55.3 240.1 55.2 239.35 55.2 238.7 55.05 238.0 55.05 237.25 54.95 236.55 54.95 235.85 54.85 235.1 54.85 234.4 54.7 233.75 54.7 233.0 54.6 232.35 54.6 231.6 54.5 230.85 54.5 230.2 54.35 229.5 54.35 228.75 54.25 228.1 54.25 227.35 54.1 225.2 54.0 224.55 53.9 223.85 53.9 223.1 53.75 222.4 53.75 221.7 53.65 221.0 53.65 220.3 53.5 219.6 53.5 218.9 53.45 218.2 53.45 217.45 53.3 216.75 53.3 215.85 53.15 215.35 53.15 214.45 53.05 213.95 53.05 212.95 52.95 212.5 52.95 211.55 52.85 211.15 52.85 210.2 52.7 209.7 52.7 208.75 52.55 208.25 52.55 203.1 52.15 202.6 52.15 201.7 52.0 201.25 52.0 200.3 51.9 199.8 51.9 198.85 51.8 198.35 51.8 197.45 51.65 197.0 51.65 196.05 51.55 195.55 51.55 194.6 51.4 194.15 51.4 193.25 51.35 192.75 51.35 191.8 51.2 191.35 51.2 190.35 51.05 189.9 51.05 188.95 50.95 188.5 50.95 187.6 50.85 185.8 50.75 185.3 50.6 M262.8 156.85 L263.95 156.85 264.55 156.7 265.55 156.7 266.1 156.6 267.05 156.6 267.65 156.5 268.6 156.5 269.2 156.35 270.0 156.35 270.6 156.25 271.5 156.25 272.1 156.1 273.05 156.1 273.65 156.05 274.6 156.05 275.3 155.9 276.8 155.9 276.8 254.8 185.3 276.7 185.05 255.2 185.2 162.9 186.05 162.85 186.5 162.85 190.5 162.45 191.1 162.45 192.05 162.35 194.15 162.25 195.05 162.1 197.2 162.0 198.15 161.85 201.7 161.7 202.6 161.55 203.2 161.55 204.15 161.4 209.35 161.1 210.3 160.95 211.0 160.95 211.55 160.8 212.5 160.8 213.1 160.75 214.05 160.75 214.65 160.6 215.5 160.6 216.15 160.5 217.0 160.5 217.7 160.35 218.55 160.35 219.25 160.25 220.1 160.25 220.7 160.15 221.6 160.15 222.2 160.0 223.1 160.0 223.7 159.9 224.65 159.9 225.2 159.75 226.15 159.75 226.75 159.65 227.7 159.65 228.3 159.55 229.15 159.55 229.8 159.4 230.65 159.4 231.25 159.3 232.2 159.3 232.8 159.2 233.75 159.2 234.35 159.05 235.25 159.05 235.85 158.95 236.8 158.95 237.4 158.8 238.3 158.8 238.85 158.7 239.8 158.7 240.3 158.6 241.35 158.6 241.85 158.45 242.8 158.45 243.4 158.35 244.3 158.35 244.9 158.2 245.85 158.2 246.45 158.15 247.4 158.15 248.0 158.0 248.9 158.0 249.5 157.85 250.45 157.85 250.9 157.75 252.0 157.75 252.45 157.65 252.55 157.65 252.55 157.55 261.55 164.85 262.8 164.85 262.8 156.85" fill="#ececec" fill-rule="evenodd" stroke="none"/>
    <path d="M262.8 57.05 L262.8 156.85 262.8 164.85 261.55 164.85 261.55 48.7 262.8 48.7 262.8 57.05 M381.4 -74.0 L382.8 -74.0 382.8 47.55 382.3 47.75 381.4 47.7 381.4 -74.0" fill="#e6e6e6" fill-rule="evenodd" stroke="none"/>
    <path d="M252.55 157.55 L247.4 153.4 247.4 60.95 252.55 56.25 261.55 48.7 261.55 164.85 252.55 157.55 M381.4 -74.0 L381.4 47.7 350.4 57.65 343.5 57.75 343.4 69.45 343.3 60.5 343.3 60.0 341.45 60.6 341.35 -35.15 381.4 -74.0 M411.45 166.05 L408.0 165.45 411.8 165.9 411.45 166.05" fill="#000000" fill-rule="evenodd" stroke="none"/>
    <path d="M184.85 50.6 L185.3 50.6 185.8 50.75 184.85 50.6 M381.4 47.7 L382.3 47.75 351.65 57.75 350.4 57.65 381.4 47.7 M343.3 60.5 L341.45 60.6 343.3 60.0 343.3 60.5" fill="#060606" fill-rule="evenodd" stroke="none"/>
    <path d="M351.65 57.75 L437.95 58.75 437.95 154.85 435.4 155.15 343.5 156.05 343.4 69.45 343.5 57.75 350.4 57.65 351.65 57.75" fill="#171717" fill-rule="evenodd" stroke="none"/>
    <path d="M411.45 280.25 L331.3 251.05 331.3 156.25 332.65 156.25 333.25 156.35 333.6 156.35 334.2 156.5 334.55 156.5 335.1 156.6 335.5 156.6 336.05 156.7 336.4 156.7 337.0 156.85 337.5 156.85 337.95 156.95 338.45 156.95 339.05 157.1 339.35 157.1 339.95 157.2 341.25 157.25 341.8 157.4 342.3 157.4 342.9 157.55 343.3 157.55 343.85 157.65 344.15 157.65 344.75 157.75 345.1 157.75 345.7 157.85 346.05 157.85 346.65 158.0 347.15 158.0 347.75 158.15 348.1 158.15 348.65 158.2 349.0 158.2 349.6 158.35 349.95 158.35 350.55 158.45 350.9 158.45 351.65 158.6 352.1 158.6 352.55 158.7 353.0 158.7 353.45 158.8 353.95 158.8 354.4 158.95 354.9 158.95 355.45 159.05 356.0 159.05 356.45 159.2 356.95 159.2 357.4 159.3 357.85 159.3 358.3 159.4 358.75 159.4 359.35 159.55 359.7 159.55 360.3 159.65 360.8 159.65 361.25 159.75 361.8 159.75 362.2 159.9 362.65 159.9 363.15 160.0 363.6 160.0 364.2 160.15 364.55 160.15 365.15 160.25 365.65 160.25 366.1 160.35 366.5 160.35 367.05 160.5 367.5 160.5 368.1 160.6 368.45 160.6 369.05 160.75 369.4 160.75 370.0 160.8 370.45 160.8 370.95 160.95 371.35 160.95 371.95 161.1 372.3 161.1 372.9 161.2 373.3 161.2 373.9 161.3 374.25 161.3 374.85 161.4 375.3 161.4 375.85 161.55 376.2 161.55 376.8 161.7 377.15 161.7 377.75 161.8 378.1 161.8 378.7 161.85 379.05 161.85 379.65 162.0 380.15 162.0 383.65 162.45 384.0 162.45 407.9 165.45 408.0 165.45 411.45 166.05 411.45 280.25" fill="#040404" fill-rule="evenodd" stroke="none"/>
    <path d="M411.45 280.25 L411.45 166.05 411.8 165.9 412.25 165.9 412.25 279.8 411.45 280.25" fill="#ebebeb" fill-rule="evenodd" stroke="none"/>
    <path d="M-24.8 47.75 L-23.9 47.7 -23.9 -74.0 -25.3 -74.0 -25.3 47.55 -24.8 47.75 M94.75 57.05 L94.75 156.85 94.75 164.85 96.0 164.85 96.0 48.7 94.75 48.7 94.75 57.05" fill="#e6e6e6" fill-rule="evenodd" stroke="none"/>
    <path d="M-23.9 47.7 L-24.8 47.75 5.9 57.75 7.1 57.65 -23.9 47.7 M14.25 60.5 L16.05 60.6 14.25 60.0 14.25 60.5 M171.75 50.75 L172.7 50.6 172.25 50.6 171.75 50.75" fill="#060606" fill-rule="evenodd" stroke="none"/>
    <path d="M7.1 57.65 L5.9 57.75 -80.4 58.75 -80.4 154.85 -77.9 155.15 14.0 156.05 14.15 69.45 14.0 57.75 7.1 57.65" fill="#171717" fill-rule="evenodd" stroke="none"/>
    <path d="M-54.3 165.9 L-54.7 165.9 -54.7 279.8 -53.9 280.25 -53.9 166.05 -54.3 165.9" fill="#ebebeb" fill-rule="evenodd" stroke="none"/>
    <path d="M-23.9 -74.0 L-23.9 47.7 7.1 57.65 14.0 57.75 14.15 69.45 14.25 60.5 14.25 60.0 16.05 60.6 16.15 -35.15 -23.9 -74.0 M-50.45 165.45 L-54.3 165.9 -53.9 166.05 -50.45 165.45 M104.95 157.55 L110.15 153.4 110.15 60.95 104.95 56.25 96.0 48.7 96.0 164.85 104.95 157.55" fill="#000000" fill-rule="evenodd" stroke="none"/>
    <path d="M-53.9 280.25 L26.2 251.05 26.2 156.25 24.9 156.25 24.3 156.35 23.95 156.35 23.35 156.5 22.95 156.5 22.4 156.65 22.05 156.65 21.45 156.7 21.15 156.7 20.55 156.85 20.05 156.85 19.6 156.95 19.1 156.95 18.5 157.1 18.15 157.1 17.6 157.2 16.3 157.25 15.7 157.4 15.2 157.4 14.6 157.55 14.25 157.55 13.7 157.65 13.4 157.65 12.8 157.75 12.4 157.75 11.85 157.85 11.45 157.85 10.85 158.0 10.35 158.0 9.75 158.15 9.45 158.15 8.9 158.2 8.55 158.2 7.95 158.35 7.6 158.35 7.0 158.45 6.6 158.45 5.9 158.6 5.45 158.6 5.0 158.75 4.5 158.75 4.05 158.8 3.55 158.8 3.1 158.95 2.65 158.95 2.05 159.05 1.55 159.05 1.1 159.2 0.6 159.2 0.15 159.3 -0.3 159.3 -0.8 159.4 -1.25 159.4 -1.85 159.55 -2.2 159.55 -2.8 159.65 -3.3 159.65 -3.75 159.8 -4.25 159.8 -4.65 159.9 -5.1 159.9 -5.6 160.0 -6.05 160.0 -6.65 160.15 -7.05 160.15 -7.65 160.25 -8.15 160.25 -8.6 160.35 -9.0 160.35 -9.5 160.5 -9.95 160.5 -10.55 160.6 -10.9 160.6 -11.5 160.75 -11.85 160.75 -12.45 160.85 -12.9 160.85 -13.4 160.95 -13.85 160.95 -14.45 161.1 -14.8 161.1 -15.4 161.2 -15.75 161.2 -16.35 161.35 -16.7 161.35 -17.3 161.4 -17.75 161.4 -18.3 161.55 -18.65 161.55 -19.25 161.7 -19.65 161.7 -20.25 161.8 -20.6 161.8 -21.2 161.9 -21.5 161.9 -22.15 162.0 -22.6 162.0 -26.1 162.45 -26.5 162.45 -50.35 165.45 -50.45 165.45 -53.9 166.05 -53.9 280.25" fill="#040404" fill-rule="evenodd" stroke="none"/>
    <path d="M172.25 276.7 L172.7 276.5 172.45 255.2 172.25 276.7 M172.7 50.6 L172.7 -62.6 172.25 -63.05 172.25 50.6 172.7 50.6" fill="#272727" fill-rule="evenodd" stroke="none"/>
    <path d="M172.45 255.2 L172.3 162.95 171.5 162.85 171.05 162.85 167.0 162.45 166.45 162.45 165.45 162.35 163.35 162.25 162.45 162.1 160.3 162.0 159.4 161.9 155.85 161.7 154.9 161.55 154.35 161.55 153.35 161.4 148.15 161.1 147.25 160.95 146.5 160.95 145.95 160.85 145.0 160.85 144.4 160.75 143.45 160.75 142.85 160.6 142.05 160.6 141.35 160.5 140.55 160.5 139.8 160.35 139.0 160.35 138.3 160.25 137.45 160.25 136.85 160.15 135.95 160.15 135.35 160.0 134.4 160.0 133.85 159.9 132.85 159.9 132.3 159.8 131.35 159.8 130.75 159.65 129.8 159.65 129.2 159.55 128.4 159.55 127.7 159.4 126.9 159.4 126.3 159.3 125.35 159.3 124.75 159.2 123.8 159.2 123.2 159.05 122.3 159.05 121.7 158.95 120.7 158.95 120.15 158.8 119.2 158.8 118.65 158.75 117.7 158.75 117.2 158.6 116.15 158.6 115.65 158.45 114.75 158.45 114.15 158.35 113.25 158.35 112.65 158.2 111.7 158.2 111.1 158.15 110.15 158.15 109.55 158.0 108.6 158.0 108.05 157.85 107.05 157.85 106.6 157.75 105.5 157.75 105.05 157.65 104.95 157.65 104.95 157.55 96.0 164.85 94.75 164.85 94.75 156.85 93.55 156.85 92.95 156.7 92.0 156.7 91.4 156.65 90.5 156.65 89.9 156.5 88.95 156.5 88.35 156.35 87.55 156.35 86.95 156.25 86.0 156.25 85.45 156.1 84.45 156.1 83.9 156.05 82.9 156.05 82.25 155.9 80.75 155.9 80.75 254.8 172.25 276.7 172.45 255.2 M104.95 56.25 L105.3 56.25 106.1 56.15 108.25 56.05 109.0 55.9 109.65 55.9 110.35 55.8 111.1 55.8 111.75 55.65 112.5 55.65 113.25 55.55 113.9 55.55 114.6 55.45 115.35 55.45 116.0 55.3 116.75 55.3 117.45 55.2 118.15 55.2 118.85 55.1 119.55 55.1 120.25 54.95 121.0 54.95 121.7 54.85 122.4 54.85 123.15 54.7 123.8 54.7 124.5 54.6 125.2 54.6 125.95 54.5 126.65 54.5 127.35 54.35 128.05 54.35 128.75 54.25 129.45 54.25 130.2 54.1 132.3 54.05 132.95 53.9 133.7 53.9 134.4 53.75 135.1 53.75 135.85 53.65 136.5 53.65 137.2 53.55 137.95 53.55 138.6 53.45 139.35 53.45 140.1 53.3 140.75 53.3 141.7 53.15 142.2 53.15 143.1 53.05 143.6 53.05 144.55 52.95 145.0 52.95 145.95 52.85 146.4 52.85 147.35 52.7 147.85 52.7 148.75 52.55 149.25 52.55 154.4 52.15 154.9 52.15 155.85 52.0 156.3 52.0 157.25 51.95 157.7 51.95 158.65 51.8 159.15 51.8 160.1 51.65 160.55 51.65 161.5 51.55 161.95 51.55 162.9 51.45 163.35 51.45 164.3 51.35 164.8 51.35 165.75 51.2 166.2 51.2 167.15 51.05 167.6 51.05 168.6 50.95 169.05 50.95 169.95 50.85 170.3 50.85 171.4 50.75 171.75 50.75 172.25 50.6 172.25 -63.05 80.8 -40.65 80.75 58.15 81.3 58.25 82.15 58.15 82.7 58.15 83.5 58.0 84.1 58.0 84.85 57.9 85.5 57.9 86.25 57.75 86.95 57.75 87.6 57.65 89.75 57.55 90.5 57.4 91.25 57.4 91.85 57.3 92.6 57.3 93.3 57.2 94.0 57.2 94.75 57.05 94.75 48.7 96.0 48.7 104.95 56.25" fill="#ececec" fill-rule="evenodd" stroke="none"/>
  </g>
</svg>
