<?xml version="1.0" encoding="UTF-8" standalone="no"?>
<svg xmlns:ffdec="https://www.free-decompiler.com/flash" xmlns:xlink="http://www.w3.org/1999/xlink" ffdec:objectType="shape" height="300.5px" width="409.75px" xmlns="http://www.w3.org/2000/svg">
  <g transform="matrix(1.0, 0.0, 0.0, 1.0, 26.1, 42.3)">
    <path d="M282.85 57.3 L270.25 57.3 270.25 256.5 170.85 256.5 170.85 -42.3 369.65 -42.3 369.65 52.0 283.4 47.45 282.85 47.85 282.85 57.3" fill="#d6d6d6" fill-rule="evenodd" stroke="none"/>
    <path d="M283.4 47.45 L369.65 52.0 383.65 52.85 383.65 161.1 371.25 161.8 283.4 166.15 283.4 47.45" fill="#eeeeee" fill-rule="evenodd" stroke="none"/>
    <path d="M371.25 161.8 L371.25 256.95 271.35 258.2 271.35 156.95 282.85 156.95 282.85 165.9 283.4 166.15 371.25 161.8" fill="#dadada" fill-rule="evenodd" stroke="none"/>
    <path d="M282.85 57.3 L282.85 47.85 283.4 47.45 283.4 166.15 282.85 165.9 282.85 156.95 282.85 57.3" fill="#000000" fill-rule="evenodd" stroke="none"/>
    <path d="M-12.1 52.0 L-26.1 52.85 -26.1 161.1 -13.75 161.8 74.1 166.15 74.1 47.45 -12.1 52.0" fill="#eeeeee" fill-rule="evenodd" stroke="none"/>
    <path d="M74.1 166.15 L-13.75 161.8 -13.75 256.95 86.15 258.2 86.15 156.95 74.7 156.95 74.7 165.9 74.1 166.15" fill="#dadada" fill-rule="evenodd" stroke="none"/>
    <path d="M-12.1 52.0 L74.1 47.45 74.7 47.85 74.7 57.3 87.3 57.3 87.3 256.5 186.7 256.5 186.7 -42.3 -12.1 -42.3 -12.1 52.0" fill="#d6d6d6" fill-rule="evenodd" stroke="none"/>
    <path d="M74.1 47.45 L74.1 166.15 74.7 165.9 74.7 156.95 74.7 57.3 74.7 47.85 74.1 47.45" fill="#000000" fill-rule="evenodd" stroke="none"/>
  </g>
</svg>
