<?xml version="1.0" encoding="UTF-8" standalone="no"?>
<svg xmlns:ffdec="https://www.free-decompiler.com/flash" xmlns:xlink="http://www.w3.org/1999/xlink" ffdec:objectType="shape" height="91.8px" width="1005.3px" xmlns="http://www.w3.org/2000/svg">
  <g transform="matrix(1.0, 0.0, 0.0, 1.0, 453.7, -345.6)">
    <path d="M360.35 366.7 L359.8 399.95 Q359.7 402.1 360.7 403.05 361.8 404.0 363.95 404.0 365.75 404.0 366.85 403.1 367.95 402.15 367.9 400.0 L367.35 368.35 388.05 366.7 386.7 420.1 370.15 420.8 370.15 412.55 369.95 412.55 Q368.2 417.45 364.3 419.5 360.5 421.55 355.35 421.55 348.55 421.55 344.35 417.55 340.1 413.6 340.1 405.95 L340.1 368.35 360.35 366.7 M339.0 394.1 Q339.0 399.5 337.2 404.45 335.45 409.45 332.15 413.35 328.85 417.2 324.25 419.55 319.65 421.9 314.15 421.9 311.4 421.9 308.2 421.05 305.0 420.3 302.45 417.8 L303.0 435.75 284.0 437.4 283.05 368.35 301.7 366.7 301.7 372.8 Q304.55 369.7 307.65 368.2 310.75 366.7 315.1 366.7 320.5 366.7 324.95 369.1 329.35 371.5 332.5 375.35 335.6 379.25 337.3 384.1 339.0 389.05 339.0 394.1 M435.75 368.3 Q440.25 370.6 443.6 374.45 446.9 378.25 448.75 383.1 450.6 387.95 450.6 392.95 450.6 399.65 448.35 404.9 446.0 410.1 442.2 413.65 438.45 417.15 433.5 419.0 428.45 420.85 423.05 420.85 418.95 420.85 415.3 419.4 411.65 418.0 408.45 416.35 L408.45 420.15 394.3 420.15 393.75 347.95 414.55 346.3 413.7 369.65 Q416.5 368.1 419.1 367.0 421.75 365.95 425.85 365.95 431.3 365.95 435.75 368.3 M412.15 393.8 Q411.9 395.4 412.4 397.05 412.8 398.6 413.9 399.85 415.0 401.1 416.55 401.8 418.15 402.5 420.1 402.6 L424.25 402.15 Q426.4 401.5 427.95 400.35 429.5 399.25 430.4 397.8 431.35 396.35 431.65 394.75 431.9 393.1 431.45 391.55 430.95 389.9 429.9 388.7 428.8 387.45 427.25 386.7 425.7 385.95 423.75 385.85 L419.65 386.3 Q417.5 386.95 415.9 388.1 414.35 389.25 413.4 390.7 412.45 392.15 412.15 393.8 M471.95 347.4 L471.15 419.95 452.25 421.55 451.6 349.0 471.95 347.4 M479.85 346.9 L500.3 345.95 499.2 361.85 479.8 363.25 479.85 346.9 M521.65 393.35 Q521.7 395.0 522.6 396.75 524.4 400.35 527.7 401.1 531.05 401.95 534.75 400.15 L539.35 397.8 551.6 414.0 Q549.35 415.95 546.8 417.3 544.2 418.6 541.5 419.4 538.8 420.25 536.0 420.55 L530.6 420.85 Q524.5 420.85 519.3 418.8 514.15 416.7 510.3 413.05 506.5 409.45 504.35 404.5 502.2 399.65 502.2 393.9 502.2 387.35 504.45 382.1 506.65 376.8 510.65 373.15 514.65 369.5 520.15 367.6 525.65 365.65 532.05 365.65 538.45 365.65 543.2 367.7 547.9 369.8 551.15 371.95 L539.25 387.55 Q538.0 386.55 536.35 385.9 534.65 385.3 532.95 385.05 L529.65 384.8 Q528.1 384.95 527.1 385.5 525.4 386.35 524.15 387.6 522.95 388.8 522.25 390.2 521.6 391.65 521.65 393.35 M499.85 368.0 L498.85 419.95 479.85 421.55 479.85 369.6 499.85 368.0 M18.5 366.35 Q27.5 366.35 34.15 370.9 40.75 375.45 44.0 383.0 L17.1 403.1 Q18.1 403.65 19.7 403.8 L22.7 404.0 Q26.8 404.0 29.65 402.5 32.5 401.05 34.8 398.9 L43.75 413.7 Q38.25 417.7 32.5 419.45 26.75 421.2 19.25 421.2 13.15 421.2 8.05 419.1 2.95 417.0 -0.75 413.4 -4.4 409.8 -6.5 405.05 -8.55 400.25 -8.55 394.9 -8.55 388.15 -6.4 382.85 -4.25 377.55 -0.55 373.85 3.15 370.25 8.05 368.3 13.0 366.35 18.5 366.35 M11.2 394.6 L24.65 384.4 Q23.4 382.95 21.9 382.35 20.4 381.85 18.5 381.85 16.7 381.85 15.25 382.6 13.75 383.35 12.65 384.65 11.6 385.95 11.0 387.6 10.45 389.2 10.45 390.9 L10.65 393.2 11.2 394.6 M68.85 388.55 Q66.1 391.0 66.1 396.35 L66.1 419.6 47.1 421.2 46.6 368.35 64.7 366.7 64.7 376.7 64.9 376.7 Q67.45 366.7 78.6 366.7 L83.2 367.05 78.55 386.15 77.15 386.05 75.35 386.05 Q71.6 386.05 68.85 388.55 M116.2 369.75 L115.4 348.3 136.1 346.65 135.75 420.0 118.1 421.2 118.1 416.05 117.9 416.05 Q115.75 418.95 112.0 420.25 108.25 421.55 104.5 421.55 99.9 421.55 95.65 419.7 91.35 417.85 88.0 414.4 84.7 410.9 82.75 405.85 80.75 400.8 80.75 394.45 80.75 388.7 82.45 383.6 84.05 378.5 87.2 374.65 90.4 370.85 95.0 368.6 99.65 366.4 105.6 366.4 108.55 366.4 111.35 367.2 114.1 367.95 116.2 369.75 M98.75 394.45 Q98.65 396.1 99.15 397.55 99.75 399.1 100.85 400.2 102.0 401.35 103.5 402.0 105.05 402.7 106.9 402.75 108.75 402.8 110.8 402.05 112.8 401.35 114.1 400.1 115.5 398.9 116.25 397.45 117.0 395.95 117.1 394.3 117.2 392.7 116.65 391.15 116.1 389.75 115.0 388.55 113.85 387.35 112.3 386.7 110.8 386.05 108.95 385.95 107.15 385.85 105.15 386.55 103.1 387.3 101.7 388.55 100.35 389.85 99.6 391.3 98.8 392.75 98.75 394.45 M196.35 347.35 L204.25 346.55 Q212.75 345.65 218.35 347.8 224.0 349.95 226.9 354.05 229.85 358.15 230.25 363.6 230.6 369.05 228.65 374.75 226.65 380.45 222.4 385.85 218.15 391.3 211.8 395.25 L230.6 407.6 216.7 423.3 194.8 407.25 194.55 422.6 172.75 420.35 171.35 350.05 196.35 347.35 M193.45 370.25 L192.55 384.7 Q195.8 384.0 198.2 382.6 200.55 381.25 202.2 379.7 203.8 378.2 204.65 376.8 205.55 375.4 205.7 374.6 L205.8 373.6 205.55 371.45 Q205.25 370.2 204.05 369.35 202.8 368.45 200.3 368.5 197.8 368.55 193.45 370.25 M235.6 373.85 Q239.3 370.25 244.2 368.3 249.15 366.35 254.65 366.35 263.65 366.35 270.3 370.9 276.9 375.45 280.15 383.0 L253.25 403.1 Q254.25 403.65 255.85 403.8 L258.85 404.0 Q262.95 404.0 265.8 402.5 268.65 401.05 270.95 398.9 L279.9 413.7 Q274.4 417.7 268.65 419.45 262.9 421.2 255.4 421.2 249.3 421.2 244.2 419.1 239.1 417.0 235.4 413.4 231.75 409.8 229.65 405.05 227.6 400.25 227.6 394.9 227.6 388.15 229.75 382.85 231.9 377.55 235.6 373.85 M254.65 381.85 Q252.85 381.85 251.4 382.6 249.9 383.35 248.8 384.65 247.75 385.95 247.15 387.6 246.6 389.2 246.6 390.9 L246.8 393.2 247.35 394.6 260.8 384.4 Q259.55 382.95 258.05 382.35 256.55 381.85 254.65 381.85 M301.3 391.95 Q299.9 395.3 301.4 398.35 302.1 399.9 303.35 400.95 304.65 401.95 306.3 402.4 L309.9 402.7 Q311.85 402.5 313.9 401.5 317.95 399.65 319.35 396.2 320.75 392.75 319.3 389.85 317.85 386.75 314.4 385.7 310.9 384.7 306.85 386.55 302.75 388.55 301.3 391.95 M-302.25 383.0 L-329.15 403.1 Q-328.15 403.65 -326.55 403.8 L-323.55 404.0 Q-319.45 404.0 -316.6 402.5 -313.75 401.05 -311.45 398.9 L-302.5 413.7 Q-308.0 417.7 -313.75 419.45 -319.5 421.2 -327.0 421.2 -333.1 421.2 -338.2 419.1 -343.3 417.0 -347.0 413.4 -350.65 409.8 -352.75 405.05 -354.8 400.25 -354.8 394.9 -354.8 388.15 -352.65 382.85 -350.5 377.55 -346.8 373.85 -343.1 370.25 -338.2 368.3 -333.25 366.35 -327.75 366.35 -318.75 366.35 -312.1 370.9 -305.5 375.45 -302.25 383.0 M-252.85 370.25 Q-252.85 370.95 -252.2 371.35 L-250.55 372.0 -248.65 372.4 -247.0 372.6 -242.9 373.5 -241.45 373.85 -236.55 375.35 Q-233.8 376.65 -230.85 378.25 -227.95 379.9 -225.5 382.2 -223.15 384.6 -221.55 387.85 -220.0 391.15 -219.8 395.65 -219.55 402.05 -221.85 406.95 -224.25 411.9 -228.5 415.25 -232.75 418.65 -238.75 420.5 -244.7 422.35 -251.5 422.6 L-257.95 422.3 -264.45 421.05 Q-267.7 420.3 -270.75 419.15 -273.75 418.05 -276.45 416.75 L-269.65 397.55 -266.45 398.9 -262.45 400.5 Q-260.3 401.25 -257.95 401.8 L-253.4 402.2 Q-250.1 402.05 -247.75 401.05 -245.45 400.05 -245.55 397.7 -245.65 396.15 -247.15 395.35 -248.65 394.55 -250.7 393.75 L-254.2 392.75 -258.9 391.0 Q-261.4 389.9 -263.95 388.4 -266.5 386.85 -268.65 384.7 -270.75 382.5 -272.1 379.65 -273.5 376.8 -273.6 373.1 -273.75 366.75 -271.45 361.85 -269.1 356.9 -265.1 353.45 -261.05 349.95 -255.7 348.1 -250.35 346.25 -244.2 345.95 L-232.95 346.6 Q-227.35 347.4 -222.55 349.45 L-227.85 370.5 Q-231.45 368.95 -234.4 367.95 -237.4 366.9 -241.35 366.35 L-244.5 366.0 -248.25 366.4 Q-250.1 366.85 -251.4 367.7 -252.75 368.65 -252.85 370.25 M-186.55 366.7 Q-182.8 366.7 -179.85 368.05 -176.95 369.45 -174.95 371.85 -173.0 374.3 -171.95 377.55 -170.9 380.85 -171.0 384.7 L-171.55 419.6 -190.5 421.2 -190.5 388.35 Q-190.5 386.8 -191.6 385.75 -192.65 384.65 -194.45 384.65 -196.2 384.65 -197.35 385.7 -198.6 386.7 -198.6 388.5 L-198.6 421.2 -217.65 419.6 -218.3 348.65 -198.0 347.0 -198.6 372.35 -198.4 372.35 Q-196.2 369.35 -193.2 368.05 -190.25 366.7 -186.55 366.7 M-162.35 373.85 Q-158.65 370.25 -153.75 368.3 -148.8 366.35 -143.3 366.35 -134.3 366.35 -127.65 370.9 -121.05 375.45 -117.8 383.0 L-144.7 403.1 Q-143.7 403.65 -142.1 403.8 L-139.1 404.0 Q-135.0 404.0 -132.15 402.5 -129.3 401.05 -127.0 398.9 L-118.05 413.7 Q-123.55 417.7 -129.3 419.45 -135.05 421.2 -142.55 421.2 -148.65 421.2 -153.75 419.1 -158.85 417.0 -162.55 413.4 -166.2 409.8 -168.3 405.05 -170.35 400.25 -170.35 394.9 -170.35 388.15 -168.2 382.85 -166.05 377.55 -162.35 373.85 M-150.6 394.6 L-137.15 384.4 Q-138.4 382.95 -139.9 382.35 L-143.3 381.85 Q-145.1 381.85 -146.55 382.6 -148.05 383.35 -149.15 384.65 -150.2 385.95 -150.8 387.6 -151.35 389.2 -151.35 390.9 L-151.15 393.2 -150.6 394.6 M-91.15 386.55 Q-95.25 388.55 -96.7 391.95 -98.1 395.3 -96.6 398.35 -95.9 399.9 -94.65 400.95 -93.35 401.95 -91.7 402.4 L-88.1 402.7 Q-86.15 402.5 -84.1 401.5 -80.05 399.65 -78.65 396.2 -77.25 392.75 -78.7 389.85 -80.15 386.75 -83.6 385.7 -87.1 384.7 -91.15 386.55 M-96.3 366.7 L-96.3 372.8 Q-93.45 369.7 -90.35 368.2 -87.25 366.7 -82.9 366.7 -77.5 366.7 -73.05 369.1 -68.65 371.5 -65.5 375.35 -62.4 379.25 -60.7 384.1 -59.0 389.05 -59.0 394.1 -59.0 399.5 -60.8 404.45 -62.55 409.45 -65.85 413.35 -69.15 417.2 -73.75 419.55 -78.35 421.9 -83.85 421.9 L-89.8 421.05 Q-93.0 420.3 -95.55 417.8 L-95.0 435.75 -114.0 437.4 -114.95 368.35 -96.3 366.7 M-25.8 366.7 Q-22.05 366.7 -19.1 368.05 -16.2 369.45 -14.2 371.85 -12.25 374.3 -11.2 377.55 -10.15 380.85 -10.25 384.7 L-10.8 419.6 -29.75 421.2 -29.75 388.35 Q-29.75 386.8 -30.85 385.75 -31.9 384.65 -33.7 384.65 -35.45 384.65 -36.6 385.7 -37.85 386.7 -37.85 388.5 L-37.85 421.2 -56.9 419.6 -57.55 348.65 -37.25 347.0 -37.85 372.35 -37.65 372.35 Q-35.45 369.35 -32.45 368.05 -29.5 366.7 -25.8 366.7 M-453.1 349.75 L-404.5 345.6 -406.8 366.95 -417.65 368.25 -417.65 418.8 -443.15 421.9 -441.85 370.65 -453.7 371.8 -453.1 349.75 M-372.0 366.7 Q-368.25 366.7 -365.3 368.05 -362.4 369.45 -360.4 371.85 -358.45 374.3 -357.4 377.55 -356.35 380.85 -356.45 384.7 L-357.0 419.6 -375.95 421.2 -375.95 388.35 Q-375.95 386.8 -377.05 385.75 -378.1 384.65 -379.9 384.65 -381.65 384.65 -382.8 385.7 -384.05 386.7 -384.05 388.5 L-384.05 421.2 -403.1 419.6 -403.75 348.65 -383.45 347.0 -384.05 372.35 -383.85 372.35 Q-381.65 369.35 -378.65 368.05 -375.7 366.7 -372.0 366.7 M-327.75 381.85 Q-329.55 381.85 -331.0 382.6 -332.5 383.35 -333.6 384.65 -334.65 385.95 -335.25 387.6 -335.8 389.2 -335.8 390.9 L-335.6 393.2 -335.05 394.6 -321.6 384.4 Q-322.85 382.95 -324.35 382.35 L-327.75 381.85" fill="#00ff00" fill-rule="evenodd" stroke="none"/>
  </g>
</svg>
