<?xml version="1.0" encoding="UTF-8" standalone="no"?>
<svg xmlns:ffdec="https://www.free-decompiler.com/flash" xmlns:xlink="http://www.w3.org/1999/xlink" ffdec:objectType="shape" height="55.25px" width="127.15px" xmlns="http://www.w3.org/2000/svg">
  <g transform="matrix(1.0, 0.0, 0.0, 1.0, -669.7, -38.2)">
    <path d="M763.35 61.05 L764.8 59.8 Q765.45 59.45 766.25 59.45 L766.6 60.65 766.45 61.25 765.0 61.45 763.9 61.45 763.35 61.05 M733.8 87.1 L732.4 88.1 Q731.85 87.7 731.65 87.1 732.0 86.05 733.8 87.1 M778.6 60.85 Q778.6 60.35 779.3 59.9 779.95 59.45 780.75 59.45 L781.5 60.65 780.4 61.7 Q779.15 61.45 778.6 60.85 M772.5 91.3 Q773.4 91.3 774.15 91.9 L773.4 92.75 Q773.05 93.15 772.7 93.15 L772.3 91.9 772.5 91.3 M788.45 89.05 L788.1 89.95 787.2 90.65 786.6 90.4 785.4 89.65 Q785.2 90.8 785.2 88.75 785.2 87.5 785.85 87.4 L786.5 87.4 788.1 87.8 788.45 89.05 M796.15 86.55 Q796.85 87.4 796.85 88.4 L795.75 89.45 Q794.7 88.95 794.7 87.2 795.2 86.55 796.15 86.55 M690.0 40.85 Q689.65 41.45 688.35 41.65 687.8 41.05 687.8 39.8 L688.75 39.85 Q689.5 40.05 690.0 40.85 M698.55 41.0 Q698.55 39.7 699.5 39.4 L701.3 39.25 701.55 39.65 702.0 40.5 Q701.35 41.6 700.2 42.1 L698.9 42.25 Q698.55 42.3 698.55 41.0 M711.05 39.85 Q711.05 38.55 711.8 38.3 L712.5 38.2 Q713.65 38.7 713.95 39.85 713.45 41.65 712.5 42.05 L711.45 41.6 Q711.05 41.15 711.05 39.85 M725.6 41.7 L724.65 41.05 724.65 40.05 725.45 40.05 Q726.15 40.1 727.2 40.65 726.9 41.6 726.3 41.85 L725.6 41.7 M670.45 85.75 L671.7 85.85 672.2 86.45 671.85 87.5 670.25 87.7 670.0 88.0 Q669.7 88.05 669.7 86.8 L669.85 85.85 670.45 85.75 M684.65 88.8 L685.55 88.7 686.1 89.2 685.95 90.45 685.0 90.65 Q684.65 90.0 684.65 88.8 M698.65 91.7 Q699.5 91.6 699.9 92.05 699.6 93.05 699.0 93.3 L698.4 93.0 697.55 92.25 Q697.85 91.75 698.65 91.7 M722.35 89.7 Q722.65 89.2 723.35 89.0 L724.9 88.9 725.45 89.5 Q725.1 90.65 722.7 90.95 L722.35 89.7" fill="#ffffff" fill-rule="evenodd" stroke="none"/>
    <path d="M711.3 93.45 L711.05 93.0 Q710.8 92.4 710.8 91.6 L711.7 91.65 Q712.5 91.85 712.95 92.65 712.6 93.25 711.3 93.45" fill="#ffffff" fill-rule="evenodd" stroke="none"/>
  </g>
</svg>
