<?xml version="1.0" encoding="UTF-8" standalone="no"?>
<svg xmlns:ffdec="https://www.free-decompiler.com/flash" xmlns:xlink="http://www.w3.org/1999/xlink" ffdec:objectType="shape" height="56.6px" width="112.2px" xmlns="http://www.w3.org/2000/svg">
  <g transform="matrix(1.0, 0.0, 0.0, 1.0, -684.85, -37.15)">
    <path d="M766.75 61.85 L766.1 61.45 Q766.8 60.25 767.7 61.0 L767.25 61.9 766.75 61.85 M733.85 88.1 L733.3 89.15 732.1 89.45 731.2 89.3 Q730.9 89.2 730.9 88.25 730.9 87.35 732.5 86.85 L735.3 86.7 733.85 88.1 M780.7 62.65 L779.65 63.1 778.5 62.35 779.6 61.1 Q780.05 60.7 780.25 60.7 781.15 61.05 781.45 61.9 L780.7 62.65 M771.55 91.55 L772.1 90.95 Q772.45 90.65 772.9 90.65 L773.5 92.0 773.35 92.45 772.35 92.15 Q771.65 91.85 771.55 91.55 M788.05 88.35 L788.5 89.25 Q788.2 90.05 787.3 90.4 L786.85 90.2 786.1 89.65 Q786.85 88.65 788.05 88.35 M796.75 86.6 Q797.05 86.75 797.05 87.7 L796.95 88.65 796.75 88.85 Q796.45 89.15 795.85 89.3 L795.0 89.05 Q794.75 88.8 794.75 87.85 L794.8 86.9 794.95 86.5 795.85 86.35 796.75 86.6 M690.4 42.35 L689.5 43.1 687.85 42.35 Q687.7 41.9 687.7 41.15 L690.25 41.45 690.4 42.35 M702.95 39.3 Q702.95 40.8 702.65 40.65 L700.6 41.3 699.55 41.3 Q699.25 41.3 699.25 40.4 699.25 38.85 700.0 38.45 L702.5 38.4 702.75 38.3 Q702.95 38.35 702.95 39.3 M711.35 41.1 Q711.1 41.1 711.1 40.2 L711.25 39.2 711.9 39.15 712.9 39.35 713.2 40.25 712.15 41.1 711.35 41.1 M726.5 37.45 Q726.65 36.65 726.65 38.15 726.65 38.85 726.25 39.65 725.75 40.8 724.65 41.2 L723.9 40.9 Q723.75 40.65 723.75 39.65 723.75 38.35 724.2 37.8 724.8 37.05 726.5 37.45 M685.3 88.3 L686.35 88.3 Q686.65 88.75 686.65 90.0 L686.05 90.45 685.1 90.45 Q684.85 90.35 684.85 89.4 684.85 88.45 685.3 88.3 M697.9 92.7 Q698.4 91.9 698.9 91.65 L699.8 91.35 700.25 92.25 Q700.0 93.0 699.05 93.4 L697.9 92.7 M723.25 89.8 L723.55 88.95 724.3 89.25 Q724.85 89.5 725.05 89.8 724.85 90.15 724.15 90.15 723.5 90.15 723.25 89.8" fill="#ffffff" fill-rule="evenodd" stroke="none"/>
    <path d="M713.25 92.55 Q712.95 93.4 712.05 93.75 711.3 93.45 710.85 93.0 711.6 91.9 712.8 91.75 L713.25 92.55" fill="#ffffff" fill-rule="evenodd" stroke="none"/>
  </g>
</svg>
