<?xml version="1.0" encoding="UTF-8" standalone="no"?>
<svg xmlns:ffdec="https://www.free-decompiler.com/flash" xmlns:xlink="http://www.w3.org/1999/xlink" ffdec:objectType="shape" height="45.0px" width="35.65px" xmlns="http://www.w3.org/2000/svg">
  <g transform="matrix(1.0, 0.0, 0.0, 1.0, -0.3, -0.15)">
    <path d="M0.3 2.15 L5.7 0.4 Q8.5 -0.45 10.0 1.8 11.55 4.05 12.65 6.6 L14.3 9.85 14.95 10.75 15.15 10.9 15.9 11.1 16.3 10.35 18.05 10.25 Q24.0 11.95 27.7 17.45 29.5 20.6 30.2 24.4 L30.25 24.45 29.5 25.25 29.95 25.55 Q31.25 26.7 27.9 27.45 L33.1 31.65 33.1 31.7 Q35.55 33.25 35.95 36.25 36.1 37.85 34.2 39.6 33.45 40.35 32.35 40.65 L30.3 41.2 Q28.9 41.6 28.8 43.0 L19.9 45.15 16.25 42.15 12.85 40.35 Q11.8 37.4 13.85 34.8 L15.55 32.7 Q17.35 31.85 11.8 27.05 6.35 22.2 5.2 17.4 4.05 12.5 4.65 11.0 5.25 9.5 5.05 6.85 L4.55 4.5 Q3.9 2.85 0.3 2.15" fill="#000000" fill-rule="evenodd" stroke="none"/>
  </g>
</svg>
