<?xml version="1.0" encoding="UTF-8" standalone="no"?>
<svg xmlns:ffdec="https://www.free-decompiler.com/flash" xmlns:xlink="http://www.w3.org/1999/xlink" ffdec:objectType="shape" height="42.05px" width="38.25px" xmlns="http://www.w3.org/2000/svg">
  <g transform="matrix(1.0, 0.0, 0.0, 1.0, 1.2, -2.9)">
    <path d="M30.35 24.15 L30.4 24.2 29.8 25.05 30.2 25.3 Q31.6 26.3 28.3 27.3 L33.8 30.85 33.8 30.9 Q36.4 32.15 37.05 35.0 37.25 36.55 35.55 38.4 L33.85 39.55 31.8 40.25 Q30.4 40.75 30.45 42.1 L21.75 44.95 17.85 42.3 14.35 40.9 Q13.05 38.15 14.95 35.5 L16.5 33.35 Q18.1 32.4 12.3 28.25 6.45 24.05 4.95 19.55 3.35 15.0 3.85 13.55 4.3 12.0 3.85 9.5 L3.2 7.3 Q2.45 5.75 -1.2 5.4 L4.05 3.25 Q6.7 2.2 8.4 4.2 L11.45 8.6 13.35 11.65 14.0 12.4 14.25 12.55 15.05 12.65 15.4 11.9 Q16.2 11.4 17.15 11.65 23.15 12.85 27.3 17.75 29.35 20.6 30.35 24.15" fill="#000000" fill-rule="evenodd" stroke="none"/>
  </g>
</svg>
