<?xml version="1.0" encoding="UTF-8" standalone="no"?>
<svg xmlns:ffdec="https://www.free-decompiler.com/flash" xmlns:xlink="http://www.w3.org/1999/xlink" ffdec:objectType="shape" height="39.4px" width="41.35px" xmlns="http://www.w3.org/2000/svg">
  <g transform="matrix(1.0, 0.0, 0.0, 1.0, 3.15, -5.0)">
    <path d="M29.8 24.35 L30.25 24.6 Q31.75 25.45 28.6 26.7 L34.45 29.65 34.5 29.75 Q37.15 30.65 38.15 33.4 38.5 34.85 37.0 36.85 36.4 37.65 35.4 38.15 34.45 38.5 33.5 39.0 32.15 39.55 32.3 40.9 L23.95 44.4 19.8 42.25 16.15 41.2 Q14.6 38.6 16.15 35.9 L17.45 33.65 Q19.0 32.55 12.75 29.05 6.5 25.55 4.5 21.3 2.45 17.05 2.75 15.55 3.1 14.05 2.35 11.65 L1.45 9.55 Q0.5 8.1 -3.15 8.1 L1.85 5.5 Q4.4 4.25 6.3 6.1 8.2 7.85 9.8 10.05 L12.0 12.8 12.75 13.45 12.95 13.6 13.8 13.65 14.05 12.85 Q14.8 12.35 15.75 12.5 21.9 13.1 26.55 17.45 28.9 20.1 30.25 23.5 L30.35 23.5 29.8 24.35" fill="#000000" fill-rule="evenodd" stroke="none"/>
  </g>
</svg>
