<?xml version="1.0" encoding="UTF-8" standalone="no"?>
<svg xmlns:ffdec="https://www.free-decompiler.com/flash" xmlns:xlink="http://www.w3.org/1999/xlink" ffdec:objectType="shape" height="44.6px" width="33.4px" xmlns="http://www.w3.org/2000/svg">
  <g transform="matrix(1.0, 0.0, 0.0, 1.0, -2.0, -0.65)">
    <path d="M28.3 18.8 Q29.85 21.95 30.35 25.7 L30.4 25.75 29.6 26.5 30.0 26.85 Q31.25 28.05 27.85 28.55 L32.8 33.0 32.8 33.05 Q35.1 34.65 35.4 37.55 35.35 39.15 33.4 40.85 32.55 41.45 31.45 41.7 L29.4 42.1 Q27.9 42.35 27.75 43.75 L18.7 45.25 15.25 42.1 12.1 40.15 Q11.2 37.15 13.4 34.8 L15.2 32.85 Q17.0 32.15 11.9 27.1 6.75 22.05 5.95 17.3 5.1 12.5 5.8 11.05 6.5 9.65 6.4 7.05 L6.05 4.7 Q5.55 3.05 2.0 2.15 L7.5 0.8 Q10.3 0.1 11.7 2.4 13.1 4.7 14.0 7.25 L15.4 10.55 16.0 11.4 16.15 11.65 16.9 11.85 17.4 11.15 Q18.2 10.75 19.1 11.15 24.95 13.2 28.3 18.8" fill="#000000" fill-rule="evenodd" stroke="none"/>
  </g>
</svg>
