<?xml version="1.0" encoding="UTF-8" standalone="no"?>
<svg xmlns:ffdec="https://www.free-decompiler.com/flash" xmlns:xlink="http://www.w3.org/1999/xlink" ffdec:objectType="shape" height="37.75px" width="50.3px" xmlns="http://www.w3.org/2000/svg">
  <g transform="matrix(1.0, 0.0, 0.0, 1.0, -0.05, -20.75)">
    <path d="M48.45 41.45 Q48.5 42.9 49.95 43.25 L50.35 52.45 46.65 55.5 44.2 58.45 Q41.05 58.9 38.95 56.35 L35.55 52.6 Q33.5 50.5 32.4 47.65 L32.05 46.55 28.9 48.35 Q23.2 47.55 18.35 44.65 13.4 41.7 10.5 37.65 7.55 33.6 7.5 32.0 7.45 30.45 6.3 28.25 L10.75 28.25 10.75 22.75 13.15 24.75 15.9 27.2 Q16.45 27.65 17.05 27.8 L17.85 27.7 18.65 27.25 18.7 27.3 Q19.5 28.2 20.0 30.0 L27.0 37.0 31.0 37.5 33.5 37.5 36.0 35.5 35.85 36.0 36.45 36.75 39.6 36.8 44.45 33.2 Q46.25 35.1 47.65 37.3 48.2 38.15 48.3 39.3 L48.45 41.45" fill="#000000" fill-rule="evenodd" stroke="none"/>
    <path d="M0.05 25.5 L4.35 21.75 Q6.55 19.9 8.85 21.4 9.8 22.0 10.75 22.75 L10.75 28.25 6.3 28.25 6.2 28.0 4.85 26.05 0.05 25.5" fill="#000000" fill-rule="evenodd" stroke="none"/>
  </g>
</svg>
