<?xml version="1.0" encoding="UTF-8" standalone="no"?>
<svg xmlns:ffdec="https://www.free-decompiler.com/flash" xmlns:xlink="http://www.w3.org/1999/xlink" ffdec:objectType="shape" height="34.7px" width="73.9px" xmlns="http://www.w3.org/2000/svg">
  <g transform="matrix(1.0, 0.0, 0.0, 1.0, 25.65, -20.25)">
    <path d="M41.85 40.8 L46.35 49.4 48.2 51.35 48.25 52.1 47.05 52.6 30.65 41.4 27.65 46.4 Q26.45 48.2 24.2 49.5 23.0 50.25 21.7 50.55 17.9 51.3 14.35 52.95 L7.75 52.35 2.45 54.8 -2.3 54.6 -6.9 53.95 -11.4 52.55 Q-12.35 52.2 -13.3 52.55 -16.5 53.4 -18.8 51.3 L-24.1 46.45 -24.35 44.6 -22.55 43.35 -25.65 40.85 -25.6 39.35 -24.05 38.75 -19.15 39.85 Q-12.6 40.75 -7.0 36.95 -2.5 33.85 2.75 31.95 L6.6 30.75 5.0 27.75 3.45 25.55 -1.35 25.0 2.95 21.25 Q5.15 19.4 7.45 20.9 L9.35 22.65 Q10.6 23.7 13.8 24.5 19.25 25.85 26.55 31.55 33.85 37.25 38.3 38.45 L40.25 38.9 41.85 40.8" fill="#000000" fill-rule="evenodd" stroke="none"/>
  </g>
</svg>
