<?xml version="1.0" encoding="UTF-8" standalone="no"?>
<svg xmlns:ffdec="https://www.free-decompiler.com/flash" xmlns:xlink="http://www.w3.org/1999/xlink" ffdec:objectType="shape" height="51.6px" width="47.2px" xmlns="http://www.w3.org/2000/svg">
  <g transform="matrix(1.0, 0.0, 0.0, 1.0, -0.65, 0.7)">
    <path d="M38.35 -0.7 Q38.8 0.45 38.6 1.8 38.25 4.65 36.15 7.1 L35.95 7.8 35.5 19.05 Q35.45 20.4 34.7 22.0 33.9 23.5 33.75 25.35 L34.85 25.8 Q35.6 26.15 35.0 29.0 33.5 30.65 32.65 33.05 32.45 33.75 32.65 34.55 33.1 36.25 37.35 37.75 40.05 37.7 42.55 39.15 45.1 45.75 47.65 48.55 L47.85 50.25 47.1 50.9 44.75 50.85 37.4 45.3 33.6 45.0 Q31.65 44.75 30.35 43.75 L27.95 44.05 26.1 46.0 24.35 46.75 22.9 46.55 22.85 45.25 20.05 42.95 Q17.9 41.4 13.9 39.5 9.9 37.6 7.3 35.1 4.65 32.55 5.25 27.65 L3.65 26.55 0.65 26.2 Q0.5 26.0 3.6 23.15 6.65 20.25 8.4 21.35 L13.5 26.1 15.8 26.4 16.95 25.05 18.6 24.15 16.9 22.5 Q15.85 20.35 16.75 18.15 L18.4 16.15 29.5 6.6 31.15 5.4 33.5 2.6 33.9 2.4 35.9 -0.6 38.35 -0.7" fill="#000000" fill-rule="evenodd" stroke="none"/>
  </g>
</svg>
