<?xml version="1.0" encoding="UTF-8" standalone="no"?>
<svg xmlns:ffdec="https://www.free-decompiler.com/flash" xmlns:xlink="http://www.w3.org/1999/xlink" ffdec:objectType="shape" height="259.25px" width="280.15px" xmlns="http://www.w3.org/2000/svg">
  <g transform="matrix(1.0, 0.0, 0.0, 1.0, 142.7, 84.3)">
    <path d="M135.1 -80.2 L134.4 -81.45 -138.3 -81.9 -139.9 -81.05 -140.4 170.3 -139.55 172.0 133.15 172.5 Q134.65 172.15 135.0 171.3 L135.1 -80.2 M137.45 -79.95 L137.45 168.7 137.1 172.15 Q134.65 175.25 133.05 174.75 L-126.7 174.75 Q-139.8 175.5 -141.0 173.65 L-141.75 172.75 -142.5 170.65 -142.5 -70.1 Q-143.25 -81.65 -141.4 -82.65 L-140.3 -83.5 -138.7 -84.0 121.3 -84.0 Q134.75 -84.9 136.1 -82.9 137.35 -81.8 137.45 -79.95" fill="#fafafa" fill-rule="evenodd" stroke="none"/>
    <path d="M133.75 -81.05 L-138.7 -81.2 -139.3 -80.8 -139.65 170.65 -139.3 171.4 133.05 171.9 Q134.5 171.55 134.5 170.05 L134.5 -79.95 133.75 -81.05 M135.1 -80.2 L135.0 171.3 Q134.65 172.15 133.15 172.5 L-139.55 172.0 -140.4 170.3 -139.9 -81.05 -138.3 -81.9 134.4 -81.45 135.1 -80.2" fill="#dbd9d3" fill-rule="evenodd" stroke="none"/>
    <path d="M133.75 -81.05 L134.5 -79.95 134.5 170.05 Q134.5 171.55 133.05 171.9 L-139.3 171.4 -139.65 170.65 -139.3 -80.8 -138.7 -81.2 133.75 -81.05" fill="#f5f2ea" fill-rule="evenodd" stroke="none"/>
  </g>
</svg>
