<?xml version="1.0" encoding="UTF-8" standalone="no"?>
<svg xmlns:ffdec="https://www.free-decompiler.com/flash" xmlns:xlink="http://www.w3.org/1999/xlink" ffdec:objectType="shape" height="253.3px" width="270.3px" xmlns="http://www.w3.org/2000/svg">
  <g transform="matrix(1.0, 0.0, 0.0, 1.0, 136.5, 91.4)">
    <path d="M132.9 140.35 Q131.9 141.55 130.3 141.8 L-111.65 161.9 Q-116.95 162.15 -117.35 158.35 L-135.85 -66.75 Q-137.3 -76.75 -135.6 -77.75 L-134.5 -78.7 -132.4 -79.35 116.0 -91.15 Q121.55 -91.9 122.9 -90.45 L124.0 -89.05 124.4 -87.6 133.4 127.85 Q134.4 139.1 132.9 140.35 M131.4 139.2 L122.4 -87.6 121.55 -88.95 -131.9 -77.25 Q-133.5 -77.25 -134.25 -75.9 L-115.25 157.85 Q-115.1 160.45 -111.55 159.95 L130.05 139.95 131.4 139.2" fill="#f6f6f6" fill-rule="evenodd" stroke="none"/>
    <path d="M131.4 139.2 L130.05 139.95 -111.55 159.95 Q-115.1 160.45 -115.25 157.85 L-134.25 -75.9 Q-133.5 -77.25 -131.9 -77.25 L121.55 -88.95 122.4 -87.6 131.4 139.2 M130.95 138.95 L121.95 -86.35 121.45 -88.35 -131.4 -76.6 -133.25 -76.1 -118.2 115.4 -114.5 158.45 -113.9 159.2 -112.8 159.45 130.2 139.35 130.95 138.95" fill="#d8d5cf" fill-rule="evenodd" stroke="none"/>
    <path d="M130.95 138.95 L130.2 139.35 -112.8 159.45 -113.9 159.2 -114.5 158.45 -118.2 115.4 -133.25 -76.1 -131.4 -76.6 121.45 -88.35 121.95 -86.35 130.95 138.95" fill="#f1eee7" fill-rule="evenodd" stroke="none"/>
  </g>
</svg>
