<?xml version="1.0" encoding="UTF-8" standalone="no"?>
<svg xmlns:ffdec="https://www.free-decompiler.com/flash" xmlns:xlink="http://www.w3.org/1999/xlink" ffdec:objectType="shape" height="153.5px" width="134.8px" xmlns="http://www.w3.org/2000/svg">
  <g transform="matrix(1.0, 0.0, 0.0, 1.0, -32.6, 8.5)">
    <path d="M164.1 -7.55 L164.6 -7.05 164.95 -5.6 167.3 137.25 Q167.7 143.55 166.7 144.25 166.45 145.15 162.65 145.0 L149.95 144.5 161.9 144.75 Q165.1 145.0 165.7 144.15 167.2 143.4 166.55 135.9 L164.1 -7.55" fill="#878787" fill-rule="evenodd" stroke="none"/>
    <path d="M149.95 144.5 L34.5 141.05 Q32.4 141.05 32.65 138.5 L41.4 11.2 Q41.5 10.35 43.5 9.85 L160.4 -8.4 Q164.0 -8.8 164.1 -7.55 L166.55 135.9 Q167.2 143.4 165.7 144.15 165.1 145.0 161.9 144.75 L149.95 144.5 M162.5 -7.45 L43.0 10.85 42.25 11.45 33.5 138.95 33.85 139.85 164.5 143.4 165.2 142.55 163.1 -3.85 Q163.25 -7.3 162.5 -7.45" fill="#c5c5c5" fill-rule="evenodd" stroke="none"/>
    <path d="M162.5 -7.45 Q163.25 -7.3 163.1 -3.85 L165.2 142.55 164.5 143.4 33.85 139.85 33.5 138.95 42.25 11.45 43.0 10.85 162.5 -7.45 M164.85 136.5 L162.5 -6.95 Q150.35 -5.85 42.4 11.45 L33.85 139.45 164.35 143.05 Q165.2 142.4 164.85 136.5" fill="#adaaa6" fill-rule="evenodd" stroke="none"/>
    <path d="M164.85 136.5 Q165.2 142.4 164.35 143.05 L33.85 139.45 42.4 11.45 Q150.35 -5.85 162.5 -6.95 L164.85 136.5" fill="#c1beb8" fill-rule="evenodd" stroke="none"/>
  </g>
</svg>
