<?xml version="1.0" encoding="UTF-8" standalone="no"?>
<svg xmlns:ffdec="https://www.free-decompiler.com/flash" xmlns:xlink="http://www.w3.org/1999/xlink" ffdec:objectType="shape" height="143.25px" width="117.4px" xmlns="http://www.w3.org/2000/svg">
  <g transform="matrix(1.0, 0.0, 0.0, 1.0, 47.05, 26.8)">
    <path d="M53.6 92.0 Q53.6 96.05 52.5 96.3 L-44.8 115.4 -45.05 115.15 -35.45 -24.1 -34.35 -25.3 69.25 -25.3 69.65 -24.55 68.3 -15.4 69.4 -24.3 68.75 -25.05 -34.45 -24.95 -35.1 -24.1 -44.8 114.9 -44.55 115.15 52.5 96.05 Q53.35 95.3 53.6 92.0" fill="#b4b1ad" fill-rule="evenodd" stroke="none"/>
    <path d="M68.3 -15.4 L69.65 -24.55 69.25 -25.3 -34.35 -25.3 -35.45 -24.1 -45.05 115.15 -44.8 115.4 52.5 96.3 Q53.6 96.05 53.6 92.0 L53.6 91.85 64.6 11.3 64.6 11.2 68.3 -15.4 M-21.45 -26.6 L68.65 -26.4 Q70.25 -26.65 70.35 -24.55 L53.85 95.95 52.5 97.15 -40.85 115.9 Q-44.55 117.0 -45.95 115.9 -45.7 102.2 -36.8 -20.5 -37.0 -25.75 -34.35 -26.55 L-21.45 -26.6" fill="#cdcdcd" fill-rule="evenodd" stroke="none"/>
    <path d="M53.6 92.0 Q53.35 95.3 52.5 96.05 L-44.55 115.15 -44.8 114.9 -35.1 -24.1 -34.45 -24.95 68.75 -25.05 69.4 -24.3 68.3 -15.4 64.6 11.2 64.6 11.3 53.6 91.85 53.6 92.0" fill="#c9c6c0" fill-rule="evenodd" stroke="none"/>
    <path d="M-45.95 115.9 L-46.65 115.3 -47.05 114.3 -37.65 -23.45 -36.95 -26.05 -35.7 -26.8 -21.45 -26.6 -34.35 -26.55 Q-37.0 -25.75 -36.8 -20.5 -45.7 102.2 -45.95 115.9" fill="#888888" fill-rule="evenodd" stroke="none"/>
  </g>
</svg>
