<?xml version="1.0" encoding="UTF-8" standalone="no"?>
<svg xmlns:ffdec="https://www.free-decompiler.com/flash" xmlns:xlink="http://www.w3.org/1999/xlink" ffdec:objectType="shape" height="267.85px" width="289.55px" xmlns="http://www.w3.org/2000/svg">
  <g transform="matrix(1.0, 0.0, 0.0, 1.0, 147.4, 88.7)">
    <path d="M140.65 -87.35 Q142.15 -86.0 142.15 -84.25 L142.15 174.75 Q142.05 178.05 137.95 178.95 L-130.4 178.95 Q-144.35 179.65 -145.7 177.8 L-146.45 176.95 -147.2 174.85 -147.2 -75.65 Q-147.95 -86.35 -145.95 -87.2 L-143.25 -88.45 125.15 -88.45 Q139.2 -89.3 140.65 -87.35 M139.8 -84.0 Q139.55 -85.6 138.8 -85.85 L-142.85 -86.25 -144.35 -85.6 -145.1 168.7 Q-145.35 175.35 -144.35 176.1 L137.7 176.7 Q139.2 176.45 139.7 175.1 L139.8 -84.0" fill="#fafafa" fill-rule="evenodd" stroke="none"/>
    <path d="M138.7 -85.15 L139.05 -84.4 139.05 173.85 Q139.3 175.0 137.95 175.95 L-143.85 175.6 -144.35 174.35 -143.85 -85.25 -142.75 -85.6 138.7 -85.15" fill="#f5f2ea" fill-rule="evenodd" stroke="none"/>
    <path d="M139.8 -84.0 L139.7 175.1 Q139.2 176.45 137.7 176.7 L-144.35 176.1 Q-145.35 175.35 -145.1 168.7 L-144.35 -85.6 -142.85 -86.25 138.8 -85.85 Q139.55 -85.6 139.8 -84.0 M138.7 -85.15 L-142.75 -85.6 -143.85 -85.25 -144.35 174.35 -143.85 175.6 137.95 175.95 Q139.3 175.0 139.05 173.85 L139.05 -84.4 138.7 -85.15" fill="#dbd9d3" fill-rule="evenodd" stroke="none"/>
  </g>
</svg>
