<?xml version="1.0" encoding="UTF-8" standalone="no"?>
<svg xmlns:ffdec="https://www.free-decompiler.com/flash" xmlns:xlink="http://www.w3.org/1999/xlink" ffdec:objectType="shape" height="111.95px" width="338.35px" xmlns="http://www.w3.org/2000/svg">
  <g transform="matrix(1.0, 0.0, 0.0, 1.0, 2.35, 3.1)">
    <path d="M329.75 63.45 Q323.55 70.9 314.0 78.25 290.6 96.25 272.25 96.25 L261.85 102.15 Q251.05 108.2 248.0 108.85 L199.0 108.85 189.45 108.0 180.25 107.1 134.0 106.85 130.0 106.1 98.3 106.0 86.5 106.85 68.5 105.9 63.0 105.85 60.55 104.85 Q53.25 103.65 46.05 101.9 38.45 100.0 33.75 98.15 24.6 102.85 10.5 102.85 0.5 102.85 -1.75 97.0 -2.45 95.2 -2.3 92.95 L-2.0 91.0 Q-2.0 77.9 8.0 66.75 L14.9 59.55 Q18.0 56.1 18.0 53.85 18.0 49.3 15.5 41.15 13.0 33.0 13.0 28.0 13.0 8.85 27.9 1.4 40.65 -5.0 62.6 -2.25 81.65 0.1 102.1 8.4 121.35 16.2 131.5 24.75 L137.0 24.0 165.75 23.75 Q173.0 21.85 195.6 15.15 L216.5 9.0 Q235.3 9.0 242.65 10.95 250.2 12.95 260.0 13.0 L263.25 10.9 Q266.1 9.0 269.0 9.0 273.4 9.0 279.5 14.9 285.55 20.75 286.25 20.75 293.5 20.75 298.9 17.9 L302.25 15.9 Q303.9 15.0 305.0 15.0 310.0 15.0 312.0 19.5 313.0 21.75 313.0 24.0 313.0 26.35 311.5 29.35 310.0 32.35 310.0 33.0 310.0 35.0 311.6 37.45 L315.25 42.75 Q336.0 40.65 336.0 51.6 336.0 55.9 329.75 63.45" fill="#00ff00" fill-rule="evenodd" stroke="none"/>
  </g>
</svg>
