<?xml version="1.0" encoding="UTF-8" standalone="no"?>
<svg xmlns:ffdec="https://www.free-decompiler.com/flash" xmlns:xlink="http://www.w3.org/1999/xlink" ffdec:objectType="shape" height="211.6px" width="59.45px" xmlns="http://www.w3.org/2000/svg">
  <g transform="matrix(1.0, 0.0, 0.0, 1.0, -149.05, -1.25)">
    <path d="M190.25 24.25 L190.25 23.6 190.85 23.55 190.85 24.25 190.25 24.25" fill="#121212" fill-rule="evenodd" stroke="none"/>
    <path d="M153.4 1.3 L153.4 11.85 151.65 12.45 151.5 12.55 151.4 12.55 151.25 12.65 151.05 12.7 150.9 12.8 150.45 12.95 150.35 13.0 149.15 13.5 149.05 13.45 149.05 3.2 153.4 1.3 M153.4 212.85 L149.05 211.0 149.05 200.7 149.15 200.55 153.4 202.25 153.45 207.35 153.4 212.85" fill="#050505" fill-rule="evenodd" stroke="none"/>
    <path d="M153.4 11.85 L153.4 1.3 153.5 1.25 153.5 11.45 153.4 11.85 M153.4 212.85 L153.45 207.35 153.5 212.4 153.4 212.85" fill="#e9e9e9" fill-rule="evenodd" stroke="none"/>
    <path d="M167.3 23.6 L166.7 23.55 166.7 24.25 167.3 24.25 167.3 23.6" fill="#121212" fill-rule="evenodd" stroke="none"/>
    <path d="M204.15 1.3 L204.0 1.25 204.0 11.45 204.15 11.85 204.15 1.3 M204.15 212.85 L204.1 207.35 204.0 212.4 204.15 212.85" fill="#e9e9e9" fill-rule="evenodd" stroke="none"/>
    <path d="M204.15 11.85 L205.9 12.5 206.0 12.55 206.15 12.55 206.3 12.65 206.45 12.7 206.6 12.8 207.05 12.95 207.2 13.05 208.4 13.5 208.5 13.45 208.5 3.2 204.15 1.3 204.15 11.85 M204.1 207.35 L204.15 212.85 208.5 211.0 208.5 200.7 208.4 200.55 204.15 202.25 204.1 207.35" fill="#050505" fill-rule="evenodd" stroke="none"/>
  </g>
</svg>
