<?xml version="1.0" encoding="UTF-8" standalone="no"?>
<svg xmlns:ffdec="https://www.free-decompiler.com/flash" xmlns:xlink="http://www.w3.org/1999/xlink" ffdec:objectType="shape" height="218.45px" width="54.25px" xmlns="http://www.w3.org/2000/svg">
  <g transform="matrix(1.0, 0.0, 0.0, 1.0, -151.65, 2.2)">
    <path d="M187.45 -2.1 L187.7 -2.2 187.6 13.75 187.45 13.75 187.45 -2.1 M187.45 216.25 L187.45 200.3 187.65 200.25 187.7 216.25 187.45 216.25" fill="#eeeeee" fill-rule="evenodd" stroke="none"/>
    <path d="M203.8 24.4 L203.9 21.85 205.9 21.65 205.75 24.2 203.8 24.4" fill="#0f0f0f" fill-rule="evenodd" stroke="none"/>
    <path d="M187.45 -2.1 L187.45 13.75 184.85 16.75 184.85 1.4 187.45 -2.1 M187.65 200.25 L187.45 200.3 187.45 216.25 184.85 212.85 184.9 197.35 187.65 200.25" fill="#000000" fill-rule="evenodd" stroke="none"/>
    <path d="M187.45 13.75 L187.6 13.75 185.05 16.85 184.85 16.75 187.45 13.75" fill="#060606" fill-rule="evenodd" stroke="none"/>
    <path d="M190.85 190.4 L190.85 191.1 190.25 191.1 190.25 190.35 190.85 190.4" fill="#121212" fill-rule="evenodd" stroke="none"/>
    <path d="M153.75 24.4 L153.65 21.85 151.65 21.65 151.75 24.2 153.75 24.4" fill="#0f0f0f" fill-rule="evenodd" stroke="none"/>
    <path d="M172.7 16.75 L170.1 13.75 169.95 13.75 172.5 16.85 172.7 16.75" fill="#060606" fill-rule="evenodd" stroke="none"/>
    <path d="M170.1 13.75 L172.7 16.75 172.7 1.4 170.1 -2.1 170.1 13.75 M169.9 200.3 L170.1 200.3 170.1 216.25 172.7 212.9 172.65 197.35 169.9 200.3" fill="#000000" fill-rule="evenodd" stroke="none"/>
    <path d="M169.95 13.75 L170.1 13.75 170.1 -2.1 169.85 -2.2 169.95 13.75 M170.1 216.25 L170.1 200.3 169.9 200.3 169.85 216.25 170.1 216.25" fill="#eeeeee" fill-rule="evenodd" stroke="none"/>
    <path d="M166.7 190.4 L166.7 191.1 167.3 191.1 167.3 190.35 166.7 190.4" fill="#121212" fill-rule="evenodd" stroke="none"/>
  </g>
</svg>
