<?xml version="1.0" encoding="UTF-8" standalone="no"?>
<svg xmlns:ffdec="https://www.free-decompiler.com/flash" xmlns:xlink="http://www.w3.org/1999/xlink" ffdec:objectType="shape" height="226.25px" width="123.1px" xmlns="http://www.w3.org/2000/svg">
  <g transform="matrix(1.0, 0.0, 0.0, 1.0, -117.2, 6.1)">
    <path d="M219.8 -6.05 L222.75 -0.75 222.75 20.35 219.8 16.05 219.8 -6.05 M219.8 198.0 L222.65 193.75 222.75 214.95 219.8 220.15 219.8 198.0" fill="#6e6e6e" fill-rule="evenodd" stroke="none"/>
    <path d="M219.6 16.05 L219.55 -6.1 219.8 -6.05 219.8 16.05 219.6 16.05 M219.8 198.0 L219.8 220.15 219.55 220.15 219.6 197.95 219.8 198.0" fill="#d4d4d4" fill-rule="evenodd" stroke="none"/>
    <path d="M228.5 24.1 L224.45 24.7 224.45 19.3 228.5 18.7 228.5 24.1 M120.95 104.0 L120.95 110.1 117.2 110.1 117.2 104.0 120.95 104.0" fill="#0b0b0b" fill-rule="evenodd" stroke="none"/>
    <path d="M222.75 20.35 L222.45 20.5 219.6 16.05 219.8 16.05 222.75 20.35" fill="#060606" fill-rule="evenodd" stroke="none"/>
    <path d="M222.65 193.75 L219.8 198.0 219.6 197.95 222.25 194.0 222.65 193.75" fill="#000000" fill-rule="evenodd" stroke="none"/>
    <path d="M205.9 190.4 L205.9 193.0 203.8 192.8 203.8 190.25 205.9 190.4" fill="#0f0f0f" fill-rule="evenodd" stroke="none"/>
    <path d="M151.65 190.4 L151.65 193.0 153.75 192.8 153.75 190.3 151.65 190.4" fill="#0f0f0f" fill-rule="evenodd" stroke="none"/>
    <path d="M137.7 220.15 L138.0 220.15 137.95 197.95 137.7 198.0 137.7 220.15 M137.95 16.05 L138.0 -6.1 137.7 -6.05 137.7 16.05 137.95 16.05" fill="#d4d4d4" fill-rule="evenodd" stroke="none"/>
    <path d="M134.9 193.75 L134.8 214.95 137.7 220.15 137.7 198.0 134.9 193.75 M137.7 -6.05 L134.8 -0.75 134.8 20.4 137.7 16.05 137.7 -6.05" fill="#6e6e6e" fill-rule="evenodd" stroke="none"/>
    <path d="M137.95 197.95 L135.3 194.0 134.9 193.75 137.7 198.0 137.95 197.95" fill="#000000" fill-rule="evenodd" stroke="none"/>
    <path d="M134.8 20.4 L135.05 20.5 137.95 16.05 137.7 16.05 134.8 20.4" fill="#060606" fill-rule="evenodd" stroke="none"/>
    <path d="M129.05 24.1 L133.1 24.7 133.1 19.3 129.05 18.7 129.05 24.1 M236.55 104.0 L236.55 110.1 240.3 110.1 240.3 104.0 236.55 104.0" fill="#0b0b0b" fill-rule="evenodd" stroke="none"/>
  </g>
</svg>
