<?xml version="1.0" encoding="UTF-8" standalone="no"?>
<svg xmlns:ffdec="https://www.free-decompiler.com/flash" xmlns:xlink="http://www.w3.org/1999/xlink" ffdec:objectType="shape" height="240.35px" width="228.95px" xmlns="http://www.w3.org/2000/svg">
  <g transform="matrix(1.0, 0.0, 0.0, 1.0, -64.3, 13.2)">
    <path d="M265.95 -13.2 L293.25 -7.3 293.25 27.1 290.45 26.7 290.2 26.7 290.1 26.65 289.7 26.6 289.4 26.6 289.0 26.5 288.65 26.5 288.55 26.45 288.25 26.45 288.15 26.35 287.9 26.35 287.8 26.3 287.55 26.3 287.4 26.25 287.15 26.25 287.05 26.2 286.8 26.2 286.6 26.15 286.35 26.15 286.2 26.1 286.05 26.1 285.85 26.0 285.25 26.0 285.05 25.95 284.8 25.95 284.65 25.85 284.45 25.85 283.95 25.7 283.5 25.7 283.3 25.7 283.15 25.6 282.95 25.6 281.95 25.45 281.8 25.45 281.55 25.4 281.4 25.4 276.9 24.7 276.55 24.7 276.35 24.6 276.1 24.55 275.75 24.55 275.55 24.5 275.0 24.5 274.85 24.4 274.65 24.4 274.45 24.35 274.25 24.35 274.05 24.25 273.9 24.25 273.65 24.2 273.45 24.2 273.3 24.15 273.15 24.15 272.9 24.1 272.7 24.1 272.55 24.05 272.35 24.05 272.1 24.0 271.95 24.0 265.95 23.0 265.95 -13.2 M265.95 190.95 L271.95 190.1 272.1 190.1 272.35 190.05 272.55 190.05 272.8 190.0 272.9 190.0 273.2 189.9 273.4 189.9 273.6 189.85 273.8 189.85 274.0 189.75 274.2 189.75 274.45 189.7 274.6 189.7 274.85 189.7 275.0 189.7 275.25 189.65 275.4 189.65 275.55 189.55 275.85 189.55 276.0 189.5 277.5 189.25 277.65 189.25 277.9 189.2 278.1 189.2 278.3 189.15 278.9 189.15 279.15 189.05 280.7 188.8 280.9 188.8 281.15 188.75 281.3 188.75 281.55 188.65 281.75 188.65 281.95 188.65 282.15 188.65 282.35 188.55 283.95 188.3 284.15 188.3 284.4 188.25 284.55 188.25 284.8 188.2 285.0 188.2 285.15 188.15 285.4 188.15 285.6 188.1 285.85 188.1 286.05 188.05 286.25 188.05 286.45 187.95 287.1 187.95 287.2 187.85 287.5 187.85 287.6 187.8 287.9 187.8 288.05 187.7 288.3 187.7 288.4 187.65 288.7 187.65 288.85 187.6 289.15 187.6 289.25 187.6 289.55 187.6 289.65 187.5 289.95 187.5 290.45 187.35 293.25 187.05 293.25 221.55 265.95 227.15 265.95 190.95" fill="#eaeaea" fill-rule="evenodd" stroke="none"/>
    <path d="M265.95 23.0 L265.7 23.0 265.7 -13.1 265.95 -13.2 265.95 23.0 M265.95 227.15 L265.7 227.1 265.7 190.95 265.95 190.95 265.95 227.15" fill="#313131" fill-rule="evenodd" stroke="none"/>
    <path d="M281.8 26.35 L281.8 25.45 281.95 25.45 282.95 25.6 283.15 25.6 283.3 25.7 281.8 26.35 M187.45 99.05 L187.45 115.05 184.85 114.85 184.85 99.35 187.45 99.05" fill="#000000" fill-rule="evenodd" stroke="none"/>
    <path d="M283.5 25.7 L282.0 26.45 281.8 26.35 283.3 25.7 283.5 25.7" fill="#060606" fill-rule="evenodd" stroke="none"/>
    <path d="M203.9 108.45 L203.9 106.1 205.95 106.1 205.95 108.55 203.9 108.45" fill="#0f0f0f" fill-rule="evenodd" stroke="none"/>
    <path d="M187.45 115.05 L187.45 99.05 187.7 99.05 187.7 115.05 187.45 115.05" fill="#eeeeee" fill-rule="evenodd" stroke="none"/>
    <path d="M256.5 200.1 L250.85 198.65 250.85 189.15 251.05 189.15 256.5 190.4 256.5 200.1" fill="#050505" fill-rule="evenodd" stroke="none"/>
    <path d="M91.6 190.95 L85.55 190.1 85.45 190.1 85.2 190.05 84.95 190.05 84.75 190.0 84.6 190.0 84.35 189.9 84.15 189.9 83.9 189.85 83.75 189.85 83.5 189.75 83.35 189.75 83.1 189.75 82.9 189.75 82.7 189.7 82.55 189.7 82.3 189.65 82.15 189.65 81.95 189.55 81.7 189.55 81.55 189.5 80.05 189.25 79.85 189.25 79.65 189.2 79.45 189.2 79.2 189.15 78.65 189.15 78.4 189.05 76.85 188.8 76.6 188.8 76.4 188.75 76.25 188.75 76.0 188.7 75.8 188.7 75.55 188.65 75.4 188.65 75.15 188.55 73.6 188.3 73.4 188.3 73.15 188.25 72.95 188.25 72.75 188.2 72.5 188.2 72.35 188.2 72.15 188.2 71.9 188.1 71.7 188.1 71.5 188.05 71.25 188.05 71.1 187.95 70.45 187.95 70.3 187.85 70.05 187.85 69.9 187.8 69.65 187.8 69.5 187.7 69.2 187.7 69.15 187.65 68.8 187.65 68.65 187.65 68.4 187.65 68.25 187.6 68.0 187.6 67.9 187.5 67.6 187.5 67.05 187.35 64.3 187.05 64.3 221.55 91.6 227.15 91.6 190.95 M91.6 -13.2 L64.3 -7.3 64.3 27.1 67.05 26.7 67.35 26.7 67.45 26.7 67.8 26.6 68.1 26.6 68.55 26.5 68.85 26.5 69.0 26.45 69.25 26.45 69.4 26.35 69.65 26.35 69.7 26.3 70.0 26.3 70.15 26.25 70.35 26.25 70.5 26.2 70.75 26.2 70.9 26.15 71.2 26.15 71.3 26.1 71.5 26.1 71.7 26.0 72.3 26.0 72.45 25.95 72.75 25.95 72.85 25.85 73.05 25.85 73.6 25.7 74.0 25.7 74.25 25.7 74.4 25.65 74.55 25.65 75.55 25.45 75.75 25.45 76.0 25.4 76.1 25.4 80.65 24.7 81.0 24.7 81.2 24.6 81.4 24.6 81.8 24.6 81.95 24.5 82.55 24.5 82.7 24.4 82.85 24.4 83.1 24.35 83.3 24.35 83.45 24.25 83.65 24.25 83.9 24.2 84.05 24.2 84.25 24.15 84.4 24.15 84.65 24.1 84.85 24.1 84.95 24.05 85.2 24.05 85.45 24.0 85.55 24.0 91.6 23.05 91.6 -13.2" fill="#eaeaea" fill-rule="evenodd" stroke="none"/>
    <path d="M153.65 108.45 L153.65 106.1 151.6 106.1 151.6 108.55 153.65 108.45" fill="#0f0f0f" fill-rule="evenodd" stroke="none"/>
    <path d="M101.05 200.1 L106.65 198.65 106.65 189.15 106.5 189.15 101.05 190.4 101.05 200.1" fill="#050505" fill-rule="evenodd" stroke="none"/>
    <path d="M91.6 227.15 L91.8 227.1 91.8 190.95 91.6 190.95 91.6 227.15 M91.6 -13.2 L91.6 23.05 91.8 23.05 91.8 -13.1 91.6 -13.2" fill="#313131" fill-rule="evenodd" stroke="none"/>
    <path d="M75.75 25.45 L75.55 25.45 74.55 25.65 74.4 25.65 74.25 25.7 75.75 26.35 75.75 25.45 M170.1 99.05 L170.1 115.05 172.7 114.85 172.7 99.35 170.1 99.05" fill="#000000" fill-rule="evenodd" stroke="none"/>
    <path d="M74.25 25.7 L74.0 25.7 75.5 26.45 75.75 26.35 74.25 25.7" fill="#060606" fill-rule="evenodd" stroke="none"/>
    <path d="M170.1 115.05 L170.1 99.05 169.85 99.05 169.85 115.05 170.1 115.05" fill="#eeeeee" fill-rule="evenodd" stroke="none"/>
  </g>
</svg>
