<?xml version="1.0" encoding="UTF-8" standalone="no"?>
<svg xmlns:ffdec="https://www.free-decompiler.com/flash" xmlns:xlink="http://www.w3.org/1999/xlink" ffdec:objectType="shape" height="270.8px" width="415.6px" xmlns="http://www.w3.org/2000/svg">
  <g transform="matrix(1.0, 0.0, 0.0, 1.0, 29.05, 28.45)">
    <path d="M324.2 -28.45 L324.65 -28.3 324.5 32.35 324.2 32.25 324.2 -28.45 M324.2 181.4 L324.65 181.4 324.65 242.25 324.2 242.3 324.2 181.4" fill="#181818" fill-rule="evenodd" stroke="none"/>
    <path d="M363.6 26.65 L363.6 -9.2 363.95 -9.5 363.95 26.65 363.6 26.65 M265.75 99.4 L265.65 89.3 265.9 88.9 265.75 99.4" fill="#313131" fill-rule="evenodd" stroke="none"/>
    <path d="M363.95 -9.5 L386.55 -3.85 386.55 30.7 377.25 29.2 377.15 29.2 367.25 27.3 363.95 26.65 363.95 -9.5 M265.9 88.9 L293.2 89.8 293.2 124.35 292.5 124.45 265.9 125.15 265.75 99.4 265.9 88.9" fill="#eaeaea" fill-rule="evenodd" stroke="none"/>
    <path d="M284.55 39.5 L284.4 -15.4 324.2 -28.45 324.2 32.25 284.55 39.5 M324.2 242.3 L284.4 229.7 284.4 174.75 285.05 174.6 285.4 174.75 285.75 174.75 286.1 174.85 286.5 174.85 286.85 175.0 287.45 175.1 287.8 175.1 288.15 175.2 288.5 175.2 288.85 175.35 289.25 175.35 290.15 175.5 290.6 175.5 290.8 175.65 291.3 175.65 292.6 175.9 292.9 176.05 293.35 176.05 293.55 176.1 294.0 176.1 295.3 176.35 295.55 176.5 296.05 176.5 296.25 176.6 296.75 176.6 298.05 176.85 298.2 176.95 298.7 176.95 298.95 177.1 299.4 177.1 300.05 177.2 300.25 177.3 300.75 177.3 300.95 177.45 301.45 177.45 301.7 177.55 302.15 177.55 302.7 177.65 302.95 177.8 303.4 177.8 303.65 177.9 304.15 177.9 304.4 178.05 304.85 178.05 305.45 178.15 305.7 178.25 306.15 178.25 306.4 178.4 306.9 178.4 307.1 178.5 307.55 178.5 308.15 178.65 308.35 178.7 308.85 178.7 309.1 178.85 309.6 178.85 309.8 179.0 310.25 179.0 310.85 179.1 311.1 179.2 311.6 179.2 311.8 179.3 312.25 179.3 312.5 179.45 312.95 179.45 313.2 179.6 313.55 179.6 313.8 179.7 314.3 179.7 314.5 179.8 314.95 179.8 315.35 179.9 315.7 179.9 316.5 180.15 317.0 180.15 317.3 180.25 317.65 180.25 318.05 180.35 318.4 180.35 318.75 180.5 319.35 180.6 319.7 180.6 320.05 180.75 324.2 181.4 324.2 242.3" fill="#373737" fill-rule="evenodd" stroke="none"/>
    <path d="M324.5 32.35 L284.95 39.75 284.55 39.5 324.2 32.25 324.5 32.35 M367.25 27.3 L363.6 26.65 363.95 26.65 367.25 27.3" fill="#060606" fill-rule="evenodd" stroke="none"/>
    <path d="M344.3 201.8 L344.3 189.3 346.8 187.8 346.9 187.8 351.75 185.0 351.95 211.95 344.45 217.8 344.3 201.8" fill="#bbbbbb" fill-rule="evenodd" stroke="none"/>
    <path d="M344.3 201.8 L344.45 217.8 344.05 217.8 344.3 201.8" fill="#959595" fill-rule="evenodd" stroke="none"/>
    <path d="M-6.45 -9.5 L-29.05 -3.8 -29.05 30.7 -19.7 29.2 -19.65 29.2 -9.75 27.3 -6.45 26.7 -6.45 -9.5 M91.65 88.9 L64.35 89.85 64.35 124.35 65.0 124.45 91.65 125.15 91.8 99.4 91.65 88.9" fill="#eaeaea" fill-rule="evenodd" stroke="none"/>
    <path d="M33.35 242.35 L73.15 229.75 73.15 174.75 72.45 174.6 72.15 174.75 71.8 174.75 71.4 174.85 71.05 174.85 70.7 175.0 70.1 175.1 69.7 175.1 69.4 175.2 69.05 175.2 68.65 175.35 68.25 175.35 67.4 175.55 66.95 175.55 66.7 175.65 66.2 175.65 64.95 175.9 64.65 176.05 64.2 176.05 63.95 176.1 63.5 176.1 62.25 176.35 61.95 176.5 61.5 176.5 61.3 176.6 60.75 176.6 59.5 176.85 59.3 176.95 58.8 176.95 58.6 177.1 58.1 177.1 57.5 177.2 57.25 177.3 56.8 177.3 56.55 177.45 56.05 177.45 55.85 177.55 55.4 177.55 54.85 177.65 54.55 177.8 54.1 177.8 53.9 177.9 53.4 177.9 53.15 178.05 52.7 178.05 52.1 178.15 51.8 178.25 51.35 178.25 51.15 178.4 50.65 178.4 50.4 178.5 50.0 178.5 49.4 178.65 49.2 178.75 48.65 178.75 48.45 178.85 47.95 178.85 47.7 179.0 47.25 179.0 46.65 179.1 46.45 179.25 45.95 179.25 45.7 179.3 45.3 179.3 45.0 179.45 44.55 179.45 44.35 179.6 43.95 179.6 43.75 179.7 43.25 179.7 43.0 179.8 42.55 179.8 42.2 179.9 41.8 179.9 41.05 180.15 40.55 180.15 40.25 180.25 39.85 180.25 39.5 180.35 39.15 180.35 38.75 180.5 38.15 180.6 37.8 180.6 37.5 180.75 33.35 181.4 33.35 242.35 M33.35 32.25 L72.95 39.5 73.15 -15.35 33.35 -28.45 33.35 32.25" fill="#373737" fill-rule="evenodd" stroke="none"/>
    <path d="M33.35 181.4 L32.9 181.4 32.9 242.25 33.35 242.35 33.35 181.4 M33.0 32.35 L33.35 32.25 33.35 -28.45 32.9 -28.3 33.0 32.35" fill="#181818" fill-rule="evenodd" stroke="none"/>
    <path d="M13.25 201.85 L13.1 217.8 13.45 217.8 13.25 201.85" fill="#959595" fill-rule="evenodd" stroke="none"/>
    <path d="M13.1 217.8 L13.25 201.85 13.25 189.3 10.75 187.8 10.65 187.8 5.8 185.0 5.55 211.95 13.1 217.8" fill="#bbbbbb" fill-rule="evenodd" stroke="none"/>
    <path d="M-6.05 26.7 L-6.05 -9.2 -6.45 -9.5 -6.45 26.7 -6.05 26.7 M91.8 99.4 L91.85 89.3 91.65 88.9 91.8 99.4" fill="#313131" fill-rule="evenodd" stroke="none"/>
    <path d="M-9.75 27.3 L-6.05 26.7 -6.45 26.7 -9.75 27.3 M33.35 32.25 L33.0 32.35 72.6 39.75 72.95 39.5 33.35 32.25" fill="#060606" fill-rule="evenodd" stroke="none"/>
  </g>
</svg>
