<?xml version="1.0" encoding="UTF-8" standalone="no"?>
<svg xmlns:ffdec="https://www.free-decompiler.com/flash" xmlns:xlink="http://www.w3.org/1999/xlink" ffdec:objectType="shape" height="299.95px" width="506.95px" xmlns="http://www.w3.org/2000/svg">
  <g transform="matrix(1.0, 0.0, 0.0, 1.0, 74.7, 43.0)">
    <path d="M255.0 41.9 L254.7 41.9 254.7 -42.6 254.9 -42.9 255.3 -43.0 255.3 41.75 255.0 41.9 M255.3 171.95 L255.3 256.95 254.7 256.7 254.7 172.15 254.8 171.85 255.3 171.95" fill="#040404" fill-rule="evenodd" stroke="none"/>
    <path d="M255.3 41.75 L255.3 -43.0 319.15 -27.85 319.15 48.35 318.3 48.55 318.1 48.45 314.45 48.05 313.85 48.05 313.7 48.0 313.15 48.0 312.95 47.9 312.35 47.9 312.25 47.8 311.65 47.8 311.5 47.75 310.95 47.75 310.75 47.7 310.2 47.7 310.0 47.6 309.45 47.6 309.2 47.55 308.7 47.55 308.5 47.45 308.05 47.45 307.75 47.35 307.25 47.35 306.95 47.3 306.55 47.3 306.25 47.2 304.4 47.1 303.95 46.95 302.15 46.85 301.8 46.7 300.75 46.65 300.25 46.6 300.05 46.6 297.3 46.25 297.05 46.25 293.5 45.9 293.45 45.9 278.9 44.4 278.7 44.4 277.4 44.2 277.15 44.2 276.7 44.15 276.45 44.15 275.95 44.05 275.7 44.05 275.25 44.0 275.0 44.0 274.5 43.9 274.2 43.9 273.8 43.85 273.45 43.85 273.0 43.75 272.7 43.75 272.35 43.65 272.0 43.65 271.65 43.6 271.25 43.6 270.8 43.5 270.5 43.5 270.15 43.45 269.75 43.45 269.4 43.35 269.0 43.35 268.7 43.3 268.2 43.3 267.9 43.2 267.55 43.2 267.2 43.1 266.75 43.1 266.55 43.05 266.05 43.05 265.8 42.95 265.25 42.95 265.0 42.9 264.5 42.9 264.3 42.85 263.75 42.85 263.6 42.7 263.05 42.7 262.8 42.65 262.3 42.65 262.1 42.6 261.55 42.6 261.25 42.45 260.8 42.45 260.55 42.4 259.25 42.4 259.05 42.25 258.6 42.25 258.25 42.2 257.85 42.2 257.6 42.1 257.1 42.1 256.75 42.0 256.4 42.0 256.05 41.95 255.65 41.95 255.3 41.75 M431.8 -31.35 L432.25 -31.25 432.25 32.55 431.8 32.45 431.8 -31.35 M324.2 76.6 L324.7 76.65 324.7 137.35 324.2 137.35 324.2 76.6 M255.3 171.95 L255.55 171.95 255.75 171.85 256.3 171.85 256.55 171.85 258.8 171.55 259.5 171.55 259.7 171.5 260.3 171.5 260.45 171.4 261.1 171.4 261.25 171.3 261.85 171.3 262.1 171.25 262.7 171.25 262.9 171.2 263.5 171.2 263.65 171.1 264.3 171.1 264.5 171.0 265.1 171.0 265.35 170.95 265.9 170.95 266.1 170.85 266.65 170.85 267.0 170.8 267.45 170.8 267.75 170.75 268.2 170.75 268.55 170.65 269.0 170.65 269.4 170.55 270.6 170.5 271.0 170.35 272.9 170.25 273.8 170.05 275.4 170.05 275.85 169.9 276.95 169.85 277.5 169.75 277.7 169.75 283.15 169.2 283.35 169.15 283.95 169.15 284.1 169.1 296.75 167.8 297.0 167.8 297.55 167.7 298.55 167.65 299.1 167.6 299.4 167.6 299.9 167.5 300.2 167.5 300.65 167.4 301.8 167.35 302.25 167.25 302.65 167.25 303.0 167.15 303.4 167.15 303.8 167.1 305.05 167.05 305.45 166.95 305.85 166.95 306.25 166.85 306.7 166.85 307.05 166.75 307.5 166.75 307.75 166.7 308.25 166.7 308.65 166.6 309.15 166.6 309.35 166.55 309.9 166.55 310.2 166.5 310.75 166.5 310.95 166.4 311.5 166.4 311.75 166.3 312.35 166.3 312.5 166.25 313.15 166.25 313.35 166.15 313.9 166.15 314.05 166.05 319.15 165.65 319.15 242.1 255.3 256.95 255.3 171.95" fill="#181818" fill-rule="evenodd" stroke="none"/>
    <path d="M431.8 -31.35 L431.8 32.45 426.15 33.45 426.0 33.45 411.45 35.55 411.35 35.55 379.6 40.05 379.5 -17.5 431.8 -31.35 M324.2 137.35 L284.45 134.55 284.45 79.65 324.2 76.6 324.2 137.35" fill="#373737" fill-rule="evenodd" stroke="none"/>
    <path d="M255.0 41.9 L255.3 41.75 255.65 41.95 255.0 41.9 M431.8 32.45 L432.25 32.55 426.15 33.45 431.8 32.45" fill="#060606" fill-rule="evenodd" stroke="none"/>
    <path d="M363.55 125.05 L363.25 125.05 363.25 89.05 363.55 89.05 363.55 125.05" fill="#313131" fill-rule="evenodd" stroke="none"/>
    <path d="M363.55 125.05 L363.55 89.05 386.1 90.0 386.1 124.35 385.75 124.45 363.55 125.05" fill="#eaeaea" fill-rule="evenodd" stroke="none"/>
    <path d="M386.55 179.6 L386.85 179.7 388.05 179.7 388.35 179.75 389.5 179.75 389.85 179.8 391.1 179.8 391.3 179.9 392.6 179.9 392.9 179.95 394.1 179.95 394.4 180.05 395.55 180.05 395.9 180.15 397.15 180.15 397.4 180.2 398.65 180.2 398.95 180.25 400.15 180.25 400.45 180.35 401.65 180.35 401.95 180.45 403.15 180.45 403.4 180.5 404.7 180.5 405.0 180.6 406.2 180.6 406.5 180.7 407.65 180.7 408.0 180.8 409.15 180.8 409.5 180.8 410.7 180.8 411.05 180.9 412.25 180.9 412.55 181.0 413.7 181.0 414.0 181.1 415.2 181.1 415.5 181.15 416.7 181.15 417.05 181.25 418.25 181.25 418.6 181.3 419.75 181.3 420.1 181.35 421.25 181.35 421.55 181.45 422.75 181.45 423.05 181.55 424.25 181.55 424.45 181.65 425.8 181.65 425.95 181.7 427.35 181.7 427.45 181.8 431.45 181.95 431.35 235.15 377.45 230.3 377.45 179.3 385.0 179.5 385.3 179.6 386.55 179.6" fill="#a6a6a6" fill-rule="evenodd" stroke="none"/>
    <path d="M-74.3 -31.35 L-74.7 -31.25 -74.7 32.55 -74.3 32.5 -74.3 -31.35 M102.25 171.95 L102.0 171.95 101.8 171.9 101.25 171.9 101.0 171.85 98.7 171.55 98.05 171.55 97.85 171.5 97.2 171.5 97.05 171.4 96.45 171.4 96.3 171.35 95.7 171.35 95.45 171.25 94.85 171.25 94.6 171.2 94.0 171.2 93.9 171.1 93.25 171.1 93.0 171.0 92.4 171.0 92.2 170.95 91.65 170.95 91.4 170.85 90.85 170.85 90.55 170.8 90.1 170.8 89.75 170.75 89.3 170.75 89.0 170.65 88.55 170.65 88.1 170.55 86.95 170.5 86.55 170.35 84.6 170.3 83.75 170.05 82.15 170.05 81.7 169.9 80.6 169.85 80.05 169.8 79.8 169.8 74.4 169.2 74.2 169.15 73.6 169.15 73.4 169.1 60.75 167.8 60.55 167.8 60.0 167.7 59.0 167.7 58.45 167.6 58.1 167.6 57.6 167.5 57.35 167.5 56.9 167.4 55.7 167.35 55.3 167.25 54.9 167.25 54.5 167.15 54.1 167.15 53.75 167.1 52.45 167.05 52.1 166.95 51.7 166.95 51.3 166.85 50.8 166.85 50.5 166.75 50.05 166.75 49.75 166.7 49.25 166.7 48.9 166.65 48.4 166.65 48.15 166.55 47.6 166.55 47.35 166.5 46.8 166.5 46.55 166.4 46.05 166.4 45.8 166.3 45.15 166.3 45.0 166.25 44.4 166.25 44.2 166.15 43.6 166.15 43.45 166.1 38.4 165.65 38.4 242.1 102.25 256.95 102.25 171.95 M33.35 76.6 L32.85 76.7 32.85 137.35 33.35 137.35 33.35 76.6 M102.25 -43.0 L38.4 -27.85 38.4 48.35 39.2 48.55 39.45 48.45 43.05 48.05 43.7 48.05 43.85 48.0 44.4 48.0 44.55 47.9 45.15 47.9 45.3 47.8 45.9 47.8 46.05 47.75 46.55 47.75 46.8 47.7 47.35 47.7 47.55 47.6 48.1 47.6 48.3 47.55 48.8 47.55 49.05 47.45 49.5 47.45 49.75 47.35 50.25 47.35 50.6 47.3 50.95 47.3 51.3 47.2 53.15 47.1 53.6 46.95 55.4 46.85 55.75 46.7 56.8 46.7 57.25 46.6 57.5 46.6 60.25 46.25 60.5 46.25 64.0 45.9 64.05 45.9 78.65 44.4 78.85 44.4 80.15 44.2 80.35 44.2 80.8 44.15 81.1 44.15 81.6 44.05 81.8 44.05 82.3 44.0 82.55 44.0 83.0 43.9 83.35 43.9 83.75 43.85 84.05 43.85 84.5 43.75 84.85 43.75 85.2 43.65 85.5 43.65 85.9 43.6 86.3 43.6 86.75 43.55 87.05 43.55 87.4 43.45 87.8 43.45 88.1 43.35 88.55 43.35 88.8 43.3 89.3 43.3 89.65 43.2 90.0 43.2 90.3 43.1 90.75 43.1 91.0 43.05 91.5 43.05 91.75 43.0 92.3 43.0 92.5 42.9 93.0 42.9 93.25 42.85 93.8 42.85 93.9 42.7 94.45 42.7 94.75 42.65 95.25 42.65 95.45 42.6 96.0 42.6 96.3 42.5 96.75 42.5 97.0 42.4 98.25 42.4 98.5 42.25 98.95 42.25 99.25 42.2 99.7 42.2 99.95 42.1 100.45 42.1 100.75 42.0 101.15 42.0 101.45 41.95 101.85 41.95 102.25 41.75 102.25 -43.0" fill="#181818" fill-rule="evenodd" stroke="none"/>
    <path d="M-74.3 -31.35 L-74.3 32.5 -68.65 33.45 -68.5 33.45 -53.9 35.55 -53.85 35.55 -22.05 40.05 -21.95 -17.45 -74.3 -31.35 M33.35 137.35 L73.1 134.55 73.1 79.65 33.35 76.6 33.35 137.35" fill="#373737" fill-rule="evenodd" stroke="none"/>
    <path d="M-74.3 32.5 L-74.7 32.55 -68.65 33.45 -74.3 32.5 M102.25 41.75 L101.85 41.95 102.5 41.9 102.25 41.75" fill="#060606" fill-rule="evenodd" stroke="none"/>
    <path d="M-6.05 89.05 L-28.6 90.0 -28.6 124.35 -28.2 124.45 -6.05 125.05 -6.05 89.05" fill="#eaeaea" fill-rule="evenodd" stroke="none"/>
    <path d="M-69.9 181.8 L-73.9 181.95 -73.85 235.15 -19.9 230.3 -19.9 179.3 -27.5 179.5 -27.75 179.6 -29.05 179.6 -29.3 179.7 -30.5 179.7 -30.8 179.75 -31.95 179.75 -32.35 179.8 -33.55 179.8 -33.8 179.9 -35.05 179.9 -35.4 179.95 -36.55 179.95 -36.9 180.05 -38.05 180.05 -38.35 180.15 -39.65 180.15 -39.85 180.2 -41.15 180.2 -41.4 180.3 -42.6 180.3 -42.9 180.35 -44.1 180.35 -44.45 180.45 -45.6 180.45 -45.9 180.5 -47.15 180.5 -47.5 180.6 -48.65 180.6 -48.95 180.7 -50.15 180.7 -50.45 180.8 -51.65 180.8 -51.95 180.85 -53.15 180.85 -53.5 180.9 -54.7 180.9 -55.0 181.0 -56.15 181.0 -56.5 181.1 -57.65 181.1 -58.0 181.15 -59.15 181.15 -59.55 181.25 -60.75 181.25 -61.05 181.35 -62.25 181.35 -62.55 181.35 -63.75 181.35 -64.0 181.45 -65.2 181.45 -65.5 181.55 -66.7 181.55 -66.95 181.65 -68.25 181.65 -68.45 181.7 -69.8 181.7 -69.9 181.8" fill="#a6a6a6" fill-rule="evenodd" stroke="none"/>
    <path d="M102.25 256.95 L102.85 256.7 102.85 172.15 102.75 171.9 102.25 171.95 102.25 256.95 M102.25 -43.0 L102.25 41.75 102.5 41.9 102.85 41.9 102.85 -42.6 102.65 -42.9 102.25 -43.0" fill="#040404" fill-rule="evenodd" stroke="none"/>
    <path d="M-6.05 89.05 L-6.05 125.05 -5.7 125.05 -5.7 89.05 -6.05 89.05" fill="#313131" fill-rule="evenodd" stroke="none"/>
  </g>
</svg>
