<?xml version="1.0" encoding="UTF-8" standalone="no"?>
<svg xmlns:ffdec="https://www.free-decompiler.com/flash" xmlns:xlink="http://www.w3.org/1999/xlink" ffdec:objectType="shape" height="336.15px" width="397.55px" xmlns="http://www.w3.org/2000/svg">
  <g transform="matrix(1.0, 0.0, 0.0, 1.0, 20.0, 56.95)">
    <path d="M282.35 54.5 L282.35 -56.45 282.85 -56.95 282.85 54.35 282.35 54.5 M176.0 57.3 L176.25 52.7 176.25 161.2 176.0 156.7 176.0 57.3" fill="#000000" fill-rule="evenodd" stroke="none"/>
    <path d="M176.0 57.3 L170.85 57.3 170.85 -42.3 270.25 -42.3 270.25 56.85 176.25 52.7 176.0 57.3 M270.25 157.25 L270.25 256.5 170.9 256.5 170.85 156.95 176.0 156.7 176.25 161.2 270.25 157.25" fill="#d6d6d6" fill-rule="evenodd" stroke="none"/>
    <path d="M282.85 54.35 L282.85 -56.95 377.55 -43.35 377.25 58.95 367.4 58.5 366.5 58.35 364.95 58.35 363.95 58.2 362.9 58.2 362.8 53.15 356.8 37.3 356.55 36.95 355.15 37.2 355.15 57.9 354.8 57.9 353.95 57.75 352.3 57.75 351.35 57.65 347.4 57.55 346.45 57.4 342.3 57.3 341.35 57.15 339.8 57.15 338.9 57.05 334.9 57.0 333.85 56.85 332.4 56.85 331.3 56.7 327.35 56.65 326.4 56.5 322.35 56.4 321.3 56.25 319.95 56.25 318.85 56.1 289.35 54.75 282.85 54.35 M176.25 52.7 L270.25 56.85 277.15 57.15 277.15 157.1 270.25 157.25 176.25 161.2 176.25 52.7" fill="#eeeeee" fill-rule="evenodd" stroke="none"/>
    <path d="M355.15 155.75 L355.15 57.9 355.15 37.2 356.55 36.95 356.8 37.3 356.8 175.75 355.75 176.05 355.15 175.65 355.15 155.75" fill="#b6b6b6" fill-rule="evenodd" stroke="none"/>
    <path d="M362.9 58.2 L362.9 155.05 362.9 160.5 356.8 175.75 356.8 37.3 362.8 53.15 362.9 58.2" fill="#9b9b9b" fill-rule="evenodd" stroke="none"/>
    <path d="M362.9 155.05 L363.95 155.05 364.95 154.95 365.3 154.95 366.25 154.85 366.65 154.85 367.5 154.7 368.0 154.7 368.8 154.55 369.25 154.55 370.15 154.5 370.6 154.5 371.35 154.35 371.95 154.35 372.8 154.25 373.3 154.25 374.1 154.1 376.05 154.1 376.05 256.25 296.75 279.2 296.6 161.1 300.5 160.75 300.65 160.75 329.5 158.15 329.7 158.15 330.65 158.0 331.1 158.0 331.9 157.85 332.4 157.85 333.25 157.75 333.75 157.75 334.6 157.65 334.95 157.65 335.95 157.55 336.4 157.55 337.25 157.4 337.7 157.4 338.55 157.25 339.05 157.25 341.15 157.1 341.6 157.1 342.55 156.95 343.0 156.95 343.85 156.85 344.3 156.85 345.1 156.7 345.6 156.7 346.45 156.6 346.9 156.6 347.75 156.5 348.3 156.5 349.0 156.35 349.6 156.35 350.4 156.25 350.75 156.25 351.75 156.1 352.1 156.1 353.0 156.05 353.35 156.05 354.3 155.9 354.8 155.9 355.15 155.75 355.15 175.65 355.75 176.05 356.8 175.75 362.9 160.5 362.9 155.05" fill="#ececec" fill-rule="evenodd" stroke="none"/>
    <path d="M282.35 54.5 L282.85 54.35 289.35 54.75 282.35 54.5" fill="#060606" fill-rule="evenodd" stroke="none"/>
    <path d="M296.75 279.2 L295.9 278.85 295.9 161.3 296.6 161.1 296.75 279.2" fill="#272727" fill-rule="evenodd" stroke="none"/>
    <path d="M74.7 -56.9 L-20.0 -43.35 -19.7 58.95 -9.85 58.5 -8.95 58.35 -7.4 58.35 -6.45 58.25 -5.4 58.25 -5.25 53.15 0.75 37.3 0.95 36.95 2.35 37.2 2.35 57.9 2.75 57.9 3.55 57.75 5.2 57.75 6.15 57.65 10.15 57.55 11.1 57.4 15.2 57.3 16.15 57.2 17.7 57.2 18.65 57.05 22.65 57.0 23.7 56.85 25.1 56.85 26.2 56.7 30.2 56.65 31.15 56.5 35.15 56.4 36.2 56.25 37.6 56.25 38.65 56.15 68.15 54.75 74.7 54.35 74.7 -56.9 M87.3 56.85 L80.35 57.2 80.35 157.1 87.3 157.25 181.25 161.2 181.25 52.7 87.3 56.85" fill="#eeeeee" fill-rule="evenodd" stroke="none"/>
    <path d="M-5.4 155.05 L-6.45 155.05 -7.4 154.95 -7.75 154.95 -8.7 154.85 -9.15 154.85 -9.95 154.7 -10.45 154.7 -11.3 154.55 -11.75 154.55 -12.6 154.5 -13.05 154.5 -13.85 154.35 -14.45 154.35 -15.25 154.25 -15.75 154.25 -16.55 154.1 -18.55 154.1 -18.55 256.25 60.75 279.2 60.9 161.1 57.05 160.75 56.9 160.75 28.05 158.15 27.8 158.15 26.9 158.0 26.45 158.0 25.6 157.85 25.1 157.85 24.3 157.75 23.8 157.75 22.9 157.65 22.55 157.65 21.6 157.55 21.15 157.55 20.25 157.4 19.8 157.4 19.0 157.25 18.5 157.25 16.4 157.1 15.95 157.1 15.0 156.95 14.5 156.95 13.7 156.85 13.25 156.85 12.4 156.7 11.9 156.7 11.1 156.65 10.65 156.65 9.75 156.5 9.2 156.5 8.55 156.35 7.95 156.35 7.1 156.25 6.75 156.25 5.8 156.1 5.45 156.1 4.5 156.05 4.15 156.05 3.25 155.9 2.75 155.9 2.35 155.75 2.35 175.65 1.8 176.05 0.75 175.75 -5.4 160.5 -5.4 155.05" fill="#ececec" fill-rule="evenodd" stroke="none"/>
    <path d="M60.75 279.2 L61.65 278.85 61.65 161.35 60.9 161.1 60.75 279.2" fill="#272727" fill-rule="evenodd" stroke="none"/>
    <path d="M87.3 157.25 L87.3 256.5 186.6 256.5 186.7 156.95 181.55 156.7 181.25 161.2 87.3 157.25 M181.55 57.3 L186.7 57.3 186.7 -42.3 87.3 -42.3 87.3 56.85 181.25 52.7 181.55 57.3" fill="#d6d6d6" fill-rule="evenodd" stroke="none"/>
    <path d="M2.35 155.75 L2.35 57.9 2.35 37.2 0.95 36.95 0.75 37.3 0.75 175.75 1.8 176.05 2.35 175.65 2.35 155.75" fill="#b6b6b6" fill-rule="evenodd" stroke="none"/>
    <path d="M-5.4 58.25 L-5.4 155.05 -5.4 160.5 0.75 175.75 0.75 37.3 -5.25 53.15 -5.4 58.25" fill="#9b9b9b" fill-rule="evenodd" stroke="none"/>
    <path d="M68.15 54.75 L75.15 54.5 74.7 54.35 68.15 54.75" fill="#060606" fill-rule="evenodd" stroke="none"/>
    <path d="M75.15 54.5 L75.15 -56.45 74.7 -56.9 74.7 54.35 75.15 54.5 M181.55 156.7 L181.55 57.3 181.25 52.7 181.25 161.2 181.55 156.7" fill="#000000" fill-rule="evenodd" stroke="none"/>
  </g>
</svg>
