<?xml version="1.0" encoding="UTF-8" standalone="no"?>
<svg xmlns:ffdec="https://www.free-decompiler.com/flash" xmlns:xlink="http://www.w3.org/1999/xlink" ffdec:objectType="shape" height="74.55px" width="365.35px" xmlns="http://www.w3.org/2000/svg">
  <g transform="matrix(1.0, 0.0, 0.0, 1.0, -186.0, -347.6)">
    <path d="M359.45 368.55 L366.95 367.5 365.9 383.85 359.8 383.85 359.8 399.7 Q359.8 402.4 360.55 403.3 361.35 404.25 364.05 404.25 L365.9 404.15 367.3 403.85 364.1 421.55 361.4 421.75 358.55 421.8 Q349.85 421.8 344.95 417.9 340.15 414.0 340.15 405.15 L340.15 383.85 335.0 383.9 335.55 368.55 339.75 368.55 339.75 362.65 359.45 353.95 359.45 368.55 M333.25 385.7 L332.25 419.55 314.15 421.1 314.15 415.0 314.0 415.0 Q311.55 418.4 307.8 419.75 304.05 421.1 299.75 421.1 296.15 421.1 292.9 419.8 289.7 418.5 287.25 416.1 284.8 413.65 283.35 410.25 281.95 406.8 281.95 402.6 281.95 398.9 283.35 395.85 284.8 392.7 287.3 390.45 289.8 388.15 293.15 386.8 296.5 385.55 300.5 385.55 304.65 385.55 307.45 386.75 310.3 387.95 312.3 389.5 L312.3 386.8 Q312.3 382.65 309.55 381.35 306.9 379.95 302.55 379.95 298.6 379.95 295.2 380.75 291.75 381.6 288.25 382.7 L291.75 368.5 Q296.05 367.2 300.75 366.75 L310.3 366.25 Q314.7 366.25 318.9 367.25 323.2 368.3 326.35 370.65 329.55 373.0 331.45 376.65 333.35 380.3 333.25 385.7 M390.6 367.3 L390.05 400.55 Q389.95 402.7 390.95 403.65 392.05 404.6 394.2 404.6 396.0 404.6 397.1 403.7 398.2 402.75 398.15 400.6 L397.6 368.95 418.3 367.3 416.95 420.7 400.4 421.4 400.4 413.15 400.2 413.15 Q398.45 418.05 394.55 420.1 390.75 422.15 385.6 422.15 378.8 422.15 374.6 418.15 370.35 414.2 370.35 406.55 L370.35 368.95 390.6 367.3 M442.05 377.3 Q444.6 367.3 455.75 367.3 L460.35 367.65 455.7 386.75 454.3 386.65 452.5 386.65 Q448.75 386.65 446.0 389.15 443.25 391.6 443.25 396.95 L443.25 420.2 424.25 421.8 423.75 368.95 441.85 367.3 441.85 377.3 442.05 377.3 M485.2 366.95 Q494.2 366.95 500.85 371.5 507.45 376.05 510.7 383.6 L483.8 403.7 Q484.8 404.25 486.4 404.4 L489.4 404.6 Q493.5 404.6 496.35 403.1 499.2 401.65 501.5 399.5 L510.45 414.3 Q504.95 418.3 499.2 420.05 493.45 421.8 485.95 421.8 479.85 421.8 474.75 419.7 469.65 417.6 465.95 414.0 462.3 410.4 460.2 405.65 458.15 400.85 458.15 395.5 458.15 388.75 460.3 383.45 462.45 378.15 466.15 374.45 469.85 370.85 474.75 368.9 479.7 366.95 485.2 366.95 M477.35 393.8 L477.9 395.2 491.35 385.0 Q490.1 383.55 488.6 382.95 L485.2 382.45 Q483.4 382.45 481.95 383.2 480.45 383.95 479.35 385.25 478.3 386.55 477.7 388.2 477.15 389.8 477.15 391.5 L477.35 393.8 M522.7 368.4 Q526.85 366.95 532.7 366.95 L537.25 367.15 541.5 367.6 545.2 368.3 548.1 368.85 548.1 384.75 543.7 383.85 539.05 383.5 537.3 383.55 535.0 383.8 Q533.8 384.0 532.9 384.6 532.0 385.1 532.0 386.0 532.0 387.45 533.45 388.15 534.9 388.9 537.0 389.5 L541.65 391.05 Q544.2 391.9 546.3 393.6 548.45 395.25 549.9 398.05 551.35 400.85 551.35 405.3 551.35 410.2 549.2 413.45 547.05 416.65 543.6 418.6 540.1 420.55 535.55 421.35 L526.1 422.15 518.65 421.7 511.25 420.25 511.25 403.3 516.2 404.5 521.65 404.95 524.3 404.9 526.85 404.6 Q528.0 404.4 528.75 403.85 529.55 403.3 529.55 402.25 529.55 400.9 528.15 400.25 526.7 399.55 524.7 398.9 L520.2 397.4 Q517.75 396.6 515.75 394.9 513.7 393.3 512.3 390.45 510.9 387.7 510.9 383.2 510.9 380.25 512.1 377.35 513.3 374.5 515.85 372.2 518.5 369.8 522.7 368.4 M239.25 374.45 Q242.95 370.85 247.85 368.9 252.8 366.95 258.3 366.95 267.3 366.95 273.95 371.5 280.55 376.05 283.8 383.6 L256.9 403.7 Q257.9 404.25 259.5 404.4 L262.5 404.6 Q266.6 404.6 269.45 403.1 272.3 401.65 274.6 399.5 L283.55 414.3 Q278.05 418.3 272.3 420.05 266.55 421.8 259.05 421.8 252.95 421.8 247.85 419.7 242.75 417.6 239.05 414.0 235.4 410.4 233.3 405.65 231.25 400.85 231.25 395.5 231.25 388.75 233.4 383.45 235.55 378.15 239.25 374.45 M228.2 377.75 L229.45 396.7 210.45 397.85 209.55 420.9 186.6 421.45 186.0 351.25 235.75 347.6 232.95 371.05 210.3 371.95 209.3 378.95 228.2 377.75 M251.0 395.2 L264.45 385.0 Q263.2 383.55 261.7 382.95 L258.3 382.45 Q256.5 382.45 255.05 383.2 253.55 383.95 252.45 385.25 251.4 386.55 250.8 388.2 250.25 389.8 250.25 391.5 L250.45 393.8 251.0 395.2 M308.55 398.9 Q306.5 397.7 302.75 398.35 299.65 398.8 297.7 400.45 295.7 402.1 296.0 404.2 296.35 406.25 298.55 407.3 300.75 408.3 304.3 407.8 307.75 407.25 309.45 405.55 311.2 403.85 310.85 401.85 310.55 400.15 308.55 398.9" fill="#00ff00" fill-rule="evenodd" stroke="none"/>
  </g>
</svg>
